<svg width="86" height="86" viewBox="0 0 86 86" fill="none" xmlns="http://www.w3.org/2000/svg">
<g clip-path="url(#clip0_19_93)">
<rect width="86" height="86" fill="#401361"/>
<rect y="20" width="86.0032" height="46.7" fill="#401361"/>
<path d="M24.2409 39.8695C24.2409 40.6381 24.1248 41.3456 23.8924 41.9922C23.66 42.6387 23.3145 43.1999 22.8559 43.6756C22.3973 44.1514 21.8256 44.5235 21.1407 44.7919C20.4558 45.0602 19.667 45.1944 18.7742 45.1944C17.8692 45.1944 17.0743 45.0602 16.3894 44.7919C15.7045 44.5235 15.1328 44.1514 14.6742 43.6756C14.2155 43.1999 13.87 42.6387 13.6377 41.9922C13.4053 41.3456 13.2891 40.6381 13.2891 39.8695V31.9097H16.1509V39.7597C16.1509 40.1623 16.2151 40.5344 16.3435 40.876C16.4719 41.2175 16.6523 41.5134 16.8847 41.7634C17.1171 42.0135 17.3953 42.2087 17.7194 42.349C18.0435 42.4893 18.3951 42.5594 18.7742 42.5594C19.1533 42.5594 19.5019 42.4893 19.8199 42.349C20.1378 42.2087 20.413 42.0135 20.6454 41.7634C20.8777 41.5134 21.0581 41.2175 21.1865 40.876C21.315 40.5344 21.3792 40.1623 21.3792 39.7597V31.9097H24.2409V39.8695Z" fill="white"/>
<path fill-rule="evenodd" clip-rule="evenodd" d="M28.7087 39.0638H26.1851V52.129H28.9282V47.0054H28.9647C29.2817 47.4324 29.6871 47.7343 30.1809 47.9112C30.6746 48.0881 31.208 48.1765 31.781 48.1765C32.415 48.1765 32.9819 48.0454 33.4817 47.7831C33.9816 47.5208 34.4052 47.1701 34.7527 46.7309C35.1002 46.2917 35.3684 45.7885 35.5574 45.2213C35.7463 44.654 35.8408 44.0593 35.8408 43.4372C35.8408 42.7662 35.7372 42.1502 35.5299 41.589C35.3227 41.0279 35.027 40.543 34.643 40.1343C34.2589 39.7256 33.7987 39.4084 33.2623 39.1828C32.7258 38.9571 32.1285 38.8442 31.4701 38.8442C31.1531 38.8442 30.8544 38.8869 30.574 38.9723C30.2936 39.0577 30.0346 39.1675 29.7968 39.3017C29.5591 39.4359 29.3518 39.5853 29.175 39.75C28.9983 39.9147 28.855 40.0763 28.7453 40.2349H28.7087V39.0638ZM29.2848 45.1388C28.9007 44.724 28.7087 44.1811 28.7087 43.5102C28.7087 42.8392 28.9007 42.2964 29.2848 41.8816C29.6688 41.4669 30.2083 41.2595 30.9032 41.2595C31.5981 41.2595 32.1376 41.4669 32.5217 41.8816C32.9057 42.2964 33.0977 42.8392 33.0977 43.5102C33.0977 44.1811 32.9057 44.724 32.5217 45.1388C32.1376 45.5535 31.5981 45.7609 30.9032 45.7609C30.2083 45.7609 29.6688 45.5535 29.2848 45.1388Z" fill="white"/>
<path d="M42.386 41.2052H39.9593V44.1649C39.9593 44.4085 39.9715 44.6308 39.996 44.8318C40.0206 45.0328 40.0757 45.2063 40.1615 45.3525C40.2473 45.4987 40.379 45.6113 40.5568 45.6905C40.7345 45.7697 40.9704 45.8093 41.2645 45.8093C41.4116 45.8093 41.6046 45.794 41.8436 45.7636C42.0826 45.7331 42.2634 45.6631 42.386 45.5535V47.8372C42.0796 47.9469 41.7609 48.0199 41.43 48.0565C41.0991 48.093 40.7743 48.1113 40.4556 48.1113C39.9899 48.1113 39.561 48.0626 39.1688 47.9651C38.7766 47.8677 38.4334 47.7124 38.1393 47.4992C37.8451 47.2861 37.6153 47.009 37.4499 46.668C37.2844 46.3269 37.2017 45.9128 37.2017 45.4256V36.3818H39.9593V39.0127H42.386V41.2052Z" fill="white"/>
<path d="M43.8117 39.0381H46.5334V47.9162H43.8117V39.0381Z" fill="white"/>
<path d="M24.2409 49.2773V51.9991H13.3539V49.2773L24.2409 49.2773Z" fill="#29DEA1"/>
<path d="M48.5423 38.9995H51.1806V40.2104H51.2173C51.3028 40.0392 51.4249 39.8679 51.5837 39.6967C51.7425 39.5254 51.9318 39.3726 52.1517 39.238C52.3715 39.1034 52.6219 38.9934 52.9028 38.9077C53.1838 38.8221 53.4891 38.7793 53.8189 38.7793C54.4418 38.7793 54.9945 38.9077 55.477 39.1646C55.9595 39.4215 56.3228 39.8251 56.5671 40.3756C56.8847 39.8007 57.2694 39.3909 57.7214 39.1463C58.1733 38.9016 58.7291 38.7793 59.3886 38.7793C59.9871 38.7793 60.491 38.8802 60.9002 39.082C61.3093 39.2839 61.633 39.5591 61.8712 39.9077C62.1094 40.2563 62.2804 40.6661 62.3842 41.137C62.488 41.608 62.5399 42.1125 62.5399 42.6507V47.9166H59.7917V42.7241C59.7917 42.3082 59.7032 41.9504 59.526 41.6508C59.3489 41.3511 59.0344 41.2012 58.5825 41.2012C58.2649 41.2012 57.9993 41.2532 57.7855 41.3572C57.5718 41.4612 57.4008 41.6049 57.2725 41.7884C57.1443 41.9719 57.0526 42.1859 56.9977 42.4306C56.9427 42.6752 56.9152 42.9321 56.9152 43.2012V47.9166H54.167V43.2012C54.167 43.0422 54.1609 42.8464 54.1487 42.614C54.1365 42.3816 54.0937 42.1615 54.0204 41.9535C53.9472 41.7456 53.8281 41.5682 53.6632 41.4214C53.4983 41.2746 53.2571 41.2012 52.9395 41.2012C52.5853 41.2012 52.2982 41.2655 52.0784 41.3939C51.8585 41.5223 51.6906 41.6936 51.5745 41.9076C51.4585 42.1217 51.3822 42.3633 51.3455 42.6324C51.3089 42.9015 51.2905 43.1828 51.2905 43.4764V47.9166H48.5423V38.9995Z" fill="white"/>
<path fill-rule="evenodd" clip-rule="evenodd" d="M70.6224 47.6536C71.2952 47.3486 71.8517 46.9156 72.2921 46.3545L70.3656 44.9456C70.1331 45.2627 69.861 45.5219 69.5491 45.7232C69.2371 45.9245 68.8549 46.0251 68.4023 46.0251C67.8641 46.0251 67.4115 45.8696 67.0446 45.5585C66.6776 45.2475 66.4391 44.8297 66.329 44.3051H72.7141V43.4452C72.7141 42.7377 72.6162 42.0972 72.4205 41.5239C72.2248 40.9506 71.9465 40.4596 71.5857 40.051C71.2249 39.6423 70.7845 39.3282 70.2646 39.1087C69.7448 38.8891 69.1668 38.7793 68.5308 38.7793C67.8458 38.7793 67.2005 38.8891 66.595 39.1087C65.9895 39.3282 65.4636 39.6423 65.0171 40.051C64.5706 40.4596 64.219 40.9506 63.9621 41.5239C63.7052 42.0972 63.5768 42.7377 63.5768 43.4452C63.5768 44.1527 63.7052 44.7931 63.9621 45.3664C64.219 45.9397 64.5706 46.4307 65.0171 46.8393C65.4636 47.248 65.9895 47.5621 66.595 47.7817C67.2005 48.0012 67.8458 48.111 68.5308 48.111C69.2524 48.111 69.9497 47.9585 70.6224 47.6536ZM69.5032 41.2498C69.8212 41.5792 69.9741 41.9756 69.9619 42.4392H66.329C66.3412 42.2196 66.3932 42.0092 66.4849 41.8079C66.5767 41.6066 66.7051 41.4297 66.8703 41.2773C67.0354 41.1248 67.2342 40.9997 67.4666 40.9022C67.699 40.8046 67.9681 40.7558 68.2739 40.7558C68.7754 40.7558 69.1852 40.9205 69.5032 41.2498Z" fill="white"/>
</g>
<defs>
<clipPath id="clip0_19_93">
<rect width="86" height="86" fill="white"/>
</clipPath>
</defs>
</svg>
