<svg width="575" height="130" viewBox="0 0 575 130" fill="none" xmlns="http://www.w3.org/2000/svg">
<path d="M520.703 129.645C507.384 129.645 495.44 126.894 484.871 121.392C474.448 115.746 466.196 108.073 460.115 98.3735C454.035 88.5289 450.994 77.3814 450.994 64.9308C450.994 52.3356 454.035 41.188 460.115 31.4882C466.196 21.6436 474.448 13.9706 484.871 8.46924C495.44 2.82308 507.384 0 520.703 0C532.429 0 542.708 1.80966 551.539 5.42899C560.515 8.90356 568.188 14.6945 574.558 22.8018L552.408 42.9977C548.21 37.9306 543.577 34.1665 538.51 31.7054C533.443 29.2442 527.941 28.0136 522.006 28.0136C514.912 28.0136 508.614 29.6061 503.113 32.7912C497.611 35.8314 493.268 40.1022 490.083 45.6036C487.043 51.105 485.523 57.5474 485.523 64.9308C485.523 72.1695 487.043 78.5395 490.083 84.0409C493.268 89.5423 497.611 93.8855 503.113 97.0705C508.614 100.111 514.912 101.631 522.006 101.631C527.941 101.631 533.443 100.4 538.51 97.9392C543.577 95.478 548.21 91.7139 552.408 86.6469L574.558 106.843C568.188 114.805 560.515 120.596 551.539 124.216C542.708 127.835 532.429 129.645 520.703 129.645Z" fill="#2C2C2C"/>
<path d="M397.02 127.256V2.38879H431.331V127.256H397.02Z" fill="#2C2C2C"/>
<path d="M371.573 113.792C366.94 117.122 361.729 120.017 355.938 122.478C350.292 124.795 344.356 126.532 338.131 127.69C332.05 128.993 326.042 129.645 320.106 129.645C306.208 129.645 293.902 126.894 283.189 121.392C272.476 115.746 264.079 108.001 257.999 98.1563C252.063 88.3117 249.095 77.2366 249.095 64.9308C249.095 52.3356 252.135 41.188 258.216 31.4882C264.296 21.7884 272.693 14.1154 283.406 8.46924C294.12 2.82308 306.28 0 319.889 0C332.05 0 342.619 1.88205 351.595 5.64616C360.715 9.26549 368.316 14.8393 374.396 22.3675L351.812 42.5634C347.613 37.6411 342.836 34.0217 337.479 31.7054C332.267 29.2442 326.549 28.0136 320.323 28.0136C313.23 28.0136 306.932 29.6061 301.431 32.7912C295.929 35.8314 291.586 40.1022 288.401 45.6036C285.216 51.105 283.623 57.5474 283.623 64.9308C283.623 72.0247 285.216 78.3948 288.401 84.0409C291.586 89.5423 295.929 93.8855 301.431 97.0705C306.932 100.111 313.374 101.631 320.758 101.631C326.838 101.631 332.34 100.69 337.262 98.8078C342.329 96.9257 347.324 94.1027 352.246 90.3386L371.573 113.792ZM340.302 114.226V63.1936H371.573V113.792L340.302 114.226Z" fill="#2C2C2C"/>
<path d="M168.133 129.645C154.669 129.645 142.653 126.894 132.085 121.392C121.516 115.746 113.192 108.001 107.111 98.1563C101.031 88.3117 97.9907 77.1642 97.9907 64.7137C97.9907 52.2632 101.031 41.188 107.111 31.4882C113.192 21.7884 121.516 14.1154 132.085 8.46924C142.653 2.82308 154.669 0 168.133 0C181.597 0 193.614 2.82308 204.182 8.46924C214.75 14.1154 223.075 21.7884 229.155 31.4882C235.236 41.188 238.276 52.2632 238.276 64.7137C238.276 77.1642 235.236 88.3117 229.155 98.1563C223.075 108.001 214.75 115.746 204.182 121.392C193.614 126.894 181.597 129.645 168.133 129.645ZM168.133 101.631C175.083 101.631 181.163 100.111 186.375 97.0705C191.731 93.8855 195.93 89.4699 198.97 83.8238C202.01 78.1776 203.53 71.88 203.53 64.9308C203.53 57.6922 202.01 51.3222 198.97 45.8208C195.93 40.3194 191.731 35.9762 186.375 32.7912C181.163 29.6061 175.083 28.0136 168.133 28.0136C161.329 28.0136 155.249 29.6061 149.892 32.7912C144.535 35.9762 140.265 40.3194 137.08 45.8208C134.039 51.3222 132.519 57.6198 132.519 64.7137C132.519 71.8076 134.039 78.1776 137.08 83.8238C140.265 89.4699 144.535 93.8855 149.892 97.0705C155.249 100.111 161.329 101.631 168.133 101.631Z" fill="#2C2C2C"/>
<path d="M0.117676 127.256V2.38879H34.429V100.545H95.4509V127.256H0.117676Z" fill="#2C2C2C"/>
</svg>
