<svg width="770" height="234" viewBox="0 0 770 234" fill="none" xmlns="http://www.w3.org/2000/svg">
<rect width="770" height="233.688" fill="white"/>
<rect x="267.5" y="24" width="101" height="101" rx="50.5" fill="#395568"/>
<path d="M287.8 145.592V134.392H292.648C293.65 134.392 294.514 134.557 295.24 134.888C295.965 135.208 296.525 135.672 296.92 136.28C297.314 136.888 297.512 137.613 297.512 138.456C297.512 139.288 297.314 140.008 296.92 140.616C296.525 141.224 295.965 141.693 295.24 142.024C294.514 142.344 293.65 142.504 292.648 142.504H289.24L290.392 141.336V145.592H287.8ZM290.392 141.624L289.24 140.392H292.504C293.304 140.392 293.901 140.221 294.296 139.88C294.69 139.539 294.888 139.064 294.888 138.456C294.888 137.837 294.69 137.357 294.296 137.016C293.901 136.675 293.304 136.504 292.504 136.504H289.24L290.392 135.272V141.624Z" fill="black"/>
<path d="M298.619 145.592V136.984H301.003V139.416L300.667 138.712C300.923 138.104 301.334 137.645 301.899 137.336C302.465 137.016 303.153 136.856 303.963 136.856V139.16C303.857 139.149 303.761 139.144 303.675 139.144C303.59 139.133 303.499 139.128 303.403 139.128C302.721 139.128 302.166 139.325 301.739 139.72C301.323 140.104 301.115 140.707 301.115 141.528V145.592H298.619Z" fill="black"/>
<path d="M304.881 145.592V136.984H307.377V145.592H304.881ZM306.129 135.784C305.67 135.784 305.297 135.651 305.009 135.384C304.721 135.117 304.577 134.787 304.577 134.392C304.577 133.997 304.721 133.667 305.009 133.4C305.297 133.133 305.67 133 306.129 133C306.588 133 306.961 133.128 307.249 133.384C307.537 133.629 307.681 133.949 307.681 134.344C307.681 134.76 307.537 135.107 307.249 135.384C306.972 135.651 306.598 135.784 306.129 135.784Z" fill="black"/>
<path d="M320.151 136.856C320.833 136.856 321.436 136.995 321.959 137.272C322.492 137.539 322.908 137.955 323.207 138.52C323.516 139.075 323.671 139.789 323.671 140.664V145.592H321.175V141.048C321.175 140.355 321.031 139.843 320.743 139.512C320.455 139.181 320.049 139.016 319.527 139.016C319.164 139.016 318.839 139.101 318.551 139.272C318.263 139.432 318.039 139.677 317.879 140.008C317.719 140.339 317.639 140.76 317.639 141.272V145.592H315.143V141.048C315.143 140.355 314.999 139.843 314.711 139.512C314.433 139.181 314.033 139.016 313.511 139.016C313.148 139.016 312.823 139.101 312.535 139.272C312.247 139.432 312.023 139.677 311.863 140.008C311.703 140.339 311.623 140.76 311.623 141.272V145.592H309.127V136.984H311.511V139.336L311.063 138.648C311.361 138.061 311.783 137.619 312.327 137.32C312.881 137.011 313.511 136.856 314.215 136.856C315.004 136.856 315.692 137.059 316.279 137.464C316.876 137.859 317.271 138.467 317.463 139.288L316.583 139.048C316.871 138.376 317.329 137.843 317.959 137.448C318.599 137.053 319.329 136.856 320.151 136.856Z" fill="black"/>
<path d="M330.621 145.592V143.912L330.461 143.544V140.536C330.461 140.003 330.296 139.587 329.965 139.288C329.645 138.989 329.149 138.84 328.477 138.84C328.019 138.84 327.565 138.915 327.117 139.064C326.68 139.203 326.307 139.395 325.997 139.64L325.101 137.896C325.571 137.565 326.136 137.309 326.797 137.128C327.459 136.947 328.131 136.856 328.813 136.856C330.125 136.856 331.144 137.165 331.869 137.784C332.595 138.403 332.957 139.368 332.957 140.68V145.592H330.621ZM327.997 145.72C327.325 145.72 326.749 145.608 326.269 145.384C325.789 145.149 325.421 144.835 325.165 144.44C324.909 144.045 324.781 143.603 324.781 143.112C324.781 142.6 324.904 142.152 325.149 141.768C325.405 141.384 325.805 141.085 326.349 140.872C326.893 140.648 327.603 140.536 328.477 140.536H330.765V141.992H328.749C328.163 141.992 327.757 142.088 327.533 142.28C327.32 142.472 327.213 142.712 327.213 143C327.213 143.32 327.336 143.576 327.581 143.768C327.837 143.949 328.184 144.04 328.621 144.04C329.037 144.04 329.411 143.944 329.741 143.752C330.072 143.549 330.312 143.256 330.461 142.872L330.845 144.024C330.664 144.579 330.333 145 329.853 145.288C329.373 145.576 328.755 145.72 327.997 145.72Z" fill="black"/>
<path d="M334.65 145.592V136.984H337.034V139.416L336.698 138.712C336.954 138.104 337.364 137.645 337.93 137.336C338.495 137.016 339.183 136.856 339.994 136.856V139.16C339.887 139.149 339.791 139.144 339.706 139.144C339.62 139.133 339.53 139.128 339.434 139.128C338.751 139.128 338.196 139.325 337.77 139.72C337.354 140.104 337.146 140.707 337.146 141.528V145.592H334.65Z" fill="black"/>
<path d="M342.296 148.824C341.848 148.824 341.405 148.755 340.968 148.616C340.531 148.477 340.173 148.285 339.896 148.04L340.808 146.264C341 146.435 341.219 146.568 341.464 146.664C341.72 146.76 341.971 146.808 342.216 146.808C342.568 146.808 342.845 146.723 343.048 146.552C343.261 146.392 343.453 146.12 343.624 145.736L344.072 144.68L344.264 144.408L347.352 136.984H349.752L345.864 146.12C345.587 146.813 345.267 147.357 344.904 147.752C344.552 148.147 344.157 148.424 343.72 148.584C343.293 148.744 342.819 148.824 342.296 148.824ZM343.768 145.928L339.928 136.984H342.504L345.48 144.184L343.768 145.928Z" fill="black"/>
<path d="M300.938 177.592V166.392H301.914L309.642 176.12H309.13V166.392H310.298V177.592H309.322L301.61 167.864H302.122V177.592H300.938Z" fill="black"/>
<path d="M318.411 177.592V175.736L318.363 175.432V172.328C318.363 171.613 318.16 171.064 317.755 170.68C317.36 170.296 316.768 170.104 315.979 170.104C315.435 170.104 314.917 170.195 314.427 170.376C313.936 170.557 313.52 170.797 313.179 171.096L312.667 170.248C313.093 169.885 313.605 169.608 314.203 169.416C314.8 169.213 315.429 169.112 316.091 169.112C317.179 169.112 318.016 169.384 318.603 169.928C319.2 170.461 319.499 171.277 319.499 172.376V177.592H318.411ZM315.515 177.672C314.885 177.672 314.336 177.571 313.867 177.368C313.408 177.155 313.056 176.867 312.811 176.504C312.565 176.131 312.443 175.704 312.443 175.224C312.443 174.787 312.544 174.392 312.747 174.04C312.96 173.677 313.301 173.389 313.771 173.176C314.251 172.952 314.891 172.84 315.691 172.84H318.587V173.688H315.723C314.912 173.688 314.347 173.832 314.027 174.12C313.717 174.408 313.563 174.765 313.563 175.192C313.563 175.672 313.749 176.056 314.123 176.344C314.496 176.632 315.019 176.776 315.691 176.776C316.331 176.776 316.88 176.632 317.339 176.344C317.808 176.045 318.149 175.619 318.363 175.064L318.619 175.848C318.405 176.403 318.032 176.845 317.499 177.176C316.976 177.507 316.315 177.672 315.515 177.672Z" fill="black"/>
<path d="M324.021 177.592L320.293 169.192H321.477L324.901 176.984H324.341L327.813 169.192H328.933L325.189 177.592H324.021Z" fill="black"/>
<path d="M329.952 180.776C329.558 180.776 329.179 180.712 328.816 180.584C328.464 180.456 328.16 180.264 327.904 180.008L328.432 179.16C328.646 179.363 328.875 179.517 329.12 179.624C329.376 179.741 329.659 179.8 329.968 179.8C330.342 179.8 330.662 179.693 330.928 179.48C331.206 179.277 331.467 178.915 331.712 178.392L332.256 177.16L332.384 176.984L335.84 169.192H336.96L332.752 178.6C332.518 179.144 332.256 179.576 331.968 179.896C331.691 180.216 331.387 180.44 331.056 180.568C330.726 180.707 330.358 180.776 329.952 180.776ZM332.192 177.832L328.32 169.192H329.504L332.928 176.904L332.192 177.832Z" fill="black"/>
<path d="M292.312 209.592L293.688 198.392H294.552L293.176 209.592H292.312ZM286.248 206.552V205.672H295.928V206.552H286.248ZM288.152 209.592L289.528 198.392H290.408L289.016 209.592H288.152ZM286.76 202.312V201.432H296.44V202.312H286.76Z" fill="black"/>
<path d="M300.534 209.688C299.723 209.688 298.955 209.56 298.23 209.304C297.515 209.037 296.939 208.685 296.502 208.248L297.062 207.336C297.425 207.709 297.91 208.019 298.518 208.264C299.137 208.509 299.809 208.632 300.534 208.632C301.462 208.632 302.171 208.429 302.662 208.024C303.163 207.619 303.414 207.075 303.414 206.392C303.414 205.709 303.169 205.165 302.678 204.76C302.198 204.355 301.435 204.152 300.39 204.152H299.59V203.304L303.046 198.968L303.206 199.416H296.966V198.392H304.166V199.208L300.71 203.544L300.15 203.176H300.582C301.926 203.176 302.929 203.475 303.59 204.072C304.262 204.669 304.598 205.437 304.598 206.376C304.598 207.005 304.449 207.571 304.15 208.072C303.851 208.573 303.398 208.968 302.79 209.256C302.193 209.544 301.441 209.688 300.534 209.688Z" fill="black"/>
<path d="M309.143 198.296C310.135 198.296 310.972 198.52 311.655 198.968C312.337 199.405 312.855 200.04 313.207 200.872C313.559 201.704 313.735 202.712 313.735 203.896C313.735 205.155 313.516 206.216 313.079 207.08C312.652 207.944 312.055 208.595 311.287 209.032C310.519 209.469 309.628 209.688 308.615 209.688C308.113 209.688 307.633 209.64 307.175 209.544C306.727 209.448 306.321 209.293 305.959 209.08L306.423 208.152C306.711 208.344 307.041 208.483 307.415 208.568C307.799 208.643 308.193 208.68 308.599 208.68C309.804 208.68 310.764 208.296 311.479 207.528C312.204 206.76 312.567 205.613 312.567 204.088C312.567 203.843 312.551 203.549 312.519 203.208C312.497 202.867 312.439 202.525 312.343 202.184L312.743 202.488C312.636 203.043 312.407 203.517 312.055 203.912C311.713 204.296 311.287 204.589 310.775 204.792C310.273 204.995 309.713 205.096 309.095 205.096C308.359 205.096 307.703 204.957 307.127 204.68C306.561 204.403 306.119 204.013 305.799 203.512C305.479 203.011 305.319 202.419 305.319 201.736C305.319 201.032 305.484 200.424 305.815 199.912C306.145 199.4 306.599 199.005 307.175 198.728C307.761 198.44 308.417 198.296 309.143 198.296ZM309.191 199.272C308.657 199.272 308.183 199.373 307.767 199.576C307.361 199.768 307.041 200.045 306.807 200.408C306.572 200.771 306.455 201.203 306.455 201.704C306.455 202.44 306.705 203.027 307.207 203.464C307.719 203.901 308.407 204.12 309.271 204.12C309.847 204.12 310.348 204.013 310.775 203.8C311.212 203.587 311.548 203.293 311.783 202.92C312.028 202.547 312.151 202.131 312.151 201.672C312.151 201.256 312.039 200.867 311.815 200.504C311.591 200.141 311.26 199.848 310.823 199.624C310.385 199.389 309.841 199.272 309.191 199.272Z" fill="black"/>
<path d="M318.374 209.688C317.574 209.688 316.811 209.56 316.086 209.304C315.361 209.037 314.785 208.685 314.358 208.248L314.918 207.336C315.27 207.709 315.75 208.019 316.358 208.264C316.977 208.509 317.643 208.632 318.358 208.632C319.307 208.632 320.027 208.424 320.518 208.008C321.019 207.581 321.27 207.027 321.27 206.344C321.27 205.864 321.153 205.453 320.918 205.112C320.694 204.76 320.31 204.488 319.766 204.296C319.222 204.104 318.475 204.008 317.526 204.008H315.142L315.718 198.392H321.846V199.416H316.182L316.774 198.856L316.278 203.56L315.686 202.984H317.782C318.913 202.984 319.819 203.123 320.502 203.4C321.185 203.677 321.675 204.067 321.974 204.568C322.283 205.059 322.438 205.635 322.438 206.296C322.438 206.925 322.289 207.501 321.99 208.024C321.691 208.536 321.243 208.941 320.646 209.24C320.049 209.539 319.291 209.688 318.374 209.688Z" fill="black"/>
<path d="M326.792 209.688C325.992 209.688 325.229 209.56 324.504 209.304C323.778 209.037 323.202 208.685 322.776 208.248L323.336 207.336C323.688 207.709 324.168 208.019 324.776 208.264C325.394 208.509 326.061 208.632 326.776 208.632C327.725 208.632 328.445 208.424 328.936 208.008C329.437 207.581 329.688 207.027 329.688 206.344C329.688 205.864 329.57 205.453 329.336 205.112C329.112 204.76 328.728 204.488 328.184 204.296C327.64 204.104 326.893 204.008 325.944 204.008H323.56L324.136 198.392H330.264V199.416H324.6L325.192 198.856L324.696 203.56L324.104 202.984H326.2C327.33 202.984 328.237 203.123 328.92 203.4C329.602 203.677 330.093 204.067 330.392 204.568C330.701 205.059 330.856 205.635 330.856 206.296C330.856 206.925 330.706 207.501 330.408 208.024C330.109 208.536 329.661 208.941 329.064 209.24C328.466 209.539 327.709 209.688 326.792 209.688Z" fill="black"/>
<path d="M336.343 209.688C335.351 209.688 334.514 209.469 333.831 209.032C333.149 208.584 332.631 207.944 332.279 207.112C331.927 206.269 331.751 205.261 331.751 204.088C331.751 202.819 331.965 201.757 332.391 200.904C332.829 200.04 333.431 199.389 334.199 198.952C334.967 198.515 335.858 198.296 336.871 198.296C337.373 198.296 337.853 198.344 338.311 198.44C338.77 198.536 339.175 198.691 339.527 198.904L339.063 199.832C338.775 199.64 338.445 199.507 338.071 199.432C337.698 199.347 337.303 199.304 336.887 199.304C335.682 199.304 334.717 199.688 333.991 200.456C333.277 201.224 332.919 202.371 332.919 203.896C332.919 204.131 332.93 204.424 332.951 204.776C332.983 205.117 333.047 205.459 333.143 205.8L332.743 205.496C332.861 204.941 333.09 204.472 333.431 204.088C333.773 203.693 334.199 203.395 334.711 203.192C335.223 202.989 335.783 202.888 336.391 202.888C337.138 202.888 337.794 203.027 338.359 203.304C338.925 203.581 339.367 203.971 339.687 204.472C340.007 204.973 340.167 205.565 340.167 206.248C340.167 206.941 340.002 207.549 339.671 208.072C339.341 208.584 338.882 208.984 338.295 209.272C337.719 209.549 337.069 209.688 336.343 209.688ZM336.295 208.712C336.829 208.712 337.298 208.616 337.703 208.424C338.119 208.221 338.445 207.939 338.679 207.576C338.914 207.203 339.031 206.771 339.031 206.28C339.031 205.544 338.775 204.957 338.263 204.52C337.762 204.083 337.079 203.864 336.215 203.864C335.639 203.864 335.138 203.971 334.711 204.184C334.285 204.397 333.949 204.691 333.703 205.064C333.458 205.427 333.335 205.843 333.335 206.312C333.335 206.717 333.447 207.107 333.671 207.48C333.895 207.843 334.226 208.141 334.663 208.376C335.111 208.6 335.655 208.712 336.295 208.712Z" fill="black"/>
<path d="M345.191 209.688C344.295 209.688 343.521 209.56 342.871 209.304C342.231 209.048 341.735 208.68 341.383 208.2C341.041 207.709 340.871 207.133 340.871 206.472C340.871 205.832 341.036 205.288 341.367 204.84C341.708 204.381 342.199 204.029 342.839 203.784C343.489 203.539 344.273 203.416 345.191 203.416C346.097 203.416 346.876 203.539 347.527 203.784C348.177 204.029 348.673 204.381 349.015 204.84C349.367 205.288 349.543 205.832 349.543 206.472C349.543 207.133 349.367 207.709 349.015 208.2C348.663 208.68 348.161 209.048 347.511 209.304C346.86 209.56 346.087 209.688 345.191 209.688ZM345.191 208.712C346.183 208.712 346.956 208.509 347.511 208.104C348.076 207.699 348.359 207.149 348.359 206.456C348.359 205.763 348.076 205.219 347.511 204.824C346.956 204.419 346.183 204.216 345.191 204.216C344.199 204.216 343.425 204.419 342.871 204.824C342.316 205.219 342.039 205.763 342.039 206.456C342.039 207.149 342.316 207.699 342.871 208.104C343.425 208.509 344.199 208.712 345.191 208.712ZM345.191 204.072C344.359 204.072 343.649 203.96 343.063 203.736C342.487 203.512 342.044 203.192 341.735 202.776C341.425 202.349 341.271 201.843 341.271 201.256C341.271 200.637 341.431 200.109 341.751 199.672C342.081 199.224 342.54 198.883 343.127 198.648C343.713 198.413 344.401 198.296 345.191 198.296C345.98 198.296 346.668 198.413 347.255 198.648C347.852 198.883 348.316 199.224 348.647 199.672C348.977 200.109 349.143 200.637 349.143 201.256C349.143 201.843 348.988 202.349 348.679 202.776C348.369 203.192 347.916 203.512 347.319 203.736C346.732 203.96 346.023 204.072 345.191 204.072ZM345.191 203.304C346.065 203.304 346.748 203.123 347.239 202.76C347.729 202.397 347.975 201.912 347.975 201.304C347.975 200.664 347.719 200.168 347.207 199.816C346.705 199.453 346.033 199.272 345.191 199.272C344.348 199.272 343.676 199.453 343.175 199.816C342.673 200.168 342.423 200.659 342.423 201.288C342.423 201.907 342.663 202.397 343.143 202.76C343.633 203.123 344.316 203.304 345.191 203.304Z" fill="black"/>
<rect x="420.5" y="24" width="101" height="101" rx="50.5" fill="#EE5D62"/>
<path d="M442.863 144.2L447.855 133H450.415L455.423 144.2H452.703L448.607 134.312H449.631L445.519 144.2H442.863ZM445.359 141.8L446.047 139.832H451.807L452.511 141.8H445.359Z" fill="black"/>
<path d="M459.924 144.328C458.996 144.328 458.17 144.141 457.444 143.768C456.719 143.384 456.148 142.856 455.732 142.184C455.327 141.512 455.124 140.749 455.124 139.896C455.124 139.032 455.327 138.269 455.732 137.608C456.148 136.936 456.719 136.413 457.444 136.04C458.17 135.656 458.996 135.464 459.924 135.464C460.831 135.464 461.62 135.656 462.292 136.04C462.964 136.413 463.46 136.952 463.78 137.656L461.844 138.696C461.62 138.291 461.338 137.992 460.996 137.8C460.666 137.608 460.303 137.512 459.908 137.512C459.482 137.512 459.098 137.608 458.756 137.8C458.415 137.992 458.143 138.264 457.94 138.616C457.748 138.968 457.652 139.395 457.652 139.896C457.652 140.397 457.748 140.824 457.94 141.176C458.143 141.528 458.415 141.8 458.756 141.992C459.098 142.184 459.482 142.28 459.908 142.28C460.303 142.28 460.666 142.189 460.996 142.008C461.338 141.816 461.62 141.512 461.844 141.096L463.78 142.152C463.46 142.845 462.964 143.384 462.292 143.768C461.62 144.141 460.831 144.328 459.924 144.328Z" fill="black"/>
<path d="M468.701 144.328C467.773 144.328 466.947 144.141 466.221 143.768C465.496 143.384 464.925 142.856 464.509 142.184C464.104 141.512 463.901 140.749 463.901 139.896C463.901 139.032 464.104 138.269 464.509 137.608C464.925 136.936 465.496 136.413 466.221 136.04C466.947 135.656 467.773 135.464 468.701 135.464C469.608 135.464 470.397 135.656 471.069 136.04C471.741 136.413 472.237 136.952 472.557 137.656L470.621 138.696C470.397 138.291 470.115 137.992 469.773 137.8C469.443 137.608 469.08 137.512 468.685 137.512C468.259 137.512 467.875 137.608 467.533 137.8C467.192 137.992 466.92 138.264 466.717 138.616C466.525 138.968 466.429 139.395 466.429 139.896C466.429 140.397 466.525 140.824 466.717 141.176C466.92 141.528 467.192 141.8 467.533 141.992C467.875 142.184 468.259 142.28 468.685 142.28C469.08 142.28 469.443 142.189 469.773 142.008C470.115 141.816 470.397 141.512 470.621 141.096L472.557 142.152C472.237 142.845 471.741 143.384 471.069 143.768C470.397 144.141 469.608 144.328 468.701 144.328Z" fill="black"/>
<path d="M477.591 144.328C476.609 144.328 475.745 144.136 474.999 143.752C474.263 143.368 473.692 142.845 473.287 142.184C472.881 141.512 472.679 140.749 472.679 139.896C472.679 139.032 472.876 138.269 473.271 137.608C473.676 136.936 474.225 136.413 474.919 136.04C475.612 135.656 476.396 135.464 477.271 135.464C478.113 135.464 478.871 135.645 479.543 136.008C480.225 136.36 480.764 136.872 481.159 137.544C481.553 138.205 481.751 139 481.751 139.928C481.751 140.024 481.745 140.136 481.735 140.264C481.724 140.381 481.713 140.493 481.703 140.6H474.711V139.144H480.391L479.431 139.576C479.431 139.128 479.34 138.739 479.159 138.408C478.977 138.077 478.727 137.821 478.407 137.64C478.087 137.448 477.713 137.352 477.287 137.352C476.86 137.352 476.481 137.448 476.151 137.64C475.831 137.821 475.58 138.083 475.399 138.424C475.217 138.755 475.127 139.149 475.127 139.608V139.992C475.127 140.461 475.228 140.877 475.431 141.24C475.644 141.592 475.937 141.864 476.311 142.056C476.695 142.237 477.143 142.328 477.655 142.328C478.113 142.328 478.513 142.259 478.855 142.12C479.207 141.981 479.527 141.773 479.815 141.496L481.143 142.936C480.748 143.384 480.252 143.731 479.655 143.976C479.057 144.211 478.369 144.328 477.591 144.328Z" fill="black"/>
<path d="M488.078 135.464C488.76 135.464 489.368 135.603 489.902 135.88C490.446 136.147 490.872 136.563 491.182 137.128C491.491 137.683 491.646 138.397 491.646 139.272V144.2H489.15V139.656C489.15 138.963 488.995 138.451 488.686 138.12C488.387 137.789 487.96 137.624 487.406 137.624C487.011 137.624 486.654 137.709 486.334 137.88C486.024 138.04 485.779 138.291 485.598 138.632C485.427 138.973 485.342 139.411 485.342 139.944V144.2H482.846V135.592H485.23V137.976L484.782 137.256C485.091 136.68 485.534 136.237 486.11 135.928C486.686 135.619 487.342 135.464 488.078 135.464Z" fill="black"/>
<path d="M496.861 144.328C495.848 144.328 495.059 144.072 494.493 143.56C493.928 143.037 493.645 142.264 493.645 141.24V133.688H496.141V141.208C496.141 141.571 496.237 141.853 496.429 142.056C496.621 142.248 496.883 142.344 497.213 142.344C497.608 142.344 497.944 142.237 498.221 142.024L498.893 143.784C498.637 143.965 498.328 144.104 497.965 144.2C497.613 144.285 497.245 144.328 496.861 144.328ZM492.317 137.704V135.784H498.285V137.704H492.317Z" fill="black"/>
<path d="M458.615 176.296C457.772 176.296 456.994 176.157 456.279 175.88C455.564 175.592 454.946 175.192 454.423 174.68C453.9 174.168 453.49 173.565 453.191 172.872C452.903 172.179 452.759 171.421 452.759 170.6C452.759 169.779 452.903 169.021 453.191 168.328C453.49 167.635 453.9 167.032 454.423 166.52C454.956 166.008 455.58 165.613 456.295 165.336C457.01 165.048 457.788 164.904 458.631 164.904C459.442 164.904 460.204 165.043 460.919 165.32C461.634 165.587 462.236 165.992 462.727 166.536L461.975 167.288C461.516 166.819 461.01 166.483 460.455 166.28C459.9 166.067 459.303 165.96 458.663 165.96C457.991 165.96 457.367 166.077 456.791 166.312C456.215 166.536 455.714 166.861 455.287 167.288C454.86 167.704 454.524 168.195 454.279 168.76C454.044 169.315 453.927 169.928 453.927 170.6C453.927 171.272 454.044 171.891 454.279 172.456C454.524 173.011 454.86 173.501 455.287 173.928C455.714 174.344 456.215 174.669 456.791 174.904C457.367 175.128 457.991 175.24 458.663 175.24C459.303 175.24 459.9 175.133 460.455 174.92C461.01 174.707 461.516 174.365 461.975 173.896L462.727 174.648C462.236 175.192 461.634 175.603 460.919 175.88C460.204 176.157 459.436 176.296 458.615 176.296Z" fill="black"/>
<path d="M467.493 176.28C466.683 176.28 465.952 176.099 465.301 175.736C464.661 175.363 464.155 174.856 463.781 174.216C463.408 173.565 463.221 172.824 463.221 171.992C463.221 171.149 463.408 170.408 463.781 169.768C464.155 169.128 464.661 168.627 465.301 168.264C465.941 167.901 466.672 167.72 467.493 167.72C468.325 167.72 469.061 167.901 469.701 168.264C470.352 168.627 470.859 169.128 471.221 169.768C471.595 170.408 471.781 171.149 471.781 171.992C471.781 172.824 471.595 173.565 471.221 174.216C470.859 174.856 470.352 175.363 469.701 175.736C469.051 176.099 468.315 176.28 467.493 176.28ZM467.493 175.272C468.101 175.272 468.64 175.139 469.109 174.872C469.579 174.595 469.947 174.211 470.213 173.72C470.491 173.219 470.629 172.643 470.629 171.992C470.629 171.331 470.491 170.755 470.213 170.264C469.947 169.773 469.579 169.395 469.109 169.128C468.64 168.851 468.107 168.712 467.509 168.712C466.912 168.712 466.379 168.851 465.909 169.128C465.44 169.395 465.067 169.773 464.789 170.264C464.512 170.755 464.373 171.331 464.373 171.992C464.373 172.643 464.512 173.219 464.789 173.72C465.067 174.211 465.44 174.595 465.909 174.872C466.379 175.139 466.907 175.272 467.493 175.272Z" fill="black"/>
<path d="M473.534 176.2V167.8H474.622V170.088L474.51 169.688C474.745 169.048 475.139 168.563 475.694 168.232C476.249 167.891 476.937 167.72 477.758 167.72V168.824C477.715 168.824 477.673 168.824 477.63 168.824C477.587 168.813 477.545 168.808 477.502 168.808C476.617 168.808 475.923 169.08 475.422 169.624C474.921 170.157 474.67 170.92 474.67 171.912V176.2H473.534Z" fill="black"/>
<path d="M483.903 176.2V174.344L483.855 174.04V170.936C483.855 170.221 483.652 169.672 483.247 169.288C482.852 168.904 482.26 168.712 481.471 168.712C480.927 168.712 480.41 168.803 479.919 168.984C479.428 169.165 479.012 169.405 478.671 169.704L478.159 168.856C478.586 168.493 479.098 168.216 479.695 168.024C480.292 167.821 480.922 167.72 481.583 167.72C482.671 167.72 483.508 167.992 484.095 168.536C484.692 169.069 484.991 169.885 484.991 170.984V176.2H483.903ZM481.007 176.28C480.378 176.28 479.828 176.179 479.359 175.976C478.9 175.763 478.548 175.475 478.303 175.112C478.058 174.739 477.935 174.312 477.935 173.832C477.935 173.395 478.036 173 478.239 172.648C478.452 172.285 478.794 171.997 479.263 171.784C479.743 171.56 480.383 171.448 481.183 171.448H484.079V172.296H481.215C480.404 172.296 479.839 172.44 479.519 172.728C479.21 173.016 479.055 173.373 479.055 173.8C479.055 174.28 479.242 174.664 479.615 174.952C479.988 175.24 480.511 175.384 481.183 175.384C481.823 175.384 482.372 175.24 482.831 174.952C483.3 174.653 483.642 174.227 483.855 173.672L484.111 174.456C483.898 175.011 483.524 175.453 482.991 175.784C482.468 176.115 481.807 176.28 481.007 176.28Z" fill="black"/>
<path d="M487.51 176.2V164.328H488.646V176.2H487.51Z" fill="black"/>
<path d="M442.529 208.2L443.905 197H444.769L443.393 208.2H442.529ZM436.465 205.16V204.28H446.145V205.16H436.465ZM438.369 208.2L439.745 197H440.625L439.233 208.2H438.369ZM436.977 200.92V200.04H446.657V200.92H436.977Z" fill="black"/>
<path d="M449.455 202.008H455.375V203.016H449.455V202.008ZM449.583 207.176H456.319V208.2H448.399V197H456.079V198.024H449.583V207.176Z" fill="black"/>
<path d="M459.592 202.008H465.512V203.016H459.592V202.008ZM459.72 207.176H466.456V208.2H458.536V197H466.216V198.024H459.72V207.176Z" fill="black"/>
<path d="M471.091 208.296C470.291 208.296 469.529 208.168 468.803 207.912C468.078 207.645 467.502 207.293 467.075 206.856L467.635 205.944C467.987 206.317 468.467 206.627 469.075 206.872C469.694 207.117 470.361 207.24 471.075 207.24C472.025 207.24 472.745 207.032 473.235 206.616C473.737 206.189 473.987 205.635 473.987 204.952C473.987 204.472 473.87 204.061 473.635 203.72C473.411 203.368 473.027 203.096 472.483 202.904C471.939 202.712 471.193 202.616 470.243 202.616H467.859L468.435 197H474.563V198.024H468.899L469.491 197.464L468.995 202.168L468.403 201.592H470.499C471.63 201.592 472.537 201.731 473.219 202.008C473.902 202.285 474.393 202.675 474.691 203.176C475.001 203.667 475.155 204.243 475.155 204.904C475.155 205.533 475.006 206.109 474.707 206.632C474.409 207.144 473.961 207.549 473.363 207.848C472.766 208.147 472.009 208.296 471.091 208.296Z" fill="black"/>
<path d="M477.043 208.2V197H481.603C482.798 197 483.843 197.24 484.739 197.72C485.646 198.189 486.35 198.845 486.851 199.688C487.352 200.531 487.603 201.501 487.603 202.6C487.603 203.699 487.352 204.669 486.851 205.512C486.35 206.355 485.646 207.016 484.739 207.496C483.843 207.965 482.798 208.2 481.603 208.2H477.043ZM478.227 207.176H481.539C482.531 207.176 483.39 206.984 484.115 206.6C484.851 206.205 485.422 205.667 485.827 204.984C486.232 204.291 486.435 203.496 486.435 202.6C486.435 201.693 486.232 200.899 485.827 200.216C485.422 199.533 484.851 199 484.115 198.616C483.39 198.221 482.531 198.024 481.539 198.024H478.227V207.176Z" fill="black"/>
<path d="M493.295 208.296C492.303 208.296 491.466 208.077 490.783 207.64C490.101 207.192 489.583 206.552 489.231 205.72C488.879 204.877 488.703 203.869 488.703 202.696C488.703 201.427 488.917 200.365 489.343 199.512C489.781 198.648 490.383 197.997 491.151 197.56C491.919 197.123 492.81 196.904 493.823 196.904C494.325 196.904 494.805 196.952 495.263 197.048C495.722 197.144 496.127 197.299 496.479 197.512L496.015 198.44C495.727 198.248 495.397 198.115 495.023 198.04C494.65 197.955 494.255 197.912 493.839 197.912C492.634 197.912 491.669 198.296 490.943 199.064C490.229 199.832 489.871 200.979 489.871 202.504C489.871 202.739 489.882 203.032 489.903 203.384C489.935 203.725 489.999 204.067 490.095 204.408L489.695 204.104C489.813 203.549 490.042 203.08 490.383 202.696C490.725 202.301 491.151 202.003 491.663 201.8C492.175 201.597 492.735 201.496 493.343 201.496C494.09 201.496 494.746 201.635 495.311 201.912C495.877 202.189 496.319 202.579 496.639 203.08C496.959 203.581 497.119 204.173 497.119 204.856C497.119 205.549 496.954 206.157 496.623 206.68C496.293 207.192 495.834 207.592 495.247 207.88C494.671 208.157 494.021 208.296 493.295 208.296ZM493.247 207.32C493.781 207.32 494.25 207.224 494.655 207.032C495.071 206.829 495.397 206.547 495.631 206.184C495.866 205.811 495.983 205.379 495.983 204.888C495.983 204.152 495.727 203.565 495.215 203.128C494.714 202.691 494.031 202.472 493.167 202.472C492.591 202.472 492.09 202.579 491.663 202.792C491.237 203.005 490.901 203.299 490.655 203.672C490.41 204.035 490.287 204.451 490.287 204.92C490.287 205.325 490.399 205.715 490.623 206.088C490.847 206.451 491.178 206.749 491.615 206.984C492.063 207.208 492.607 207.32 493.247 207.32Z" fill="black"/>
<path d="M497.679 208.2V207.384L502.335 202.824C502.761 202.408 503.081 202.045 503.295 201.736C503.508 201.416 503.652 201.117 503.727 200.84C503.801 200.563 503.839 200.301 503.839 200.056C503.839 199.405 503.615 198.893 503.167 198.52C502.729 198.147 502.079 197.96 501.215 197.96C500.553 197.96 499.967 198.061 499.455 198.264C498.953 198.467 498.521 198.781 498.159 199.208L497.343 198.504C497.78 197.992 498.34 197.597 499.023 197.32C499.705 197.043 500.468 196.904 501.311 196.904C502.068 196.904 502.724 197.027 503.279 197.272C503.833 197.507 504.26 197.853 504.559 198.312C504.868 198.771 505.023 199.309 505.023 199.928C505.023 200.291 504.969 200.648 504.863 201C504.767 201.352 504.585 201.725 504.319 202.12C504.063 202.504 503.684 202.941 503.183 203.432L498.911 207.624L498.591 207.176H505.535V208.2H497.679Z" fill="black"/>
<path d="M642.614 88.36V97H614.518V50.376H625.334V88.36H642.614Z" fill="black"/>
<path d="M663.545 83.496C661.561 83.5813 659.929 83.752 658.649 84.008C657.369 84.264 656.355 84.584 655.609 84.968C654.862 85.352 654.339 85.7893 654.041 86.28C653.763 86.7706 653.625 87.304 653.625 87.88C653.625 89.0106 653.934 89.8106 654.553 90.28C655.171 90.728 656.078 90.952 657.273 90.952C658.553 90.952 659.673 90.728 660.633 90.28C661.593 89.832 662.563 89.1066 663.545 88.104V83.496ZM645.689 68.424C647.694 66.6533 649.913 65.3413 652.345 64.488C654.798 63.6133 657.422 63.176 660.217 63.176C662.222 63.176 664.025 63.5066 665.625 64.168C667.246 64.808 668.611 65.7146 669.721 66.888C670.851 68.04 671.715 69.416 672.313 71.016C672.91 72.616 673.209 74.3653 673.209 76.264V97H668.665C667.726 97 667.011 96.872 666.521 96.616C666.051 96.36 665.657 95.8266 665.337 95.016L664.633 93.192C663.801 93.896 663.001 94.5146 662.233 95.048C661.465 95.5813 660.665 96.04 659.833 96.424C659.022 96.7866 658.147 97.0533 657.209 97.224C656.291 97.416 655.267 97.512 654.137 97.512C652.622 97.512 651.246 97.32 650.009 96.936C648.771 96.5306 647.715 95.944 646.841 95.176C645.987 94.408 645.326 93.4586 644.857 92.328C644.387 91.176 644.153 89.8533 644.153 88.36C644.153 87.1653 644.451 85.96 645.049 84.744C645.646 83.5066 646.681 82.3866 648.153 81.384C649.625 80.36 651.609 79.5066 654.105 78.824C656.601 78.1413 659.747 77.7573 663.545 77.672V76.264C663.545 74.3226 663.139 72.9253 662.329 72.072C661.539 71.1973 660.409 70.76 658.937 70.76C657.763 70.76 656.803 70.888 656.057 71.144C655.31 71.4 654.638 71.688 654.041 72.008C653.465 72.328 652.899 72.616 652.345 72.872C651.79 73.128 651.129 73.256 650.361 73.256C649.678 73.256 649.102 73.0853 648.633 72.744C648.163 72.4026 647.779 71.9973 647.481 71.528L645.689 68.424Z" fill="black"/>
<path d="M690.355 97.512C688.776 97.512 687.379 97.288 686.163 96.84C684.968 96.3706 683.955 95.72 683.123 94.888C682.312 94.0346 681.694 93.0106 681.267 91.816C680.84 90.6213 680.627 89.288 680.627 87.816V70.664H677.811C677.299 70.664 676.862 70.504 676.499 70.184C676.136 69.8426 675.955 69.352 675.955 68.712V64.84L681.235 63.816L683.187 55.72C683.443 54.696 684.168 54.184 685.363 54.184H690.547V63.88H698.771V70.664H690.547V87.144C690.547 87.912 690.728 88.552 691.091 89.064C691.475 89.5546 692.019 89.8 692.723 89.8C693.086 89.8 693.384 89.768 693.619 89.704C693.875 89.6186 694.088 89.5333 694.259 89.448C694.451 89.3413 694.622 89.256 694.771 89.192C694.942 89.1066 695.134 89.064 695.347 89.064C695.646 89.064 695.88 89.1386 696.051 89.288C696.243 89.416 696.435 89.6293 696.627 89.928L699.635 94.632C698.355 95.592 696.915 96.3173 695.315 96.808C693.715 97.2773 692.062 97.512 690.355 97.512Z" fill="black"/>
<path d="M717.462 63.304C719.98 63.304 722.273 63.6986 724.342 64.488C726.412 65.2773 728.182 66.408 729.654 67.88C731.148 69.352 732.3 71.144 733.11 73.256C733.942 75.3466 734.358 77.704 734.358 80.328C734.358 82.9733 733.942 85.3626 733.11 87.496C732.3 89.608 731.148 91.4106 729.654 92.904C728.182 94.376 726.412 95.5173 724.342 96.328C722.273 97.1173 719.98 97.512 717.462 97.512C714.924 97.512 712.609 97.1173 710.518 96.328C708.449 95.5173 706.657 94.376 705.142 92.904C703.649 91.4106 702.486 89.608 701.654 87.496C700.844 85.3626 700.438 82.9733 700.438 80.328C700.438 77.704 700.844 75.3466 701.654 73.256C702.486 71.144 703.649 69.352 705.142 67.88C706.657 66.408 708.449 65.2773 710.518 64.488C712.609 63.6986 714.924 63.304 717.462 63.304ZM717.462 90.152C719.745 90.152 721.42 89.352 722.486 87.752C723.574 86.1306 724.118 83.6773 724.118 80.392C724.118 77.1066 723.574 74.664 722.486 73.064C721.42 71.464 719.745 70.664 717.462 70.664C715.116 70.664 713.398 71.464 712.31 73.064C711.222 74.664 710.678 77.1066 710.678 80.392C710.678 83.6773 711.222 86.1306 712.31 87.752C713.398 89.352 715.116 90.152 717.462 90.152Z" fill="black"/>
<path fill-rule="evenodd" clip-rule="evenodd" d="M120.945 34.4333C120.945 39.6435 116.395 46.8909 110.782 46.8909C105.169 46.8909 100.618 39.6435 100.618 34.4333C100.618 29.2233 105.169 25 110.782 25C116.395 25 120.945 29.2233 120.945 34.4333" fill="#282727"/>
<path fill-rule="evenodd" clip-rule="evenodd" d="M120.945 48.5059C120.945 53.7157 116.395 60.9637 110.782 60.9637C105.169 60.9637 100.618 53.7157 100.618 48.5059C100.618 43.296 105.169 39.0728 110.782 39.0728C116.395 39.0728 120.945 43.296 120.945 48.5059" fill="#EAB71F"/>
<path fill-rule="evenodd" clip-rule="evenodd" d="M102.086 34.4333C102.086 29.4942 105.569 25.4479 110 25.0406C109.758 25.0181 109.514 25 109.266 25C104.49 25 100.618 29.2233 100.618 34.4333C100.618 39.6435 104.49 46.8909 109.266 46.8909C109.513 46.8909 109.758 46.8672 110 46.8296C105.568 46.1409 102.086 39.3734 102.086 34.4333" fill="#58585B"/>
<mask id="mask0_201_471" style="mask-type:luminance" maskUnits="userSpaceOnUse" x="71" y="45" width="78" height="65">
<path fill-rule="evenodd" clip-rule="evenodd" d="M71.0701 45.3289H148.961V109.264H71.0701V45.3289Z" fill="white"/>
</mask>
<g mask="url(#mask0_201_471)">
<path fill-rule="evenodd" clip-rule="evenodd" d="M141.394 74.1247C141.394 49.9326 124.482 45.3289 118.176 45.3289C111.871 45.3289 110.016 50.2456 110.016 50.2456C110.016 50.2456 108.161 45.3289 101.856 45.3289C95.5503 45.3289 78.6374 49.9326 78.6374 74.1247C78.6374 74.1247 48.0007 109.264 110.016 109.264C172.031 109.264 141.394 74.1247 141.394 74.1247" fill="#282727"/>
</g>
<path fill-rule="evenodd" clip-rule="evenodd" d="M138.976 72.7789C138.976 51.03 123.358 46.8909 117.535 46.8909C111.713 46.8909 110 51.3107 110 51.3107C110 51.3107 108.287 46.8909 102.465 46.8909C96.6424 46.8909 81.0242 51.03 81.0242 72.7789C81.0242 72.7789 52.7333 104.745 110 104.745C167.267 104.745 138.976 72.7789 138.976 72.7789" fill="#F9E3C8"/>
<path fill-rule="evenodd" clip-rule="evenodd" d="M138.976 72.8256C138.976 63.1997 135.905 57.0336 131.982 53.1455C135.533 57.9762 137.332 65.5508 137.332 72.8256V73.5308L137.823 74.0242C137.91 74.1115 145.996 82.9355 143.229 89.8332C141.444 94.2822 134.683 101.944 110 101.944C85.3172 101.944 78.5566 94.2822 76.7713 89.8332C74.0045 82.9355 82.0902 74.1115 82.1779 74.023L82.6671 73.5292L82.6683 72.8256C82.6683 65.5513 84.4675 57.9762 88.0177 53.1455C84.0938 57.0336 81.0242 63.1997 81.0242 72.8256C81.0242 72.8256 52.7333 104.746 110 104.746C167.267 104.746 138.976 72.8256 138.976 72.8256" fill="#DFBD9D"/>
<path fill-rule="evenodd" clip-rule="evenodd" d="M110 75.3617C106.886 75.3617 104.311 73.5573 103.832 70.3455C103.78 70.6971 103.745 71.0544 103.745 71.4213C103.745 75.1451 106.546 78.1636 110 78.1636C113.454 78.1636 116.254 75.1451 116.254 71.4213C116.254 71.0544 116.22 70.6971 116.168 70.3455C115.689 73.5573 113.114 75.3617 110 75.3617" fill="#DFBD9D"/>
<mask id="mask1_201_471" style="mask-type:luminance" maskUnits="userSpaceOnUse" x="67" y="39" width="87" height="33">
<path fill-rule="evenodd" clip-rule="evenodd" d="M67.7817 39.0791H153.643V71.7382H67.7817V39.0791Z" fill="white"/>
</mask>
<g mask="url(#mask1_201_471)">
<path fill-rule="evenodd" clip-rule="evenodd" d="M118.589 48.6728C123.396 49.2343 126.54 50.4775 129.746 51.5369C134.275 53.0329 132.975 58.0905 131.843 58.756C130.711 59.42 130.669 60.6079 130.417 62.2222C130.166 63.837 130.459 64.7396 132.472 66.1166C134.484 67.4942 144.168 70.7231 148.739 71.6249C153.308 72.5277 153.937 67.7782 153.545 66.5439C153.152 65.3084 153.225 64.4543 153.392 62.5071C153.87 56.968 153.267 55.4307 151.003 53.4603C134.089 38.7364 110.712 39.0798 110.712 39.0798C110.712 39.0798 87.3352 38.7364 70.4214 53.4603C68.1581 55.4307 67.5549 56.968 68.0323 62.5071C68.2004 64.4543 68.2731 65.3084 67.8798 66.5439C67.4873 67.7782 68.1161 72.5277 72.686 71.6249C77.2565 70.7231 86.9405 67.4942 88.9532 66.1166C90.9658 64.7396 91.2591 63.837 91.0076 62.2222C90.7558 60.6079 90.714 59.42 89.5821 58.756C88.4498 58.0905 87.1499 53.0329 91.6786 51.5369C94.8841 50.4775 98.0284 49.2343 102.834 48.6728L110.712 54.5394L118.589 48.6728Z" fill="#282727"/>
</g>
<path fill-rule="evenodd" clip-rule="evenodd" d="M105.309 65.6545C103.314 59.439 96.5564 56.2727 96.5564 56.2727C96.5564 56.2727 98.9078 59.6307 101.588 63.5172C98.5875 64.1598 92.7999 65.6411 92.7999 65.6411L105.309 65.6545Z" fill="#282727"/>
<path fill-rule="evenodd" clip-rule="evenodd" d="M116.255 65.6545C118.249 59.439 125.007 56.2727 125.007 56.2727C125.007 56.2727 122.656 59.6307 119.976 63.5172C122.976 64.1598 128.764 65.6411 128.764 65.6411L116.255 65.6545Z" fill="#282727"/>
<path fill-rule="evenodd" clip-rule="evenodd" d="M133.455 82.8545C133.455 82.8545 128.267 88.2613 120.688 91.4728C117.483 92.8333 113.85 93.7999 110 93.7999C106.15 93.7999 102.517 92.8333 99.3119 91.4728C91.7328 88.2613 86.5454 82.8545 86.5454 82.8545C86.5454 82.8545 97.0469 84.1089 110 84.1089C122.953 84.1089 133.455 82.8545 133.455 82.8545" fill="#282727"/>
<path fill-rule="evenodd" clip-rule="evenodd" d="M120.945 89.9051C117.898 91.268 114.443 92.2364 110.782 92.2364C107.12 92.2364 103.666 91.268 100.618 89.9051C100.734 88.4525 101.802 87.1408 103.479 86.1658C104.53 85.5513 105.823 85.0707 107.27 84.7703C108.364 84.542 109.548 84.4182 110.782 84.4182C116.245 84.4182 120.703 86.8508 120.945 89.9051" fill="#F48C8D"/>
<path fill-rule="evenodd" clip-rule="evenodd" d="M87.7563 75.0364C88.5209 75.9553 88.9815 77.1362 88.9815 78.4248C88.9815 81.3534 86.6073 83.7273 83.6781 83.7273C82.3899 83.7273 81.2096 83.2678 80.2908 82.5042C81.2636 83.673 82.729 84.4182 84.3692 84.4182C87.2983 84.4182 89.6727 82.0441 89.6727 79.1154C89.6727 77.4748 88.9269 76.0089 87.7563 75.0364" fill="#DFBD9D"/>
<path fill-rule="evenodd" clip-rule="evenodd" d="M133.807 75.0364C133.043 75.9553 132.582 77.1362 132.582 78.4248C132.582 81.3534 134.956 83.7273 137.885 83.7273C139.174 83.7273 140.354 83.2678 141.273 82.5042C140.3 83.673 138.834 84.4182 137.194 84.4182C134.265 84.4182 131.891 82.0441 131.891 79.1154C131.891 77.4748 132.637 76.0089 133.807 75.0364" fill="#DFBD9D"/>
<path fill-rule="evenodd" clip-rule="evenodd" d="M106.873 85.5098C106.873 86.6338 106.171 87.5455 105.304 87.5455C104.494 87.5455 103.827 86.7481 103.745 85.7253C104.545 85.1497 105.528 84.6996 106.629 84.4182C106.783 84.7332 106.873 85.1079 106.873 85.5098" fill="#F6ADB3"/>
<path fill-rule="evenodd" clip-rule="evenodd" d="M41.2 145.907C39.4172 146.612 37.3937 146.964 35.1296 146.964C27.7097 146.964 24 143.215 24 135.716C24 128.62 27.7097 125.073 35.1296 125.073C37.3937 125.073 39.4172 125.425 41.2 126.129V129.753C39.4172 128.948 37.4902 128.545 35.4184 128.545C30.4558 128.545 27.9749 130.935 27.9749 135.716C27.9749 140.9 30.4558 143.492 35.4184 143.492C37.4902 143.492 39.4172 143.09 41.2 142.283V145.907Z" fill="#EE5D62"/>
<path fill-rule="evenodd" clip-rule="evenodd" d="M46.7016 146.964H42.7636L51.5518 126.636H55.678L64.6545 146.964H60.5282L58.1683 141.419H51.2912L52.6088 138.15H56.7783L53.5208 130.517L46.7016 146.964Z" fill="#EE5D62"/>
<path fill-rule="evenodd" clip-rule="evenodd" d="M71.7614 126.636V143.694H80.2909V146.964H67.7818V126.636H71.7614Z" fill="#EE5D62"/>
<path fill-rule="evenodd" clip-rule="evenodd" d="M88.9613 126.636V143.694H97.4909V146.964H84.9818V126.636H88.9613Z" fill="#EE5D62"/>
<path fill-rule="evenodd" clip-rule="evenodd" d="M107.634 145.907V142.283C109.815 143.09 112.281 143.492 115.031 143.492C118.369 143.492 120.039 142.384 120.039 140.17C120.039 138.56 119.014 137.755 116.964 137.755H113.555C109.1 137.755 106.873 135.742 106.873 131.716C106.873 127.287 110.044 125.073 116.386 125.073C118.821 125.073 121.13 125.425 123.312 126.129V129.753C121.13 128.948 118.821 128.545 116.386 128.545C112.732 128.545 110.906 129.602 110.906 131.716C110.906 133.326 111.789 134.131 113.555 134.131H116.964C121.704 134.131 124.073 136.145 124.073 140.17C124.073 144.7 121.059 146.964 115.031 146.964C112.281 146.964 109.815 146.612 107.634 145.907" fill="#EE5D62"/>
<path fill-rule="evenodd" clip-rule="evenodd" d="M125.636 138.268V125.073H129.342V138.268C129.342 141.734 130.974 143.467 134.236 143.467C137.499 143.467 139.132 141.734 139.132 138.268V125.073H142.836V138.268C142.836 144.065 139.971 146.964 134.236 146.964C128.504 146.964 125.636 144.065 125.636 138.268" fill="#EE5D62"/>
<path fill-rule="evenodd" clip-rule="evenodd" d="M149.091 146.964V126.636H153.105L160.182 142.059L167.115 126.636H170.982V146.964H167.407V132.806L161.744 146.964H158.446L152.667 132.806V146.964H149.091Z" fill="#EE5D62"/>
<path fill-rule="evenodd" clip-rule="evenodd" d="M185.914 143.492C190.022 143.492 192.076 140.98 192.076 135.958C192.076 131.016 190.022 128.545 185.914 128.545C181.701 128.545 179.595 131.016 179.595 135.958C179.595 140.98 181.701 143.492 185.914 143.492M175.673 136.048C175.673 128.731 179.087 125.073 185.914 125.073C192.638 125.073 196 128.731 196 136.048C196 143.326 192.638 146.964 185.914 146.964C179.391 146.964 175.977 143.326 175.673 136.048" fill="#EE5D62"/>
</svg>
