<svg width="1440" height="257" viewBox="0 0 1440 257" fill="none" xmlns="http://www.w3.org/2000/svg">
<rect width="1440" height="257" fill="#3D3D3D"/>
<path d="M426.259 74.0163V58.605H424.128V56.1652H426.259V55.2386C426.259 54.1268 426.341 53.1797 426.506 52.3973C426.691 51.5943 427.062 50.9766 427.618 50.5442C428.174 50.1118 429.007 49.8956 430.119 49.8956C430.531 49.8956 430.891 49.9162 431.2 49.9574C431.53 49.978 431.89 50.0295 432.281 50.1118V52.5208C432.096 52.4796 431.89 52.4487 431.663 52.4281C431.437 52.387 431.231 52.3664 431.046 52.3664C430.408 52.3664 429.996 52.5826 429.81 53.015C429.646 53.4267 429.563 53.9827 429.563 54.6827V56.1652H432.281V58.605H429.563V74.0163H426.259Z" fill="white"/>
<path d="M416.999 74.2634C415.682 74.2634 414.642 73.9958 413.88 73.4604C413.118 72.9251 412.573 72.1633 412.243 71.175C411.934 70.1867 411.78 69.0234 411.78 67.685V62.4965C411.78 61.1581 411.934 59.9948 412.243 59.0065C412.573 58.0182 413.118 57.2564 413.88 56.7211C414.642 56.1858 415.682 55.9181 416.999 55.9181C418.317 55.9181 419.347 56.1858 420.088 56.7211C420.85 57.2564 421.385 58.0182 421.694 59.0065C422.023 59.9948 422.188 61.1581 422.188 62.4965V67.685C422.188 69.0234 422.023 70.1867 421.694 71.175C421.385 72.1633 420.85 72.9251 420.088 73.4604C419.347 73.9958 418.317 74.2634 416.999 74.2634ZM416.999 71.8236C417.638 71.8236 418.08 71.6382 418.328 71.2676C418.595 70.897 418.75 70.4132 418.791 69.8161C418.853 69.1984 418.883 68.5601 418.883 67.9012V62.3112C418.883 61.6317 418.853 60.9934 418.791 60.3963C418.75 59.7992 418.595 59.3154 418.328 58.9448C418.08 58.5536 417.638 58.358 416.999 58.358C416.361 58.358 415.908 58.5536 415.641 58.9448C415.373 59.3154 415.208 59.7992 415.146 60.3963C415.105 60.9934 415.085 61.6317 415.085 62.3112V67.9012C415.085 68.5601 415.105 69.1984 415.146 69.8161C415.208 70.4132 415.373 70.897 415.641 71.2676C415.908 71.6382 416.361 71.8236 416.999 71.8236Z" fill="white"/>
<path d="M396.974 74.2634C395.574 74.2634 394.493 73.9958 393.731 73.4604C392.969 72.9045 392.434 72.1015 392.125 71.0514C391.837 69.9808 391.692 68.6733 391.692 67.1291V63.0524C391.692 61.467 391.847 60.1493 392.156 59.0992C392.464 58.0491 393 57.2564 393.762 56.7211C394.544 56.1858 395.615 55.9181 396.974 55.9181C398.477 55.9181 399.578 56.2269 400.278 56.8446C400.999 57.4623 401.472 58.358 401.699 59.5316C401.925 60.6846 402.039 62.0744 402.039 63.701V65.1525H394.997V68.7351C394.997 69.4557 395.059 70.0426 395.182 70.4955C395.326 70.9485 395.543 71.2882 395.831 71.5147C396.14 71.7206 396.531 71.8236 397.004 71.8236C397.499 71.8236 397.869 71.7103 398.116 71.4838C398.384 71.2367 398.559 70.897 398.641 70.4646C398.744 70.0117 398.796 69.4866 398.796 68.8895V67.8086H402.008V68.488C402.008 70.2793 401.627 71.6897 400.865 72.7192C400.103 73.7487 398.806 74.2634 396.974 74.2634ZM394.997 63.3612H398.796V61.7552C398.796 61.014 398.755 60.3963 398.672 59.9022C398.59 59.3874 398.415 59.0065 398.147 58.7595C397.9 58.4918 397.499 58.358 396.943 58.358C396.407 58.358 395.996 58.4815 395.707 58.7286C395.44 58.9756 395.254 59.3977 395.151 59.9948C395.048 60.5713 394.997 61.3743 394.997 62.4038V63.3612Z" fill="white"/>
<path d="M385.283 74.0164V49H388.588V74.0164H385.283Z" fill="white"/>
<path d="M371.191 79.8844V56.1652H374.496V57.5858C374.887 57.1329 375.361 56.7417 375.916 56.4122C376.472 56.0828 377.131 55.9181 377.893 55.9181C378.82 55.9181 379.551 56.1652 380.086 56.6593C380.642 57.1329 381.054 57.7403 381.321 58.4815C381.589 59.2021 381.764 59.9434 381.846 60.7052C381.929 61.4464 381.97 62.0847 381.97 62.62V66.9438C381.97 68.1998 381.846 69.394 381.599 70.5264C381.352 71.6382 380.899 72.5442 380.24 73.2442C379.602 73.9237 378.696 74.2634 377.522 74.2634C376.884 74.2634 376.318 74.109 375.824 73.8002C375.33 73.4707 374.887 73.1001 374.496 72.6883V79.8844H371.191ZM376.874 71.6691C377.45 71.6691 377.862 71.4632 378.109 71.0514C378.356 70.6191 378.511 70.0426 378.573 69.3219C378.634 68.6013 378.665 67.8086 378.665 66.9438V62.62C378.665 61.8788 378.624 61.1993 378.542 60.5816C378.459 59.9434 378.284 59.4389 378.017 59.0683C377.749 58.6977 377.327 58.5124 376.75 58.5124C376.318 58.5124 375.906 58.605 375.515 58.7903C375.124 58.9756 374.784 59.1918 374.496 59.4389V70.8661C374.805 71.0926 375.155 71.2882 375.546 71.4529C375.937 71.5971 376.38 71.6691 376.874 71.6691Z" fill="white"/>
<path d="M360.152 74.2634C359.452 74.2634 358.907 74.0781 358.515 73.7075C358.124 73.3369 357.846 72.8736 357.682 72.3177C357.537 71.7618 357.465 71.1956 357.465 70.6191V56.1652H360.77V69.6308C360.77 70.269 360.863 70.7735 361.048 71.1441C361.233 71.4941 361.614 71.6691 362.191 71.6691C362.561 71.6691 362.942 71.5662 363.333 71.3603C363.745 71.1338 364.136 70.8661 364.507 70.5573V56.1652H367.812V74.0163H364.507V72.2559C363.93 72.8118 363.272 73.2854 362.53 73.6766C361.81 74.0678 361.017 74.2634 360.152 74.2634Z" fill="white"/>
<path d="M349.38 74.2634C348.062 74.2634 347.022 73.9958 346.26 73.4604C345.498 72.9251 344.953 72.1633 344.623 71.175C344.315 70.1867 344.16 69.0234 344.16 67.685V62.4965C344.16 61.1581 344.315 59.9948 344.623 59.0065C344.953 58.0182 345.498 57.2564 346.26 56.7211C347.022 56.1858 348.062 55.9181 349.38 55.9181C350.697 55.9181 351.727 56.1858 352.468 56.7211C353.23 57.2564 353.765 58.0182 354.074 59.0065C354.403 59.9948 354.568 61.1581 354.568 62.4965V67.685C354.568 69.0234 354.403 70.1867 354.074 71.175C353.765 72.1633 353.23 72.9251 352.468 73.4604C351.727 73.9958 350.697 74.2634 349.38 74.2634ZM349.38 71.8236C350.018 71.8236 350.461 71.6382 350.708 71.2676C350.975 70.897 351.13 70.4132 351.171 69.8161C351.233 69.1984 351.264 68.5601 351.264 67.9012V62.3112C351.264 61.6317 351.233 60.9934 351.171 60.3963C351.13 59.7992 350.975 59.3154 350.708 58.9448C350.461 58.5536 350.018 58.358 349.38 58.358C348.741 58.358 348.288 58.5536 348.021 58.9448C347.753 59.3154 347.588 59.7992 347.527 60.3963C347.485 60.9934 347.465 61.6317 347.465 62.3112V67.9012C347.465 68.5601 347.485 69.1984 347.527 69.8161C347.588 70.4132 347.753 70.897 348.021 71.2676C348.288 71.6382 348.741 71.8236 349.38 71.8236Z" fill="white"/>
<path d="M336.802 74.2634C335.34 74.2634 334.228 73.9752 333.466 73.3987C332.725 72.8016 332.221 71.9677 331.953 70.897C331.706 69.8264 331.583 68.5807 331.583 67.16V63.0524C331.583 61.5493 331.716 60.2728 331.984 59.2227C332.252 58.1521 332.756 57.3388 333.497 56.7829C334.259 56.2063 335.361 55.9181 336.802 55.9181C338.099 55.9181 339.098 56.1343 339.798 56.5667C340.518 56.9785 341.013 57.6064 341.28 58.4506C341.548 59.2742 341.682 60.3037 341.682 61.539V62.5891H338.686V61.5082C338.686 60.7258 338.634 60.1081 338.532 59.6551C338.429 59.2021 338.243 58.8727 337.976 58.6668C337.708 58.4609 337.327 58.358 336.833 58.358C336.298 58.358 335.886 58.4815 335.597 58.7286C335.309 58.9756 335.114 59.3977 335.011 59.9948C334.928 60.5713 334.887 61.364 334.887 62.3729V67.9939C334.887 69.5175 335.031 70.5367 335.32 71.0514C335.608 71.5662 336.123 71.8236 336.864 71.8236C337.42 71.8236 337.821 71.7 338.068 71.4529C338.336 71.1853 338.501 70.8147 338.562 70.3411C338.645 69.8675 338.686 69.3322 338.686 68.7351V67.2835H341.682V68.5189C341.682 69.7131 341.538 70.7426 341.249 71.6074C340.982 72.4721 340.488 73.131 339.767 73.584C339.067 74.0369 338.079 74.2634 336.802 74.2634Z" fill="white"/>
<path d="M314.914 74.2634C314.214 74.2634 313.597 74.0678 313.061 73.6766C312.526 73.2648 312.104 72.7501 311.795 72.1324C311.486 71.4941 311.332 70.825 311.332 70.1249C311.332 69.0131 311.517 68.0762 311.888 67.3144C312.258 66.5526 312.763 65.9143 313.401 65.3996C314.06 64.8643 314.811 64.401 315.655 64.0098C316.52 63.6186 317.426 63.2377 318.373 62.8671V61.6008C318.373 60.8802 318.332 60.2831 318.25 59.8095C318.167 59.336 317.992 58.9859 317.725 58.7595C317.478 58.5124 317.097 58.3888 316.582 58.3888C316.129 58.3888 315.758 58.4918 315.47 58.6977C315.203 58.9036 315.007 59.2021 314.883 59.5933C314.76 59.9639 314.698 60.4066 314.698 60.9214V61.817L311.424 61.6935C311.465 59.7169 311.918 58.2653 312.783 57.3388C313.648 56.3917 314.986 55.9181 316.798 55.9181C318.569 55.9181 319.825 56.4019 320.566 57.3697C321.307 58.3374 321.678 59.7375 321.678 61.5699V69.7234C321.678 70.2793 321.688 70.8147 321.709 71.3294C321.75 71.8441 321.791 72.328 321.832 72.781C321.894 73.2133 321.946 73.6251 321.987 74.0163H318.96C318.898 73.6869 318.816 73.2751 318.713 72.781C318.631 72.2662 318.569 71.803 318.528 71.3912C318.322 72.0912 317.92 72.7501 317.323 73.3678C316.747 73.9649 315.944 74.2634 314.914 74.2634ZM316.211 71.4221C316.541 71.4221 316.85 71.3294 317.138 71.1441C317.426 70.9588 317.684 70.7529 317.91 70.5264C318.137 70.2793 318.291 70.0837 318.373 69.9396V64.8746C317.859 65.1628 317.375 65.4511 316.922 65.7393C316.469 66.0276 316.067 66.3364 315.717 66.6659C315.388 66.9747 315.12 67.335 314.914 67.7468C314.729 68.138 314.636 68.591 314.636 69.1057C314.636 69.8264 314.77 70.3926 315.038 70.8044C315.305 71.2162 315.697 71.4221 316.211 71.4221Z" fill="white"/>
<path d="M300.425 74.2634C299.499 74.2634 298.747 74.0884 298.171 73.7384C297.615 73.3883 297.203 72.8942 296.935 72.2559C296.688 71.6176 296.565 70.8661 296.565 70.0013V58.3579H294.681V56.1651H296.565V50.9457H299.869V56.1651H302.742V58.3579H299.869V69.7852C299.869 70.4852 299.983 70.9896 300.209 71.2985C300.436 71.5867 300.868 71.7309 301.506 71.7309C301.671 71.7309 301.856 71.7206 302.062 71.7C302.289 71.6794 302.505 71.6588 302.711 71.6382V74.0781C302.299 74.1399 301.918 74.181 301.568 74.2016C301.218 74.2428 300.837 74.2634 300.425 74.2634Z" fill="white"/>
<path d="M288.921 74.0164V49H292.225V74.0164H288.921Z" fill="white"/>
<path d="M281.77 74.0163V56.1652H285.075V74.0163H281.77ZM281.77 53.5091V50.05H285.075V53.5091H281.77Z" fill="white"/>
<path d="M270.515 74.2634C269.815 74.2634 269.269 74.0781 268.878 73.7075C268.487 73.3369 268.209 72.8736 268.044 72.3177C267.9 71.7618 267.828 71.1956 267.828 70.6191V56.1652H271.133V69.6308C271.133 70.269 271.225 70.7735 271.411 71.1441C271.596 71.4941 271.977 71.6691 272.553 71.6691C272.924 71.6691 273.305 71.5662 273.696 71.3603C274.108 71.1338 274.499 70.8661 274.87 70.5573V56.1652H278.174V74.0163H274.87V72.2559C274.293 72.8118 273.634 73.2854 272.893 73.6766C272.173 74.0678 271.38 74.2634 270.515 74.2634Z" fill="white"/>
<path d="M260.531 74.2634C259.893 74.2634 259.316 74.109 258.802 73.8002C258.308 73.4707 257.875 73.1104 257.505 72.7192V74.0164H254.2V49H257.505V57.5859C257.896 57.1329 258.359 56.7417 258.894 56.4123C259.45 56.0828 260.109 55.9181 260.871 55.9181C261.798 55.9181 262.528 56.1652 263.064 56.6593C263.62 57.1329 264.031 57.7403 264.299 58.4815C264.567 59.2021 264.742 59.9434 264.824 60.7052C264.907 61.4464 264.948 62.0847 264.948 62.62V66.9438C264.948 68.1998 264.824 69.394 264.577 70.5264C264.33 71.6383 263.887 72.5442 263.249 73.2442C262.611 73.9237 261.705 74.2634 260.531 74.2634ZM259.852 71.6691C260.428 71.6691 260.84 71.4632 261.087 71.0515C261.334 70.6191 261.489 70.0426 261.55 69.3219C261.612 68.6013 261.643 67.8086 261.643 66.9438V62.62C261.643 61.8788 261.602 61.1993 261.52 60.5816C261.437 59.9434 261.262 59.4389 260.995 59.0683C260.727 58.6977 260.305 58.5124 259.728 58.5124C259.296 58.5124 258.884 58.605 258.493 58.7904C258.122 58.9757 257.793 59.1816 257.505 59.408V70.8661C257.793 71.0926 258.133 71.2882 258.524 71.453C258.936 71.5971 259.378 71.6691 259.852 71.6691Z" fill="white"/>
<path d="M233.508 74.0163V56.1652H236.813V57.9256C237.41 57.3697 238.069 56.8961 238.79 56.5049C239.51 56.1137 240.303 55.9181 241.168 55.9181C241.888 55.9181 242.434 56.1034 242.805 56.474C243.196 56.8446 243.463 57.3079 243.607 57.8638C243.772 58.4197 243.855 58.9859 243.855 59.5624V74.0163H240.55V60.5199C240.55 59.8816 240.457 59.3874 240.272 59.0374C240.087 58.6874 239.706 58.5124 239.129 58.5124C238.759 58.5124 238.367 58.6256 237.956 58.8521C237.564 59.058 237.184 59.3154 236.813 59.6242V74.0163H233.508Z" fill="white"/>
<path d="M225.451 74.2634C224.051 74.2634 222.97 73.9958 222.208 73.4604C221.446 72.9045 220.911 72.1015 220.602 71.0514C220.314 69.9808 220.169 68.6733 220.169 67.1291V63.0524C220.169 61.467 220.324 60.1493 220.633 59.0992C220.942 58.0491 221.477 57.2564 222.239 56.7211C223.021 56.1858 224.092 55.9181 225.451 55.9181C226.954 55.9181 228.055 56.2269 228.755 56.8446C229.476 57.4623 229.949 58.358 230.176 59.5316C230.402 60.6846 230.516 62.0744 230.516 63.701V65.1525H223.474V68.7351C223.474 69.4557 223.536 70.0426 223.659 70.4955C223.803 70.9485 224.02 71.2882 224.308 71.5147C224.617 71.7206 225.008 71.8236 225.482 71.8236C225.976 71.8236 226.346 71.7103 226.593 71.4838C226.861 71.2367 227.036 70.897 227.118 70.4646C227.221 70.0117 227.273 69.4866 227.273 68.8895V67.8086H230.485V68.488C230.485 70.2793 230.104 71.6897 229.342 72.7192C228.58 73.7487 227.283 74.2634 225.451 74.2634ZM223.474 63.3612H227.273V61.7552C227.273 61.014 227.232 60.3963 227.149 59.9022C227.067 59.3874 226.892 59.0065 226.624 58.7595C226.377 58.4918 225.976 58.358 225.42 58.358C224.884 58.358 224.473 58.4815 224.184 58.7286C223.917 58.9756 223.731 59.3977 223.628 59.9948C223.526 60.5713 223.474 61.3743 223.474 62.4038V63.3612Z" fill="white"/>
<path d="M210.942 74.0163L207.421 56.1652H210.757L212.95 70.5264L215.173 56.1652H218.385L214.988 74.0163H210.942Z" fill="white"/>
<path d="M200.568 74.2634C199.168 74.2634 198.087 73.9958 197.325 73.4604C196.564 72.9045 196.028 72.1015 195.719 71.0514C195.431 69.9808 195.287 68.6733 195.287 67.1291V63.0524C195.287 61.467 195.441 60.1493 195.75 59.0992C196.059 58.0491 196.594 57.2564 197.356 56.7211C198.139 56.1858 199.209 55.9181 200.568 55.9181C202.071 55.9181 203.173 56.2269 203.873 56.8446C204.593 57.4623 205.067 58.358 205.294 59.5316C205.52 60.6846 205.633 62.0744 205.633 63.701V65.1525H198.592V68.7351C198.592 69.4557 198.653 70.0426 198.777 70.4955C198.921 70.9485 199.137 71.2882 199.425 71.5147C199.734 71.7206 200.126 71.8236 200.599 71.8236C201.093 71.8236 201.464 71.7103 201.711 71.4838C201.979 71.2367 202.154 70.897 202.236 70.4646C202.339 70.0117 202.39 69.4866 202.39 68.8895V67.8086H205.602V68.488C205.602 70.2793 205.221 71.6897 204.46 72.7192C203.698 73.7487 202.401 74.2634 200.568 74.2634ZM198.592 63.3612H202.39V61.7552C202.39 61.014 202.349 60.3963 202.267 59.9022C202.184 59.3874 202.009 59.0065 201.742 58.7595C201.495 58.4918 201.093 58.358 200.537 58.358C200.002 58.358 199.59 58.4815 199.302 58.7286C199.034 58.9756 198.849 59.3977 198.746 59.9948C198.643 60.5713 198.592 61.3743 198.592 62.4038V63.3612Z" fill="white"/>
<path d="M180.511 74.2634C179.111 74.2634 178.03 73.9958 177.269 73.4604C176.507 72.9045 175.971 72.1015 175.663 71.0514C175.374 69.9808 175.23 68.6733 175.23 67.1291V63.0524C175.23 61.467 175.385 60.1493 175.693 59.0992C176.002 58.0491 176.538 57.2564 177.299 56.7211C178.082 56.1858 179.153 55.9181 180.511 55.9181C182.014 55.9181 183.116 56.2269 183.816 56.8446C184.537 57.4623 185.01 58.358 185.237 59.5316C185.463 60.6846 185.576 62.0744 185.576 63.701V65.1525H178.535V68.7351C178.535 69.4557 178.597 70.0426 178.72 70.4955C178.864 70.9485 179.08 71.2882 179.369 71.5147C179.678 71.7206 180.069 71.8236 180.542 71.8236C181.036 71.8236 181.407 71.7103 181.654 71.4838C181.922 71.2367 182.097 70.897 182.179 70.4646C182.282 70.0117 182.334 69.4866 182.334 68.8895V67.8086H185.546V68.488C185.546 70.2793 185.165 71.6897 184.403 72.7192C183.641 73.7487 182.344 74.2634 180.511 74.2634ZM178.535 63.3612H182.334V61.7552C182.334 61.014 182.292 60.3963 182.21 59.9022C182.128 59.3874 181.953 59.0065 181.685 58.7595C181.438 58.4918 181.036 58.358 180.481 58.358C179.945 58.358 179.533 58.4815 179.245 58.7286C178.978 58.9756 178.792 59.3977 178.689 59.9948C178.586 60.5713 178.535 61.3743 178.535 62.4038V63.3612Z" fill="white"/>
<path d="M166.003 74.0163L162.482 56.1652H165.818L168.01 70.5264L170.234 56.1652H173.446L170.049 74.0163H166.003Z" fill="white"/>
<path d="M158.043 57.1844L157.456 55.949C158.095 55.9078 158.527 55.6093 158.753 55.0533C159.001 54.4974 159.124 53.643 159.124 52.4899H157.487V49H161.101C161.101 49.4942 161.101 49.9986 161.101 50.5133C161.101 51.0075 161.101 51.5016 161.101 51.9958C161.101 53.6018 160.874 54.8577 160.421 55.7637C159.968 56.649 159.176 57.1226 158.043 57.1844Z" fill="white"/>
<path d="M151 74.0164V49H154.428V74.0164H151Z" fill="white"/>
<path d="M365.76 202.033V198.357H369.065V202.033H365.76Z" fill="white"/>
<path d="M352.342 207.901V184.182H355.647V185.602C356.038 185.149 356.512 184.758 357.067 184.429C357.623 184.099 358.282 183.934 359.044 183.934C359.971 183.934 360.702 184.182 361.237 184.676C361.793 185.149 362.205 185.757 362.472 186.498C362.74 187.218 362.915 187.96 362.997 188.722C363.08 189.463 363.121 190.101 363.121 190.636V194.96C363.121 196.216 362.997 197.41 362.75 198.543C362.503 199.655 362.05 200.561 361.391 201.261C360.753 201.94 359.847 202.28 358.673 202.28C358.035 202.28 357.469 202.125 356.975 201.817C356.481 201.487 356.038 201.116 355.647 200.705V207.901H352.342ZM358.025 199.685C358.601 199.685 359.013 199.48 359.26 199.068C359.507 198.635 359.662 198.059 359.724 197.338C359.785 196.618 359.816 195.825 359.816 194.96V190.636C359.816 189.895 359.775 189.216 359.693 188.598C359.61 187.96 359.435 187.455 359.168 187.085C358.9 186.714 358.478 186.529 357.901 186.529C357.469 186.529 357.057 186.621 356.666 186.807C356.275 186.992 355.935 187.208 355.647 187.455V198.882C355.956 199.109 356.306 199.305 356.697 199.469C357.088 199.613 357.531 199.685 358.025 199.685Z" fill="white"/>
<path d="M341.303 202.28C340.603 202.28 340.057 202.094 339.666 201.724C339.275 201.353 338.997 200.89 338.832 200.334C338.688 199.778 338.616 199.212 338.616 198.635V184.182H341.921V197.647C341.921 198.285 342.014 198.79 342.199 199.16C342.384 199.51 342.765 199.685 343.342 199.685C343.712 199.685 344.093 199.583 344.484 199.377C344.896 199.15 345.287 198.882 345.658 198.574V184.182H348.962V202.033H345.658V200.272C345.081 200.828 344.422 201.302 343.681 201.693C342.961 202.084 342.168 202.28 341.303 202.28Z" fill="white"/>
<path d="M322.158 202.28C320.655 202.28 319.533 201.734 318.792 200.643C318.05 199.531 317.68 197.657 317.68 195.022V191.563C317.68 190.204 317.793 188.948 318.02 187.795C318.246 186.621 318.668 185.685 319.286 184.985C319.924 184.284 320.851 183.934 322.065 183.934C322.662 183.934 323.208 184.068 323.702 184.336C324.196 184.604 324.639 184.933 325.03 185.324V177.016H328.335V202.033H325.03V200.89C324.639 201.302 324.207 201.642 323.733 201.909C323.28 202.156 322.755 202.28 322.158 202.28ZM322.992 199.686C323.301 199.686 323.63 199.634 323.98 199.531C324.33 199.408 324.68 199.233 325.03 199.006V187.301C324.742 187.095 324.423 186.92 324.073 186.776C323.723 186.611 323.342 186.529 322.93 186.529C322.168 186.529 321.654 186.899 321.386 187.641C321.118 188.361 320.984 189.236 320.984 190.266V195.3C320.984 196.123 321.026 196.875 321.108 197.554C321.211 198.213 321.407 198.738 321.695 199.13C321.983 199.5 322.415 199.686 322.992 199.686Z" fill="white"/>
<path d="M304.447 202.033V184.182H307.752V185.942C308.349 185.386 309.008 184.912 309.729 184.521C310.449 184.13 311.242 183.934 312.107 183.934C312.827 183.934 313.373 184.12 313.743 184.49C314.135 184.861 314.402 185.324 314.546 185.88C314.711 186.436 314.794 187.002 314.794 187.579V202.033H311.489V188.536C311.489 187.898 311.396 187.404 311.211 187.054C311.026 186.704 310.645 186.529 310.068 186.529C309.698 186.529 309.306 186.642 308.895 186.868C308.503 187.074 308.123 187.332 307.752 187.641V202.033H304.447Z" fill="white"/>
<path d="M293.408 202.28C292.708 202.28 292.163 202.094 291.771 201.724C291.38 201.353 291.102 200.89 290.938 200.334C290.793 199.778 290.721 199.212 290.721 198.635V184.182H294.026V197.647C294.026 198.285 294.119 198.79 294.304 199.16C294.489 199.51 294.87 199.685 295.447 199.685C295.817 199.685 296.198 199.583 296.589 199.377C297.001 199.15 297.392 198.882 297.763 198.574V184.182H301.068V202.033H297.763V200.272C297.186 200.828 296.528 201.302 295.786 201.693C295.066 202.084 294.273 202.28 293.408 202.28Z" fill="white"/>
<path d="M282.636 202.28C281.318 202.28 280.278 202.012 279.516 201.477C278.754 200.941 278.209 200.18 277.879 199.191C277.571 198.203 277.416 197.04 277.416 195.701V190.513C277.416 189.174 277.571 188.011 277.879 187.023C278.209 186.035 278.754 185.273 279.516 184.737C280.278 184.202 281.318 183.934 282.636 183.934C283.953 183.934 284.983 184.202 285.724 184.737C286.486 185.273 287.021 186.035 287.33 187.023C287.659 188.011 287.824 189.174 287.824 190.513V195.701C287.824 197.04 287.659 198.203 287.33 199.191C287.021 200.18 286.486 200.941 285.724 201.477C284.983 202.012 283.953 202.28 282.636 202.28ZM282.636 199.84C283.274 199.84 283.717 199.655 283.964 199.284C284.231 198.913 284.386 198.43 284.427 197.832C284.489 197.215 284.52 196.576 284.52 195.918V190.328C284.52 189.648 284.489 189.01 284.427 188.413C284.386 187.816 284.231 187.332 283.964 186.961C283.717 186.57 283.274 186.374 282.636 186.374C281.997 186.374 281.544 186.57 281.277 186.961C281.009 187.332 280.844 187.816 280.783 188.413C280.741 189.01 280.721 189.648 280.721 190.328V195.918C280.721 196.576 280.741 197.215 280.783 197.832C280.844 198.43 281.009 198.913 281.277 199.284C281.544 199.655 281.997 199.84 282.636 199.84Z" fill="white"/>
<path d="M267.985 202.033V184.182H271.29V186.714C271.949 185.623 272.608 184.892 273.267 184.521C273.925 184.151 274.584 183.965 275.243 183.965C275.326 183.965 275.398 183.965 275.459 183.965C275.542 183.965 275.645 183.976 275.768 183.996V187.641C275.521 187.538 275.233 187.455 274.903 187.393C274.595 187.311 274.275 187.27 273.946 187.27C273.431 187.27 272.958 187.393 272.525 187.641C272.114 187.867 271.702 188.32 271.29 188.999V202.033H267.985Z" fill="white"/>
<path d="M258.985 207.623C257.894 207.623 256.906 207.499 256.021 207.252C255.156 207.026 254.466 206.665 253.951 206.171C253.457 205.677 253.21 205.028 253.21 204.225C253.21 203.608 253.354 203.062 253.642 202.589C253.931 202.136 254.301 201.744 254.754 201.415C255.207 201.086 255.681 200.828 256.175 200.643L257.719 200.859C257.452 201.106 257.194 201.364 256.947 201.631C256.7 201.878 256.494 202.136 256.329 202.403C256.165 202.692 256.082 203 256.082 203.33C256.082 203.865 256.309 204.267 256.762 204.534C257.235 204.802 258.069 204.936 259.263 204.936C260.437 204.936 261.302 204.792 261.858 204.503C262.434 204.236 262.722 203.803 262.722 203.206C262.722 202.836 262.65 202.527 262.506 202.28C262.362 202.053 262.115 201.868 261.765 201.724C261.415 201.58 260.911 201.477 260.252 201.415L256.36 200.921C255.557 200.818 254.96 200.561 254.569 200.149C254.178 199.737 253.982 199.284 253.982 198.79C253.982 198.049 254.188 197.421 254.6 196.906C255.032 196.391 255.609 195.815 256.329 195.176L257.441 196.041C257.318 196.206 257.163 196.443 256.978 196.751C256.793 197.04 256.7 197.328 256.7 197.616C256.7 197.843 256.813 198.028 257.04 198.172C257.287 198.316 257.668 198.409 258.182 198.45L261.178 198.728C262.578 198.852 263.618 199.274 264.298 199.994C264.977 200.715 265.317 201.744 265.317 203.083C265.317 204.071 265.08 204.905 264.606 205.584C264.153 206.264 263.464 206.768 262.537 207.098C261.611 207.448 260.427 207.623 258.985 207.623ZM259.109 196.535C257.894 196.535 256.906 196.268 256.144 195.732C255.382 195.197 254.816 194.456 254.445 193.509C254.095 192.561 253.92 191.481 253.92 190.266C253.92 188.886 254.116 187.733 254.507 186.807C254.898 185.86 255.475 185.149 256.237 184.676C257.019 184.182 257.977 183.934 259.109 183.934C260.283 183.934 261.24 184.233 261.981 184.83C262.722 185.407 263.268 186.179 263.618 187.146C263.968 188.114 264.143 189.185 264.143 190.358C264.143 191.573 263.978 192.654 263.649 193.601C263.34 194.528 262.815 195.248 262.074 195.763C261.353 196.278 260.365 196.535 259.109 196.535ZM259.109 194.157C259.562 194.157 259.922 194.075 260.19 193.91C260.458 193.725 260.653 193.467 260.777 193.138C260.921 192.809 261.014 192.407 261.055 191.934C261.116 191.439 261.147 190.883 261.147 190.266C261.147 189.648 261.127 189.092 261.086 188.598C261.044 188.104 260.952 187.692 260.808 187.363C260.664 187.013 260.458 186.745 260.19 186.56C259.922 186.374 259.572 186.282 259.14 186.282C258.687 186.282 258.316 186.374 258.028 186.56C257.76 186.724 257.544 186.982 257.379 187.332C257.235 187.661 257.132 188.073 257.071 188.567C257.029 189.061 257.009 189.627 257.009 190.266C257.009 190.822 257.029 191.336 257.071 191.81C257.132 192.284 257.235 192.695 257.379 193.045C257.524 193.395 257.729 193.673 257.997 193.879C258.285 194.065 258.656 194.157 259.109 194.157ZM263.525 187.177L262.753 185.942C262.918 185.654 263.289 185.293 263.865 184.861C264.442 184.429 265.059 184.068 265.718 183.78L266.583 185.942C266.295 186.004 265.904 186.117 265.409 186.282C264.936 186.446 264.503 186.621 264.112 186.807C263.721 186.971 263.525 187.095 263.525 187.177Z" fill="white"/>
<path d="M239.145 202.28C237.745 202.28 236.664 202.012 235.902 201.477C235.14 200.921 234.605 200.118 234.296 199.068C234.008 197.997 233.864 196.69 233.864 195.145V191.069C233.864 189.483 234.018 188.166 234.327 187.116C234.636 186.065 235.171 185.273 235.933 184.737C236.715 184.202 237.786 183.934 239.145 183.934C240.648 183.934 241.749 184.243 242.45 184.861C243.17 185.479 243.644 186.374 243.87 187.548C244.097 188.701 244.21 190.091 244.21 191.717V193.169H237.168V196.751C237.168 197.472 237.23 198.059 237.354 198.512C237.498 198.965 237.714 199.305 238.002 199.531C238.311 199.737 238.702 199.84 239.176 199.84C239.67 199.84 240.041 199.727 240.288 199.5C240.555 199.253 240.73 198.913 240.813 198.481C240.916 198.028 240.967 197.503 240.967 196.906V195.825H244.179V196.504C244.179 198.296 243.798 199.706 243.036 200.736C242.275 201.765 240.977 202.28 239.145 202.28ZM237.168 191.378H240.967V189.772C240.967 189.03 240.926 188.413 240.844 187.919C240.761 187.404 240.586 187.023 240.318 186.776C240.071 186.508 239.67 186.374 239.114 186.374C238.579 186.374 238.167 186.498 237.879 186.745C237.611 186.992 237.426 187.414 237.323 188.011C237.22 188.588 237.168 189.391 237.168 190.42V191.378Z" fill="white"/>
<path d="M220.543 202.033V177.016H223.847V186.035C224.445 185.458 225.114 184.964 225.855 184.552C226.596 184.14 227.42 183.934 228.326 183.934C229.026 183.934 229.561 184.12 229.932 184.49C230.323 184.861 230.591 185.324 230.735 185.88C230.899 186.436 230.982 187.002 230.982 187.579V202.033H227.677V188.536C227.677 187.898 227.584 187.404 227.399 187.054C227.214 186.704 226.833 186.529 226.256 186.529C225.865 186.529 225.453 186.642 225.021 186.868C224.609 187.095 224.218 187.373 223.847 187.702V202.033H220.543Z" fill="white"/>
<path d="M215.706 202.28C214.779 202.28 214.028 202.105 213.451 201.755C212.895 201.405 212.484 200.911 212.216 200.272C211.969 199.634 211.845 198.882 211.845 198.018V186.374H209.961V184.181H211.845V178.962H215.15V184.181H218.022V186.374H215.15V197.802C215.15 198.502 215.263 199.006 215.49 199.315C215.716 199.603 216.148 199.747 216.787 199.747C216.951 199.747 217.137 199.737 217.343 199.716C217.569 199.696 217.785 199.675 217.991 199.655V202.094C217.579 202.156 217.199 202.197 216.849 202.218C216.498 202.259 216.118 202.28 215.706 202.28Z" fill="white"/>
<path d="M182.9 202.033V184.182H185.958V185.88C186.555 185.201 187.214 184.696 187.934 184.367C188.655 184.037 189.396 183.873 190.158 183.873C190.817 183.873 191.404 184.037 191.919 184.367C192.454 184.696 192.835 185.283 193.061 186.127C193.7 185.345 194.389 184.779 195.13 184.429C195.892 184.058 196.685 183.873 197.509 183.873C198.085 183.873 198.61 184.017 199.084 184.305C199.557 184.573 199.938 185.015 200.226 185.633C200.515 186.23 200.659 187.023 200.659 188.011V202.033H197.632V188.227C197.632 187.363 197.488 186.786 197.2 186.498C196.932 186.189 196.561 186.035 196.088 186.035C195.635 186.035 195.161 186.168 194.667 186.436C194.173 186.683 193.72 187.033 193.308 187.486C193.308 187.569 193.308 187.651 193.308 187.733C193.308 187.816 193.308 187.908 193.308 188.011V202.033H190.282V188.227C190.282 187.363 190.138 186.786 189.849 186.498C189.582 186.189 189.211 186.035 188.737 186.035C188.284 186.035 187.811 186.168 187.317 186.436C186.843 186.683 186.39 187.033 185.958 187.486V202.033H182.9Z" fill="white"/>
<path d="M174.691 202.28C173.373 202.28 172.334 202.012 171.572 201.477C170.81 200.941 170.264 200.18 169.935 199.191C169.626 198.203 169.472 197.04 169.472 195.701V190.513C169.472 189.174 169.626 188.011 169.935 187.023C170.264 186.035 170.81 185.273 171.572 184.737C172.334 184.202 173.373 183.934 174.691 183.934C176.009 183.934 177.038 184.202 177.78 184.737C178.541 185.273 179.077 186.035 179.386 187.023C179.715 188.011 179.88 189.174 179.88 190.513V195.701C179.88 197.04 179.715 198.203 179.386 199.191C179.077 200.18 178.541 200.941 177.78 201.477C177.038 202.012 176.009 202.28 174.691 202.28ZM174.691 199.84C175.329 199.84 175.772 199.655 176.019 199.284C176.287 198.913 176.441 198.43 176.482 197.832C176.544 197.215 176.575 196.576 176.575 195.918V190.328C176.575 189.648 176.544 189.01 176.482 188.413C176.441 187.816 176.287 187.332 176.019 186.961C175.772 186.57 175.329 186.374 174.691 186.374C174.053 186.374 173.6 186.57 173.332 186.961C173.065 187.332 172.9 187.816 172.838 188.413C172.797 189.01 172.776 189.648 172.776 190.328V195.918C172.776 196.576 172.797 197.215 172.838 197.832C172.9 198.43 173.065 198.913 173.332 199.284C173.6 199.655 174.053 199.84 174.691 199.84Z" fill="white"/>
<path d="M160.041 202.033V184.182H163.345V186.714C164.004 185.623 164.663 184.892 165.322 184.521C165.981 184.151 166.64 183.965 167.299 183.965C167.381 183.965 167.453 183.965 167.515 183.965C167.597 183.965 167.7 183.976 167.824 183.996V187.641C167.577 187.538 167.288 187.455 166.959 187.393C166.65 187.311 166.331 187.27 166.001 187.27C165.487 187.27 165.013 187.393 164.581 187.641C164.169 187.867 163.757 188.32 163.345 188.999V202.033H160.041Z" fill="white"/>
<path d="M152.131 202.033V186.621H150V184.182H152.131V183.255C152.131 182.143 152.213 181.196 152.378 180.414C152.563 179.611 152.934 178.993 153.49 178.561C154.046 178.128 154.88 177.912 155.992 177.912C156.403 177.912 156.764 177.933 157.073 177.974C157.402 177.994 157.762 178.046 158.153 178.128V180.537C157.968 180.496 157.762 180.465 157.536 180.445C157.309 180.403 157.103 180.383 156.918 180.383C156.28 180.383 155.868 180.599 155.683 181.031C155.518 181.443 155.436 181.999 155.436 182.699V184.182H158.153V186.621H155.436V202.033H152.131Z" fill="white"/>
<path d="M802.125 133.61H804.438C805.333 135.193 806.573 136.714 808.156 138.173C809.74 139.61 811.521 140.891 813.5 142.016C815.5 143.121 817.615 144.006 819.844 144.673C822.073 145.339 824.292 145.673 826.5 145.673C827.417 145.673 828.302 145.631 829.156 145.548C830.01 145.443 830.76 145.266 831.406 145.016C832.052 144.746 832.562 144.391 832.938 143.954C833.333 143.516 833.531 142.954 833.531 142.266C833.531 141.558 833.208 140.975 832.562 140.516C831.938 140.037 831.083 139.641 830 139.329C828.917 139.016 827.667 138.756 826.25 138.548C824.854 138.339 823.396 138.131 821.875 137.923C819.125 137.568 816.552 137.1 814.156 136.516C811.76 135.933 809.677 135.131 807.906 134.11C806.135 133.089 804.74 131.798 803.719 130.235C802.719 128.673 802.219 126.735 802.219 124.423C802.219 122.298 802.688 120.423 803.625 118.798C804.583 117.152 805.906 115.777 807.594 114.673C809.281 113.548 811.281 112.704 813.594 112.141C815.906 111.558 818.427 111.266 821.156 111.266C822.448 111.266 823.75 111.391 825.062 111.641C826.396 111.891 827.677 112.225 828.906 112.641C830.156 113.037 831.333 113.506 832.438 114.048C833.562 114.568 834.573 115.1 835.469 115.641L839.656 111.641H842.25V123.954H840.031C839.177 122.516 838.094 121.183 836.781 119.954C835.49 118.725 834.021 117.662 832.375 116.766C830.729 115.871 828.948 115.173 827.031 114.673C825.115 114.152 823.115 113.891 821.031 113.891C820.01 113.891 819.073 113.943 818.219 114.048C817.365 114.152 816.625 114.318 816 114.548C815.375 114.777 814.885 115.079 814.531 115.454C814.198 115.829 814.031 116.277 814.031 116.798C814.031 117.506 814.292 118.089 814.812 118.548C815.333 119.006 816.104 119.412 817.125 119.766C818.167 120.1 819.448 120.402 820.969 120.673C822.49 120.943 824.26 121.235 826.281 121.548C828.844 121.964 831.229 122.475 833.438 123.079C835.646 123.683 837.552 124.506 839.156 125.548C840.781 126.589 842.052 127.912 842.969 129.516C843.906 131.121 844.375 133.141 844.375 135.579C844.375 137.558 843.99 139.35 843.219 140.954C842.469 142.537 841.344 143.881 839.844 144.985C838.365 146.089 836.531 146.933 834.344 147.516C832.156 148.121 829.646 148.423 826.812 148.423C825.479 148.423 824.042 148.287 822.5 148.016C820.958 147.766 819.427 147.402 817.906 146.923C816.406 146.423 814.979 145.829 813.625 145.141C812.271 144.433 811.125 143.641 810.188 142.766L804.719 147.954H802.125V133.61Z" fill="#F6DF53"/>
<path d="M713.969 144.985H719.438V114.704H713.969V112.454H738.031V116.454C739.385 114.808 741.135 113.537 743.281 112.641C745.427 111.725 747.896 111.266 750.688 111.266C754.167 111.266 756.906 111.818 758.906 112.923C760.906 114.027 762.375 115.589 763.312 117.61C763.812 116.714 764.5 115.881 765.375 115.11C766.25 114.339 767.25 113.673 768.375 113.11C769.5 112.527 770.729 112.079 772.062 111.766C773.396 111.433 774.771 111.266 776.188 111.266C779.312 111.266 781.875 111.621 783.875 112.329C785.896 113.016 787.49 114.037 788.656 115.391C789.844 116.725 790.656 118.371 791.094 120.329C791.552 122.266 791.781 124.496 791.781 127.016V144.985H797.25V147.235H770.062V144.985H773.188V127.016C773.188 124.871 773.125 123.121 773 121.766C772.875 120.391 772.656 119.318 772.344 118.548C772.031 117.756 771.615 117.214 771.094 116.923C770.573 116.61 769.917 116.454 769.125 116.454C767.771 116.454 766.708 116.912 765.938 117.829C765.188 118.725 764.698 119.923 764.469 121.423C764.635 122.277 764.75 123.173 764.812 124.11C764.875 125.027 764.906 125.996 764.906 127.016V144.985H768V147.235H743.188V144.985H746.312V127.016C746.312 124.871 746.25 123.121 746.125 121.766C746 120.391 745.781 119.318 745.469 118.548C745.156 117.756 744.74 117.214 744.219 116.923C743.698 116.61 743.042 116.454 742.25 116.454C741.458 116.454 740.792 116.621 740.25 116.954C739.708 117.287 739.271 117.756 738.938 118.36C738.604 118.964 738.365 119.683 738.219 120.516C738.094 121.35 738.031 122.256 738.031 123.235V144.985H741.125V147.235H713.969V144.985Z" fill="#F6DF53"/>
<path d="M664.625 129.516C664.625 126.725 665.198 124.204 666.344 121.954C667.49 119.704 669.073 117.787 671.094 116.204C673.135 114.621 675.542 113.402 678.312 112.548C681.104 111.693 684.125 111.266 687.375 111.266C689.875 111.266 692.135 111.516 694.156 112.016C696.198 112.516 698 113.204 699.562 114.079C701.146 114.933 702.5 115.954 703.625 117.141C704.771 118.329 705.708 119.61 706.438 120.985C707.188 122.36 707.74 123.808 708.094 125.329C708.448 126.829 708.625 128.339 708.625 129.86H683.562C683.562 133.048 683.698 135.641 683.969 137.641C684.26 139.641 684.708 141.214 685.312 142.36C685.938 143.485 686.729 144.256 687.688 144.673C688.667 145.089 689.844 145.298 691.219 145.298C692.969 145.298 694.615 145.079 696.156 144.641C697.698 144.204 699.073 143.589 700.281 142.798C701.51 141.985 702.531 141.016 703.344 139.891C704.156 138.746 704.708 137.464 705 136.048H707.938C707.729 137.985 707.135 139.725 706.156 141.266C705.177 142.787 703.875 144.079 702.25 145.141C700.646 146.204 698.75 147.016 696.562 147.579C694.396 148.141 692.021 148.423 689.438 148.423C685.375 148.423 681.792 148.006 678.688 147.173C675.604 146.318 673.021 145.089 670.938 143.485C668.854 141.86 667.281 139.881 666.219 137.548C665.156 135.193 664.625 132.516 664.625 129.516ZM692.344 126.704C692.281 124.1 692.156 121.933 691.969 120.204C691.781 118.475 691.51 117.089 691.156 116.048C690.802 115.006 690.365 114.277 689.844 113.86C689.323 113.423 688.698 113.204 687.969 113.204C687.24 113.204 686.604 113.423 686.062 113.86C685.542 114.277 685.104 115.006 684.75 116.048C684.396 117.089 684.125 118.475 683.938 120.204C683.75 121.933 683.635 124.1 683.594 126.704H692.344Z" fill="#F6DF53"/>
<path d="M629.344 114.704H623.875V112.454H629.344C631.448 112.454 633.333 112.1 635 111.391C636.688 110.662 638.115 109.725 639.281 108.579C640.469 107.412 641.375 106.11 642 104.673C642.625 103.235 642.938 101.798 642.938 100.36H647.938V112.454H658V114.704H647.938V133.954C647.938 136.183 648.052 138.006 648.281 139.423C648.531 140.818 648.875 141.912 649.312 142.704C649.771 143.496 650.302 144.037 650.906 144.329C651.531 144.6 652.219 144.735 652.969 144.735C653.698 144.735 654.406 144.579 655.094 144.266C655.781 143.933 656.385 143.412 656.906 142.704C657.427 141.975 657.844 141.037 658.156 139.891C658.469 138.725 658.625 137.298 658.625 135.61C658.625 135.214 658.615 134.808 658.594 134.391C658.573 133.954 658.542 133.506 658.5 133.048H661.125C661.188 134.089 661.219 135.037 661.219 135.891C661.219 138.496 660.854 140.621 660.125 142.266C659.417 143.891 658.396 145.162 657.062 146.079C655.729 146.996 654.104 147.621 652.188 147.954C650.292 148.287 648.156 148.454 645.781 148.454C643.115 148.454 640.76 148.193 638.719 147.673C636.677 147.152 634.958 146.329 633.562 145.204C632.167 144.058 631.115 142.589 630.406 140.798C629.698 139.006 629.344 136.829 629.344 134.266V114.704Z" fill="#F6DF53"/>
<path d="M578.25 133.61H580.562C581.458 135.193 582.698 136.714 584.281 138.173C585.865 139.61 587.646 140.891 589.625 142.016C591.625 143.121 593.74 144.006 595.969 144.673C598.198 145.339 600.417 145.673 602.625 145.673C603.542 145.673 604.427 145.631 605.281 145.548C606.135 145.443 606.885 145.266 607.531 145.016C608.177 144.746 608.688 144.391 609.062 143.954C609.458 143.516 609.656 142.954 609.656 142.266C609.656 141.558 609.333 140.975 608.688 140.516C608.062 140.037 607.208 139.641 606.125 139.329C605.042 139.016 603.792 138.756 602.375 138.548C600.979 138.339 599.521 138.131 598 137.923C595.25 137.568 592.677 137.1 590.281 136.516C587.885 135.933 585.802 135.131 584.031 134.11C582.26 133.089 580.865 131.798 579.844 130.235C578.844 128.673 578.344 126.735 578.344 124.423C578.344 122.298 578.812 120.423 579.75 118.798C580.708 117.152 582.031 115.777 583.719 114.673C585.406 113.548 587.406 112.704 589.719 112.141C592.031 111.558 594.552 111.266 597.281 111.266C598.573 111.266 599.875 111.391 601.188 111.641C602.521 111.891 603.802 112.225 605.031 112.641C606.281 113.037 607.458 113.506 608.562 114.048C609.688 114.568 610.698 115.1 611.594 115.641L615.781 111.641H618.375V123.954H616.156C615.302 122.516 614.219 121.183 612.906 119.954C611.615 118.725 610.146 117.662 608.5 116.766C606.854 115.871 605.073 115.173 603.156 114.673C601.24 114.152 599.24 113.891 597.156 113.891C596.135 113.891 595.198 113.943 594.344 114.048C593.49 114.152 592.75 114.318 592.125 114.548C591.5 114.777 591.01 115.079 590.656 115.454C590.323 115.829 590.156 116.277 590.156 116.798C590.156 117.506 590.417 118.089 590.938 118.548C591.458 119.006 592.229 119.412 593.25 119.766C594.292 120.1 595.573 120.402 597.094 120.673C598.615 120.943 600.385 121.235 602.406 121.548C604.969 121.964 607.354 122.475 609.562 123.079C611.771 123.683 613.677 124.506 615.281 125.548C616.906 126.589 618.177 127.912 619.094 129.516C620.031 131.121 620.5 133.141 620.5 135.579C620.5 137.558 620.115 139.35 619.344 140.954C618.594 142.537 617.469 143.881 615.969 144.985C614.49 146.089 612.656 146.933 610.469 147.516C608.281 148.121 605.771 148.423 602.938 148.423C601.604 148.423 600.167 148.287 598.625 148.016C597.083 147.766 595.552 147.402 594.031 146.923C592.531 146.423 591.104 145.829 589.75 145.141C588.396 144.433 587.25 143.641 586.312 142.766L580.844 147.954H578.25V133.61Z" fill="#F6DF53"/>
<path d="M526.125 154.985C526.125 154.173 526.323 153.402 526.719 152.673C527.135 151.964 527.698 151.339 528.406 150.798C529.115 150.277 529.938 149.86 530.875 149.548C531.833 149.235 532.854 149.079 533.938 149.079C534.979 149.079 535.969 149.225 536.906 149.516C537.844 149.808 538.667 150.204 539.375 150.704C540.104 151.204 540.677 151.798 541.094 152.485C541.51 153.173 541.719 153.912 541.719 154.704C541.719 155.433 541.531 156.131 541.156 156.798C540.802 157.464 540.292 157.975 539.625 158.329C541.479 158.162 543.135 157.6 544.594 156.641C546.073 155.704 547.406 154.391 548.594 152.704L530.438 114.704H525V112.454H554.125V114.704H549.938L558.188 133.798C558.708 132.652 559.25 131.454 559.812 130.204C560.396 128.933 560.958 127.683 561.5 126.454C562.062 125.204 562.594 124.016 563.094 122.891C563.594 121.746 564.031 120.725 564.406 119.829C564.802 118.933 565.115 118.193 565.344 117.61C565.594 117.027 565.74 116.673 565.781 116.548C565.844 116.402 565.875 116.277 565.875 116.173C565.875 115.902 565.729 115.673 565.438 115.485C565.167 115.298 564.771 115.152 564.25 115.048C563.75 114.923 563.146 114.839 562.438 114.798C561.75 114.735 560.99 114.704 560.156 114.704V112.454H574.719V114.704C573.802 114.704 573.01 114.746 572.344 114.829C571.698 114.891 571.146 115.006 570.688 115.173C570.229 115.318 569.865 115.516 569.594 115.766C569.323 116.016 569.115 116.318 568.969 116.673C568.885 116.881 568.604 117.516 568.125 118.579C567.667 119.641 567.062 120.996 566.312 122.641C565.562 124.287 564.708 126.162 563.75 128.266C562.792 130.371 561.771 132.568 560.688 134.86C559.604 137.152 558.5 139.464 557.375 141.798C556.25 144.131 555.146 146.36 554.062 148.485C553.062 150.464 552.021 152.225 550.938 153.766C549.875 155.308 548.635 156.6 547.219 157.641C545.823 158.704 544.198 159.506 542.344 160.048C540.49 160.61 538.281 160.891 535.719 160.891C534.427 160.891 533.198 160.787 532.031 160.579C530.865 160.371 529.844 160.037 528.969 159.579C528.094 159.121 527.396 158.516 526.875 157.766C526.375 157.016 526.125 156.089 526.125 154.985Z" fill="#F6DF53"/>
<path d="M475.719 130.235H477.812C478.333 131.256 478.979 132.36 479.75 133.548C480.521 134.714 481.427 135.881 482.469 137.048C483.51 138.214 484.698 139.339 486.031 140.423C487.365 141.485 488.854 142.423 490.5 143.235C492.146 144.048 493.958 144.704 495.938 145.204C497.917 145.683 500.083 145.923 502.438 145.923C503.125 145.923 503.896 145.891 504.75 145.829C505.604 145.746 506.406 145.589 507.156 145.36C507.906 145.11 508.531 144.766 509.031 144.329C509.552 143.871 509.812 143.266 509.812 142.516C509.812 141.725 509.479 141.027 508.812 140.423C508.167 139.798 507.177 139.204 505.844 138.641C504.51 138.058 502.823 137.475 500.781 136.891C498.76 136.308 496.375 135.652 493.625 134.923C487.5 133.339 482.958 131.131 480 128.298C477.062 125.443 475.594 121.964 475.594 117.86C475.594 115.298 476.115 113.016 477.156 111.016C478.219 109.016 479.656 107.339 481.469 105.985C483.302 104.61 485.438 103.568 487.875 102.86C490.333 102.131 492.948 101.766 495.719 101.766C497.135 101.766 498.615 101.891 500.156 102.141C501.719 102.391 503.24 102.735 504.719 103.173C506.198 103.61 507.594 104.141 508.906 104.766C510.219 105.371 511.365 106.037 512.344 106.766L517.062 102.204H519.219V115.798H517.25C516.333 114.152 515.156 112.621 513.719 111.204C512.281 109.787 510.635 108.558 508.781 107.516C506.927 106.475 504.875 105.652 502.625 105.048C500.375 104.443 497.99 104.141 495.469 104.141C494.99 104.141 494.375 104.162 493.625 104.204C492.875 104.225 492.135 104.329 491.406 104.516C490.698 104.704 490.083 105.006 489.562 105.423C489.042 105.818 488.781 106.381 488.781 107.11C488.781 108.298 489.854 109.443 492 110.548C494.167 111.631 497.385 112.735 501.656 113.86C503.469 114.339 505.219 114.85 506.906 115.391C508.594 115.912 510.167 116.516 511.625 117.204C513.104 117.871 514.438 118.641 515.625 119.516C516.833 120.371 517.865 121.381 518.719 122.548C519.573 123.714 520.229 125.048 520.688 126.548C521.167 128.048 521.406 129.777 521.406 131.735C521.406 134.006 520.99 136.152 520.156 138.173C519.323 140.193 518.073 141.964 516.406 143.485C514.76 145.006 512.708 146.214 510.25 147.11C507.792 147.985 504.948 148.423 501.719 148.423C499.948 148.423 498.281 148.287 496.719 148.016C495.156 147.746 493.635 147.339 492.156 146.798C490.698 146.256 489.25 145.579 487.812 144.766C486.375 143.933 484.896 142.964 483.375 141.86L478.062 147.829H475.719V130.235Z" fill="#F6DF53"/>
<path d="M388.281 144.985H393.75V114.704H388.281V112.454H412.344V116.454C413.01 115.641 413.812 114.912 414.75 114.266C415.708 113.621 416.76 113.079 417.906 112.641C419.052 112.183 420.271 111.839 421.562 111.61C422.875 111.381 424.219 111.266 425.594 111.266C428.427 111.266 430.76 111.641 432.594 112.391C434.448 113.121 435.906 114.173 436.969 115.548C438.031 116.902 438.771 118.558 439.188 120.516C439.604 122.454 439.812 124.621 439.812 127.016V144.985H445.281V147.235H418.094V144.985H421.219V127.016C421.219 124.871 421.156 123.121 421.031 121.766C420.906 120.391 420.688 119.318 420.375 118.548C420.062 117.756 419.646 117.214 419.125 116.923C418.604 116.61 417.948 116.454 417.156 116.454C416.365 116.454 415.667 116.621 415.062 116.954C414.458 117.287 413.948 117.756 413.531 118.36C413.135 118.964 412.833 119.683 412.625 120.516C412.438 121.35 412.344 122.256 412.344 123.235V144.985H415.438V147.235H388.281V144.985Z" fill="#F6DF53"/>
<path d="M336.25 154.204C336.25 153.204 336.76 152.225 337.781 151.266C338.823 150.308 340.531 149.412 342.906 148.579C339.615 146.829 337.969 144.256 337.969 140.86C337.969 139.86 338.125 138.891 338.438 137.954C338.75 136.996 339.229 136.1 339.875 135.266C340.542 134.433 341.375 133.693 342.375 133.048C343.396 132.402 344.594 131.881 345.969 131.485C343.698 130.506 341.979 129.256 340.812 127.735C339.646 126.193 339.062 124.433 339.062 122.454C339.062 120.975 339.458 119.558 340.25 118.204C341.062 116.85 342.281 115.662 343.906 114.641C345.531 113.6 347.583 112.777 350.062 112.173C352.542 111.568 355.458 111.266 358.812 111.266C360.562 111.266 362.188 111.35 363.688 111.516C365.208 111.683 366.625 111.923 367.938 112.235C368.604 111.089 369.406 110.11 370.344 109.298C371.281 108.485 372.302 107.818 373.406 107.298C374.531 106.777 375.719 106.391 376.969 106.141C378.219 105.891 379.49 105.766 380.781 105.766C381.677 105.766 382.51 105.902 383.281 106.173C384.052 106.423 384.719 106.766 385.281 107.204C385.865 107.641 386.323 108.152 386.656 108.735C386.99 109.318 387.156 109.943 387.156 110.61C387.156 111.277 386.99 111.902 386.656 112.485C386.323 113.068 385.865 113.579 385.281 114.016C384.719 114.454 384.052 114.808 383.281 115.079C382.51 115.329 381.677 115.454 380.781 115.454C379.906 115.454 379.073 115.329 378.281 115.079C377.51 114.808 376.833 114.454 376.25 114.016C375.667 113.579 375.208 113.068 374.875 112.485C374.542 111.902 374.375 111.277 374.375 110.61C374.375 110.068 374.5 109.527 374.75 108.985C373.854 109.36 373 109.871 372.188 110.516C371.396 111.162 370.719 111.954 370.156 112.891C372.906 113.829 374.99 115.121 376.406 116.766C377.844 118.391 378.562 120.287 378.562 122.454C378.562 124.141 378.125 125.673 377.25 127.048C376.375 128.423 375.094 129.6 373.406 130.579C371.74 131.558 369.677 132.318 367.219 132.86C364.76 133.381 361.958 133.641 358.812 133.641C354.854 133.641 351.469 133.235 348.656 132.423C347.469 132.652 346.635 132.975 346.156 133.391C345.698 133.808 345.469 134.235 345.469 134.673C345.469 134.964 345.573 135.256 345.781 135.548C345.99 135.839 346.385 136.1 346.969 136.329C347.573 136.558 348.396 136.756 349.438 136.923C350.479 137.068 351.844 137.141 353.531 137.141H366.094C368.385 137.141 370.5 137.339 372.438 137.735C374.375 138.11 376.042 138.746 377.438 139.641C378.854 140.516 379.958 141.693 380.75 143.173C381.542 144.652 381.938 146.485 381.938 148.673C381.938 150.548 381.51 152.235 380.656 153.735C379.823 155.256 378.448 156.548 376.531 157.61C374.635 158.673 372.146 159.485 369.062 160.048C365.979 160.61 362.208 160.891 357.75 160.891C353.875 160.891 350.573 160.714 347.844 160.36C345.135 160.006 342.917 159.527 341.188 158.923C339.479 158.318 338.229 157.61 337.438 156.798C336.646 155.985 336.25 155.121 336.25 154.204ZM358.812 131.704C359.604 131.704 360.26 131.537 360.781 131.204C361.323 130.85 361.75 130.308 362.062 129.579C362.375 128.829 362.594 127.871 362.719 126.704C362.844 125.537 362.906 124.121 362.906 122.454C362.906 120.787 362.844 119.371 362.719 118.204C362.594 117.037 362.375 116.089 362.062 115.36C361.75 114.61 361.323 114.068 360.781 113.735C360.26 113.381 359.604 113.204 358.812 113.204C358.021 113.204 357.354 113.381 356.812 113.735C356.292 114.068 355.875 114.61 355.562 115.36C355.25 116.089 355.021 117.037 354.875 118.204C354.75 119.371 354.688 120.787 354.688 122.454C354.688 124.121 354.75 125.537 354.875 126.704C355.021 127.871 355.25 128.829 355.562 129.579C355.875 130.308 356.292 130.85 356.812 131.204C357.354 131.537 358.021 131.704 358.812 131.704ZM341.25 153.891C341.25 154.204 341.312 154.537 341.438 154.891C341.583 155.246 341.854 155.6 342.25 155.954C342.667 156.308 343.24 156.641 343.969 156.954C344.719 157.266 345.708 157.548 346.938 157.798C348.167 158.048 349.667 158.246 351.438 158.391C353.208 158.537 355.323 158.61 357.781 158.61C360.719 158.61 363.323 158.485 365.594 158.235C367.865 157.985 369.771 157.641 371.312 157.204C372.875 156.787 374.052 156.277 374.844 155.673C375.656 155.089 376.062 154.454 376.062 153.766C376.062 152.766 375.323 152.037 373.844 151.579C372.365 151.141 370.229 150.923 367.438 150.923H355.031C353.156 150.923 351.438 150.818 349.875 150.61C348.312 150.402 346.885 150.1 345.594 149.704C343.99 150.371 342.865 151.048 342.219 151.735C341.573 152.443 341.25 153.162 341.25 153.891Z" fill="#F6DF53"/>
<path d="M317.469 109.298C316.26 109.298 315.094 109.183 313.969 108.954C312.844 108.704 311.854 108.318 311 107.798C310.146 107.256 309.458 106.568 308.938 105.735C308.417 104.902 308.156 103.881 308.156 102.673C308.156 101.464 308.417 100.443 308.938 99.6101C309.458 98.7559 310.146 98.0684 311 97.5476C311.854 97.0059 312.844 96.6205 313.969 96.3914C315.094 96.1414 316.26 96.0164 317.469 96.0164C318.656 96.0164 319.812 96.1414 320.938 96.3914C322.062 96.6205 323.052 97.0059 323.906 97.5476C324.76 98.0684 325.448 98.7455 325.969 99.5789C326.49 100.412 326.75 101.433 326.75 102.641C326.75 103.85 326.49 104.881 325.969 105.735C325.448 106.568 324.76 107.256 323.906 107.798C323.052 108.318 322.062 108.704 320.938 108.954C319.812 109.183 318.656 109.298 317.469 109.298ZM303.031 144.985H308.5V114.704H303.031V112.454H327.094V144.985H332.562V147.235H303.031V144.985Z" fill="#F6DF53"/>
<path d="M255.625 133.61H257.938C258.833 135.193 260.073 136.714 261.656 138.173C263.24 139.61 265.021 140.891 267 142.016C269 143.121 271.115 144.006 273.344 144.673C275.573 145.339 277.792 145.673 280 145.673C280.917 145.673 281.802 145.631 282.656 145.548C283.51 145.443 284.26 145.266 284.906 145.016C285.552 144.746 286.062 144.391 286.438 143.954C286.833 143.516 287.031 142.954 287.031 142.266C287.031 141.558 286.708 140.975 286.062 140.516C285.438 140.037 284.583 139.641 283.5 139.329C282.417 139.016 281.167 138.756 279.75 138.548C278.354 138.339 276.896 138.131 275.375 137.923C272.625 137.568 270.052 137.1 267.656 136.516C265.26 135.933 263.177 135.131 261.406 134.11C259.635 133.089 258.24 131.798 257.219 130.235C256.219 128.673 255.719 126.735 255.719 124.423C255.719 122.298 256.188 120.423 257.125 118.798C258.083 117.152 259.406 115.777 261.094 114.673C262.781 113.548 264.781 112.704 267.094 112.141C269.406 111.558 271.927 111.266 274.656 111.266C275.948 111.266 277.25 111.391 278.562 111.641C279.896 111.891 281.177 112.225 282.406 112.641C283.656 113.037 284.833 113.506 285.938 114.048C287.062 114.568 288.073 115.1 288.969 115.641L293.156 111.641H295.75V123.954H293.531C292.677 122.516 291.594 121.183 290.281 119.954C288.99 118.725 287.521 117.662 285.875 116.766C284.229 115.871 282.448 115.173 280.531 114.673C278.615 114.152 276.615 113.891 274.531 113.891C273.51 113.891 272.573 113.943 271.719 114.048C270.865 114.152 270.125 114.318 269.5 114.548C268.875 114.777 268.385 115.079 268.031 115.454C267.698 115.829 267.531 116.277 267.531 116.798C267.531 117.506 267.792 118.089 268.312 118.548C268.833 119.006 269.604 119.412 270.625 119.766C271.667 120.1 272.948 120.402 274.469 120.673C275.99 120.943 277.76 121.235 279.781 121.548C282.344 121.964 284.729 122.475 286.938 123.079C289.146 123.683 291.052 124.506 292.656 125.548C294.281 126.589 295.552 127.912 296.469 129.516C297.406 131.121 297.875 133.141 297.875 135.579C297.875 137.558 297.49 139.35 296.719 140.954C295.969 142.537 294.844 143.881 293.344 144.985C291.865 146.089 290.031 146.933 287.844 147.516C285.656 148.121 283.146 148.423 280.312 148.423C278.979 148.423 277.542 148.287 276 148.016C274.458 147.766 272.927 147.402 271.406 146.923C269.906 146.423 268.479 145.829 267.125 145.141C265.771 144.433 264.625 143.641 263.688 142.766L258.219 147.954H255.625V133.61Z" fill="#F6DF53"/>
<path d="M204.938 129.516C204.938 126.725 205.51 124.204 206.656 121.954C207.802 119.704 209.385 117.787 211.406 116.204C213.448 114.621 215.854 113.402 218.625 112.548C221.417 111.693 224.438 111.266 227.688 111.266C230.188 111.266 232.448 111.516 234.469 112.016C236.51 112.516 238.312 113.204 239.875 114.079C241.458 114.933 242.812 115.954 243.938 117.141C245.083 118.329 246.021 119.61 246.75 120.985C247.5 122.36 248.052 123.808 248.406 125.329C248.76 126.829 248.938 128.339 248.938 129.86H223.875C223.875 133.048 224.01 135.641 224.281 137.641C224.573 139.641 225.021 141.214 225.625 142.36C226.25 143.485 227.042 144.256 228 144.673C228.979 145.089 230.156 145.298 231.531 145.298C233.281 145.298 234.927 145.079 236.469 144.641C238.01 144.204 239.385 143.589 240.594 142.798C241.823 141.985 242.844 141.016 243.656 139.891C244.469 138.746 245.021 137.464 245.312 136.048H248.25C248.042 137.985 247.448 139.725 246.469 141.266C245.49 142.787 244.188 144.079 242.562 145.141C240.958 146.204 239.062 147.016 236.875 147.579C234.708 148.141 232.333 148.423 229.75 148.423C225.688 148.423 222.104 148.006 219 147.173C215.917 146.318 213.333 145.089 211.25 143.485C209.167 141.86 207.594 139.881 206.531 137.548C205.469 135.193 204.938 132.516 204.938 129.516ZM232.656 126.704C232.594 124.1 232.469 121.933 232.281 120.204C232.094 118.475 231.823 117.089 231.469 116.048C231.115 115.006 230.677 114.277 230.156 113.86C229.635 113.423 229.01 113.204 228.281 113.204C227.552 113.204 226.917 113.423 226.375 113.86C225.854 114.277 225.417 115.006 225.062 116.048C224.708 117.089 224.438 118.475 224.25 120.204C224.062 121.933 223.948 124.1 223.906 126.704H232.656Z" fill="#F6DF53"/>
<path d="M142 144.766H147.469V105.391H142V102.954H176.844C180.156 102.954 183.146 103.454 185.812 104.454C188.479 105.433 190.75 106.871 192.625 108.766C194.5 110.662 195.938 112.985 196.938 115.735C197.958 118.464 198.469 121.579 198.469 125.079C198.469 128.6 197.958 131.735 196.938 134.485C195.938 137.235 194.5 139.558 192.625 141.454C190.75 143.329 188.479 144.766 185.812 145.766C183.146 146.746 180.156 147.235 176.844 147.235H142V144.766ZM169.031 144.766C170.01 144.766 170.896 144.673 171.688 144.485C172.5 144.277 173.208 143.902 173.812 143.36C174.417 142.818 174.938 142.089 175.375 141.173C175.812 140.235 176.167 139.037 176.438 137.579C176.729 136.121 176.938 134.371 177.062 132.329C177.208 130.266 177.281 127.85 177.281 125.079C177.281 122.308 177.208 119.902 177.062 117.86C176.938 115.818 176.729 114.068 176.438 112.61C176.167 111.152 175.812 109.954 175.375 109.016C174.938 108.079 174.417 107.35 173.812 106.829C173.208 106.287 172.5 105.912 171.688 105.704C170.896 105.496 170.01 105.391 169.031 105.391V144.766Z" fill="#F6DF53"/>
</svg>
