<svg width="1440" height="282" viewBox="0 0 1440 282" fill="none" xmlns="http://www.w3.org/2000/svg">
<g clip-path="url(#clip0_191_374)">
<rect width="1440" height="282" fill="#76A780"/>
<path d="M529.593 231.072V144.164H563.176V152.855H541.717V181.824H558.348V190.408H541.717V231.072H529.593Z" fill="white"/>
<path d="M503.623 231.072V144.164H515.533V231.072H503.623Z" fill="white"/>
<path d="M447.342 231.072V144.164H464.831C470.624 144.164 475.417 144.951 479.208 146.525C482.999 148.027 485.789 150.495 487.577 153.928C489.437 157.29 490.367 161.725 490.367 167.232C490.367 170.594 490.009 173.67 489.294 176.46C488.578 179.178 487.434 181.503 485.86 183.434C484.287 185.294 482.212 186.653 479.637 187.511L491.976 231.072H480.281L468.908 190.301H459.466V231.072H447.342ZM459.466 181.61H464.08C467.513 181.61 470.303 181.181 472.448 180.322C474.594 179.464 476.168 177.998 477.169 175.923C478.171 173.849 478.671 170.952 478.671 167.232C478.671 162.154 477.742 158.506 475.882 156.289C474.022 154 470.338 152.855 464.831 152.855H459.466V181.61Z" fill="white"/>
<path d="M403.649 231.072V144.164H437.339V153.177H415.773V181.932H433.262V190.515H415.773V222.382H437.554V231.072H403.649Z" fill="white"/>
<path d="M343.505 231.072V144.164H355.63V181.717H377.947V144.164H390.071V231.072H377.947V190.408H355.63V231.072H343.505Z" fill="white"/>
<path d="M313.285 232.038C308.278 232.038 304.094 230.965 300.732 228.819C297.442 226.673 294.938 223.705 293.222 219.914C291.505 216.123 290.503 211.724 290.217 206.717L300.947 203.82C301.161 206.895 301.626 209.864 302.341 212.725C303.128 215.586 304.38 217.947 306.097 219.807C307.813 221.595 310.21 222.489 313.285 222.489C316.433 222.489 318.793 221.631 320.367 219.914C322.012 218.126 322.835 215.586 322.835 212.296C322.835 208.362 321.941 205.215 320.152 202.854C318.364 200.422 316.111 197.99 313.393 195.558L298.801 182.683C295.94 180.179 293.83 177.461 292.47 174.528C291.111 171.524 290.432 167.841 290.432 163.477C290.432 157.111 292.256 152.176 295.904 148.671C299.552 145.166 304.523 143.413 310.818 143.413C314.251 143.413 317.255 143.878 319.83 144.808C322.477 145.666 324.659 147.025 326.375 148.885C328.164 150.745 329.558 153.105 330.56 155.967C331.633 158.756 332.348 162.047 332.706 165.838L322.405 168.627C322.191 165.766 321.762 163.155 321.118 160.795C320.474 158.363 319.33 156.432 317.685 155.001C316.111 153.499 313.822 152.748 310.818 152.748C307.813 152.748 305.453 153.57 303.736 155.216C302.091 156.789 301.269 159.15 301.269 162.297C301.269 164.944 301.698 167.125 302.556 168.842C303.486 170.559 304.952 172.311 306.955 174.099L321.654 186.975C324.945 189.836 327.842 193.269 330.345 197.275C332.849 201.209 334.1 205.894 334.1 211.33C334.1 215.622 333.206 219.342 331.418 222.489C329.63 225.565 327.162 227.925 324.015 229.57C320.939 231.215 317.363 232.038 313.285 232.038Z" fill="white"/>
<path d="M197.229 231.072L198.838 144.164H210.748L226.091 214.656L241.541 144.164H253.343L254.953 231.072H245.189L244.223 167.984L229.524 231.072H222.657L208.065 167.984L207.1 231.072H197.229Z" fill="white"/>
<path d="M176.871 172.597L174.833 168.305C177.05 168.162 178.552 167.125 179.339 165.194C180.197 163.263 180.627 160.294 180.627 156.289H174.94V144.164H187.493C187.493 145.881 187.493 147.633 187.493 149.422C187.493 151.138 187.493 152.855 187.493 154.572C187.493 160.151 186.707 164.514 185.133 167.662C183.559 170.737 180.805 172.383 176.871 172.597Z" fill="white"/>
<path d="M152.403 231.072V144.164H164.313V231.072H152.403Z" fill="white"/>
<path d="M555.785 97.8938C555.078 96.7149 554.286 95.5024 553.41 94.2563C552.568 93.0101 551.659 91.7134 550.682 90.3662C549.369 88.5137 548.038 86.6108 546.691 84.6573C545.378 82.6701 544.182 80.6493 543.104 78.5948C542.06 76.5066 541.201 74.4184 540.528 72.3302C539.888 70.2083 539.568 68.1033 539.568 66.0151C539.568 63.7248 539.989 61.7545 540.831 60.1042C541.706 58.4201 542.885 57.0561 544.367 56.012C545.849 54.9342 547.567 54.1427 549.52 53.6375C551.474 53.1323 553.562 52.8797 555.785 52.8797C557.94 52.8797 559.995 53.1323 561.948 53.6375C563.902 54.1427 565.62 54.9342 567.102 56.012C568.583 57.0561 569.745 58.4201 570.587 60.1042C571.463 61.7545 571.901 63.7248 571.901 66.0151C571.901 68.137 571.564 70.2589 570.891 72.3807C570.217 74.4689 569.341 76.5571 568.263 78.6453C567.219 80.6998 566.041 82.7207 564.727 84.7078C563.413 86.6613 562.1 88.5642 560.786 90.4167C559.843 91.7639 558.934 93.0606 558.058 94.3068C557.216 95.553 556.458 96.7486 555.785 97.8938ZM542.649 114.717C542.649 112.831 543.003 111.063 543.71 109.413C544.418 107.728 545.394 106.28 546.641 105.068C547.887 103.822 549.335 102.845 550.985 102.138C552.636 101.43 554.404 101.077 556.29 101.077C558.142 101.077 559.894 101.43 561.544 102.138C563.195 102.845 564.643 103.822 565.889 105.068C567.135 106.28 568.112 107.728 568.819 109.413C569.527 111.063 569.88 112.831 569.88 114.717C569.88 116.603 569.527 118.372 568.819 120.022C568.112 121.639 567.135 123.07 565.889 124.316C564.643 125.562 563.195 126.539 561.544 127.246C559.894 127.954 558.142 128.307 556.29 128.307C554.404 128.307 552.636 127.954 550.985 127.246C549.335 126.539 547.887 125.562 546.641 124.316C545.394 123.07 544.418 121.639 543.71 120.022C543.003 118.372 542.649 116.603 542.649 114.717Z" fill="#F0BEC8"/>
<path d="M451.813 98.2979C451.813 93.9531 452.604 89.9452 454.187 86.274C455.77 82.6028 458.145 79.4368 461.311 76.7761C464.477 74.0816 468.451 71.9934 473.234 70.5115C478.016 68.9958 483.607 68.238 490.007 68.238C496.406 68.238 501.98 68.9958 506.729 70.5115C511.512 71.9934 515.486 74.0816 518.652 76.7761C521.818 79.4368 524.192 82.6028 525.775 86.274C527.358 89.9452 528.15 93.9531 528.15 98.2979C528.15 102.643 527.358 106.651 525.775 110.322C524.192 113.959 521.818 117.125 518.652 119.82C515.486 122.481 511.512 124.569 506.729 126.084C501.98 127.566 496.406 128.307 490.007 128.307C483.607 128.307 478.016 127.566 473.234 126.084C468.451 124.569 464.477 122.481 461.311 119.82C458.145 117.125 455.77 113.959 454.187 110.322C452.604 106.651 451.813 102.643 451.813 98.2979ZM490.007 125.175C491.287 125.175 492.381 124.754 493.291 123.912C494.2 123.07 494.941 121.622 495.513 119.567C496.086 117.513 496.49 114.768 496.726 111.332C496.995 107.863 497.13 103.518 497.13 98.2979C497.13 93.0438 496.995 88.699 496.726 85.2636C496.49 81.7945 496.086 79.0327 495.513 76.9781C494.941 74.9236 494.2 73.4754 493.291 72.6334C492.381 71.7913 491.287 71.3703 490.007 71.3703C488.693 71.3703 487.582 71.7913 486.672 72.6334C485.763 73.4754 485.022 74.9236 484.449 76.9781C483.877 79.0327 483.456 81.7945 483.186 85.2636C482.951 88.699 482.833 93.0438 482.833 98.2979C482.833 103.518 482.951 107.863 483.186 111.332C483.456 114.768 483.877 117.513 484.449 119.567C485.022 121.622 485.763 123.07 486.672 123.912C487.582 124.754 488.693 125.175 490.007 125.175Z" fill="#F0BEC8"/>
<path d="M396.897 122.75H405.738V53.6375H396.897V50H435.798V122.75H444.639V126.387H396.897V122.75Z" fill="#F0BEC8"/>
<path d="M342.435 122.75H351.277V53.6375H342.435V50H381.336V122.75H390.178V126.387H342.435V122.75Z" fill="#F0BEC8"/>
<path d="M262.663 97.7422C262.663 93.229 263.589 89.1537 265.442 85.5162C267.294 81.8787 269.854 78.7801 273.121 76.2203C276.422 73.6606 280.312 71.6903 284.791 70.3094C289.304 68.9285 294.188 68.238 299.442 68.238C303.484 68.238 307.138 68.6422 310.405 69.4505C313.706 70.2589 316.619 71.3703 319.145 72.7849C321.705 74.1658 323.894 75.8162 325.713 77.736C327.566 79.6557 329.081 81.7271 330.26 83.95C331.472 86.1729 332.365 88.5137 332.938 90.9724C333.51 93.3974 333.796 95.8392 333.796 98.2979H293.279C293.279 103.451 293.498 107.644 293.935 110.878C294.407 114.111 295.131 116.654 296.108 118.506C297.118 120.325 298.398 121.571 299.947 122.245C301.53 122.918 303.433 123.255 305.656 123.255C308.485 123.255 311.146 122.902 313.639 122.194C316.131 121.487 318.354 120.493 320.307 119.214C322.295 117.9 323.945 116.334 325.258 114.515C326.572 112.663 327.464 110.591 327.936 108.301H332.685C332.348 111.433 331.388 114.246 329.805 116.738C328.222 119.197 326.117 121.285 323.49 123.003C320.897 124.72 317.832 126.034 314.295 126.943C310.793 127.853 306.953 128.307 302.777 128.307C296.209 128.307 290.416 127.634 285.397 126.286C280.413 124.906 276.236 122.918 272.868 120.325C269.5 117.698 266.957 114.498 265.24 110.726C263.522 106.92 262.663 102.592 262.663 97.7422ZM307.475 93.1953C307.374 88.9853 307.172 85.4825 306.869 82.687C306.566 79.8915 306.128 77.6518 305.555 75.9677C304.983 74.2837 304.275 73.1049 303.433 72.4313C302.591 71.724 301.581 71.3703 300.402 71.3703C299.223 71.3703 298.196 71.724 297.32 72.4313C296.478 73.1049 295.771 74.2837 295.199 75.9677C294.626 77.6518 294.188 79.8915 293.885 82.687C293.582 85.4825 293.397 88.9853 293.329 93.1953H307.475Z" fill="#F0BEC8"/>
<path d="M150.002 122.396H158.843V58.7401H150.002V54.7995H198.704V58.7401H193.702V86.0719H209.465V58.7401H204.413V54.7995H253.115V58.7401H244.324V122.396H253.115V126.387H204.413V122.396H209.465V90.0125H193.702V122.396H198.704V126.387H150.002V122.396Z" fill="#F0BEC8"/>
<path fill-rule="evenodd" clip-rule="evenodd" d="M877 0.000870831C876.833 0.000290437 876.667 0 876.5 0C798.904 0 736 62.904 736 140.5C736 218.096 798.904 281 876.5 281C876.667 281 876.833 281 877 280.999V0.000870831Z" fill="#D9D9D9"/>
<path fill-rule="evenodd" clip-rule="evenodd" d="M1180 -0.999129C1179.83 -0.99971 1179.67 -1 1179.5 -1C1101.9 -1 1039 61.904 1039 139.5C1039 217.096 1101.9 280 1179.5 280C1179.67 280 1179.83 280 1180 279.999V-0.999129Z" fill="#D9D9D9"/>
<path fill-rule="evenodd" clip-rule="evenodd" d="M1321 -0.999129C1320.83 -0.99971 1320.67 -1 1320.5 -1C1242.9 -1 1180 61.904 1180 139.5C1180 217.096 1242.9 280 1320.5 280C1320.67 280 1320.83 280 1321 279.999V-0.999129Z" fill="#D9D9D9"/>
<path fill-rule="evenodd" clip-rule="evenodd" d="M1462 -0.999129C1461.83 -0.99971 1461.67 -1 1461.5 -1C1383.9 -1 1321 61.904 1321 139.5C1321 217.096 1383.9 280 1461.5 280C1461.67 280 1461.83 280 1462 279.999V-0.999129Z" fill="#D9D9D9"/>
<path fill-rule="evenodd" clip-rule="evenodd" d="M1038.83 139.848C1038.83 80.0423 1006.27 27.8407 957.915 0C909.574 27.8311 877.022 80.0062 877 139.786V139.91C877.022 199.689 909.574 251.865 957.915 279.696C1006.27 251.855 1038.83 199.653 1038.83 139.848Z" fill="#D9D9D9"/>
</g>
<defs>
<clipPath id="clip0_191_374">
<rect width="1440" height="282" fill="white"/>
</clipPath>
</defs>
</svg>
