<svg width="715" height="64" viewBox="0 0 715 64" fill="none" xmlns="http://www.w3.org/2000/svg">
<rect width="715" height="64" fill="#D9D9D9"/>
<path d="M400.579 46V20.08H403.043L410.403 37.296V20.08H413.411V46H411.107L403.651 28.304V46H400.579Z" fill="black"/>
<path d="M392.833 46V20.08H396.385V46H392.833Z" fill="black"/>
<path d="M368.454 46V20.08H374.086C376.006 20.08 377.52 20.3787 378.63 20.976C379.76 21.552 380.56 22.4267 381.03 23.6C381.52 24.7733 381.766 26.2347 381.766 27.984V37.52C381.766 39.3547 381.52 40.9013 381.03 42.16C380.56 43.4187 379.782 44.3787 378.694 45.04C377.627 45.68 376.187 46 374.374 46H368.454ZM372.07 43.408H374.118C375.44 43.408 376.379 43.152 376.934 42.64C377.488 42.128 377.819 41.3813 377.926 40.4C378.054 39.4187 378.118 38.2347 378.118 36.848V28.432C378.118 27.088 378.032 26 377.862 25.168C377.691 24.336 377.318 23.728 376.742 23.344C376.166 22.96 375.259 22.768 374.022 22.768H372.07V43.408Z" fill="black"/>
<path d="M355.422 46V20.08H365.47V22.768H359.038V31.344H364.254V33.904H359.038V43.408H365.534V46H355.422Z" fill="black"/>
<path d="M339.579 46V20.08H343.195V32.304L349.147 20.08H352.507L347.387 31.504L353.339 46H349.819L344.859 33.84L343.195 36.848V46H339.579Z" fill="black"/>
<path d="M322.672 46V20.08H325.136L332.496 37.296V20.08H335.504V46H333.2L325.744 28.304V46H322.672Z" fill="black"/>
<path d="M314.927 46V20.08H318.479V46H314.927Z" fill="black"/>
<path d="M302.016 46V20.08H305.632V43.408H312.256V46H302.016Z" fill="black"/>
</svg>
