<svg width="1440" height="665" viewBox="0 0 1440 665" fill="none" xmlns="http://www.w3.org/2000/svg">
<rect width="1440" height="665" fill="#3D3D3D"/>
<path d="M819.88 232.59C818.788 232.59 817.8 232.467 816.915 232.219C816.05 231.993 815.36 231.633 814.845 231.138C814.351 230.644 814.104 229.996 814.104 229.193C814.104 228.575 814.248 228.029 814.537 227.556C814.825 227.103 815.196 226.712 815.648 226.382C816.101 226.053 816.575 225.795 817.069 225.61L818.613 225.826C818.346 226.073 818.088 226.331 817.841 226.598C817.594 226.846 817.388 227.103 817.224 227.371C817.059 227.659 816.977 227.968 816.977 228.297C816.977 228.832 817.203 229.234 817.656 229.502C818.13 229.769 818.963 229.903 820.158 229.903C821.331 229.903 822.196 229.759 822.752 229.471C823.328 229.203 823.617 228.771 823.617 228.174C823.617 227.803 823.545 227.494 823.4 227.247C823.256 227.021 823.009 226.835 822.659 226.691C822.309 226.547 821.805 226.444 821.146 226.382L817.254 225.888C816.451 225.785 815.854 225.528 815.463 225.116C815.072 224.704 814.876 224.251 814.876 223.757C814.876 223.016 815.082 222.388 815.494 221.873C815.926 221.358 816.503 220.782 817.224 220.144L818.335 221.008C818.212 221.173 818.057 221.41 817.872 221.719C817.687 222.007 817.594 222.295 817.594 222.584C817.594 222.81 817.707 222.995 817.934 223.139C818.181 223.284 818.562 223.376 819.077 223.417L822.072 223.695C823.473 223.819 824.512 224.241 825.192 224.962C825.871 225.682 826.211 226.712 826.211 228.05C826.211 229.038 825.974 229.872 825.501 230.552C825.048 231.231 824.358 231.736 823.431 232.065C822.505 232.415 821.321 232.59 819.88 232.59ZM820.003 221.503C818.788 221.503 817.8 221.235 817.038 220.7C816.276 220.164 815.71 219.423 815.34 218.476C814.99 217.529 814.815 216.448 814.815 215.233C814.815 213.854 815.01 212.701 815.401 211.774C815.793 210.827 816.369 210.117 817.131 209.643C817.913 209.149 818.871 208.902 820.003 208.902C821.177 208.902 822.134 209.2 822.875 209.797C823.617 210.374 824.162 211.146 824.512 212.114C824.862 213.081 825.037 214.152 825.037 215.326C825.037 216.54 824.873 217.621 824.543 218.569C824.234 219.495 823.709 220.216 822.968 220.73C822.247 221.245 821.259 221.503 820.003 221.503ZM820.003 219.124C820.456 219.124 820.816 219.042 821.084 218.877C821.352 218.692 821.547 218.435 821.671 218.105C821.815 217.776 821.908 217.374 821.949 216.901C822.011 216.407 822.042 215.851 822.042 215.233C822.042 214.615 822.021 214.059 821.98 213.565C821.939 213.071 821.846 212.659 821.702 212.33C821.558 211.98 821.352 211.712 821.084 211.527C820.816 211.342 820.466 211.249 820.034 211.249C819.581 211.249 819.21 211.342 818.922 211.527C818.655 211.692 818.438 211.949 818.274 212.299C818.13 212.628 818.027 213.04 817.965 213.534C817.924 214.029 817.903 214.595 817.903 215.233C817.903 215.789 817.924 216.304 817.965 216.777C818.027 217.251 818.13 217.663 818.274 218.013C818.418 218.363 818.624 218.641 818.891 218.847C819.18 219.032 819.55 219.124 820.003 219.124ZM824.42 212.145L823.648 210.909C823.812 210.621 824.183 210.261 824.759 209.828C825.336 209.396 825.954 209.036 826.612 208.747L827.477 210.909C827.189 210.971 826.798 211.084 826.304 211.249C825.83 211.414 825.398 211.589 825.006 211.774C824.615 211.939 824.42 212.062 824.42 212.145Z" fill="white"/>
<path d="M801.582 227V209.149H804.887V210.909C805.484 210.353 806.143 209.88 806.863 209.489C807.584 209.097 808.377 208.902 809.241 208.902C809.962 208.902 810.508 209.087 810.878 209.458C811.269 209.828 811.537 210.292 811.681 210.847C811.846 211.403 811.928 211.97 811.928 212.546V227H808.624V213.504C808.624 212.865 808.531 212.371 808.346 212.021C808.16 211.671 807.779 211.496 807.203 211.496C806.832 211.496 806.441 211.609 806.029 211.836C805.638 212.042 805.257 212.299 804.887 212.608V227H801.582Z" fill="white"/>
<path d="M794.741 227V209.149H798.045V227H794.741ZM794.741 206.493V203.034H798.045V206.493H794.741Z" fill="white"/>
<path d="M785 227.247C783.497 227.247 782.375 226.701 781.634 225.61C780.893 224.498 780.522 222.625 780.522 219.989V216.53C780.522 215.171 780.635 213.915 780.862 212.762C781.088 211.589 781.51 210.652 782.128 209.952C782.766 209.252 783.693 208.902 784.908 208.902C785.505 208.902 786.05 209.036 786.544 209.303C787.039 209.571 787.481 209.9 787.872 210.292V201.984H791.177V227H787.872V225.857C787.481 226.269 787.049 226.609 786.575 226.876C786.122 227.124 785.597 227.247 785 227.247ZM785.834 224.653C786.143 224.653 786.472 224.601 786.822 224.498C787.172 224.375 787.522 224.2 787.872 223.973V212.268C787.584 212.062 787.265 211.887 786.915 211.743C786.565 211.578 786.184 211.496 785.772 211.496C785.011 211.496 784.496 211.867 784.228 212.608C783.96 213.329 783.827 214.204 783.827 215.233V220.267C783.827 221.091 783.868 221.842 783.95 222.522C784.053 223.181 784.249 223.706 784.537 224.097C784.825 224.467 785.258 224.653 785.834 224.653Z" fill="white"/>
<path d="M769.823 227.247C769.123 227.247 768.577 227.062 768.186 226.691C767.795 226.321 767.517 225.857 767.352 225.301C767.208 224.745 767.136 224.179 767.136 223.603V209.149H770.44V222.614C770.44 223.253 770.533 223.757 770.718 224.128C770.904 224.478 771.285 224.653 771.861 224.653C772.232 224.653 772.613 224.55 773.004 224.344C773.416 224.117 773.807 223.85 774.177 223.541V209.149H777.482V227H774.177V225.24C773.601 225.795 772.942 226.269 772.201 226.66C771.48 227.051 770.687 227.247 769.823 227.247Z" fill="white"/>
<path d="M760.511 227V201.984H763.815V227H760.511Z" fill="white"/>
<path d="M752.384 227.247C750.922 227.247 749.81 226.959 749.049 226.382C748.307 225.785 747.803 224.951 747.535 223.881C747.288 222.81 747.165 221.564 747.165 220.144V216.036C747.165 214.533 747.298 213.256 747.566 212.206C747.834 211.136 748.338 210.322 749.079 209.766C749.841 209.19 750.943 208.902 752.384 208.902C753.681 208.902 754.68 209.118 755.38 209.55C756.1 209.962 756.595 210.59 756.862 211.434C757.13 212.258 757.264 213.287 757.264 214.523V215.573H754.268V214.492C754.268 213.709 754.217 213.092 754.114 212.639C754.011 212.186 753.825 211.856 753.558 211.65C753.29 211.445 752.909 211.342 752.415 211.342C751.88 211.342 751.468 211.465 751.18 211.712C750.891 211.959 750.696 212.381 750.593 212.978C750.51 213.555 750.469 214.348 750.469 215.357V220.978C750.469 222.501 750.613 223.52 750.902 224.035C751.19 224.55 751.705 224.807 752.446 224.807C753.002 224.807 753.403 224.684 753.65 224.437C753.918 224.169 754.083 223.798 754.144 223.325C754.227 222.851 754.268 222.316 754.268 221.719V220.267H757.264V221.503C757.264 222.697 757.12 223.726 756.831 224.591C756.564 225.456 756.07 226.115 755.349 226.568C754.649 227.021 753.661 227.247 752.384 227.247Z" fill="white"/>
<path d="M733.932 227V209.149H737.237V210.909C737.834 210.353 738.493 209.88 739.213 209.489C739.934 209.097 740.727 208.902 741.591 208.902C742.312 208.902 742.858 209.087 743.228 209.458C743.619 209.828 743.887 210.292 744.031 210.847C744.196 211.403 744.278 211.97 744.278 212.546V227H740.974V213.504C740.974 212.865 740.881 212.371 740.696 212.021C740.51 211.671 740.13 211.496 739.553 211.496C739.182 211.496 738.791 211.609 738.379 211.836C737.988 212.042 737.607 212.299 737.237 212.608V227H733.932Z" fill="white"/>
<path d="M727.091 227V209.149H730.395V227H727.091ZM727.091 206.493V203.034H730.395V206.493H727.091Z" fill="white"/>
<path d="M712.404 227.247C710.942 227.247 709.768 226.794 708.883 225.888C707.998 224.962 707.493 223.747 707.37 222.244L710.118 221.41C710.283 222.542 710.561 223.397 710.952 223.973C711.344 224.529 711.92 224.807 712.682 224.807C713.279 224.807 713.732 224.642 714.041 224.313C714.35 223.963 714.504 223.5 714.504 222.923C714.504 222.409 714.391 221.945 714.164 221.533C713.938 221.122 713.567 220.7 713.052 220.267L709.995 217.642C709.377 217.107 708.852 216.51 708.42 215.851C708.008 215.192 707.802 214.337 707.802 213.287C707.802 212.34 707.987 211.547 708.358 210.909C708.749 210.25 709.285 209.756 709.964 209.427C710.664 209.077 711.477 208.902 712.404 208.902C713.886 208.902 715.019 209.365 715.801 210.292C716.584 211.197 717.037 212.299 717.16 213.596L714.813 214.43C714.731 213.812 714.607 213.277 714.442 212.824C714.278 212.35 714.041 211.99 713.732 211.743C713.423 211.475 713.022 211.342 712.527 211.342C711.992 211.342 711.56 211.527 711.23 211.898C710.921 212.248 710.767 212.67 710.767 213.164C710.767 213.473 710.829 213.781 710.952 214.09C711.096 214.379 711.333 214.667 711.663 214.955L714.813 217.858C715.245 218.249 715.647 218.671 716.017 219.124C716.409 219.577 716.728 220.092 716.975 220.669C717.222 221.245 717.345 221.914 717.345 222.676C717.345 223.685 717.14 224.529 716.728 225.209C716.316 225.888 715.739 226.403 714.998 226.753C714.257 227.082 713.392 227.247 712.404 227.247Z" fill="white"/>
<path d="M694.693 227V209.149H697.998V210.909C698.595 210.353 699.254 209.88 699.974 209.489C700.695 209.097 701.488 208.902 702.352 208.902C703.073 208.902 703.619 209.087 703.989 209.458C704.38 209.828 704.648 210.292 704.792 210.847C704.957 211.403 705.039 211.97 705.039 212.546V227H701.735V213.504C701.735 212.865 701.642 212.371 701.457 212.021C701.271 211.671 700.891 211.496 700.314 211.496C699.943 211.496 699.552 211.609 699.14 211.836C698.749 212.042 698.368 212.299 697.998 212.608V227H694.693Z" fill="white"/>
<path d="M686.484 227.247C685.166 227.247 684.126 226.979 683.365 226.444C682.603 225.909 682.057 225.147 681.728 224.159C681.419 223.17 681.264 222.007 681.264 220.669V215.48C681.264 214.142 681.419 212.978 681.728 211.99C682.057 211.002 682.603 210.24 683.365 209.705C684.126 209.169 685.166 208.902 686.484 208.902C687.802 208.902 688.831 209.169 689.572 209.705C690.334 210.24 690.87 211.002 691.178 211.99C691.508 212.978 691.672 214.142 691.672 215.48V220.669C691.672 222.007 691.508 223.17 691.178 224.159C690.87 225.147 690.334 225.909 689.572 226.444C688.831 226.979 687.802 227.247 686.484 227.247ZM686.484 224.807C687.122 224.807 687.565 224.622 687.812 224.251C688.08 223.881 688.234 223.397 688.275 222.8C688.337 222.182 688.368 221.544 688.368 220.885V215.295C688.368 214.615 688.337 213.977 688.275 213.38C688.234 212.783 688.08 212.299 687.812 211.928C687.565 211.537 687.122 211.342 686.484 211.342C685.846 211.342 685.393 211.537 685.125 211.928C684.857 212.299 684.693 212.783 684.631 213.38C684.59 213.977 684.569 214.615 684.569 215.295V220.885C684.569 221.544 684.59 222.182 684.631 222.8C684.693 223.397 684.857 223.881 685.125 224.251C685.393 224.622 685.846 224.807 686.484 224.807Z" fill="white"/>
<path d="M674.732 227V209.149H678.037V227H674.732ZM674.732 206.493V203.034H678.037V206.493H674.732Z" fill="white"/>
<path d="M669.771 227.247C668.845 227.247 668.093 227.072 667.517 226.722C666.961 226.372 666.549 225.878 666.281 225.24C666.034 224.601 665.911 223.85 665.911 222.985V211.342H664.027V209.149H665.911V203.929H669.215V209.149H672.088V211.342H669.215V222.769C669.215 223.469 669.329 223.973 669.555 224.282C669.782 224.57 670.214 224.715 670.852 224.715C671.017 224.715 671.202 224.704 671.408 224.684C671.635 224.663 671.851 224.643 672.057 224.622V227.062C671.645 227.124 671.264 227.165 670.914 227.185C670.564 227.227 670.183 227.247 669.771 227.247Z" fill="white"/>
<path d="M655.095 227.247C654.395 227.247 653.777 227.051 653.242 226.66C652.707 226.248 652.285 225.734 651.976 225.116C651.667 224.478 651.512 223.809 651.512 223.109C651.512 221.997 651.698 221.06 652.068 220.298C652.439 219.536 652.943 218.898 653.582 218.383C654.241 217.848 654.992 217.385 655.836 216.993C656.701 216.602 657.607 216.221 658.554 215.851V214.584C658.554 213.864 658.513 213.267 658.431 212.793C658.348 212.32 658.173 211.97 657.906 211.743C657.658 211.496 657.278 211.372 656.763 211.372C656.31 211.372 655.939 211.475 655.651 211.681C655.383 211.887 655.188 212.186 655.064 212.577C654.941 212.948 654.879 213.39 654.879 213.905V214.801L651.605 214.677C651.646 212.701 652.099 211.249 652.964 210.322C653.829 209.375 655.167 208.902 656.979 208.902C658.75 208.902 660.006 209.386 660.747 210.353C661.488 211.321 661.859 212.721 661.859 214.554V222.707C661.859 223.263 661.869 223.798 661.89 224.313C661.931 224.828 661.972 225.312 662.013 225.765C662.075 226.197 662.126 226.609 662.168 227H659.141C659.079 226.671 658.997 226.259 658.894 225.765C658.811 225.25 658.75 224.787 658.709 224.375C658.503 225.075 658.101 225.734 657.504 226.351C656.928 226.949 656.125 227.247 655.095 227.247ZM656.392 224.406C656.722 224.406 657.03 224.313 657.319 224.128C657.607 223.942 657.864 223.737 658.091 223.51C658.317 223.263 658.472 223.067 658.554 222.923V217.858C658.039 218.146 657.556 218.435 657.103 218.723C656.65 219.011 656.248 219.32 655.898 219.649C655.569 219.958 655.301 220.319 655.095 220.73C654.91 221.122 654.817 221.575 654.817 222.089C654.817 222.81 654.951 223.376 655.219 223.788C655.486 224.2 655.877 224.406 656.392 224.406Z" fill="white"/>
<path d="M644.59 227.247C643.128 227.247 642.016 226.959 641.255 226.382C640.513 225.785 640.009 224.951 639.741 223.881C639.494 222.81 639.371 221.564 639.371 220.144V216.036C639.371 214.533 639.505 213.256 639.772 212.206C640.04 211.136 640.544 210.322 641.286 209.766C642.047 209.19 643.149 208.902 644.59 208.902C645.887 208.902 646.886 209.118 647.586 209.55C648.307 209.962 648.801 210.59 649.068 211.434C649.336 212.258 649.47 213.287 649.47 214.523V215.573H646.474V214.492C646.474 213.709 646.423 213.092 646.32 212.639C646.217 212.186 646.031 211.856 645.764 211.65C645.496 211.445 645.115 211.342 644.621 211.342C644.086 211.342 643.674 211.465 643.386 211.712C643.097 211.959 642.902 212.381 642.799 212.978C642.717 213.555 642.675 214.348 642.675 215.357V220.978C642.675 222.501 642.819 223.52 643.108 224.035C643.396 224.55 643.911 224.807 644.652 224.807C645.208 224.807 645.609 224.684 645.856 224.437C646.124 224.169 646.289 223.798 646.351 223.325C646.433 222.851 646.474 222.316 646.474 221.719V220.267H649.47V221.503C649.47 222.697 649.326 223.726 649.038 224.591C648.77 225.456 648.276 226.115 647.555 226.568C646.855 227.021 645.867 227.247 644.59 227.247Z" fill="white"/>
<path d="M631.501 227.247C630.184 227.247 629.144 226.979 628.382 226.444C627.62 225.909 627.075 225.147 626.745 224.159C626.436 223.17 626.282 222.007 626.282 220.669V215.48C626.282 214.142 626.436 212.978 626.745 211.99C627.075 211.002 627.62 210.24 628.382 209.705C629.144 209.169 630.184 208.902 631.501 208.902C632.819 208.902 633.849 209.169 634.59 209.705C635.352 210.24 635.887 211.002 636.196 211.99C636.525 212.978 636.69 214.142 636.69 215.48V220.669C636.69 222.007 636.525 223.17 636.196 224.159C635.887 225.147 635.352 225.909 634.59 226.444C633.849 226.979 632.819 227.247 631.501 227.247ZM631.501 224.807C632.14 224.807 632.582 224.622 632.829 224.251C633.097 223.881 633.251 223.397 633.293 222.8C633.354 222.182 633.385 221.544 633.385 220.885V215.295C633.385 214.615 633.354 213.977 633.293 213.38C633.251 212.783 633.097 212.299 632.829 211.928C632.582 211.537 632.14 211.342 631.501 211.342C630.863 211.342 630.41 211.537 630.142 211.928C629.875 212.299 629.71 212.783 629.648 213.38C629.607 213.977 629.586 214.615 629.586 215.295V220.885C629.586 221.544 629.607 222.182 629.648 222.8C629.71 223.397 629.875 223.881 630.142 224.251C630.41 224.622 630.863 224.807 631.501 224.807Z" fill="white"/>
<path d="M619.842 227V201.984H623.147V227H619.842Z" fill="white"/>
<path d="M604.418 227.247C603.018 227.247 601.937 226.979 601.175 226.444C600.413 225.888 599.878 225.085 599.569 224.035C599.281 222.964 599.137 221.657 599.137 220.113V216.036C599.137 214.451 599.291 213.133 599.6 212.083C599.909 211.033 600.444 210.24 601.206 209.705C601.988 209.169 603.059 208.902 604.418 208.902C605.921 208.902 607.022 209.211 607.722 209.828C608.443 210.446 608.917 211.342 609.143 212.515C609.37 213.668 609.483 215.058 609.483 216.685V218.136H602.441V221.719C602.441 222.439 602.503 223.026 602.627 223.479C602.771 223.932 602.987 224.272 603.275 224.498C603.584 224.704 603.975 224.807 604.449 224.807C604.943 224.807 605.313 224.694 605.561 224.467C605.828 224.22 606.003 223.881 606.086 223.448C606.189 222.995 606.24 222.47 606.24 221.873V220.792H609.452V221.472C609.452 223.263 609.071 224.673 608.309 225.703C607.547 226.732 606.25 227.247 604.418 227.247ZM602.441 216.345H606.24V214.739C606.24 213.998 606.199 213.38 606.116 212.886C606.034 212.371 605.859 211.99 605.591 211.743C605.344 211.475 604.943 211.342 604.387 211.342C603.852 211.342 603.44 211.465 603.152 211.712C602.884 211.959 602.699 212.381 602.596 212.978C602.493 213.555 602.441 214.358 602.441 215.387V216.345Z" fill="white"/>
<path d="M592.728 227V201.984H596.032V227H592.728Z" fill="white"/>
<path d="M578.635 232.868V209.149H581.94V210.569C582.331 210.117 582.805 209.725 583.361 209.396C583.917 209.066 584.575 208.902 585.337 208.902C586.264 208.902 586.995 209.149 587.53 209.643C588.086 210.117 588.498 210.724 588.765 211.465C589.033 212.186 589.208 212.927 589.29 213.689C589.373 214.43 589.414 215.068 589.414 215.604V219.927C589.414 221.183 589.291 222.378 589.043 223.51C588.796 224.622 588.343 225.528 587.685 226.228C587.046 226.907 586.14 227.247 584.967 227.247C584.328 227.247 583.762 227.093 583.268 226.784C582.774 226.454 582.331 226.084 581.94 225.672V232.868H578.635ZM584.318 224.653C584.895 224.653 585.306 224.447 585.553 224.035C585.801 223.603 585.955 223.026 586.017 222.306C586.079 221.585 586.109 220.792 586.109 219.927V215.604C586.109 214.862 586.068 214.183 585.986 213.565C585.904 212.927 585.728 212.423 585.461 212.052C585.193 211.681 584.771 211.496 584.195 211.496C583.762 211.496 583.35 211.589 582.959 211.774C582.568 211.959 582.228 212.175 581.94 212.423V223.85C582.249 224.076 582.599 224.272 582.99 224.437C583.381 224.581 583.824 224.653 584.318 224.653Z" fill="white"/>
<path d="M571.794 227V209.149H575.099V227H571.794ZM571.794 206.493V203.034H575.099V206.493H571.794Z" fill="white"/>
<path d="M566.833 227.247C565.907 227.247 565.155 227.072 564.579 226.722C564.023 226.372 563.611 225.878 563.344 225.24C563.096 224.601 562.973 223.85 562.973 222.985V211.342H561.089V209.149H562.973V203.929H566.278V209.149H569.15V211.342H566.278V222.769C566.278 223.469 566.391 223.973 566.617 224.282C566.844 224.57 567.276 224.715 567.914 224.715C568.079 224.715 568.264 224.704 568.47 224.684C568.697 224.663 568.913 224.643 569.119 224.622V227.062C568.707 227.124 568.326 227.165 567.976 227.185C567.626 227.227 567.245 227.247 566.833 227.247Z" fill="white"/>
<path d="M555.329 227V201.984H558.633V227H555.329Z" fill="white"/>
<path d="M543.981 227.247C543.281 227.247 542.735 227.062 542.344 226.691C541.953 226.321 541.675 225.857 541.51 225.301C541.366 224.745 541.294 224.179 541.294 223.603V209.149H544.598V222.614C544.598 223.253 544.691 223.757 544.876 224.128C545.062 224.478 545.443 224.653 546.019 224.653C546.39 224.653 546.771 224.55 547.162 224.344C547.574 224.117 547.965 223.85 548.335 223.541V209.149H551.64V227H548.335V225.24C547.759 225.795 547.1 226.269 546.359 226.66C545.638 227.051 544.845 227.247 543.981 227.247Z" fill="white"/>
<path d="M520.426 227V209.149H523.483V210.847C524.08 210.168 524.739 209.664 525.46 209.334C526.18 209.005 526.922 208.84 527.683 208.84C528.342 208.84 528.929 209.005 529.444 209.334C529.979 209.664 530.36 210.25 530.587 211.095C531.225 210.312 531.915 209.746 532.656 209.396C533.418 209.025 534.21 208.84 535.034 208.84C535.61 208.84 536.135 208.984 536.609 209.272C537.083 209.54 537.463 209.983 537.752 210.6C538.04 211.197 538.184 211.99 538.184 212.978V227H535.157V213.195C535.157 212.33 535.013 211.753 534.725 211.465C534.457 211.156 534.087 211.002 533.613 211.002C533.16 211.002 532.687 211.136 532.193 211.403C531.698 211.65 531.245 212 530.834 212.453C530.834 212.536 530.834 212.618 530.834 212.701C530.834 212.783 530.834 212.876 530.834 212.978V227H527.807V213.195C527.807 212.33 527.663 211.753 527.375 211.465C527.107 211.156 526.736 211.002 526.263 211.002C525.81 211.002 525.336 211.136 524.842 211.403C524.368 211.65 523.915 212 523.483 212.453V227H520.426Z" fill="white"/>
<path d="M499.796 227V209.149H503.1V210.909C503.698 210.353 504.356 209.88 505.077 209.489C505.798 209.097 506.59 208.902 507.455 208.902C508.176 208.902 508.721 209.087 509.092 209.458C509.483 209.828 509.751 210.292 509.895 210.847C510.06 211.403 510.142 211.97 510.142 212.546V227H506.837V213.504C506.837 212.865 506.745 212.371 506.559 212.021C506.374 211.671 505.993 211.496 505.417 211.496C505.046 211.496 504.655 211.609 504.243 211.836C503.852 212.042 503.471 212.299 503.1 212.608V227H499.796Z" fill="white"/>
<path d="M492.954 227V209.149H496.259V227H492.954ZM492.954 206.493V203.034H496.259V206.493H492.954Z" fill="white"/>
<path d="M478.268 227.247C476.806 227.247 475.632 226.794 474.747 225.888C473.862 224.962 473.357 223.747 473.234 222.244L475.982 221.41C476.147 222.542 476.425 223.397 476.816 223.973C477.207 224.529 477.784 224.807 478.546 224.807C479.143 224.807 479.596 224.642 479.905 224.313C480.213 223.963 480.368 223.5 480.368 222.923C480.368 222.409 480.255 221.945 480.028 221.533C479.802 221.122 479.431 220.7 478.916 220.267L475.859 217.642C475.241 217.107 474.716 216.51 474.284 215.851C473.872 215.192 473.666 214.337 473.666 213.287C473.666 212.34 473.851 211.547 474.222 210.909C474.613 210.25 475.148 209.756 475.828 209.427C476.528 209.077 477.341 208.902 478.268 208.902C479.75 208.902 480.883 209.365 481.665 210.292C482.447 211.197 482.9 212.299 483.024 213.596L480.677 214.43C480.594 213.812 480.471 213.277 480.306 212.824C480.141 212.35 479.905 211.99 479.596 211.743C479.287 211.475 478.885 211.342 478.391 211.342C477.856 211.342 477.424 211.527 477.094 211.898C476.785 212.248 476.631 212.67 476.631 213.164C476.631 213.473 476.693 213.781 476.816 214.09C476.96 214.379 477.197 214.667 477.526 214.955L480.677 217.858C481.109 218.249 481.511 218.671 481.881 219.124C482.272 219.577 482.592 220.092 482.839 220.669C483.086 221.245 483.209 221.914 483.209 222.676C483.209 223.685 483.003 224.529 482.591 225.209C482.18 225.888 481.603 226.403 480.862 226.753C480.121 227.082 479.256 227.247 478.268 227.247Z" fill="white"/>
<path d="M453.137 227V209.149H456.195V210.847C456.792 210.168 457.451 209.664 458.172 209.334C458.892 209.005 459.633 208.84 460.395 208.84C461.054 208.84 461.641 209.005 462.156 209.334C462.691 209.664 463.072 210.25 463.298 211.095C463.937 210.312 464.626 209.746 465.368 209.396C466.129 209.025 466.922 208.84 467.746 208.84C468.322 208.84 468.847 208.984 469.321 209.272C469.794 209.54 470.175 209.983 470.464 210.6C470.752 211.197 470.896 211.99 470.896 212.978V227H467.869V213.195C467.869 212.33 467.725 211.753 467.437 211.465C467.169 211.156 466.799 211.002 466.325 211.002C465.872 211.002 465.399 211.136 464.904 211.403C464.41 211.65 463.957 212 463.546 212.453C463.546 212.536 463.546 212.618 463.546 212.701C463.546 212.783 463.546 212.876 463.546 212.978V227H460.519V213.195C460.519 212.33 460.375 211.753 460.086 211.465C459.819 211.156 459.448 211.002 458.975 211.002C458.522 211.002 458.048 211.136 457.554 211.403C457.08 211.65 456.627 212 456.195 212.453V227H453.137Z" fill="white"/>
<path d="M443.187 227.247C442.487 227.247 441.869 227.051 441.334 226.66C440.799 226.248 440.377 225.734 440.068 225.116C439.759 224.478 439.604 223.809 439.604 223.109C439.604 221.997 439.79 221.06 440.16 220.298C440.531 219.536 441.035 218.898 441.674 218.383C442.333 217.848 443.084 217.385 443.928 216.993C444.793 216.602 445.699 216.221 446.646 215.851V214.584C446.646 213.864 446.605 213.267 446.523 212.793C446.44 212.32 446.265 211.97 445.998 211.743C445.751 211.496 445.37 211.372 444.855 211.372C444.402 211.372 444.031 211.475 443.743 211.681C443.475 211.887 443.28 212.186 443.156 212.577C443.033 212.948 442.971 213.39 442.971 213.905V214.801L439.697 214.677C439.738 212.701 440.191 211.249 441.056 210.322C441.921 209.375 443.259 208.902 445.071 208.902C446.842 208.902 448.098 209.386 448.839 210.353C449.58 211.321 449.951 212.721 449.951 214.554V222.707C449.951 223.263 449.961 223.798 449.982 224.313C450.023 224.828 450.064 225.312 450.105 225.765C450.167 226.197 450.218 226.609 450.26 227H447.233C447.171 226.671 447.089 226.259 446.986 225.765C446.904 225.25 446.842 224.787 446.801 224.375C446.595 225.075 446.193 225.734 445.596 226.351C445.02 226.949 444.217 227.247 443.187 227.247ZM444.484 224.406C444.814 224.406 445.123 224.313 445.411 224.128C445.699 223.942 445.956 223.737 446.183 223.51C446.409 223.263 446.564 223.067 446.646 222.923V217.858C446.131 218.146 445.648 218.435 445.195 218.723C444.742 219.011 444.34 219.32 443.99 219.649C443.661 219.958 443.393 220.319 443.187 220.73C443.002 221.122 442.909 221.575 442.909 222.089C442.909 222.81 443.043 223.376 443.311 223.788C443.578 224.2 443.97 224.406 444.484 224.406Z" fill="white"/>
<path d="M432.442 227.247C431.042 227.247 429.961 226.979 429.2 226.444C428.438 225.888 427.902 225.085 427.594 224.035C427.305 222.964 427.161 221.657 427.161 220.113V216.036C427.161 214.451 427.316 213.133 427.625 212.083C427.933 211.033 428.469 210.24 429.23 209.705C430.013 209.169 431.084 208.902 432.442 208.902C433.946 208.902 435.047 209.211 435.747 209.828C436.468 210.446 436.941 211.342 437.168 212.515C437.394 213.668 437.508 215.058 437.508 216.685V218.136H430.466V221.719C430.466 222.439 430.528 223.026 430.651 223.479C430.795 223.932 431.011 224.272 431.3 224.498C431.609 224.704 432 224.807 432.473 224.807C432.968 224.807 433.338 224.694 433.585 224.467C433.853 224.22 434.028 223.881 434.11 223.448C434.213 222.995 434.265 222.47 434.265 221.873V220.792H437.477V221.472C437.477 223.263 437.096 224.673 436.334 225.703C435.572 226.732 434.275 227.247 432.442 227.247ZM430.466 216.345H434.265V214.739C434.265 213.998 434.223 213.38 434.141 212.886C434.059 212.371 433.884 211.99 433.616 211.743C433.369 211.475 432.968 211.342 432.412 211.342C431.876 211.342 431.464 211.465 431.176 211.712C430.909 211.959 430.723 212.381 430.62 212.978C430.517 213.555 430.466 214.358 430.466 215.387V216.345Z" fill="white"/>
<path d="M422.757 227.247C421.83 227.247 421.079 227.072 420.502 226.722C419.946 226.372 419.534 225.878 419.267 225.24C419.02 224.601 418.896 223.85 418.896 222.985V211.342H417.012V209.149H418.896V203.929H422.201V209.149H425.073V211.342H422.201V222.769C422.201 223.469 422.314 223.973 422.54 224.282C422.767 224.57 423.199 224.715 423.838 224.715C424.002 224.715 424.188 224.704 424.393 224.684C424.62 224.663 424.836 224.643 425.042 224.622V227.062C424.63 227.124 424.249 227.165 423.899 227.185C423.549 227.227 423.168 227.247 422.757 227.247Z" fill="white"/>
<path d="M389.951 227V209.149H393.009V210.847C393.606 210.168 394.265 209.664 394.985 209.334C395.706 209.005 396.447 208.84 397.209 208.84C397.868 208.84 398.455 209.005 398.969 209.334C399.505 209.664 399.886 210.25 400.112 211.095C400.75 210.312 401.44 209.746 402.181 209.396C402.943 209.025 403.736 208.84 404.559 208.84C405.136 208.84 405.661 208.984 406.135 209.272C406.608 209.54 406.989 209.983 407.277 210.6C407.566 211.197 407.71 211.99 407.71 212.978V227H404.683V213.195C404.683 212.33 404.539 211.753 404.251 211.465C403.983 211.156 403.612 211.002 403.139 211.002C402.686 211.002 402.212 211.136 401.718 211.403C401.224 211.65 400.771 212 400.359 212.453C400.359 212.536 400.359 212.618 400.359 212.701C400.359 212.783 400.359 212.876 400.359 212.978V227H397.333V213.195C397.333 212.33 397.188 211.753 396.9 211.465C396.632 211.156 396.262 211.002 395.788 211.002C395.335 211.002 394.862 211.136 394.368 211.403C393.894 211.65 393.441 212 393.009 212.453V227H389.951Z" fill="white"/>
<path d="M378.912 227.247C378.212 227.247 377.666 227.062 377.275 226.691C376.884 226.321 376.606 225.857 376.441 225.301C376.297 224.745 376.225 224.179 376.225 223.603V209.149H379.53V222.614C379.53 223.253 379.622 223.757 379.808 224.128C379.993 224.478 380.374 224.653 380.95 224.653C381.321 224.653 381.702 224.55 382.093 224.344C382.505 224.117 382.896 223.85 383.267 223.541V209.149H386.571V227H383.267V225.24C382.69 225.795 382.031 226.269 381.29 226.66C380.569 227.051 379.777 227.247 378.912 227.247Z" fill="white"/>
<path d="M366.519 227V209.149H369.823V211.681C370.482 210.59 371.141 209.859 371.8 209.489C372.459 209.118 373.118 208.933 373.776 208.933C373.859 208.933 373.931 208.933 373.993 208.933C374.075 208.933 374.178 208.943 374.301 208.964V212.608C374.054 212.505 373.766 212.423 373.437 212.361C373.128 212.278 372.809 212.237 372.479 212.237C371.965 212.237 371.491 212.361 371.059 212.608C370.647 212.834 370.235 213.287 369.823 213.967V227H366.519Z" fill="white"/>
<path d="M358.608 227.247C357.146 227.247 356.034 226.959 355.272 226.382C354.531 225.785 354.027 224.951 353.759 223.881C353.512 222.81 353.389 221.564 353.389 220.144V216.036C353.389 214.533 353.522 213.256 353.79 212.206C354.058 211.136 354.562 210.322 355.303 209.766C356.065 209.19 357.167 208.902 358.608 208.902C359.905 208.902 360.904 209.118 361.604 209.55C362.324 209.962 362.819 210.59 363.086 211.434C363.354 212.258 363.488 213.287 363.488 214.523V215.573H360.492V214.492C360.492 213.709 360.44 213.092 360.338 212.639C360.235 212.186 360.049 211.856 359.782 211.65C359.514 211.445 359.133 211.342 358.639 211.342C358.104 211.342 357.692 211.465 357.404 211.712C357.115 211.959 356.92 212.381 356.817 212.978C356.734 213.555 356.693 214.348 356.693 215.357V220.978C356.693 222.501 356.837 223.52 357.126 224.035C357.414 224.55 357.929 224.807 358.67 224.807C359.226 224.807 359.627 224.684 359.874 224.437C360.142 224.169 360.307 223.798 360.368 223.325C360.451 222.851 360.492 222.316 360.492 221.719V220.267H363.488V221.503C363.488 222.697 363.344 223.726 363.055 224.591C362.788 225.456 362.294 226.115 361.573 226.568C360.873 227.021 359.885 227.247 358.608 227.247Z" fill="white"/>
<path d="M345.307 227.278C343.866 227.278 342.662 226.969 341.694 226.351C340.747 225.734 340.026 224.879 339.532 223.788C339.038 222.697 338.75 221.431 338.667 219.989L341.756 219.155C341.818 220.041 341.951 220.895 342.157 221.719C342.384 222.542 342.744 223.222 343.238 223.757C343.732 224.272 344.422 224.529 345.307 224.529C346.213 224.529 346.893 224.282 347.346 223.788C347.819 223.273 348.056 222.542 348.056 221.595C348.056 220.463 347.799 219.557 347.284 218.877C346.769 218.177 346.121 217.477 345.338 216.777L341.138 213.071C340.315 212.351 339.707 211.568 339.316 210.724C338.925 209.859 338.729 208.799 338.729 207.543C338.729 205.71 339.254 204.29 340.304 203.281C341.354 202.272 342.785 201.767 344.597 201.767C345.585 201.767 346.45 201.901 347.191 202.169C347.953 202.416 348.581 202.807 349.075 203.343C349.59 203.878 349.992 204.557 350.28 205.381C350.589 206.184 350.795 207.131 350.898 208.222L347.933 209.025C347.871 208.202 347.747 207.45 347.562 206.771C347.377 206.071 347.047 205.515 346.574 205.103C346.121 204.671 345.462 204.454 344.597 204.454C343.732 204.454 343.053 204.691 342.559 205.165C342.085 205.618 341.848 206.297 341.848 207.203C341.848 207.965 341.972 208.593 342.219 209.087C342.487 209.581 342.909 210.086 343.485 210.6L347.716 214.307C348.664 215.13 349.497 216.118 350.218 217.271C350.939 218.404 351.299 219.752 351.299 221.317C351.299 222.553 351.042 223.623 350.527 224.529C350.012 225.415 349.302 226.094 348.396 226.568C347.511 227.041 346.481 227.278 345.307 227.278Z" fill="white"/>
<path d="M318.412 227V201.984H321.717V211.002C322.314 210.425 322.983 209.931 323.725 209.519C324.466 209.108 325.289 208.902 326.195 208.902C326.895 208.902 327.431 209.087 327.801 209.458C328.193 209.828 328.46 210.292 328.604 210.847C328.769 211.403 328.851 211.97 328.851 212.546V227H325.547V213.504C325.547 212.865 325.454 212.371 325.269 212.021C325.084 211.671 324.703 211.496 324.126 211.496C323.735 211.496 323.323 211.609 322.891 211.836C322.479 212.062 322.088 212.34 321.717 212.67V227H318.412Z" fill="white"/>
<path d="M313.575 227.247C312.649 227.247 311.897 227.072 311.321 226.722C310.765 226.372 310.353 225.878 310.085 225.24C309.838 224.601 309.715 223.85 309.715 222.985V211.342H307.831V209.149H309.715V203.929H313.02V209.149H315.892V211.342H313.02V222.769C313.02 223.469 313.133 223.973 313.359 224.282C313.586 224.57 314.018 224.715 314.656 224.715C314.821 224.715 315.006 224.704 315.212 224.684C315.439 224.663 315.655 224.643 315.861 224.622V227.062C315.449 227.124 315.068 227.165 314.718 227.185C314.368 227.227 313.987 227.247 313.575 227.247Z" fill="white"/>
<path d="M301.978 227V209.149H305.283V227H301.978ZM301.978 206.493V203.034H305.283V206.493H301.978Z" fill="white"/>
<path d="M285.674 227L282.802 209.149H285.52L287.373 222.306L289.751 209.149H292.284L294.662 222.244L296.515 209.149H299.232L296.268 227H293.488L291.048 214.399L288.639 227H285.674Z" fill="white"/>
<path d="M267.023 227.247C265.52 227.247 264.398 226.701 263.657 225.61C262.916 224.498 262.545 222.625 262.545 219.989V216.53C262.545 215.171 262.658 213.915 262.885 212.762C263.111 211.589 263.533 210.652 264.151 209.952C264.789 209.252 265.716 208.902 266.931 208.902C267.528 208.902 268.073 209.036 268.568 209.303C269.062 209.571 269.504 209.9 269.896 210.292V201.984H273.2V227H269.896V225.857C269.504 226.269 269.072 226.609 268.598 226.876C268.145 227.124 267.62 227.247 267.023 227.247ZM267.857 224.653C268.166 224.653 268.495 224.601 268.845 224.498C269.195 224.375 269.546 224.2 269.896 223.973V212.268C269.607 212.062 269.288 211.887 268.938 211.743C268.588 211.578 268.207 211.496 267.795 211.496C267.034 211.496 266.519 211.867 266.251 212.608C265.984 213.329 265.85 214.204 265.85 215.233V220.267C265.85 221.091 265.891 221.842 265.973 222.522C266.076 223.181 266.272 223.706 266.56 224.097C266.848 224.467 267.281 224.653 267.857 224.653Z" fill="white"/>
<path d="M254.827 227.247C253.427 227.247 252.346 226.979 251.584 226.444C250.822 225.888 250.287 225.085 249.978 224.035C249.69 222.964 249.546 221.657 249.546 220.113V216.036C249.546 214.451 249.7 213.133 250.009 212.083C250.318 211.033 250.853 210.24 251.615 209.705C252.398 209.169 253.468 208.902 254.827 208.902C256.33 208.902 257.432 209.211 258.132 209.828C258.852 210.446 259.326 211.342 259.552 212.515C259.779 213.668 259.892 215.058 259.892 216.685V218.136H252.851V221.719C252.851 222.439 252.912 223.026 253.036 223.479C253.18 223.932 253.396 224.272 253.684 224.498C253.993 224.704 254.384 224.807 254.858 224.807C255.352 224.807 255.723 224.694 255.97 224.467C256.238 224.22 256.413 223.881 256.495 223.448C256.598 222.995 256.649 222.47 256.649 221.873V220.792H259.861V221.472C259.861 223.263 259.48 224.673 258.719 225.703C257.957 226.732 256.66 227.247 254.827 227.247ZM252.851 216.345H256.649V214.739C256.649 213.998 256.608 213.38 256.526 212.886C256.443 212.371 256.268 211.99 256.001 211.743C255.754 211.475 255.352 211.342 254.796 211.342C254.261 211.342 253.849 211.465 253.561 211.712C253.293 211.959 253.108 212.381 253.005 212.978C252.902 213.555 252.851 214.358 252.851 215.387V216.345Z" fill="white"/>
<path d="M236.888 226.969V201.953H240.192V216.87L245.01 209.149H248.469L244.269 216.129L248.346 227H245.041L241.706 217.858L240.192 220.144V226.969H236.888Z" fill="white"/>
<path d="M226.996 227V209.149H230.3V211.681C230.959 210.59 231.618 209.859 232.277 209.489C232.936 209.118 233.595 208.933 234.254 208.933C234.336 208.933 234.408 208.933 234.47 208.933C234.552 208.933 234.655 208.943 234.779 208.964V212.608C234.532 212.505 234.243 212.423 233.914 212.361C233.605 212.278 233.286 212.237 232.957 212.237C232.442 212.237 231.968 212.361 231.536 212.608C231.124 212.834 230.712 213.287 230.3 213.967V227H226.996Z" fill="white"/>
<path d="M218.694 227.247C217.376 227.247 216.337 226.979 215.575 226.444C214.813 225.909 214.267 225.147 213.938 224.159C213.629 223.17 213.475 222.007 213.475 220.669V215.48C213.475 214.142 213.629 212.978 213.938 211.99C214.267 211.002 214.813 210.24 215.575 209.705C216.337 209.169 217.376 208.902 218.694 208.902C220.012 208.902 221.041 209.169 221.783 209.705C222.544 210.24 223.08 211.002 223.389 211.99C223.718 212.978 223.883 214.142 223.883 215.48V220.669C223.883 222.007 223.718 223.17 223.389 224.159C223.08 225.147 222.544 225.909 221.783 226.444C221.041 226.979 220.012 227.247 218.694 227.247ZM218.694 224.807C219.332 224.807 219.775 224.622 220.022 224.251C220.29 223.881 220.444 223.397 220.485 222.8C220.547 222.182 220.578 221.544 220.578 220.885V215.295C220.578 214.615 220.547 213.977 220.485 213.38C220.444 212.783 220.29 212.299 220.022 211.928C219.775 211.537 219.332 211.342 218.694 211.342C218.056 211.342 217.603 211.537 217.335 211.928C217.067 212.299 216.903 212.783 216.841 213.38C216.8 213.977 216.779 214.615 216.779 215.295V220.885C216.779 221.544 216.8 222.182 216.841 222.8C216.903 223.397 217.067 223.881 217.335 224.251C217.603 224.622 218.056 224.807 218.694 224.807Z" fill="white"/>
<path d="M197.696 227L194.824 209.149H197.542L199.395 222.306L201.773 209.149H204.305L206.683 222.244L208.536 209.149H211.254L208.289 227H205.51L203.07 214.399L200.661 227H197.696Z" fill="white"/>
<path d="M180.511 227.247C179.111 227.247 178.03 226.979 177.269 226.444C176.507 225.888 175.971 225.085 175.663 224.035C175.374 222.964 175.23 221.657 175.23 220.113V216.036C175.23 214.451 175.385 213.133 175.693 212.083C176.002 211.033 176.538 210.24 177.299 209.705C178.082 209.169 179.153 208.902 180.511 208.902C182.014 208.902 183.116 209.211 183.816 209.828C184.537 210.446 185.01 211.342 185.237 212.515C185.463 213.668 185.576 215.058 185.576 216.685V218.136H178.535V221.719C178.535 222.439 178.597 223.026 178.72 223.479C178.864 223.932 179.08 224.272 179.369 224.498C179.678 224.704 180.069 224.807 180.542 224.807C181.036 224.807 181.407 224.694 181.654 224.467C181.922 224.22 182.097 223.881 182.179 223.448C182.282 222.995 182.334 222.47 182.334 221.873V220.792H185.546V221.472C185.546 223.263 185.165 224.673 184.403 225.703C183.641 226.732 182.344 227.247 180.511 227.247ZM178.535 216.345H182.334V214.739C182.334 213.998 182.292 213.38 182.21 212.886C182.128 212.371 181.953 211.99 181.685 211.743C181.438 211.475 181.036 211.342 180.481 211.342C179.945 211.342 179.533 211.465 179.245 211.712C178.978 211.959 178.792 212.381 178.689 212.978C178.586 213.555 178.535 214.358 178.535 215.387V216.345Z" fill="white"/>
<path d="M166.003 227L162.482 209.149H165.818L168.011 223.51L170.234 209.149H173.446L170.049 227H166.003Z" fill="white"/>
<path d="M158.043 210.168L157.456 208.933C158.095 208.891 158.527 208.593 158.753 208.037C159.001 207.481 159.124 206.627 159.124 205.474H157.487V201.984H161.101C161.101 202.478 161.101 202.982 161.101 203.497C161.101 203.991 161.101 204.485 161.101 204.979C161.101 206.585 160.874 207.841 160.421 208.747C159.968 209.633 159.176 210.106 158.043 210.168Z" fill="white"/>
<path d="M151 227V201.984H154.428V227H151Z" fill="white"/>
<path d="M396.083 379.022C396.704 379.022 397.219 378.969 397.627 378.863C398.051 378.757 398.384 378.56 398.626 378.272C398.884 377.97 399.058 377.561 399.148 377.046C399.239 376.532 399.285 375.873 399.285 375.071H407.232V387.445H374.876V379.022C376.208 379.022 377.162 378.847 377.737 378.499C378.312 378.136 378.6 377.462 378.6 376.479V364.99C378.6 363.99 378.312 363.317 377.737 362.969C377.162 362.605 376.208 362.424 374.876 362.424V354H407.232V366.375H399.285C399.285 365.572 399.239 364.914 399.148 364.399C399.058 363.885 398.884 363.483 398.626 363.196C398.384 362.908 398.051 362.711 397.627 362.605C397.219 362.484 396.704 362.424 396.083 362.424H391.996V368.463H399.239V372.482H391.996V379.022H396.083Z" fill="#F6DF53"/>
<path d="M373.468 354V362.424C372.136 362.424 371.258 362.643 370.835 363.082C370.426 363.521 370.222 364.157 370.222 364.99V387.445H356.576L344.723 368.895V376.751C344.723 377.735 345.011 378.363 345.586 378.636C346.161 378.893 347.115 379.022 348.447 379.022V387.445H332.825V379.022C334.158 379.022 335.111 378.847 335.686 378.499C336.262 378.136 336.549 377.462 336.549 376.479V364.99C336.549 363.99 336.262 363.317 335.686 362.969C335.111 362.605 334.158 362.424 332.825 362.424V354H350.672L362.025 371.778V364.99C362.025 363.99 361.813 363.317 361.389 362.969C360.98 362.605 360.11 362.424 358.778 362.424V354H373.468Z" fill="#F6DF53"/>
<path d="M310.12 387.445V379.022C311.452 379.022 312.406 378.847 312.981 378.499C313.556 378.136 313.844 377.462 313.844 376.479V364.99C313.844 363.99 313.556 363.317 312.981 362.969C312.406 362.605 311.452 362.424 310.12 362.424V354H330.941V362.424C329.609 362.424 328.655 362.605 328.08 362.969C327.52 363.317 327.24 363.99 327.24 364.99V376.479C327.24 377.462 327.52 378.136 328.08 378.499C328.655 378.847 329.609 379.022 330.941 379.022V387.445H310.12Z" fill="#F6DF53"/>
<path d="M290.797 375.775H283.622L283.305 376.751C283.062 377.402 283.078 377.947 283.35 378.386C283.622 378.81 284.198 379.022 285.076 379.022H286.37V387.445H272.224V379.022H273.155C274.245 379.022 274.972 378.81 275.335 378.386C275.713 377.947 276.077 377.311 276.425 376.479L281.079 364.99C281.412 364.112 281.465 363.468 281.238 363.06C281.026 362.636 280.368 362.424 279.263 362.424H278.786V354H302.128V362.424H301.673C300.553 362.424 299.88 362.643 299.653 363.082C299.441 363.521 299.509 364.157 299.857 364.99L304.512 376.479C304.693 376.902 304.852 377.273 304.988 377.591C305.14 377.894 305.321 378.159 305.533 378.386C305.745 378.598 306.025 378.757 306.373 378.863C306.737 378.969 307.198 379.022 307.758 379.022H308.689V387.445H288.05V379.022H289.299C290.162 379.022 290.737 378.81 291.024 378.386C291.327 377.947 291.357 377.402 291.115 376.751L290.797 375.775ZM284.78 372.233H289.617L287.346 365.262H287.165L284.78 372.233Z" fill="#F6DF53"/>
<path d="M231.786 387.445V379.022C233.118 379.022 234.071 378.847 234.646 378.499C235.222 378.136 235.509 377.462 235.509 376.479V364.99C235.509 363.99 235.222 363.317 234.646 362.969C234.071 362.605 233.118 362.424 231.786 362.424V354H255.831C258.056 354 259.925 354.219 261.439 354.658C262.968 355.097 264.186 355.726 265.095 356.543C266.018 357.36 266.669 358.337 267.047 359.472C267.441 360.607 267.638 361.871 267.638 363.264C267.638 365.807 267.025 367.843 265.799 369.372C264.572 370.885 262.612 371.703 259.918 371.824V372.096C261.22 372.187 262.294 372.429 263.142 372.823C264.005 373.216 264.678 373.731 265.163 374.367C265.662 374.988 266.01 375.744 266.207 376.637C266.419 377.515 266.525 378.514 266.525 379.635V380.838C266.525 381.216 266.623 381.549 266.82 381.837C267.017 382.11 267.32 382.246 267.728 382.246C268.167 382.246 268.478 382.11 268.659 381.837C268.841 381.549 268.932 381.216 268.932 380.838V375.071H271.543V380.838C271.543 381.928 271.377 382.934 271.043 383.858C270.726 384.766 270.196 385.561 269.454 386.242C268.712 386.923 267.736 387.445 266.525 387.809C265.314 388.187 263.823 388.376 262.052 388.376C260.281 388.376 258.828 388.179 257.693 387.786C256.572 387.407 255.695 386.878 255.059 386.197C254.423 385.515 253.976 384.728 253.719 383.835C253.477 382.927 253.356 381.973 253.356 380.974V379.226C253.356 378.015 253.288 377.039 253.151 376.297C253.015 375.54 252.788 374.957 252.47 374.549C252.168 374.125 251.766 373.845 251.267 373.708C250.767 373.572 250.162 373.504 249.45 373.504H248.906V376.751C248.906 377.553 249.125 378.136 249.564 378.499C250.018 378.847 250.82 379.022 251.971 379.022V387.445H231.786ZM248.906 369.485H250.904C252.175 369.485 253.046 369.182 253.515 368.577C253.999 367.956 254.241 367.101 254.241 366.011C254.241 364.74 253.999 363.824 253.515 363.264C253.046 362.704 252.175 362.424 250.904 362.424H248.906V369.485Z" fill="#F6DF53"/>
<path d="M205.947 367.964L210.442 365.171C211.002 364.868 211.366 364.558 211.532 364.24C211.714 363.907 211.759 363.612 211.668 363.355C211.593 363.082 211.396 362.863 211.078 362.696C210.775 362.515 210.427 362.424 210.034 362.424V354H228.357V362.424C227.388 362.424 226.541 362.53 225.814 362.742C225.087 362.938 224.278 363.302 223.384 363.832L218.684 366.602L226.313 376.479C226.586 376.872 226.851 377.228 227.108 377.546C227.381 377.848 227.668 378.113 227.971 378.34C228.289 378.552 228.652 378.719 229.061 378.84C229.485 378.961 230.007 379.022 230.628 379.022V387.445H210.034V379.022C210.684 379.022 211.154 378.931 211.441 378.749C211.744 378.567 211.933 378.348 212.009 378.091C212.085 377.818 212.077 377.561 211.986 377.319C211.895 377.061 211.805 376.872 211.714 376.751L208.444 372.664L205.947 374.185V376.751C205.947 377.16 205.962 377.5 205.992 377.773C206.022 378.045 206.121 378.28 206.287 378.477C206.454 378.658 206.696 378.795 207.014 378.885C207.347 378.976 207.793 379.022 208.353 379.022V387.445H188.827V379.022C190.159 379.022 191.112 378.847 191.687 378.499C192.263 378.136 192.55 377.462 192.55 376.479V364.99C192.55 363.99 192.263 363.317 191.687 362.969C191.112 362.605 190.159 362.424 188.827 362.424V354H208.353V362.424C207.793 362.424 207.347 362.469 207.014 362.56C206.696 362.651 206.454 362.795 206.287 362.991C206.121 363.173 206.022 363.408 205.992 363.695C205.962 363.968 205.947 364.308 205.947 364.717V367.964Z" fill="#F6DF53"/>
<path d="M170.185 354V362.424C169.035 362.424 168.233 362.605 167.778 362.969C167.34 363.317 167.12 363.9 167.12 364.717V375.207C167.12 375.767 167.181 376.304 167.302 376.819C167.423 377.334 167.627 377.795 167.915 378.204C168.217 378.598 168.611 378.916 169.095 379.158C169.595 379.385 170.223 379.498 170.98 379.498C172.433 379.498 173.493 379.12 174.159 378.363C174.825 377.591 175.158 376.554 175.158 375.252V364.808C175.158 363.869 174.878 363.241 174.318 362.923C173.758 362.59 172.986 362.424 172.002 362.424V354H186.965V362.424C185.951 362.424 185.171 362.575 184.626 362.878C184.081 363.165 183.809 363.779 183.809 364.717V375.548C183.809 376.94 183.627 378.393 183.264 379.907C182.916 381.406 182.219 382.783 181.175 384.039C180.145 385.281 178.67 386.318 176.747 387.15C174.825 387.968 172.282 388.376 169.118 388.376C166.817 388.376 164.834 388.164 163.169 387.741C161.519 387.332 160.119 386.787 158.969 386.106C157.818 385.425 156.903 384.653 156.221 383.79C155.54 382.912 155.01 382.011 154.632 381.088C154.269 380.149 154.026 379.241 153.905 378.363C153.784 377.47 153.724 376.653 153.724 375.911V364.99C153.724 363.99 153.436 363.317 152.861 362.969C152.286 362.605 151.332 362.424 150 362.424V354H170.185Z" fill="#F6DF53"/>
<path d="M617.813 375.775H610.638L610.321 376.751C610.078 377.402 610.093 377.947 610.366 378.386C610.638 378.81 611.214 379.022 612.092 379.022H613.386V387.445H599.24V379.022H600.171C601.261 379.022 601.988 378.81 602.351 378.386C602.729 377.947 603.093 377.311 603.441 376.479L608.095 364.99C608.428 364.112 608.481 363.468 608.254 363.06C608.042 362.636 607.384 362.424 606.279 362.424H605.802V354H629.143V362.424H628.689C627.569 362.424 626.896 362.643 626.669 363.082C626.457 363.521 626.525 364.157 626.873 364.99L631.528 376.479C631.709 376.902 631.868 377.273 632.004 377.591C632.156 377.894 632.337 378.159 632.549 378.386C632.761 378.598 633.041 378.757 633.389 378.863C633.753 378.969 634.214 379.022 634.774 379.022H635.705V387.445H615.066V379.022H616.315C617.178 379.022 617.753 378.81 618.04 378.386C618.343 377.947 618.373 377.402 618.131 376.751L617.813 375.775ZM611.796 372.233H616.633L614.362 365.262H614.181L611.796 372.233Z" fill="#F6DF53"/>
<path d="M577.011 387.445V379.022C578.344 379.022 579.297 378.847 579.872 378.499C580.448 378.136 580.735 377.462 580.735 376.479V364.99C580.735 363.99 580.448 363.317 579.872 362.969C579.297 362.605 578.344 362.424 577.011 362.424V354H597.832V362.424C596.5 362.424 595.547 362.605 594.972 362.969C594.412 363.317 594.131 363.99 594.131 364.99V376.479C594.131 377.462 594.412 378.136 594.972 378.499C595.547 378.847 596.5 379.022 597.832 379.022V387.445H577.011Z" fill="#F6DF53"/>
<path d="M553.08 379.022C553.912 379.022 554.722 378.931 555.509 378.749C556.312 378.567 557.008 378.189 557.598 377.614C558.204 377.039 558.696 376.214 559.074 375.139C559.452 374.049 559.642 372.588 559.642 370.757C559.642 368.955 559.46 367.51 559.097 366.42C558.733 365.315 558.257 364.467 557.666 363.877C557.091 363.287 556.395 362.901 555.577 362.719C554.775 362.522 553.943 362.424 553.08 362.424H550.945V379.022H553.08ZM533.825 387.445V379.022C535.158 379.022 536.111 378.847 536.686 378.499C537.262 378.136 537.549 377.462 537.549 376.479V364.99C537.549 363.99 537.262 363.317 536.686 362.969C536.111 362.605 535.158 362.424 533.825 362.424V354H557.916C560.081 354 562.177 354.288 564.206 354.863C566.234 355.438 568.035 356.377 569.609 357.678C571.199 358.98 572.47 360.706 573.424 362.855C574.393 364.99 574.877 367.623 574.877 370.757C574.877 373.89 574.4 376.524 573.447 378.658C572.508 380.793 571.222 382.511 569.587 383.812C567.967 385.114 566.067 386.053 563.888 386.628C561.708 387.203 559.392 387.491 556.94 387.491L533.825 387.445Z" fill="#F6DF53"/>
<path d="M532.418 354V362.424C531.086 362.424 530.208 362.643 529.784 363.082C529.375 363.521 529.171 364.157 529.171 364.99V387.445H515.525L503.672 368.895V376.751C503.672 377.735 503.96 378.363 504.535 378.636C505.11 378.893 506.064 379.022 507.396 379.022V387.445H491.775V379.022C493.107 379.022 494.06 378.847 494.636 378.499C495.211 378.136 495.498 377.462 495.498 376.479V364.99C495.498 363.99 495.211 363.317 494.636 362.969C494.06 362.605 493.107 362.424 491.775 362.424V354H509.621L520.974 371.778V364.99C520.974 363.99 520.762 363.317 520.338 362.969C519.93 362.605 519.059 362.424 517.727 362.424V354H532.418Z" fill="#F6DF53"/>
<path d="M469.069 387.445V379.022C470.401 379.022 471.355 378.847 471.93 378.499C472.505 378.136 472.793 377.462 472.793 376.479V364.99C472.793 363.99 472.505 363.317 471.93 362.969C471.355 362.605 470.401 362.424 469.069 362.424V354H489.89V362.424C488.558 362.424 487.604 362.605 487.029 362.969C486.469 363.317 486.189 363.99 486.189 364.99V376.479C486.189 377.462 486.469 378.136 487.029 378.499C487.604 378.847 488.558 379.022 489.89 379.022V387.445H469.069Z" fill="#F6DF53"/>
<path d="M438.569 362L440.477 367.873L446.653 367.873L441.657 371.503L443.565 377.377L438.569 373.747L433.573 377.377L435.481 371.503L430.485 367.873L436.661 367.873L438.569 362Z" fill="#76A780"/>
<path d="M334.097 293.665C334.097 290.743 334.574 288.185 335.527 285.99C336.496 283.78 337.858 281.934 339.614 280.45C341.37 278.967 343.452 277.854 345.858 277.113C348.28 276.371 350.952 276 353.873 276C356.78 276 359.444 276.371 361.866 277.113C364.288 277.854 366.369 278.967 368.11 280.45C369.866 281.934 371.221 283.78 372.174 285.99C373.143 288.185 373.627 290.743 373.627 293.665C373.627 296.571 373.143 299.129 372.174 301.339C371.221 303.534 369.866 305.381 368.11 306.88C366.369 308.363 364.288 309.476 361.866 310.217C359.444 310.959 356.78 311.33 353.873 311.33C350.952 311.33 348.28 310.959 345.858 310.217C343.452 309.476 341.37 308.363 339.614 306.88C337.858 305.381 336.496 303.534 335.527 301.339C334.574 299.129 334.097 296.571 334.097 293.665ZM349.355 293.665C349.355 295.497 349.423 297.033 349.559 298.274C349.696 299.5 349.93 300.499 350.263 301.271C350.611 302.028 351.073 302.581 351.648 302.929C352.224 303.262 352.965 303.428 353.873 303.428C354.736 303.428 355.463 303.262 356.053 302.929C356.644 302.581 357.105 302.028 357.438 301.271C357.786 300.499 358.029 299.5 358.165 298.274C358.301 297.033 358.369 295.497 358.369 293.665C358.369 291.864 358.301 290.335 358.165 289.078C358.029 287.822 357.786 286.815 357.438 286.059C357.105 285.302 356.644 284.757 356.053 284.424C355.463 284.076 354.736 283.902 353.873 283.902C352.965 283.902 352.224 284.076 351.648 284.424C351.073 284.757 350.611 285.302 350.263 286.059C349.93 286.815 349.696 287.822 349.559 289.078C349.423 290.335 349.355 291.864 349.355 293.665Z" fill="#F6DF53"/>
<path d="M314.388 276C315.403 276 316.349 276.083 317.227 276.25C318.12 276.416 318.93 276.636 319.656 276.908C320.383 277.166 321.011 277.446 321.541 277.748C322.071 278.036 322.502 278.301 322.835 278.543V276.908H330.328V289.283H322.381C322.381 288.269 322.252 287.421 321.995 286.74C321.753 286.059 321.42 285.506 320.996 285.082C320.587 284.658 320.103 284.356 319.543 284.174C318.983 283.992 318.377 283.902 317.726 283.902C316.833 283.902 316.069 284.076 315.433 284.424C314.797 284.757 314.275 285.302 313.866 286.059C313.473 286.815 313.17 287.822 312.958 289.078C312.761 290.335 312.663 291.864 312.663 293.665C312.663 295.497 312.769 297.033 312.981 298.274C313.208 299.5 313.541 300.499 313.98 301.271C314.434 302.028 315.009 302.581 315.705 302.929C316.402 303.262 317.234 303.428 318.203 303.428C318.854 303.428 319.482 303.307 320.088 303.065C320.693 302.808 321.223 302.422 321.677 301.907C322.146 301.392 322.509 300.749 322.767 299.977C323.039 299.205 323.176 298.274 323.176 297.184H331.077C331.077 299.107 330.774 300.923 330.169 302.634C329.563 304.344 328.617 305.843 327.331 307.129C326.044 308.416 324.409 309.438 322.426 310.195C320.443 310.951 318.089 311.33 315.365 311.33C312.913 311.33 310.589 310.997 308.394 310.331C306.214 309.665 304.307 308.62 302.672 307.197C301.053 305.775 299.766 303.951 298.812 301.725C297.874 299.485 297.405 296.798 297.405 293.665C297.405 290.532 297.881 287.852 298.835 285.627C299.804 283.387 301.075 281.555 302.65 280.132C304.239 278.71 306.048 277.665 308.076 276.999C310.105 276.333 312.209 276 314.388 276Z" fill="#F6DF53"/>
<path d="M274.472 310.354V301.93C275.804 301.93 276.758 301.756 277.333 301.408C277.908 301.044 278.196 300.371 278.196 299.387V287.898C278.196 286.899 277.908 286.225 277.333 285.877C276.758 285.514 275.804 285.332 274.472 285.332V276.908H295.293V285.332C293.961 285.332 293.007 285.514 292.432 285.877C291.872 286.225 291.592 286.899 291.592 287.898V299.387C291.592 300.371 291.872 301.044 292.432 301.408C293.007 301.756 293.961 301.93 295.293 301.93V310.354H274.472Z" fill="#F6DF53"/>
<path d="M258.351 289.623L260.395 287.625C260.682 287.338 260.917 287.058 261.098 286.785C261.28 286.498 261.348 286.255 261.303 286.059C261.257 285.862 261.068 285.695 260.735 285.559C260.417 285.408 259.903 285.332 259.191 285.332V276.908H272.406V285.332C271.437 285.332 270.567 285.529 269.795 285.922C269.023 286.301 268.183 286.959 267.274 287.898L261.984 293.234L268.16 299.387C268.871 300.068 269.621 300.666 270.408 301.18C271.21 301.68 272.012 301.93 272.814 301.93V310.354H253.787V301.93C254.438 301.93 254.922 301.862 255.24 301.725C255.573 301.589 255.763 301.423 255.808 301.226C255.869 301.014 255.816 300.772 255.649 300.499C255.498 300.212 255.286 299.932 255.013 299.659L252.811 297.525L250.586 299.659C250.313 299.932 250.079 300.212 249.882 300.499C249.7 300.772 249.632 301.014 249.677 301.226C249.723 301.423 249.905 301.589 250.222 301.725C250.555 301.862 251.078 301.93 251.789 301.93V310.354H238.597V301.93C239.551 301.93 240.414 301.741 241.186 301.362C241.973 300.969 242.813 300.31 243.706 299.387L249.155 293.847L243.184 287.898C242.472 287.217 241.761 286.619 241.049 286.104C240.338 285.589 239.581 285.332 238.779 285.332V276.908H257.329V285.332C256.678 285.332 256.202 285.408 255.899 285.559C255.611 285.695 255.452 285.862 255.422 286.059C255.392 286.255 255.467 286.498 255.649 286.785C255.846 287.058 256.08 287.338 256.353 287.625L258.351 289.623Z" fill="#F6DF53"/>
<path d="M225.791 301.93C226.412 301.93 226.927 301.877 227.335 301.771C227.759 301.665 228.092 301.468 228.334 301.18C228.592 300.878 228.766 300.469 228.857 299.954C228.947 299.44 228.993 298.781 228.993 297.979H236.94V310.354H204.584V301.93C205.916 301.93 206.87 301.756 207.445 301.408C208.02 301.044 208.308 300.371 208.308 299.387V287.898C208.308 286.899 208.02 286.225 207.445 285.877C206.87 285.514 205.916 285.332 204.584 285.332V276.908H236.94V289.283H228.993C228.993 288.48 228.947 287.822 228.857 287.307C228.766 286.793 228.592 286.392 228.334 286.104C228.092 285.816 227.759 285.62 227.335 285.514C226.927 285.393 226.412 285.332 225.791 285.332H221.704V291.372H228.947V295.391H221.704V301.93H225.791Z" fill="#F6DF53"/>
<path d="M182.605 310.354V301.93C183.937 301.93 184.808 301.756 185.216 301.408C185.64 301.044 185.852 300.371 185.852 299.387V286.354L178.087 310.354H169.345L161.444 287.625V299.659C161.444 300.159 161.489 300.56 161.58 300.863C161.671 301.15 161.83 301.377 162.057 301.544C162.299 301.71 162.632 301.816 163.056 301.862C163.495 301.907 164.04 301.93 164.691 301.93V310.354H150V301.93C151.332 301.93 152.286 301.756 152.861 301.408C153.436 301.044 153.724 300.371 153.724 299.387V287.898C153.724 286.899 153.436 286.225 152.861 285.877C152.286 285.514 151.332 285.332 150 285.332V276.908H171.616L176.838 292.598L181.379 276.908H202.722V285.332C201.39 285.332 200.437 285.514 199.861 285.877C199.301 286.225 199.021 286.899 199.021 287.898V299.387C199.021 300.371 199.301 301.044 199.861 301.408C200.437 301.756 201.39 301.93 202.722 301.93V310.354H182.605Z" fill="#F6DF53"/>
<path d="M534.141 298.274H526.966L526.648 299.251C526.406 299.901 526.421 300.446 526.694 300.885C526.966 301.309 527.541 301.521 528.419 301.521H529.714V309.945H515.568V301.521H516.499C517.589 301.521 518.315 301.309 518.679 300.885C519.057 300.446 519.42 299.811 519.769 298.978L524.423 287.489C524.756 286.611 524.809 285.968 524.582 285.559C524.37 285.135 523.712 284.923 522.607 284.923H522.13V276.5H545.471V284.923H545.017C543.897 284.923 543.223 285.143 542.996 285.582C542.784 286.021 542.853 286.656 543.201 287.489L547.855 298.978C548.037 299.402 548.196 299.773 548.332 300.091C548.484 300.393 548.665 300.658 548.877 300.885C549.089 301.097 549.369 301.256 549.717 301.362C550.08 301.468 550.542 301.521 551.102 301.521H552.033V309.945H531.394V301.521H532.643C533.505 301.521 534.081 301.309 534.368 300.885C534.671 300.446 534.701 299.901 534.459 299.251L534.141 298.274ZM528.124 294.732H532.96L530.69 287.761H530.508L528.124 294.732Z" fill="#F6DF53"/>
<path d="M512.866 288.647H505.373C505.252 287.875 504.98 287.156 504.556 286.49C504.147 285.824 503.64 285.249 503.035 284.764C502.429 284.28 501.755 283.909 501.014 283.652C500.272 283.379 499.508 283.243 498.72 283.243C497.767 283.243 496.995 283.425 496.404 283.788C495.814 284.151 495.519 284.658 495.519 285.309C495.519 285.93 495.784 286.437 496.314 286.831C496.843 287.209 497.54 287.542 498.403 287.83C499.265 288.102 500.249 288.367 501.354 288.624C502.459 288.882 503.579 289.2 504.715 289.578C505.865 289.956 506.993 290.418 508.098 290.963C509.203 291.493 510.187 292.182 511.05 293.029C511.912 293.862 512.609 294.883 513.139 296.094C513.668 297.305 513.933 298.759 513.933 300.454C513.933 302.255 513.547 303.792 512.775 305.063C512.003 306.335 510.966 307.379 509.665 308.197C508.363 309.014 506.864 309.612 505.169 309.99C503.474 310.369 501.718 310.558 499.901 310.558C498.13 310.558 496.435 310.354 494.815 309.945C493.211 309.536 491.568 308.87 489.888 307.947V309.945H482.395V297.57H489.888C490.327 299.341 491.205 300.742 492.522 301.771C493.839 302.785 495.322 303.292 496.972 303.292C498.077 303.292 498.902 303.088 499.447 302.679C499.992 302.255 500.264 301.778 500.264 301.249C500.264 300.416 499.81 299.773 498.902 299.319C498.009 298.865 496.896 298.463 495.564 298.115C494.232 297.752 492.772 297.351 491.182 296.912C489.608 296.458 488.155 295.814 486.823 294.982C485.491 294.134 484.371 293.022 483.462 291.644C482.569 290.267 482.123 288.465 482.123 286.24C482.123 284.59 482.478 283.13 483.19 281.858C483.901 280.587 484.855 279.519 486.051 278.657C487.247 277.779 488.624 277.12 490.183 276.681C491.757 276.227 493.415 276 495.156 276C497.562 276 499.629 276.28 501.354 276.84C503.08 277.4 504.42 277.991 505.373 278.611V276.5H512.866V288.647Z" fill="#F6DF53"/>
<path d="M463.254 276.5V284.923C462.104 284.923 461.302 285.105 460.848 285.468C460.409 285.816 460.189 286.399 460.189 287.217V297.707C460.189 298.267 460.25 298.804 460.371 299.319C460.492 299.833 460.696 300.295 460.984 300.704C461.287 301.097 461.68 301.415 462.164 301.657C462.664 301.884 463.292 301.998 464.049 301.998C465.502 301.998 466.562 301.619 467.228 300.863C467.894 300.091 468.227 299.054 468.227 297.752V287.307C468.227 286.369 467.947 285.741 467.387 285.423C466.827 285.09 466.055 284.923 465.071 284.923V276.5H480.034V284.923C479.02 284.923 478.24 285.075 477.695 285.377C477.15 285.665 476.878 286.278 476.878 287.217V298.047C476.878 299.44 476.696 300.893 476.333 302.407C475.985 303.905 475.288 305.283 474.244 306.539C473.215 307.78 471.739 308.817 469.816 309.65C467.894 310.467 465.351 310.876 462.187 310.876C459.886 310.876 457.903 310.664 456.238 310.24C454.588 309.831 453.188 309.286 452.038 308.605C450.887 307.924 449.972 307.152 449.29 306.289C448.609 305.411 448.079 304.511 447.701 303.587C447.338 302.649 447.096 301.741 446.974 300.863C446.853 299.97 446.793 299.152 446.793 298.41V287.489C446.793 286.49 446.505 285.816 445.93 285.468C445.355 285.105 444.401 284.923 443.069 284.923V276.5H463.254Z" fill="#F6DF53"/>
<path d="M874.736 287.898C874.388 287.55 874.093 287.224 873.85 286.921C873.608 286.603 873.343 286.331 873.056 286.104C872.783 285.877 872.45 285.695 872.057 285.559C871.663 285.408 871.156 285.332 870.535 285.332V276.908H890.494V285.332C889.162 285.332 888.276 285.551 887.837 285.99C887.413 286.429 887.428 286.974 887.882 287.625L891.016 291.985H891.197L894.308 287.625C894.838 287.035 894.891 286.505 894.467 286.036C894.058 285.567 893.135 285.332 891.697 285.332V276.908H905.366V285.332C904.912 285.332 904.511 285.377 904.162 285.468C903.829 285.559 903.511 285.71 903.209 285.922C902.921 286.119 902.618 286.384 902.301 286.717C901.998 287.035 901.627 287.428 901.188 287.898L894.671 295.89V299.387C894.671 300.371 894.959 301.044 895.534 301.408C896.109 301.756 897.063 301.93 898.395 301.93V310.354H877.574V301.93C878.906 301.93 879.86 301.756 880.435 301.408C881.01 301.044 881.298 300.371 881.298 299.387V295.89L874.736 287.898Z" fill="#F6DF53"/>
<path d="M869.604 276.908V285.332C868.272 285.332 867.394 285.551 866.971 285.99C866.562 286.429 866.358 287.065 866.358 287.898V310.354H852.711L840.859 291.803V299.659C840.859 300.643 841.147 301.271 841.722 301.544C842.297 301.801 843.251 301.93 844.583 301.93V310.354H828.961V301.93C830.293 301.93 831.247 301.756 831.822 301.408C832.398 301.044 832.685 300.371 832.685 299.387V287.898C832.685 286.899 832.398 286.225 831.822 285.877C831.247 285.514 830.293 285.332 828.961 285.332V276.908H846.808L858.161 294.687V287.898C858.161 286.899 857.949 286.225 857.525 285.877C857.116 285.514 856.246 285.332 854.914 285.332V276.908H869.604Z" fill="#F6DF53"/>
<path d="M809.639 298.683H802.464L802.146 299.659C801.904 300.31 801.919 300.855 802.192 301.294C802.464 301.718 803.039 301.93 803.917 301.93H805.212V310.354H791.066V301.93H791.997C793.087 301.93 793.813 301.718 794.177 301.294C794.555 300.855 794.918 300.219 795.266 299.387L799.921 287.898C800.254 287.02 800.307 286.376 800.08 285.968C799.868 285.544 799.21 285.332 798.105 285.332H797.628V276.908H820.969V285.332H820.515C819.395 285.332 818.721 285.551 818.494 285.99C818.282 286.429 818.35 287.065 818.699 287.898L823.353 299.387C823.535 299.811 823.694 300.181 823.83 300.499C823.981 300.802 824.163 301.067 824.375 301.294C824.587 301.506 824.867 301.665 825.215 301.771C825.578 301.877 826.04 301.93 826.6 301.93H827.531V310.354H806.892V301.93H808.141C809.003 301.93 809.579 301.718 809.866 301.294C810.169 300.855 810.199 300.31 809.957 299.659L809.639 298.683ZM803.622 295.141H808.458L806.188 288.17H806.006L803.622 295.141Z" fill="#F6DF53"/>
<path d="M769.564 310.354V301.93C770.896 301.93 771.766 301.756 772.175 301.408C772.599 301.044 772.811 300.371 772.811 299.387V286.354L765.045 310.354H756.304L748.402 287.625V299.659C748.402 300.159 748.448 300.56 748.538 300.863C748.629 301.15 748.788 301.377 749.015 301.544C749.257 301.71 749.59 301.816 750.014 301.862C750.453 301.907 750.998 301.93 751.649 301.93V310.354H736.958V301.93C738.291 301.93 739.244 301.756 739.819 301.408C740.395 301.044 740.682 300.371 740.682 299.387V287.898C740.682 286.899 740.395 286.225 739.819 285.877C739.244 285.514 738.291 285.332 736.958 285.332V276.908H758.574L763.797 292.598L768.338 276.908H789.681V285.332C788.349 285.332 787.395 285.514 786.82 285.877C786.26 286.225 785.98 286.899 785.98 287.898V299.387C785.98 300.371 786.26 301.044 786.82 301.408C787.395 301.756 788.349 301.93 789.681 301.93V310.354H769.564Z" fill="#F6DF53"/>
<path d="M696.27 310.354V301.93C697.602 301.93 698.556 301.756 699.131 301.408C699.706 301.044 699.994 300.371 699.994 299.387V287.898C699.994 286.899 699.706 286.225 699.131 285.877C698.556 285.514 697.602 285.332 696.27 285.332V276.908H720.315C722.54 276.908 724.41 277.128 725.924 277.567C727.452 278.006 728.671 278.634 729.579 279.451C730.502 280.269 731.153 281.245 731.532 282.38C731.925 283.516 732.122 284.779 732.122 286.172C732.122 288.715 731.509 290.751 730.283 292.28C729.057 293.794 727.097 294.611 724.402 294.732V295.005C725.704 295.095 726.779 295.338 727.626 295.731C728.489 296.125 729.163 296.639 729.647 297.275C730.147 297.896 730.495 298.653 730.692 299.546C730.904 300.424 731.01 301.423 731.01 302.543V303.746C731.01 304.125 731.108 304.458 731.305 304.745C731.502 305.018 731.804 305.154 732.213 305.154C732.652 305.154 732.962 305.018 733.144 304.745C733.326 304.458 733.416 304.125 733.416 303.746V297.979H736.028V303.746C736.028 304.836 735.861 305.843 735.528 306.766C735.21 307.674 734.68 308.469 733.939 309.15C733.197 309.831 732.221 310.354 731.01 310.717C729.799 311.095 728.308 311.284 726.537 311.284C724.766 311.284 723.312 311.088 722.177 310.694C721.057 310.316 720.179 309.786 719.543 309.105C718.907 308.424 718.461 307.636 718.204 306.743C717.961 305.835 717.84 304.881 717.84 303.882V302.134C717.84 300.923 717.772 299.947 717.636 299.205C717.5 298.448 717.273 297.865 716.955 297.457C716.652 297.033 716.251 296.753 715.751 296.617C715.252 296.48 714.646 296.412 713.935 296.412H713.39V299.659C713.39 300.461 713.61 301.044 714.049 301.408C714.503 301.756 715.305 301.93 716.455 301.93V310.354H696.27ZM713.39 292.393H715.388C716.66 292.393 717.53 292.091 717.999 291.485C718.484 290.865 718.726 290.009 718.726 288.919C718.726 287.648 718.484 286.732 717.999 286.172C717.53 285.612 716.66 285.332 715.388 285.332H713.39V292.393Z" fill="#F6DF53"/>
<path d="M683.237 301.93C683.858 301.93 684.372 301.877 684.781 301.771C685.205 301.665 685.538 301.468 685.78 301.18C686.037 300.878 686.211 300.469 686.302 299.954C686.393 299.44 686.439 298.781 686.439 297.979H694.385V310.354H662.03V301.93C663.362 301.93 664.316 301.756 664.891 301.408C665.466 301.044 665.754 300.371 665.754 299.387V287.898C665.754 286.899 665.466 286.225 664.891 285.877C664.316 285.514 663.362 285.332 662.03 285.332V276.908H694.385V289.283H686.439C686.439 288.48 686.393 287.822 686.302 287.307C686.211 286.793 686.037 286.392 685.78 286.104C685.538 285.816 685.205 285.62 684.781 285.514C684.372 285.393 683.858 285.332 683.237 285.332H679.15V291.372H686.393V295.391H679.15V301.93H683.237Z" fill="#F6DF53"/>
<path d="M649.474 310.354L648.725 308.083C647.771 308.946 646.454 309.703 644.774 310.354C643.109 311.004 641.186 311.33 639.007 311.33C636.554 311.33 634.238 310.997 632.059 310.331C629.879 309.665 627.972 308.62 626.337 307.197C624.717 305.775 623.43 303.951 622.477 301.725C621.538 299.485 621.069 296.798 621.069 293.665C621.069 290.532 621.569 287.852 622.568 285.627C623.582 283.387 624.906 281.555 626.541 280.132C628.191 278.71 630.053 277.665 632.127 276.999C634.2 276.333 636.327 276 638.507 276C639.778 276 640.921 276.098 641.936 276.295C642.965 276.492 643.866 276.742 644.637 277.044C645.409 277.332 646.06 277.642 646.59 277.975C647.12 278.293 647.551 278.558 647.884 278.77V276.908H655.377V289.283H647.43C647.37 287.678 646.885 286.384 645.977 285.4C645.084 284.401 643.835 283.902 642.231 283.902C641.413 283.902 640.649 284.053 639.937 284.356C639.226 284.643 638.598 285.158 638.053 285.9C637.508 286.641 637.077 287.64 636.759 288.897C636.456 290.153 636.305 291.743 636.305 293.665C636.305 295.497 636.403 297.033 636.6 298.274C636.812 299.5 637.13 300.499 637.553 301.271C637.992 302.028 638.545 302.581 639.211 302.929C639.877 303.262 640.679 303.428 641.618 303.428C641.83 303.428 642.094 303.406 642.412 303.36C642.745 303.315 643.056 303.239 643.343 303.133C643.646 303.012 643.903 302.861 644.115 302.679C644.342 302.497 644.456 302.248 644.456 301.93V300.681C644.456 299.97 644.214 299.432 643.729 299.069C643.245 298.69 642.337 298.501 641.005 298.501V291.008H660.168V298.501C658.836 298.501 657.882 298.683 657.307 299.046C656.732 299.394 656.444 300.06 656.444 301.044V310.354H649.474Z" fill="#F6DF53"/>
<path d="M408.569 285L410.477 290.873L416.653 290.873L411.657 294.503L413.565 300.377L408.569 296.747L403.573 300.377L405.481 294.503L400.485 290.873L406.661 290.873L408.569 285Z" fill="#76A780"/>
<path d="M586.569 285L588.477 290.873L594.653 290.873L589.657 294.503L591.565 300.377L586.569 296.747L581.573 300.377L583.481 294.503L578.485 290.873L584.661 290.873L586.569 285Z" fill="#76A780"/>
<path fill-rule="evenodd" clip-rule="evenodd" d="M1439.83 3C1439.83 3 1439.83 3 1439.83 3C1257.67 3 1110 150.668 1110 332.826C1110 514.984 1257.67 662.652 1439.83 662.652C1439.83 662.652 1439.83 662.652 1439.83 662.652V3Z" fill="#D9D9D9" fill-opacity="0.3"/>
</svg>
