<svg width="715" height="64" viewBox="0 0 715 64" fill="none" xmlns="http://www.w3.org/2000/svg">
<rect width="715" height="64" fill="#D9D9D9"/>
<path d="M402.891 46V20.08H406.507V32.304L412.459 20.08H415.819L410.699 31.504L416.651 46H413.131L408.171 33.84L406.507 36.848V46H402.891Z" fill="black"/>
<path d="M386.297 46V20.08H391.513C393.241 20.08 394.671 20.3147 395.801 20.784C396.932 21.232 397.764 21.968 398.297 22.992C398.852 23.9947 399.129 25.3173 399.129 26.96C399.129 27.9627 399.023 28.88 398.809 29.712C398.596 30.5227 398.255 31.216 397.785 31.792C397.316 32.3467 396.697 32.752 395.929 33.008L399.609 46H396.121L392.729 33.84H389.913V46H386.297ZM389.913 31.248H391.289C392.313 31.248 393.145 31.12 393.785 30.864C394.425 30.608 394.895 30.1707 395.193 29.552C395.492 28.9333 395.641 28.0693 395.641 26.96C395.641 25.4453 395.364 24.3573 394.809 23.696C394.255 23.0133 393.156 22.672 391.513 22.672H389.913V31.248Z" fill="black"/>
<path d="M375.671 46.288C373.922 46.288 372.525 45.9467 371.479 45.264C370.434 44.5813 369.687 43.6107 369.239 42.352C368.791 41.072 368.567 39.5787 368.567 37.872V28.048C368.567 26.3413 368.791 24.88 369.239 23.664C369.709 22.4267 370.455 21.488 371.479 20.848C372.525 20.1867 373.922 19.856 375.671 19.856C377.421 19.856 378.807 20.1867 379.831 20.848C380.855 21.5093 381.591 22.448 382.039 23.664C382.509 24.88 382.743 26.3413 382.743 28.048V37.904C382.743 39.5893 382.509 41.0613 382.039 42.32C381.591 43.5787 380.855 44.56 379.831 45.264C378.807 45.9467 377.421 46.288 375.671 46.288ZM375.671 43.44C376.631 43.44 377.357 43.248 377.847 42.864C378.338 42.4587 378.669 41.904 378.839 41.2C379.01 40.4747 379.095 39.632 379.095 38.672V27.312C379.095 26.352 379.01 25.5307 378.839 24.848C378.669 24.144 378.338 23.6107 377.847 23.248C377.357 22.864 376.631 22.672 375.671 22.672C374.711 22.672 373.975 22.864 373.463 23.248C372.973 23.6107 372.642 24.144 372.471 24.848C372.301 25.5307 372.215 26.352 372.215 27.312V38.672C372.215 39.632 372.301 40.4747 372.471 41.2C372.642 41.904 372.973 42.4587 373.463 42.864C373.975 43.248 374.711 43.44 375.671 43.44Z" fill="black"/>
<path d="M349.126 46L344.902 20.08H347.91L350.694 38.704L354.182 20.176H356.742L360.262 38.8L362.982 20.08H365.926L361.766 46H359.142L355.526 26.8L351.878 46H349.126Z" fill="black"/>
<path d="M327.015 46V36.848L321.415 20.08H324.775L328.743 32.592L332.647 20.08H336.039L330.471 36.848V46H327.015Z" fill="black"/>
<path d="M301.952 46L302.432 20.08H305.984L310.56 41.104L315.168 20.08H318.688L319.168 46H316.256L315.968 27.184L311.584 46H309.536L305.184 27.184L304.896 46H301.952Z" fill="black"/>
</svg>
