<svg width="1440" height="130" viewBox="0 0 1440 130" fill="none" xmlns="http://www.w3.org/2000/svg">
<rect width="1440" height="130" fill="#C97840"/>
<path d="M1091.77 72.5C1091.77 71.7708 1091.91 71.0872 1092.18 70.4492C1092.45 69.7982 1092.83 69.2383 1093.31 68.7695C1093.79 68.2878 1094.35 67.9102 1094.99 67.6367C1095.63 67.3633 1096.31 67.2266 1097.04 67.2266C1097.76 67.2266 1098.44 67.3633 1099.07 67.6367C1099.71 67.9102 1100.27 68.2878 1100.75 68.7695C1101.24 69.2383 1101.61 69.7982 1101.89 70.4492C1102.16 71.0872 1102.3 71.7708 1102.3 72.5C1102.3 73.2292 1102.16 73.9128 1101.89 74.5508C1101.61 75.1758 1101.24 75.7292 1100.75 76.2109C1100.27 76.6927 1099.71 77.0703 1099.07 77.3438C1098.44 77.6172 1097.76 77.7539 1097.04 77.7539C1096.31 77.7539 1095.63 77.6172 1094.99 77.3438C1094.35 77.0703 1093.79 76.6927 1093.31 76.2109C1092.83 75.7292 1092.45 75.1758 1092.18 74.5508C1091.91 73.9128 1091.77 73.2292 1091.77 72.5Z" fill="#3D3D3D"/>
<path d="M1068.78 56.6797H1065.36V55.2734H1068.78C1070.1 55.2734 1071.27 55.0521 1072.32 54.6094C1073.37 54.1536 1074.26 53.5677 1074.99 52.8516C1075.73 52.1224 1076.3 51.3086 1076.69 50.4102C1077.08 49.5117 1077.28 48.6133 1077.28 47.7148H1080.4V55.2734H1086.69V56.6797H1080.4V68.7109C1080.4 70.1042 1080.47 71.2435 1080.62 72.1289C1080.77 73.0013 1080.99 73.6849 1081.26 74.1797C1081.55 74.6745 1081.88 75.013 1082.26 75.1953C1082.65 75.3646 1083.08 75.4492 1083.55 75.4492C1084 75.4492 1084.45 75.3516 1084.88 75.1562C1085.3 74.9479 1085.68 74.6224 1086.01 74.1797C1086.33 73.724 1086.59 73.138 1086.79 72.4219C1086.98 71.6927 1087.08 70.8008 1087.08 69.7461C1087.08 69.4987 1087.08 69.2448 1087.06 68.9844C1087.05 68.7109 1087.03 68.431 1087 68.1445H1088.64C1088.68 68.7956 1088.7 69.388 1088.7 69.9219C1088.7 71.5495 1088.48 72.8776 1088.02 73.9062C1087.58 74.9219 1086.94 75.7161 1086.11 76.2891C1085.27 76.862 1084.26 77.2526 1083.06 77.4609C1081.87 77.6693 1080.54 77.7734 1079.05 77.7734C1077.39 77.7734 1075.92 77.6107 1074.64 77.2852C1073.36 76.9596 1072.29 76.4453 1071.42 75.7422C1070.55 75.026 1069.89 74.1081 1069.45 72.9883C1069 71.8685 1068.78 70.5078 1068.78 68.9062V56.6797Z" fill="#3D3D3D"/>
<path d="M1036.85 68.4961H1038.29C1038.85 69.4857 1039.63 70.4362 1040.62 71.3477C1041.61 72.2461 1042.72 73.0469 1043.96 73.75C1045.21 74.4401 1046.53 74.9935 1047.92 75.4102C1049.32 75.8268 1050.7 76.0352 1052.08 76.0352C1052.65 76.0352 1053.21 76.0091 1053.74 75.957C1054.28 75.8919 1054.74 75.7812 1055.15 75.625C1055.55 75.4557 1055.87 75.2344 1056.11 74.9609C1056.35 74.6875 1056.48 74.3359 1056.48 73.9062C1056.48 73.4635 1056.27 73.099 1055.87 72.8125C1055.48 72.513 1054.95 72.2656 1054.27 72.0703C1053.59 71.875 1052.81 71.7122 1051.93 71.582C1051.05 71.4518 1050.14 71.3216 1049.19 71.1914C1047.47 70.9701 1045.86 70.6771 1044.37 70.3125C1042.87 69.9479 1041.57 69.4466 1040.46 68.8086C1039.35 68.1706 1038.48 67.3633 1037.84 66.3867C1037.22 65.4102 1036.91 64.1992 1036.91 62.7539C1036.91 61.4258 1037.2 60.2539 1037.79 59.2383C1038.38 58.2096 1039.21 57.3503 1040.27 56.6602C1041.32 55.957 1042.57 55.4297 1044.02 55.0781C1045.46 54.7135 1047.04 54.5312 1048.74 54.5312C1049.55 54.5312 1050.36 54.6094 1051.18 54.7656C1052.02 54.9219 1052.82 55.1302 1053.59 55.3906C1054.37 55.638 1055.1 55.931 1055.79 56.2695C1056.5 56.5951 1057.13 56.9271 1057.69 57.2656L1060.3 54.7656H1061.93V62.4609H1060.54C1060.01 61.5625 1059.33 60.7292 1058.51 59.9609C1057.7 59.1927 1056.78 58.5286 1055.75 57.9688C1054.73 57.4089 1053.61 56.9727 1052.41 56.6602C1051.22 56.3346 1049.97 56.1719 1048.66 56.1719C1048.03 56.1719 1047.44 56.2044 1046.91 56.2695C1046.37 56.3346 1045.91 56.4388 1045.52 56.582C1045.13 56.7253 1044.82 56.9141 1044.6 57.1484C1044.39 57.3828 1044.29 57.6628 1044.29 57.9883C1044.29 58.431 1044.45 58.7956 1044.78 59.082C1045.1 59.3685 1045.58 59.6224 1046.22 59.8438C1046.87 60.0521 1047.67 60.2409 1048.62 60.4102C1049.58 60.5794 1050.68 60.7617 1051.95 60.957C1053.55 61.2174 1055.04 61.5365 1056.42 61.9141C1057.8 62.2917 1058.99 62.806 1059.99 63.457C1061.01 64.1081 1061.8 64.9349 1062.38 65.9375C1062.96 66.9401 1063.25 68.2031 1063.25 69.7266C1063.25 70.9635 1063.01 72.0833 1062.53 73.0859C1062.06 74.0755 1061.36 74.9154 1060.42 75.6055C1059.5 76.2956 1058.35 76.8229 1056.98 77.1875C1055.62 77.5651 1054.05 77.7539 1052.28 77.7539C1051.44 77.7539 1050.55 77.6693 1049.58 77.5C1048.62 77.3438 1047.66 77.1159 1046.71 76.8164C1045.77 76.5039 1044.88 76.1328 1044.04 75.7031C1043.19 75.2604 1042.47 74.7656 1041.89 74.2188L1038.47 77.4609H1036.85V68.4961Z" fill="#3D3D3D"/>
<path d="M1001.03 71.8945C1001.03 70.8919 1001.22 70.0326 1001.59 69.3164C1001.97 68.5872 1002.51 67.9753 1003.2 67.4805C1003.89 66.9727 1004.71 66.569 1005.68 66.2695C1006.64 65.957 1007.71 65.7161 1008.88 65.5469C1010.06 65.3776 1011.33 65.2669 1012.69 65.2148C1014.04 65.1497 1015.45 65.1172 1016.91 65.1172V64.0234C1016.91 62.3568 1016.79 61.0221 1016.55 60.0195C1016.33 59.0169 1015.99 58.2487 1015.52 57.7148C1015.06 57.181 1014.5 56.8359 1013.82 56.6797C1013.14 56.5104 1012.36 56.4258 1011.46 56.4258C1010.98 56.4258 1010.46 56.4648 1009.91 56.543C1009.38 56.6211 1008.9 56.7122 1008.49 56.8164C1009.09 56.8815 1009.64 57.0312 1010.15 57.2656C1010.66 57.5 1011.09 57.793 1011.46 58.1445C1011.82 58.4961 1012.1 58.8867 1012.3 59.3164C1012.51 59.7461 1012.61 60.1823 1012.61 60.625C1012.61 61.1719 1012.47 61.6862 1012.2 62.168C1011.93 62.6497 1011.55 63.0729 1011.07 63.4375C1010.58 63.7891 1010.02 64.069 1009.39 64.2773C1008.75 64.4857 1008.07 64.5898 1007.34 64.5898C1006.61 64.5898 1005.92 64.4857 1005.29 64.2773C1004.66 64.069 1004.11 63.7891 1003.62 63.4375C1003.16 63.0729 1002.79 62.6497 1002.51 62.168C1002.24 61.6862 1002.1 61.1719 1002.1 60.625C1002.1 59.8958 1002.3 59.2383 1002.69 58.6523C1003.09 58.0664 1003.63 57.5521 1004.31 57.1094C1005 56.6536 1005.81 56.263 1006.73 55.9375C1007.67 55.612 1008.67 55.3451 1009.74 55.1367C1010.81 54.9284 1011.91 54.7786 1013.06 54.6875C1014.22 54.5833 1015.37 54.5312 1016.52 54.5312C1018.55 54.5312 1020.31 54.6745 1021.81 54.9609C1023.32 55.2344 1024.57 55.7292 1025.56 56.4453C1026.56 57.1484 1027.31 58.1185 1027.8 59.3555C1028.3 60.5794 1028.55 62.1354 1028.55 64.0234V72.207C1028.55 73.1836 1028.64 73.9388 1028.84 74.4727C1029.05 74.9935 1029.43 75.2539 1029.97 75.2539C1030.25 75.2539 1030.47 75.1693 1030.64 75C1030.82 74.8177 1030.96 74.5833 1031.05 74.2969C1031.15 74.0104 1031.22 73.6784 1031.26 73.3008C1031.3 72.9232 1031.32 72.5391 1031.32 72.1484V70.2148H1033.06V72.1484C1033.06 73.1901 1032.92 74.069 1032.65 74.7852C1032.39 75.5013 1031.93 76.0807 1031.26 76.5234C1030.61 76.9661 1029.73 77.2786 1028.62 77.4609C1027.53 77.6562 1026.15 77.7539 1024.48 77.7539C1023.64 77.7539 1022.84 77.7083 1022.1 77.6172C1021.37 77.526 1020.7 77.3698 1020.09 77.1484C1019.49 76.9271 1018.97 76.6341 1018.53 76.2695C1018.08 75.9049 1017.73 75.4492 1017.47 74.9023C1017.08 75.5013 1016.56 75.9896 1015.91 76.3672C1015.26 76.7318 1014.56 77.0182 1013.8 77.2266C1013.05 77.4349 1012.28 77.5716 1011.52 77.6367C1010.75 77.7148 1010.04 77.7539 1009.41 77.7539C1007.88 77.7539 1006.59 77.5911 1005.52 77.2656C1004.45 76.9531 1003.59 76.5299 1002.92 75.9961C1002.26 75.4622 1001.78 74.8438 1001.48 74.1406C1001.18 73.4245 1001.03 72.6758 1001.03 71.8945ZM1012.3 71.6797C1012.3 72.6432 1012.47 73.4245 1012.82 74.0234C1013.18 74.6094 1013.76 74.9023 1014.56 74.9023C1015.24 74.9023 1015.8 74.6615 1016.24 74.1797C1016.68 73.6849 1016.91 73.0273 1016.91 72.207V66.9141C1015.97 66.9141 1015.2 66.9987 1014.6 67.168C1014 67.3372 1013.53 67.6107 1013.18 67.9883C1012.84 68.3529 1012.6 68.8411 1012.47 69.4531C1012.36 70.0651 1012.3 70.8073 1012.3 71.6797Z" fill="#3D3D3D"/>
<path d="M976.867 75.6055H980.305V58.5352H976.867V57.1289H980.305V55.5859C980.305 52.5 981.177 50.2539 982.922 48.8477C984.667 47.4414 987.245 46.7383 990.656 46.7383C991.151 46.7383 991.724 46.7708 992.375 46.8359C993.026 46.901 993.69 47.0117 994.367 47.168C995.057 47.3242 995.734 47.5326 996.398 47.793C997.076 48.0534 997.674 48.3789 998.195 48.7695C998.716 49.1471 999.139 49.6029 999.465 50.1367C999.79 50.6576 999.953 51.2565 999.953 51.9336C999.953 52.4414 999.836 52.9232 999.602 53.3789C999.367 53.8216 999.035 54.2122 998.605 54.5508C998.189 54.8763 997.694 55.1367 997.121 55.332C996.548 55.5273 995.93 55.625 995.266 55.625C994.589 55.625 993.964 55.5273 993.391 55.332C992.818 55.1367 992.323 54.8763 991.906 54.5508C991.49 54.2122 991.164 53.8216 990.93 53.3789C990.695 52.9232 990.578 52.4414 990.578 51.9336C990.578 51.4909 990.669 51.0742 990.852 50.6836C991.034 50.2799 991.288 49.9219 991.613 49.6094C991.939 49.2839 992.329 49.0104 992.785 48.7891C993.241 48.5677 993.742 48.4115 994.289 48.3203C993.664 48.1641 993.046 48.0859 992.434 48.0859C991.926 48.0859 991.444 48.1576 990.988 48.3008C990.546 48.431 990.155 48.6523 989.816 48.9648C989.491 49.2643 989.23 49.668 989.035 50.1758C988.84 50.6706 988.742 51.2826 988.742 52.0117C988.742 52.4935 988.82 52.9688 988.977 53.4375C989.133 53.9062 989.328 54.362 989.562 54.8047C989.81 55.2344 990.077 55.651 990.363 56.0547C990.65 56.4453 990.923 56.8034 991.184 57.1289H995.754V58.5352H991.926V75.6055H995.324V77.0117H976.867V75.6055Z" fill="#3D3D3D"/>
<path d="M941.359 75.6055H944.777V48.8867H941.359V47.4805H956.398V65.5664C956.763 65.2279 957.199 64.8177 957.707 64.3359C958.215 63.8411 958.749 63.3268 959.309 62.793C959.868 62.2461 960.422 61.6992 960.969 61.1523C961.529 60.6055 962.036 60.1042 962.492 59.6484C962.948 59.1927 963.326 58.8021 963.625 58.4766C963.924 58.151 964.107 57.9362 964.172 57.832C964.211 57.7799 964.23 57.7409 964.23 57.7148C964.243 57.6758 964.25 57.6367 964.25 57.5977C964.25 57.4284 964.159 57.2852 963.977 57.168C963.807 57.0508 963.56 56.9596 963.234 56.8945C962.922 56.8164 962.544 56.7643 962.102 56.7383C961.672 56.6992 961.197 56.6797 960.676 56.6797V55.2734H972.551V56.6797C972.004 56.6797 971.464 56.6927 970.93 56.7188C970.409 56.7448 969.914 56.8034 969.445 56.8945C968.977 56.9727 968.54 57.0964 968.137 57.2656C967.746 57.4219 967.401 57.6367 967.102 57.9102C966.763 58.2096 966.34 58.6003 965.832 59.082C965.337 59.5638 964.79 60.0977 964.191 60.6836C963.592 61.2695 962.961 61.888 962.297 62.5391C961.646 63.1771 961.008 63.8151 960.383 64.4531C960.76 64.4271 961.132 64.4076 961.496 64.3945C961.861 64.3815 962.212 64.375 962.551 64.375C964.074 64.375 965.376 64.4792 966.457 64.6875C967.551 64.8958 968.443 65.2539 969.133 65.7617C969.836 66.2565 970.344 66.9206 970.656 67.7539C970.982 68.5742 971.145 69.5964 971.145 70.8203C971.145 70.9375 971.145 71.0417 971.145 71.1328C971.145 71.2109 971.145 71.3021 971.145 71.4062C971.145 71.4974 971.138 71.6146 971.125 71.7578C971.125 71.901 971.118 72.0833 971.105 72.3047C971.092 72.526 971.079 72.7083 971.066 72.8516C971.066 72.9948 971.066 73.1185 971.066 73.2227C971.066 73.3268 971.066 73.4245 971.066 73.5156C971.066 73.6068 971.066 73.7109 971.066 73.8281C971.066 74.1797 971.125 74.4792 971.242 74.7266C971.372 74.9609 971.581 75.0781 971.867 75.0781C972.062 75.0781 972.232 75.013 972.375 74.8828C972.518 74.7526 972.635 74.5378 972.727 74.2383C972.831 73.9258 972.902 73.5156 972.941 73.0078C972.993 72.5 973.02 71.8685 973.02 71.1133H974.66V71.7578C974.66 73.0469 974.517 74.0885 974.23 74.8828C973.944 75.6641 973.488 76.2695 972.863 76.6992C972.251 77.1289 971.451 77.4089 970.461 77.5391C969.484 77.6823 968.306 77.7539 966.926 77.7539C965.389 77.7539 964.139 77.6107 963.176 77.3242C962.225 77.0508 961.483 76.6406 960.949 76.0938C960.415 75.5469 960.051 74.8698 959.855 74.0625C959.673 73.2552 959.582 72.3242 959.582 71.2695C959.582 69.9674 959.51 68.9128 959.367 68.1055C959.224 67.2852 958.918 66.7188 958.449 66.4062C958.033 66.8359 957.642 67.2331 957.277 67.5977C956.926 67.9492 956.633 68.2552 956.398 68.5156V75.6055H958.84V77.0117H941.359V75.6055Z" fill="#3D3D3D"/>
<path d="M906.379 71.8945C906.379 70.8919 906.568 70.0326 906.945 69.3164C907.323 68.5872 907.857 67.9753 908.547 67.4805C909.237 66.9727 910.064 66.569 911.027 66.2695C911.991 65.957 913.059 65.7161 914.23 65.5469C915.415 65.3776 916.685 65.2669 918.039 65.2148C919.393 65.1497 920.799 65.1172 922.258 65.1172V64.0234C922.258 62.3568 922.141 61.0221 921.906 60.0195C921.685 59.0169 921.34 58.2487 920.871 57.7148C920.415 57.181 919.849 56.8359 919.172 56.6797C918.495 56.5104 917.707 56.4258 916.809 56.4258C916.327 56.4258 915.812 56.4648 915.266 56.543C914.732 56.6211 914.257 56.7122 913.84 56.8164C914.439 56.8815 914.992 57.0312 915.5 57.2656C916.008 57.5 916.444 57.793 916.809 58.1445C917.173 58.4961 917.453 58.8867 917.648 59.3164C917.857 59.7461 917.961 60.1823 917.961 60.625C917.961 61.1719 917.824 61.6862 917.551 62.168C917.277 62.6497 916.9 63.0729 916.418 63.4375C915.936 63.7891 915.376 64.069 914.738 64.2773C914.1 64.4857 913.417 64.5898 912.688 64.5898C911.958 64.5898 911.275 64.4857 910.637 64.2773C910.012 64.069 909.458 63.7891 908.977 63.4375C908.508 63.0729 908.137 62.6497 907.863 62.168C907.59 61.6862 907.453 61.1719 907.453 60.625C907.453 59.8958 907.648 59.2383 908.039 58.6523C908.443 58.0664 908.983 57.5521 909.66 57.1094C910.35 56.6536 911.158 56.263 912.082 55.9375C913.02 55.612 914.022 55.3451 915.09 55.1367C916.158 54.9284 917.264 54.7786 918.41 54.6875C919.569 54.5833 920.721 54.5312 921.867 54.5312C923.898 54.5312 925.663 54.6745 927.16 54.9609C928.671 55.2344 929.921 55.7292 930.91 56.4453C931.913 57.1484 932.661 58.1185 933.156 59.3555C933.651 60.5794 933.898 62.1354 933.898 64.0234V72.207C933.898 73.1836 933.996 73.9388 934.191 74.4727C934.4 74.9935 934.777 75.2539 935.324 75.2539C935.598 75.2539 935.819 75.1693 935.988 75C936.171 74.8177 936.307 74.5833 936.398 74.2969C936.503 74.0104 936.574 73.6784 936.613 73.3008C936.652 72.9232 936.672 72.5391 936.672 72.1484V70.2148H938.41V72.1484C938.41 73.1901 938.273 74.069 938 74.7852C937.74 75.5013 937.277 76.0807 936.613 76.5234C935.962 76.9661 935.083 77.2786 933.977 77.4609C932.883 77.6562 931.503 77.7539 929.836 77.7539C928.99 77.7539 928.195 77.7083 927.453 77.6172C926.724 77.526 926.053 77.3698 925.441 77.1484C924.842 76.9271 924.322 76.6341 923.879 76.2695C923.436 75.9049 923.085 75.4492 922.824 74.9023C922.434 75.5013 921.913 75.9896 921.262 76.3672C920.611 76.7318 919.908 77.0182 919.152 77.2266C918.397 77.4349 917.635 77.5716 916.867 77.6367C916.099 77.7148 915.396 77.7539 914.758 77.7539C913.234 77.7539 911.939 77.5911 910.871 77.2656C909.803 76.9531 908.938 76.5299 908.273 75.9961C907.609 75.4622 907.128 74.8438 906.828 74.1406C906.529 73.4245 906.379 72.6758 906.379 71.8945ZM917.648 71.6797C917.648 72.6432 917.824 73.4245 918.176 74.0234C918.527 74.6094 919.107 74.9023 919.914 74.9023C920.591 74.9023 921.151 74.6615 921.594 74.1797C922.036 73.6849 922.258 73.0273 922.258 72.207V66.9141C921.32 66.9141 920.552 66.9987 919.953 67.168C919.354 67.3372 918.879 67.6107 918.527 67.9883C918.189 68.3529 917.954 68.8411 917.824 69.4531C917.707 70.0651 917.648 70.8073 917.648 71.6797Z" fill="#3D3D3D"/>
<path d="M874.543 65.9375C874.543 64.1927 874.901 62.6172 875.617 61.2109C876.333 59.8047 877.323 58.6068 878.586 57.6172C879.862 56.6276 881.366 55.8659 883.098 55.332C884.842 54.7982 886.73 54.5312 888.762 54.5312C890.324 54.5312 891.737 54.6875 893 55C894.276 55.3125 895.402 55.7422 896.379 56.2891C897.368 56.8229 898.215 57.4609 898.918 58.2031C899.634 58.9453 900.22 59.7461 900.676 60.6055C901.145 61.4648 901.49 62.3698 901.711 63.3203C901.932 64.2578 902.043 65.2018 902.043 66.1523H886.379C886.379 68.1445 886.464 69.7656 886.633 71.0156C886.815 72.2656 887.095 73.2487 887.473 73.9648C887.863 74.668 888.358 75.1497 888.957 75.4102C889.569 75.6706 890.305 75.8008 891.164 75.8008C892.258 75.8008 893.286 75.6641 894.25 75.3906C895.214 75.1172 896.073 74.7331 896.828 74.2383C897.596 73.7305 898.234 73.125 898.742 72.4219C899.25 71.7057 899.595 70.9049 899.777 70.0195H901.613C901.483 71.2305 901.112 72.3177 900.5 73.2812C899.888 74.2318 899.074 75.0391 898.059 75.7031C897.056 76.3672 895.871 76.875 894.504 77.2266C893.15 77.5781 891.665 77.7539 890.051 77.7539C887.512 77.7539 885.272 77.4935 883.332 76.9727C881.405 76.4388 879.79 75.6706 878.488 74.668C877.186 73.6523 876.203 72.4154 875.539 70.957C874.875 69.4857 874.543 67.8125 874.543 65.9375ZM891.867 64.1797C891.828 62.5521 891.75 61.1979 891.633 60.1172C891.516 59.0365 891.346 58.1706 891.125 57.5195C890.904 56.8685 890.63 56.4128 890.305 56.1523C889.979 55.8789 889.589 55.7422 889.133 55.7422C888.677 55.7422 888.28 55.8789 887.941 56.1523C887.616 56.4128 887.342 56.8685 887.121 57.5195C886.9 58.1706 886.73 59.0365 886.613 60.1172C886.496 61.1979 886.424 62.5521 886.398 64.1797H891.867Z" fill="#3D3D3D"/>
<path d="M843.43 75.6055H846.848V56.6797H843.43V55.2734H858.469V57.7734C858.885 57.2656 859.38 56.8164 859.953 56.4258C860.526 56.0221 861.158 55.6836 861.848 55.4102C862.551 55.1237 863.299 54.9089 864.094 54.7656C864.901 54.6094 865.734 54.5312 866.594 54.5312C867.492 54.5312 868.299 54.6419 869.016 54.8633C869.732 55.0846 870.344 55.3906 870.852 55.7812C871.359 56.1589 871.743 56.6146 872.004 57.1484C872.277 57.6693 872.414 58.2357 872.414 58.8477C872.414 59.4336 872.264 59.987 871.965 60.5078C871.678 61.0286 871.275 61.4844 870.754 61.875C870.246 62.2656 869.647 62.5781 868.957 62.8125C868.267 63.0339 867.531 63.1445 866.75 63.1445C865.969 63.1445 865.233 63.0339 864.543 62.8125C863.853 62.5781 863.247 62.2656 862.727 61.875C862.219 61.4844 861.815 61.0286 861.516 60.5078C861.216 59.987 861.066 59.4336 861.066 58.8477C861.066 58.5482 861.105 58.2552 861.184 57.9688C861.275 57.6693 861.392 57.3893 861.535 57.1289C861.262 57.2591 860.943 57.4609 860.578 57.7344C860.227 57.9948 859.895 58.3203 859.582 58.7109C859.27 59.1016 859.003 59.5573 858.781 60.0781C858.573 60.5859 858.469 61.1393 858.469 61.7383V75.6055H862.258V77.0117H843.43V75.6055Z" fill="#3D3D3D"/>
<path d="M810.051 48.8867H806.613V47.4805H821.672V56.4258C822.336 55.8789 823.156 55.4297 824.133 55.0781C825.122 54.7135 826.34 54.5312 827.785 54.5312C829.882 54.5312 831.704 54.8503 833.254 55.4883C834.803 56.1133 836.086 56.9596 837.102 58.0273C838.117 59.082 838.872 60.3125 839.367 61.7188C839.875 63.125 840.129 64.6029 840.129 66.1523C840.129 67.7409 839.855 69.2383 839.309 70.6445C838.775 72.0508 837.954 73.2812 836.848 74.3359C835.754 75.3906 834.374 76.224 832.707 76.8359C831.04 77.4479 829.074 77.7539 826.809 77.7539C825.402 77.7539 824.152 77.6367 823.059 77.4023C821.978 77.168 821.014 76.862 820.168 76.4844C819.335 76.1068 818.612 75.6836 818 75.2148C817.388 74.7331 816.867 74.2578 816.438 73.7891L810.051 77.7539V48.8867ZM821.477 69.9219C821.477 70.9375 821.561 71.8164 821.73 72.5586C821.9 73.3008 822.128 73.9193 822.414 74.4141C822.714 74.9089 823.065 75.2799 823.469 75.5273C823.885 75.7617 824.341 75.8789 824.836 75.8789C825.461 75.8789 825.982 75.7031 826.398 75.3516C826.815 75 827.154 74.4401 827.414 73.6719C827.674 72.9036 827.857 71.901 827.961 70.6641C828.078 69.4271 828.137 67.9232 828.137 66.1523C828.137 64.3945 828.078 62.9167 827.961 61.7188C827.857 60.5078 827.681 59.5247 827.434 58.7695C827.186 58.0143 826.867 57.474 826.477 57.1484C826.099 56.8099 825.63 56.6406 825.07 56.6406C824.471 56.6406 823.944 56.7969 823.488 57.1094C823.046 57.4089 822.674 57.793 822.375 58.2617C822.076 58.7305 821.848 59.2448 821.691 59.8047C821.548 60.3646 821.477 60.8984 821.477 61.4062V69.9219Z" fill="#3D3D3D"/>
<path d="M761.477 75.6055H764.895V56.6797H761.477V55.2734H776.516V57.7734C776.932 57.2656 777.427 56.8164 778 56.4258C778.573 56.0221 779.204 55.6836 779.895 55.4102C780.598 55.1237 781.346 54.9089 782.141 54.7656C782.948 54.6094 783.781 54.5312 784.641 54.5312C785.539 54.5312 786.346 54.6419 787.062 54.8633C787.779 55.0846 788.391 55.3906 788.898 55.7812C789.406 56.1589 789.79 56.6146 790.051 57.1484C790.324 57.6693 790.461 58.2357 790.461 58.8477C790.461 59.4336 790.311 59.987 790.012 60.5078C789.725 61.0286 789.322 61.4844 788.801 61.875C788.293 62.2656 787.694 62.5781 787.004 62.8125C786.314 63.0339 785.578 63.1445 784.797 63.1445C784.016 63.1445 783.28 63.0339 782.59 62.8125C781.9 62.5781 781.294 62.2656 780.773 61.875C780.266 61.4844 779.862 61.0286 779.562 60.5078C779.263 59.987 779.113 59.4336 779.113 58.8477C779.113 58.5482 779.152 58.2552 779.23 57.9688C779.322 57.6693 779.439 57.3893 779.582 57.1289C779.309 57.2591 778.99 57.4609 778.625 57.7344C778.273 57.9948 777.941 58.3203 777.629 58.7109C777.316 59.1016 777.049 59.5573 776.828 60.0781C776.62 60.5859 776.516 61.1393 776.516 61.7383V75.6055H780.305V77.0117H761.477V75.6055Z" fill="#3D3D3D"/>
<path d="M728.645 66.1523C728.645 64.4727 728.951 62.9232 729.562 61.5039C730.174 60.0846 731.092 58.8607 732.316 57.832C733.54 56.7904 735.077 55.9831 736.926 55.4102C738.775 54.8242 740.936 54.5312 743.41 54.5312C745.884 54.5312 748.039 54.8242 749.875 55.4102C751.724 55.9831 753.26 56.7904 754.484 57.832C755.708 58.8607 756.626 60.0846 757.238 61.5039C757.85 62.9232 758.156 64.4727 758.156 66.1523C758.156 67.832 757.85 69.3815 757.238 70.8008C756.626 72.207 755.708 73.431 754.484 74.4727C753.26 75.5013 751.724 76.3086 749.875 76.8945C748.039 77.4674 745.884 77.7539 743.41 77.7539C740.936 77.7539 738.775 77.4674 736.926 76.8945C735.077 76.3086 733.54 75.5013 732.316 74.4727C731.092 73.431 730.174 72.207 729.562 70.8008C728.951 69.3815 728.645 67.832 728.645 66.1523ZM743.41 76.543C743.905 76.543 744.328 76.3802 744.68 76.0547C745.031 75.7292 745.318 75.1693 745.539 74.375C745.76 73.5807 745.917 72.5195 746.008 71.1914C746.112 69.8503 746.164 68.1706 746.164 66.1523C746.164 64.1211 746.112 62.4414 746.008 61.1133C745.917 59.7721 745.76 58.7044 745.539 57.9102C745.318 57.1159 745.031 56.556 744.68 56.2305C744.328 55.9049 743.905 55.7422 743.41 55.7422C742.902 55.7422 742.473 55.9049 742.121 56.2305C741.77 56.556 741.483 57.1159 741.262 57.9102C741.04 58.7044 740.878 59.7721 740.773 61.1133C740.682 62.4414 740.637 64.1211 740.637 66.1523C740.637 68.1706 740.682 69.8503 740.773 71.1914C740.878 72.5195 741.04 73.5807 741.262 74.375C741.483 75.1693 741.77 75.7292 742.121 76.0547C742.473 76.3802 742.902 76.543 743.41 76.543Z" fill="#3D3D3D"/>
<path d="M705.305 75.6055H708.742V58.5352H705.305V57.1289H708.742V55.5859C708.742 52.5 709.615 50.2539 711.359 48.8477C713.104 47.4414 715.682 46.7383 719.094 46.7383C719.589 46.7383 720.161 46.7708 720.812 46.8359C721.464 46.901 722.128 47.0117 722.805 47.168C723.495 47.3242 724.172 47.5326 724.836 47.793C725.513 48.0534 726.112 48.3789 726.633 48.7695C727.154 49.1471 727.577 49.6029 727.902 50.1367C728.228 50.6576 728.391 51.2565 728.391 51.9336C728.391 52.4414 728.273 52.9232 728.039 53.3789C727.805 53.8216 727.473 54.2122 727.043 54.5508C726.626 54.8763 726.132 55.1367 725.559 55.332C724.986 55.5273 724.367 55.625 723.703 55.625C723.026 55.625 722.401 55.5273 721.828 55.332C721.255 55.1367 720.76 54.8763 720.344 54.5508C719.927 54.2122 719.602 53.8216 719.367 53.3789C719.133 52.9232 719.016 52.4414 719.016 51.9336C719.016 51.4909 719.107 51.0742 719.289 50.6836C719.471 50.2799 719.725 49.9219 720.051 49.6094C720.376 49.2839 720.767 49.0104 721.223 48.7891C721.678 48.5677 722.18 48.4115 722.727 48.3203C722.102 48.1641 721.483 48.0859 720.871 48.0859C720.363 48.0859 719.882 48.1576 719.426 48.3008C718.983 48.431 718.592 48.6523 718.254 48.9648C717.928 49.2643 717.668 49.668 717.473 50.1758C717.277 50.6706 717.18 51.2826 717.18 52.0117C717.18 52.4935 717.258 52.9688 717.414 53.4375C717.57 53.9062 717.766 54.362 718 54.8047C718.247 55.2344 718.514 55.651 718.801 56.0547C719.087 56.4453 719.361 56.8034 719.621 57.1289H724.191V58.5352H720.363V75.6055H723.762V77.0117H705.305V75.6055Z" fill="#3D3D3D"/>
<path d="M661.105 68.4961H662.551C663.111 69.4857 663.885 70.4362 664.875 71.3477C665.865 72.2461 666.978 73.0469 668.215 73.75C669.465 74.4401 670.786 74.9935 672.18 75.4102C673.573 75.8268 674.96 76.0352 676.34 76.0352C676.913 76.0352 677.466 76.0091 678 75.957C678.534 75.8919 679.003 75.7812 679.406 75.625C679.81 75.4557 680.129 75.2344 680.363 74.9609C680.611 74.6875 680.734 74.3359 680.734 73.9062C680.734 73.4635 680.533 73.099 680.129 72.8125C679.738 72.513 679.204 72.2656 678.527 72.0703C677.85 71.875 677.069 71.7122 676.184 71.582C675.311 71.4518 674.4 71.3216 673.449 71.1914C671.73 70.9701 670.122 70.6771 668.625 70.3125C667.128 69.9479 665.826 69.4466 664.719 68.8086C663.612 68.1706 662.74 67.3633 662.102 66.3867C661.477 65.4102 661.164 64.1992 661.164 62.7539C661.164 61.4258 661.457 60.2539 662.043 59.2383C662.642 58.2096 663.469 57.3503 664.523 56.6602C665.578 55.957 666.828 55.4297 668.273 55.0781C669.719 54.7135 671.294 54.5312 673 54.5312C673.807 54.5312 674.621 54.6094 675.441 54.7656C676.275 54.9219 677.076 55.1302 677.844 55.3906C678.625 55.638 679.361 55.931 680.051 56.2695C680.754 56.5951 681.385 56.9271 681.945 57.2656L684.562 54.7656H686.184V62.4609H684.797C684.263 61.5625 683.586 60.7292 682.766 59.9609C681.958 59.1927 681.04 58.5286 680.012 57.9688C678.983 57.4089 677.87 56.9727 676.672 56.6602C675.474 56.3346 674.224 56.1719 672.922 56.1719C672.284 56.1719 671.698 56.2044 671.164 56.2695C670.63 56.3346 670.168 56.4388 669.777 56.582C669.387 56.7253 669.081 56.9141 668.859 57.1484C668.651 57.3828 668.547 57.6628 668.547 57.9883C668.547 58.431 668.71 58.7956 669.035 59.082C669.361 59.3685 669.842 59.6224 670.48 59.8438C671.132 60.0521 671.932 60.2409 672.883 60.4102C673.833 60.5794 674.94 60.7617 676.203 60.957C677.805 61.2174 679.296 61.5365 680.676 61.9141C682.056 62.2917 683.247 62.806 684.25 63.457C685.266 64.1081 686.06 64.9349 686.633 65.9375C687.219 66.9401 687.512 68.2031 687.512 69.7266C687.512 70.9635 687.271 72.0833 686.789 73.0859C686.32 74.0755 685.617 74.9154 684.68 75.6055C683.755 76.2956 682.609 76.8229 681.242 77.1875C679.875 77.5651 678.306 77.7539 676.535 77.7539C675.702 77.7539 674.803 77.6693 673.84 77.5C672.876 77.3438 671.919 77.1159 670.969 76.8164C670.031 76.5039 669.139 76.1328 668.293 75.7031C667.447 75.2604 666.73 74.7656 666.145 74.2188L662.727 77.4609H661.105V68.4961Z" fill="#3D3D3D"/>
<path d="M638.391 56.6797H634.973V55.2734H638.391C639.706 55.2734 640.884 55.0521 641.926 54.6094C642.98 54.1536 643.872 53.5677 644.602 52.8516C645.344 52.1224 645.91 51.3086 646.301 50.4102C646.691 49.5117 646.887 48.6133 646.887 47.7148H650.012V55.2734H656.301V56.6797H650.012V68.7109C650.012 70.1042 650.083 71.2435 650.227 72.1289C650.383 73.0013 650.598 73.6849 650.871 74.1797C651.158 74.6745 651.49 75.013 651.867 75.1953C652.258 75.3646 652.688 75.4492 653.156 75.4492C653.612 75.4492 654.055 75.3516 654.484 75.1562C654.914 74.9479 655.292 74.6224 655.617 74.1797C655.943 73.724 656.203 73.138 656.398 72.4219C656.594 71.6927 656.691 70.8008 656.691 69.7461C656.691 69.4987 656.685 69.2448 656.672 68.9844C656.659 68.7109 656.639 68.431 656.613 68.1445H658.254C658.293 68.7956 658.312 69.388 658.312 69.9219C658.312 71.5495 658.085 72.8776 657.629 73.9062C657.186 74.9219 656.548 75.7161 655.715 76.2891C654.882 76.862 653.866 77.2526 652.668 77.4609C651.483 77.6693 650.148 77.7734 648.664 77.7734C646.997 77.7734 645.526 77.6107 644.25 77.2852C642.974 76.9596 641.9 76.4453 641.027 75.7422C640.155 75.026 639.497 74.1081 639.055 72.9883C638.612 71.8685 638.391 70.5078 638.391 68.9062V56.6797Z" fill="#3D3D3D"/>
<path d="M598.234 75.6055H601.652V56.6797H598.234V55.2734H613.273V57.7734C613.69 57.2656 614.191 56.8099 614.777 56.4062C615.376 56.0026 616.034 55.6641 616.75 55.3906C617.466 55.1042 618.228 54.8893 619.035 54.7461C619.855 54.6029 620.695 54.5312 621.555 54.5312C623.326 54.5312 624.784 54.7656 625.93 55.2344C627.089 55.6901 628 56.3477 628.664 57.207C629.328 58.0534 629.79 59.0885 630.051 60.3125C630.311 61.5234 630.441 62.8776 630.441 64.375V75.6055H633.859V77.0117H616.867V75.6055H618.82V64.375C618.82 63.0339 618.781 61.9401 618.703 61.0938C618.625 60.2344 618.488 59.5638 618.293 59.082C618.098 58.5872 617.837 58.2487 617.512 58.0664C617.186 57.8711 616.776 57.7734 616.281 57.7734C615.786 57.7734 615.35 57.8776 614.973 58.0859C614.595 58.2943 614.276 58.5872 614.016 58.9648C613.768 59.3424 613.579 59.7917 613.449 60.3125C613.332 60.8333 613.273 61.3997 613.273 62.0117V75.6055H615.207V77.0117H598.234V75.6055Z" fill="#3D3D3D"/>
<path d="M567.395 65.9375C567.395 64.1927 567.753 62.6172 568.469 61.2109C569.185 59.8047 570.174 58.6068 571.438 57.6172C572.714 56.6276 574.217 55.8659 575.949 55.332C577.694 54.7982 579.582 54.5312 581.613 54.5312C583.176 54.5312 584.589 54.6875 585.852 55C587.128 55.3125 588.254 55.7422 589.23 56.2891C590.22 56.8229 591.066 57.4609 591.77 58.2031C592.486 58.9453 593.072 59.7461 593.527 60.6055C593.996 61.4648 594.341 62.3698 594.562 63.3203C594.784 64.2578 594.895 65.2018 594.895 66.1523H579.23C579.23 68.1445 579.315 69.7656 579.484 71.0156C579.667 72.2656 579.947 73.2487 580.324 73.9648C580.715 74.668 581.21 75.1497 581.809 75.4102C582.421 75.6706 583.156 75.8008 584.016 75.8008C585.109 75.8008 586.138 75.6641 587.102 75.3906C588.065 75.1172 588.924 74.7331 589.68 74.2383C590.448 73.7305 591.086 73.125 591.594 72.4219C592.102 71.7057 592.447 70.9049 592.629 70.0195H594.465C594.335 71.2305 593.964 72.3177 593.352 73.2812C592.74 74.2318 591.926 75.0391 590.91 75.7031C589.908 76.3672 588.723 76.875 587.355 77.2266C586.001 77.5781 584.517 77.7539 582.902 77.7539C580.363 77.7539 578.124 77.4935 576.184 76.9727C574.257 76.4388 572.642 75.6706 571.34 74.668C570.038 73.6523 569.055 72.4154 568.391 70.957C567.727 69.4857 567.395 67.8125 567.395 65.9375ZM584.719 64.1797C584.68 62.5521 584.602 61.1979 584.484 60.1172C584.367 59.0365 584.198 58.1706 583.977 57.5195C583.755 56.8685 583.482 56.4128 583.156 56.1523C582.831 55.8789 582.44 55.7422 581.984 55.7422C581.529 55.7422 581.132 55.8789 580.793 56.1523C580.467 56.4128 580.194 56.8685 579.973 57.5195C579.751 58.1706 579.582 59.0365 579.465 60.1172C579.348 61.1979 579.276 62.5521 579.25 64.1797H584.719Z" fill="#3D3D3D"/>
<path d="M512.961 75.6055H516.379V56.6797H512.961V55.2734H528V57.7734C528.846 56.7448 529.94 55.9505 531.281 55.3906C532.622 54.8177 534.165 54.5312 535.91 54.5312C538.085 54.5312 539.797 54.8763 541.047 55.5664C542.297 56.2565 543.215 57.2331 543.801 58.4961C544.113 57.9362 544.543 57.4154 545.09 56.9336C545.637 56.4518 546.262 56.0352 546.965 55.6836C547.668 55.319 548.436 55.0391 549.27 54.8438C550.103 54.6354 550.962 54.5312 551.848 54.5312C553.801 54.5312 555.402 54.7526 556.652 55.1953C557.915 55.625 558.911 56.263 559.641 57.1094C560.383 57.9427 560.891 58.9714 561.164 60.1953C561.451 61.4062 561.594 62.7995 561.594 64.375V75.6055H565.012V77.0117H548.02V75.6055H549.973V64.375C549.973 63.0339 549.934 61.9401 549.855 61.0938C549.777 60.2344 549.641 59.5638 549.445 59.082C549.25 58.5872 548.99 58.2487 548.664 58.0664C548.339 57.8711 547.928 57.7734 547.434 57.7734C546.587 57.7734 545.923 58.0599 545.441 58.6328C544.973 59.1927 544.667 59.9414 544.523 60.8789C544.628 61.4128 544.699 61.9727 544.738 62.5586C544.777 63.1315 544.797 63.737 544.797 64.375V75.6055H546.73V77.0117H531.223V75.6055H533.176V64.375C533.176 63.0339 533.137 61.9401 533.059 61.0938C532.98 60.2344 532.844 59.5638 532.648 59.082C532.453 58.5872 532.193 58.2487 531.867 58.0664C531.542 57.8711 531.132 57.7734 530.637 57.7734C530.142 57.7734 529.725 57.8776 529.387 58.0859C529.048 58.2943 528.775 58.5872 528.566 58.9648C528.358 59.3424 528.208 59.7917 528.117 60.3125C528.039 60.8333 528 61.3997 528 62.0117V75.6055H529.934V77.0117H512.961V75.6055Z" fill="#3D3D3D"/>
<path d="M482.121 65.9375C482.121 64.1927 482.479 62.6172 483.195 61.2109C483.911 59.8047 484.901 58.6068 486.164 57.6172C487.44 56.6276 488.944 55.8659 490.676 55.332C492.421 54.7982 494.309 54.5312 496.34 54.5312C497.902 54.5312 499.315 54.6875 500.578 55C501.854 55.3125 502.98 55.7422 503.957 56.2891C504.947 56.8229 505.793 57.4609 506.496 58.2031C507.212 58.9453 507.798 59.7461 508.254 60.6055C508.723 61.4648 509.068 62.3698 509.289 63.3203C509.51 64.2578 509.621 65.2018 509.621 66.1523H493.957C493.957 68.1445 494.042 69.7656 494.211 71.0156C494.393 72.2656 494.673 73.2487 495.051 73.9648C495.441 74.668 495.936 75.1497 496.535 75.4102C497.147 75.6706 497.883 75.8008 498.742 75.8008C499.836 75.8008 500.865 75.6641 501.828 75.3906C502.792 75.1172 503.651 74.7331 504.406 74.2383C505.174 73.7305 505.812 73.125 506.32 72.4219C506.828 71.7057 507.173 70.9049 507.355 70.0195H509.191C509.061 71.2305 508.69 72.3177 508.078 73.2812C507.466 74.2318 506.652 75.0391 505.637 75.7031C504.634 76.3672 503.449 76.875 502.082 77.2266C500.728 77.5781 499.243 77.7539 497.629 77.7539C495.09 77.7539 492.85 77.4935 490.91 76.9727C488.983 76.4388 487.368 75.6706 486.066 74.668C484.764 73.6523 483.781 72.4154 483.117 70.957C482.453 69.4857 482.121 67.8125 482.121 65.9375ZM499.445 64.1797C499.406 62.5521 499.328 61.1979 499.211 60.1172C499.094 59.0365 498.924 58.1706 498.703 57.5195C498.482 56.8685 498.208 56.4128 497.883 56.1523C497.557 55.8789 497.167 55.7422 496.711 55.7422C496.255 55.7422 495.858 55.8789 495.52 56.1523C495.194 56.4128 494.921 56.8685 494.699 57.5195C494.478 58.1706 494.309 59.0365 494.191 60.1172C494.074 61.1979 494.003 62.5521 493.977 64.1797H499.445Z" fill="#3D3D3D"/>
<path d="M451.008 75.6055H454.426V56.6797H451.008V55.2734H466.047V57.7734C466.464 57.2656 466.958 56.8164 467.531 56.4258C468.104 56.0221 468.736 55.6836 469.426 55.4102C470.129 55.1237 470.878 54.9089 471.672 54.7656C472.479 54.6094 473.312 54.5312 474.172 54.5312C475.07 54.5312 475.878 54.6419 476.594 54.8633C477.31 55.0846 477.922 55.3906 478.43 55.7812C478.938 56.1589 479.322 56.6146 479.582 57.1484C479.855 57.6693 479.992 58.2357 479.992 58.8477C479.992 59.4336 479.842 59.987 479.543 60.5078C479.257 61.0286 478.853 61.4844 478.332 61.875C477.824 62.2656 477.225 62.5781 476.535 62.8125C475.845 63.0339 475.109 63.1445 474.328 63.1445C473.547 63.1445 472.811 63.0339 472.121 62.8125C471.431 62.5781 470.826 62.2656 470.305 61.875C469.797 61.4844 469.393 61.0286 469.094 60.5078C468.794 59.987 468.645 59.4336 468.645 58.8477C468.645 58.5482 468.684 58.2552 468.762 57.9688C468.853 57.6693 468.97 57.3893 469.113 57.1289C468.84 57.2591 468.521 57.4609 468.156 57.7344C467.805 57.9948 467.473 58.3203 467.16 58.7109C466.848 59.1016 466.581 59.5573 466.359 60.0781C466.151 60.5859 466.047 61.1393 466.047 61.7383V75.6055H469.836V77.0117H451.008V75.6055Z" fill="#3D3D3D"/>
<path d="M438.977 53.3008C438.221 53.3008 437.492 53.2292 436.789 53.0859C436.086 52.9297 435.467 52.6888 434.934 52.3633C434.4 52.0247 433.97 51.5951 433.645 51.0742C433.319 50.5534 433.156 49.9154 433.156 49.1602C433.156 48.4049 433.319 47.7669 433.645 47.2461C433.97 46.7122 434.4 46.2826 434.934 45.957C435.467 45.6185 436.086 45.3776 436.789 45.2344C437.492 45.0781 438.221 45 438.977 45C439.719 45 440.441 45.0781 441.145 45.2344C441.848 45.3776 442.466 45.6185 443 45.957C443.534 46.2826 443.964 46.7057 444.289 47.2266C444.615 47.7474 444.777 48.3854 444.777 49.1406C444.777 49.8958 444.615 50.5404 444.289 51.0742C443.964 51.5951 443.534 52.0247 443 52.3633C442.466 52.6888 441.848 52.9297 441.145 53.0859C440.441 53.2292 439.719 53.3008 438.977 53.3008ZM429.953 75.6055H433.371V56.6797H429.953V55.2734H444.992V75.6055H448.41V77.0117H429.953V75.6055Z" fill="#3D3D3D"/>
<path d="M395.148 56.6797H391.73V55.2734H406.77V67.9102C406.77 69.2513 406.809 70.3516 406.887 71.2109C406.965 72.0573 407.102 72.7279 407.297 73.2227C407.492 73.7044 407.753 74.043 408.078 74.2383C408.404 74.4206 408.814 74.5117 409.309 74.5117C409.803 74.5117 410.24 74.4076 410.617 74.1992C410.995 73.9909 411.307 73.6979 411.555 73.3203C411.815 72.9427 412.004 72.4935 412.121 71.9727C412.251 71.4518 412.316 70.8854 412.316 70.2734V56.6797H409.445V55.2734H423.938V75.6055H427.336V77.0117H412.316V74.5117C411.9 75.0195 411.392 75.4753 410.793 75.8789C410.207 76.2826 409.556 76.6276 408.84 76.9141C408.137 77.1875 407.375 77.3958 406.555 77.5391C405.747 77.6823 404.914 77.7539 404.055 77.7539C402.271 77.7539 400.799 77.5195 399.641 77.0508C398.495 76.5951 397.59 75.944 396.926 75.0977C396.262 74.2383 395.799 73.2031 395.539 71.9922C395.279 70.7812 395.148 69.4206 395.148 67.9102V56.6797Z" fill="#3D3D3D"/>
<path d="M356.574 66.1523C356.574 64.5508 356.841 63.0469 357.375 61.6406C357.922 60.2344 358.749 59.0039 359.855 57.9492C360.962 56.8945 362.349 56.0612 364.016 55.4492C365.682 54.8372 367.648 54.5312 369.914 54.5312C371.307 54.5312 372.551 54.6484 373.645 54.8828C374.738 55.1172 375.702 55.4232 376.535 55.8008C377.382 56.1784 378.104 56.6081 378.703 57.0898C379.315 57.5586 379.836 58.0273 380.266 58.4961L386.672 54.5312V83.3984H390.09V84.8047H371.633V83.3984H375.031V75.8594C374.38 76.4062 373.56 76.8555 372.57 77.207C371.581 77.5716 370.37 77.7539 368.938 77.7539C366.841 77.7539 365.018 77.4414 363.469 76.8164C361.919 76.1914 360.63 75.3451 359.602 74.2773C358.586 73.2096 357.824 71.9792 357.316 70.5859C356.822 69.1797 356.574 67.7018 356.574 66.1523ZM371.652 75.6445C372.251 75.6445 372.772 75.4948 373.215 75.1953C373.671 74.8828 374.048 74.4922 374.348 74.0234C374.647 73.5547 374.868 73.0404 375.012 72.4805C375.155 71.9206 375.227 71.3867 375.227 70.8789V62.3633C375.227 61.3477 375.142 60.4688 374.973 59.7266C374.803 58.9844 374.569 58.3659 374.27 57.8711C373.983 57.3763 373.638 57.0117 373.234 56.7773C372.831 56.5299 372.388 56.4062 371.906 56.4062C371.281 56.4062 370.754 56.582 370.324 56.9336C369.895 57.2721 369.549 57.832 369.289 58.6133C369.029 59.3815 368.84 60.3841 368.723 61.6211C368.618 62.8581 368.566 64.3685 368.566 66.1523C368.566 67.8971 368.625 69.375 368.742 70.5859C368.859 71.7969 369.042 72.7799 369.289 73.5352C369.536 74.2773 369.855 74.8177 370.246 75.1562C370.637 75.4818 371.105 75.6445 371.652 75.6445Z" fill="#3D3D3D"/>
<path d="M325.559 65.9375C325.559 64.1927 325.917 62.6172 326.633 61.2109C327.349 59.8047 328.339 58.6068 329.602 57.6172C330.878 56.6276 332.382 55.8659 334.113 55.332C335.858 54.7982 337.746 54.5312 339.777 54.5312C341.34 54.5312 342.753 54.6875 344.016 55C345.292 55.3125 346.418 55.7422 347.395 56.2891C348.384 56.8229 349.23 57.4609 349.934 58.2031C350.65 58.9453 351.236 59.7461 351.691 60.6055C352.16 61.4648 352.505 62.3698 352.727 63.3203C352.948 64.2578 353.059 65.2018 353.059 66.1523H337.395C337.395 68.1445 337.479 69.7656 337.648 71.0156C337.831 72.2656 338.111 73.2487 338.488 73.9648C338.879 74.668 339.374 75.1497 339.973 75.4102C340.585 75.6706 341.32 75.8008 342.18 75.8008C343.273 75.8008 344.302 75.6641 345.266 75.3906C346.229 75.1172 347.089 74.7331 347.844 74.2383C348.612 73.7305 349.25 73.125 349.758 72.4219C350.266 71.7057 350.611 70.9049 350.793 70.0195H352.629C352.499 71.2305 352.128 72.3177 351.516 73.2812C350.904 74.2318 350.09 75.0391 349.074 75.7031C348.072 76.3672 346.887 76.875 345.52 77.2266C344.165 77.5781 342.681 77.7539 341.066 77.7539C338.527 77.7539 336.288 77.4935 334.348 76.9727C332.421 76.4388 330.806 75.6706 329.504 74.668C328.202 73.6523 327.219 72.4154 326.555 70.957C325.891 69.4857 325.559 67.8125 325.559 65.9375ZM342.883 64.1797C342.844 62.5521 342.766 61.1979 342.648 60.1172C342.531 59.0365 342.362 58.1706 342.141 57.5195C341.919 56.8685 341.646 56.4128 341.32 56.1523C340.995 55.8789 340.604 55.7422 340.148 55.7422C339.693 55.7422 339.296 55.8789 338.957 56.1523C338.632 56.4128 338.358 56.8685 338.137 57.5195C337.915 58.1706 337.746 59.0365 337.629 60.1172C337.512 61.1979 337.44 62.5521 337.414 64.1797H342.883Z" fill="#3D3D3D"/>
<path d="M294.445 75.6055H297.863V56.6797H294.445V55.2734H309.484V57.7734C309.901 57.2656 310.396 56.8164 310.969 56.4258C311.542 56.0221 312.173 55.6836 312.863 55.4102C313.566 55.1237 314.315 54.9089 315.109 54.7656C315.917 54.6094 316.75 54.5312 317.609 54.5312C318.508 54.5312 319.315 54.6419 320.031 54.8633C320.747 55.0846 321.359 55.3906 321.867 55.7812C322.375 56.1589 322.759 56.6146 323.02 57.1484C323.293 57.6693 323.43 58.2357 323.43 58.8477C323.43 59.4336 323.28 59.987 322.98 60.5078C322.694 61.0286 322.29 61.4844 321.77 61.875C321.262 62.2656 320.663 62.5781 319.973 62.8125C319.283 63.0339 318.547 63.1445 317.766 63.1445C316.984 63.1445 316.249 63.0339 315.559 62.8125C314.868 62.5781 314.263 62.2656 313.742 61.875C313.234 61.4844 312.831 61.0286 312.531 60.5078C312.232 59.987 312.082 59.4336 312.082 58.8477C312.082 58.5482 312.121 58.2552 312.199 57.9688C312.29 57.6693 312.408 57.3893 312.551 57.1289C312.277 57.2591 311.958 57.4609 311.594 57.7344C311.242 57.9948 310.91 58.3203 310.598 58.7109C310.285 59.1016 310.018 59.5573 309.797 60.0781C309.589 60.5859 309.484 61.1393 309.484 61.7383V75.6055H313.273V77.0117H294.445V75.6055Z" fill="#3D3D3D"/>
<path d="M257.805 56.6797H254.387V55.2734H257.805C259.12 55.2734 260.298 55.0521 261.34 54.6094C262.395 54.1536 263.286 53.5677 264.016 52.8516C264.758 52.1224 265.324 51.3086 265.715 50.4102C266.105 49.5117 266.301 48.6133 266.301 47.7148H269.426V55.2734H275.715V56.6797H269.426V68.7109C269.426 70.1042 269.497 71.2435 269.641 72.1289C269.797 73.0013 270.012 73.6849 270.285 74.1797C270.572 74.6745 270.904 75.013 271.281 75.1953C271.672 75.3646 272.102 75.4492 272.57 75.4492C273.026 75.4492 273.469 75.3516 273.898 75.1562C274.328 74.9479 274.706 74.6224 275.031 74.1797C275.357 73.724 275.617 73.138 275.812 72.4219C276.008 71.6927 276.105 70.8008 276.105 69.7461C276.105 69.4987 276.099 69.2448 276.086 68.9844C276.073 68.7109 276.053 68.431 276.027 68.1445H277.668C277.707 68.7956 277.727 69.388 277.727 69.9219C277.727 71.5495 277.499 72.8776 277.043 73.9062C276.6 74.9219 275.962 75.7161 275.129 76.2891C274.296 76.862 273.28 77.2526 272.082 77.4609C270.897 77.6693 269.562 77.7734 268.078 77.7734C266.411 77.7734 264.94 77.6107 263.664 77.2852C262.388 76.9596 261.314 76.4453 260.441 75.7422C259.569 75.026 258.911 74.1081 258.469 72.9883C258.026 71.8685 257.805 70.5078 257.805 68.9062V56.6797Z" fill="#3D3D3D"/>
<path d="M220.52 71.8945C220.52 70.8919 220.708 70.0326 221.086 69.3164C221.464 68.5872 221.997 67.9753 222.688 67.4805C223.378 66.9727 224.204 66.569 225.168 66.2695C226.132 65.957 227.199 65.7161 228.371 65.5469C229.556 65.3776 230.826 65.2669 232.18 65.2148C233.534 65.1497 234.94 65.1172 236.398 65.1172V64.0234C236.398 62.3568 236.281 61.0221 236.047 60.0195C235.826 59.0169 235.48 58.2487 235.012 57.7148C234.556 57.181 233.99 56.8359 233.312 56.6797C232.635 56.5104 231.848 56.4258 230.949 56.4258C230.467 56.4258 229.953 56.4648 229.406 56.543C228.872 56.6211 228.397 56.7122 227.98 56.8164C228.579 56.8815 229.133 57.0312 229.641 57.2656C230.148 57.5 230.585 57.793 230.949 58.1445C231.314 58.4961 231.594 58.8867 231.789 59.3164C231.997 59.7461 232.102 60.1823 232.102 60.625C232.102 61.1719 231.965 61.6862 231.691 62.168C231.418 62.6497 231.04 63.0729 230.559 63.4375C230.077 63.7891 229.517 64.069 228.879 64.2773C228.241 64.4857 227.557 64.5898 226.828 64.5898C226.099 64.5898 225.415 64.4857 224.777 64.2773C224.152 64.069 223.599 63.7891 223.117 63.4375C222.648 63.0729 222.277 62.6497 222.004 62.168C221.73 61.6862 221.594 61.1719 221.594 60.625C221.594 59.8958 221.789 59.2383 222.18 58.6523C222.583 58.0664 223.124 57.5521 223.801 57.1094C224.491 56.6536 225.298 56.263 226.223 55.9375C227.16 55.612 228.163 55.3451 229.23 55.1367C230.298 54.9284 231.405 54.7786 232.551 54.6875C233.71 54.5833 234.862 54.5312 236.008 54.5312C238.039 54.5312 239.803 54.6745 241.301 54.9609C242.811 55.2344 244.061 55.7292 245.051 56.4453C246.053 57.1484 246.802 58.1185 247.297 59.3555C247.792 60.5794 248.039 62.1354 248.039 64.0234V72.207C248.039 73.1836 248.137 73.9388 248.332 74.4727C248.54 74.9935 248.918 75.2539 249.465 75.2539C249.738 75.2539 249.96 75.1693 250.129 75C250.311 74.8177 250.448 74.5833 250.539 74.2969C250.643 74.0104 250.715 73.6784 250.754 73.3008C250.793 72.9232 250.812 72.5391 250.812 72.1484V70.2148H252.551V72.1484C252.551 73.1901 252.414 74.069 252.141 74.7852C251.88 75.5013 251.418 76.0807 250.754 76.5234C250.103 76.9661 249.224 77.2786 248.117 77.4609C247.023 77.6562 245.643 77.7539 243.977 77.7539C243.13 77.7539 242.336 77.7083 241.594 77.6172C240.865 77.526 240.194 77.3698 239.582 77.1484C238.983 76.9271 238.462 76.6341 238.02 76.2695C237.577 75.9049 237.225 75.4492 236.965 74.9023C236.574 75.5013 236.053 75.9896 235.402 76.3672C234.751 76.7318 234.048 77.0182 233.293 77.2266C232.538 77.4349 231.776 77.5716 231.008 77.6367C230.24 77.7148 229.536 77.7539 228.898 77.7539C227.375 77.7539 226.079 77.5911 225.012 77.2656C223.944 76.9531 223.078 76.5299 222.414 75.9961C221.75 75.4622 221.268 74.8438 220.969 74.1406C220.669 73.4245 220.52 72.6758 220.52 71.8945ZM231.789 71.6797C231.789 72.6432 231.965 73.4245 232.316 74.0234C232.668 74.6094 233.247 74.9023 234.055 74.9023C234.732 74.9023 235.292 74.6615 235.734 74.1797C236.177 73.6849 236.398 73.0273 236.398 72.207V66.9141C235.461 66.9141 234.693 66.9987 234.094 67.168C233.495 67.3372 233.02 67.6107 232.668 67.9883C232.329 68.3529 232.095 68.8411 231.965 69.4531C231.848 70.0651 231.789 70.8073 231.789 71.6797Z" fill="#3D3D3D"/>
<path d="M188.684 65.9375C188.684 64.1927 189.042 62.6172 189.758 61.2109C190.474 59.8047 191.464 58.6068 192.727 57.6172C194.003 56.6276 195.507 55.8659 197.238 55.332C198.983 54.7982 200.871 54.5312 202.902 54.5312C204.465 54.5312 205.878 54.6875 207.141 55C208.417 55.3125 209.543 55.7422 210.52 56.2891C211.509 56.8229 212.355 57.4609 213.059 58.2031C213.775 58.9453 214.361 59.7461 214.816 60.6055C215.285 61.4648 215.63 62.3698 215.852 63.3203C216.073 64.2578 216.184 65.2018 216.184 66.1523H200.52C200.52 68.1445 200.604 69.7656 200.773 71.0156C200.956 72.2656 201.236 73.2487 201.613 73.9648C202.004 74.668 202.499 75.1497 203.098 75.4102C203.71 75.6706 204.445 75.8008 205.305 75.8008C206.398 75.8008 207.427 75.6641 208.391 75.3906C209.354 75.1172 210.214 74.7331 210.969 74.2383C211.737 73.7305 212.375 73.125 212.883 72.4219C213.391 71.7057 213.736 70.9049 213.918 70.0195H215.754C215.624 71.2305 215.253 72.3177 214.641 73.2812C214.029 74.2318 213.215 75.0391 212.199 75.7031C211.197 76.3672 210.012 76.875 208.645 77.2266C207.29 77.5781 205.806 77.7539 204.191 77.7539C201.652 77.7539 199.413 77.4935 197.473 76.9727C195.546 76.4388 193.931 75.6706 192.629 74.668C191.327 73.6523 190.344 72.4154 189.68 70.957C189.016 69.4857 188.684 67.8125 188.684 65.9375ZM206.008 64.1797C205.969 62.5521 205.891 61.1979 205.773 60.1172C205.656 59.0365 205.487 58.1706 205.266 57.5195C205.044 56.8685 204.771 56.4128 204.445 56.1523C204.12 55.8789 203.729 55.7422 203.273 55.7422C202.818 55.7422 202.421 55.8789 202.082 56.1523C201.757 56.4128 201.483 56.8685 201.262 57.5195C201.04 58.1706 200.871 59.0365 200.754 60.1172C200.637 61.1979 200.565 62.5521 200.539 64.1797H206.008Z" fill="#3D3D3D"/>
<path d="M149.934 75.4688H153.352V50.8594H149.934V49.3359H170.227V50.8594H166.828V75.4688H170.227V77.0117H149.934V75.4688Z" fill="#3D3D3D"/>
</svg>
