<svg width="1329" height="17" viewBox="0 0 1329 17" fill="none" xmlns="http://www.w3.org/2000/svg">
<path fill-rule="evenodd" clip-rule="evenodd" d="M9.99984 17L0 0H2.7961L9.98122 12.2152L17.0833 0.14166L17 0H17.1667H19.7961H20L19.898 0.173315L26.9812 12.2152L34.0833 0.141662L34 0H34.1667H36.7961H37L36.898 0.173313L43.9812 12.2152L51.0833 0.141662L51 0H51.1667H53.7961H54L53.898 0.173313L60.9812 12.2152L68.0833 0.141659L68 0H68.1667H70.7961H71L70.898 0.173313L77.9812 12.2152L85.0833 0.141659L85 0H85.1667H87.7961H88L87.898 0.173313L94.9812 12.2152L102.083 0.141659L102 0H102.167H104.796H105L104.898 0.173313L111.981 12.2152L119.083 0.141659L119 0H119.167H121.796H122L121.898 0.173313L128.981 12.2152L136.083 0.141659L136 0H136.167H138.796H139L138.898 0.17332L145.981 12.2152L153.083 0.141659L153 0H153.167H155.796H156L155.898 0.17332L162.981 12.2152L170.083 0.141659L170 0H170.167H172.796H173L172.898 0.17332L179.981 12.2152L187.083 0.141659L187 0H187.167H189.796H190L189.898 0.17332L196.981 12.2152L204.083 0.141659L204 0H204.167H206.796H207L206.898 0.17332L213.981 12.2152L221.083 0.141659L221 0H221.167H223.796H224L223.898 0.17332L230.981 12.2152L238.083 0.141659L238 0H238.167H240.796H241L240.898 0.17332L247.981 12.2152L255.083 0.141659L255 0H255.167H257.796H258L257.898 0.173307L264.981 12.2152L272.083 0.141659L272 0H272.167H274.796H275L274.898 0.173307L281.981 12.2152L289.083 0.141659L289 0H289.167H291.796H292L291.898 0.173307L298.981 12.2152L306.083 0.141659L306 0H306.167H308.796H309L308.898 0.173307L315.981 12.2152L323.083 0.141659L323 0H323.167H325.796H326L325.898 0.173307L332.981 12.2152L340.083 0.141659L340 0H340.167H342.796H343L342.898 0.173307L349.981 12.2152L357.083 0.141659L357 0H357.167H359.796H360L359.898 0.173307L366.981 12.2152L374.083 0.141659L374 0H374.167H376.796H377L376.898 0.173307L383.981 12.2152L391.083 0.141659L391 0H391.167H393.796H394L393.898 0.173307L400.981 12.2152L408.083 0.141659L408 0H408.167H410.796H411L410.898 0.173307L417.981 12.2152L425.083 0.141659L425 0H425.167H427.796H428L427.898 0.173307L434.981 12.2152L442.083 0.141659L442 0H442.167H444.796H445L444.898 0.173307L451.981 12.2152L459.083 0.141659L459 0H459.167H461.796H462L461.898 0.173307L468.981 12.2152L476.083 0.141659L476 0H476.167H478.796H479L478.898 0.173307L485.981 12.2152L493.083 0.141659L493 0H493.167H495.796H496L495.898 0.173307L502.981 12.2152L510.083 0.141659L510 0H510.167H512.796H513L512.898 0.173333L519.981 12.2152L527.083 0.141684L527 0H527.167H529.796H530L529.898 0.173332L536.981 12.2152L544.083 0.141684L544 0H544.167H546.796H547L546.898 0.173332L553.981 12.2152L561.083 0.141684L561 0H561.167H563.796H564L563.898 0.173332L570.981 12.2152L578.083 0.141684L578 0H578.167H580.796H581L580.898 0.173332L587.981 12.2152L595.083 0.141684L595 0H595.167H597.796H598L597.898 0.173332L604.981 12.2152L612.083 0.141684L612 0H612.167H614.796H615L614.898 0.173332L621.981 12.2152L629.083 0.141684L629 0H629.167H631.796H632L631.898 0.173332L638.981 12.2152L646.083 0.141684L646 0H646.167H648.796H649L648.898 0.173332L655.981 12.2152L663.083 0.141684L663 0H663.167H665.796H666L665.898 0.173332L672.981 12.2152L680.083 0.14166L680 0H680.167H682.796H683L682.898 0.173315L689.981 12.2152L697.083 0.141662L697 0H697.167H699.796H700L699.898 0.173313L706.981 12.2152L714.083 0.141662L714 0H714.167H716.796H717L716.898 0.173313L723.981 12.2152L731.083 0.141659L731 0H731.167H733.796H734L733.898 0.173313L740.981 12.2152L748.083 0.141659L748 0H748.167H750.796H751L750.898 0.173313L757.981 12.2152L765.083 0.141659L765 0H765.167H767.796H768L767.898 0.173313L774.981 12.2152L782.083 0.141659L782 0H782.167H784.796H785L784.898 0.173313L791.981 12.2152L799.083 0.141659L799 0H799.167H801.796H802L801.898 0.17332L808.981 12.2152L816.083 0.141659L816 0H816.167H818.796H819L818.898 0.17332L825.981 12.2152L833.083 0.141659L833 0H833.167H835.796H836L835.898 0.17332L842.981 12.2152L850.083 0.141659L850 0H850.167H852.796H853L852.898 0.17332L859.981 12.2152L867.083 0.141659L867 0H867.167H869.796H870L869.898 0.17332L876.981 12.2152L884.083 0.141659L884 0H884.167H886.796H887L886.898 0.17332L893.981 12.2152L901.083 0.141659L901 0H901.167H903.796H904L903.898 0.17332L910.981 12.2152L918.083 0.141659L918 0H918.167H920.796H921L920.898 0.173307L927.981 12.2152L935.083 0.141659L935 0H935.167H937.796H938L937.898 0.173307L944.981 12.2152L952.083 0.141659L952 0H952.167H954.796H955L954.898 0.173307L961.981 12.2152L969.083 0.141659L969 0H969.167H971.796H972L971.898 0.173307L978.981 12.2152L986.083 0.141659L986 0H986.167H988.796H989L988.898 0.173307L995.981 12.2152L1003.08 0.141659L1003 0H1003.17H1005.8H1006L1005.9 0.173307L1012.98 12.2152L1020.08 0.141659L1020 0H1020.17H1022.8H1023L1022.9 0.173307L1029.98 12.2152L1037.08 0.141659L1037 0H1037.17H1039.8H1040L1039.9 0.173307L1046.98 12.2152L1054.08 0.141659L1054 0H1054.17H1056.8H1057L1056.9 0.173307L1063.98 12.2152L1071.08 0.141659L1071 0H1071.17H1073.8H1074L1073.9 0.173307L1080.98 12.2152L1088.08 0.141659L1088 0H1088.17H1090.8H1091L1090.9 0.173307L1097.98 12.2152L1105.08 0.141659L1105 0H1105.17H1107.8H1108L1107.9 0.173307L1114.98 12.2152L1122.08 0.141659L1122 0H1122.17H1124.8H1125L1124.9 0.173307L1131.98 12.2152L1139.08 0.141659L1139 0H1139.17H1141.8H1142L1141.9 0.173307L1148.98 12.2152L1156.08 0.141659L1156 0H1156.17H1158.8H1159L1158.9 0.173307L1165.98 12.2152L1173.08 0.141659L1173 0H1173.17H1175.8H1176L1175.9 0.173333L1182.98 12.2152L1190.08 0.141684L1190 0H1190.17H1192.8H1193L1192.9 0.173332L1199.98 12.2152L1207.08 0.141684L1207 0H1207.17H1209.8H1210L1209.9 0.173332L1216.98 12.2152L1224.08 0.141684L1224 0H1224.17H1226.8H1227L1226.9 0.173332L1233.98 12.2152L1241.08 0.141684L1241 0H1241.17H1243.8H1244L1243.9 0.173332L1250.98 12.2152L1258.08 0.141684L1258 0H1258.17H1260.8H1261L1260.9 0.173332L1267.98 12.2152L1275.08 0.141684L1275 0H1275.17H1277.8H1278L1277.9 0.173332L1284.98 12.2152L1292.08 0.141684L1292 0H1292.17H1294.8H1295L1294.9 0.173332L1301.98 12.2152L1309.08 0.141684L1309 0H1309.17H1311.8H1312L1311.9 0.173332L1318.98 12.2152L1326.17 0H1329L1319 17L1310.5 2.55L1302 17L1293.5 2.55L1285 17L1276.5 2.55L1268 17L1259.5 2.55L1251 17L1242.5 2.55L1234 17L1225.5 2.55L1217 17L1208.5 2.55L1200 17L1191.5 2.55L1183 17L1174.5 2.55L1166 17L1157.5 2.55L1149 17L1140.5 2.55L1132 17L1123.5 2.55L1115 17L1106.5 2.55L1098 17L1089.5 2.55L1081 17L1072.5 2.55L1064 17L1055.5 2.55L1047 17L1038.5 2.55L1030 17L1021.5 2.55L1013 17L1004.5 2.55L996 17L987.5 2.55L979 17L970.5 2.55L962 17L953.5 2.55L945 17L936.5 2.55L928 17L919.5 2.55L911 17L902.5 2.55L894 17L885.5 2.55L877 17L868.5 2.55L860 17L851.5 2.55L843 17L834.5 2.55L826 17L817.5 2.55L809 17L800.5 2.55L792 17L783.5 2.55L775 17L766.5 2.55L758 17L749.5 2.55L741 17L732.5 2.55L724 17L715.5 2.55L707 17L698.5 2.55L690 17L681.5 2.55L673 17L664.5 2.55L656 17L647.5 2.55L639 17L630.5 2.55L622 17L613.5 2.55L605 17L596.5 2.55L588 17L579.5 2.55L571 17L562.5 2.55L554 17L545.5 2.55L537 17L528.5 2.55L520 17L511.5 2.55L503 17L494.5 2.55L486 17L477.5 2.55L469 17L460.5 2.55L452 17L443.5 2.55L435 17L426.5 2.55L418 17L409.5 2.55L401 17L392.5 2.55L384 17L375.5 2.55L367 17L358.5 2.55L350 17L341.5 2.55L333 17L324.5 2.55L316 17L307.5 2.55L299 17L290.5 2.55L282 17L273.5 2.55L265 17L256.5 2.55L248 17L239.5 2.55L231 17L222.5 2.55L214 17L205.5 2.55L197 17L188.5 2.55L180 17L171.5 2.55L163 17L154.5 2.55L146 17L137.5 2.55L129 17L120.5 2.55L112 17L103.5 2.55L94.9998 17L86.5 2.55L77.9998 17L69.5 2.55L60.9998 17L52.5 2.55L43.9998 17L35.5 2.55L26.9998 17L18.5 2.55L9.99984 17Z" fill="#72D087"/>
</svg>
