<svg width="439" height="896" viewBox="0 0 439 896" fill="none" xmlns="http://www.w3.org/2000/svg">
<rect width="439" height="896" fill="white"/>
<path d="M136.232 336.352C134.728 335.84 132.936 335.584 130.856 335.584C125.576 335.584 122.936 339.504 122.936 347.344C122.936 354.704 125.656 358.384 131.096 358.384C132.504 358.384 133.96 358.112 135.464 357.568C137 356.992 138.184 356.416 139.016 355.84L140.216 355.024L142.856 359.344C142.728 359.472 142.536 359.664 142.28 359.92C142.024 360.144 141.464 360.56 140.6 361.168C139.768 361.776 138.888 362.304 137.96 362.752C137.032 363.2 135.864 363.616 134.456 364C133.08 364.384 131.688 364.576 130.28 364.576C125.384 364.576 121.592 363.136 118.904 360.256C116.248 357.344 114.92 353.12 114.92 347.584C114.92 341.984 116.376 337.584 119.288 334.384C122.2 331.184 126.136 329.584 131.096 329.584C132.824 329.584 134.616 329.776 136.472 330.16C138.328 330.512 139.752 330.88 140.744 331.264L142.28 331.84L142.04 340.96H137.336L136.232 336.352ZM158.953 337.6C162.825 337.6 165.801 338.736 167.881 341.008C169.993 343.248 171.049 346.432 171.049 350.56C171.049 354.848 169.881 358.24 167.545 360.736C165.241 363.232 162.137 364.48 158.233 364.48C150.073 364.48 145.993 360.08 145.993 351.28C145.993 346.992 147.161 343.648 149.497 341.248C151.833 338.816 154.985 337.6 158.953 337.6ZM158.713 343.12C156.889 343.12 155.545 343.712 154.681 344.896C153.849 346.08 153.433 348.128 153.433 351.04C153.433 353.792 153.833 355.808 154.633 357.088C155.433 358.336 156.713 358.96 158.473 358.96C160.233 358.96 161.529 358.336 162.361 357.088C163.193 355.84 163.609 353.744 163.609 350.8C163.609 348.208 163.209 346.288 162.409 345.04C161.641 343.76 160.409 343.12 158.713 343.12ZM187.215 356.8L191.439 342.784L188.655 342.16V338.32L201.231 338.08V342.16L198.495 342.784L190.767 364H182.847L175.263 342.928L172.959 342.16V338.32L185.535 338.08V342.16L182.847 342.64L187.215 356.8ZM203.133 338.464L214.029 338.08V358.96L217.389 360.16V364H203.133V360.16L206.973 358.96V343.264L203.133 342.304V338.464ZM206.061 330.16C206.061 328.848 206.461 327.808 207.261 327.04C208.093 326.24 209.069 325.84 210.189 325.84C212.877 325.84 214.221 327.28 214.221 330.16C214.221 331.504 213.805 332.576 212.973 333.376C212.173 334.144 211.245 334.528 210.189 334.528C208.877 334.528 207.853 334.16 207.117 333.424C206.413 332.656 206.061 331.568 206.061 330.16ZM247.792 363.664L237.712 364L237.28 361.456C235.264 363.472 232.848 364.48 230.032 364.48C226.736 364.48 224.272 363.36 222.64 361.12C221.008 358.88 220.192 355.728 220.192 351.664C220.192 347.12 221.328 343.648 223.6 341.248C225.904 338.816 229.296 337.6 233.776 337.6C234.832 337.6 235.872 337.76 236.896 338.08V331.984L233.056 331.024V327.184L243.952 326.8V358.864L247.792 359.824V363.664ZM236.896 356.128V343.84C236.096 343.36 234.848 343.12 233.152 343.12C229.472 343.12 227.632 345.84 227.632 351.28C227.632 356.336 229.168 358.864 232.24 358.864C233.136 358.864 233.968 358.64 234.736 358.192C235.536 357.712 236.096 357.248 236.416 356.8L236.896 356.128Z" fill="#534B48"/>
<path d="M264.976 359.824V364H250.336V359.824L253.936 358.624V335.824L250.336 334.384V330.4L264.976 330.16V334.384L261.376 335.824V358.624L264.976 359.824ZM292.672 371.056L282.976 364.528C278.528 364.24 275.136 362.64 272.8 359.728C270.464 356.816 269.296 352.688 269.296 347.344C269.296 341.872 270.752 337.552 273.664 334.384C276.576 331.184 280.512 329.584 285.472 329.584C290.368 329.584 294.128 331.088 296.752 334.096C299.408 337.072 300.736 341.248 300.736 346.624C300.736 350.752 299.856 354.288 298.096 357.232C296.336 360.176 293.888 362.256 290.752 363.472C291.008 363.632 291.712 364.096 292.864 364.864C294.048 365.664 294.912 366.224 295.456 366.544C296 366.864 296.72 367.2 297.616 367.552C298.544 367.904 299.344 368.08 300.016 368.08C300.464 368.08 301.056 367.936 301.792 367.648C302.528 367.392 303.152 367.12 303.664 366.832L304.432 366.4C304.752 366.88 305.216 367.584 305.824 368.512C306.432 369.44 306.816 370.016 306.976 370.24C306.592 370.496 306.096 370.8 305.488 371.152C304.88 371.536 303.84 372.032 302.368 372.64C300.928 373.28 299.744 373.6 298.816 373.6C297.216 373.6 295.168 372.752 292.672 371.056ZM285.232 335.584C282.512 335.584 280.496 336.512 279.184 338.368C277.872 340.192 277.216 343.104 277.216 347.104C277.216 354.784 279.728 358.624 284.752 358.624C287.472 358.624 289.488 357.664 290.8 355.744C292.144 353.824 292.816 350.864 292.816 346.864C292.816 342.992 292.208 340.144 290.992 338.32C289.776 336.496 287.856 335.584 285.232 335.584Z" fill="#FE5F55"/>
<path d="M217.8 37.12C196.619 37.1438 176.312 45.5664 161.332 60.5408C146.352 75.5152 137.922 95.8191 137.89 117C137.89 139.19 149.66 160.35 159.09 177.35C164.44 186.98 169.48 196.07 170.09 201.45V234.6C169.998 240.928 171.166 247.211 173.524 253.084C175.882 258.957 179.385 264.303 183.827 268.81C188.27 273.318 193.564 276.897 199.402 279.34C205.24 281.783 211.506 283.041 217.835 283.041C224.164 283.041 230.429 281.783 236.268 279.34C242.106 276.897 247.4 273.318 251.843 268.81C256.285 264.303 259.788 258.957 262.146 253.084C264.504 247.211 265.671 240.928 265.58 234.6V201.44C266.16 196.06 271.2 186.97 276.58 177.34C286.01 160.34 297.78 139.14 297.78 116.99C297.745 95.7987 289.304 75.4868 274.31 60.5125C259.315 45.5383 238.991 37.1253 217.8 37.12ZM185.34 234.6V227.46H250.27V235.1H185.34V234.6ZM217.8 267.07C212.016 267.071 206.338 265.523 201.355 262.588C196.371 259.653 192.264 255.438 189.46 250.38H246.15C243.343 255.438 239.234 259.653 234.249 262.588C229.264 265.523 223.585 267.07 217.8 267.07ZM263.15 169.93C256.61 181.7 250.96 191.86 250.31 200.49V212.18H185.37V200.49C184.72 191.86 179.07 181.7 172.54 169.93C163.49 153.66 153.25 135.25 153.25 117C153.25 99.8591 160.059 83.4202 172.18 71.2997C184.3 59.1792 200.739 52.37 217.88 52.37C235.021 52.37 251.46 59.1792 263.58 71.2997C275.701 83.4202 282.51 99.8591 282.51 117C282.44 135.25 272.2 153.66 263.15 169.93Z" fill="#534B48"/>
<path d="M220.64 106.33C224.03 106.33 227.344 107.335 230.162 109.219C232.981 111.102 235.178 113.779 236.475 116.911C237.773 120.043 238.112 123.489 237.451 126.814C236.789 130.139 235.157 133.193 232.76 135.59C230.363 137.987 227.309 139.619 223.984 140.281C220.659 140.942 217.213 140.603 214.081 139.305C210.949 138.008 208.272 135.811 206.389 132.992C204.505 130.174 203.5 126.86 203.5 123.47C203.503 118.925 205.309 114.567 208.523 111.353C211.737 108.139 216.095 106.333 220.64 106.33ZM220.64 98.33C215.667 98.328 210.806 99.8007 206.67 102.562C202.535 105.323 199.311 109.249 197.407 113.842C195.502 118.436 195.003 123.491 195.972 128.368C196.941 133.246 199.334 137.726 202.85 141.243C206.365 144.76 210.845 147.155 215.722 148.126C220.599 149.097 225.654 148.6 230.248 146.697C234.843 144.795 238.77 141.572 241.532 137.438C244.295 133.304 245.77 128.443 245.77 123.47C245.77 116.804 243.123 110.411 238.41 105.697C233.698 100.982 227.306 98.3326 220.64 98.33Z" fill="#F0544F"/>
<path d="M220.64 79.22C225.058 79.22 228.64 75.6383 228.64 71.22C228.64 66.8017 225.058 63.22 220.64 63.22C216.222 63.22 212.64 66.8017 212.64 71.22C212.64 75.6383 216.222 79.22 220.64 79.22Z" fill="#F0544F"/>
<path d="M224.15 75.12H217.13V98.72H224.15V75.12Z" fill="#F0544F"/>
<path d="M251.01 97.78C255.428 97.78 259.01 94.1983 259.01 89.78C259.01 85.3618 255.428 81.78 251.01 81.78C246.591 81.78 243.01 85.3618 243.01 89.78C243.01 94.1983 246.591 97.78 251.01 97.78Z" fill="#F0544F"/>
<path d="M250.731 95.0248L245.767 90.0609L233.81 102.018L238.774 106.982L250.731 95.0248Z" fill="#F0544F"/>
<path d="M260.06 131.34C264.478 131.34 268.06 127.758 268.06 123.34C268.06 118.922 264.478 115.34 260.06 115.34C255.642 115.34 252.06 118.922 252.06 123.34C252.06 127.758 255.642 131.34 260.06 131.34Z" fill="#F0544F"/>
<path d="M256.16 126.86V119.84H245.08V126.86H256.16Z" fill="#F0544F"/>
<path d="M171.39 132.61C175.808 132.61 179.39 129.028 179.39 124.61C179.39 120.192 175.808 116.61 171.39 116.61C166.972 116.61 163.39 120.192 163.39 124.61C163.39 129.028 166.972 132.61 171.39 132.61Z" fill="#F0544F"/>
<path d="M175.29 121.1V128.12H196.43V121.1H175.29Z" fill="#F0544F"/>
<path d="M191.69 101.92C196.108 101.92 199.69 98.3383 199.69 93.92C199.69 89.5018 196.108 85.92 191.69 85.92C187.272 85.92 183.69 89.5018 183.69 93.92C183.69 98.3383 187.272 101.92 191.69 101.92Z" fill="#F0544F"/>
<path d="M200.864 108.057L205.827 103.093L196.932 94.1979L191.968 99.1618L200.864 108.057Z" fill="#F0544F"/>
<path d="M220.82 179.4C225.238 179.4 228.82 175.818 228.82 171.4C228.82 166.982 225.238 163.4 220.82 163.4C216.402 163.4 212.82 166.982 212.82 171.4C212.82 175.818 216.402 179.4 220.82 179.4Z" fill="#F0544F"/>
<path d="M224.33 147.61H217.31V165.77H224.33V147.61Z" fill="#F0544F"/>
<path d="M242.92 156.82C247.338 156.82 250.92 153.238 250.92 148.82C250.92 144.402 247.338 140.82 242.92 140.82C238.502 140.82 234.92 144.402 234.92 148.82C234.92 153.238 238.502 156.82 242.92 156.82Z" fill="#F0544F"/>
<path d="M238.235 139.175L233.271 144.139L237.025 147.893L241.989 142.93L238.235 139.175Z" fill="#F0544F"/>
<path d="M194.57 158.54C198.988 158.54 202.57 154.958 202.57 150.54C202.57 146.122 198.988 142.54 194.57 142.54C190.152 142.54 186.57 146.122 186.57 150.54C186.57 154.958 190.152 158.54 194.57 158.54Z" fill="#F0544F"/>
<path d="M194.845 145.291L199.809 150.255L206.781 143.283L201.818 138.319L194.845 145.291Z" fill="#F0544F"/>
<g clip-path="url(#clip0_316_60)">
<rect width="375" height="418" transform="translate(32 446)" fill="white"/>
<rect x="32" y="639" width="375" height="86" fill="#6DD3CE"/>
<rect x="32" y="446" width="375" height="54" fill="#534B48"/>
<rect x="32" y="725" width="375" height="139" fill="#FDF0D5"/>
<rect x="32" y="500" width="375" height="139" fill="#F0544F"/>
</g>
<defs>
<clipPath id="clip0_316_60">
<rect width="375" height="418" fill="white" transform="translate(32 446)"/>
</clipPath>
</defs>
</svg>
