<svg width="86" height="86" viewBox="0 0 86 86" fill="none" xmlns="http://www.w3.org/2000/svg">
<rect width="86" height="86" fill="white"/>
<path d="M42.7702 11C37.274 11.0062 32.0046 13.1917 28.1174 17.0774C24.2303 20.9631 22.0427 26.2317 22.0345 31.728C22.0345 37.486 25.0887 42.9768 27.5356 47.3881C28.9239 49.887 30.2317 52.2457 30.39 53.6418V62.2438C30.3663 63.8859 30.6692 65.5163 31.2811 67.0403C31.8931 68.5643 32.8019 69.9514 33.9547 71.121C35.1075 72.2906 36.4813 73.2194 37.9963 73.8533C39.5112 74.4873 41.1371 74.8137 42.7793 74.8137C44.4216 74.8137 46.0474 74.4873 47.5624 73.8533C49.0773 73.2194 50.4511 72.2906 51.6039 71.121C52.7568 69.9514 53.6656 68.5643 54.2775 67.0403C54.8895 65.5163 55.1924 63.8859 55.1686 62.2438V53.6392C55.3191 52.2431 56.6269 49.8844 58.023 47.3855C60.47 42.9742 63.5241 37.473 63.5241 31.7254C63.5152 26.2265 61.3249 20.9557 57.4339 17.0701C53.5429 13.1845 48.2691 11.0014 42.7702 11V11ZM34.3472 62.2438V60.3911H51.1958V62.3736H34.3472V62.2438ZM42.7702 70.6694C41.2695 70.6696 39.796 70.2681 38.5029 69.5065C37.2097 68.7449 36.144 67.6511 35.4163 66.3386H50.1267C49.3984 67.6511 48.3322 68.7449 47.0386 69.5064C45.7451 70.268 44.2713 70.6695 42.7702 70.6694V70.6694ZM54.538 45.4627C52.841 48.5169 51.3749 51.1533 51.2062 53.3927V56.4261H34.355V53.3927C34.1863 51.1533 32.7202 48.5169 31.0258 45.4627C28.6774 41.2408 26.0202 36.4636 26.0202 31.728C26.0202 27.2801 27.7871 23.0144 30.9323 19.8692C34.0774 16.7241 38.3431 14.9572 42.791 14.9572C47.2389 14.9572 51.5046 16.7241 54.6497 19.8692C57.7948 23.0144 59.5617 27.2801 59.5617 31.728C59.5436 36.4636 56.8864 41.2408 54.538 45.4627Z" fill="#534B48"/>
<path d="M43.5071 28.9592C44.3868 28.9592 45.2467 29.2201 45.9781 29.7088C46.7095 30.1975 47.2796 30.8921 47.6162 31.7048C47.9528 32.5175 48.0409 33.4118 47.8693 34.2745C47.6977 35.1373 47.2741 35.9298 46.6521 36.5518C46.0301 37.1738 45.2376 37.5974 44.3748 37.769C43.5121 37.9406 42.6178 37.8526 41.8051 37.5159C40.9924 37.1793 40.2978 36.6092 39.8091 35.8778C39.3203 35.1464 39.0595 34.2865 39.0595 33.4068C39.0602 32.2275 39.529 31.0966 40.3629 30.2627C41.1969 29.4287 42.3278 28.9599 43.5071 28.9592V28.9592ZM43.5071 26.8833C42.2168 26.8828 40.9553 27.2649 39.8821 27.9815C38.809 28.698 37.9725 29.7166 37.4783 30.9086C36.9842 32.1006 36.8546 33.4123 37.106 34.6779C37.3574 35.9436 37.9785 37.1062 38.8908 38.0188C39.803 38.9314 40.9654 39.5529 42.2309 39.8049C43.4964 40.0568 44.8082 39.9277 46.0004 39.4341C47.1926 38.9404 48.2116 38.1043 48.9285 37.0314C49.6454 35.9586 50.0281 34.6972 50.0281 33.4068C50.0281 31.6771 49.3411 30.0182 48.1183 28.7949C46.8955 27.5716 45.2368 26.884 43.5071 26.8833Z" fill="#F0544F"/>
<path d="M43.5072 21.9248C44.6537 21.9248 45.5831 20.9954 45.5831 19.8489C45.5831 18.7024 44.6537 17.7729 43.5072 17.7729C42.3607 17.7729 41.4313 18.7024 41.4313 19.8489C41.4313 20.9954 42.3607 21.9248 43.5072 21.9248Z" fill="#F0544F"/>
<path d="M44.418 20.8604H42.5964V26.9843H44.418V20.8604Z" fill="#F0544F"/>
<path d="M51.3878 26.7407C52.5343 26.7407 53.4637 25.8113 53.4637 24.6648C53.4637 23.5183 52.5343 22.5889 51.3878 22.5889C50.2413 22.5889 49.3119 23.5183 49.3119 24.6648C49.3119 25.8113 50.2413 26.7407 51.3878 26.7407Z" fill="#F0544F"/>
<path d="M51.3156 26.0259L50.0275 24.7378L46.9248 27.8405L48.2128 29.1286L51.3156 26.0259Z" fill="#F0544F"/>
<path d="M53.7361 35.4487C54.8826 35.4487 55.8121 34.5193 55.8121 33.3728C55.8121 32.2263 54.8826 31.2969 53.7361 31.2969C52.5897 31.2969 51.6602 32.2263 51.6602 33.3728C51.6602 34.5193 52.5897 35.4487 53.7361 35.4487Z" fill="#F0544F"/>
<path d="M52.7242 34.2869V32.4653H49.8491V34.2869H52.7242Z" fill="#F0544F"/>
<path d="M30.7274 35.7783C31.8738 35.7783 32.8033 34.8489 32.8033 33.7024C32.8033 32.5559 31.8738 31.6265 30.7274 31.6265C29.5809 31.6265 28.6514 32.5559 28.6514 33.7024C28.6514 34.8489 29.5809 35.7783 30.7274 35.7783Z" fill="#F0544F"/>
<path d="M31.7393 32.7922V34.6138H37.2249V32.7922H31.7393Z" fill="#F0544F"/>
<path d="M35.995 27.8149C37.1414 27.8149 38.0709 26.8855 38.0709 25.739C38.0709 24.5925 37.1414 23.6631 35.995 23.6631C34.8485 23.6631 33.919 24.5925 33.919 25.739C33.919 26.8855 34.8485 27.8149 35.995 27.8149Z" fill="#F0544F"/>
<path d="M38.3754 29.4072L39.6635 28.1191L37.3552 25.8109L36.0672 27.099L38.3754 29.4072Z" fill="#F0544F"/>
<path d="M43.5538 47.9199C44.7003 47.9199 45.6297 46.9905 45.6297 45.844C45.6297 44.6975 44.7003 43.7681 43.5538 43.7681C42.4073 43.7681 41.4779 44.6975 41.4779 45.844C41.4779 46.9905 42.4073 47.9199 43.5538 47.9199Z" fill="#F0544F"/>
<path d="M44.4646 39.6709H42.643V44.3832H44.4646V39.6709Z" fill="#F0544F"/>
<path d="M49.2886 42.0605C50.4351 42.0605 51.3645 41.1311 51.3645 39.9846C51.3645 38.8381 50.4351 37.9087 49.2886 37.9087C48.1421 37.9087 47.2127 38.8381 47.2127 39.9846C47.2127 41.1311 48.1421 42.0605 49.2886 42.0605Z" fill="#F0544F"/>
<path d="M48.0729 37.4819L46.7848 38.77L47.7591 39.7443L49.0472 38.4563L48.0729 37.4819Z" fill="#F0544F"/>
<path d="M36.7422 42.5073C37.8887 42.5073 38.8181 41.5779 38.8181 40.4314C38.8181 39.2849 37.8887 38.3555 36.7422 38.3555C35.5957 38.3555 34.6663 39.2849 34.6663 40.4314C34.6663 41.5779 35.5957 42.5073 36.7422 42.5073Z" fill="#F0544F"/>
<path d="M36.8139 39.0689L38.102 40.3569L39.9111 38.5478L38.6231 37.2597L36.8139 39.0689Z" fill="#F0544F"/>
</svg>
