<svg width="832" height="184" viewBox="0 0 832 184" fill="none" xmlns="http://www.w3.org/2000/svg">
<path d="M57.9794 1C45.5271 1.01399 33.5885 5.96567 24.7816 14.7692C15.9748 23.5727 11.0187 35.5094 11 47.9618C11 61.0074 17.9196 73.4474 23.4636 83.4418C26.6089 89.1033 29.5719 94.4474 29.9305 97.6103V117.099C29.8767 120.82 30.5629 124.514 31.9494 127.966C33.3359 131.419 35.3949 134.562 38.0067 137.212C40.6185 139.862 43.7311 141.966 47.1634 143.402C50.5957 144.838 54.2793 145.578 58 145.578C61.7207 145.578 65.4043 144.838 68.8366 143.402C72.2689 141.966 75.3815 139.862 77.9933 137.212C80.6051 134.562 82.6642 131.419 84.0506 127.966C85.4371 124.514 86.1233 120.82 86.0695 117.099V97.6044C86.4105 94.4415 89.3735 89.0974 92.5364 83.4359C98.0804 73.4416 105 60.978 105 47.9559C104.98 35.4974 100.017 23.556 91.2017 14.7526C82.3862 5.94916 70.4379 1.0031 57.9794 1ZM38.8961 117.099V112.902H77.0687V117.393H38.8961V117.099ZM57.9794 136.189C54.5793 136.189 51.241 135.279 48.3112 133.554C45.3814 131.828 42.9669 129.35 41.3182 126.376H74.6465C72.9964 129.35 70.5807 131.828 67.65 133.554C64.7193 135.279 61.3803 136.189 57.9794 136.189ZM84.6409 79.0796C80.796 85.9992 77.4743 91.9723 77.0922 97.0459V103.919H38.9137V97.0459C38.5316 91.9723 35.2099 85.9992 31.3709 79.0796C26.0503 69.5144 20.0302 58.691 20.0302 47.9618C20.0302 37.8846 24.0334 28.2201 31.1591 21.0944C38.2847 13.9687 47.9492 9.96554 58.0265 9.96554C68.1037 9.96554 77.7682 13.9687 84.8939 21.0944C92.0195 28.2201 96.0227 37.8846 96.0227 47.9618C95.9816 58.691 89.9614 69.5144 84.6409 79.0796Z" fill="#534B48"/>
<path d="M59.6491 41.6891C61.6421 41.6891 63.5903 42.2801 65.2474 43.3873C66.9045 44.4945 68.196 46.0683 68.9587 47.9096C69.7214 49.7508 69.9209 51.7769 69.5321 53.7316C69.1433 55.6863 68.1836 57.4818 66.7744 58.891C65.3651 60.3003 63.5696 61.26 61.6149 61.6488C59.6603 62.0376 57.6342 61.8381 55.7929 61.0754C53.9516 60.3127 52.3779 59.0212 51.2706 57.3641C50.1634 55.707 49.5724 53.7587 49.5724 51.7658C49.574 49.0937 50.6361 46.5316 52.5255 44.6422C54.4149 42.7528 56.9771 41.6906 59.6491 41.6891ZM59.6491 36.9858C56.7256 36.9847 53.8675 37.8505 51.4362 39.4738C49.0049 41.0972 47.1096 43.4051 45.99 46.1056C44.8705 48.8062 44.5769 51.7782 45.1466 54.6456C45.7162 57.513 47.1234 60.1471 49.1901 62.2147C51.2569 64.2822 53.8904 65.6905 56.7576 66.2612C59.6248 66.832 62.5968 66.5397 65.2979 65.4212C67.9989 64.3027 70.3075 62.4083 71.9318 59.9776C73.5561 57.547 74.4231 54.6892 74.4231 51.7658C74.4231 47.8469 72.8668 44.0885 70.0963 41.3169C67.3258 38.5453 63.5679 36.9874 59.6491 36.9858Z" fill="#F0544F"/>
<path d="M59.649 25.7507C62.2466 25.7507 64.3523 23.645 64.3523 21.0475C64.3523 18.4499 62.2466 16.3442 59.649 16.3442C57.0515 16.3442 54.9458 18.4499 54.9458 21.0475C54.9458 23.645 57.0515 25.7507 59.649 25.7507Z" fill="#F0544F"/>
<path d="M61.7125 23.3403H57.5854V37.2149H61.7125V23.3403Z" fill="#F0544F"/>
<path d="M77.5035 36.6623C80.1011 36.6623 82.2068 34.5566 82.2068 31.9591C82.2068 29.3616 80.1011 27.2559 77.5035 27.2559C74.906 27.2559 72.8003 29.3616 72.8003 31.9591C72.8003 34.5566 74.906 36.6623 77.5035 36.6623Z" fill="#F0544F"/>
<path d="M77.3399 35.0423L74.4216 32.124L67.392 39.1537L70.3102 42.072L77.3399 35.0423Z" fill="#F0544F"/>
<path d="M82.8241 56.3923C85.4216 56.3923 87.5273 54.2866 87.5273 51.6891C87.5273 49.0915 85.4216 46.9858 82.8241 46.9858C80.2266 46.9858 78.1208 49.0915 78.1208 51.6891C78.1208 54.2866 80.2266 56.3923 82.8241 56.3923Z" fill="#F0544F"/>
<path d="M80.5315 53.7584V49.6313H74.0175V53.7584H80.5315Z" fill="#F0544F"/>
<path d="M30.6947 57.1389C33.2922 57.1389 35.3979 55.0332 35.3979 52.4357C35.3979 49.8381 33.2922 47.7324 30.6947 47.7324C28.0972 47.7324 25.9915 49.8381 25.9915 52.4357C25.9915 55.0332 28.0972 57.1389 30.6947 57.1389Z" fill="#F0544F"/>
<path d="M32.9875 50.3724V54.4995H45.4158V50.3724H32.9875Z" fill="#F0544F"/>
<path d="M42.6293 39.0964C45.2268 39.0964 47.3325 36.9907 47.3325 34.3932C47.3325 31.7957 45.2268 29.6899 42.6293 29.6899C40.0317 29.6899 37.926 31.7957 37.926 34.3932C37.926 36.9907 40.0317 39.0964 42.6293 39.0964Z" fill="#F0544F"/>
<path d="M48.0224 42.7044L50.9407 39.7861L45.711 34.5565L42.7927 37.4748L48.0224 42.7044Z" fill="#F0544F"/>
<path d="M59.7548 84.6472C62.3523 84.6472 64.458 82.5415 64.458 79.944C64.458 77.3464 62.3523 75.2407 59.7548 75.2407C57.1572 75.2407 55.0515 77.3464 55.0515 79.944C55.0515 82.5415 57.1572 84.6472 59.7548 84.6472Z" fill="#F0544F"/>
<path d="M61.8183 65.9575H57.6912V76.6339H61.8183V65.9575Z" fill="#F0544F"/>
<path d="M72.7477 71.3723C75.3452 71.3723 77.4509 69.2666 77.4509 66.6691C77.4509 64.0715 75.3452 61.9658 72.7477 61.9658C70.1501 61.9658 68.0444 64.0715 68.0444 66.6691C68.0444 69.2666 70.1501 71.3723 72.7477 71.3723Z" fill="#F0544F"/>
<path d="M69.9932 60.9982L67.075 63.9165L69.2824 66.1239L72.2007 63.2056L69.9932 60.9982Z" fill="#F0544F"/>
<path d="M44.3221 72.3835C46.9197 72.3835 49.0254 70.2778 49.0254 67.6803C49.0254 65.0828 46.9197 62.9771 44.3221 62.9771C41.7246 62.9771 39.6189 65.0828 39.6189 67.6803C39.6189 70.2778 41.7246 72.3835 44.3221 72.3835Z" fill="#F0544F"/>
<path d="M44.4845 64.5944L47.4028 67.5127L51.5017 63.4138L48.5834 60.4955L44.4845 64.5944Z" fill="#F0544F"/>
<path d="M162.976 63.136C160.971 62.4533 158.581 62.112 155.808 62.112C148.768 62.112 145.248 67.3387 145.248 77.792C145.248 87.6053 148.875 92.512 156.128 92.512C158.005 92.512 159.947 92.1493 161.952 91.424C164 90.656 165.579 89.888 166.688 89.12L168.288 88.032L171.808 93.792C171.637 93.9627 171.381 94.2187 171.04 94.56C170.699 94.8587 169.952 95.4133 168.8 96.224C167.691 97.0347 166.517 97.7387 165.28 98.336C164.043 98.9333 162.485 99.488 160.608 100C158.773 100.512 156.917 100.768 155.04 100.768C148.512 100.768 143.456 98.848 139.872 95.008C136.331 91.1253 134.56 85.4933 134.56 78.112C134.56 70.6453 136.501 64.7787 140.384 60.512C144.267 56.2453 149.515 54.112 156.128 54.112C158.432 54.112 160.821 54.368 163.296 54.88C165.771 55.3493 167.669 55.84 168.992 56.352L171.04 57.12L170.72 69.28H164.448L162.976 63.136ZM193.27 64.8C198.433 64.8 202.401 66.3147 205.174 69.344C207.99 72.3307 209.398 76.576 209.398 82.08C209.398 87.7973 207.841 92.32 204.726 95.648C201.654 98.976 197.515 100.64 192.31 100.64C181.43 100.64 175.99 94.7733 175.99 83.04C175.99 77.3227 177.547 72.864 180.662 69.664C183.777 66.4213 187.979 64.8 193.27 64.8ZM192.95 72.16C190.518 72.16 188.726 72.9493 187.574 74.528C186.465 76.1067 185.91 78.8373 185.91 82.72C185.91 86.3893 186.443 89.0773 187.51 90.784C188.577 92.448 190.283 93.28 192.63 93.28C194.977 93.28 196.705 92.448 197.814 90.784C198.923 89.12 199.478 86.3253 199.478 82.4C199.478 78.944 198.945 76.384 197.878 74.72C196.854 73.0133 195.211 72.16 192.95 72.16ZM230.953 90.4L236.585 71.712L232.873 70.88V65.76L249.641 65.44V70.88L245.993 71.712L235.689 100H225.129L215.017 71.904L211.945 70.88V65.76L228.713 65.44V70.88L225.129 71.52L230.953 90.4ZM252.178 65.952L266.706 65.44V93.28L271.186 94.88V100H252.178V94.88L257.298 93.28V72.352L252.178 71.072V65.952ZM256.082 54.88C256.082 53.1307 256.615 51.744 257.682 50.72C258.791 49.6533 260.092 49.12 261.586 49.12C265.17 49.12 266.962 51.04 266.962 54.88C266.962 56.672 266.407 58.1013 265.298 59.168C264.231 60.192 262.994 60.704 261.586 60.704C259.836 60.704 258.471 60.2133 257.49 59.232C256.551 58.208 256.082 56.7573 256.082 54.88ZM311.723 99.552L298.283 100L297.707 96.608C295.019 99.296 291.798 100.64 288.043 100.64C283.648 100.64 280.363 99.1467 278.187 96.16C276.011 93.1733 274.923 88.9707 274.923 83.552C274.923 77.4933 276.438 72.864 279.467 69.664C282.539 66.4213 287.062 64.8 293.035 64.8C294.443 64.8 295.83 65.0133 297.195 65.44V57.312L292.075 56.032V50.912L306.603 50.4V93.152L311.723 94.432V99.552ZM297.195 89.504V73.12C296.128 72.48 294.464 72.16 292.203 72.16C287.296 72.16 284.843 75.7867 284.843 83.04C284.843 89.7813 286.891 93.152 290.987 93.152C292.182 93.152 293.291 92.8533 294.315 92.256C295.382 91.616 296.128 90.9973 296.555 90.4L297.195 89.504Z" fill="#534B48"/>
<path d="M334.635 94.432V100H315.115V94.432L319.915 92.832V62.432L315.115 60.512V55.2L334.635 54.88V60.512L329.835 62.432V92.832L334.635 94.432ZM371.563 109.408L358.635 100.704C352.704 100.32 348.182 98.1867 345.067 94.304C341.952 90.4213 340.395 84.9173 340.395 77.792C340.395 70.496 342.336 64.736 346.219 60.512C350.102 56.2453 355.35 54.112 361.963 54.112C368.491 54.112 373.504 56.1173 377.003 60.128C380.544 64.096 382.315 69.664 382.315 76.832C382.315 82.336 381.142 87.0507 378.795 90.976C376.448 94.9013 373.184 97.6747 369.003 99.296C369.344 99.5093 370.283 100.128 371.819 101.152C373.398 102.219 374.55 102.965 375.275 103.392C376 103.819 376.96 104.267 378.155 104.736C379.392 105.205 380.459 105.44 381.355 105.44C381.952 105.44 382.742 105.248 383.723 104.864C384.704 104.523 385.536 104.16 386.219 103.776L387.243 103.2C387.67 103.84 388.288 104.779 389.099 106.016C389.91 107.253 390.422 108.021 390.635 108.32C390.123 108.661 389.462 109.067 388.651 109.536C387.84 110.048 386.454 110.709 384.491 111.52C382.571 112.373 380.992 112.8 379.755 112.8C377.622 112.8 374.891 111.669 371.563 109.408ZM361.643 62.112C358.016 62.112 355.328 63.3493 353.579 65.824C351.83 68.256 350.955 72.1387 350.955 77.472C350.955 87.712 354.304 92.832 361.003 92.832C364.63 92.832 367.318 91.552 369.067 88.992C370.859 86.432 371.755 82.4853 371.755 77.152C371.755 71.9893 370.944 68.192 369.323 65.76C367.702 63.328 365.142 62.112 361.643 62.112Z" fill="#FE5F55"/>
<path d="M394.192 98.48C393.264 98.48 392.512 98.192 391.936 97.616C391.392 97.008 391.12 96.192 391.12 95.168C391.12 94.112 391.408 93.28 391.984 92.672C392.592 92.064 393.36 91.76 394.288 91.76C395.216 91.76 395.952 92.064 396.496 92.672C397.072 93.248 397.36 94.064 397.36 95.12C397.36 96.144 397.056 96.96 396.448 97.568C395.872 98.176 395.12 98.48 394.192 98.48ZM402.389 85.664C402.389 83.616 402.677 81.76 403.253 80.096C403.861 78.4 404.709 76.96 405.797 75.776C406.885 74.592 408.165 73.68 409.637 73.04C411.141 72.4 412.789 72.08 414.581 72.08C418.165 72.08 420.949 73.216 422.933 75.488C424.917 77.76 425.909 80.912 425.909 84.944C425.909 86.928 425.621 88.752 425.045 90.416C424.469 92.048 423.653 93.472 422.597 94.688C421.573 95.872 420.309 96.8 418.805 97.472C417.333 98.144 415.685 98.48 413.861 98.48C410.213 98.48 407.381 97.392 405.365 95.216C403.381 93.04 402.389 89.856 402.389 85.664ZM414.389 75.92C409.749 75.92 407.429 79.04 407.429 85.28C407.429 91.52 409.669 94.64 414.149 94.64C416.485 94.64 418.181 93.84 419.237 92.24C420.325 90.64 420.869 88.24 420.869 85.04C420.869 78.96 418.709 75.92 414.389 75.92ZM437.684 72.56L438.116 76.064C440.484 73.408 442.9 72.08 445.364 72.08C446.676 72.08 447.94 72.272 449.156 72.656L449.684 72.8L449.444 79.76H446.324L445.604 76.16C442.852 76.16 440.532 77.408 438.644 79.904V94.16L443.444 95.36V98H429.764V95.36L433.844 94.16V76.4L429.764 75.44V72.8L437.684 72.56ZM463.116 90.32C461.708 90.32 460.508 90.176 459.516 89.888L459.276 94.4H466.716C469.852 94.4 472.236 94.992 473.868 96.176C475.5 97.36 476.316 99.152 476.316 101.552C476.316 104.144 475.26 106.192 473.148 107.696C471.036 109.232 467.932 110 463.836 110C456.156 110 452.316 107.68 452.316 103.04C452.316 101.024 453.388 99.312 455.532 97.904C456.044 97.584 456.652 97.296 457.356 97.04C456.492 96.912 455.788 96.608 455.244 96.128C454.732 95.648 454.476 95.104 454.476 94.496C454.476 93.44 455.1 91.904 456.348 89.888L456.972 88.88C456.684 88.784 456.284 88.496 455.772 88.016C455.292 87.536 454.892 87.056 454.572 86.576C453.708 85.232 453.276 83.52 453.276 81.44C453.276 78.4 454.22 76.08 456.108 74.48C458.028 72.88 460.604 72.08 463.836 72.08C465.628 72.08 467.052 72.304 468.108 72.752L468.636 72.992L477.036 72.8V75.44L472.38 76.112C473.244 77.264 473.676 78.88 473.676 80.96C473.676 84.096 472.732 86.448 470.844 88.016C468.956 89.552 466.38 90.32 463.116 90.32ZM465.516 98H460.236C460.076 98.064 459.756 98.256 459.276 98.576C458.828 98.928 458.476 99.248 458.22 99.536C457.484 100.368 457.116 101.296 457.116 102.32C457.116 103.888 457.724 104.96 458.94 105.536C460.188 106.112 462.06 106.4 464.556 106.4C469.356 106.4 471.756 104.88 471.756 101.84C471.756 100.368 471.228 99.36 470.172 98.816C469.148 98.272 467.596 98 465.516 98ZM463.596 75.44C459.916 75.44 458.076 77.36 458.076 81.2C458.076 82.96 458.524 84.368 459.42 85.424C460.316 86.448 461.612 86.96 463.308 86.96C465.26 86.96 466.668 86.512 467.532 85.616C468.428 84.688 468.876 83.216 468.876 81.2C468.876 77.36 467.116 75.44 463.596 75.44Z" fill="#534B48"/>
<line x1="522.5" y1="23" x2="522.5" y2="128" stroke="#DBD9E9"/>
<path d="M549.96 71V69.56L552 69.08V56.12L549.96 55.64V54.32L554.52 54.2H557.04C558.816 54.2 560.176 54.64 561.12 55.52C562.08 56.4 562.56 57.6 562.56 59.12C562.56 60.96 561.992 62.36 560.856 63.32C559.736 64.28 558.144 64.76 556.08 64.76H554.52V69.08L556.56 69.56V71H549.96ZM554.52 56.12V62.84H556.08C558.72 62.84 560.04 61.72 560.04 59.48C560.04 58.488 559.768 57.68 559.224 57.056C558.68 56.432 557.912 56.12 556.92 56.12H554.52ZM568.076 58.28L568.292 60.032C569.476 58.704 570.684 58.04 571.916 58.04C572.572 58.04 573.204 58.136 573.812 58.328L574.076 58.4L573.956 61.88H572.396L572.036 60.08C570.66 60.08 569.5 60.704 568.556 61.952V69.08L570.956 69.68V71H564.116V69.68L566.156 69.08V60.2L564.116 59.72V58.4L568.076 58.28ZM578.393 52.64C579.433 52.64 579.953 53.24 579.953 54.44C579.953 54.936 579.777 55.32 579.425 55.592C579.073 55.864 578.697 56 578.297 56C577.865 56 577.513 55.856 577.241 55.568C576.969 55.264 576.833 54.848 576.833 54.32C576.833 53.792 576.977 53.384 577.265 53.096C577.569 52.792 577.945 52.64 578.393 52.64ZM579.713 58.28V69.08L581.513 69.68V71H575.273V69.68L577.312 69.08V60.2L575.273 59.72V58.4L579.713 58.28ZM587.872 58.28V59.72L586.192 59.96L589.048 68.84L591.928 60.08L590.272 59.72V58.4L595.648 58.28V59.72L594.328 59.96L590.248 71H587.608L583.672 60.08L582.472 59.72V58.4L587.872 58.28ZM597.558 59C599.286 58.36 600.87 58.04 602.31 58.04C603.718 58.04 604.798 58.328 605.55 58.904C606.302 59.464 606.678 60.416 606.678 61.76V69.08L608.598 69.56V70.88L604.878 71L604.374 69.32C603.094 70.6 601.83 71.24 600.582 71.24C599.334 71.24 598.398 70.928 597.774 70.304C597.15 69.68 596.838 68.792 596.838 67.64C596.838 65.16 598.678 63.92 602.358 63.92H604.278V62C604.278 60.56 603.518 59.84 601.998 59.84C601.134 59.84 600.422 59.928 599.862 60.104L599.574 60.2L599.238 62H597.678L597.558 59ZM604.278 65.48H602.598C601.398 65.48 600.542 65.64 600.03 65.96C599.534 66.264 599.286 66.744 599.286 67.4C599.286 68.024 599.43 68.504 599.718 68.84C600.022 69.16 600.454 69.32 601.014 69.32C601.286 69.32 601.558 69.272 601.83 69.176C602.118 69.08 602.39 68.96 602.646 68.816C602.918 68.672 603.158 68.52 603.366 68.36C603.574 68.184 603.742 68.024 603.87 67.88L604.278 67.4V65.48ZM620.488 62.24H618.928L618.568 60.2C617.944 60.04 617.224 59.96 616.408 59.96C615.256 59.96 614.368 60.328 613.744 61.064C613.12 61.8 612.808 62.944 612.808 64.496C612.808 66.048 613.136 67.24 613.792 68.072C614.448 68.904 615.36 69.32 616.528 69.32C616.864 69.32 617.192 69.288 617.512 69.224C617.848 69.16 618.16 69.08 618.448 68.984C618.752 68.872 619.024 68.752 619.264 68.624C619.504 68.496 619.696 68.368 619.84 68.24L620.248 67.88L621.088 69.32L620.824 69.536C620.632 69.696 620.368 69.88 620.032 70.088C619.696 70.28 619.32 70.464 618.904 70.64C618.504 70.8 618.072 70.936 617.608 71.048C617.16 71.176 616.72 71.24 616.288 71.24C614.336 71.24 612.848 70.664 611.824 69.512C610.8 68.344 610.288 66.752 610.288 64.736C610.288 63.744 610.432 62.84 610.72 62.024C611.024 61.192 611.448 60.488 611.992 59.912C612.536 59.32 613.192 58.864 613.96 58.544C614.728 58.208 615.584 58.04 616.528 58.04C616.848 58.04 617.176 58.064 617.512 58.112C617.848 58.16 618.176 58.216 618.496 58.28C618.816 58.344 619.112 58.424 619.384 58.52C619.656 58.6 619.888 58.68 620.08 58.76L620.608 59L620.488 62.24ZM627.443 58.28V59.72L625.763 59.96L628.643 68.36L631.283 60.08L629.603 59.72V58.4L635.291 58.28V59.72L633.731 59.96L630.323 69.464C629.523 71.56 628.931 72.952 628.547 73.64C627.347 75.704 625.779 76.744 623.843 76.76L622.307 76.64L622.523 74.96H623.723C624.507 74.96 625.187 74.632 625.763 73.976C626.355 73.32 626.947 72.344 627.539 71.048L623.243 60.08L621.803 59.72V58.4L627.443 58.28ZM636.854 65.48V63.44H643.094V65.48H636.854ZM655.094 56.12H649.934V61.52H655.454V63.44H649.934V69.08L652.334 69.56V71H645.374V69.56L647.414 69.08V56.12L645.374 55.64V54.32L649.934 54.2H657.254V58.16H655.694L655.094 56.12ZM662.182 52.64C663.222 52.64 663.742 53.24 663.742 54.44C663.742 54.936 663.566 55.32 663.214 55.592C662.862 55.864 662.486 56 662.086 56C661.654 56 661.302 55.856 661.03 55.568C660.758 55.264 660.622 54.848 660.622 54.32C660.622 53.792 660.766 53.384 661.054 53.096C661.358 52.792 661.734 52.64 662.182 52.64ZM663.502 58.28V69.08L665.302 69.68V71H659.062V69.68L661.102 69.08V60.2L659.062 59.72V58.4L663.502 58.28ZM671.061 58.28L671.277 60.032C672.461 58.704 673.669 58.04 674.901 58.04C675.557 58.04 676.189 58.136 676.797 58.328L677.061 58.4L676.941 61.88H675.381L675.021 60.08C673.645 60.08 672.485 60.704 671.541 61.952V69.08L673.941 69.68V71H667.101V69.68L669.141 69.08V60.2L667.101 59.72V58.4L671.061 58.28ZM678.401 67.16H680.081L680.345 69.224C680.505 69.288 680.753 69.344 681.089 69.392C681.441 69.424 681.785 69.44 682.121 69.44C683.161 69.44 683.913 69.288 684.377 68.984C684.857 68.664 685.097 68.184 685.097 67.544C685.097 67.112 684.929 66.768 684.593 66.512C684.273 66.256 683.865 66.04 683.369 65.864C682.873 65.688 682.329 65.512 681.737 65.336C681.161 65.16 680.625 64.936 680.129 64.664C679.633 64.376 679.217 64.008 678.881 63.56C678.561 63.112 678.401 62.52 678.401 61.784C678.401 60.584 678.801 59.672 679.601 59.048C680.401 58.408 681.465 58.072 682.793 58.04C683.353 58.056 683.921 58.104 684.497 58.184C685.089 58.248 685.689 58.376 686.297 58.568L686.897 58.76L686.825 62H685.265L684.881 60.128C684.753 60.08 684.505 60.024 684.137 59.96C683.769 59.88 683.377 59.84 682.961 59.84C682.673 59.84 682.401 59.864 682.145 59.912C681.889 59.96 681.657 60.04 681.449 60.152C681.257 60.264 681.097 60.424 680.969 60.632C680.857 60.84 680.801 61.096 680.801 61.4C680.801 61.864 680.961 62.232 681.281 62.504C681.617 62.76 682.033 62.984 682.529 63.176C683.025 63.368 683.561 63.552 684.137 63.728C684.729 63.904 685.273 64.136 685.769 64.424C686.265 64.696 686.673 65.048 686.993 65.48C687.329 65.912 687.497 66.48 687.497 67.184C687.497 67.856 687.353 68.448 687.065 68.96C686.777 69.472 686.385 69.904 685.889 70.256C685.409 70.592 684.841 70.84 684.185 71C683.545 71.176 682.857 71.264 682.121 71.264C681.849 71.264 681.561 71.248 681.257 71.216C680.969 71.2 680.681 71.168 680.393 71.12C680.105 71.088 679.833 71.048 679.577 71C679.337 70.952 679.137 70.904 678.977 70.856L678.425 70.712L678.401 67.16ZM693.874 54.896V58.4H697.354V60.2H693.874V67.904C693.874 68.88 694.274 69.368 695.074 69.368C695.586 69.368 696.21 69.168 696.946 68.768L697.594 70.04C696.506 70.84 695.386 71.24 694.234 71.24C693.418 71.24 692.754 70.976 692.242 70.448C691.73 69.904 691.474 69.008 691.474 67.76V60.2H689.074V58.64L691.474 58.4V55.376L693.874 54.896ZM716.074 59.216L715.426 56.48C714.562 56.16 713.538 56 712.354 56C710.722 56 709.474 56.592 708.61 57.776C707.746 58.96 707.314 60.616 707.314 62.744C707.314 64.888 707.778 66.48 708.706 67.52C709.65 68.56 710.906 69.08 712.474 69.08C712.826 69.08 713.202 69.04 713.602 68.96C714.018 68.88 714.418 68.768 714.802 68.624C715.186 68.464 715.538 68.304 715.858 68.144C716.178 67.968 716.442 67.8 716.65 67.64L717.274 67.16L718.234 68.72C717.882 69.072 717.474 69.4 717.01 69.704C716.562 70.008 716.074 70.28 715.546 70.52C715.034 70.744 714.498 70.92 713.938 71.048C713.378 71.176 712.81 71.24 712.234 71.24C709.786 71.24 707.89 70.536 706.546 69.128C705.218 67.704 704.554 65.632 704.554 62.912C704.554 61.552 704.738 60.32 705.106 59.216C705.49 58.112 706.034 57.176 706.738 56.408C707.442 55.624 708.282 55.024 709.258 54.608C710.25 54.176 711.362 53.96 712.594 53.96C712.962 53.96 713.362 53.992 713.794 54.056C714.242 54.104 714.674 54.176 715.09 54.272C715.522 54.368 715.922 54.472 716.29 54.584C716.674 54.68 716.986 54.776 717.226 54.872L717.994 55.16L717.874 59.216H716.074ZM720.503 62.792C720.503 61.448 720.679 60.232 721.031 59.144C721.399 58.056 721.927 57.128 722.615 56.36C723.303 55.576 724.119 54.984 725.062 54.584C726.023 54.168 727.087 53.96 728.255 53.96C729.423 53.96 730.471 54.16 731.398 54.56C732.327 54.944 733.111 55.504 733.751 56.24C734.407 56.976 734.903 57.864 735.239 58.904C735.575 59.944 735.743 61.112 735.743 62.408C735.743 63.704 735.551 64.896 735.167 65.984C734.783 67.056 734.239 67.984 733.535 68.768C732.847 69.536 732.015 70.144 731.039 70.592C730.063 71.024 728.983 71.24 727.799 71.24C725.447 71.24 723.639 70.512 722.375 69.056C721.127 67.6 720.503 65.512 720.503 62.792ZM728.183 56C724.903 56 723.263 58.2 723.263 62.6C723.263 67 724.823 69.2 727.943 69.2C729.543 69.2 730.783 68.64 731.663 67.52C732.543 66.4 732.983 64.72 732.983 62.48C732.983 58.16 731.383 56 728.183 56ZM743.908 71L738.796 56.12L736.948 55.64V54.32L743.668 54.2V55.64L741.484 56.096L745.252 67.76L749.26 56.12L747.028 55.64V54.32L753.508 54.2V55.64L751.636 56.12L746.308 71H743.908ZM761.193 69.56V71H754.593V69.56L756.633 69.08V56.12L754.593 55.64V54.32L761.193 54.2V55.64L759.153 56.12V69.08L761.193 69.56ZM768.164 69.08H770.924C772.508 69.08 773.74 68.536 774.62 67.448C775.516 66.36 775.964 64.72 775.964 62.528C775.964 60.32 775.532 58.704 774.668 57.68C773.804 56.64 772.596 56.12 771.044 56.12H768.164V69.08ZM763.604 71V69.56L765.644 69.08V56.12L763.604 55.64V54.32L768.164 54.2H771.164C772.348 54.2 773.404 54.384 774.332 54.752C775.276 55.104 776.068 55.632 776.708 56.336C777.364 57.024 777.86 57.88 778.196 58.904C778.548 59.912 778.724 61.072 778.724 62.384C778.724 63.696 778.532 64.88 778.148 65.936C777.78 66.992 777.252 67.896 776.564 68.648C775.876 69.4 775.044 69.984 774.068 70.4C773.092 70.8 772.004 71 770.804 71H763.604ZM781.135 65.48V63.44H787.375V65.48H781.135ZM800.383 68.96V71H790.567V68.96H794.263V56.96L790.183 59.6L789.175 57.872L794.767 54.2H796.783V68.96H800.383ZM805.297 71.24C804.561 71.24 803.921 71.16 803.377 71L803.497 69.08C803.753 69.112 804.017 69.144 804.289 69.176C804.577 69.208 804.881 69.224 805.201 69.224C806.049 69.224 806.785 69.12 807.409 68.912C808.033 68.688 808.569 68.408 809.017 68.072C809.465 67.72 809.825 67.336 810.097 66.92C810.385 66.488 810.609 66.064 810.769 65.648C810.945 65.216 811.065 64.816 811.129 64.448C811.209 64.08 811.257 63.776 811.273 63.536L811.297 63.2C811.121 63.344 810.873 63.488 810.553 63.632C810.233 63.76 809.881 63.888 809.497 64.016C809.113 64.128 808.721 64.224 808.321 64.304C807.921 64.368 807.553 64.4 807.217 64.4C806.497 64.4 805.817 64.296 805.177 64.088C804.553 63.864 804.009 63.544 803.545 63.128C803.081 62.696 802.713 62.168 802.441 61.544C802.185 60.92 802.057 60.2 802.057 59.384C802.057 58.568 802.209 57.832 802.513 57.176C802.817 56.504 803.233 55.928 803.761 55.448C804.289 54.968 804.897 54.6 805.585 54.344C806.289 54.088 807.033 53.96 807.817 53.96C808.825 53.96 809.705 54.136 810.457 54.488C811.225 54.84 811.865 55.336 812.377 55.976C812.889 56.616 813.273 57.392 813.529 58.304C813.801 59.2 813.937 60.192 813.937 61.28C813.937 62.752 813.753 64.104 813.385 65.336C813.017 66.552 812.473 67.6 811.753 68.48C811.033 69.36 810.129 70.04 809.041 70.52C807.969 71 806.721 71.24 805.297 71.24ZM811.417 61.28V60.56C811.417 59.024 811.073 57.88 810.385 57.128C809.713 56.376 808.873 56 807.865 56C806.857 56 806.057 56.288 805.465 56.864C804.873 57.44 804.577 58.232 804.577 59.24C804.577 61.32 805.697 62.36 807.937 62.36C808.529 62.376 809.105 62.288 809.665 62.096C810.225 61.904 810.657 61.72 810.961 61.544L811.417 61.28ZM560.16 85.12H555V90.28H560.52V92.2H555V98.08H560.52L561 95.68H562.56V100H550.44V98.56L552.48 98.08V85.12L550.44 84.64V83.32L555 83.2H562.32V87.28H560.76L560.16 85.12ZM565.8 88C567.528 87.36 569.112 87.04 570.552 87.04C571.96 87.04 573.04 87.328 573.792 87.904C574.544 88.464 574.92 89.416 574.92 90.76V98.08L576.84 98.56V99.88L573.12 100L572.616 98.32C571.336 99.6 570.072 100.24 568.824 100.24C567.576 100.24 566.64 99.928 566.016 99.304C565.392 98.68 565.08 97.792 565.08 96.64C565.08 94.16 566.92 92.92 570.6 92.92H572.52V91C572.52 89.56 571.76 88.84 570.24 88.84C569.376 88.84 568.664 88.928 568.104 89.104L567.816 89.2L567.48 91H565.92L565.8 88ZM572.52 94.48H570.84C569.64 94.48 568.784 94.64 568.272 94.96C567.776 95.264 567.528 95.744 567.528 96.4C567.528 97.024 567.672 97.504 567.96 97.84C568.264 98.16 568.696 98.32 569.256 98.32C569.528 98.32 569.8 98.272 570.072 98.176C570.36 98.08 570.632 97.96 570.888 97.816C571.16 97.672 571.4 97.52 571.608 97.36C571.816 97.184 571.984 97.024 572.112 96.88L572.52 96.4V94.48ZM582.49 87.28L582.706 89.032C583.89 87.704 585.098 87.04 586.33 87.04C586.986 87.04 587.618 87.136 588.226 87.328L588.49 87.4L588.37 90.88H586.81L586.45 89.08C585.074 89.08 583.914 89.704 582.97 90.952V98.08L585.37 98.68V100H578.53V98.68L580.57 98.08V89.2L578.53 88.72V87.4L582.49 87.28ZM593.815 81.52V98.08L596.215 98.68V100H589.327V98.68L591.367 98.08V83.44L589.327 82.96V81.64L593.815 81.52ZM602.224 87.28V88.72L600.544 88.96L603.424 97.36L606.064 89.08L604.384 88.72V87.4L610.072 87.28V88.72L608.512 88.96L605.104 98.464C604.304 100.56 603.712 101.952 603.328 102.64C602.128 104.704 600.56 105.744 598.624 105.76L597.088 105.64L597.304 103.96H598.504C599.288 103.96 599.968 103.632 600.544 102.976C601.136 102.32 601.728 101.344 602.32 100.048L598.024 89.08L596.584 88.72V87.4L602.224 87.28ZM621.727 100L617.719 85.12L615.847 84.64V83.32L622.567 83.2V84.64L620.479 85.12L623.047 95.992L627.007 83.32L629.287 83.2L633.175 96.256L636.151 85.12L633.967 84.64V83.32L640.447 83.2V84.64L638.551 85.12L634.327 100H631.687L628.111 86.368L627.367 89.08L624.127 100H621.727ZM642.37 88C644.098 87.36 645.682 87.04 647.122 87.04C648.53 87.04 649.61 87.328 650.362 87.904C651.114 88.464 651.49 89.416 651.49 90.76V98.08L653.41 98.56V99.88L649.69 100L649.186 98.32C647.906 99.6 646.642 100.24 645.394 100.24C644.146 100.24 643.21 99.928 642.586 99.304C641.962 98.68 641.65 97.792 641.65 96.64C641.65 94.16 643.49 92.92 647.17 92.92H649.09V91C649.09 89.56 648.33 88.84 646.81 88.84C645.946 88.84 645.234 88.928 644.674 89.104L644.386 89.2L644.05 91H642.49L642.37 88ZM649.09 94.48H647.41C646.21 94.48 645.354 94.64 644.842 94.96C644.346 95.264 644.098 95.744 644.098 96.4C644.098 97.024 644.242 97.504 644.53 97.84C644.834 98.16 645.266 98.32 645.826 98.32C646.098 98.32 646.37 98.272 646.642 98.176C646.93 98.08 647.202 97.96 647.458 97.816C647.73 97.672 647.97 97.52 648.178 97.36C648.386 97.184 648.554 97.024 648.682 96.88L649.09 96.4V94.48ZM659.061 87.28L659.277 89.032C660.461 87.704 661.669 87.04 662.901 87.04C663.557 87.04 664.189 87.136 664.797 87.328L665.061 87.4L664.941 90.88H663.381L663.021 89.08C661.645 89.08 660.485 89.704 659.541 90.952V98.08L661.941 98.68V100H655.101V98.68L657.141 98.08V89.2L655.101 88.72V87.4L659.061 87.28ZM670.217 87.28L670.433 88.984C670.593 88.856 670.817 88.68 671.105 88.456C671.393 88.232 671.729 88.016 672.113 87.808C672.513 87.6 672.945 87.424 673.409 87.28C673.889 87.12 674.385 87.04 674.897 87.04C676.193 87.04 677.153 87.424 677.777 88.192C678.417 88.944 678.737 90 678.737 91.36V98.08L680.537 98.68V100H674.777V98.68L676.337 98.08V91.6C676.337 90.736 676.169 90.104 675.833 89.704C675.497 89.288 674.985 89.08 674.297 89.08C673.961 89.08 673.625 89.128 673.289 89.224C672.969 89.304 672.665 89.416 672.377 89.56C672.105 89.704 671.857 89.864 671.633 90.04C671.425 90.2 671.249 90.36 671.105 90.52L670.697 91V98.08L672.257 98.68V100H666.257V98.68L668.297 98.08V89.2L666.257 88.72V87.4L670.217 87.28ZM685.338 81.64C686.378 81.64 686.898 82.24 686.898 83.44C686.898 83.936 686.722 84.32 686.37 84.592C686.018 84.864 685.642 85 685.242 85C684.81 85 684.458 84.856 684.186 84.568C683.914 84.264 683.778 83.848 683.778 83.32C683.778 82.792 683.922 82.384 684.21 82.096C684.514 81.792 684.89 81.64 685.338 81.64ZM686.658 87.28V98.08L688.458 98.68V100H682.218V98.68L684.258 98.08V89.2L682.218 88.72V87.4L686.658 87.28ZM694.217 87.28L694.433 88.984C694.593 88.856 694.817 88.68 695.105 88.456C695.393 88.232 695.729 88.016 696.113 87.808C696.513 87.6 696.945 87.424 697.409 87.28C697.889 87.12 698.385 87.04 698.897 87.04C700.193 87.04 701.153 87.424 701.777 88.192C702.417 88.944 702.737 90 702.737 91.36V98.08L704.537 98.68V100H698.777V98.68L700.337 98.08V91.6C700.337 90.736 700.169 90.104 699.833 89.704C699.497 89.288 698.985 89.08 698.297 89.08C697.961 89.08 697.625 89.128 697.289 89.224C696.969 89.304 696.665 89.416 696.377 89.56C696.105 89.704 695.857 89.864 695.633 90.04C695.425 90.2 695.249 90.36 695.105 90.52L694.697 91V98.08L696.257 98.68V100H690.257V98.68L692.297 98.08V89.2L690.257 88.72V87.4L694.217 87.28ZM711.738 96.16C711.034 96.16 710.434 96.088 709.938 95.944L709.818 98.2H713.538C715.106 98.2 716.298 98.496 717.114 99.088C717.93 99.68 718.338 100.576 718.338 101.776C718.338 103.072 717.81 104.096 716.754 104.848C715.698 105.616 714.146 106 712.098 106C708.258 106 706.338 104.84 706.338 102.52C706.338 101.512 706.874 100.656 707.946 99.952C708.202 99.792 708.506 99.648 708.858 99.52C708.426 99.456 708.074 99.304 707.802 99.064C707.546 98.824 707.418 98.552 707.418 98.248C707.418 97.72 707.73 96.952 708.354 95.944L708.666 95.44C708.522 95.392 708.322 95.248 708.066 95.008C707.826 94.768 707.626 94.528 707.466 94.288C707.034 93.616 706.818 92.76 706.818 91.72C706.818 90.2 707.29 89.04 708.234 88.24C709.194 87.44 710.482 87.04 712.098 87.04C712.994 87.04 713.706 87.152 714.234 87.376L714.498 87.496L718.698 87.4V88.72L716.37 89.056C716.802 89.632 717.018 90.44 717.018 91.48C717.018 93.048 716.546 94.224 715.602 95.008C714.658 95.776 713.37 96.16 711.738 96.16ZM712.938 100H710.298C710.218 100.032 710.058 100.128 709.818 100.288C709.594 100.464 709.418 100.624 709.29 100.768C708.922 101.184 708.738 101.648 708.738 102.16C708.738 102.944 709.042 103.48 709.65 103.768C710.274 104.056 711.21 104.2 712.458 104.2C714.858 104.2 716.058 103.44 716.058 101.92C716.058 101.184 715.794 100.68 715.266 100.408C714.754 100.136 713.978 100 712.938 100ZM711.978 88.72C710.138 88.72 709.218 89.68 709.218 91.6C709.218 92.48 709.442 93.184 709.89 93.712C710.338 94.224 710.986 94.48 711.834 94.48C712.81 94.48 713.514 94.256 713.946 93.808C714.394 93.344 714.618 92.608 714.618 91.6C714.618 89.68 713.738 88.72 711.978 88.72ZM728.428 95.08L728.908 97.6C729.196 97.76 729.588 97.904 730.084 98.032C730.58 98.144 731.068 98.2 731.548 98.2C732.028 98.2 732.492 98.144 732.94 98.032C733.388 97.904 733.78 97.728 734.116 97.504C734.452 97.28 734.716 97.016 734.908 96.712C735.116 96.392 735.22 96.032 735.22 95.632C735.22 95.168 735.092 94.784 734.836 94.48C734.58 94.16 734.244 93.888 733.828 93.664C733.428 93.424 732.972 93.216 732.46 93.04C731.948 92.864 731.428 92.68 730.9 92.488C730.34 92.248 729.796 92.008 729.268 91.768C728.756 91.512 728.292 91.208 727.876 90.856C727.476 90.488 727.156 90.048 726.916 89.536C726.676 89.024 726.556 88.392 726.556 87.64C726.556 86.84 726.708 86.144 727.012 85.552C727.332 84.96 727.748 84.472 728.26 84.088C728.788 83.704 729.396 83.424 730.084 83.248C730.788 83.056 731.524 82.96 732.292 82.96C732.644 82.96 733.02 82.984 733.42 83.032C733.82 83.08 734.212 83.144 734.596 83.224C734.98 83.288 735.34 83.368 735.676 83.464C736.012 83.544 736.3 83.616 736.54 83.68L737.308 83.92L737.188 88H735.628L734.812 85.432C734.364 85.288 733.916 85.184 733.468 85.12C733.036 85.056 732.588 85.024 732.124 85.024C731.66 85.024 731.236 85.088 730.852 85.216C730.484 85.328 730.164 85.488 729.892 85.696C729.636 85.904 729.436 86.136 729.292 86.392C729.148 86.648 729.076 86.912 729.076 87.184C729.092 87.856 729.316 88.384 729.748 88.768C730.18 89.152 730.716 89.48 731.356 89.752C731.996 90.024 732.684 90.28 733.42 90.52C734.172 90.76 734.86 91.064 735.484 91.432C736.124 91.784 736.652 92.248 737.068 92.824C737.5 93.4 737.716 94.152 737.716 95.08C737.716 95.912 737.556 96.648 737.236 97.288C736.916 97.928 736.476 98.472 735.916 98.92C735.356 99.352 734.692 99.688 733.924 99.928C733.156 100.152 732.332 100.264 731.452 100.264C731.1 100.264 730.716 100.24 730.3 100.192C729.9 100.144 729.5 100.08 729.1 100C728.716 99.936 728.356 99.864 728.02 99.784C727.684 99.688 727.404 99.6 727.18 99.52L726.508 99.28V95.08H728.428ZM745.052 87.28V88.72L743.372 88.96L746.252 97.36L748.892 89.08L747.212 88.72V87.4L752.9 87.28V88.72L751.34 88.96L747.932 98.464C747.132 100.56 746.54 101.952 746.156 102.64C744.956 104.704 743.388 105.744 741.452 105.76L739.916 105.64L740.132 103.96H741.332C742.116 103.96 742.796 103.632 743.372 102.976C743.964 102.32 744.556 101.344 745.148 100.048L740.852 89.08L739.412 88.72V87.4L745.052 87.28ZM754.127 96.16H755.807L756.071 98.224C756.231 98.288 756.479 98.344 756.815 98.392C757.167 98.424 757.511 98.44 757.847 98.44C758.887 98.44 759.639 98.288 760.103 97.984C760.583 97.664 760.823 97.184 760.823 96.544C760.823 96.112 760.655 95.768 760.319 95.512C759.999 95.256 759.591 95.04 759.095 94.864C758.599 94.688 758.055 94.512 757.463 94.336C756.887 94.16 756.351 93.936 755.855 93.664C755.359 93.376 754.943 93.008 754.607 92.56C754.287 92.112 754.127 91.52 754.127 90.784C754.127 89.584 754.527 88.672 755.327 88.048C756.127 87.408 757.191 87.072 758.519 87.04C759.079 87.056 759.647 87.104 760.223 87.184C760.815 87.248 761.415 87.376 762.023 87.568L762.623 87.76L762.551 91H760.991L760.607 89.128C760.479 89.08 760.231 89.024 759.863 88.96C759.495 88.88 759.103 88.84 758.687 88.84C758.399 88.84 758.127 88.864 757.871 88.912C757.615 88.96 757.383 89.04 757.175 89.152C756.983 89.264 756.823 89.424 756.695 89.632C756.583 89.84 756.527 90.096 756.527 90.4C756.527 90.864 756.687 91.232 757.007 91.504C757.343 91.76 757.759 91.984 758.255 92.176C758.751 92.368 759.287 92.552 759.863 92.728C760.455 92.904 760.999 93.136 761.495 93.424C761.991 93.696 762.399 94.048 762.719 94.48C763.055 94.912 763.223 95.48 763.223 96.184C763.223 96.856 763.079 97.448 762.791 97.96C762.503 98.472 762.111 98.904 761.615 99.256C761.135 99.592 760.567 99.84 759.911 100C759.271 100.176 758.583 100.264 757.847 100.264C757.575 100.264 757.287 100.248 756.983 100.216C756.695 100.2 756.407 100.168 756.119 100.12C755.831 100.088 755.559 100.048 755.303 100C755.063 99.952 754.863 99.904 754.703 99.856L754.151 99.712L754.127 96.16ZM769.6 83.896V87.4H773.08V89.2H769.6V96.904C769.6 97.88 770 98.368 770.8 98.368C771.312 98.368 771.936 98.168 772.672 97.768L773.32 99.04C772.232 99.84 771.112 100.24 769.96 100.24C769.144 100.24 768.48 99.976 767.968 99.448C767.456 98.904 767.2 98.008 767.2 96.76V89.2H764.8V87.64L767.2 87.4V84.376L769.6 83.896ZM785.549 93.952L777.269 94C777.269 95.312 777.581 96.36 778.205 97.144C778.845 97.928 779.693 98.32 780.749 98.32C781.101 98.32 781.453 98.288 781.805 98.224C782.157 98.16 782.485 98.08 782.789 97.984C783.109 97.888 783.397 97.784 783.653 97.672C783.909 97.544 784.125 97.424 784.301 97.312L784.781 97L785.621 98.248C785.077 98.68 784.573 99.024 784.109 99.28C783.661 99.52 783.125 99.744 782.501 99.952C781.893 100.144 781.229 100.24 780.509 100.24C778.621 100.24 777.189 99.672 776.213 98.536C775.237 97.384 774.749 95.816 774.749 93.832C774.749 92.84 774.893 91.928 775.181 91.096C775.469 90.264 775.869 89.552 776.381 88.96C776.909 88.352 777.533 87.88 778.253 87.544C778.973 87.208 779.765 87.04 780.629 87.04C783.989 87.04 785.669 88.92 785.669 92.68L785.549 93.952ZM777.365 92.2H783.125C783.125 91.224 782.917 90.432 782.501 89.824C782.085 89.216 781.413 88.912 780.485 88.912C779.573 88.912 778.845 89.224 778.301 89.848C777.757 90.456 777.445 91.24 777.365 92.2ZM791.436 87.28L791.652 88.984C791.876 88.776 792.148 88.56 792.468 88.336C792.788 88.096 793.14 87.88 793.524 87.688C793.908 87.496 794.308 87.344 794.724 87.232C795.156 87.104 795.58 87.04 795.996 87.04C797.612 87.04 798.724 87.728 799.332 89.104C799.62 88.816 799.956 88.552 800.34 88.312C800.724 88.056 801.116 87.832 801.516 87.64C801.932 87.448 802.332 87.304 802.716 87.208C803.116 87.096 803.476 87.04 803.796 87.04C806.276 87.04 807.516 88.48 807.516 91.36V98.08L809.316 98.68V100H803.556V98.68L805.116 98.08V91.6C805.116 90.72 804.964 90.08 804.66 89.68C804.356 89.28 803.86 89.08 803.172 89.08C802.836 89.08 802.508 89.128 802.188 89.224C801.884 89.304 801.596 89.416 801.324 89.56C801.052 89.704 800.812 89.864 800.604 90.04C800.396 90.2 800.228 90.36 800.1 90.52L799.716 91V98.08L801.276 98.68V100H795.756V98.68L797.316 98.08V91.6C797.316 90.72 797.164 90.08 796.86 89.68C796.556 89.28 796.06 89.08 795.372 89.08C795.036 89.08 794.708 89.128 794.388 89.224C794.084 89.304 793.796 89.416 793.524 89.56C793.252 89.704 793.012 89.864 792.804 90.04C792.596 90.2 792.428 90.36 792.3 90.52L791.916 91V98.08L793.476 98.68V100H787.476V98.68L789.516 98.08V89.2L787.476 88.72V87.4L791.436 87.28Z" fill="#887D79"/>
<path d="M136.256 172V170.796L139.056 170.292V154.164H134.66L134.156 157.244H132.756V152.456H147.624V157.244H146.224L145.748 154.164H141.324V170.292L144.124 170.796V172H136.256ZM162.142 167.408H163.542V172H149.402V170.796L151.81 170.292V154.248L149.402 153.8V152.596L154.078 152.456H163.206V156.88H161.806L161.358 154.164H154.106V161.164H161.162V162.844H154.106V170.292H161.722L162.142 167.408ZM171.779 170.796V172H165.059V170.796L167.243 170.32L172.927 162.06L167.551 154.136L165.423 153.8V152.596L172.563 152.456V153.66L170.239 154.136L174.467 160.52L178.723 154.192L176.399 153.8V152.596L183.007 152.456V153.66L180.767 154.248L175.503 161.808L181.299 170.348L183.371 170.796V172H176.091V170.796L178.667 170.32L173.991 163.348L169.343 170.292L171.779 170.796ZM187.326 172V170.796L190.126 170.292V154.164H185.73L185.226 157.244H183.826V152.456H198.694V157.244H197.294L196.818 154.164H192.394V170.292L195.194 170.796V172H187.326ZM365.516 172V170.796L368.316 170.292V154.164H363.92L363.416 157.244H362.016V152.456H376.884V157.244H375.484L375.008 154.164H370.584V170.292L373.384 170.796V172H365.516ZM387.262 172.252C385.656 172.252 384.21 171.888 382.922 171.16C381.652 170.432 380.644 169.34 379.898 167.884C379.17 166.428 378.806 164.608 378.806 162.424C378.806 160.147 379.198 158.252 379.982 156.74C380.784 155.228 381.858 154.099 383.202 153.352C384.564 152.587 386.067 152.204 387.71 152.204C389.315 152.204 390.762 152.568 392.05 153.296C393.356 154.005 394.392 155.079 395.158 156.516C395.923 157.953 396.306 159.745 396.306 161.892C396.306 164.076 395.904 165.943 395.102 167.492C394.318 169.041 393.244 170.227 391.882 171.048C390.519 171.851 388.979 172.252 387.262 172.252ZM387.402 170.432C388.559 170.432 389.623 170.143 390.594 169.564C391.583 168.967 392.367 168.052 392.946 166.82C393.543 165.588 393.842 163.992 393.842 162.032C393.842 160.184 393.562 158.672 393.002 157.496C392.46 156.301 391.714 155.424 390.762 154.864C389.828 154.304 388.774 154.024 387.598 154.024C386.459 154.024 385.404 154.313 384.434 154.892C383.482 155.452 382.716 156.348 382.138 157.58C381.559 158.793 381.27 160.38 381.27 162.34C381.27 164.207 381.54 165.737 382.082 166.932C382.623 168.127 383.36 169.013 384.294 169.592C385.227 170.152 386.263 170.432 387.402 170.432ZM412.275 148.62C410.8 150.58 409.689 152.68 408.943 154.92C408.215 157.16 407.851 159.372 407.851 161.556C407.851 163.721 408.215 165.933 408.943 168.192C409.689 170.432 410.8 172.532 412.275 174.492L410.819 175.416C409.101 173.325 407.813 171.085 406.955 168.696C406.115 166.288 405.695 163.908 405.695 161.556C405.695 159.204 406.115 156.824 406.955 154.416C407.813 152.008 409.101 149.768 410.819 147.696L412.275 148.62ZM414.252 172V170.012C416.454 168.015 418.284 166.269 419.74 164.776C421.214 163.283 422.306 161.948 423.016 160.772C423.744 159.596 424.108 158.476 424.108 157.412C424.108 156.236 423.716 155.368 422.932 154.808C422.148 154.248 421.158 153.968 419.964 153.968C419.46 153.968 418.9 154.024 418.284 154.136C417.668 154.248 417.033 154.407 416.38 154.612L416.044 157.636H414.616L414.364 153.268C415.428 152.932 416.464 152.671 417.472 152.484C418.498 152.297 419.441 152.204 420.3 152.204C421.513 152.204 422.586 152.381 423.52 152.736C424.453 153.072 425.19 153.604 425.732 154.332C426.273 155.041 426.544 155.965 426.544 157.104C426.544 158.373 426.189 159.643 425.48 160.912C424.789 162.181 423.753 163.563 422.372 165.056C420.99 166.531 419.273 168.22 417.22 170.124H427.02V172H414.252ZM437.406 172.252C435.036 172.252 433.281 171.431 432.142 169.788C431.004 168.145 430.434 165.681 430.434 162.396C430.434 158.999 431.032 156.451 432.226 154.752C433.44 153.053 435.297 152.204 437.798 152.204C440.225 152.204 441.961 152.988 443.006 154.556C444.07 156.124 444.602 158.541 444.602 161.808C444.602 168.771 442.204 172.252 437.406 172.252ZM437.49 170.46C439.114 170.46 440.3 169.769 441.046 168.388C441.812 167.007 442.204 164.888 442.222 162.032C442.241 160.072 442.082 158.504 441.746 157.328C441.41 156.152 440.906 155.303 440.234 154.78C439.562 154.257 438.722 153.996 437.714 153.996C436.016 153.996 434.774 154.677 433.99 156.04C433.206 157.403 432.814 159.484 432.814 162.284C432.814 165.084 433.197 167.147 433.962 168.472C434.728 169.797 435.904 170.46 437.49 170.46ZM453.804 172.224C452.777 172.224 451.76 172.093 450.752 171.832C449.744 171.571 448.792 171.179 447.896 170.656L448.568 168.976C450.266 169.928 451.993 170.404 453.748 170.404C455.129 170.404 456.268 170.077 457.164 169.424C458.078 168.771 458.536 167.763 458.536 166.4C458.536 165.317 458.162 164.412 457.416 163.684C456.669 162.956 455.418 162.592 453.664 162.592H451.34V160.884H453.692C455.166 160.884 456.268 160.576 456.996 159.96C457.742 159.344 458.116 158.476 458.116 157.356C458.116 156.124 457.724 155.247 456.94 154.724C456.174 154.183 455.194 153.912 454 153.912C453.402 153.912 452.796 153.968 452.18 154.08C451.564 154.192 450.957 154.341 450.36 154.528L450.052 157.552H448.652L448.428 153.296C449.454 152.96 450.49 152.699 451.536 152.512C452.581 152.307 453.57 152.204 454.504 152.204C455.642 152.204 456.66 152.363 457.556 152.68C458.47 152.997 459.18 153.511 459.684 154.22C460.206 154.929 460.468 155.863 460.468 157.02C460.468 159.559 459.105 161.099 456.38 161.64C457.892 161.864 459.021 162.396 459.768 163.236C460.514 164.057 460.888 165.131 460.888 166.456C460.888 167.763 460.57 168.845 459.936 169.704C459.301 170.544 458.442 171.179 457.36 171.608C456.296 172.019 455.11 172.224 453.804 172.224ZM463.557 174.492C465.013 172.532 466.105 170.432 466.833 168.192C467.579 165.933 467.953 163.721 467.953 161.556C467.953 159.391 467.579 157.188 466.833 154.948C466.105 152.689 465.013 150.571 463.557 148.592L464.985 147.696C466.721 149.768 468.009 152.008 468.849 154.416C469.707 156.824 470.137 159.204 470.137 161.556C470.137 163.889 469.707 166.269 468.849 168.696C468.009 171.104 466.721 173.335 464.985 175.388L463.557 174.492ZM482.334 162.9V164.664H474.326V162.9H482.334ZM490.952 172.224C489.104 172.224 487.238 171.767 485.352 170.852L485.996 169.172C486.799 169.564 487.592 169.863 488.376 170.068C489.16 170.273 489.916 170.376 490.644 170.376C492.063 170.376 493.202 169.984 494.06 169.2C494.919 168.416 495.348 167.343 495.348 165.98C495.348 164.505 494.77 163.488 493.612 162.928C492.455 162.349 490.7 162.06 488.348 162.06H486.528L486.92 152.456H496.916L496.888 154.276H489.132L488.88 160.324H489.888C492.614 160.324 494.611 160.809 495.88 161.78C497.15 162.751 497.784 164.141 497.784 165.952C497.784 167.259 497.486 168.388 496.888 169.34C496.31 170.273 495.507 170.992 494.48 171.496C493.454 171.981 492.278 172.224 490.952 172.224ZM506.189 172.224C504.341 172.224 502.475 171.767 500.589 170.852L501.233 169.172C502.036 169.564 502.829 169.863 503.613 170.068C504.397 170.273 505.153 170.376 505.881 170.376C507.3 170.376 508.439 169.984 509.297 169.2C510.156 168.416 510.585 167.343 510.585 165.98C510.585 164.505 510.007 163.488 508.849 162.928C507.692 162.349 505.937 162.06 503.585 162.06H501.765L502.157 152.456H512.153L512.125 154.276H504.369L504.117 160.324H505.125C507.851 160.324 509.848 160.809 511.117 161.78C512.387 162.751 513.021 164.141 513.021 165.952C513.021 167.259 512.723 168.388 512.125 169.34C511.547 170.273 510.744 170.992 509.717 171.496C508.691 171.981 507.515 172.224 506.189 172.224ZM521.426 172.224C519.578 172.224 517.712 171.767 515.826 170.852L516.47 169.172C517.273 169.564 518.066 169.863 518.85 170.068C519.634 170.273 520.39 170.376 521.118 170.376C522.537 170.376 523.676 169.984 524.534 169.2C525.393 168.416 525.822 167.343 525.822 165.98C525.822 164.505 525.244 163.488 524.086 162.928C522.929 162.349 521.174 162.06 518.822 162.06H517.002L517.394 152.456H527.39L527.362 154.276H519.606L519.354 160.324H520.362C523.088 160.324 525.085 160.809 526.354 161.78C527.624 162.751 528.258 164.141 528.258 165.952C528.258 167.259 527.96 168.388 527.362 169.34C526.784 170.273 525.981 170.992 524.954 171.496C523.928 171.981 522.752 172.224 521.426 172.224ZM540.219 162.9V164.664H532.211V162.9H540.219ZM552.737 170.74V172H543.245V170.74L547.193 170.236V154.808L542.937 157.272L542.181 155.844L547.613 152.372H549.489V170.236L552.737 170.74ZM554.564 172V170.012C556.766 168.015 558.596 166.269 560.052 164.776C561.526 163.283 562.618 161.948 563.328 160.772C564.056 159.596 564.42 158.476 564.42 157.412C564.42 156.236 564.028 155.368 563.244 154.808C562.46 154.248 561.47 153.968 560.276 153.968C559.772 153.968 559.212 154.024 558.596 154.136C557.98 154.248 557.345 154.407 556.692 154.612L556.356 157.636H554.928L554.676 153.268C555.74 152.932 556.776 152.671 557.784 152.484C558.81 152.297 559.753 152.204 560.612 152.204C561.825 152.204 562.898 152.381 563.832 152.736C564.765 153.072 565.502 153.604 566.044 154.332C566.585 155.041 566.856 155.965 566.856 157.104C566.856 158.373 566.501 159.643 565.792 160.912C565.101 162.181 564.065 163.563 562.684 165.056C561.302 166.531 559.585 168.22 557.532 170.124H567.332V172H554.564ZM575.898 172.224C574.871 172.224 573.854 172.093 572.846 171.832C571.838 171.571 570.886 171.179 569.99 170.656L570.662 168.976C572.361 169.928 574.087 170.404 575.842 170.404C577.223 170.404 578.362 170.077 579.258 169.424C580.173 168.771 580.63 167.763 580.63 166.4C580.63 165.317 580.257 164.412 579.51 163.684C578.763 162.956 577.513 162.592 575.758 162.592H573.434V160.884H575.786C577.261 160.884 578.362 160.576 579.09 159.96C579.837 159.344 580.21 158.476 580.21 157.356C580.21 156.124 579.818 155.247 579.034 154.724C578.269 154.183 577.289 153.912 576.094 153.912C575.497 153.912 574.89 153.968 574.274 154.08C573.658 154.192 573.051 154.341 572.454 154.528L572.146 157.552H570.746L570.522 153.296C571.549 152.96 572.585 152.699 573.63 152.512C574.675 152.307 575.665 152.204 576.598 152.204C577.737 152.204 578.754 152.363 579.65 152.68C580.565 152.997 581.274 153.511 581.778 154.22C582.301 154.929 582.562 155.863 582.562 157.02C582.562 159.559 581.199 161.099 578.474 161.64C579.986 161.864 581.115 162.396 581.862 163.236C582.609 164.057 582.982 165.131 582.982 166.456C582.982 167.763 582.665 168.845 582.03 169.704C581.395 170.544 580.537 171.179 579.454 171.608C578.39 172.019 577.205 172.224 575.898 172.224ZM601.023 167.1H597.663V172H595.367V167.1H585.735L585.455 165.448L594.975 152.148L597.663 152.456V165.28H601.023V167.1ZM587.919 165.28H595.395V154.724L587.919 165.28Z" fill="#887D79"/>
<path d="M209.787 172V169.984L212.167 169.396V155.172H209.143L208.555 157.944H206.175V152.288H222.191V157.944H219.811L219.223 155.172H216.199V169.396L218.579 169.984V172H209.787ZM232.266 172.336C229.616 172.336 227.506 171.496 225.938 169.816C224.37 168.117 223.586 165.644 223.586 162.396C223.586 160.081 223.978 158.149 224.762 156.6C225.546 155.051 226.629 153.893 228.01 153.128C229.41 152.344 231.025 151.952 232.854 151.952C234.665 151.952 236.233 152.325 237.558 153.072C238.902 153.819 239.938 154.929 240.666 156.404C241.413 157.86 241.786 159.652 241.786 161.78C241.786 163.964 241.385 165.849 240.582 167.436C239.798 169.023 238.688 170.236 237.25 171.076C235.832 171.916 234.17 172.336 232.266 172.336ZM232.574 169.256C233.489 169.256 234.32 169.032 235.066 168.584C235.813 168.117 236.401 167.352 236.83 166.288C237.26 165.205 237.474 163.759 237.474 161.948C237.474 160.268 237.278 158.924 236.886 157.916C236.494 156.889 235.934 156.152 235.206 155.704C234.497 155.256 233.657 155.032 232.686 155.032C231.753 155.032 230.922 155.256 230.194 155.704C229.485 156.152 228.925 156.899 228.514 157.944C228.104 158.989 227.898 160.427 227.898 162.256C227.898 164.757 228.309 166.549 229.13 167.632C229.97 168.715 231.118 169.256 232.574 169.256ZM253.53 172.336C251.682 172.336 250.068 171.953 248.686 171.188C247.324 170.423 246.26 169.293 245.494 167.8C244.748 166.307 244.374 164.459 244.374 162.256C244.374 160.091 244.748 158.243 245.494 156.712C246.26 155.163 247.352 153.987 248.77 153.184C250.189 152.363 251.897 151.952 253.894 151.952C254.977 151.952 256.097 152.083 257.254 152.344C258.43 152.587 259.616 152.951 260.81 153.436L260.53 158.448H258.15L257.562 155.592C256.984 155.405 256.405 155.265 255.826 155.172C255.266 155.06 254.725 155.004 254.202 155.004C252.466 155.004 251.113 155.611 250.142 156.824C249.172 158.037 248.686 159.829 248.686 162.2C248.686 164.403 249.134 166.129 250.03 167.38C250.945 168.631 252.27 169.256 254.006 169.256C254.94 169.256 255.929 169.079 256.974 168.724V164.636L254.93 164.244V162.172L262.714 162.032V164.132L260.698 164.664V170.768C259.41 171.291 258.16 171.683 256.946 171.944C255.733 172.205 254.594 172.336 253.53 172.336ZM276.793 166.736H279.173L279.117 172H264.529V169.984L266.601 169.396V155.004L264.529 154.444V152.428L270.521 152.288H278.809V157.328H276.429L275.981 155.172H270.605V160.576H276.625V163.348H270.605V169.116H276.317L276.793 166.736ZM283.997 172V169.984L286.377 169.396V155.172H283.353L282.765 157.944H280.385V152.288H296.401V157.944H294.021L293.433 155.172H290.409V169.396L292.789 169.984V172H283.997ZM297.765 172V169.984L299.837 169.396V155.004L297.765 154.444V152.428L305.885 152.288V154.304L303.841 154.976V160.52H311.737V155.004L309.665 154.444V152.428L317.785 152.288V154.304L315.741 154.976V169.396L317.785 169.984V172H309.665V169.984L311.737 169.368V163.404H303.841V169.368L305.885 169.984V172H297.765ZM332.348 166.736H334.728L334.672 172H320.084V169.984L322.156 169.396V155.004L320.084 154.444V152.428L326.076 152.288H334.364V157.328H331.984L331.536 155.172H326.16V160.576H332.18V163.348H326.16V169.116H331.872L332.348 166.736ZM337.427 172V169.984L339.499 169.396V155.004L337.427 154.444V152.428L343.671 152.288H346.387C348.627 152.288 350.316 152.755 351.455 153.688C352.593 154.621 353.163 155.965 353.163 157.72C353.163 159.101 352.789 160.277 352.043 161.248C351.315 162.2 350.176 162.863 348.627 163.236C349.224 163.423 349.7 163.712 350.055 164.104C350.428 164.496 350.755 164.972 351.035 165.532L353.051 169.452L354.703 169.984V172H350.111L347.591 166.596C347.255 165.887 346.965 165.345 346.723 164.972C346.48 164.58 346.181 164.319 345.827 164.188C345.472 164.039 344.959 163.973 344.287 163.992H343.503V169.368L345.799 169.984V172H337.427ZM345.883 155.144H343.503V161.22H345.155C347.768 161.22 349.075 160.147 349.075 158C349.075 157.104 348.813 156.404 348.291 155.9C347.768 155.396 346.965 155.144 345.883 155.144Z" fill="#534B48"/>
</svg>
