<svg width="841" height="148" viewBox="0 0 841 148" fill="none" xmlns="http://www.w3.org/2000/svg">
<path fill-rule="evenodd" clip-rule="evenodd" d="M143.284 45.6274L148.941 39.9706L143.284 34.3137L131.971 23L126.314 28.6569L137.628 39.9706L126.314 51.2843L131.971 56.9411L143.284 45.6274Z" fill="#B1B1B1"/>
<path fill-rule="evenodd" clip-rule="evenodd" d="M327.284 45.6274L332.941 39.9706L327.284 34.3137L315.971 23L310.314 28.6569L321.628 39.9706L310.314 51.2843L315.971 56.9411L327.284 45.6274Z" fill="#B1B1B1"/>
<path fill-rule="evenodd" clip-rule="evenodd" d="M503.284 45.6274L508.941 39.9706L503.284 34.3137L491.971 23L486.314 28.6569L497.628 39.9706L486.314 51.2843L491.971 56.9411L503.284 45.6274Z" fill="#B1B1B1"/>
<path fill-rule="evenodd" clip-rule="evenodd" d="M695.284 45.6274L700.941 39.9706L695.284 34.3137L683.971 23L678.314 28.6569L689.628 39.9706L678.314 51.2843L683.971 56.9411L695.284 45.6274Z" fill="#B1B1B1"/>
<path d="M737.918 110.545H741.114L746.67 124.114H746.875L752.432 110.545H755.628V128H753.122V115.369H752.96L747.812 127.974H745.733L740.585 115.361H740.423V128H737.918V110.545ZM764.046 128.264C762.819 128.264 761.748 127.983 760.833 127.42C759.918 126.858 759.208 126.071 758.703 125.06C758.197 124.048 757.944 122.866 757.944 121.514C757.944 120.156 758.197 118.969 758.703 117.952C759.208 116.935 759.918 116.145 760.833 115.582C761.748 115.02 762.819 114.739 764.046 114.739C765.274 114.739 766.345 115.02 767.259 115.582C768.174 116.145 768.884 116.935 769.39 117.952C769.896 118.969 770.149 120.156 770.149 121.514C770.149 122.866 769.896 124.048 769.39 125.06C768.884 126.071 768.174 126.858 767.259 127.42C766.345 127.983 765.274 128.264 764.046 128.264ZM764.055 126.125C764.85 126.125 765.509 125.915 766.032 125.494C766.555 125.074 766.941 124.514 767.191 123.815C767.447 123.116 767.575 122.347 767.575 121.506C767.575 120.67 767.447 119.903 767.191 119.205C766.941 118.5 766.555 117.935 766.032 117.509C765.509 117.082 764.85 116.869 764.055 116.869C763.254 116.869 762.589 117.082 762.061 117.509C761.538 117.935 761.149 118.5 760.893 119.205C760.643 119.903 760.518 120.67 760.518 121.506C760.518 122.347 760.643 123.116 760.893 123.815C761.149 124.514 761.538 125.074 762.061 125.494C762.589 125.915 763.254 126.125 764.055 126.125ZM777.787 128.264C776.52 128.264 775.429 127.977 774.515 127.403C773.605 126.824 772.907 126.026 772.418 125.009C771.929 123.991 771.685 122.827 771.685 121.514C771.685 120.185 771.935 119.011 772.435 117.994C772.935 116.972 773.64 116.173 774.549 115.599C775.458 115.026 776.529 114.739 777.762 114.739C778.756 114.739 779.642 114.923 780.421 115.293C781.199 115.656 781.827 116.168 782.304 116.827C782.787 117.486 783.074 118.256 783.165 119.136H780.685C780.549 118.523 780.236 117.994 779.748 117.551C779.265 117.108 778.617 116.886 777.804 116.886C777.094 116.886 776.472 117.074 775.938 117.449C775.409 117.818 774.998 118.347 774.702 119.034C774.407 119.716 774.259 120.523 774.259 121.455C774.259 122.409 774.404 123.233 774.694 123.926C774.983 124.619 775.392 125.156 775.921 125.537C776.455 125.918 777.083 126.108 777.804 126.108C778.287 126.108 778.725 126.02 779.117 125.844C779.515 125.662 779.847 125.403 780.114 125.068C780.387 124.733 780.577 124.33 780.685 123.858H783.165C783.074 124.705 782.799 125.46 782.338 126.125C781.878 126.79 781.262 127.312 780.489 127.693C779.722 128.074 778.821 128.264 777.787 128.264ZM787.514 123.56L787.497 120.449H787.94L793.156 114.909H796.207L790.258 121.216H789.858L787.514 123.56ZM785.17 128V110.545H787.719V128H785.17ZM793.437 128L788.75 121.778L790.505 119.997L796.565 128H793.437ZM806.102 122.571V114.909H808.659V128H806.153V125.733H806.017C805.716 126.432 805.233 127.014 804.568 127.48C803.909 127.94 803.088 128.17 802.105 128.17C801.264 128.17 800.52 127.986 799.872 127.616C799.23 127.241 798.724 126.688 798.355 125.955C797.991 125.222 797.81 124.315 797.81 123.236V114.909H800.358V122.929C800.358 123.821 800.605 124.531 801.099 125.06C801.594 125.588 802.236 125.852 803.026 125.852C803.503 125.852 803.977 125.733 804.449 125.494C804.926 125.256 805.321 124.895 805.633 124.412C805.952 123.929 806.108 123.315 806.102 122.571ZM811.363 132.909V114.909H813.852V117.031H814.065C814.213 116.759 814.426 116.443 814.704 116.085C814.982 115.727 815.369 115.415 815.863 115.148C816.357 114.875 817.011 114.739 817.823 114.739C818.88 114.739 819.823 115.006 820.653 115.54C821.482 116.074 822.133 116.844 822.605 117.849C823.082 118.855 823.32 120.065 823.32 121.48C823.32 122.895 823.085 124.108 822.613 125.119C822.141 126.125 821.494 126.901 820.67 127.446C819.846 127.986 818.906 128.256 817.849 128.256C817.053 128.256 816.403 128.122 815.897 127.855C815.397 127.588 815.005 127.276 814.721 126.918C814.437 126.56 814.218 126.241 814.065 125.963H813.911V132.909H811.363ZM813.86 121.455C813.86 122.375 813.994 123.182 814.261 123.875C814.528 124.568 814.914 125.111 815.42 125.503C815.926 125.889 816.545 126.082 817.278 126.082C818.039 126.082 818.676 125.881 819.187 125.477C819.698 125.068 820.085 124.514 820.346 123.815C820.613 123.116 820.747 122.33 820.747 121.455C820.747 120.591 820.616 119.815 820.355 119.128C820.099 118.44 819.713 117.898 819.195 117.5C818.684 117.102 818.045 116.903 817.278 116.903C816.539 116.903 815.914 117.094 815.403 117.474C814.897 117.855 814.514 118.386 814.252 119.068C813.991 119.75 813.86 120.545 813.86 121.455ZM835.265 118.105L832.956 118.514C832.859 118.219 832.706 117.937 832.495 117.67C832.291 117.403 832.012 117.185 831.66 117.014C831.308 116.844 830.868 116.759 830.339 116.759C829.618 116.759 829.015 116.92 828.532 117.244C828.049 117.562 827.808 117.974 827.808 118.48C827.808 118.918 827.97 119.27 828.294 119.537C828.618 119.804 829.14 120.023 829.862 120.193L831.941 120.67C833.146 120.949 834.044 121.378 834.635 121.957C835.225 122.537 835.521 123.29 835.521 124.216C835.521 125 835.294 125.699 834.839 126.312C834.39 126.92 833.762 127.398 832.956 127.744C832.154 128.091 831.225 128.264 830.169 128.264C828.703 128.264 827.507 127.952 826.581 127.327C825.654 126.696 825.086 125.801 824.876 124.642L827.339 124.267C827.493 124.909 827.808 125.395 828.285 125.724C828.762 126.048 829.385 126.21 830.152 126.21C830.987 126.21 831.654 126.037 832.154 125.69C832.654 125.338 832.904 124.909 832.904 124.403C832.904 123.994 832.751 123.651 832.444 123.372C832.143 123.094 831.68 122.884 831.055 122.741L828.839 122.256C827.618 121.977 826.714 121.534 826.129 120.926C825.549 120.318 825.26 119.548 825.26 118.616C825.26 117.844 825.475 117.168 825.907 116.588C826.339 116.009 826.936 115.557 827.697 115.233C828.458 114.903 829.331 114.739 830.314 114.739C831.728 114.739 832.842 115.045 833.654 115.659C834.467 116.267 835.004 117.082 835.265 118.105Z" fill="black"/>
<path d="M770.83 137.455C770.778 137.023 770.571 136.688 770.207 136.449C769.844 136.21 769.398 136.091 768.869 136.091C768.483 136.091 768.145 136.153 767.855 136.278C767.568 136.403 767.344 136.575 767.182 136.794C767.023 137.013 766.943 137.261 766.943 137.54C766.943 137.773 766.999 137.973 767.109 138.141C767.223 138.305 767.368 138.443 767.544 138.554C767.72 138.662 767.905 138.751 768.098 138.822C768.291 138.891 768.469 138.946 768.631 138.989L769.517 139.227C769.744 139.287 769.997 139.369 770.276 139.474C770.557 139.58 770.825 139.723 771.081 139.905C771.339 140.084 771.553 140.314 771.72 140.595C771.888 140.876 771.972 141.222 771.972 141.631C771.972 142.102 771.848 142.528 771.601 142.909C771.357 143.29 770.999 143.592 770.527 143.817C770.058 144.041 769.489 144.153 768.818 144.153C768.193 144.153 767.652 144.053 767.195 143.851C766.74 143.649 766.382 143.368 766.121 143.007C765.862 142.646 765.716 142.227 765.682 141.75H766.773C766.801 142.08 766.912 142.352 767.105 142.568C767.301 142.781 767.548 142.94 767.847 143.045C768.148 143.148 768.472 143.199 768.818 143.199C769.222 143.199 769.584 143.134 769.905 143.003C770.226 142.869 770.48 142.685 770.668 142.449C770.855 142.21 770.949 141.932 770.949 141.614C770.949 141.324 770.868 141.088 770.706 140.906C770.544 140.724 770.331 140.577 770.067 140.463C769.803 140.349 769.517 140.25 769.21 140.165L768.136 139.858C767.455 139.662 766.915 139.382 766.517 139.018C766.119 138.655 765.92 138.179 765.92 137.591C765.92 137.102 766.053 136.676 766.317 136.312C766.584 135.946 766.942 135.662 767.391 135.46C767.842 135.256 768.347 135.153 768.903 135.153C769.466 135.153 769.966 135.254 770.403 135.456C770.841 135.655 771.188 135.928 771.443 136.274C771.702 136.621 771.838 137.014 771.852 137.455H770.83ZM774.218 140.062V144H773.213V135.273H774.218V138.477H774.304C774.457 138.139 774.687 137.871 774.994 137.672C775.304 137.47 775.716 137.369 776.23 137.369C776.676 137.369 777.066 137.459 777.402 137.638C777.737 137.814 777.997 138.085 778.182 138.452C778.369 138.815 778.463 139.278 778.463 139.841V144H777.457V139.909C777.457 139.389 777.322 138.987 777.052 138.703C776.785 138.416 776.415 138.273 775.94 138.273C775.611 138.273 775.315 138.342 775.054 138.482C774.795 138.621 774.591 138.824 774.44 139.091C774.292 139.358 774.218 139.682 774.218 140.062ZM782.687 144.136C782.056 144.136 781.512 143.997 781.055 143.719C780.6 143.438 780.249 143.045 780.002 142.543C779.758 142.037 779.636 141.449 779.636 140.778C779.636 140.108 779.758 139.517 780.002 139.006C780.249 138.491 780.593 138.091 781.034 137.804C781.477 137.514 781.994 137.369 782.585 137.369C782.926 137.369 783.262 137.426 783.595 137.54C783.927 137.653 784.23 137.838 784.502 138.094C784.775 138.347 784.992 138.682 785.154 139.099C785.316 139.517 785.397 140.031 785.397 140.642V141.068H780.352V140.199H784.374C784.374 139.83 784.301 139.5 784.153 139.21C784.008 138.92 783.801 138.692 783.531 138.524C783.264 138.357 782.948 138.273 782.585 138.273C782.184 138.273 781.838 138.372 781.545 138.571C781.255 138.767 781.032 139.023 780.876 139.338C780.72 139.653 780.642 139.991 780.642 140.352V140.932C780.642 141.426 780.727 141.845 780.897 142.189C781.07 142.53 781.311 142.79 781.617 142.969C781.924 143.145 782.281 143.233 782.687 143.233C782.951 143.233 783.19 143.196 783.403 143.122C783.619 143.045 783.805 142.932 783.961 142.781C784.117 142.628 784.238 142.437 784.323 142.21L785.295 142.483C785.193 142.812 785.021 143.102 784.779 143.352C784.538 143.599 784.24 143.793 783.884 143.932C783.529 144.068 783.13 144.136 782.687 144.136ZM786.567 144V137.455H787.539V138.443H787.607C787.726 138.119 787.942 137.857 788.255 137.655C788.567 137.453 788.919 137.352 789.311 137.352C789.385 137.352 789.478 137.354 789.588 137.357C789.699 137.359 789.783 137.364 789.84 137.369V138.392C789.806 138.384 789.728 138.371 789.605 138.354C789.486 138.334 789.36 138.324 789.226 138.324C788.908 138.324 788.624 138.391 788.374 138.524C788.127 138.655 787.931 138.837 787.786 139.07C787.644 139.3 787.573 139.562 787.573 139.858V144H786.567ZM790.672 144V137.455H791.678V144H790.672ZM791.183 136.364C790.987 136.364 790.818 136.297 790.676 136.163C790.537 136.03 790.467 135.869 790.467 135.682C790.467 135.494 790.537 135.334 790.676 135.2C790.818 135.067 790.987 135 791.183 135C791.379 135 791.547 135.067 791.686 135.2C791.828 135.334 791.899 135.494 791.899 135.682C791.899 135.869 791.828 136.03 791.686 136.163C791.547 136.297 791.379 136.364 791.183 136.364ZM796.074 137.455V138.307H792.546V137.455H796.074ZM793.603 144V136.551C793.603 136.176 793.691 135.864 793.867 135.614C794.043 135.364 794.272 135.176 794.553 135.051C794.834 134.926 795.131 134.864 795.444 134.864C795.691 134.864 795.892 134.884 796.049 134.923C796.205 134.963 796.321 135 796.398 135.034L796.108 135.903C796.057 135.886 795.986 135.865 795.895 135.839C795.807 135.814 795.691 135.801 795.546 135.801C795.213 135.801 794.973 135.885 794.826 136.053C794.681 136.22 794.608 136.466 794.608 136.79V144H793.603Z" fill="#7C7C7C"/>
<path fill-rule="evenodd" clip-rule="evenodd" d="M783 16V72L743 72V16L783 16ZM775 24L775 64H751L751 24L775 24ZM831 24V72L791 72V24L831 24ZM823 32V64H799V32H823Z" fill="#387152"/>
<path fill-rule="evenodd" clip-rule="evenodd" d="M767 32H759V40H767V32ZM783 80V88L743 88V80L783 80ZM831 80V88L791 88V80L831 80ZM759 48H767V56H759V48ZM815 40H807V48H815V40Z" fill="#63DB9A"/>
<path d="M2.91761 128V110.545H9.1392C10.4915 110.545 11.6136 110.778 12.5057 111.244C13.4034 111.71 14.0739 112.355 14.517 113.179C14.9602 113.997 15.1818 114.943 15.1818 116.017C15.1818 117.085 14.9574 118.026 14.5085 118.838C14.0653 119.645 13.3949 120.273 12.4972 120.722C11.6051 121.17 10.483 121.395 9.13068 121.395H4.41761V119.128H8.89205C9.74432 119.128 10.4375 119.006 10.9716 118.761C11.5114 118.517 11.9062 118.162 12.1562 117.696C12.4062 117.23 12.5312 116.67 12.5312 116.017C12.5312 115.358 12.4034 114.787 12.1477 114.304C11.8977 113.821 11.5028 113.452 10.9631 113.196C10.429 112.935 9.72727 112.804 8.85795 112.804H5.55114V128H2.91761ZM11.5341 120.125L15.8466 128H12.8466L8.61932 120.125H11.5341ZM22.9398 128.264C21.65 128.264 20.5392 127.989 19.6074 127.438C18.6813 126.881 17.9654 126.099 17.4597 125.094C16.9597 124.082 16.7097 122.898 16.7097 121.54C16.7097 120.199 16.9597 119.017 17.4597 117.994C17.9654 116.972 18.6699 116.173 19.5733 115.599C20.4824 115.026 21.5449 114.739 22.7608 114.739C23.4995 114.739 24.2154 114.861 24.9086 115.105C25.6017 115.349 26.2239 115.733 26.775 116.256C27.3262 116.778 27.7608 117.457 28.079 118.293C28.3972 119.122 28.5563 120.131 28.5563 121.318V122.222H18.15V120.312H26.0591C26.0591 119.642 25.9228 119.048 25.65 118.531C25.3773 118.009 24.9938 117.597 24.4995 117.295C24.0108 116.994 23.437 116.844 22.7779 116.844C22.062 116.844 21.437 117.02 20.9029 117.372C20.3745 117.719 19.9654 118.173 19.6756 118.736C19.3915 119.293 19.2495 119.898 19.2495 120.551V122.043C19.2495 122.918 19.4029 123.662 19.7097 124.276C20.0222 124.889 20.4568 125.358 21.0137 125.682C21.5705 126 22.2211 126.159 22.9654 126.159C23.4483 126.159 23.8887 126.091 24.2864 125.955C24.6841 125.812 25.0279 125.602 25.3176 125.324C25.6074 125.045 25.829 124.702 25.9824 124.293L28.3943 124.727C28.2012 125.437 27.8546 126.06 27.3546 126.594C26.8603 127.122 26.2381 127.534 25.4881 127.83C24.7438 128.119 23.8943 128.264 22.9398 128.264ZM40.4734 118.105L38.1637 118.514C38.0671 118.219 37.9137 117.937 37.7035 117.67C37.4989 117.403 37.2205 117.185 36.8682 117.014C36.516 116.844 36.0756 116.759 35.5472 116.759C34.8256 116.759 34.2234 116.92 33.7404 117.244C33.2574 117.562 33.016 117.974 33.016 118.48C33.016 118.918 33.1779 119.27 33.5018 119.537C33.8256 119.804 34.3484 120.023 35.0699 120.193L37.1495 120.67C38.354 120.949 39.2518 121.378 39.8427 121.957C40.4336 122.537 40.729 123.29 40.729 124.216C40.729 125 40.5018 125.699 40.0472 126.312C39.5984 126.92 38.9705 127.398 38.1637 127.744C37.3626 128.091 36.4336 128.264 35.3768 128.264C33.9109 128.264 32.7148 127.952 31.7887 127.327C30.8626 126.696 30.2944 125.801 30.0841 124.642L32.5472 124.267C32.7006 124.909 33.016 125.395 33.4932 125.724C33.9705 126.048 34.5927 126.21 35.3597 126.21C36.1949 126.21 36.8626 126.037 37.3626 125.69C37.8626 125.338 38.1126 124.909 38.1126 124.403C38.1126 123.994 37.9591 123.651 37.6523 123.372C37.3512 123.094 36.8881 122.884 36.2631 122.741L34.0472 122.256C32.8256 121.977 31.9222 121.534 31.337 120.926C30.7574 120.318 30.4677 119.548 30.4677 118.616C30.4677 117.844 30.6836 117.168 31.1154 116.588C31.5472 116.009 32.1438 115.557 32.9052 115.233C33.6665 114.903 34.5387 114.739 35.5216 114.739C36.9364 114.739 38.0501 115.045 38.8626 115.659C39.6751 116.267 40.212 117.082 40.4734 118.105ZM48.4529 128.264C47.1632 128.264 46.0524 127.989 45.1205 127.438C44.1944 126.881 43.4785 126.099 42.9728 125.094C42.4728 124.082 42.2228 122.898 42.2228 121.54C42.2228 120.199 42.4728 119.017 42.9728 117.994C43.4785 116.972 44.183 116.173 45.0864 115.599C45.9955 115.026 47.058 114.739 48.2739 114.739C49.0126 114.739 49.7285 114.861 50.4217 115.105C51.1149 115.349 51.737 115.733 52.2882 116.256C52.8393 116.778 53.2739 117.457 53.5921 118.293C53.9103 119.122 54.0694 120.131 54.0694 121.318V122.222H43.6632V120.312H51.5722C51.5722 119.642 51.4359 119.048 51.1632 118.531C50.8904 118.009 50.5069 117.597 50.0126 117.295C49.5239 116.994 48.9501 116.844 48.291 116.844C47.5751 116.844 46.9501 117.02 46.416 117.372C45.8876 117.719 45.4785 118.173 45.1887 118.736C44.9046 119.293 44.7626 119.898 44.7626 120.551V122.043C44.7626 122.918 44.916 123.662 45.2228 124.276C45.5353 124.889 45.97 125.358 46.5268 125.682C47.0836 126 47.7342 126.159 48.4785 126.159C48.9614 126.159 49.4018 126.091 49.7995 125.955C50.1972 125.812 50.541 125.602 50.8308 125.324C51.1205 125.045 51.3421 124.702 51.4955 124.293L53.9075 124.727C53.7143 125.437 53.3677 126.06 52.8677 126.594C52.3734 127.122 51.7512 127.534 51.0012 127.83C50.2569 128.119 49.4075 128.264 48.4529 128.264ZM59.9865 128.29C59.1569 128.29 58.4069 128.136 57.7365 127.83C57.066 127.517 56.5348 127.065 56.1427 126.474C55.7564 125.884 55.5632 125.159 55.5632 124.301C55.5632 123.562 55.7052 122.955 55.9893 122.477C56.2734 122 56.6569 121.622 57.1399 121.344C57.6228 121.065 58.1626 120.855 58.7592 120.713C59.3558 120.571 59.9637 120.463 60.5831 120.389C61.3672 120.298 62.0035 120.224 62.4922 120.168C62.9808 120.105 63.3359 120.006 63.5575 119.869C63.7791 119.733 63.8899 119.511 63.8899 119.205V119.145C63.8899 118.401 63.6797 117.824 63.2592 117.415C62.8444 117.006 62.2251 116.801 61.4012 116.801C60.5433 116.801 59.8672 116.991 59.3728 117.372C58.8842 117.747 58.5461 118.165 58.3586 118.625L55.9637 118.08C56.2478 117.284 56.6626 116.642 57.2081 116.153C57.7592 115.659 58.3927 115.301 59.1086 115.08C59.8245 114.852 60.5774 114.739 61.3672 114.739C61.8899 114.739 62.4439 114.801 63.0291 114.926C63.62 115.045 64.1711 115.267 64.6825 115.591C65.1995 115.915 65.6228 116.378 65.9524 116.98C66.2819 117.577 66.4467 118.352 66.4467 119.307V128H63.9581V126.21H63.8558C63.691 126.54 63.4439 126.864 63.1143 127.182C62.7848 127.5 62.3615 127.764 61.8444 127.974C61.3274 128.185 60.7081 128.29 59.9865 128.29ZM60.5405 126.244C61.245 126.244 61.8473 126.105 62.3473 125.827C62.853 125.548 63.2365 125.185 63.4978 124.736C63.7649 124.281 63.8984 123.795 63.8984 123.278V121.591C63.8075 121.682 63.6314 121.767 63.37 121.847C63.1143 121.92 62.8217 121.986 62.4922 122.043C62.1626 122.094 61.8416 122.142 61.5291 122.188C61.2166 122.227 60.9552 122.261 60.745 122.29C60.2507 122.352 59.799 122.457 59.3899 122.605C58.9865 122.753 58.6626 122.966 58.4183 123.244C58.1797 123.517 58.0603 123.881 58.0603 124.335C58.0603 124.966 58.2933 125.443 58.7592 125.767C59.2251 126.085 59.8189 126.244 60.5405 126.244ZM69.1209 128V114.909H71.584V116.989H71.7203C71.959 116.284 72.3794 115.73 72.9817 115.327C73.5896 114.918 74.2771 114.713 75.0442 114.713C75.2033 114.713 75.3908 114.719 75.6067 114.73C75.8283 114.741 76.0016 114.756 76.1266 114.773V117.21C76.0243 117.182 75.8425 117.151 75.5811 117.116C75.3197 117.077 75.0584 117.057 74.797 117.057C74.1947 117.057 73.6578 117.185 73.1862 117.44C72.7203 117.69 72.351 118.04 72.0783 118.489C71.8055 118.932 71.6692 119.437 71.6692 120.006V128H69.1209ZM82.6573 128.264C81.3902 128.264 80.2993 127.977 79.3845 127.403C78.4755 126.824 77.7766 126.026 77.288 125.009C76.7993 123.991 76.555 122.827 76.555 121.514C76.555 120.185 76.805 119.011 77.305 117.994C77.805 116.972 78.5095 116.173 79.4186 115.599C80.3277 115.026 81.3988 114.739 82.6317 114.739C83.626 114.739 84.5124 114.923 85.2908 115.293C86.0692 115.656 86.697 116.168 87.1743 116.827C87.6573 117.486 87.9442 118.256 88.0351 119.136H85.555C85.4186 118.523 85.1061 117.994 84.6175 117.551C84.1345 117.108 83.4868 116.886 82.6743 116.886C81.9641 116.886 81.3419 117.074 80.8078 117.449C80.2794 117.818 79.8675 118.347 79.572 119.034C79.2766 119.716 79.1289 120.523 79.1289 121.455C79.1289 122.409 79.2738 123.233 79.5635 123.926C79.8533 124.619 80.2624 125.156 80.7908 125.537C81.3249 125.918 81.9527 126.108 82.6743 126.108C83.1573 126.108 83.5948 126.02 83.9868 125.844C84.3845 125.662 84.7169 125.403 84.984 125.068C85.2567 124.733 85.447 124.33 85.555 123.858H88.0351C87.9442 124.705 87.6686 125.46 87.2084 126.125C86.7482 126.79 86.1317 127.312 85.359 127.693C84.5919 128.074 83.6914 128.264 82.6573 128.264ZM92.5886 120.227V128H90.0403V110.545H92.5545V117.04H92.7164C93.0232 116.335 93.492 115.776 94.1226 115.361C94.7533 114.946 95.5772 114.739 96.5942 114.739C97.492 114.739 98.2761 114.923 98.9465 115.293C99.6226 115.662 100.145 116.213 100.515 116.946C100.89 117.673 101.077 118.582 101.077 119.673V128H98.5289V119.98C98.5289 119.02 98.2817 118.276 97.7874 117.747C97.2931 117.213 96.6056 116.946 95.7249 116.946C95.1226 116.946 94.5829 117.074 94.1056 117.33C93.634 117.585 93.2618 117.96 92.9891 118.455C92.7221 118.943 92.5886 119.534 92.5886 120.227Z" fill="black"/>
<path d="M29.4148 144H28.3068L31.5114 135.273H32.6023L35.8068 144H34.6989L32.0909 136.653H32.0227L29.4148 144ZM29.8239 140.591H34.2898V141.528H29.8239V140.591ZM37.6755 140.062V144H36.6698V135.273H37.6755V138.477H37.7607C37.9141 138.139 38.1443 137.871 38.4511 137.672C38.7607 137.47 39.1727 137.369 39.6869 137.369C40.1329 137.369 40.5235 137.459 40.8587 137.638C41.194 137.814 41.4539 138.085 41.6386 138.452C41.8261 138.815 41.9198 139.278 41.9198 139.841V144H40.9141V139.909C40.9141 139.389 40.7792 138.987 40.5093 138.703C40.2423 138.416 39.8715 138.273 39.3971 138.273C39.0676 138.273 38.7721 138.342 38.5107 138.482C38.2522 138.621 38.0477 138.824 37.8971 139.091C37.7494 139.358 37.6755 139.682 37.6755 140.062ZM43.3997 144V137.455H44.3713V138.477H44.4565C44.5929 138.128 44.813 137.857 45.117 137.663C45.421 137.467 45.786 137.369 46.2122 137.369C46.644 137.369 47.0034 137.467 47.2903 137.663C47.5801 137.857 47.8059 138.128 47.9679 138.477H48.036C48.2037 138.139 48.4551 137.871 48.7903 137.672C49.1255 137.47 49.5275 137.369 49.9963 137.369C50.5815 137.369 51.0602 137.553 51.4323 137.919C51.8045 138.283 51.9906 138.849 51.9906 139.619V144H50.9849V139.619C50.9849 139.136 50.8528 138.791 50.5886 138.584C50.3244 138.376 50.0133 138.273 49.6554 138.273C49.1951 138.273 48.8386 138.412 48.5858 138.69C48.3329 138.966 48.2065 139.315 48.2065 139.739V144H47.1838V139.517C47.1838 139.145 47.063 138.845 46.8215 138.618C46.5801 138.388 46.269 138.273 45.8883 138.273C45.6269 138.273 45.3826 138.342 45.1554 138.482C44.9309 138.621 44.7491 138.814 44.6099 139.061C44.4735 139.305 44.4054 139.588 44.4054 139.909V144H43.3997ZM56.2137 144.136C55.583 144.136 55.039 143.997 54.5816 143.719C54.127 143.438 53.7762 143.045 53.529 142.543C53.2847 142.037 53.1625 141.449 53.1625 140.778C53.1625 140.108 53.2847 139.517 53.529 139.006C53.7762 138.491 54.1199 138.091 54.5603 137.804C55.0035 137.514 55.5205 137.369 56.1114 137.369C56.4523 137.369 56.789 137.426 57.1213 137.54C57.4537 137.653 57.7563 137.838 58.029 138.094C58.3017 138.347 58.5191 138.682 58.681 139.099C58.8429 139.517 58.9239 140.031 58.9239 140.642V141.068H53.8785V140.199H57.9012C57.9012 139.83 57.8273 139.5 57.6796 139.21C57.5347 138.92 57.3273 138.692 57.0574 138.524C56.7904 138.357 56.475 138.273 56.1114 138.273C55.7108 138.273 55.3642 138.372 55.0716 138.571C54.7819 138.767 54.5588 139.023 54.4026 139.338C54.2463 139.653 54.1682 139.991 54.1682 140.352V140.932C54.1682 141.426 54.2535 141.845 54.4239 142.189C54.5972 142.53 54.8373 142.79 55.1441 142.969C55.4509 143.145 55.8074 143.233 56.2137 143.233C56.4779 143.233 56.7165 143.196 56.9296 143.122C57.1455 143.045 57.3316 142.932 57.4878 142.781C57.6441 142.628 57.7648 142.437 57.85 142.21L58.8216 142.483C58.7194 142.812 58.5475 143.102 58.306 143.352C58.0645 143.599 57.7662 143.793 57.4111 143.932C57.056 144.068 56.6569 144.136 56.2137 144.136ZM62.5653 144.136C62.0199 144.136 61.5383 143.999 61.1207 143.723C60.7031 143.445 60.3764 143.053 60.1406 142.547C59.9048 142.038 59.7869 141.438 59.7869 140.744C59.7869 140.057 59.9048 139.46 60.1406 138.955C60.3764 138.449 60.7045 138.058 61.125 137.783C61.5454 137.507 62.0312 137.369 62.5824 137.369C63.0085 137.369 63.3452 137.44 63.5923 137.582C63.8423 137.722 64.0327 137.881 64.1633 138.06C64.2969 138.236 64.4006 138.381 64.4744 138.494H64.5596V135.273H65.5653V144H64.5937V142.994H64.4744C64.4006 143.114 64.2954 143.264 64.1591 143.446C64.0227 143.625 63.8281 143.786 63.5753 143.928C63.3224 144.067 62.9858 144.136 62.5653 144.136ZM62.7017 143.233C63.1051 143.233 63.446 143.128 63.7244 142.918C64.0028 142.705 64.2145 142.411 64.3594 142.036C64.5042 141.658 64.5767 141.222 64.5767 140.727C64.5767 140.239 64.5057 139.811 64.3636 139.445C64.2216 139.075 64.0113 138.788 63.7329 138.584C63.4545 138.376 63.1108 138.273 62.7017 138.273C62.2756 138.273 61.9204 138.382 61.6363 138.601C61.3551 138.817 61.1435 139.111 61.0014 139.483C60.8622 139.852 60.7926 140.267 60.7926 140.727C60.7926 141.193 60.8636 141.616 61.0057 141.997C61.1506 142.375 61.3636 142.676 61.6449 142.901C61.929 143.122 62.2812 143.233 62.7017 143.233Z" fill="#7C7C7C"/>
<path fill-rule="evenodd" clip-rule="evenodd" d="M48 0V24L72 24V48L96 48V72H72H48V48H24V72H0V48V24L24 24V0H48Z" fill="#854EFF"/>
<path fill-rule="evenodd" clip-rule="evenodd" d="M8 8H16V16H8V8ZM96 80V88L0 88V80L96 80ZM64 8H56V16H64V8ZM80 32H88V40H80V32ZM40 56H32V64H40V56Z" fill="#C4A9FF"/>
<path d="M180.918 128V110.545H187.139C188.497 110.545 189.622 110.793 190.514 111.287C191.406 111.781 192.074 112.457 192.517 113.315C192.96 114.168 193.182 115.128 193.182 116.196C193.182 117.27 192.957 118.236 192.509 119.094C192.065 119.946 191.395 120.622 190.497 121.122C189.605 121.616 188.483 121.864 187.131 121.864H182.852V119.631H186.892C187.75 119.631 188.446 119.483 188.98 119.188C189.514 118.886 189.906 118.477 190.156 117.96C190.406 117.443 190.531 116.855 190.531 116.196C190.531 115.537 190.406 114.952 190.156 114.44C189.906 113.929 189.511 113.528 188.972 113.239C188.438 112.949 187.733 112.804 186.858 112.804H183.551V128H180.918ZM200.823 128.264C199.533 128.264 198.422 127.989 197.49 127.438C196.564 126.881 195.848 126.099 195.342 125.094C194.842 124.082 194.592 122.898 194.592 121.54C194.592 120.199 194.842 119.017 195.342 117.994C195.848 116.972 196.553 116.173 197.456 115.599C198.365 115.026 199.428 114.739 200.644 114.739C201.382 114.739 202.098 114.861 202.791 115.105C203.485 115.349 204.107 115.733 204.658 116.256C205.209 116.778 205.644 117.457 205.962 118.293C206.28 119.122 206.439 120.131 206.439 121.318V122.222H196.033V120.312H203.942C203.942 119.642 203.806 119.048 203.533 118.531C203.26 118.009 202.877 117.597 202.382 117.295C201.894 116.994 201.32 116.844 200.661 116.844C199.945 116.844 199.32 117.02 198.786 117.372C198.257 117.719 197.848 118.173 197.558 118.736C197.274 119.293 197.132 119.898 197.132 120.551V122.043C197.132 122.918 197.286 123.662 197.592 124.276C197.905 124.889 198.34 125.358 198.896 125.682C199.453 126 200.104 126.159 200.848 126.159C201.331 126.159 201.771 126.091 202.169 125.955C202.567 125.812 202.911 125.602 203.2 125.324C203.49 125.045 203.712 124.702 203.865 124.293L206.277 124.727C206.084 125.437 205.737 126.06 205.237 126.594C204.743 127.122 204.121 127.534 203.371 127.83C202.627 128.119 201.777 128.264 200.823 128.264ZM208.547 128V114.909H211.01V116.989H211.146C211.385 116.284 211.805 115.73 212.407 115.327C213.015 114.918 213.703 114.713 214.47 114.713C214.629 114.713 214.816 114.719 215.032 114.73C215.254 114.741 215.427 114.756 215.552 114.773V117.21C215.45 117.182 215.268 117.151 215.007 117.116C214.745 117.077 214.484 117.057 214.223 117.057C213.62 117.057 213.083 117.185 212.612 117.44C212.146 117.69 211.777 118.04 211.504 118.489C211.231 118.932 211.095 119.437 211.095 120.006V128H208.547ZM226.847 118.105L224.537 118.514C224.441 118.219 224.287 117.937 224.077 117.67C223.873 117.403 223.594 117.185 223.242 117.014C222.89 116.844 222.449 116.759 221.921 116.759C221.199 116.759 220.597 116.92 220.114 117.244C219.631 117.562 219.39 117.974 219.39 118.48C219.39 118.918 219.552 119.27 219.876 119.537C220.199 119.804 220.722 120.023 221.444 120.193L223.523 120.67C224.728 120.949 225.626 121.378 226.216 121.957C226.807 122.537 227.103 123.29 227.103 124.216C227.103 125 226.876 125.699 226.421 126.312C225.972 126.92 225.344 127.398 224.537 127.744C223.736 128.091 222.807 128.264 221.751 128.264C220.285 128.264 219.089 127.952 218.162 127.327C217.236 126.696 216.668 125.801 216.458 124.642L218.921 124.267C219.074 124.909 219.39 125.395 219.867 125.724C220.344 126.048 220.966 126.21 221.733 126.21C222.569 126.21 223.236 126.037 223.736 125.69C224.236 125.338 224.486 124.909 224.486 124.403C224.486 123.994 224.333 123.651 224.026 123.372C223.725 123.094 223.262 122.884 222.637 122.741L220.421 122.256C219.199 121.977 218.296 121.534 217.711 120.926C217.131 120.318 216.841 119.548 216.841 118.616C216.841 117.844 217.057 117.168 217.489 116.588C217.921 116.009 218.518 115.557 219.279 115.233C220.04 114.903 220.912 114.739 221.895 114.739C223.31 114.739 224.424 115.045 225.236 115.659C226.049 116.267 226.586 117.082 226.847 118.105ZM234.699 128.264C233.472 128.264 232.401 127.983 231.486 127.42C230.571 126.858 229.861 126.071 229.355 125.06C228.849 124.048 228.597 122.866 228.597 121.514C228.597 120.156 228.849 118.969 229.355 117.952C229.861 116.935 230.571 116.145 231.486 115.582C232.401 115.02 233.472 114.739 234.699 114.739C235.926 114.739 236.997 115.02 237.912 115.582C238.827 116.145 239.537 116.935 240.043 117.952C240.548 118.969 240.801 120.156 240.801 121.514C240.801 122.866 240.548 124.048 240.043 125.06C239.537 126.071 238.827 126.858 237.912 127.42C236.997 127.983 235.926 128.264 234.699 128.264ZM234.707 126.125C235.503 126.125 236.162 125.915 236.685 125.494C237.207 125.074 237.594 124.514 237.844 123.815C238.099 123.116 238.227 122.347 238.227 121.506C238.227 120.67 238.099 119.903 237.844 119.205C237.594 118.5 237.207 117.935 236.685 117.509C236.162 117.082 235.503 116.869 234.707 116.869C233.906 116.869 233.241 117.082 232.713 117.509C232.19 117.935 231.801 118.5 231.545 119.205C231.295 119.903 231.17 120.67 231.17 121.506C231.17 122.347 231.295 123.116 231.545 123.815C231.801 124.514 232.19 125.074 232.713 125.494C233.241 125.915 233.906 126.125 234.707 126.125ZM245.474 120.227V128H242.926V114.909H245.372V117.04H245.534C245.835 116.347 246.306 115.79 246.948 115.369C247.596 114.949 248.411 114.739 249.394 114.739C250.286 114.739 251.068 114.926 251.738 115.301C252.409 115.67 252.928 116.222 253.298 116.955C253.667 117.687 253.852 118.594 253.852 119.673V128H251.303V119.98C251.303 119.031 251.056 118.29 250.562 117.756C250.068 117.216 249.389 116.946 248.525 116.946C247.934 116.946 247.409 117.074 246.948 117.33C246.494 117.585 246.133 117.96 245.866 118.455C245.605 118.943 245.474 119.534 245.474 120.227ZM260.359 128.29C259.529 128.29 258.779 128.136 258.109 127.83C257.439 127.517 256.907 127.065 256.515 126.474C256.129 125.884 255.936 125.159 255.936 124.301C255.936 123.562 256.078 122.955 256.362 122.477C256.646 122 257.029 121.622 257.512 121.344C257.995 121.065 258.535 120.855 259.132 120.713C259.728 120.571 260.336 120.463 260.956 120.389C261.74 120.298 262.376 120.224 262.865 120.168C263.353 120.105 263.708 120.006 263.93 119.869C264.152 119.733 264.262 119.511 264.262 119.205V119.145C264.262 118.401 264.052 117.824 263.632 117.415C263.217 117.006 262.598 116.801 261.774 116.801C260.916 116.801 260.24 116.991 259.745 117.372C259.257 117.747 258.919 118.165 258.731 118.625L256.336 118.08C256.62 117.284 257.035 116.642 257.581 116.153C258.132 115.659 258.765 115.301 259.481 115.08C260.197 114.852 260.95 114.739 261.74 114.739C262.262 114.739 262.816 114.801 263.402 114.926C263.993 115.045 264.544 115.267 265.055 115.591C265.572 115.915 265.995 116.378 266.325 116.98C266.654 117.577 266.819 118.352 266.819 119.307V128H264.331V126.21H264.228C264.064 126.54 263.816 126.864 263.487 127.182C263.157 127.5 262.734 127.764 262.217 127.974C261.7 128.185 261.081 128.29 260.359 128.29ZM260.913 126.244C261.618 126.244 262.22 126.105 262.72 125.827C263.225 125.548 263.609 125.185 263.87 124.736C264.137 124.281 264.271 123.795 264.271 123.278V121.591C264.18 121.682 264.004 121.767 263.743 121.847C263.487 121.92 263.194 121.986 262.865 122.043C262.535 122.094 262.214 122.142 261.902 122.188C261.589 122.227 261.328 122.261 261.118 122.29C260.623 122.352 260.171 122.457 259.762 122.605C259.359 122.753 259.035 122.966 258.791 123.244C258.552 123.517 258.433 123.881 258.433 124.335C258.433 124.966 258.666 125.443 259.132 125.767C259.598 126.085 260.191 126.244 260.913 126.244ZM279.303 118.105L276.993 118.514C276.897 118.219 276.743 117.937 276.533 117.67C276.329 117.403 276.05 117.185 275.698 117.014C275.346 116.844 274.905 116.759 274.377 116.759C273.655 116.759 273.053 116.92 272.57 117.244C272.087 117.562 271.846 117.974 271.846 118.48C271.846 118.918 272.008 119.27 272.331 119.537C272.655 119.804 273.178 120.023 273.9 120.193L275.979 120.67C277.184 120.949 278.081 121.378 278.672 121.957C279.263 122.537 279.559 123.29 279.559 124.216C279.559 125 279.331 125.699 278.877 126.312C278.428 126.92 277.8 127.398 276.993 127.744C276.192 128.091 275.263 128.264 274.206 128.264C272.741 128.264 271.545 127.952 270.618 127.327C269.692 126.696 269.124 125.801 268.914 124.642L271.377 124.267C271.53 124.909 271.846 125.395 272.323 125.724C272.8 126.048 273.422 126.21 274.189 126.21C275.025 126.21 275.692 126.037 276.192 125.69C276.692 125.338 276.942 124.909 276.942 124.403C276.942 123.994 276.789 123.651 276.482 123.372C276.181 123.094 275.718 122.884 275.093 122.741L272.877 122.256C271.655 121.977 270.752 121.534 270.167 120.926C269.587 120.318 269.297 119.548 269.297 118.616C269.297 117.844 269.513 117.168 269.945 116.588C270.377 116.009 270.973 115.557 271.735 115.233C272.496 114.903 273.368 114.739 274.351 114.739C275.766 114.739 276.88 115.045 277.692 115.659C278.505 116.267 279.042 117.082 279.303 118.105Z" fill="black"/>
<path d="M206.415 144H205.307L208.511 135.273H209.602L212.807 144H211.699L209.091 136.653H209.023L206.415 144ZM206.824 140.591H211.29V141.528H206.824V140.591ZM214.676 140.062V144H213.67V135.273H214.676V138.477H214.761C214.914 138.139 215.144 137.871 215.451 137.672C215.761 137.47 216.173 137.369 216.687 137.369C217.133 137.369 217.524 137.459 217.859 137.638C218.194 137.814 218.454 138.085 218.639 138.452C218.826 138.815 218.92 139.278 218.92 139.841V144H217.914V139.909C217.914 139.389 217.779 138.987 217.509 138.703C217.242 138.416 216.872 138.273 216.397 138.273C216.068 138.273 215.772 138.342 215.511 138.482C215.252 138.621 215.048 138.824 214.897 139.091C214.749 139.358 214.676 139.682 214.676 140.062ZM220.4 144V137.455H221.371V138.477H221.456C221.593 138.128 221.813 137.857 222.117 137.663C222.421 137.467 222.786 137.369 223.212 137.369C223.644 137.369 224.003 137.467 224.29 137.663C224.58 137.857 224.806 138.128 224.968 138.477H225.036C225.204 138.139 225.455 137.871 225.79 137.672C226.126 137.47 226.528 137.369 226.996 137.369C227.581 137.369 228.06 137.553 228.432 137.919C228.805 138.283 228.991 138.849 228.991 139.619V144H227.985V139.619C227.985 139.136 227.853 138.791 227.589 138.584C227.324 138.376 227.013 138.273 226.655 138.273C226.195 138.273 225.839 138.412 225.586 138.69C225.333 138.966 225.206 139.315 225.206 139.739V144H224.184V139.517C224.184 139.145 224.063 138.845 223.822 138.618C223.58 138.388 223.269 138.273 222.888 138.273C222.627 138.273 222.383 138.342 222.155 138.482C221.931 138.621 221.749 138.814 221.61 139.061C221.474 139.305 221.405 139.588 221.405 139.909V144H220.4ZM233.214 144.136C232.583 144.136 232.039 143.997 231.582 143.719C231.127 143.438 230.776 143.045 230.529 142.543C230.285 142.037 230.163 141.449 230.163 140.778C230.163 140.108 230.285 139.517 230.529 139.006C230.776 138.491 231.12 138.091 231.56 137.804C232.003 137.514 232.52 137.369 233.111 137.369C233.452 137.369 233.789 137.426 234.121 137.54C234.454 137.653 234.756 137.838 235.029 138.094C235.302 138.347 235.519 138.682 235.681 139.099C235.843 139.517 235.924 140.031 235.924 140.642V141.068H230.878V140.199H234.901C234.901 139.83 234.827 139.5 234.68 139.21C234.535 138.92 234.327 138.692 234.057 138.524C233.79 138.357 233.475 138.273 233.111 138.273C232.711 138.273 232.364 138.372 232.072 138.571C231.782 138.767 231.559 139.023 231.403 139.338C231.246 139.653 231.168 139.991 231.168 140.352V140.932C231.168 141.426 231.253 141.845 231.424 142.189C231.597 142.53 231.837 142.79 232.144 142.969C232.451 143.145 232.807 143.233 233.214 143.233C233.478 143.233 233.717 143.196 233.93 143.122C234.145 143.045 234.332 142.932 234.488 142.781C234.644 142.628 234.765 142.437 234.85 142.21L235.822 142.483C235.719 142.812 235.547 143.102 235.306 143.352C235.065 143.599 234.766 143.793 234.411 143.932C234.056 144.068 233.657 144.136 233.214 144.136ZM239.565 144.136C239.02 144.136 238.538 143.999 238.121 143.723C237.703 143.445 237.376 143.053 237.141 142.547C236.905 142.038 236.787 141.438 236.787 140.744C236.787 140.057 236.905 139.46 237.141 138.955C237.376 138.449 237.705 138.058 238.125 137.783C238.545 137.507 239.031 137.369 239.582 137.369C240.009 137.369 240.345 137.44 240.592 137.582C240.842 137.722 241.033 137.881 241.163 138.06C241.297 138.236 241.401 138.381 241.474 138.494H241.56V135.273H242.565V144H241.594V142.994H241.474C241.401 143.114 241.295 143.264 241.159 143.446C241.023 143.625 240.828 143.786 240.575 143.928C240.322 144.067 239.986 144.136 239.565 144.136ZM239.702 143.233C240.105 143.233 240.446 143.128 240.724 142.918C241.003 142.705 241.214 142.411 241.359 142.036C241.504 141.658 241.577 141.222 241.577 140.727C241.577 140.239 241.506 139.811 241.364 139.445C241.222 139.075 241.011 138.788 240.733 138.584C240.455 138.376 240.111 138.273 239.702 138.273C239.276 138.273 238.92 138.382 238.636 138.601C238.355 138.817 238.143 139.111 238.001 139.483C237.862 139.852 237.793 140.267 237.793 140.727C237.793 141.193 237.864 141.616 238.006 141.997C238.151 142.375 238.364 142.676 238.645 142.901C238.929 143.122 239.281 143.233 239.702 143.233Z" fill="#7C7C7C"/>
<path fill-rule="evenodd" clip-rule="evenodd" d="M237 16V56H213V16H237ZM205 32V56H181V32L205 32ZM269 56V24L245 24V56H269Z" fill="#B98E01"/>
<path fill-rule="evenodd" clip-rule="evenodd" d="M221 0H229V8H221V0ZM197 16H189V24H197V16ZM205 64V72H181V64H205ZM205 80V88H181V80H205ZM237 72V64H213V72H237ZM237 80V88H213V80H237ZM269 72V64H245V72H269ZM269 80V88H245V80H269ZM261 8H253V16H261V8Z" fill="#E6C867"/>
<path d="M365.392 128H362.597L368.878 110.545H371.92L378.202 128H375.406L370.472 113.716H370.335L365.392 128ZM365.861 121.165H374.929V123.381H365.861V121.165ZM382.346 120.227V128H379.798V114.909H382.244V117.04H382.406C382.707 116.347 383.178 115.79 383.82 115.369C384.468 114.949 385.284 114.739 386.267 114.739C387.159 114.739 387.94 114.926 388.61 115.301C389.281 115.67 389.801 116.222 390.17 116.955C390.539 117.687 390.724 118.594 390.724 119.673V128H388.176V119.98C388.176 119.031 387.928 118.29 387.434 117.756C386.94 117.216 386.261 116.946 385.397 116.946C384.806 116.946 384.281 117.074 383.82 117.33C383.366 117.585 383.005 117.96 382.738 118.455C382.477 118.943 382.346 119.534 382.346 120.227ZM397.231 128.29C396.402 128.29 395.652 128.136 394.981 127.83C394.311 127.517 393.779 127.065 393.387 126.474C393.001 125.884 392.808 125.159 392.808 124.301C392.808 123.562 392.95 122.955 393.234 122.477C393.518 122 393.902 121.622 394.385 121.344C394.868 121.065 395.407 120.855 396.004 120.713C396.6 120.571 397.208 120.463 397.828 120.389C398.612 120.298 399.248 120.224 399.737 120.168C400.225 120.105 400.581 120.006 400.802 119.869C401.024 119.733 401.135 119.511 401.135 119.205V119.145C401.135 118.401 400.924 117.824 400.504 117.415C400.089 117.006 399.47 116.801 398.646 116.801C397.788 116.801 397.112 116.991 396.618 117.372C396.129 117.747 395.791 118.165 395.603 118.625L393.208 118.08C393.493 117.284 393.907 116.642 394.453 116.153C395.004 115.659 395.637 115.301 396.353 115.08C397.069 114.852 397.822 114.739 398.612 114.739C399.135 114.739 399.689 114.801 400.274 114.926C400.865 115.045 401.416 115.267 401.927 115.591C402.444 115.915 402.868 116.378 403.197 116.98C403.527 117.577 403.691 118.352 403.691 119.307V128H401.203V126.21H401.1C400.936 126.54 400.689 126.864 400.359 127.182C400.029 127.5 399.606 127.764 399.089 127.974C398.572 128.185 397.953 128.29 397.231 128.29ZM397.785 126.244C398.49 126.244 399.092 126.105 399.592 125.827C400.098 125.548 400.481 125.185 400.743 124.736C401.01 124.281 401.143 123.795 401.143 123.278V121.591C401.052 121.682 400.876 121.767 400.615 121.847C400.359 121.92 400.066 121.986 399.737 122.043C399.407 122.094 399.086 122.142 398.774 122.188C398.461 122.227 398.2 122.261 397.99 122.29C397.495 122.352 397.044 122.457 396.635 122.605C396.231 122.753 395.907 122.966 395.663 123.244C395.424 123.517 395.305 123.881 395.305 124.335C395.305 124.966 395.538 125.443 396.004 125.767C396.47 126.085 397.064 126.244 397.785 126.244ZM408.914 110.545V128H406.366V110.545H408.914ZM413.233 132.909C412.852 132.909 412.506 132.878 412.193 132.815C411.881 132.759 411.648 132.696 411.494 132.628L412.108 130.54C412.574 130.665 412.989 130.719 413.352 130.702C413.716 130.685 414.037 130.548 414.315 130.293C414.599 130.037 414.849 129.619 415.065 129.04L415.381 128.17L410.591 114.909H413.318L416.633 125.068H416.77L420.085 114.909H422.821L417.426 129.747C417.176 130.429 416.858 131.006 416.472 131.477C416.085 131.955 415.625 132.313 415.091 132.551C414.557 132.79 413.937 132.909 413.233 132.909ZM434.306 118.105L431.996 118.514C431.899 118.219 431.746 117.937 431.536 117.67C431.331 117.403 431.053 117.185 430.7 117.014C430.348 116.844 429.908 116.759 429.379 116.759C428.658 116.759 428.056 116.92 427.573 117.244C427.09 117.562 426.848 117.974 426.848 118.48C426.848 118.918 427.01 119.27 427.334 119.537C427.658 119.804 428.181 120.023 428.902 120.193L430.982 120.67C432.186 120.949 433.084 121.378 433.675 121.957C434.266 122.537 434.561 123.29 434.561 124.216C434.561 125 434.334 125.699 433.879 126.312C433.431 126.92 432.803 127.398 431.996 127.744C431.195 128.091 430.266 128.264 429.209 128.264C427.743 128.264 426.547 127.952 425.621 127.327C424.695 126.696 424.127 125.801 423.916 124.642L426.379 124.267C426.533 124.909 426.848 125.395 427.325 125.724C427.803 126.048 428.425 126.21 429.192 126.21C430.027 126.21 430.695 126.037 431.195 125.69C431.695 125.338 431.945 124.909 431.945 124.403C431.945 123.994 431.791 123.651 431.485 123.372C431.183 123.094 430.72 122.884 430.095 122.741L427.879 122.256C426.658 121.977 425.754 121.534 425.169 120.926C424.59 120.318 424.3 119.548 424.3 118.616C424.3 117.844 424.516 117.168 424.948 116.588C425.379 116.009 425.976 115.557 426.737 115.233C427.499 114.903 428.371 114.739 429.354 114.739C430.769 114.739 431.882 115.045 432.695 115.659C433.507 116.267 434.044 117.082 434.306 118.105ZM436.643 128V114.909H439.191V128H436.643ZM437.93 112.889C437.487 112.889 437.106 112.741 436.788 112.446C436.475 112.145 436.319 111.787 436.319 111.372C436.319 110.952 436.475 110.594 436.788 110.298C437.106 109.997 437.487 109.847 437.93 109.847C438.373 109.847 438.751 109.997 439.064 110.298C439.382 110.594 439.541 110.952 439.541 111.372C439.541 111.787 439.382 112.145 439.064 112.446C438.751 112.741 438.373 112.889 437.93 112.889ZM451.709 118.105L449.4 118.514C449.303 118.219 449.15 117.937 448.939 117.67C448.735 117.403 448.456 117.185 448.104 117.014C447.752 116.844 447.312 116.759 446.783 116.759C446.062 116.759 445.459 116.92 444.976 117.244C444.493 117.562 444.252 117.974 444.252 118.48C444.252 118.918 444.414 119.27 444.738 119.537C445.062 119.804 445.584 120.023 446.306 120.193L448.385 120.67C449.59 120.949 450.488 121.378 451.079 121.957C451.67 122.537 451.965 123.29 451.965 124.216C451.965 125 451.738 125.699 451.283 126.312C450.834 126.92 450.206 127.398 449.4 127.744C448.598 128.091 447.67 128.264 446.613 128.264C445.147 128.264 443.951 127.952 443.025 127.327C442.098 126.696 441.53 125.801 441.32 124.642L443.783 124.267C443.937 124.909 444.252 125.395 444.729 125.724C445.206 126.048 445.829 126.21 446.596 126.21C447.431 126.21 448.098 126.037 448.598 125.69C449.098 125.338 449.348 124.909 449.348 124.403C449.348 123.994 449.195 123.651 448.888 123.372C448.587 123.094 448.124 122.884 447.499 122.741L445.283 122.256C444.062 121.977 443.158 121.534 442.573 120.926C441.993 120.318 441.704 119.548 441.704 118.616C441.704 117.844 441.92 117.168 442.351 116.588C442.783 116.009 443.38 115.557 444.141 115.233C444.902 114.903 445.775 114.739 446.758 114.739C448.172 114.739 449.286 115.045 450.098 115.659C450.911 116.267 451.448 117.082 451.709 118.105Z" fill="black"/>
<path d="M551.057 112.812V110.545H564.565V112.812H559.119V128H556.494V112.812H551.057ZM568.654 128.29C567.825 128.29 567.075 128.136 566.404 127.83C565.734 127.517 565.203 127.065 564.811 126.474C564.424 125.884 564.231 125.159 564.231 124.301C564.231 123.562 564.373 122.955 564.657 122.477C564.941 122 565.325 121.622 565.808 121.344C566.291 121.065 566.83 120.855 567.427 120.713C568.024 120.571 568.632 120.463 569.251 120.389C570.035 120.298 570.671 120.224 571.16 120.168C571.649 120.105 572.004 120.006 572.225 119.869C572.447 119.733 572.558 119.511 572.558 119.205V119.145C572.558 118.401 572.347 117.824 571.927 117.415C571.512 117.006 570.893 116.801 570.069 116.801C569.211 116.801 568.535 116.991 568.041 117.372C567.552 117.747 567.214 118.165 567.026 118.625L564.632 118.08C564.916 117.284 565.33 116.642 565.876 116.153C566.427 115.659 567.061 115.301 567.776 115.08C568.492 114.852 569.245 114.739 570.035 114.739C570.558 114.739 571.112 114.801 571.697 114.926C572.288 115.045 572.839 115.267 573.35 115.591C573.867 115.915 574.291 116.378 574.62 116.98C574.95 117.577 575.115 118.352 575.115 119.307V128H572.626V126.21H572.524C572.359 126.54 572.112 126.864 571.782 127.182C571.453 127.5 571.029 127.764 570.512 127.974C569.995 128.185 569.376 128.29 568.654 128.29ZM569.208 126.244C569.913 126.244 570.515 126.105 571.015 125.827C571.521 125.548 571.904 125.185 572.166 124.736C572.433 124.281 572.566 123.795 572.566 123.278V121.591C572.475 121.682 572.299 121.767 572.038 121.847C571.782 121.92 571.49 121.986 571.16 122.043C570.83 122.094 570.509 122.142 570.197 122.188C569.884 122.227 569.623 122.261 569.413 122.29C568.918 122.352 568.467 122.457 568.058 122.605C567.654 122.753 567.33 122.966 567.086 123.244C566.847 123.517 566.728 123.881 566.728 124.335C566.728 124.966 566.961 125.443 567.427 125.767C567.893 126.085 568.487 126.244 569.208 126.244ZM587.598 118.105L585.289 118.514C585.192 118.219 585.039 117.937 584.828 117.67C584.624 117.403 584.346 117.185 583.993 117.014C583.641 116.844 583.201 116.759 582.672 116.759C581.951 116.759 581.348 116.92 580.865 117.244C580.382 117.562 580.141 117.974 580.141 118.48C580.141 118.918 580.303 119.27 580.627 119.537C580.951 119.804 581.473 120.023 582.195 120.193L584.274 120.67C585.479 120.949 586.377 121.378 586.968 121.957C587.559 122.537 587.854 123.29 587.854 124.216C587.854 125 587.627 125.699 587.172 126.312C586.723 126.92 586.096 127.398 585.289 127.744C584.488 128.091 583.559 128.264 582.502 128.264C581.036 128.264 579.84 127.952 578.914 127.327C577.988 126.696 577.419 125.801 577.209 124.642L579.672 124.267C579.826 124.909 580.141 125.395 580.618 125.724C581.096 126.048 581.718 126.21 582.485 126.21C583.32 126.21 583.988 126.037 584.488 125.69C584.988 125.338 585.238 124.909 585.238 124.403C585.238 123.994 585.084 123.651 584.777 123.372C584.476 123.094 584.013 122.884 583.388 122.741L581.172 122.256C579.951 121.977 579.047 121.534 578.462 120.926C577.882 120.318 577.593 119.548 577.593 118.616C577.593 117.844 577.809 117.168 578.24 116.588C578.672 116.009 579.269 115.557 580.03 115.233C580.792 114.903 581.664 114.739 582.647 114.739C584.061 114.739 585.175 115.045 585.988 115.659C586.8 116.267 587.337 117.082 587.598 118.105ZM592.28 123.56L592.263 120.449H592.706L597.922 114.909H600.973L595.024 121.216H594.623L592.28 123.56ZM589.936 128V110.545H592.484V128H589.936ZM598.203 128L593.515 121.778L595.271 119.997L601.331 128H598.203ZM612.385 118.105L610.075 118.514C609.979 118.219 609.825 117.937 609.615 117.67C609.41 117.403 609.132 117.185 608.78 117.014C608.428 116.844 607.987 116.759 607.459 116.759C606.737 116.759 606.135 116.92 605.652 117.244C605.169 117.562 604.928 117.974 604.928 118.48C604.928 118.918 605.089 119.27 605.413 119.537C605.737 119.804 606.26 120.023 606.982 120.193L609.061 120.67C610.266 120.949 611.163 121.378 611.754 121.957C612.345 122.537 612.641 123.29 612.641 124.216C612.641 125 612.413 125.699 611.959 126.312C611.51 126.92 610.882 127.398 610.075 127.744C609.274 128.091 608.345 128.264 607.288 128.264C605.822 128.264 604.626 127.952 603.7 127.327C602.774 126.696 602.206 125.801 601.996 124.642L604.459 124.267C604.612 124.909 604.928 125.395 605.405 125.724C605.882 126.048 606.504 126.21 607.271 126.21C608.107 126.21 608.774 126.037 609.274 125.69C609.774 125.338 610.024 124.909 610.024 124.403C610.024 123.994 609.871 123.651 609.564 123.372C609.263 123.094 608.8 122.884 608.175 122.741L605.959 122.256C604.737 121.977 603.834 121.534 603.249 120.926C602.669 120.318 602.379 119.548 602.379 118.616C602.379 117.844 602.595 117.168 603.027 116.588C603.459 116.009 604.055 115.557 604.817 115.233C605.578 114.903 606.45 114.739 607.433 114.739C608.848 114.739 609.962 115.045 610.774 115.659C611.587 116.267 612.124 117.082 612.385 118.105Z" fill="black"/>
<path fill-rule="evenodd" clip-rule="evenodd" d="M372 0.00866699L364 0.00866699V88.0087H372L372 64.0094H396L396 88.0087H404V32.0087H404.025V24.0086L404 24.0086L404 0.00866699L396 0.00866699V24.0086L372 24.0086V0.00866699ZM396 32.0087L372 32.0087L372 56.0094L396 56.0094V32.0087Z" fill="#FF7338"/>
<path fill-rule="evenodd" clip-rule="evenodd" d="M420 16H412V88H420V64.0094H444V88H452V32.0087H452.025V24.0086H452V16L444 16V24.0086L420 24.0086V16ZM444 32.0087L420 32.0087V56.0094L444 56.0094V32.0087Z" fill="#FF7338"/>
<path fill-rule="evenodd" clip-rule="evenodd" d="M420 16H412V88H420V64.0094H444V88H452V32.0087H452.025V24.0086H452V16L444 16V24.0086L420 24.0086V16ZM444 32.0087L420 32.0087V56.0094L444 56.0094V32.0087Z" fill="#FF7338"/>
<rect x="380" y="40" width="8" height="8" fill="#FFB89B"/>
<rect x="380" y="72" width="8" height="8" fill="#FFB89B"/>
<rect x="428" y="40" width="8" height="8" fill="#FFB89B"/>
<rect x="632.646" y="16" width="8.00001" height="39.6459" transform="rotate(90 632.646 16)" fill="#00B6FF"/>
<rect x="608" y="64" width="8" height="16" transform="rotate(90 608 64)" fill="#00B6FF"/>
<path fill-rule="evenodd" clip-rule="evenodd" d="M584 0L544 4.76837e-07V40H584V0ZM576 8L552 8.00001V32H576V8Z" fill="#00B6FF"/>
<path fill-rule="evenodd" clip-rule="evenodd" d="M584 49H544L544 89H584L584 49ZM576 57H552V81H576V57Z" fill="#00B6FF"/>
<rect x="560" y="16" width="8" height="8" fill="#79D9FF"/>
<rect x="560" y="65" width="8" height="8" fill="#79D9FF"/>
<rect x="640" y="16" width="8" height="8" fill="#79D9FF"/>
<rect x="616" y="64" width="8" height="8" fill="#79D9FF"/>
<rect x="632" y="24" width="8" height="8" fill="#79D9FF"/>
<rect x="608" y="72" width="8" height="8" fill="#79D9FF"/>
<rect x="624" y="32" width="8" height="8" fill="#79D9FF"/>
<rect x="600" y="80" width="8" height="8" fill="#79D9FF"/>
<rect x="632" y="8" width="8" height="8" fill="#79D9FF"/>
<rect x="608" y="56" width="8" height="8" fill="#79D9FF"/>
<rect x="624" width="8" height="8" fill="#79D9FF"/>
<rect x="600" y="48" width="8" height="8" fill="#79D9FF"/>
</svg>
