<svg width="388" height="298" viewBox="0 0 388 298" fill="none" xmlns="http://www.w3.org/2000/svg">
<path d="M12.9675 287V242.2H23.3995L41.9595 272.664H36.4555L54.5035 242.2H64.9355L65.0635 287H53.4155L53.2875 259.928H55.2715L41.7675 282.584H36.1355L22.2475 259.928H24.6795V287H12.9675ZM90.2953 287.576C86.498 287.576 83.1273 286.808 80.1833 285.272C77.2393 283.736 74.914 281.624 73.2073 278.936C71.5433 276.205 70.7113 273.091 70.7113 269.592C70.7113 266.093 71.5433 263 73.2073 260.312C74.914 257.624 77.2393 255.533 80.1833 254.04C83.1273 252.504 86.498 251.736 90.2953 251.736C94.0927 251.736 97.4633 252.504 100.407 254.04C103.394 255.533 105.719 257.624 107.383 260.312C109.047 263 109.879 266.093 109.879 269.592C109.879 273.091 109.047 276.205 107.383 278.936C105.719 281.624 103.394 283.736 100.407 285.272C97.4633 286.808 94.0927 287.576 90.2953 287.576ZM90.2953 277.912C91.7033 277.912 92.9407 277.592 94.0073 276.952C95.1167 276.312 95.9913 275.373 96.6313 274.136C97.2713 272.856 97.5913 271.341 97.5913 269.592C97.5913 267.843 97.2713 266.371 96.6313 265.176C95.9913 263.939 95.1167 263 94.0073 262.36C92.9407 261.72 91.7033 261.4 90.2953 261.4C88.93 261.4 87.6927 261.72 86.5833 262.36C85.5167 263 84.642 263.939 83.9593 265.176C83.3193 266.371 82.9993 267.843 82.9993 269.592C82.9993 271.341 83.3193 272.856 83.9593 274.136C84.642 275.373 85.5167 276.312 86.5833 276.952C87.6927 277.592 88.93 277.912 90.2953 277.912ZM137.538 251.736C140.226 251.736 142.658 252.291 144.834 253.4C147.01 254.467 148.716 256.131 149.954 258.392C151.234 260.653 151.874 263.576 151.874 267.16V287H139.714V269.144C139.714 266.669 139.202 264.877 138.178 263.768C137.196 262.616 135.81 262.04 134.018 262.04C132.738 262.04 131.564 262.339 130.498 262.936C129.431 263.491 128.599 264.365 128.002 265.56C127.404 266.755 127.106 268.312 127.106 270.232V287H114.946V252.312H126.53V262.168L124.29 259.288C125.612 256.771 127.426 254.893 129.73 253.656C132.034 252.376 134.636 251.736 137.538 251.736ZM174.43 287.576C169.992 287.576 166.536 286.488 164.062 284.312C161.587 282.093 160.35 278.765 160.35 274.328V244.568H172.51V274.2C172.51 275.437 172.851 276.419 173.534 277.144C174.216 277.827 175.091 278.168 176.158 278.168C177.608 278.168 178.846 277.805 179.87 277.08L182.878 285.592C181.854 286.275 180.595 286.765 179.102 287.064C177.608 287.405 176.051 287.576 174.43 287.576ZM155.294 262.68V253.592H180.446V262.68H155.294ZM199.608 287.576C196.664 287.576 193.784 287.235 190.968 286.552C188.195 285.869 185.955 285.016 184.248 283.992L187.896 275.672C189.517 276.653 191.416 277.443 193.592 278.04C195.768 278.595 197.901 278.872 199.992 278.872C202.04 278.872 203.448 278.659 204.216 278.232C205.027 277.805 205.432 277.229 205.432 276.504C205.432 275.821 205.048 275.331 204.28 275.032C203.555 274.691 202.573 274.435 201.336 274.264C200.141 274.093 198.819 273.901 197.368 273.688C195.917 273.475 194.445 273.197 192.952 272.856C191.501 272.472 190.157 271.917 188.92 271.192C187.725 270.424 186.765 269.4 186.04 268.12C185.315 266.84 184.952 265.219 184.952 263.256C184.952 261.037 185.592 259.075 186.872 257.368C188.195 255.619 190.115 254.253 192.632 253.272C195.149 252.248 198.221 251.736 201.848 251.736C204.28 251.736 206.733 251.992 209.208 252.504C211.725 252.973 213.837 253.699 215.544 254.68L211.896 262.936C210.189 261.955 208.483 261.293 206.776 260.952C205.069 260.568 203.448 260.376 201.912 260.376C199.864 260.376 198.413 260.611 197.56 261.08C196.749 261.549 196.344 262.125 196.344 262.808C196.344 263.491 196.707 264.024 197.432 264.408C198.157 264.749 199.117 265.027 200.312 265.24C201.549 265.411 202.893 265.603 204.344 265.816C205.795 265.987 207.245 266.264 208.696 266.648C210.189 267.032 211.533 267.608 212.728 268.376C213.965 269.101 214.947 270.104 215.672 271.384C216.397 272.621 216.76 274.221 216.76 276.184C216.76 278.317 216.099 280.237 214.776 281.944C213.496 283.651 211.576 285.016 209.016 286.04C206.499 287.064 203.363 287.576 199.608 287.576ZM239.609 287.576C235.513 287.576 231.929 286.808 228.857 285.272C225.828 283.693 223.46 281.56 221.753 278.872C220.089 276.141 219.257 273.048 219.257 269.592C219.257 266.136 220.068 263.064 221.689 260.376C223.353 257.645 225.636 255.533 228.537 254.04C231.439 252.504 234.703 251.736 238.329 251.736C241.743 251.736 244.857 252.44 247.673 253.848C250.489 255.213 252.729 257.24 254.393 259.928C256.057 262.616 256.889 265.88 256.889 269.72C256.889 270.147 256.868 270.637 256.825 271.192C256.783 271.747 256.74 272.259 256.697 272.728H229.241V266.328H250.233L245.625 268.12C245.668 266.541 245.369 265.176 244.729 264.024C244.132 262.872 243.279 261.976 242.169 261.336C241.103 260.696 239.844 260.376 238.393 260.376C236.943 260.376 235.663 260.696 234.553 261.336C233.487 261.976 232.655 262.893 232.057 264.088C231.46 265.24 231.161 266.605 231.161 268.184V270.04C231.161 271.747 231.503 273.219 232.185 274.456C232.911 275.693 233.935 276.653 235.257 277.336C236.58 277.976 238.159 278.296 239.993 278.296C241.7 278.296 243.151 278.061 244.345 277.592C245.583 277.08 246.799 276.312 247.993 275.288L254.393 281.944C252.729 283.779 250.681 285.187 248.249 286.168C245.817 287.107 242.937 287.576 239.609 287.576ZM261.929 287V252.312H273.513V262.424L271.785 259.544C272.809 256.941 274.473 255 276.777 253.72C279.081 252.397 281.876 251.736 285.161 251.736V262.68C284.606 262.595 284.116 262.552 283.689 262.552C283.305 262.509 282.878 262.488 282.409 262.488C279.934 262.488 277.929 263.171 276.393 264.536C274.857 265.859 274.089 268.035 274.089 271.064V287H261.929ZM289.612 287V252.312H301.196V262.424L299.468 259.544C300.492 256.941 302.156 255 304.46 253.72C306.764 252.397 309.559 251.736 312.844 251.736V262.68C312.29 262.595 311.799 262.552 311.372 262.552C310.988 262.509 310.562 262.488 310.092 262.488C307.618 262.488 305.612 263.171 304.076 264.536C302.54 265.859 301.772 268.035 301.772 271.064V287H289.612ZM336.355 287V280.536L335.523 278.936V267.032C335.523 265.112 334.925 263.64 333.731 262.616C332.579 261.549 330.723 261.016 328.163 261.016C326.499 261.016 324.813 261.293 323.107 261.848C321.4 262.36 319.949 263.085 318.755 264.024L314.659 255.768C316.621 254.488 318.968 253.507 321.699 252.824C324.472 252.099 327.224 251.736 329.955 251.736C335.587 251.736 339.939 253.037 343.011 255.64C346.125 258.2 347.683 262.232 347.683 267.736V287H336.355ZM326.115 287.576C323.341 287.576 320.995 287.107 319.075 286.168C317.155 285.229 315.683 283.949 314.659 282.328C313.677 280.707 313.187 278.893 313.187 276.888C313.187 274.755 313.72 272.92 314.787 271.384C315.896 269.805 317.581 268.611 319.843 267.8C322.104 266.947 325.027 266.52 328.611 266.52H336.803V272.856H330.275C328.312 272.856 326.925 273.176 326.115 273.816C325.347 274.456 324.963 275.309 324.963 276.376C324.963 277.443 325.368 278.296 326.179 278.936C326.989 279.576 328.099 279.896 329.507 279.896C330.829 279.896 332.024 279.576 333.091 278.936C334.2 278.253 335.011 277.229 335.523 275.864L337.187 280.344C336.547 282.733 335.288 284.547 333.411 285.784C331.576 286.979 329.144 287.576 326.115 287.576ZM370.28 287.576C365.842 287.576 362.386 286.488 359.912 284.312C357.437 282.093 356.2 278.765 356.2 274.328V244.568H368.36V274.2C368.36 275.437 368.701 276.419 369.384 277.144C370.066 277.827 370.941 278.168 372.008 278.168C373.458 278.168 374.696 277.805 375.72 277.08L378.728 285.592C377.704 286.275 376.445 286.765 374.952 287.064C373.458 287.405 371.901 287.576 370.28 287.576ZM351.144 262.68V253.592H376.296V262.68H351.144Z" fill="black"/>
<rect x="19.5" y="8" width="101" height="101" rx="50.5" fill="#3A5459"/>
<path d="M39.7546 131V119.8H44.6026C45.6052 119.8 46.4692 119.965 47.1946 120.296C47.9199 120.616 48.4799 121.08 48.8746 121.688C49.2692 122.296 49.4666 123.021 49.4666 123.864C49.4666 124.696 49.2692 125.416 48.8746 126.024C48.4799 126.632 47.9199 127.101 47.1946 127.432C46.4692 127.752 45.6052 127.912 44.6026 127.912H41.1946L42.3466 126.744V131H39.7546ZM42.3466 127.032L41.1946 125.8H44.4586C45.2586 125.8 45.8559 125.629 46.2506 125.288C46.6452 124.947 46.8426 124.472 46.8426 123.864C46.8426 123.245 46.6452 122.765 46.2506 122.424C45.8559 122.083 45.2586 121.912 44.4586 121.912H41.1946L42.3466 120.68V127.032ZM50.5744 131V122.392H52.9584V124.824L52.6224 124.12C52.8784 123.512 53.2891 123.053 53.8544 122.744C54.4197 122.424 55.1077 122.264 55.9184 122.264V124.568C55.8117 124.557 55.7157 124.552 55.6304 124.552C55.5451 124.541 55.4544 124.536 55.3584 124.536C54.6757 124.536 54.1211 124.733 53.6944 125.128C53.2784 125.512 53.0704 126.115 53.0704 126.936V131H50.5744ZM56.8359 131V122.392H59.3319V131H56.8359ZM58.0839 121.192C57.6252 121.192 57.2519 121.059 56.9639 120.792C56.6759 120.525 56.5319 120.195 56.5319 119.8C56.5319 119.405 56.6759 119.075 56.9639 118.808C57.2519 118.541 57.6252 118.408 58.0839 118.408C58.5425 118.408 58.9159 118.536 59.2039 118.792C59.4919 119.037 59.6359 119.357 59.6359 119.752C59.6359 120.168 59.4919 120.515 59.2039 120.792C58.9265 121.059 58.5532 121.192 58.0839 121.192ZM72.1057 122.264C72.7884 122.264 73.391 122.403 73.9137 122.68C74.447 122.947 74.863 123.363 75.1617 123.928C75.471 124.483 75.6257 125.197 75.6257 126.072V131H73.1297V126.456C73.1297 125.763 72.9857 125.251 72.6977 124.92C72.4097 124.589 72.0044 124.424 71.4817 124.424C71.119 124.424 70.7937 124.509 70.5057 124.68C70.2177 124.84 69.9937 125.085 69.8337 125.416C69.6737 125.747 69.5937 126.168 69.5937 126.68V131H67.0977V126.456C67.0977 125.763 66.9537 125.251 66.6657 124.92C66.3884 124.589 65.9884 124.424 65.4657 124.424C65.103 124.424 64.7777 124.509 64.4897 124.68C64.2017 124.84 63.9777 125.085 63.8177 125.416C63.6577 125.747 63.5777 126.168 63.5777 126.68V131H61.0817V122.392H63.4657V124.744L63.0177 124.056C63.3164 123.469 63.7377 123.027 64.2817 122.728C64.8364 122.419 65.4657 122.264 66.1697 122.264C66.959 122.264 67.647 122.467 68.2337 122.872C68.831 123.267 69.2257 123.875 69.4177 124.696L68.5377 124.456C68.8257 123.784 69.2844 123.251 69.9137 122.856C70.5537 122.461 71.2844 122.264 72.1057 122.264ZM82.5763 131V129.32L82.4163 128.952V125.944C82.4163 125.411 82.2509 124.995 81.9203 124.696C81.6003 124.397 81.1043 124.248 80.4323 124.248C79.9736 124.248 79.5203 124.323 79.0723 124.472C78.6349 124.611 78.2616 124.803 77.9523 125.048L77.0563 123.304C77.5256 122.973 78.0909 122.717 78.7523 122.536C79.4136 122.355 80.0856 122.264 80.7683 122.264C82.0803 122.264 83.0989 122.573 83.8243 123.192C84.5496 123.811 84.9123 124.776 84.9123 126.088V131H82.5763ZM79.9523 131.128C79.2803 131.128 78.7043 131.016 78.2243 130.792C77.7443 130.557 77.3763 130.243 77.1203 129.848C76.8643 129.453 76.7363 129.011 76.7363 128.52C76.7363 128.008 76.8589 127.56 77.1043 127.176C77.3603 126.792 77.7603 126.493 78.3043 126.28C78.8483 126.056 79.5576 125.944 80.4323 125.944H82.7203V127.4H80.7043C80.1176 127.4 79.7123 127.496 79.4883 127.688C79.2749 127.88 79.1683 128.12 79.1683 128.408C79.1683 128.728 79.2909 128.984 79.5363 129.176C79.7923 129.357 80.1389 129.448 80.5763 129.448C80.9923 129.448 81.3656 129.352 81.6963 129.16C82.0269 128.957 82.2669 128.664 82.4163 128.28L82.8003 129.432C82.6189 129.987 82.2883 130.408 81.8083 130.696C81.3283 130.984 80.7096 131.128 79.9523 131.128ZM86.6046 131V122.392H88.9886V124.824L88.6526 124.12C88.9086 123.512 89.3193 123.053 89.8846 122.744C90.4499 122.424 91.1379 122.264 91.9486 122.264V124.568C91.8419 124.557 91.7459 124.552 91.6606 124.552C91.5753 124.541 91.4846 124.536 91.3886 124.536C90.7059 124.536 90.1513 124.733 89.7246 125.128C89.3086 125.512 89.1006 126.115 89.1006 126.936V131H86.6046ZM94.2509 134.232C93.8029 134.232 93.3603 134.163 92.9229 134.024C92.4856 133.885 92.1283 133.693 91.8509 133.448L92.7629 131.672C92.9549 131.843 93.1736 131.976 93.4189 132.072C93.6749 132.168 93.9256 132.216 94.1709 132.216C94.5229 132.216 94.8003 132.131 95.0029 131.96C95.2163 131.8 95.4083 131.528 95.5789 131.144L96.0269 130.088L96.2189 129.816L99.3069 122.392H101.707L97.8189 131.528C97.5416 132.221 97.2216 132.765 96.8589 133.16C96.5069 133.555 96.1123 133.832 95.6749 133.992C95.2483 134.152 94.7736 134.232 94.2509 134.232ZM95.7229 131.336L91.8829 122.392H94.4589L97.4349 129.592L95.7229 131.336Z" fill="black"/>
<path d="M9.96255 163V151.8H14.5225C15.7172 151.8 16.7625 152.04 17.6585 152.52C18.5652 152.989 19.2692 153.645 19.7705 154.488C20.2719 155.331 20.5225 156.301 20.5225 157.4C20.5225 158.499 20.2719 159.469 19.7705 160.312C19.2692 161.155 18.5652 161.816 17.6585 162.296C16.7625 162.765 15.7172 163 14.5225 163H9.96255ZM11.1465 161.976H14.4585C15.4505 161.976 16.3092 161.784 17.0345 161.4C17.7705 161.005 18.3412 160.467 18.7465 159.784C19.1519 159.091 19.3545 158.296 19.3545 157.4C19.3545 156.493 19.1519 155.699 18.7465 155.016C18.3412 154.333 17.7705 153.8 17.0345 153.416C16.3092 153.021 15.4505 152.824 14.4585 152.824H11.1465V161.976ZM27.6386 163V161.144L27.5906 160.84V157.736C27.5906 157.021 27.388 156.472 26.9826 156.088C26.588 155.704 25.996 155.512 25.2066 155.512C24.6626 155.512 24.1453 155.603 23.6546 155.784C23.164 155.965 22.748 156.205 22.4066 156.504L21.8946 155.656C22.3213 155.293 22.8333 155.016 23.4306 154.824C24.028 154.621 24.6573 154.52 25.3186 154.52C26.4066 154.52 27.244 154.792 27.8306 155.336C28.428 155.869 28.7266 156.685 28.7266 157.784V163H27.6386ZM24.7426 163.08C24.1133 163.08 23.564 162.979 23.0946 162.776C22.636 162.563 22.284 162.275 22.0386 161.912C21.7933 161.539 21.6706 161.112 21.6706 160.632C21.6706 160.195 21.772 159.8 21.9746 159.448C22.188 159.085 22.5293 158.797 22.9986 158.584C23.4786 158.36 24.1186 158.248 24.9186 158.248H27.8146V159.096H24.9506C24.14 159.096 23.5746 159.24 23.2546 159.528C22.9453 159.816 22.7906 160.173 22.7906 160.6C22.7906 161.08 22.9773 161.464 23.3506 161.752C23.724 162.04 24.2466 162.184 24.9186 162.184C25.5586 162.184 26.108 162.04 26.5666 161.752C27.036 161.453 27.3773 161.027 27.5906 160.472L27.8466 161.256C27.6333 161.811 27.26 162.253 26.7266 162.584C26.204 162.915 25.5426 163.08 24.7426 163.08ZM31.2455 163V154.6H32.3335V156.888L32.2215 156.488C32.4561 155.848 32.8508 155.363 33.4055 155.032C33.9601 154.691 34.6481 154.52 35.4695 154.52V155.624C35.4268 155.624 35.3841 155.624 35.3415 155.624C35.2988 155.613 35.2561 155.608 35.2135 155.608C34.3281 155.608 33.6348 155.88 33.1335 156.424C32.6321 156.957 32.3815 157.72 32.3815 158.712V163H31.2455ZM37.8717 160.824L37.9037 159.368L43.1357 154.6H44.5277L40.8317 158.136L40.1917 158.68L37.8717 160.824ZM36.9757 163V151.128H38.1117V163H36.9757ZM43.4877 163L39.9837 158.632L40.7197 157.752L44.8797 163H43.4877ZM54.7912 163.096C53.9379 163.096 53.1485 162.957 52.4232 162.68C51.7085 162.392 51.0845 161.992 50.5512 161.48C50.0285 160.968 49.6179 160.365 49.3192 159.672C49.0312 158.979 48.8872 158.221 48.8872 157.4C48.8872 156.579 49.0312 155.821 49.3192 155.128C49.6179 154.435 50.0339 153.832 50.5672 153.32C51.1005 152.808 51.7245 152.413 52.4392 152.136C53.1645 151.848 53.9539 151.704 54.8072 151.704C55.6605 151.704 56.4392 151.837 57.1432 152.104C57.8579 152.371 58.4659 152.776 58.9672 153.32L58.2312 154.072C57.7619 153.603 57.2445 153.267 56.6792 153.064C56.1139 152.861 55.5059 152.76 54.8552 152.76C54.1619 152.76 53.5219 152.877 52.9352 153.112C52.3592 153.336 51.8525 153.661 51.4152 154.088C50.9885 154.504 50.6525 154.995 50.4072 155.56C50.1725 156.115 50.0552 156.728 50.0552 157.4C50.0552 158.061 50.1725 158.675 50.4072 159.24C50.6525 159.805 50.9885 160.301 51.4152 160.728C51.8525 161.144 52.3592 161.469 52.9352 161.704C53.5219 161.928 54.1565 162.04 54.8392 162.04C55.4792 162.04 56.0819 161.944 56.6472 161.752C57.2232 161.56 57.7512 161.235 58.2312 160.776L58.9032 161.672C58.3699 162.141 57.7459 162.499 57.0312 162.744C56.3165 162.979 55.5699 163.096 54.7912 163.096ZM57.7672 161.528V157.4H58.9032V161.672L57.7672 161.528ZM61.4475 163V154.6H62.5355V156.888L62.4235 156.488C62.6582 155.848 63.0529 155.363 63.6075 155.032C64.1622 154.691 64.8502 154.52 65.6715 154.52V155.624C65.6289 155.624 65.5862 155.624 65.5435 155.624C65.5009 155.613 65.4582 155.608 65.4155 155.608C64.5302 155.608 63.8369 155.88 63.3355 156.424C62.8342 156.957 62.5835 157.72 62.5835 158.712V163H61.4475ZM71.8168 163V161.144L71.7688 160.84V157.736C71.7688 157.021 71.5661 156.472 71.1608 156.088C70.7661 155.704 70.1741 155.512 69.3848 155.512C68.8408 155.512 68.3234 155.603 67.8328 155.784C67.3421 155.965 66.9261 156.205 66.5848 156.504L66.0728 155.656C66.4994 155.293 67.0114 155.016 67.6088 154.824C68.2061 154.621 68.8354 154.52 69.4968 154.52C70.5848 154.52 71.4221 154.792 72.0088 155.336C72.6061 155.869 72.9048 156.685 72.9048 157.784V163H71.8168ZM68.9208 163.08C68.2914 163.08 67.7421 162.979 67.2728 162.776C66.8141 162.563 66.4621 162.275 66.2168 161.912C65.9714 161.539 65.8488 161.112 65.8488 160.632C65.8488 160.195 65.9501 159.8 66.1528 159.448C66.3661 159.085 66.7074 158.797 67.1768 158.584C67.6568 158.36 68.2968 158.248 69.0968 158.248H71.9928V159.096H69.1288C68.3181 159.096 67.7528 159.24 67.4328 159.528C67.1234 159.816 66.9688 160.173 66.9688 160.6C66.9688 161.08 67.1554 161.464 67.5288 161.752C67.9021 162.04 68.4248 162.184 69.0968 162.184C69.7368 162.184 70.2861 162.04 70.7448 161.752C71.2141 161.453 71.5554 161.027 71.7688 160.472L72.0248 161.256C71.8114 161.811 71.4381 162.253 70.9048 162.584C70.3821 162.915 69.7208 163.08 68.9208 163.08ZM75.3313 166.184C74.9367 166.184 74.558 166.12 74.1953 165.992C73.8433 165.864 73.5393 165.672 73.2833 165.416L73.8113 164.568C74.0247 164.771 74.254 164.925 74.4993 165.032C74.7553 165.149 75.038 165.208 75.3473 165.208C75.7207 165.208 76.0407 165.101 76.3073 164.888C76.5847 164.685 76.846 164.323 77.0913 163.8L77.6353 162.568L77.7633 162.392L81.2193 154.6H82.3393L78.1313 164.008C77.8967 164.552 77.6353 164.984 77.3473 165.304C77.07 165.624 76.766 165.848 76.4353 165.976C76.1047 166.115 75.7367 166.184 75.3313 166.184ZM77.5713 163.24L73.6993 154.6H74.8833L78.3073 162.312L77.5713 163.24ZM92.1454 163.096C91.292 163.096 90.5027 162.957 89.7774 162.68C89.0627 162.392 88.4387 161.992 87.9054 161.48C87.3827 160.968 86.972 160.365 86.6734 159.672C86.3854 158.979 86.2414 158.221 86.2414 157.4C86.2414 156.579 86.3854 155.821 86.6734 155.128C86.972 154.435 87.388 153.832 87.9214 153.32C88.4547 152.808 89.0787 152.413 89.7934 152.136C90.5187 151.848 91.308 151.704 92.1614 151.704C93.0147 151.704 93.7934 151.837 94.4974 152.104C95.212 152.371 95.82 152.776 96.3214 153.32L95.5854 154.072C95.116 153.603 94.5987 153.267 94.0334 153.064C93.468 152.861 92.86 152.76 92.2094 152.76C91.516 152.76 90.876 152.877 90.2894 153.112C89.7134 153.336 89.2067 153.661 88.7694 154.088C88.3427 154.504 88.0067 154.995 87.7614 155.56C87.5267 156.115 87.4094 156.728 87.4094 157.4C87.4094 158.061 87.5267 158.675 87.7614 159.24C88.0067 159.805 88.3427 160.301 88.7694 160.728C89.2067 161.144 89.7134 161.469 90.2894 161.704C90.876 161.928 91.5107 162.04 92.1934 162.04C92.8334 162.04 93.436 161.944 94.0014 161.752C94.5774 161.56 95.1054 161.235 95.5854 160.776L96.2574 161.672C95.724 162.141 95.1 162.499 94.3854 162.744C93.6707 162.979 92.924 163.096 92.1454 163.096ZM95.1214 161.528V157.4H96.2574V161.672L95.1214 161.528ZM98.8017 163V154.6H99.8897V156.888L99.7777 156.488C100.012 155.848 100.407 155.363 100.962 155.032C101.516 154.691 102.204 154.52 103.026 154.52V155.624C102.983 155.624 102.94 155.624 102.898 155.624C102.855 155.613 102.812 155.608 102.77 155.608C101.884 155.608 101.191 155.88 100.69 156.424C100.188 156.957 99.9377 157.72 99.9377 158.712V163H98.8017ZM108.022 163.08C107.147 163.08 106.379 162.899 105.718 162.536C105.056 162.163 104.539 161.656 104.166 161.016C103.792 160.365 103.606 159.624 103.606 158.792C103.606 157.96 103.782 157.224 104.134 156.584C104.496 155.944 104.987 155.443 105.606 155.08C106.235 154.707 106.939 154.52 107.718 154.52C108.507 154.52 109.206 154.701 109.814 155.064C110.432 155.416 110.918 155.917 111.27 156.568C111.622 157.208 111.798 157.949 111.798 158.792C111.798 158.845 111.792 158.904 111.782 158.968C111.782 159.021 111.782 159.08 111.782 159.144H104.47V158.296H111.174L110.726 158.632C110.726 158.024 110.592 157.485 110.326 157.016C110.07 156.536 109.718 156.163 109.27 155.896C108.822 155.629 108.304 155.496 107.718 155.496C107.142 155.496 106.624 155.629 106.166 155.896C105.707 156.163 105.35 156.536 105.094 157.016C104.838 157.496 104.71 158.045 104.71 158.664V158.84C104.71 159.48 104.848 160.045 105.126 160.536C105.414 161.016 105.808 161.395 106.31 161.672C106.822 161.939 107.403 162.072 108.054 162.072C108.566 162.072 109.04 161.981 109.478 161.8C109.926 161.619 110.31 161.341 110.63 160.968L111.27 161.704C110.896 162.152 110.427 162.493 109.862 162.728C109.307 162.963 108.694 163.08 108.022 163.08ZM117.111 163.08C116.237 163.08 115.469 162.899 114.807 162.536C114.146 162.163 113.629 161.656 113.255 161.016C112.882 160.365 112.695 159.624 112.695 158.792C112.695 157.96 112.871 157.224 113.223 156.584C113.586 155.944 114.077 155.443 114.695 155.08C115.325 154.707 116.029 154.52 116.807 154.52C117.597 154.52 118.295 154.701 118.903 155.064C119.522 155.416 120.007 155.917 120.359 156.568C120.711 157.208 120.887 157.949 120.887 158.792C120.887 158.845 120.882 158.904 120.871 158.968C120.871 159.021 120.871 159.08 120.871 159.144H113.559V158.296H120.263L119.815 158.632C119.815 158.024 119.682 157.485 119.415 157.016C119.159 156.536 118.807 156.163 118.359 155.896C117.911 155.629 117.394 155.496 116.807 155.496C116.231 155.496 115.714 155.629 115.255 155.896C114.797 156.163 114.439 156.536 114.183 157.016C113.927 157.496 113.799 158.045 113.799 158.664V158.84C113.799 159.48 113.938 160.045 114.215 160.536C114.503 161.016 114.898 161.395 115.399 161.672C115.911 161.939 116.493 162.072 117.143 162.072C117.655 162.072 118.13 161.981 118.567 161.8C119.015 161.619 119.399 161.341 119.719 160.968L120.359 161.704C119.986 162.152 119.517 162.493 118.951 162.728C118.397 162.963 117.783 163.08 117.111 163.08ZM126.921 154.52C127.604 154.52 128.201 154.653 128.713 154.92C129.236 155.176 129.641 155.571 129.929 156.104C130.228 156.637 130.377 157.309 130.377 158.12V163H129.241V158.232C129.241 157.347 129.017 156.68 128.569 156.232C128.132 155.773 127.513 155.544 126.713 155.544C126.116 155.544 125.593 155.667 125.145 155.912C124.708 156.147 124.366 156.493 124.121 156.952C123.886 157.4 123.769 157.944 123.769 158.584V163H122.633V154.6H123.721V156.904L123.545 156.472C123.812 155.864 124.238 155.389 124.825 155.048C125.412 154.696 126.11 154.52 126.921 154.52Z" fill="black"/>
<path d="M43.1811 195L44.5571 183.8H45.4211L44.0451 195H43.1811ZM37.1171 191.96V191.08H46.7971V191.96H37.1171ZM39.0211 195L40.3971 183.8H41.2771L39.8851 195H39.0211ZM37.6291 187.72V186.84H47.3091V187.72H37.6291ZM51.4031 195.096C50.5924 195.096 49.8244 194.968 49.0991 194.712C48.3844 194.445 47.8084 194.093 47.3711 193.656L47.9311 192.744C48.2938 193.117 48.7791 193.427 49.3871 193.672C50.0058 193.917 50.6778 194.04 51.4031 194.04C52.3311 194.04 53.0404 193.837 53.5311 193.432C54.0324 193.027 54.2831 192.483 54.2831 191.8C54.2831 191.117 54.0378 190.573 53.5471 190.168C53.0671 189.763 52.3044 189.56 51.2591 189.56H50.4591V188.712L53.9151 184.376L54.0751 184.824H47.8351V183.8H55.0351V184.616L51.5791 188.952L51.0191 188.584H51.4511C52.7951 188.584 53.7978 188.883 54.4591 189.48C55.1311 190.077 55.4671 190.845 55.4671 191.784C55.4671 192.413 55.3178 192.979 55.0191 193.48C54.7204 193.981 54.2671 194.376 53.6591 194.664C53.0618 194.952 52.3098 195.096 51.4031 195.096ZM55.7549 195L60.8749 183.8H62.0429L67.1629 195H65.9149L61.2109 184.488H61.6909L56.9869 195H55.7549ZM57.7709 192.008L58.1229 191.048H64.6349L64.9869 192.008H57.7709ZM70.993 195.096C70.193 195.096 69.4303 194.968 68.705 194.712C67.9797 194.445 67.4037 194.093 66.977 193.656L67.537 192.744C67.889 193.117 68.369 193.427 68.977 193.672C69.5957 193.917 70.2623 194.04 70.977 194.04C71.9263 194.04 72.6463 193.832 73.137 193.416C73.6383 192.989 73.889 192.435 73.889 191.752C73.889 191.272 73.7717 190.861 73.537 190.52C73.313 190.168 72.929 189.896 72.385 189.704C71.841 189.512 71.0943 189.416 70.145 189.416H67.761L68.337 183.8H74.465V184.824H68.801L69.393 184.264L68.897 188.968L68.305 188.392H70.401C71.5317 188.392 72.4383 188.531 73.121 188.808C73.8037 189.085 74.2943 189.475 74.593 189.976C74.9023 190.467 75.057 191.043 75.057 191.704C75.057 192.333 74.9077 192.909 74.609 193.432C74.3103 193.944 73.8623 194.349 73.265 194.648C72.6677 194.947 71.9103 195.096 70.993 195.096ZM75.7608 192.056V191.224L81.6968 183.8H82.9768L77.0888 191.224L76.4648 191.032H85.4728V192.056H75.7608ZM82.0808 195V192.056L82.1128 191.032V188.44H83.2328V195H82.0808ZM89.469 195.096C88.669 195.096 87.9064 194.968 87.181 194.712C86.4557 194.445 85.8797 194.093 85.453 193.656L86.013 192.744C86.365 193.117 86.845 193.427 87.453 193.672C88.0717 193.917 88.7384 194.04 89.453 194.04C90.4024 194.04 91.1224 193.832 91.613 193.416C92.1144 192.989 92.365 192.435 92.365 191.752C92.365 191.272 92.2477 190.861 92.013 190.52C91.789 190.168 91.405 189.896 90.861 189.704C90.317 189.512 89.5704 189.416 88.621 189.416H86.237L86.813 183.8H92.941V184.824H87.277L87.869 184.264L87.373 188.968L86.781 188.392H88.877C90.0077 188.392 90.9144 188.531 91.597 188.808C92.2797 189.085 92.7704 189.475 93.069 189.976C93.3784 190.467 93.533 191.043 93.533 191.704C93.533 192.333 93.3837 192.909 93.085 193.432C92.7864 193.944 92.3384 194.349 91.741 194.648C91.1437 194.947 90.3864 195.096 89.469 195.096ZM97.9169 183.704C98.9089 183.704 99.7462 183.928 100.429 184.376C101.112 184.813 101.629 185.448 101.981 186.28C102.333 187.112 102.509 188.12 102.509 189.304C102.509 190.563 102.29 191.624 101.853 192.488C101.426 193.352 100.829 194.003 100.061 194.44C99.2929 194.877 98.4022 195.096 97.3889 195.096C96.8875 195.096 96.4075 195.048 95.9489 194.952C95.5009 194.856 95.0955 194.701 94.7329 194.488L95.1969 193.56C95.4849 193.752 95.8155 193.891 96.1889 193.976C96.5729 194.051 96.9675 194.088 97.3729 194.088C98.5782 194.088 99.5382 193.704 100.253 192.936C100.978 192.168 101.341 191.021 101.341 189.496C101.341 189.251 101.325 188.957 101.293 188.616C101.272 188.275 101.213 187.933 101.117 187.592L101.517 187.896C101.41 188.451 101.181 188.925 100.829 189.32C100.488 189.704 100.061 189.997 99.5489 190.2C99.0475 190.403 98.4875 190.504 97.8689 190.504C97.1329 190.504 96.4769 190.365 95.9009 190.088C95.3355 189.811 94.8929 189.421 94.5729 188.92C94.2529 188.419 94.0929 187.827 94.0929 187.144C94.0929 186.44 94.2582 185.832 94.5889 185.32C94.9195 184.808 95.3729 184.413 95.9489 184.136C96.5355 183.848 97.1915 183.704 97.9169 183.704ZM97.9649 184.68C97.4315 184.68 96.9569 184.781 96.5409 184.984C96.1355 185.176 95.8155 185.453 95.5809 185.816C95.3462 186.179 95.2289 186.611 95.2289 187.112C95.2289 187.848 95.4795 188.435 95.9809 188.872C96.4929 189.309 97.1809 189.528 98.0449 189.528C98.6209 189.528 99.1222 189.421 99.5489 189.208C99.9862 188.995 100.322 188.701 100.557 188.328C100.802 187.955 100.925 187.539 100.925 187.08C100.925 186.664 100.813 186.275 100.589 185.912C100.365 185.549 100.034 185.256 99.5969 185.032C99.1595 184.797 98.6155 184.68 97.9649 184.68Z" fill="black"/>
<rect x="172.5" y="8" width="101" height="101" rx="50.5" fill="#FF715B"/>
<path d="M194.788 131L199.78 119.8H202.34L207.348 131H204.628L200.532 121.112H201.556L197.444 131H194.788ZM197.284 128.6L197.972 126.632H203.732L204.436 128.6H197.284ZM211.85 131.128C210.922 131.128 210.095 130.941 209.37 130.568C208.644 130.184 208.074 129.656 207.658 128.984C207.252 128.312 207.05 127.549 207.05 126.696C207.05 125.832 207.252 125.069 207.658 124.408C208.074 123.736 208.644 123.213 209.37 122.84C210.095 122.456 210.922 122.264 211.85 122.264C212.756 122.264 213.546 122.456 214.218 122.84C214.89 123.213 215.386 123.752 215.706 124.456L213.77 125.496C213.546 125.091 213.263 124.792 212.922 124.6C212.591 124.408 212.228 124.312 211.834 124.312C211.407 124.312 211.023 124.408 210.682 124.6C210.34 124.792 210.068 125.064 209.866 125.416C209.674 125.768 209.578 126.195 209.578 126.696C209.578 127.197 209.674 127.624 209.866 127.976C210.068 128.328 210.34 128.6 210.682 128.792C211.023 128.984 211.407 129.08 211.834 129.08C212.228 129.08 212.591 128.989 212.922 128.808C213.263 128.616 213.546 128.312 213.77 127.896L215.706 128.952C215.386 129.645 214.89 130.184 214.218 130.568C213.546 130.941 212.756 131.128 211.85 131.128ZM220.627 131.128C219.699 131.128 218.872 130.941 218.147 130.568C217.421 130.184 216.851 129.656 216.435 128.984C216.029 128.312 215.827 127.549 215.827 126.696C215.827 125.832 216.029 125.069 216.435 124.408C216.851 123.736 217.421 123.213 218.147 122.84C218.872 122.456 219.699 122.264 220.627 122.264C221.533 122.264 222.323 122.456 222.995 122.84C223.667 123.213 224.163 123.752 224.483 124.456L222.547 125.496C222.323 125.091 222.04 124.792 221.699 124.6C221.368 124.408 221.005 124.312 220.611 124.312C220.184 124.312 219.8 124.408 219.459 124.6C219.117 124.792 218.845 125.064 218.643 125.416C218.451 125.768 218.355 126.195 218.355 126.696C218.355 127.197 218.451 127.624 218.643 127.976C218.845 128.328 219.117 128.6 219.459 128.792C219.8 128.984 220.184 129.08 220.611 129.08C221.005 129.08 221.368 128.989 221.699 128.808C222.04 128.616 222.323 128.312 222.547 127.896L224.483 128.952C224.163 129.645 223.667 130.184 222.995 130.568C222.323 130.941 221.533 131.128 220.627 131.128ZM229.516 131.128C228.534 131.128 227.67 130.936 226.924 130.552C226.188 130.168 225.617 129.645 225.212 128.984C224.806 128.312 224.604 127.549 224.604 126.696C224.604 125.832 224.801 125.069 225.196 124.408C225.601 123.736 226.15 123.213 226.844 122.84C227.537 122.456 228.321 122.264 229.196 122.264C230.038 122.264 230.796 122.445 231.468 122.808C232.15 123.16 232.689 123.672 233.084 124.344C233.478 125.005 233.676 125.8 233.676 126.728C233.676 126.824 233.67 126.936 233.66 127.064C233.649 127.181 233.638 127.293 233.628 127.4H226.636V125.944H232.316L231.356 126.376C231.356 125.928 231.265 125.539 231.084 125.208C230.902 124.877 230.652 124.621 230.332 124.44C230.012 124.248 229.638 124.152 229.212 124.152C228.785 124.152 228.406 124.248 228.076 124.44C227.756 124.621 227.505 124.883 227.324 125.224C227.142 125.555 227.052 125.949 227.052 126.408V126.792C227.052 127.261 227.153 127.677 227.356 128.04C227.569 128.392 227.862 128.664 228.236 128.856C228.62 129.037 229.068 129.128 229.58 129.128C230.038 129.128 230.438 129.059 230.78 128.92C231.132 128.781 231.452 128.573 231.74 128.296L233.068 129.736C232.673 130.184 232.177 130.531 231.58 130.776C230.982 131.011 230.294 131.128 229.516 131.128ZM240.003 122.264C240.685 122.264 241.293 122.403 241.827 122.68C242.371 122.947 242.797 123.363 243.107 123.928C243.416 124.483 243.571 125.197 243.571 126.072V131H241.075V126.456C241.075 125.763 240.92 125.251 240.611 124.92C240.312 124.589 239.885 124.424 239.331 124.424C238.936 124.424 238.579 124.509 238.259 124.68C237.949 124.84 237.704 125.091 237.523 125.432C237.352 125.773 237.267 126.211 237.267 126.744V131H234.771V122.392H237.155V124.776L236.707 124.056C237.016 123.48 237.459 123.037 238.035 122.728C238.611 122.419 239.267 122.264 240.003 122.264ZM248.787 131.128C247.773 131.128 246.984 130.872 246.419 130.36C245.853 129.837 245.571 129.064 245.571 128.04V120.488H248.067V128.008C248.067 128.371 248.163 128.653 248.355 128.856C248.547 129.048 248.808 129.144 249.139 129.144C249.533 129.144 249.869 129.037 250.147 128.824L250.819 130.584C250.563 130.765 250.253 130.904 249.891 131C249.539 131.085 249.171 131.128 248.787 131.128ZM244.243 124.504V122.584H250.211V124.504H244.243Z" fill="black"/>
<path d="M170.394 163L165.434 151.8H166.714L171.354 162.344H170.65L175.322 151.8H176.522L171.562 163H170.394ZM177.294 163V154.6H178.43V163H177.294ZM177.87 152.744C177.636 152.744 177.438 152.664 177.278 152.504C177.118 152.344 177.038 152.152 177.038 151.928C177.038 151.704 177.118 151.517 177.278 151.368C177.438 151.208 177.636 151.128 177.87 151.128C178.105 151.128 178.302 151.203 178.462 151.352C178.622 151.501 178.702 151.688 178.702 151.912C178.702 152.147 178.622 152.344 178.462 152.504C178.313 152.664 178.116 152.744 177.87 152.744ZM185.361 163.08C184.625 163.08 183.963 162.915 183.377 162.584C182.79 162.243 182.326 161.752 181.985 161.112C181.643 160.472 181.473 159.699 181.473 158.792C181.473 157.875 181.643 157.101 181.985 156.472C182.337 155.832 182.806 155.347 183.393 155.016C183.979 154.685 184.635 154.52 185.361 154.52C186.161 154.52 186.875 154.701 187.505 155.064C188.145 155.416 188.646 155.912 189.009 156.552C189.371 157.192 189.553 157.939 189.553 158.792C189.553 159.635 189.371 160.381 189.009 161.032C188.646 161.672 188.145 162.173 187.505 162.536C186.875 162.899 186.161 163.08 185.361 163.08ZM181.025 163V151.128H182.161V157.08L182.001 158.776L182.113 160.472V163H181.025ZM185.281 162.072C185.878 162.072 186.411 161.939 186.881 161.672C187.35 161.395 187.723 161.011 188.001 160.52C188.278 160.019 188.417 159.443 188.417 158.792C188.417 158.131 188.278 157.555 188.001 157.064C187.723 156.573 187.35 156.195 186.881 155.928C186.411 155.651 185.878 155.512 185.281 155.512C184.683 155.512 184.145 155.651 183.665 155.928C183.195 156.195 182.822 156.573 182.545 157.064C182.278 157.555 182.145 158.131 182.145 158.792C182.145 159.443 182.278 160.019 182.545 160.52C182.822 161.011 183.195 161.395 183.665 161.672C184.145 161.939 184.683 162.072 185.281 162.072ZM191.302 163V154.6H192.39V156.888L192.278 156.488C192.512 155.848 192.907 155.363 193.462 155.032C194.016 154.691 194.704 154.52 195.526 154.52V155.624C195.483 155.624 195.44 155.624 195.398 155.624C195.355 155.613 195.312 155.608 195.27 155.608C194.384 155.608 193.691 155.88 193.19 156.424C192.688 156.957 192.438 157.72 192.438 158.712V163H191.302ZM201.671 163V161.144L201.623 160.84V157.736C201.623 157.021 201.42 156.472 201.015 156.088C200.62 155.704 200.028 155.512 199.239 155.512C198.695 155.512 198.178 155.603 197.687 155.784C197.196 155.965 196.78 156.205 196.439 156.504L195.927 155.656C196.354 155.293 196.866 155.016 197.463 154.824C198.06 154.621 198.69 154.52 199.351 154.52C200.439 154.52 201.276 154.792 201.863 155.336C202.46 155.869 202.759 156.685 202.759 157.784V163H201.671ZM198.775 163.08C198.146 163.08 197.596 162.979 197.127 162.776C196.668 162.563 196.316 162.275 196.071 161.912C195.826 161.539 195.703 161.112 195.703 160.632C195.703 160.195 195.804 159.8 196.007 159.448C196.22 159.085 196.562 158.797 197.031 158.584C197.511 158.36 198.151 158.248 198.951 158.248H201.847V159.096H198.983C198.172 159.096 197.607 159.24 197.287 159.528C196.978 159.816 196.823 160.173 196.823 160.6C196.823 161.08 197.01 161.464 197.383 161.752C197.756 162.04 198.279 162.184 198.951 162.184C199.591 162.184 200.14 162.04 200.599 161.752C201.068 161.453 201.41 161.027 201.623 160.472L201.879 161.256C201.666 161.811 201.292 162.253 200.759 162.584C200.236 162.915 199.575 163.08 198.775 163.08ZM209.566 154.52C210.248 154.52 210.846 154.653 211.358 154.92C211.88 155.176 212.286 155.571 212.574 156.104C212.872 156.637 213.022 157.309 213.022 158.12V163H211.886V158.232C211.886 157.347 211.662 156.68 211.214 156.232C210.776 155.773 210.158 155.544 209.358 155.544C208.76 155.544 208.238 155.667 207.79 155.912C207.352 156.147 207.011 156.493 206.766 156.952C206.531 157.4 206.414 157.944 206.414 158.584V163H205.278V154.6H206.366V156.904L206.19 156.472C206.456 155.864 206.883 155.389 207.47 155.048C208.056 154.696 208.755 154.52 209.566 154.52ZM218.18 163.08C217.39 163.08 216.782 162.867 216.356 162.44C215.929 162.013 215.716 161.411 215.716 160.632V152.744H216.852V160.568C216.852 161.059 216.974 161.437 217.22 161.704C217.476 161.971 217.838 162.104 218.308 162.104C218.809 162.104 219.225 161.96 219.556 161.672L219.956 162.488C219.732 162.691 219.46 162.84 219.14 162.936C218.83 163.032 218.51 163.08 218.18 163.08ZM214.212 155.544V154.6H219.412V155.544H214.212ZM230.214 163.096C229.371 163.096 228.587 162.957 227.862 162.68C227.147 162.392 226.523 161.992 225.99 161.48C225.467 160.957 225.056 160.355 224.758 159.672C224.47 158.979 224.326 158.221 224.326 157.4C224.326 156.579 224.47 155.827 224.758 155.144C225.056 154.451 225.467 153.848 225.99 153.336C226.523 152.813 227.147 152.413 227.862 152.136C228.576 151.848 229.36 151.704 230.214 151.704C231.056 151.704 231.835 151.848 232.55 152.136C233.264 152.413 233.883 152.808 234.406 153.32C234.939 153.832 235.35 154.435 235.638 155.128C235.936 155.821 236.086 156.579 236.086 157.4C236.086 158.221 235.936 158.979 235.638 159.672C235.35 160.365 234.939 160.968 234.406 161.48C233.883 161.992 233.264 162.392 232.55 162.68C231.835 162.957 231.056 163.096 230.214 163.096ZM230.214 162.04C230.886 162.04 231.504 161.928 232.07 161.704C232.646 161.469 233.142 161.144 233.558 160.728C233.984 160.301 234.315 159.811 234.55 159.256C234.784 158.691 234.902 158.072 234.902 157.4C234.902 156.728 234.784 156.115 234.55 155.56C234.315 154.995 233.984 154.504 233.558 154.088C233.142 153.661 232.646 153.336 232.07 153.112C231.504 152.877 230.886 152.76 230.214 152.76C229.542 152.76 228.918 152.877 228.342 153.112C227.766 153.336 227.264 153.661 226.838 154.088C226.422 154.504 226.091 154.995 225.846 155.56C225.611 156.115 225.494 156.728 225.494 157.4C225.494 158.061 225.611 158.675 225.846 159.24C226.091 159.805 226.422 160.301 226.838 160.728C227.264 161.144 227.766 161.469 228.342 161.704C228.918 161.928 229.542 162.04 230.214 162.04ZM237.933 163V154.6H239.021V156.888L238.909 156.488C239.144 155.848 239.538 155.363 240.093 155.032C240.648 154.691 241.336 154.52 242.157 154.52V155.624C242.114 155.624 242.072 155.624 242.029 155.624C241.986 155.613 241.944 155.608 241.901 155.608C241.016 155.608 240.322 155.88 239.821 156.424C239.32 156.957 239.069 157.72 239.069 158.712V163H237.933ZM248.302 163V161.144L248.254 160.84V157.736C248.254 157.021 248.051 156.472 247.646 156.088C247.251 155.704 246.659 155.512 245.87 155.512C245.326 155.512 244.809 155.603 244.318 155.784C243.827 155.965 243.411 156.205 243.07 156.504L242.558 155.656C242.985 155.293 243.497 155.016 244.094 154.824C244.691 154.621 245.321 154.52 245.982 154.52C247.07 154.52 247.907 154.792 248.494 155.336C249.091 155.869 249.39 156.685 249.39 157.784V163H248.302ZM245.406 163.08C244.777 163.08 244.227 162.979 243.758 162.776C243.299 162.563 242.947 162.275 242.702 161.912C242.457 161.539 242.334 161.112 242.334 160.632C242.334 160.195 242.435 159.8 242.638 159.448C242.851 159.085 243.193 158.797 243.662 158.584C244.142 158.36 244.782 158.248 245.582 158.248H248.478V159.096H245.614C244.803 159.096 244.238 159.24 243.918 159.528C243.609 159.816 243.454 160.173 243.454 160.6C243.454 161.08 243.641 161.464 244.014 161.752C244.387 162.04 244.91 162.184 245.582 162.184C246.222 162.184 246.771 162.04 247.23 161.752C247.699 161.453 248.041 161.027 248.254 160.472L248.51 161.256C248.297 161.811 247.923 162.253 247.39 162.584C246.867 162.915 246.206 163.08 245.406 163.08ZM256.197 154.52C256.88 154.52 257.477 154.653 257.989 154.92C258.512 155.176 258.917 155.571 259.205 156.104C259.504 156.637 259.653 157.309 259.653 158.12V163H258.517V158.232C258.517 157.347 258.293 156.68 257.845 156.232C257.408 155.773 256.789 155.544 255.989 155.544C255.392 155.544 254.869 155.667 254.421 155.912C253.984 156.147 253.642 156.493 253.397 156.952C253.162 157.4 253.045 157.944 253.045 158.584V163H251.909V154.6H252.997V156.904L252.821 156.472C253.088 155.864 253.514 155.389 254.101 155.048C254.688 154.696 255.386 154.52 256.197 154.52ZM265.739 166.184C264.971 166.184 264.235 166.072 263.531 165.848C262.827 165.624 262.256 165.304 261.819 164.888L262.395 164.024C262.789 164.376 263.275 164.653 263.851 164.856C264.437 165.069 265.056 165.176 265.707 165.176C266.773 165.176 267.557 164.925 268.059 164.424C268.56 163.933 268.811 163.165 268.811 162.12V160.024L268.971 158.584L268.859 157.144V154.6H269.947V161.976C269.947 163.427 269.589 164.488 268.875 165.16C268.171 165.843 267.125 166.184 265.739 166.184ZM265.531 162.68C264.731 162.68 264.011 162.509 263.371 162.168C262.731 161.816 262.224 161.331 261.851 160.712C261.488 160.093 261.307 159.384 261.307 158.584C261.307 157.784 261.488 157.08 261.851 156.472C262.224 155.853 262.731 155.373 263.371 155.032C264.011 154.691 264.731 154.52 265.531 154.52C266.277 154.52 266.949 154.675 267.547 154.984C268.144 155.293 268.619 155.752 268.971 156.36C269.323 156.968 269.499 157.709 269.499 158.584C269.499 159.459 269.323 160.2 268.971 160.808C268.619 161.416 268.144 161.88 267.547 162.2C266.949 162.52 266.277 162.68 265.531 162.68ZM265.643 161.672C266.261 161.672 266.811 161.544 267.291 161.288C267.771 161.021 268.149 160.659 268.427 160.2C268.704 159.731 268.843 159.192 268.843 158.584C268.843 157.976 268.704 157.443 268.427 156.984C268.149 156.525 267.771 156.168 267.291 155.912C266.811 155.645 266.261 155.512 265.643 155.512C265.035 155.512 264.485 155.645 263.995 155.912C263.515 156.168 263.136 156.525 262.859 156.984C262.592 157.443 262.459 157.976 262.459 158.584C262.459 159.192 262.592 159.731 262.859 160.2C263.136 160.659 263.515 161.021 263.995 161.288C264.485 161.544 265.035 161.672 265.643 161.672ZM276.109 163.08C275.235 163.08 274.467 162.899 273.805 162.536C273.144 162.163 272.627 161.656 272.253 161.016C271.88 160.365 271.693 159.624 271.693 158.792C271.693 157.96 271.869 157.224 272.221 156.584C272.584 155.944 273.075 155.443 273.693 155.08C274.323 154.707 275.027 154.52 275.805 154.52C276.595 154.52 277.293 154.701 277.901 155.064C278.52 155.416 279.005 155.917 279.357 156.568C279.709 157.208 279.885 157.949 279.885 158.792C279.885 158.845 279.88 158.904 279.869 158.968C279.869 159.021 279.869 159.08 279.869 159.144H272.557V158.296H279.261L278.813 158.632C278.813 158.024 278.68 157.485 278.413 157.016C278.157 156.536 277.805 156.163 277.357 155.896C276.909 155.629 276.392 155.496 275.805 155.496C275.229 155.496 274.712 155.629 274.253 155.896C273.795 156.163 273.437 156.536 273.181 157.016C272.925 157.496 272.797 158.045 272.797 158.664V158.84C272.797 159.48 272.936 160.045 273.213 160.536C273.501 161.016 273.896 161.395 274.397 161.672C274.909 161.939 275.491 162.072 276.141 162.072C276.653 162.072 277.128 161.981 277.565 161.8C278.013 161.619 278.397 161.341 278.717 160.968L279.357 161.704C278.984 162.152 278.515 162.493 277.949 162.728C277.395 162.963 276.781 163.08 276.109 163.08Z" fill="black"/>
<path d="M198.851 189.224H204.771V190.248H198.851V189.224ZM198.979 195H197.795V183.8H205.475V184.824H198.979V195ZM208.41 189.224H214.33V190.248H208.41V189.224ZM208.538 195H207.354V183.8H215.034V184.824H208.538V195ZM218.044 195L222.876 184.312L223.228 184.824H216.3L216.892 184.264V186.92H215.756V183.8H223.98V184.616L219.292 195H218.044ZM227.04 195V184.28L227.552 184.824H224.4V183.8H228.192V195H227.04ZM233.838 195.096C233.038 195.096 232.276 194.968 231.55 194.712C230.825 194.445 230.249 194.093 229.822 193.656L230.382 192.744C230.734 193.117 231.214 193.427 231.822 193.672C232.441 193.917 233.108 194.04 233.822 194.04C234.772 194.04 235.492 193.832 235.982 193.416C236.484 192.989 236.734 192.435 236.734 191.752C236.734 191.272 236.617 190.861 236.382 190.52C236.158 190.168 235.774 189.896 235.23 189.704C234.686 189.512 233.94 189.416 232.99 189.416H230.606L231.182 183.8H237.31V184.824H231.646L232.238 184.264L231.742 188.968L231.15 188.392H233.246C234.377 188.392 235.284 188.531 235.966 188.808C236.649 189.085 237.14 189.475 237.438 189.976C237.748 190.467 237.902 191.043 237.902 191.704C237.902 192.333 237.753 192.909 237.454 193.432C237.156 193.944 236.708 194.349 236.11 194.648C235.513 194.947 234.756 195.096 233.838 195.096ZM239.79 195V183.8H244.622C245.87 183.8 246.835 184.051 247.518 184.552C248.211 185.053 248.558 185.763 248.558 186.68C248.558 187.288 248.414 187.8 248.126 188.216C247.849 188.632 247.465 188.947 246.974 189.16C246.494 189.373 245.966 189.48 245.39 189.48L245.662 189.096C246.377 189.096 246.99 189.208 247.502 189.432C248.025 189.645 248.43 189.971 248.718 190.408C249.006 190.835 249.15 191.368 249.15 192.008C249.15 192.957 248.798 193.693 248.094 194.216C247.401 194.739 246.35 195 244.942 195H239.79ZM240.974 194.024H244.926C245.907 194.024 246.659 193.859 247.182 193.528C247.705 193.187 247.966 192.648 247.966 191.912C247.966 191.187 247.705 190.659 247.182 190.328C246.659 189.987 245.907 189.816 244.926 189.816H240.846V188.84H244.542C245.438 188.84 246.131 188.669 246.622 188.328C247.123 187.987 247.374 187.48 247.374 186.808C247.374 186.125 247.123 185.619 246.622 185.288C246.131 184.947 245.438 184.776 244.542 184.776H240.974V194.024Z" fill="black"/>
</svg>
