<svg width="388" height="298" viewBox="0 0 388 298" fill="none" xmlns="http://www.w3.org/2000/svg">
<path d="M12.9675 287V242.2H23.3995L41.9595 272.664H36.4555L54.5035 242.2H64.9355L65.0635 287H53.4155L53.2875 259.928H55.2715L41.7675 282.584H36.1355L22.2475 259.928H24.6795V287H12.9675Z" fill="black"/>
<path d="M90.2953 287.576C86.498 287.576 83.1273 286.808 80.1833 285.272C77.2393 283.736 74.914 281.624 73.2073 278.936C71.5433 276.205 70.7113 273.091 70.7113 269.592C70.7113 266.093 71.5433 263 73.2073 260.312C74.914 257.624 77.2393 255.533 80.1833 254.04C83.1273 252.504 86.498 251.736 90.2953 251.736C94.0927 251.736 97.4633 252.504 100.407 254.04C103.394 255.533 105.719 257.624 107.383 260.312C109.047 263 109.879 266.093 109.879 269.592C109.879 273.091 109.047 276.205 107.383 278.936C105.719 281.624 103.394 283.736 100.407 285.272C97.4633 286.808 94.0927 287.576 90.2953 287.576ZM90.2953 277.912C91.7033 277.912 92.9407 277.592 94.0073 276.952C95.1167 276.312 95.9913 275.373 96.6313 274.136C97.2713 272.856 97.5913 271.341 97.5913 269.592C97.5913 267.843 97.2713 266.371 96.6313 265.176C95.9913 263.939 95.1167 263 94.0073 262.36C92.9407 261.72 91.7033 261.4 90.2953 261.4C88.93 261.4 87.6927 261.72 86.5833 262.36C85.5167 263 84.642 263.939 83.9593 265.176C83.3193 266.371 82.9993 267.843 82.9993 269.592C82.9993 271.341 83.3193 272.856 83.9593 274.136C84.642 275.373 85.5167 276.312 86.5833 276.952C87.6927 277.592 88.93 277.912 90.2953 277.912Z" fill="black"/>
<path d="M137.538 251.736C140.226 251.736 142.658 252.291 144.834 253.4C147.01 254.467 148.716 256.131 149.954 258.392C151.234 260.653 151.874 263.576 151.874 267.16V287H139.714V269.144C139.714 266.669 139.202 264.877 138.178 263.768C137.196 262.616 135.81 262.04 134.018 262.04C132.738 262.04 131.564 262.339 130.498 262.936C129.431 263.491 128.599 264.365 128.002 265.56C127.404 266.755 127.106 268.312 127.106 270.232V287H114.946V252.312H126.53V262.168L124.29 259.288C125.612 256.771 127.426 254.893 129.73 253.656C132.034 252.376 134.636 251.736 137.538 251.736Z" fill="black"/>
<path d="M174.43 287.576C169.992 287.576 166.536 286.488 164.062 284.312C161.587 282.093 160.35 278.765 160.35 274.328V244.568H172.51V274.2C172.51 275.437 172.851 276.419 173.534 277.144C174.216 277.827 175.091 278.168 176.158 278.168C177.608 278.168 178.846 277.805 179.87 277.08L182.878 285.592C181.854 286.275 180.595 286.765 179.102 287.064C177.608 287.405 176.051 287.576 174.43 287.576ZM155.294 262.68V253.592H180.445V262.68H155.294Z" fill="black"/>
<path d="M199.608 287.576C196.664 287.576 193.784 287.235 190.968 286.552C188.195 285.869 185.954 285.016 184.248 283.992L187.896 275.672C189.517 276.653 191.416 277.443 193.592 278.04C195.768 278.595 197.901 278.872 199.992 278.872C202.04 278.872 203.448 278.659 204.216 278.232C205.027 277.805 205.432 277.229 205.432 276.504C205.432 275.821 205.048 275.331 204.28 275.032C203.554 274.691 202.573 274.435 201.336 274.264C200.141 274.093 198.819 273.901 197.368 273.688C195.917 273.475 194.445 273.197 192.952 272.856C191.501 272.472 190.157 271.917 188.92 271.192C187.725 270.424 186.765 269.4 186.04 268.12C185.315 266.84 184.952 265.219 184.952 263.256C184.952 261.037 185.592 259.075 186.872 257.368C188.195 255.619 190.115 254.253 192.632 253.272C195.149 252.248 198.221 251.736 201.848 251.736C204.28 251.736 206.733 251.992 209.208 252.504C211.725 252.973 213.837 253.699 215.544 254.68L211.896 262.936C210.189 261.955 208.483 261.293 206.776 260.952C205.069 260.568 203.448 260.376 201.912 260.376C199.864 260.376 198.413 260.611 197.56 261.08C196.749 261.549 196.344 262.125 196.344 262.808C196.344 263.491 196.707 264.024 197.432 264.408C198.157 264.749 199.117 265.027 200.312 265.24C201.549 265.411 202.893 265.603 204.344 265.816C205.795 265.987 207.245 266.264 208.696 266.648C210.189 267.032 211.533 267.608 212.728 268.376C213.965 269.101 214.946 270.104 215.672 271.384C216.397 272.621 216.76 274.221 216.76 276.184C216.76 278.317 216.098 280.237 214.776 281.944C213.496 283.651 211.576 285.016 209.016 286.04C206.499 287.064 203.363 287.576 199.608 287.576Z" fill="black"/>
<path d="M239.609 287.576C235.513 287.576 231.929 286.808 228.857 285.272C225.828 283.693 223.46 281.56 221.753 278.872C220.089 276.141 219.257 273.048 219.257 269.592C219.257 266.136 220.068 263.064 221.689 260.376C223.353 257.645 225.636 255.533 228.537 254.04C231.439 252.504 234.703 251.736 238.329 251.736C241.743 251.736 244.857 252.44 247.673 253.848C250.489 255.213 252.729 257.24 254.393 259.928C256.057 262.616 256.889 265.88 256.889 269.72C256.889 270.147 256.868 270.637 256.825 271.192C256.782 271.747 256.74 272.259 256.697 272.728H229.241V266.328H250.233L245.625 268.12C245.668 266.541 245.369 265.176 244.729 264.024C244.132 262.872 243.279 261.976 242.169 261.336C241.103 260.696 239.844 260.376 238.393 260.376C236.943 260.376 235.663 260.696 234.553 261.336C233.487 261.976 232.655 262.893 232.057 264.088C231.46 265.24 231.161 266.605 231.161 268.184V270.04C231.161 271.747 231.502 273.219 232.185 274.456C232.91 275.693 233.935 276.653 235.257 277.336C236.58 277.976 238.158 278.296 239.993 278.296C241.7 278.296 243.151 278.061 244.345 277.592C245.583 277.08 246.798 276.312 247.993 275.288L254.393 281.944C252.729 283.779 250.681 285.187 248.249 286.168C245.817 287.107 242.937 287.576 239.609 287.576Z" fill="black"/>
<path d="M261.929 287V252.312H273.513V262.424L271.785 259.544C272.809 256.941 274.473 255 276.777 253.72C279.081 252.397 281.876 251.736 285.161 251.736V262.68C284.606 262.595 284.116 262.552 283.689 262.552C283.305 262.509 282.878 262.488 282.409 262.488C279.934 262.488 277.929 263.171 276.393 264.536C274.857 265.859 274.089 268.035 274.089 271.064V287H261.929Z" fill="black"/>
<path d="M289.612 287V252.312H301.196V262.424L299.468 259.544C300.492 256.941 302.156 255 304.46 253.72C306.764 252.397 309.559 251.736 312.844 251.736V262.68C312.29 262.595 311.799 262.552 311.372 262.552C310.988 262.509 310.562 262.488 310.092 262.488C307.618 262.488 305.612 263.171 304.076 264.536C302.54 265.859 301.772 268.035 301.772 271.064V287H289.612Z" fill="black"/>
<path d="M336.355 287V280.536L335.523 278.936V267.032C335.523 265.112 334.925 263.64 333.731 262.616C332.579 261.549 330.723 261.016 328.163 261.016C326.499 261.016 324.813 261.293 323.107 261.848C321.4 262.36 319.949 263.085 318.755 264.024L314.659 255.768C316.621 254.488 318.968 253.507 321.699 252.824C324.472 252.099 327.224 251.736 329.955 251.736C335.587 251.736 339.939 253.037 343.011 255.64C346.125 258.2 347.683 262.232 347.683 267.736V287H336.355ZM326.115 287.576C323.341 287.576 320.995 287.107 319.075 286.168C317.155 285.229 315.683 283.949 314.659 282.328C313.677 280.707 313.187 278.893 313.187 276.888C313.187 274.755 313.72 272.92 314.787 271.384C315.896 269.805 317.581 268.611 319.843 267.8C322.104 266.947 325.027 266.52 328.611 266.52H336.803V272.856H330.275C328.312 272.856 326.925 273.176 326.115 273.816C325.347 274.456 324.963 275.309 324.963 276.376C324.963 277.443 325.368 278.296 326.179 278.936C326.989 279.576 328.099 279.896 329.507 279.896C330.829 279.896 332.024 279.576 333.091 278.936C334.2 278.253 335.011 277.229 335.523 275.864L337.187 280.344C336.547 282.733 335.288 284.547 333.411 285.784C331.576 286.979 329.144 287.576 326.115 287.576Z" fill="black"/>
<path d="M370.28 287.576C365.842 287.576 362.386 286.488 359.911 284.312C357.437 282.093 356.199 278.765 356.199 274.328V244.568H368.359V274.2C368.359 275.437 368.701 276.419 369.384 277.144C370.066 277.827 370.941 278.168 372.008 278.168C373.458 278.168 374.696 277.805 375.72 277.08L378.728 285.592C377.704 286.275 376.445 286.765 374.952 287.064C373.458 287.405 371.901 287.576 370.28 287.576ZM351.143 262.68V253.592H376.296V262.68H351.143Z" fill="black"/>
<rect x="19.5" y="8" width="101" height="101" rx="50.5" fill="#3A5459"/>
<path d="M39.5848 129.592V118.392H44.4328C45.4355 118.392 46.2995 118.557 47.0248 118.888C47.7501 119.208 48.3101 119.672 48.7048 120.28C49.0995 120.888 49.2968 121.613 49.2968 122.456C49.2968 123.288 49.0995 124.008 48.7048 124.616C48.3101 125.224 47.7501 125.693 47.0248 126.024C46.2995 126.344 45.4355 126.504 44.4328 126.504H41.0248L42.1768 125.336V129.592H39.5848ZM42.1768 125.624L41.0248 124.392H44.2888C45.0888 124.392 45.6861 124.221 46.0808 123.88C46.4755 123.539 46.6728 123.064 46.6728 122.456C46.6728 121.837 46.4755 121.357 46.0808 121.016C45.6861 120.675 45.0888 120.504 44.2888 120.504H41.0248L42.1768 119.272V125.624Z" fill="black"/>
<path d="M50.4046 129.592V120.984H52.7886V123.416L52.4526 122.712C52.7086 122.104 53.1193 121.645 53.6846 121.336C54.25 121.016 54.938 120.856 55.7486 120.856V123.16C55.642 123.149 55.546 123.144 55.4606 123.144C55.3753 123.133 55.2846 123.128 55.1886 123.128C54.506 123.128 53.9513 123.325 53.5246 123.72C53.1086 124.104 52.9006 124.707 52.9006 125.528V129.592H50.4046Z" fill="black"/>
<path d="M56.6661 129.592V120.984H59.1621V129.592H56.6661ZM57.9141 119.784C57.4554 119.784 57.0821 119.651 56.7941 119.384C56.5061 119.117 56.3621 118.787 56.3621 118.392C56.3621 117.997 56.5061 117.667 56.7941 117.4C57.0821 117.133 57.4554 117 57.9141 117C58.3728 117 58.7461 117.128 59.0341 117.384C59.3221 117.629 59.4661 117.949 59.4661 118.344C59.4661 118.76 59.3221 119.107 59.0341 119.384C58.7568 119.651 58.3834 119.784 57.9141 119.784Z" fill="black"/>
<path d="M71.9359 120.856C72.6186 120.856 73.2213 120.995 73.7439 121.272C74.2773 121.539 74.6933 121.955 74.9919 122.52C75.3013 123.075 75.4559 123.789 75.4559 124.664V129.592H72.9599V125.048C72.9599 124.355 72.8159 123.843 72.5279 123.512C72.2399 123.181 71.8346 123.016 71.3119 123.016C70.9493 123.016 70.6239 123.101 70.3359 123.272C70.0479 123.432 69.8239 123.677 69.6639 124.008C69.5039 124.339 69.4239 124.76 69.4239 125.272V129.592H66.9279V125.048C66.9279 124.355 66.7839 123.843 66.4959 123.512C66.2186 123.181 65.8186 123.016 65.2959 123.016C64.9333 123.016 64.6079 123.101 64.3199 123.272C64.0319 123.432 63.8079 123.677 63.6479 124.008C63.4879 124.339 63.4079 124.76 63.4079 125.272V129.592H60.9119V120.984H63.2959V123.336L62.8479 122.648C63.1466 122.061 63.5679 121.619 64.1119 121.32C64.6666 121.011 65.2959 120.856 65.9999 120.856C66.7893 120.856 67.4773 121.059 68.0639 121.464C68.6613 121.859 69.0559 122.467 69.2479 123.288L68.3679 123.048C68.6559 122.376 69.1146 121.843 69.7439 121.448C70.3839 121.053 71.1146 120.856 71.9359 120.856Z" fill="black"/>
<path d="M82.4065 129.592V127.912L82.2465 127.544V124.536C82.2465 124.003 82.0812 123.587 81.7505 123.288C81.4305 122.989 80.9345 122.84 80.2625 122.84C79.8038 122.84 79.3505 122.915 78.9025 123.064C78.4652 123.203 78.0918 123.395 77.7825 123.64L76.8865 121.896C77.3558 121.565 77.9212 121.309 78.5825 121.128C79.2438 120.947 79.9158 120.856 80.5985 120.856C81.9105 120.856 82.9292 121.165 83.6545 121.784C84.3798 122.403 84.7425 123.368 84.7425 124.68V129.592H82.4065ZM79.7825 129.72C79.1105 129.72 78.5345 129.608 78.0545 129.384C77.5745 129.149 77.2065 128.835 76.9505 128.44C76.6945 128.045 76.5665 127.603 76.5665 127.112C76.5665 126.6 76.6892 126.152 76.9345 125.768C77.1905 125.384 77.5905 125.085 78.1345 124.872C78.6785 124.648 79.3878 124.536 80.2625 124.536H82.5505V125.992H80.5345C79.9478 125.992 79.5425 126.088 79.3185 126.28C79.1052 126.472 78.9985 126.712 78.9985 127C78.9985 127.32 79.1212 127.576 79.3665 127.768C79.6225 127.949 79.9692 128.04 80.4065 128.04C80.8225 128.04 81.1958 127.944 81.5265 127.752C81.8572 127.549 82.0972 127.256 82.2465 126.872L82.6305 128.024C82.4492 128.579 82.1185 129 81.6385 129.288C81.1585 129.576 80.5398 129.72 79.7825 129.72Z" fill="black"/>
<path d="M86.4348 129.592V120.984H88.8188V123.416L88.4828 122.712C88.7388 122.104 89.1495 121.645 89.7148 121.336C90.2802 121.016 90.9682 120.856 91.7788 120.856V123.16C91.6722 123.149 91.5762 123.144 91.4908 123.144C91.4055 123.133 91.3148 123.128 91.2188 123.128C90.5362 123.128 89.9815 123.325 89.5548 123.72C89.1388 124.104 88.9308 124.707 88.9308 125.528V129.592H86.4348Z" fill="black"/>
<path d="M94.0812 132.824C93.6332 132.824 93.1905 132.755 92.7532 132.616C92.3158 132.477 91.9585 132.285 91.6812 132.04L92.5932 130.264C92.7852 130.435 93.0039 130.568 93.2492 130.664C93.5052 130.76 93.7558 130.808 94.0012 130.808C94.3532 130.808 94.6305 130.723 94.8332 130.552C95.0465 130.392 95.2385 130.12 95.4092 129.736L95.8572 128.68L96.0492 128.408L99.1372 120.984H101.537L97.6492 130.12C97.3718 130.813 97.0518 131.357 96.6892 131.752C96.3372 132.147 95.9425 132.424 95.5052 132.584C95.0785 132.744 94.6038 132.824 94.0812 132.824ZM95.5532 129.928L91.7132 120.984H94.2892L97.2652 128.184L95.5532 129.928Z" fill="black"/>
<path d="M9.79279 161.592V150.392H14.3528C15.5475 150.392 16.5928 150.632 17.4888 151.112C18.3955 151.581 19.0995 152.237 19.6008 153.08C20.1021 153.923 20.3528 154.893 20.3528 155.992C20.3528 157.091 20.1021 158.061 19.6008 158.904C19.0995 159.747 18.3955 160.408 17.4888 160.888C16.5928 161.357 15.5475 161.592 14.3528 161.592H9.79279ZM10.9768 160.568H14.2888C15.2808 160.568 16.1395 160.376 16.8648 159.992C17.6008 159.597 18.1715 159.059 18.5768 158.376C18.9821 157.683 19.1848 156.888 19.1848 155.992C19.1848 155.085 18.9821 154.291 18.5768 153.608C18.1715 152.925 17.6008 152.392 16.8648 152.008C16.1395 151.613 15.2808 151.416 14.2888 151.416H10.9768V160.568Z" fill="black"/>
<path d="M27.4689 161.592V159.736L27.4209 159.432V156.328C27.4209 155.613 27.2182 155.064 26.8129 154.68C26.4182 154.296 25.8262 154.104 25.0369 154.104C24.4929 154.104 23.9755 154.195 23.4849 154.376C22.9942 154.557 22.5782 154.797 22.2369 155.096L21.7249 154.248C22.1515 153.885 22.6635 153.608 23.2609 153.416C23.8582 153.213 24.4875 153.112 25.1489 153.112C26.2369 153.112 27.0742 153.384 27.6609 153.928C28.2582 154.461 28.5569 155.277 28.5569 156.376V161.592H27.4689ZM24.5729 161.672C23.9435 161.672 23.3942 161.571 22.9249 161.368C22.4662 161.155 22.1142 160.867 21.8689 160.504C21.6235 160.131 21.5009 159.704 21.5009 159.224C21.5009 158.787 21.6022 158.392 21.8049 158.04C22.0182 157.677 22.3595 157.389 22.8289 157.176C23.3089 156.952 23.9489 156.84 24.7489 156.84H27.6449V157.688H24.7809C23.9702 157.688 23.4049 157.832 23.0849 158.12C22.7755 158.408 22.6209 158.765 22.6209 159.192C22.6209 159.672 22.8075 160.056 23.1809 160.344C23.5542 160.632 24.0769 160.776 24.7489 160.776C25.3889 160.776 25.9382 160.632 26.3969 160.344C26.8662 160.045 27.2075 159.619 27.4209 159.064L27.6769 159.848C27.4635 160.403 27.0902 160.845 26.5569 161.176C26.0342 161.507 25.3729 161.672 24.5729 161.672Z" fill="black"/>
<path d="M31.0757 161.592V153.192H32.1637V155.48L32.0517 155.08C32.2864 154.44 32.681 153.955 33.2357 153.624C33.7904 153.283 34.4784 153.112 35.2997 153.112V154.216C35.257 154.216 35.2144 154.216 35.1717 154.216C35.129 154.205 35.0864 154.2 35.0437 154.2C34.1584 154.2 33.465 154.472 32.9637 155.016C32.4624 155.549 32.2117 156.312 32.2117 157.304V161.592H31.0757Z" fill="black"/>
<path d="M37.7019 159.416L37.7339 157.96L42.9659 153.192H44.3579L40.6619 156.728L40.0219 157.272L37.7019 159.416ZM36.8059 161.592V149.72H37.9419V161.592H36.8059ZM43.3179 161.592L39.8139 157.224L40.5499 156.344L44.7099 161.592H43.3179Z" fill="black"/>
<path d="M54.6214 161.688C53.7681 161.688 52.9788 161.549 52.2534 161.272C51.5388 160.984 50.9148 160.584 50.3815 160.072C49.8588 159.56 49.4481 158.957 49.1494 158.264C48.8614 157.571 48.7174 156.813 48.7174 155.992C48.7174 155.171 48.8614 154.413 49.1494 153.72C49.4481 153.027 49.8641 152.424 50.3974 151.912C50.9308 151.4 51.5548 151.005 52.2695 150.728C52.9948 150.44 53.7841 150.296 54.6375 150.296C55.4908 150.296 56.2694 150.429 56.9734 150.696C57.6881 150.963 58.2961 151.368 58.7975 151.912L58.0615 152.664C57.5921 152.195 57.0748 151.859 56.5094 151.656C55.9441 151.453 55.3361 151.352 54.6855 151.352C53.9921 151.352 53.3521 151.469 52.7654 151.704C52.1894 151.928 51.6828 152.253 51.2454 152.68C50.8188 153.096 50.4828 153.587 50.2374 154.152C50.0028 154.707 49.8854 155.32 49.8854 155.992C49.8854 156.653 50.0028 157.267 50.2374 157.832C50.4828 158.397 50.8188 158.893 51.2454 159.32C51.6828 159.736 52.1894 160.061 52.7654 160.296C53.3521 160.52 53.9868 160.632 54.6694 160.632C55.3094 160.632 55.9121 160.536 56.4775 160.344C57.0535 160.152 57.5815 159.827 58.0615 159.368L58.7335 160.264C58.2001 160.733 57.5761 161.091 56.8615 161.336C56.1468 161.571 55.4001 161.688 54.6214 161.688ZM57.5975 160.12V155.992H58.7335V160.264L57.5975 160.12Z" fill="black"/>
<path d="M61.2778 161.592V153.192H62.3658V155.48L62.2538 155.08C62.4885 154.44 62.8831 153.955 63.4378 153.624C63.9924 153.283 64.6805 153.112 65.5018 153.112V154.216C65.4591 154.216 65.4164 154.216 65.3738 154.216C65.3311 154.205 65.2885 154.2 65.2458 154.2C64.3605 154.2 63.6671 154.472 63.1658 155.016C62.6644 155.549 62.4138 156.312 62.4138 157.304V161.592H61.2778Z" fill="black"/>
<path d="M71.647 161.592V159.736L71.599 159.432V156.328C71.599 155.613 71.3963 155.064 70.991 154.68C70.5963 154.296 70.0043 154.104 69.215 154.104C68.671 154.104 68.1537 154.195 67.663 154.376C67.1723 154.557 66.7563 154.797 66.415 155.096L65.903 154.248C66.3297 153.885 66.8417 153.608 67.439 153.416C68.0363 153.213 68.6657 153.112 69.327 153.112C70.415 153.112 71.2523 153.384 71.839 153.928C72.4363 154.461 72.735 155.277 72.735 156.376V161.592H71.647ZM68.751 161.672C68.1217 161.672 67.5723 161.571 67.103 161.368C66.6443 161.155 66.2923 160.867 66.047 160.504C65.8017 160.131 65.679 159.704 65.679 159.224C65.679 158.787 65.7803 158.392 65.983 158.04C66.1963 157.677 66.5377 157.389 67.007 157.176C67.487 156.952 68.127 156.84 68.927 156.84H71.823V157.688H68.959C68.1483 157.688 67.583 157.832 67.263 158.12C66.9537 158.408 66.799 158.765 66.799 159.192C66.799 159.672 66.9857 160.056 67.359 160.344C67.7323 160.632 68.255 160.776 68.927 160.776C69.567 160.776 70.1163 160.632 70.575 160.344C71.0443 160.045 71.3857 159.619 71.599 159.064L71.855 159.848C71.6417 160.403 71.2683 160.845 70.735 161.176C70.2123 161.507 69.551 161.672 68.751 161.672Z" fill="black"/>
<path d="M75.1616 164.776C74.7669 164.776 74.3882 164.712 74.0256 164.584C73.6736 164.456 73.3696 164.264 73.1136 164.008L73.6416 163.16C73.8549 163.363 74.0842 163.517 74.3296 163.624C74.5856 163.741 74.8682 163.8 75.1776 163.8C75.5509 163.8 75.8709 163.693 76.1376 163.48C76.4149 163.277 76.6762 162.915 76.9216 162.392L77.4656 161.16L77.5936 160.984L81.0496 153.192H82.1696L77.9616 162.6C77.7269 163.144 77.4656 163.576 77.1776 163.896C76.9002 164.216 76.5962 164.44 76.2656 164.568C75.9349 164.707 75.5669 164.776 75.1616 164.776ZM77.4016 161.832L73.5296 153.192H74.7136L78.1376 160.904L77.4016 161.832Z" fill="black"/>
<path d="M91.9756 161.688C91.1223 161.688 90.333 161.549 89.6076 161.272C88.893 160.984 88.269 160.584 87.7356 160.072C87.213 159.56 86.8023 158.957 86.5036 158.264C86.2156 157.571 86.0716 156.813 86.0716 155.992C86.0716 155.171 86.2156 154.413 86.5036 153.72C86.8023 153.027 87.2183 152.424 87.7516 151.912C88.285 151.4 88.909 151.005 89.6236 150.728C90.349 150.44 91.1383 150.296 91.9916 150.296C92.8449 150.296 93.6236 150.429 94.3276 150.696C95.0423 150.963 95.6503 151.368 96.1516 151.912L95.4156 152.664C94.9463 152.195 94.429 151.859 93.8636 151.656C93.2983 151.453 92.6903 151.352 92.0396 151.352C91.3463 151.352 90.7063 151.469 90.1196 151.704C89.5436 151.928 89.037 152.253 88.5996 152.68C88.173 153.096 87.8369 153.587 87.5916 154.152C87.3569 154.707 87.2396 155.32 87.2396 155.992C87.2396 156.653 87.3569 157.267 87.5916 157.832C87.8369 158.397 88.173 158.893 88.5996 159.32C89.037 159.736 89.5436 160.061 90.1196 160.296C90.7063 160.52 91.341 160.632 92.0236 160.632C92.6636 160.632 93.2663 160.536 93.8316 160.344C94.4076 160.152 94.9356 159.827 95.4156 159.368L96.0876 160.264C95.5543 160.733 94.9303 161.091 94.2156 161.336C93.501 161.571 92.7543 161.688 91.9756 161.688ZM94.9516 160.12V155.992H96.0876V160.264L94.9516 160.12Z" fill="black"/>
<path d="M98.632 161.592V153.192H99.72V155.48L99.608 155.08C99.8426 154.44 100.237 153.955 100.792 153.624C101.347 153.283 102.035 153.112 102.856 153.112V154.216C102.813 154.216 102.771 154.216 102.728 154.216C102.685 154.205 102.643 154.2 102.6 154.2C101.715 154.2 101.021 154.472 100.52 155.016C100.019 155.549 99.768 156.312 99.768 157.304V161.592H98.632Z" fill="black"/>
<path d="M107.852 161.672C106.977 161.672 106.209 161.491 105.548 161.128C104.887 160.755 104.369 160.248 103.996 159.608C103.623 158.957 103.436 158.216 103.436 157.384C103.436 156.552 103.612 155.816 103.964 155.176C104.327 154.536 104.817 154.035 105.436 153.672C106.065 153.299 106.769 153.112 107.548 153.112C108.337 153.112 109.036 153.293 109.644 153.656C110.263 154.008 110.748 154.509 111.1 155.16C111.452 155.8 111.628 156.541 111.628 157.384C111.628 157.437 111.623 157.496 111.612 157.56C111.612 157.613 111.612 157.672 111.612 157.736H104.3V156.888H111.004L110.556 157.224C110.556 156.616 110.423 156.077 110.156 155.608C109.9 155.128 109.548 154.755 109.1 154.488C108.652 154.221 108.135 154.088 107.548 154.088C106.972 154.088 106.455 154.221 105.996 154.488C105.537 154.755 105.18 155.128 104.924 155.608C104.668 156.088 104.54 156.637 104.54 157.256V157.432C104.54 158.072 104.679 158.637 104.956 159.128C105.244 159.608 105.639 159.987 106.14 160.264C106.652 160.531 107.233 160.664 107.884 160.664C108.396 160.664 108.871 160.573 109.308 160.392C109.756 160.211 110.14 159.933 110.46 159.56L111.1 160.296C110.727 160.744 110.257 161.085 109.692 161.32C109.137 161.555 108.524 161.672 107.852 161.672Z" fill="black"/>
<path d="M116.942 161.672C116.067 161.672 115.299 161.491 114.638 161.128C113.976 160.755 113.459 160.248 113.086 159.608C112.712 158.957 112.526 158.216 112.526 157.384C112.526 156.552 112.702 155.816 113.054 155.176C113.416 154.536 113.907 154.035 114.526 153.672C115.155 153.299 115.859 153.112 116.638 153.112C117.427 153.112 118.126 153.293 118.734 153.656C119.352 154.008 119.838 154.509 120.19 155.16C120.542 155.8 120.718 156.541 120.718 157.384C120.718 157.437 120.712 157.496 120.702 157.56C120.702 157.613 120.702 157.672 120.702 157.736H113.39V156.888H120.094L119.646 157.224C119.646 156.616 119.512 156.077 119.246 155.608C118.99 155.128 118.638 154.755 118.19 154.488C117.742 154.221 117.224 154.088 116.638 154.088C116.062 154.088 115.544 154.221 115.086 154.488C114.627 154.755 114.27 155.128 114.014 155.608C113.758 156.088 113.63 156.637 113.63 157.256V157.432C113.63 158.072 113.768 158.637 114.046 159.128C114.334 159.608 114.728 159.987 115.23 160.264C115.742 160.531 116.323 160.664 116.974 160.664C117.486 160.664 117.96 160.573 118.398 160.392C118.846 160.211 119.23 159.933 119.55 159.56L120.19 160.296C119.816 160.744 119.347 161.085 118.782 161.32C118.227 161.555 117.614 161.672 116.942 161.672Z" fill="black"/>
<path d="M126.751 153.112C127.434 153.112 128.031 153.245 128.543 153.512C129.066 153.768 129.471 154.163 129.759 154.696C130.058 155.229 130.207 155.901 130.207 156.712V161.592H129.071V156.824C129.071 155.939 128.847 155.272 128.399 154.824C127.962 154.365 127.343 154.136 126.543 154.136C125.946 154.136 125.423 154.259 124.975 154.504C124.538 154.739 124.197 155.085 123.951 155.544C123.717 155.992 123.599 156.536 123.599 157.176V161.592H122.463V153.192H123.551V155.496L123.375 155.064C123.642 154.456 124.069 153.981 124.655 153.64C125.242 153.288 125.941 153.112 126.751 153.112Z" fill="black"/>
<path d="M43.0114 193.592L44.3874 182.392H45.2514L43.8754 193.592H43.0114ZM36.9474 190.552V189.672H46.6274V190.552H36.9474ZM38.8514 193.592L40.2274 182.392H41.1074L39.7154 193.592H38.8514ZM37.4594 186.312V185.432H47.1394V186.312H37.4594Z" fill="black"/>
<path d="M51.2333 193.688C50.4227 193.688 49.6547 193.56 48.9293 193.304C48.2147 193.037 47.6387 192.685 47.2013 192.248L47.7613 191.336C48.124 191.709 48.6093 192.019 49.2173 192.264C49.836 192.509 50.508 192.632 51.2333 192.632C52.1613 192.632 52.8707 192.429 53.3613 192.024C53.8627 191.619 54.1133 191.075 54.1133 190.392C54.1133 189.709 53.868 189.165 53.3773 188.76C52.8973 188.355 52.1347 188.152 51.0893 188.152H50.2893V187.304L53.7453 182.968L53.9053 183.416H47.6653V182.392H54.8653V183.208L51.4093 187.544L50.8493 187.176H51.2813C52.6253 187.176 53.628 187.475 54.2893 188.072C54.9613 188.669 55.2973 189.437 55.2973 190.376C55.2973 191.005 55.148 191.571 54.8493 192.072C54.5507 192.573 54.0973 192.968 53.4893 193.256C52.892 193.544 52.14 193.688 51.2333 193.688Z" fill="black"/>
<path d="M55.5852 193.592L60.7052 182.392H61.8732L66.9932 193.592H65.7452L61.0412 183.08H61.5212L56.8172 193.592H55.5852ZM57.6012 190.6L57.9532 189.64H64.4652L64.8172 190.6H57.6012Z" fill="black"/>
<path d="M70.8232 193.688C70.0232 193.688 69.2606 193.56 68.5352 193.304C67.8099 193.037 67.2339 192.685 66.8072 192.248L67.3672 191.336C67.7192 191.709 68.1992 192.019 68.8072 192.264C69.4259 192.509 70.0926 192.632 70.8072 192.632C71.7566 192.632 72.4766 192.424 72.9672 192.008C73.4686 191.581 73.7192 191.027 73.7192 190.344C73.7192 189.864 73.6019 189.453 73.3672 189.112C73.1432 188.76 72.7592 188.488 72.2152 188.296C71.6712 188.104 70.9246 188.008 69.9752 188.008H67.5912L68.1672 182.392H74.2952V183.416H68.6312L69.2232 182.856L68.7272 187.56L68.1352 186.984H70.2312C71.3619 186.984 72.2686 187.123 72.9512 187.4C73.6339 187.677 74.1246 188.067 74.4232 188.568C74.7326 189.059 74.8872 189.635 74.8872 190.296C74.8872 190.925 74.7379 191.501 74.4392 192.024C74.1406 192.536 73.6926 192.941 73.0952 193.24C72.4979 193.539 71.7406 193.688 70.8232 193.688Z" fill="black"/>
<path d="M75.5911 190.648V189.816L81.5271 182.392H82.8071L76.9191 189.816L76.2951 189.624H85.3031V190.648H75.5911ZM81.9111 193.592V190.648L81.9431 189.624V187.032H83.0631V193.592H81.9111Z" fill="black"/>
<path d="M89.2993 193.688C88.4993 193.688 87.7366 193.56 87.0113 193.304C86.286 193.037 85.71 192.685 85.2833 192.248L85.8433 191.336C86.1953 191.709 86.6753 192.019 87.2833 192.264C87.9019 192.509 88.5686 192.632 89.2833 192.632C90.2326 192.632 90.9526 192.424 91.4433 192.008C91.9446 191.581 92.1953 191.027 92.1953 190.344C92.1953 189.864 92.078 189.453 91.8433 189.112C91.6193 188.76 91.2353 188.488 90.6913 188.296C90.1473 188.104 89.4006 188.008 88.4513 188.008H86.0673L86.6433 182.392H92.7713V183.416H87.1073L87.6993 182.856L87.2033 187.56L86.6113 186.984H88.7073C89.8379 186.984 90.7446 187.123 91.4273 187.4C92.11 187.677 92.6006 188.067 92.8993 188.568C93.2086 189.059 93.3633 189.635 93.3633 190.296C93.3633 190.925 93.2139 191.501 92.9153 192.024C92.6166 192.536 92.1686 192.941 91.5713 193.24C90.9739 193.539 90.2166 193.688 89.2993 193.688Z" fill="black"/>
<path d="M97.7471 182.296C98.7391 182.296 99.5765 182.52 100.259 182.968C100.942 183.405 101.459 184.04 101.811 184.872C102.163 185.704 102.339 186.712 102.339 187.896C102.339 189.155 102.12 190.216 101.683 191.08C101.256 191.944 100.659 192.595 99.8911 193.032C99.1231 193.469 98.2324 193.688 97.2191 193.688C96.7178 193.688 96.2378 193.64 95.7791 193.544C95.3311 193.448 94.9258 193.293 94.5631 193.08L95.0271 192.152C95.3151 192.344 95.6458 192.483 96.0191 192.568C96.4031 192.643 96.7978 192.68 97.2031 192.68C98.4085 192.68 99.3684 192.296 100.083 191.528C100.808 190.76 101.171 189.613 101.171 188.088C101.171 187.843 101.155 187.549 101.123 187.208C101.102 186.867 101.043 186.525 100.947 186.184L101.347 186.488C101.24 187.043 101.011 187.517 100.659 187.912C100.318 188.296 99.8911 188.589 99.3791 188.792C98.8778 188.995 98.3178 189.096 97.6991 189.096C96.9631 189.096 96.3071 188.957 95.7311 188.68C95.1658 188.403 94.7231 188.013 94.4031 187.512C94.0831 187.011 93.9231 186.419 93.9231 185.736C93.9231 185.032 94.0885 184.424 94.4191 183.912C94.7498 183.4 95.2031 183.005 95.7791 182.728C96.3658 182.44 97.0218 182.296 97.7471 182.296ZM97.7951 183.272C97.2618 183.272 96.7871 183.373 96.3711 183.576C95.9658 183.768 95.6458 184.045 95.4111 184.408C95.1765 184.771 95.0591 185.203 95.0591 185.704C95.0591 186.44 95.3098 187.027 95.8111 187.464C96.3231 187.901 97.0111 188.12 97.8751 188.12C98.4511 188.12 98.9525 188.013 99.3791 187.8C99.8165 187.587 100.152 187.293 100.387 186.92C100.632 186.547 100.755 186.131 100.755 185.672C100.755 185.256 100.643 184.867 100.419 184.504C100.195 184.141 99.8644 183.848 99.4271 183.624C98.9898 183.389 98.4458 183.272 97.7951 183.272Z" fill="black"/>
<rect x="172.5" y="8" width="101" height="101" rx="50.5" fill="#FF715B"/>
<path d="M195.128 128.2L200.12 117H202.68L207.688 128.2H204.968L200.872 118.312H201.896L197.784 128.2H195.128ZM197.624 125.8L198.312 123.832H204.072L204.776 125.8H197.624Z" fill="black"/>
<path d="M212.19 128.328C211.262 128.328 210.435 128.141 209.71 127.768C208.984 127.384 208.414 126.856 207.998 126.184C207.592 125.512 207.39 124.749 207.39 123.896C207.39 123.032 207.592 122.269 207.998 121.608C208.414 120.936 208.984 120.413 209.71 120.04C210.435 119.656 211.262 119.464 212.19 119.464C213.096 119.464 213.886 119.656 214.558 120.04C215.23 120.413 215.726 120.952 216.046 121.656L214.11 122.696C213.886 122.291 213.603 121.992 213.262 121.8C212.931 121.608 212.568 121.512 212.174 121.512C211.747 121.512 211.363 121.608 211.022 121.8C210.68 121.992 210.408 122.264 210.206 122.616C210.014 122.968 209.918 123.395 209.918 123.896C209.918 124.397 210.014 124.824 210.206 125.176C210.408 125.528 210.68 125.8 211.022 125.992C211.363 126.184 211.747 126.28 212.174 126.28C212.568 126.28 212.931 126.189 213.262 126.008C213.603 125.816 213.886 125.512 214.11 125.096L216.046 126.152C215.726 126.845 215.23 127.384 214.558 127.768C213.886 128.141 213.096 128.328 212.19 128.328Z" fill="black"/>
<path d="M220.967 128.328C220.039 128.328 219.212 128.141 218.487 127.768C217.761 127.384 217.191 126.856 216.775 126.184C216.369 125.512 216.167 124.749 216.167 123.896C216.167 123.032 216.369 122.269 216.775 121.608C217.191 120.936 217.761 120.413 218.487 120.04C219.212 119.656 220.039 119.464 220.967 119.464C221.873 119.464 222.663 119.656 223.335 120.04C224.007 120.413 224.503 120.952 224.823 121.656L222.887 122.696C222.663 122.291 222.38 121.992 222.039 121.8C221.708 121.608 221.345 121.512 220.951 121.512C220.524 121.512 220.14 121.608 219.799 121.8C219.457 121.992 219.185 122.264 218.983 122.616C218.791 122.968 218.695 123.395 218.695 123.896C218.695 124.397 218.791 124.824 218.983 125.176C219.185 125.528 219.457 125.8 219.799 125.992C220.14 126.184 220.524 126.28 220.951 126.28C221.345 126.28 221.708 126.189 222.039 126.008C222.38 125.816 222.663 125.512 222.887 125.096L224.823 126.152C224.503 126.845 224.007 127.384 223.335 127.768C222.663 128.141 221.873 128.328 220.967 128.328Z" fill="black"/>
<path d="M229.856 128.328C228.874 128.328 228.01 128.136 227.264 127.752C226.528 127.368 225.957 126.845 225.552 126.184C225.146 125.512 224.944 124.749 224.944 123.896C224.944 123.032 225.141 122.269 225.536 121.608C225.941 120.936 226.49 120.413 227.184 120.04C227.877 119.656 228.661 119.464 229.536 119.464C230.378 119.464 231.136 119.645 231.808 120.008C232.49 120.36 233.029 120.872 233.424 121.544C233.818 122.205 234.016 123 234.016 123.928C234.016 124.024 234.01 124.136 234 124.264C233.989 124.381 233.978 124.493 233.968 124.6H226.976V123.144H232.656L231.696 123.576C231.696 123.128 231.605 122.739 231.424 122.408C231.242 122.077 230.992 121.821 230.672 121.64C230.352 121.448 229.978 121.352 229.552 121.352C229.125 121.352 228.746 121.448 228.416 121.64C228.096 121.821 227.845 122.083 227.664 122.424C227.482 122.755 227.392 123.149 227.392 123.608V123.992C227.392 124.461 227.493 124.877 227.696 125.24C227.909 125.592 228.202 125.864 228.576 126.056C228.96 126.237 229.408 126.328 229.92 126.328C230.378 126.328 230.778 126.259 231.12 126.12C231.472 125.981 231.792 125.773 232.08 125.496L233.408 126.936C233.013 127.384 232.517 127.731 231.92 127.976C231.322 128.211 230.634 128.328 229.856 128.328Z" fill="black"/>
<path d="M240.343 119.464C241.026 119.464 241.634 119.603 242.167 119.88C242.711 120.147 243.138 120.563 243.447 121.128C243.756 121.683 243.911 122.397 243.911 123.272V128.2H241.415V123.656C241.415 122.963 241.26 122.451 240.951 122.12C240.652 121.789 240.226 121.624 239.671 121.624C239.276 121.624 238.919 121.709 238.599 121.88C238.29 122.04 238.044 122.291 237.863 122.632C237.692 122.973 237.607 123.411 237.607 123.944V128.2H235.111V119.592H237.495V121.976L237.047 121.256C237.356 120.68 237.799 120.237 238.375 119.928C238.951 119.619 239.607 119.464 240.343 119.464Z" fill="black"/>
<path d="M249.127 128.328C248.113 128.328 247.324 128.072 246.759 127.56C246.193 127.037 245.911 126.264 245.911 125.24V117.688H248.407V125.208C248.407 125.571 248.503 125.853 248.695 126.056C248.887 126.248 249.148 126.344 249.479 126.344C249.873 126.344 250.209 126.237 250.487 126.024L251.159 127.784C250.903 127.965 250.593 128.104 250.231 128.2C249.879 128.285 249.511 128.328 249.127 128.328ZM244.583 121.704V119.784H250.551V121.704H244.583Z" fill="black"/>
<path d="M170.735 160.2L165.775 149H167.055L171.695 159.544H170.991L175.663 149H176.863L171.903 160.2H170.735Z" fill="black"/>
<path d="M177.635 160.2V151.8H178.771V160.2H177.635ZM178.211 149.944C177.976 149.944 177.779 149.864 177.619 149.704C177.459 149.544 177.379 149.352 177.379 149.128C177.379 148.904 177.459 148.717 177.619 148.568C177.779 148.408 177.976 148.328 178.211 148.328C178.445 148.328 178.643 148.403 178.803 148.552C178.963 148.701 179.043 148.888 179.043 149.112C179.043 149.347 178.963 149.544 178.803 149.704C178.653 149.864 178.456 149.944 178.211 149.944Z" fill="black"/>
<path d="M185.701 160.28C184.965 160.28 184.303 160.115 183.717 159.784C183.13 159.443 182.666 158.952 182.325 158.312C181.983 157.672 181.813 156.899 181.813 155.992C181.813 155.075 181.983 154.301 182.325 153.672C182.677 153.032 183.146 152.547 183.733 152.216C184.319 151.885 184.975 151.72 185.701 151.72C186.501 151.72 187.215 151.901 187.845 152.264C188.485 152.616 188.986 153.112 189.349 153.752C189.711 154.392 189.893 155.139 189.893 155.992C189.893 156.835 189.711 157.581 189.349 158.232C188.986 158.872 188.485 159.373 187.845 159.736C187.215 160.099 186.501 160.28 185.701 160.28ZM181.365 160.2V148.328H182.501V154.28L182.341 155.976L182.453 157.672V160.2H181.365ZM185.621 159.272C186.218 159.272 186.751 159.139 187.221 158.872C187.69 158.595 188.063 158.211 188.341 157.72C188.618 157.219 188.757 156.643 188.757 155.992C188.757 155.331 188.618 154.755 188.341 154.264C188.063 153.773 187.69 153.395 187.221 153.128C186.751 152.851 186.218 152.712 185.621 152.712C185.023 152.712 184.485 152.851 184.005 153.128C183.535 153.395 183.162 153.773 182.885 154.264C182.618 154.755 182.485 155.331 182.485 155.992C182.485 156.643 182.618 157.219 182.885 157.72C183.162 158.211 183.535 158.595 184.005 158.872C184.485 159.139 185.023 159.272 185.621 159.272Z" fill="black"/>
<path d="M191.642 160.2V151.8H192.73V154.088L192.618 153.688C192.853 153.048 193.247 152.563 193.802 152.232C194.357 151.891 195.045 151.72 195.866 151.72V152.824C195.823 152.824 195.781 152.824 195.738 152.824C195.695 152.813 195.653 152.808 195.61 152.808C194.725 152.808 194.031 153.08 193.53 153.624C193.029 154.157 192.778 154.92 192.778 155.912V160.2H191.642Z" fill="black"/>
<path d="M202.011 160.2V158.344L201.963 158.04V154.936C201.963 154.221 201.76 153.672 201.355 153.288C200.96 152.904 200.368 152.712 199.579 152.712C199.035 152.712 198.518 152.803 198.027 152.984C197.536 153.165 197.12 153.405 196.779 153.704L196.267 152.856C196.694 152.493 197.206 152.216 197.803 152.024C198.4 151.821 199.03 151.72 199.691 151.72C200.779 151.72 201.616 151.992 202.203 152.536C202.8 153.069 203.099 153.885 203.099 154.984V160.2H202.011ZM199.115 160.28C198.486 160.28 197.936 160.179 197.467 159.976C197.008 159.763 196.656 159.475 196.411 159.112C196.166 158.739 196.043 158.312 196.043 157.832C196.043 157.395 196.144 157 196.347 156.648C196.56 156.285 196.902 155.997 197.371 155.784C197.851 155.56 198.491 155.448 199.291 155.448H202.187V156.296H199.323C198.512 156.296 197.947 156.44 197.627 156.728C197.318 157.016 197.163 157.373 197.163 157.8C197.163 158.28 197.35 158.664 197.723 158.952C198.096 159.24 198.619 159.384 199.291 159.384C199.931 159.384 200.48 159.24 200.939 158.952C201.408 158.653 201.75 158.227 201.963 157.672L202.219 158.456C202.006 159.011 201.632 159.453 201.099 159.784C200.576 160.115 199.915 160.28 199.115 160.28Z" fill="black"/>
<path d="M209.906 151.72C210.589 151.72 211.186 151.853 211.698 152.12C212.221 152.376 212.626 152.771 212.914 153.304C213.213 153.837 213.362 154.509 213.362 155.32V160.2H212.226V155.432C212.226 154.547 212.002 153.88 211.554 153.432C211.117 152.973 210.498 152.744 209.698 152.744C209.101 152.744 208.578 152.867 208.13 153.112C207.693 153.347 207.351 153.693 207.106 154.152C206.871 154.6 206.754 155.144 206.754 155.784V160.2H205.618V151.8H206.706V154.104L206.53 153.672C206.797 153.064 207.223 152.589 207.81 152.248C208.397 151.896 209.095 151.72 209.906 151.72Z" fill="black"/>
<path d="M218.52 160.28C217.73 160.28 217.122 160.067 216.696 159.64C216.269 159.213 216.056 158.611 216.056 157.832V149.944H217.192V157.768C217.192 158.259 217.314 158.637 217.56 158.904C217.816 159.171 218.178 159.304 218.648 159.304C219.149 159.304 219.565 159.16 219.896 158.872L220.296 159.688C220.072 159.891 219.8 160.04 219.48 160.136C219.17 160.232 218.85 160.28 218.52 160.28ZM214.552 152.744V151.8H219.752V152.744H214.552Z" fill="black"/>
<path d="M230.554 160.296C229.711 160.296 228.927 160.157 228.202 159.88C227.487 159.592 226.863 159.192 226.33 158.68C225.807 158.157 225.397 157.555 225.098 156.872C224.81 156.179 224.666 155.421 224.666 154.6C224.666 153.779 224.81 153.027 225.098 152.344C225.397 151.651 225.807 151.048 226.33 150.536C226.863 150.013 227.487 149.613 228.202 149.336C228.917 149.048 229.701 148.904 230.554 148.904C231.397 148.904 232.175 149.048 232.89 149.336C233.605 149.613 234.223 150.008 234.746 150.52C235.279 151.032 235.69 151.635 235.978 152.328C236.277 153.021 236.426 153.779 236.426 154.6C236.426 155.421 236.277 156.179 235.978 156.872C235.69 157.565 235.279 158.168 234.746 158.68C234.223 159.192 233.605 159.592 232.89 159.88C232.175 160.157 231.397 160.296 230.554 160.296ZM230.554 159.24C231.226 159.24 231.845 159.128 232.41 158.904C232.986 158.669 233.482 158.344 233.898 157.928C234.325 157.501 234.655 157.011 234.89 156.456C235.125 155.891 235.242 155.272 235.242 154.6C235.242 153.928 235.125 153.315 234.89 152.76C234.655 152.195 234.325 151.704 233.898 151.288C233.482 150.861 232.986 150.536 232.41 150.312C231.845 150.077 231.226 149.96 230.554 149.96C229.882 149.96 229.258 150.077 228.682 150.312C228.106 150.536 227.605 150.861 227.178 151.288C226.762 151.704 226.431 152.195 226.186 152.76C225.951 153.315 225.834 153.928 225.834 154.6C225.834 155.261 225.951 155.875 226.186 156.44C226.431 157.005 226.762 157.501 227.178 157.928C227.605 158.344 228.106 158.669 228.682 158.904C229.258 159.128 229.882 159.24 230.554 159.24Z" fill="black"/>
<path d="M238.273 160.2V151.8H239.361V154.088L239.249 153.688C239.484 153.048 239.878 152.563 240.433 152.232C240.988 151.891 241.676 151.72 242.497 151.72V152.824C242.454 152.824 242.412 152.824 242.369 152.824C242.326 152.813 242.284 152.808 242.241 152.808C241.356 152.808 240.662 153.08 240.161 153.624C239.66 154.157 239.409 154.92 239.409 155.912V160.2H238.273Z" fill="black"/>
<path d="M248.642 160.2V158.344L248.594 158.04V154.936C248.594 154.221 248.392 153.672 247.986 153.288C247.592 152.904 247 152.712 246.21 152.712C245.666 152.712 245.149 152.803 244.658 152.984C244.168 153.165 243.752 153.405 243.41 153.704L242.898 152.856C243.325 152.493 243.837 152.216 244.434 152.024C245.032 151.821 245.661 151.72 246.322 151.72C247.41 151.72 248.248 151.992 248.834 152.536C249.432 153.069 249.73 153.885 249.73 154.984V160.2H248.642ZM245.746 160.28C245.117 160.28 244.568 160.179 244.098 159.976C243.64 159.763 243.288 159.475 243.042 159.112C242.797 158.739 242.674 158.312 242.674 157.832C242.674 157.395 242.776 157 242.978 156.648C243.192 156.285 243.533 155.997 244.002 155.784C244.482 155.56 245.122 155.448 245.922 155.448H248.818V156.296H245.954C245.144 156.296 244.578 156.44 244.258 156.728C243.949 157.016 243.794 157.373 243.794 157.8C243.794 158.28 243.981 158.664 244.354 158.952C244.728 159.24 245.25 159.384 245.922 159.384C246.562 159.384 247.112 159.24 247.57 158.952C248.04 158.653 248.381 158.227 248.594 157.672L248.85 158.456C248.637 159.011 248.264 159.453 247.73 159.784C247.208 160.115 246.546 160.28 245.746 160.28Z" fill="black"/>
<path d="M256.537 151.72C257.22 151.72 257.817 151.853 258.329 152.12C258.852 152.376 259.257 152.771 259.545 153.304C259.844 153.837 259.993 154.509 259.993 155.32V160.2H258.857V155.432C258.857 154.547 258.633 153.88 258.185 153.432C257.748 152.973 257.129 152.744 256.329 152.744C255.732 152.744 255.209 152.867 254.761 153.112C254.324 153.347 253.982 153.693 253.737 154.152C253.502 154.6 253.385 155.144 253.385 155.784V160.2H252.249V151.8H253.337V154.104L253.161 153.672C253.428 153.064 253.854 152.589 254.441 152.248C255.028 151.896 255.726 151.72 256.537 151.72Z" fill="black"/>
<path d="M266.079 163.384C265.311 163.384 264.575 163.272 263.871 163.048C263.167 162.824 262.596 162.504 262.159 162.088L262.735 161.224C263.13 161.576 263.615 161.853 264.191 162.056C264.778 162.269 265.396 162.376 266.047 162.376C267.114 162.376 267.898 162.125 268.399 161.624C268.9 161.133 269.151 160.365 269.151 159.32V157.224L269.311 155.784L269.199 154.344V151.8H270.287V159.176C270.287 160.627 269.93 161.688 269.215 162.36C268.511 163.043 267.466 163.384 266.079 163.384ZM265.871 159.88C265.071 159.88 264.351 159.709 263.711 159.368C263.071 159.016 262.564 158.531 262.191 157.912C261.828 157.293 261.647 156.584 261.647 155.784C261.647 154.984 261.828 154.28 262.191 153.672C262.564 153.053 263.071 152.573 263.711 152.232C264.351 151.891 265.071 151.72 265.871 151.72C266.618 151.72 267.29 151.875 267.887 152.184C268.484 152.493 268.959 152.952 269.311 153.56C269.663 154.168 269.839 154.909 269.839 155.784C269.839 156.659 269.663 157.4 269.311 158.008C268.959 158.616 268.484 159.08 267.887 159.4C267.29 159.72 266.618 159.88 265.871 159.88ZM265.983 158.872C266.602 158.872 267.151 158.744 267.631 158.488C268.111 158.221 268.49 157.859 268.767 157.4C269.044 156.931 269.183 156.392 269.183 155.784C269.183 155.176 269.044 154.643 268.767 154.184C268.49 153.725 268.111 153.368 267.631 153.112C267.151 152.845 266.602 152.712 265.983 152.712C265.375 152.712 264.826 152.845 264.335 153.112C263.855 153.368 263.476 153.725 263.199 154.184C262.932 154.643 262.799 155.176 262.799 155.784C262.799 156.392 262.932 156.931 263.199 157.4C263.476 157.859 263.855 158.221 264.335 158.488C264.826 158.744 265.375 158.872 265.983 158.872Z" fill="black"/>
<path d="M276.449 160.28C275.575 160.28 274.807 160.099 274.145 159.736C273.484 159.363 272.967 158.856 272.593 158.216C272.22 157.565 272.033 156.824 272.033 155.992C272.033 155.16 272.209 154.424 272.561 153.784C272.924 153.144 273.415 152.643 274.033 152.28C274.663 151.907 275.367 151.72 276.145 151.72C276.935 151.72 277.633 151.901 278.241 152.264C278.86 152.616 279.345 153.117 279.697 153.768C280.049 154.408 280.225 155.149 280.225 155.992C280.225 156.045 280.22 156.104 280.209 156.168C280.209 156.221 280.209 156.28 280.209 156.344H272.897V155.496H279.601L279.153 155.832C279.153 155.224 279.02 154.685 278.753 154.216C278.497 153.736 278.145 153.363 277.697 153.096C277.249 152.829 276.732 152.696 276.145 152.696C275.569 152.696 275.052 152.829 274.593 153.096C274.135 153.363 273.777 153.736 273.521 154.216C273.265 154.696 273.137 155.245 273.137 155.864V156.04C273.137 156.68 273.276 157.245 273.553 157.736C273.841 158.216 274.236 158.595 274.737 158.872C275.249 159.139 275.831 159.272 276.481 159.272C276.993 159.272 277.468 159.181 277.905 159C278.353 158.819 278.737 158.541 279.057 158.168L279.697 158.904C279.324 159.352 278.855 159.693 278.289 159.928C277.735 160.163 277.121 160.28 276.449 160.28Z" fill="black"/>
<path d="M199.191 186.424H205.111V187.448H199.191V186.424ZM199.319 192.2H198.135V181H205.815V182.024H199.319V192.2Z" fill="black"/>
<path d="M208.75 186.424H214.67V187.448H208.75V186.424ZM208.878 192.2H207.694V181H215.374V182.024H208.878V192.2Z" fill="black"/>
<path d="M218.384 192.2L223.216 181.512L223.568 182.024H216.64L217.232 181.464V184.12H216.096V181H224.32V181.816L219.632 192.2H218.384Z" fill="black"/>
<path d="M227.38 192.2V181.48L227.892 182.024H224.74V181H228.532V192.2H227.38Z" fill="black"/>
<path d="M234.178 192.296C233.378 192.296 232.616 192.168 231.89 191.912C231.165 191.645 230.589 191.293 230.162 190.856L230.722 189.944C231.074 190.317 231.554 190.627 232.162 190.872C232.781 191.117 233.448 191.24 234.162 191.24C235.112 191.24 235.832 191.032 236.322 190.616C236.824 190.189 237.074 189.635 237.074 188.952C237.074 188.472 236.957 188.061 236.722 187.72C236.498 187.368 236.114 187.096 235.57 186.904C235.026 186.712 234.28 186.616 233.33 186.616H230.946L231.522 181H237.65V182.024H231.986L232.578 181.464L232.082 186.168L231.49 185.592H233.586C234.717 185.592 235.624 185.731 236.306 186.008C236.989 186.285 237.48 186.675 237.778 187.176C238.088 187.667 238.242 188.243 238.242 188.904C238.242 189.533 238.093 190.109 237.794 190.632C237.496 191.144 237.048 191.549 236.45 191.848C235.853 192.147 235.096 192.296 234.178 192.296Z" fill="black"/>
<path d="M240.13 192.2V181H244.962C246.21 181 247.176 181.251 247.858 181.752C248.552 182.253 248.898 182.963 248.898 183.88C248.898 184.488 248.754 185 248.466 185.416C248.189 185.832 247.805 186.147 247.314 186.36C246.834 186.573 246.306 186.68 245.73 186.68L246.002 186.296C246.717 186.296 247.33 186.408 247.842 186.632C248.365 186.845 248.77 187.171 249.058 187.608C249.346 188.035 249.49 188.568 249.49 189.208C249.49 190.157 249.138 190.893 248.434 191.416C247.741 191.939 246.69 192.2 245.282 192.2H240.13ZM241.314 191.224H245.266C246.248 191.224 247 191.059 247.522 190.728C248.045 190.387 248.306 189.848 248.306 189.112C248.306 188.387 248.045 187.859 247.522 187.528C247 187.187 246.248 187.016 245.266 187.016H241.186V186.04H244.882C245.778 186.04 246.472 185.869 246.962 185.528C247.464 185.187 247.714 184.68 247.714 184.008C247.714 183.325 247.464 182.819 246.962 182.488C246.472 182.147 245.778 181.976 244.882 181.976H241.314V191.224Z" fill="black"/>
</svg>
