<svg width="2009" height="542" viewBox="0 0 2009 542" fill="none" xmlns="http://www.w3.org/2000/svg">
<rect x="944" y="130" width="226" height="253" fill="#F2F2F2"/>
<path fill-rule="evenodd" clip-rule="evenodd" d="M944 321H949.857V320H944V321ZM961.571 321H955.714V320H961.571V321ZM967.429 321H973.286V320H967.429V321ZM979.143 321H985V320H979.143V321Z" fill="#E6E6E6"/>
<path fill-rule="evenodd" clip-rule="evenodd" d="M944 274H949.952V273H944V274ZM961.857 274H955.905V273H961.857V274ZM967.81 274H973.762V273H967.81V274ZM985.667 274H979.714V273H985.667V274ZM991.619 274H997.571V273H991.619V274ZM1009.48 274H1003.52V273H1009.48V274ZM1015.43 274H1021.38V273H1015.43V274ZM1033.29 274H1027.33V273H1033.29V274ZM1039.24 274H1045.19V273H1039.24V274ZM1057.1 274H1051.14V273H1057.1V274ZM1069 274H1063.05V273H1069V274Z" fill="#E6E6E6"/>
<path fill-rule="evenodd" clip-rule="evenodd" d="M944 245H949.927V244H944V245ZM961.78 245H955.854V244H961.78V245ZM967.707 245H973.634V244H967.707V245ZM985.488 245H979.561V244H985.488V245ZM991.415 245H997.341V244H991.415V245ZM1009.2 245H1003.27V244H1009.2V245ZM1015.12 245H1021.05V244H1015.12V245ZM1032.9 245H1026.98V244H1032.9V245ZM1038.83 245H1044.76V244H1038.83V245ZM1056.61 245H1050.68V244H1056.61V245ZM1062.54 245H1068.46V244H1062.54V245ZM1080.32 245H1074.39V244H1080.32V245ZM1086.24 245H1092.17V244H1086.24V245ZM1104.02 245H1098.1V244H1104.02V245ZM1109.95 245H1115.88V244H1109.95V245ZM1127.73 245H1121.8V244H1127.73V245ZM1133.66 245H1139.59V244H1133.66V245ZM1151.44 245H1145.51V244H1151.44V245ZM1157.37 245H1163.29V244H1157.37V245ZM1175.15 245H1169.22V244H1175.15V245ZM1187 245H1181.07V244H1187V245Z" fill="#E6E6E6"/>
<rect x="988" y="106" width="1" height="3" fill="#E6E6E6"/>
<path fill-rule="evenodd" clip-rule="evenodd" d="M989 120.811H990V115H989V120.811ZM990 132.432H989V126.622H990V132.432ZM989 144.054H990V138.243H989V144.054ZM990 155.676H989V149.865H990V155.676ZM989 167.297H990V161.486H989V167.297ZM990 178.919H989V173.108H990V178.919ZM989 190.541H990V184.73H989V190.541ZM990 202.162H989V196.351H990V202.162ZM989 213.784H990V207.973H989V213.784ZM990 225.405H989V219.595H990V225.405ZM989 237.027H990V231.216H989V237.027ZM990 248.649H989V242.838H990V248.649ZM989 260.27H990V254.459H989V260.27ZM990 271.892H989V266.081H990V271.892ZM989 283.513H990V277.702H989V283.513ZM990 295.135H989V289.324H990V295.135ZM989 306.756H990V300.946H989V306.756ZM990 318.378H989V312.567H990V318.378ZM990 330H989V324.189H990V330Z" fill="#E6E6E6"/>
<rect x="988" y="336" width="1" height="3" fill="#E6E6E6"/>
<rect x="1074" y="106" width="1" height="3" fill="#E6E6E6"/>
<path fill-rule="evenodd" clip-rule="evenodd" d="M1074 120.897H1075V115H1074V120.897ZM1075 132.69H1074V126.793H1075V132.69ZM1074 144.483H1075V138.586H1074V144.483ZM1075 156.276H1074V150.379H1075V156.276ZM1074 168.069H1075V162.172H1074V168.069ZM1075 179.862H1074V173.965H1075V179.862ZM1074 191.655H1075V185.758H1074V191.655ZM1075 203.448H1074V197.552H1075V203.448ZM1074 215.241H1075V209.345H1074V215.241ZM1075 227.034H1074V221.138H1075V227.034ZM1074 238.827H1075V232.931H1074V238.827ZM1075 250.621H1074V244.724H1075V250.621ZM1074 262.413H1075V256.517H1074V262.413ZM1075 274.207H1074V268.31H1075V274.207ZM1075 286H1074V280.103H1075V286Z" fill="#E6E6E6"/>
<rect x="1074" y="291" width="1" height="3" fill="#E6E6E6"/>
<path d="M944 383L988.775 338.048L1009.19 358.548L1073.9 293.59L1115.72 335.578L1191 260V383H944V383Z" fill="#FF715B"/>
<path fill-rule="evenodd" clip-rule="evenodd" d="M944 384H1192V106H944V384ZM1191.02 383.014H944.984V106.986H1191.02V383.014Z" fill="#3A5459"/>
<circle cx="988.5" cy="320.5" r="6.5" fill="#3A5459"/>
<circle cx="1074.5" cy="274.5" r="6.5" fill="#3A5459"/>
<circle cx="1191.5" cy="244.5" r="6.5" fill="#3A5459"/>
<path d="M1146 146C1143.14 146.832 1139.31 147.475 1136.48 147.247L1140.18 149.716L966 279.208L966.584 280L1140.76 150.508L1142.03 154.784C1142.64 151.993 1144.37 148.501 1146 146Z" fill="#3A5459"/>
<ellipse opacity="0.32952" cx="961" cy="469" rx="205" ry="16" fill="#3A5459"/>
<path d="M833.029 461C832.915 460.816 830.232 456.388 829.301 447.192C828.448 438.755 828.997 424.534 836.459 404.696C850.595 367.116 833.201 336.794 833.023 336.492L833.881 336C833.926 336.077 838.415 343.807 841.066 356.118C844.57 372.439 843.294 389.408 837.389 405.038C823.276 442.554 833.768 460.314 833.875 460.489L833.029 461Z" fill="#3A5459"/>
<circle opacity="0.337379" cx="827.5" cy="327.5" r="6.5" fill="#3A5459"/>
<circle opacity="0.671921" cx="847.5" cy="350.5" r="6.5" fill="#3A5459"/>
<circle opacity="0.188639" cx="833.5" cy="366.5" r="6.5" fill="#3A5459"/>
<circle opacity="0.337379" cx="850.5" cy="379.5" r="6.5" fill="#3A5459"/>
<circle opacity="0.337379" cx="828.5" cy="400.5" r="6.5" fill="#3A5459"/>
<path opacity="0.967866" d="M837.037 461C837.037 461 830.556 445.571 850 434L837.037 461Z" fill="#6B8286"/>
<path opacity="0.967866" d="M829 461C829 461 826.025 443.854 803 444.001L829 461Z" fill="#6B8286"/>
<path d="M938.745 182C938.745 182 939.229 194.78 936.326 197.729C933.424 200.678 950.84 211 950.84 211L961 194.78C961 194.78 957.13 187.898 958.097 182H938.745Z" fill="#A0616A"/>
<path d="M907 443V455.037L922 456L921.032 443H907V443Z" fill="#A0616A"/>
<path d="M990 443V455.037L975 456L975.968 443H990V443Z" fill="#A0616A"/>
<path d="M914.456 305.702C914.456 305.702 906.614 334.26 911.515 356.909C911.515 356.909 911.515 366.757 913.476 368.727C915.436 370.696 915.927 370.696 914.456 371.681C912.986 372.666 910.045 375.128 911.515 376.605C912.986 378.082 913.476 380.051 912.496 380.544C911.515 381.036 910.535 382.021 911.515 383.99C912.496 385.96 906.614 438.645 906.614 438.645C906.614 438.645 900.732 445.046 906.614 445.538C912.496 446.03 922.298 448.492 923.279 444.553C924.259 440.614 932.101 384.975 932.101 384.975C932.101 384.975 933.081 383.498 935.042 381.036C937.002 378.574 936.022 377.589 936.022 377.097C936.022 376.605 946.315 329.828 946.315 329.828C946.315 329.828 961.509 383.006 962.979 383.99C964.45 384.975 964.94 384.975 964.94 386.452C964.94 387.929 963.96 388.914 964.94 390.391C965.475 391.184 965.966 392.006 966.41 392.853C966.41 392.853 968.861 448 973.762 448C978.664 448 993.368 447.015 991.897 442.584C990.427 438.152 988.466 439.137 988.466 439.137C988.466 439.137 991.897 393.838 983.565 380.544V369.711C983.565 368.727 984.055 368.234 983.565 367.249C983.075 366.265 985.035 307.671 975.723 304.225C966.41 300.778 914.456 305.702 914.456 305.702Z" fill="#CBD3D5"/>
<path d="M915.953 452.039C915.953 452.039 913.469 448 909.991 448C906.514 448 904.029 452.039 904.029 452.039L895.087 464.66C895.087 464.66 882.169 472.738 887.137 477.281C892.106 481.825 905.52 479.301 905.52 479.301C905.52 479.301 916.45 471.223 917.941 470.718C919.431 470.213 923.406 467.689 923.903 467.184C924.399 466.679 922.909 448.505 921.418 449.767C919.928 451.029 918.934 455.068 915.953 452.039Z" fill="#3A5459"/>
<path d="M981.047 452.039C981.047 452.039 983.531 448 987.009 448C990.486 448 992.971 452.039 992.971 452.039L1001.91 464.66C1001.91 464.66 1014.83 472.738 1009.86 477.281C1004.89 481.825 991.48 479.301 991.48 479.301C991.48 479.301 980.55 471.223 979.059 470.718C977.569 470.213 973.594 467.689 973.097 467.184C972.601 466.679 974.091 448.505 975.582 449.767C977.072 451.029 978.066 455.068 981.047 452.039Z" fill="#3A5459"/>
<circle cx="947" cy="171" r="18" fill="#A0616A"/>
<path d="M942.074 200.061C942.074 200.061 938.756 200.243 937.209 195.227L911 214.344L921.851 243.402C921.851 243.402 923.331 259.163 921.851 263.596C920.372 268.028 919.385 271.476 919.385 273.446C919.385 275.416 909.027 308.415 912.973 309.892C916.919 311.37 977.095 317.28 978.574 307.43C980.054 297.579 973.642 232.567 973.642 232.567L984 207.448L958.818 191C958.818 191 956.378 201.046 942.074 200.061Z" fill="#3A5459"/>
<path d="M909.442 245L907.505 260.25C907.505 260.25 899.758 276.483 901.695 298.128L901.211 312.394C901.211 312.394 896.368 336.991 906.053 337.975C915.737 338.959 909.442 310.919 909.442 310.919L914.768 297.636L920.221 268.09L923 247.46L909.442 245Z" fill="#A0616A"/>
<path d="M917.618 213L910.485 213.747C910.485 213.747 905.812 248.852 907.288 248.852C908.764 248.852 925.488 252.836 925.98 251.84C926.472 250.844 917.618 213 917.618 213Z" fill="#3A5459"/>
<path d="M933.145 153.567L929.975 152.376C929.975 152.376 936.604 145.529 945.828 146.125L943.233 143.445C943.233 143.445 949.575 141.064 955.339 147.315C958.37 150.601 961.876 154.464 964.062 158.816H967.457L966.04 161.743L971 164.67L965.909 164.144C966.391 166.671 966.225 169.285 965.427 171.725L964.275 175C964.275 175 959.663 165.474 959.663 164.283V167.26C959.663 167.26 956.492 164.581 956.492 162.795L954.763 164.879L953.898 161.604L943.233 164.879L944.963 162.2L938.333 163.093L940.928 159.818C940.928 159.818 933.433 163.688 933.145 166.963C932.857 170.237 929.11 174.405 929.11 174.405L927.381 171.428C927.381 171.428 924.786 158.032 933.145 153.567Z" fill="#2F2E41"/>
<ellipse cx="979.5" cy="360" rx="32.5" ry="47" fill="#3F3D56"/>
<ellipse opacity="0.1" cx="979.5" cy="360" rx="32.5" ry="47" fill="#3A5459"/>
<ellipse cx="984.5" cy="360" rx="32.5" ry="47" fill="#3A5459"/>
<ellipse opacity="0.1" cx="984.5" cy="359" rx="28.5" ry="40" fill="black"/>
<path d="M984.136 378V373.325C981.81 373.279 979.404 372.446 978 371.289L978.962 368.188C980.631 369.458 982.653 370.155 984.738 370.178C987.586 370.178 989.511 368.28 989.511 365.642C989.511 363.096 987.946 361.523 984.979 360.134C980.888 358.283 978.361 356.153 978.361 352.127C978.361 348.285 980.727 345.369 984.417 344.675V340H986.904V344.49C988.758 344.515 990.566 345.077 992.118 346.11L991.115 349.164C989.627 348.13 987.864 347.581 986.061 347.591C982.973 347.591 981.81 349.72 981.81 351.571C981.81 353.978 983.294 355.181 986.783 356.848C990.914 358.792 993 361.199 993 365.318C993 368.974 990.794 372.4 986.663 373.186V378H984.136Z" fill="white"/>
<path d="M990.995 240V260.117C990.995 260.117 991.486 284.65 983.134 299.861L978.712 309.674C978.712 309.674 969.868 338.132 964.464 329.3C959.059 320.468 970.36 305.748 970.36 305.748L976.754 268.4L972.816 243.435L990.995 240Z" fill="#A0616A"/>
<path d="M974.002 206L983.756 207.22C983.756 207.22 995.511 242.098 992.51 243.561C989.508 245.024 970 246 970 246L974.002 206Z" fill="#3A5459"/>
<ellipse opacity="0.1" cx="165.5" cy="469" rx="82.5" ry="14" fill="#6C63FF"/>
<ellipse opacity="0.1" cx="481.5" cy="465" rx="82.5" ry="14" fill="#6C63FF"/>
<path opacity="0.1" d="M212.122 89.2081C190.526 90.363 168.705 96.6727 151.856 110.236C137.072 122.141 126.41 140.859 129.011 159.666C132.081 181.867 151.888 198.017 159.236 219.195C163.963 232.809 163.226 247.832 160.132 261.916C158.142 270.991 155.081 280.075 149.198 287.267C138.602 300.206 119.48 306.45 114.274 322.341C108.612 339.623 122.879 356.57 136.283 368.861C146.982 378.668 158.189 388.428 171.672 393.804C181.531 397.738 192.231 399.151 202.836 399.714C232.122 401.251 261.402 396.573 288.751 385.987C301.854 380.903 314.53 374.457 328.243 371.391C357.468 364.856 387.538 374.279 417.158 378.692C442.548 382.463 468.35 382.539 493.762 378.917C509.753 376.635 526.274 372.518 538.316 361.758C550.522 350.833 556.625 333.923 555.949 317.539C555.273 301.154 548.363 285.38 538.184 272.517C525.039 255.902 506.908 244.081 491.133 229.922C475.071 215.497 461.407 198.607 450.655 179.886C444.458 169.088 439.185 157.628 431.157 148.122C418.636 133.305 400.477 124.493 382.332 117.686C340.473 102.006 297.056 98.8134 253.413 91.8841C239.775 89.7104 225.939 88.4851 212.122 89.2081Z" fill="#3A5459"/>
<g opacity="0.7">
<rect x="204.253" y="261.746" width="89.5125" height="50.1696" fill="#F6F7F9"/>
<g opacity="0.2">
<ellipse cx="221.105" cy="284.017" rx="9.31875" ry="9.34657" fill="#3A5459"/>
</g>
<g opacity="0.2">
<rect x="241.786" y="272.94" width="40.6031" height="2.56231" fill="#3A5459"/>
</g>
<g opacity="0.2">
<rect x="241.786" y="279.47" width="20.6859" height="2.56231" fill="#3A5459"/>
</g>
<g opacity="0.2">
<rect x="241.786" y="286.001" width="33.4547" height="2.56231" fill="#3A5459"/>
</g>
<g opacity="0.2">
<rect x="241.786" y="292.531" width="40.6031" height="2.56231" fill="#3A5459"/>
</g>
<g opacity="0.2">
<rect x="271.158" y="301.958" width="11.2359" height="4.95067" fill="#6C63FF"/>
</g>
<rect x="279.614" y="123.094" width="89.5125" height="50.1696" fill="#F6F7F9"/>
<g opacity="0.2">
<ellipse cx="296.47" cy="145.365" rx="9.31875" ry="9.34657" fill="#3A5459"/>
</g>
<g opacity="0.2">
<rect x="317.152" y="134.288" width="40.6031" height="2.56231" fill="#3A5459"/>
</g>
<g opacity="0.2">
<rect x="317.152" y="140.819" width="20.6859" height="2.56231" fill="#3A5459"/>
</g>
<g opacity="0.2">
<rect x="317.152" y="147.349" width="33.4547" height="2.56231" fill="#3A5459"/>
</g>
<g opacity="0.2">
<rect x="317.152" y="153.884" width="40.6031" height="2.56231" fill="#3A5459"/>
</g>
<g opacity="0.2">
<rect x="346.519" y="163.306" width="11.2359" height="4.95067" fill="#3A5459"/>
</g>
<rect x="309.408" y="207.326" width="89.5125" height="50.1696" fill="#F6F7F9"/>
<g opacity="0.2">
<ellipse cx="326.259" cy="229.602" rx="9.31875" ry="9.34657" fill="#3A5459"/>
</g>
<g opacity="0.2">
<rect x="346.945" y="218.525" width="40.6031" height="2.56231" fill="#3A5459"/>
</g>
<g opacity="0.2">
<rect x="346.945" y="225.055" width="20.6859" height="2.56231" fill="#3A5459"/>
</g>
<g opacity="0.2">
<rect x="346.945" y="231.586" width="33.4547" height="2.56231" fill="#3A5459"/>
</g>
<g opacity="0.2">
<rect x="346.945" y="238.116" width="40.6031" height="2.56231" fill="#3A5459"/>
</g>
<g opacity="0.2">
<rect x="376.312" y="247.543" width="11.2359" height="4.95067" fill="#3A5459"/>
</g>
</g>
<rect x="173" y="153" width="151" height="85" fill="url(#paint0_linear_201_1723)"/>
<rect x="174" y="154" width="149" height="83" fill="#F6F7F9"/>
<g opacity="0.2">
<ellipse cx="202.616" cy="191.005" rx="15.2501" ry="15.7421" fill="#3A5459"/>
</g>
<g opacity="0.2">
<rect x="236.431" y="172.22" width="67.3528" height="4.515" fill="#3A5459"/>
</g>
<g opacity="0.2">
<rect x="236.429" y="183.24" width="34.1413" height="4.515" fill="#3A5459"/>
</g>
<g opacity="0.2">
<rect x="236.429" y="194.255" width="55.2207" height="4.515" fill="#3A5459"/>
</g>
<g opacity="0.2">
<rect x="236.431" y="205.27" width="67.3528" height="4.515" fill="#3A5459"/>
</g>
<rect x="285" y="221" width="19" height="8" fill="#FF715B"/>
<rect x="279" y="268" width="143" height="80" fill="url(#paint1_linear_201_1723)"/>
<rect x="280" y="269" width="141" height="79" fill="#F6F7F9"/>
<g opacity="0.2">
<circle cx="306.972" cy="303.869" r="14.7" fill="#3A5459"/>
</g>
<g opacity="0.2">
<rect x="339.254" y="286.275" width="64.3547" height="4.295" fill="#3A5459"/>
</g>
<g opacity="0.2">
<rect x="339.251" y="296.235" width="32.3493" height="4.295" fill="#3A5459"/>
</g>
<g opacity="0.2">
<rect x="339.256" y="307.169" width="53.3226" height="3.81778" fill="#3A5459"/>
</g>
<g opacity="0.2">
<rect x="339.254" y="317.129" width="64.3547" height="3.81778" fill="#3A5459"/>
</g>
<g opacity="0.5">
<rect x="386.166" y="332.404" width="17.4508" height="7.38222" fill="#88A4AA"/>
</g>
<g opacity="0.1">
<path d="M122.43 224.46L122.8 224.54C122.692 224.466 122.559 224.437 122.43 224.46Z" fill="url(#paint2_linear_201_1723)"/>
</g>
<path fill-rule="evenodd" clip-rule="evenodd" d="M194.395 279.028C193.358 272.045 187.035 255.753 187.035 255.753C186.922 255.283 186.8 254.784 186.659 254.304C182.17 238.827 175.959 237.458 175.959 237.458L153.709 232.7C153.893 232.816 154.052 232.966 154.178 233.143L153.827 233.199C152.805 231.991 152.131 230.527 151.875 228.964C151.833 228.733 151.795 228.493 151.767 228.249C155.002 225.088 156.718 220.679 156.474 216.156C156.229 211.632 154.048 207.436 150.491 204.645C150.261 204.461 150.022 204.287 149.778 204.113C150.829 202.998 150.862 201.44 150.078 199.878C148.324 196.221 144.515 193.911 140.593 192.786C137.6 191.925 134.354 191.647 131.389 192.589C130.09 193 128.882 193.63 127.674 194.261C127.307 194.452 126.941 194.643 126.571 194.829C125.963 195.134 125.341 195.426 124.719 195.718L124.719 195.718C122.319 196.847 119.901 197.984 118.127 199.915C117.607 200.485 117.133 201.209 117.283 201.958C117.362 202.335 117.586 202.652 117.811 202.971C117.92 203.126 118.029 203.282 118.123 203.445C118.756 204.555 118.592 205.953 118.165 207.162C117.995 207.643 117.791 208.114 117.586 208.583L117.586 208.583C117.277 209.294 116.969 210.002 116.786 210.739C116.481 211.962 116.603 213.44 117.532 214.324C117.983 214.679 118.453 215.008 118.939 215.313C119.449 215.745 119.896 216.247 120.267 216.804L122.903 220.376C124.134 221.959 125.232 223.642 126.187 225.406C126.37 225.769 126.541 226.14 126.713 226.51L126.713 226.51C127.154 227.461 127.596 228.413 128.227 229.246C128.485 229.59 128.779 229.906 129.105 230.187C129.074 230.175 129.042 230.164 129.011 230.152C128.956 230.132 128.9 230.112 128.847 230.088C129.632 230.856 130.697 231.266 131.793 231.223H131.924C132.125 231.219 132.318 231.14 132.463 231.001V231.472C132.51 233.19 132.506 235.015 132.384 236.728L132.177 236.625C131.553 236.31 130.804 236.389 130.259 236.827L109.763 253.297C109.763 253.297 105.311 259.415 105.931 269.955L102.342 285.776C102.342 285.776 97.8526 299.201 101.305 308.787C104.758 318.372 106.761 323.845 106.761 323.845C106.761 323.845 108.14 334.734 110.214 335.61C112.287 336.485 113.183 336.984 113.183 336.984L113.596 339.586C113.596 339.586 113.732 339.835 113.976 340.268C115.486 342.899 121.073 352.188 124.324 351.2C124.73 353.721 124.908 356.274 124.854 358.828L128.063 380.474C128.063 380.474 130.305 386.361 130.169 389.443C130.033 392.525 132.792 396.911 132.792 396.911C131.117 399.983 130.626 403.565 131.413 406.977C132.726 412.732 134.382 439.3 134.382 439.3L136.798 445.738L136.728 453.267C136.528 454.49 136.017 455.64 135.245 456.608C134.725 457.173 134.39 457.768 134.037 458.396C133.332 459.648 132.554 461.031 130.085 462.57C129.518 462.923 128.983 463.243 128.481 463.542C125.703 465.198 123.987 466.222 123.987 468.833C123.982 469.259 123.945 469.684 123.874 470.104C123.852 470.245 123.829 470.382 123.807 470.515C123.472 472.508 123.287 473.613 129.738 474.231C137.816 474.998 143.201 469.708 143.201 469.708C143.201 469.708 144.388 467.549 149.985 466.678C149.985 466.678 151.894 466.574 152.002 464.876C152.039 464.292 152.03 463.172 151.978 461.939C151.889 459.586 151.664 456.848 151.368 456.711C150.998 456.547 150.341 454.18 150.116 453.323H151.673C151.673 453.323 153.123 442.434 151.673 435.376C150.224 428.317 151.537 423.324 151.537 423.324L151.261 404.699C151.261 404.699 149.304 402.708 150.838 399.085C152.372 395.462 150.838 377.514 150.838 377.514C150.838 377.514 151.397 371.077 152.982 369.571C154.568 368.065 153.062 360.136 152.982 359.722L155.797 369.227C155.797 369.227 157.04 388.13 159.667 391.556L160.427 400.111C160.427 400.111 165.812 407.988 164.776 412.238C163.739 416.487 165.883 431.823 165.883 431.823V447.507C165.883 447.507 163.462 453.808 166.849 456.067L168.308 456.01C168.048 456.256 167.826 456.553 167.595 456.862C167.384 457.144 167.165 457.438 166.901 457.714C166.253 458.382 165.887 460.923 165.681 463.106C165.507 464.956 165.451 466.546 165.451 466.546C165.451 466.546 166.901 468.857 169.593 469.012C172.286 469.167 181.194 476 181.194 476C181.194 476 190.004 476 192.279 475.529L192.415 475.496C193.146 475.263 193.76 474.758 194.132 474.085C194.591 473.306 194.74 472.381 194.55 471.497C194.264 470.146 193.199 468.673 190.83 467.407C184.924 464.278 184.046 461.351 184.046 461.351L180.176 455.535H180.73C180.73 455.535 180.387 449.37 184.595 442.453L184.323 411.979C184.323 411.979 186.045 401.499 183.08 395.815C183.08 395.815 182.836 389.787 184.821 387.937C186.805 386.088 182.179 367.392 182.179 367.392C182.179 367.392 181.241 357.359 180.097 348.202C184.755 352.635 189.591 336.668 190.417 333.831H190.539C190.539 333.831 190.515 333.756 190.483 333.624C190.45 333.492 190.539 333.421 190.539 333.421C190.539 333.419 190.529 333.383 190.513 333.321C190.358 332.736 189.579 329.799 190.262 330.476C191.017 331.224 192.889 328.424 192.889 328.424C192.889 328.424 192.612 313.149 195.859 305.451C199.105 297.752 194.395 279.028 194.395 279.028ZM180.514 288.745L180.538 288.703C181.007 298.03 180.444 317.93 180.444 317.93C180.444 317.93 179.806 320.481 179.121 323.483L178.628 304.575L178.159 286.769L180.514 288.745ZM121.064 316.01C123.41 311.766 121.064 282.317 121.064 282.317C119.408 281.221 118.024 286.971 118.024 286.971C118.024 286.971 119.127 288.477 117.471 292.006C115.899 295.356 116.005 299.665 116.02 300.267C116.021 300.299 116.021 300.32 116.021 300.331C116.021 300.361 116.072 300.579 116.156 300.94C116.635 302.992 118.187 309.651 117.541 312.453C116.955 314.994 118.597 319.789 119.371 321.831C119.835 319.37 120.393 317.22 121.064 316.01Z" fill="url(#paint3_linear_201_1723)"/>
<path d="M126.622 348.907C124.545 358.1 116.267 344.195 114.382 340.861L114 340.17L114.897 335.943L119.642 334C120.392 334.394 121.102 334.86 121.762 335.391C124.373 337.426 128.226 341.787 126.622 348.907Z" fill="#EFB7B9"/>
<path d="M190 333.341L189.95 333.546C189.95 333.608 189.909 333.68 189.886 333.77C189.113 336.631 184.513 352.681 180.072 348.223C175.212 343.331 177.574 332.097 177.574 332.097H177.619L187.843 331L189.868 333.184V333.184L190 333.341Z" fill="#EFB7B9"/>
<path d="M184.012 412.153L184.281 442.45C180.117 449.331 180.453 455.458 180.453 455.458L166.729 456C163.379 453.757 165.783 447.493 165.783 447.493V431.897C165.783 431.897 163.639 416.654 164.661 412.412C165.684 408.171 160.355 400.361 160.355 400.361L159.607 391.854C157.005 388.451 155.774 369.654 155.774 369.654L152.978 360.228C153.049 360.638 154.501 368.561 152.978 370.017C151.454 371.474 150.857 377.917 150.857 377.917C150.857 377.917 152.362 395.756 150.857 399.362C149.353 402.967 151.264 405.017 151.264 405.017L151.544 423.536C151.544 423.536 150.242 428.508 151.676 435.521C153.11 442.534 151.676 453.361 151.676 453.361H136.912L136.978 445.82L134.588 439.419C134.588 439.419 132.946 413.002 131.649 407.285C130.87 403.893 131.354 400.336 133.012 397.274C133.012 397.274 130.282 392.914 130.419 389.85C130.556 386.787 128.332 380.933 128.332 380.933L125.152 359.417C125.241 355.278 124.712 351.148 123.581 347.163C121.731 341.036 119 333 119 333L122.085 333.273L137.664 334.654C137.664 334.654 175.522 332.119 177.23 334.225C177.59 334.913 177.833 335.655 177.95 336.422C179.648 344.034 181.896 367.863 181.896 367.863C181.896 367.863 186.477 386.452 184.509 388.29C182.54 390.129 182.786 396.119 182.786 396.119C185.72 401.737 184.012 412.153 184.012 412.153Z" fill="#444053"/>
<path d="M151.978 464.514C151.87 466.218 149.981 466.323 149.981 466.323C144.455 467.198 143.284 469.369 143.284 469.369C143.284 469.369 137.961 474.675 129.989 473.928C123.193 473.271 123.849 472.024 124.199 469.787C124.268 469.366 124.304 468.939 124.307 468.512C124.307 465.418 126.669 464.538 130.348 462.22C134.027 459.902 133.928 457.937 135.463 456.238C136.997 454.539 137.153 451.24 137.153 451.24C138.891 448.195 143.293 451.716 143.293 451.716C143.496 452.797 150.047 452.668 150.047 452.668C150.047 452.668 150.916 456.176 151.36 456.38C151.652 456.519 151.874 459.269 151.964 461.616C152.007 462.806 152.011 463.933 151.978 464.514Z" fill="#B07473"/>
<path opacity="0.1" d="M151.979 463.854C151.87 465.497 149.981 465.598 149.981 465.598C144.455 466.442 143.284 468.535 143.284 468.535C143.284 468.535 137.961 473.651 129.989 472.93C123.193 472.297 123.849 471.095 124.199 468.938C127.235 469.673 133.045 470.691 136.436 468.902C141.159 466.415 144.526 464.676 144.526 464.676L151.955 461C152.007 462.207 152.012 463.294 151.979 463.854Z" fill="black"/>
<path d="M193.508 473.123C193.144 473.781 192.531 474.277 191.798 474.507C191.755 474.522 191.711 474.532 191.665 474.539C189.399 475 180.649 475 180.649 475C180.649 475 171.779 468.331 169.119 468.179C166.458 468.027 165 465.781 165 465.781C165 465.781 165.052 464.232 165.223 462.433C165.432 460.307 165.798 457.821 166.439 457.185C167.627 455.986 167.865 454.339 170.558 455.386C170.558 455.386 174.359 448.879 178.843 453.906L183.48 460.736C183.48 460.736 184.354 463.581 190.226 466.63C192.577 467.852 193.637 469.291 193.917 470.605C194.11 471.464 193.964 472.363 193.508 473.123Z" fill="#B07473"/>
<path opacity="0.1" d="M193.507 473.058C192.984 473.502 192.4 473.979 191.797 474.49C191.754 474.505 191.709 474.516 191.664 474.523C189.398 475 180.648 475 180.648 475C180.648 475 171.779 468.102 169.119 467.944C166.458 467.787 165 465.463 165 465.463C165 465.463 165.052 463.861 165.223 462C167.945 462.821 172.078 464.266 173.185 465.817C174.881 468.202 180.035 471.498 180.035 471.498C180.035 471.498 189.645 470.573 193.915 470.444C194.111 471.336 193.965 472.269 193.507 473.058Z" fill="black"/>
<path d="M156 235.835L143.651 249C143.651 249 128.694 247.888 131.306 243.429C132.636 241.163 132.844 236.419 132.728 232.279C132.617 228.292 132.21 224.899 132.21 224.899C132.21 224.899 153.188 214.366 151.581 224.189C151.24 226.041 151.219 227.938 151.521 229.797C152.433 234.76 156 235.835 156 235.835Z" fill="#EFB7B9"/>
<path opacity="0.1" d="M151.91 224.358C151.559 226.284 151.538 228.258 151.848 230.192C148.869 233.273 144.805 235.006 140.565 235C137.632 235 134.495 232.569 132.138 231.135C132.024 226.988 132 225.097 132 225.097C132 225.097 153.562 214.139 151.91 224.358Z" fill="black"/>
<path d="M156 218.494C156.002 225.726 151.003 231.999 143.952 233.609C136.901 235.22 129.674 231.74 126.536 225.224C123.398 218.708 125.183 210.888 130.838 206.38C136.494 201.872 144.515 201.873 150.168 206.384C153.852 209.324 155.998 213.781 156 218.494Z" fill="#EFB7B9"/>
<path opacity="0.1" d="M178 336.182C174.107 345.605 149.065 345.8 149.065 345.8V335.53L147.548 335.429C148.204 338.369 146.611 345.543 146.611 345.543C126.82 348.401 122 336.925 122 336.925L122.684 333L138.104 334.396C138.104 334.396 175.578 331.833 177.269 333.962C177.632 334.656 177.879 335.406 178 336.182V336.182Z" fill="black"/>
<path d="M149.296 344.808V334.682L147.765 334.588C148.427 337.484 146.821 344.554 146.821 344.554C131.803 346.658 125.326 340.799 123.044 337.747C122.636 337.223 122.286 336.656 122 336.057L128.089 301.979L129.507 251.826L131.703 243.028L132.214 238.803V238.756L132.266 238.779L133.815 239.441L143.112 243.432L153.727 235.512L153.883 235.394L154.408 235L155.282 235.7L157.45 237.427L164.413 282.092C164.413 282.092 176.488 316.485 178.728 330.367C178.817 330.921 178.893 331.438 178.95 331.921C180.419 344.573 149.296 344.808 149.296 344.808Z" fill="#E1E7EF"/>
<circle cx="144" cy="244" r="1" fill="#67647E"/>
<circle cx="144" cy="252" r="1" fill="#67647E"/>
<circle cx="145" cy="265" r="1" fill="#67647E"/>
<circle cx="147" cy="279" r="1" fill="#67647E"/>
<circle cx="148" cy="293" r="1" fill="#67647E"/>
<circle cx="148" cy="307" r="1" fill="#67647E"/>
<circle cx="148" cy="321" r="1" fill="#67647E"/>
<path opacity="0.1" d="M132.598 306.585C132.598 306.585 131.615 319.688 129.815 323.497C128.016 327.305 127.199 338 127.199 338L123.025 337.529C122.624 337.002 122.281 336.433 122 335.832L127.979 301.617L129.37 251.263L131.527 242.431L132.028 238.188C132.044 238.176 132.063 238.168 132.083 238.165C132.558 237.937 133.11 237.946 133.577 238.188L133.781 238.292C133.721 238.467 133.66 238.646 133.605 238.829C131.972 244.038 131.36 253.644 131.36 253.644C131.36 253.644 133.707 271.211 133.971 279.384C134.235 287.557 132.598 306.585 132.598 306.585Z" fill="black"/>
<path opacity="0.1" d="M122 335.42C121.951 335.532 121.895 335.642 121.833 335.748C120.106 338.65 115.727 340.496 114.394 341L114 340.295L114.925 335.983L119.815 334C120.588 334.402 121.32 334.877 122 335.42V335.42Z" fill="black"/>
<path d="M110.49 269L106.707 271.31L103.25 286.915C103.25 286.915 98.934 300.158 102.257 309.614C105.581 319.069 107.516 324.461 107.516 324.461C107.516 324.461 108.844 335.216 110.834 336.081C112.825 336.946 113.693 337.433 113.693 337.433L114.089 340C114.089 340 119.494 338.129 121.406 334.856C123.318 331.583 120 323.395 120 323.395C120 323.395 117.145 316.436 117.876 313.196C118.607 309.955 116.415 301.439 116.415 301.238C116.415 301.037 116.217 296.506 117.793 293.027C119.37 289.548 118.327 288.065 118.327 288.065L117.329 278.133L110.49 269Z" fill="#67647E"/>
<path opacity="0.1" d="M178 333.136C178 333.136 167.826 336.998 164.588 333.605C161.35 330.212 161.691 314.39 161.691 314.39C161.691 314.39 158.593 285.141 156.634 280.337C154.675 275.534 155.701 240.863 155.701 240.863C155.701 240.863 154.376 236.387 153.243 235.202C153.171 235.124 153.09 235.056 153 235L153.397 235.084L154.796 235.389L156.937 237.114L163.814 281.701C163.814 281.701 175.737 316.035 177.949 329.893L178 333.136Z" fill="black"/>
<path opacity="0.1" d="M190 334.499H189.881C188.578 334.65 177.043 335.91 177 333.742C177 333.491 177.016 333.239 177.048 332.989L187.732 332L189.848 333.97V333.97C189.886 334.099 189.919 334.211 189.948 334.297L190 334.499Z" fill="black"/>
<path d="M178.92 253L186.331 256.884C186.331 256.884 192.478 272.943 193.486 279.832C193.486 279.832 198.049 298.28 194.88 305.866C191.711 313.451 191.995 328.515 191.995 328.515C191.995 328.515 190.183 331.282 189.444 330.539C188.705 329.796 189.713 333.441 189.713 333.441C189.713 333.441 177.061 335.133 177.001 332.628C176.941 330.123 179.905 318.177 179.905 318.177C179.905 318.177 180.709 289.75 179.566 285.296C178.423 280.842 178.92 253 178.92 253Z" fill="#67647E"/>
<path opacity="0.1" d="M156.512 284C156.512 284 151.997 294.036 150.568 294.699C149.138 295.362 150.859 298 150.859 298C150.859 298 159.05 287.566 156.512 284Z" fill="black"/>
<path opacity="0.1" d="M155 247.006C155.05 246.808 149.644 251.983 148.202 252.754C146.76 253.525 153.458 252.712 155 247.006Z" fill="black"/>
<path opacity="0.1" d="M140 283C140 283 132.052 287.825 133.094 289.726C134.137 291.627 140 283 140 283Z" fill="black"/>
<path opacity="0.1" d="M154 356C154 356 160.642 359.993 171 361L154 356Z" fill="black"/>
<path opacity="0.1" d="M139 366C139 366 144.896 373.786 147.585 373.996C150.275 374.206 139 366 139 366Z" fill="black"/>
<path opacity="0.1" d="M147 396C146.741 396.134 143.712 402.793 140.62 402.996C137.529 403.199 147 396 147 396Z" fill="black"/>
<path opacity="0.1" d="M175 411.188C175 411.188 180.728 409.914 182 414C182 414 181.618 412.722 175 411.188Z" fill="black"/>
<path opacity="0.1" d="M171 435.569C171 435.569 178.291 433.959 179.842 436.156C181.394 438.352 171 435.569 171 435.569Z" fill="black"/>
<path opacity="0.1" d="M149.924 439C149.924 439.065 142.723 440.472 143.008 441.407C143.294 442.343 150.686 442.208 150.949 440.736C151.051 440.367 150.999 439.97 150.805 439.641C150.611 439.312 150.292 439.08 149.924 439V439Z" fill="black"/>
<path opacity="0.1" d="M169 445.353C169 445.353 181.766 444.126 180.964 446.245C180.162 448.363 169 445.353 169 445.353Z" fill="black"/>
<path opacity="0.1" d="M116 316C116 316 109.569 317.988 110.023 321C110.477 324.013 109.373 319.594 116 316Z" fill="black"/>
<path opacity="0.1" d="M113 332C113 332 115.333 328.424 117.553 329.081C119.773 329.737 113 332 113 332Z" fill="black"/>
<path opacity="0.1" d="M149.982 206.476C149.752 206.705 149.494 206.902 149.216 207.064C147.322 208.193 146.815 209.91 145.907 211.936C145.077 213.771 144.16 215.73 142.478 216.755C140.311 218.097 137.453 217.604 135.199 218.78C133.156 219.882 131.964 222.147 132.185 224.51C132.331 225.4 132.547 226.278 132.83 227.133C133.339 228.983 133.57 230.902 133.517 232.825C133.524 232.883 133.524 232.942 133.517 233C128.249 230.295 124.942 224.734 125.001 218.676C125.059 212.618 128.472 207.125 133.791 204.528C139.11 201.932 145.403 202.686 150 206.472L149.982 206.476Z" fill="black"/>
<path d="M150.453 200.852C148.75 197.217 145.052 194.921 141.248 193.78C138.343 192.927 135.193 192.648 132.311 193.587C130.669 194.119 129.17 195.001 127.635 195.812C124.762 197.288 121.603 198.452 119.445 200.876C118.944 201.437 118.48 202.163 118.629 202.908C118.74 203.464 119.167 203.888 119.441 204.383C120.058 205.487 119.905 206.878 119.482 208.08C119.06 209.282 118.443 210.404 118.146 211.639C117.849 212.875 117.965 214.322 118.865 215.204C119.3 215.554 119.752 215.881 120.22 216.184C120.712 216.619 121.144 217.118 121.505 217.67L124.062 221.22C125.264 222.795 126.335 224.47 127.263 226.227C127.904 227.514 128.395 228.891 129.245 230.041C130.094 231.191 131.425 232.116 132.836 231.988C133.057 231.996 133.268 231.894 133.402 231.715C133.457 231.602 133.483 231.477 133.476 231.352C133.534 229.441 133.301 227.533 132.785 225.694C132.5 224.844 132.283 223.972 132.135 223.087C131.915 220.738 133.114 218.488 135.17 217.391C137.443 216.227 140.32 216.717 142.501 215.383C144.194 214.341 145.117 212.413 145.953 210.588C146.881 208.594 147.377 206.868 149.284 205.746C151.191 204.624 151.395 202.762 150.453 200.852Z" fill="#585268"/>
<path opacity="0.1" d="M143 458C143 458 145.545 461.009 144.893 462.712C144.242 464.416 143 458 143 458Z" fill="black"/>
<path opacity="0.1" d="M176 465C176 465 176.514 461.087 178.581 461.052C180.649 461.016 180.749 460.841 182.326 461.437C183.903 462.034 185.38 462.967 184.912 463.111C184.444 463.255 182.185 460.868 179.913 462.084C178.469 462.859 177.151 463.842 176 465Z" fill="black"/>
<path opacity="0.1" d="M136.293 248L143 243.19C143 243.19 133.151 237.244 131.978 238.081C130.805 238.918 130 246.422 130 246.422L136.293 248Z" fill="black"/>
<path d="M136.264 248L143 243.13C143 243.13 133.151 237.256 131.978 238.079C130.805 238.902 130 246.74 130 246.74L136.264 248Z" fill="#E1E7EF"/>
<path opacity="0.03" d="M136.264 248L143 243.13C143 243.13 133.151 237.256 131.978 238.079C130.805 238.902 130 246.74 130 246.74L136.264 248Z" fill="black"/>
<path d="M132.775 238.294L132.575 238.19C131.971 237.878 131.242 237.955 130.715 238.388L110.779 254.784C110.779 254.784 106.446 260.859 107.06 271.345L118.813 288.232C118.813 288.232 120.157 282.51 121.77 283.599C121.77 283.599 124.053 312.875 121.77 317.098C119.487 321.321 118.478 337.114 118.478 337.114L126.201 338C126.201 338 127.005 327.311 128.818 323.498C130.631 319.686 131.608 306.584 131.608 306.584C131.608 306.584 133.24 287.548 132.97 279.371C132.7 271.194 130.352 253.639 130.352 253.639C130.352 253.639 131.008 243.346 132.775 238.294Z" fill="#67647E"/>
<path opacity="0.1" d="M153.378 245L145 241.976C145 241.976 155.673 230.594 157 236.908L153.378 245Z" fill="black"/>
<path d="M153.378 244L145 240.98C145 240.98 155.673 229.593 157 235.907L153.378 244Z" fill="#E1E7EF"/>
<path opacity="0.03" d="M153.378 244L145 240.98C145 240.98 155.673 229.593 157 235.907L153.378 244Z" fill="black"/>
<path opacity="0.1" d="M152.829 234.968C152.948 234.947 153.07 234.972 153.171 235.039L152.829 234.968Z" fill="black"/>
<path d="M153 234.008L175.332 238.785C175.332 238.785 181.473 240.138 185.908 255.422C190.343 270.707 179.834 289.442 179.834 289.442L177.515 287.49L178.677 332.14C178.677 332.14 168.37 335.993 165.097 332.608C161.823 329.222 162.159 313.409 162.159 313.409C162.159 313.409 159.022 284.174 157.039 279.361C155.055 274.547 156.094 239.918 156.094 239.918C156.094 239.918 154.247 233.741 153 234.008Z" fill="#67647E"/>
<path opacity="0.1" d="M173.303 262.207C172.977 262.499 172.602 276.064 174.01 286.389C174.874 292.678 176.207 298.897 178 305L175.91 263.622C175.91 263.622 174.287 261.309 173.303 262.207Z" fill="black"/>
<path opacity="0.1" d="M171 251C171.515 251.353 173.764 257.24 172.733 259.655C171.702 262.071 171 251 171 251Z" fill="black"/>
<path opacity="0.1" d="M150.457 201.09C149.384 198.951 147.708 197.181 145.641 196C147.176 197.105 148.416 198.575 149.252 200.28C150.179 202.175 149.919 204.074 148.079 205.15C146.239 206.226 145.664 207.957 144.755 209.954C143.921 211.765 142.994 213.697 141.302 214.707C139.123 216.036 136.254 215.549 133.982 216.7C131.927 217.789 130.729 220.024 130.95 222.356C131.095 223.235 131.313 224.1 131.599 224.943C132.114 226.767 132.345 228.66 132.285 230.556C132.293 230.68 132.269 230.804 132.216 230.916C132.082 231.094 131.871 231.195 131.65 231.188C131.083 231.233 130.514 231.126 130 230.879C130.757 231.635 131.791 232.04 132.856 231.997C133.077 232.004 133.287 231.903 133.421 231.726C133.474 231.613 133.5 231.49 133.495 231.365C133.551 229.47 133.318 227.576 132.805 225.752C132.518 224.909 132.301 224.044 132.156 223.165C131.935 220.835 133.133 218.602 135.187 217.514C137.459 216.358 140.328 216.845 142.507 215.521C144.199 214.487 145.126 212.574 145.961 210.764C146.888 208.785 147.379 207.073 149.284 205.959C151.19 204.846 151.394 202.984 150.457 201.09Z" fill="black"/>
<ellipse opacity="0.1" cx="537.5" cy="447.5" rx="19.5" ry="2.5" fill="#6C63FF"/>
<ellipse opacity="0.1" cx="386.5" cy="472" rx="13.5" ry="2" fill="#6C63FF"/>
<ellipse opacity="0.1" cx="264.5" cy="458" rx="13.5" ry="2" fill="#6C63FF"/>
<path d="M272.172 453.988C273.02 453.262 273.637 452.283 273.941 451.179C274.172 450.069 273.719 448.73 272.703 448.323C271.567 447.867 270.353 448.696 269.434 449.53C268.515 450.365 267.457 451.32 266.257 451.141C267.515 449.94 268.083 448.134 267.753 446.382C267.698 446.026 267.555 445.691 267.337 445.412C266.704 444.704 265.559 445.01 264.806 445.568C262.405 447.338 261.735 450.767 261.722 453.847C261.481 452.736 261.685 451.577 261.675 450.452C261.666 449.327 261.375 448.027 260.456 447.435C259.891 447.107 259.255 446.939 258.609 446.95C257.533 446.906 256.328 447.023 255.593 447.852C254.67 448.88 254.915 450.607 255.709 451.732C256.503 452.858 257.718 453.58 258.835 454.361C259.729 454.921 260.492 455.686 261.066 456.597C261.135 456.725 261.191 456.86 261.232 457H268.002C269.514 456.195 270.916 455.182 272.172 453.988V453.988Z" fill="#3A5459"/>
<path d="M545.154 443.988C546.007 443.264 546.63 442.284 546.941 441.179C547.172 440.069 546.719 438.754 545.704 438.323C544.568 437.867 543.354 438.696 542.435 439.53C541.516 440.365 540.459 441.32 539.254 441.141C540.516 439.943 541.084 438.135 540.75 436.382C540.7 436.025 540.556 435.689 540.334 435.412C539.706 434.704 538.561 435.01 537.808 435.568C535.408 437.338 534.738 440.767 534.724 443.847C534.48 442.736 534.687 441.577 534.678 440.452C534.669 439.327 534.373 438.027 533.459 437.435C532.895 437.107 532.258 436.939 531.612 436.95C530.532 436.906 529.332 437.023 528.593 437.852C527.67 438.88 527.914 440.607 528.713 441.732C529.512 442.858 530.721 443.58 531.839 444.361C532.732 444.921 533.495 445.686 534.069 446.597C534.136 446.726 534.192 446.861 534.235 447H540.999C542.506 446.195 543.903 445.182 545.154 443.988V443.988Z" fill="#3A5459"/>
<path d="M390.17 465.963C391.017 465.238 391.635 464.262 391.943 463.162C392.169 462.05 391.717 460.744 390.705 460.313C389.569 459.859 388.355 460.681 387.436 461.518C386.517 462.354 385.46 463.297 384.255 463.123C385.516 461.928 386.084 460.126 385.751 458.379C385.699 458.023 385.555 457.688 385.335 457.411C384.703 456.705 383.562 457.01 382.805 457.566C380.404 459.336 379.734 462.751 379.72 465.827C379.48 464.719 379.683 463.563 379.679 462.441C379.674 461.319 379.374 460.023 378.46 459.433C377.895 459.107 377.258 458.94 376.613 458.949C375.532 458.911 374.332 459.022 373.593 459.849C372.67 460.879 372.914 462.601 373.713 463.718C374.512 464.836 375.722 465.556 376.834 466.34C377.74 466.905 378.511 467.679 379.088 468.603C379.154 468.73 379.21 468.863 379.254 469H386.014C387.524 468.189 388.922 467.167 390.17 465.963V465.963Z" fill="#3A5459"/>
<path fill-rule="evenodd" clip-rule="evenodd" d="M528.967 251.598C522.818 251.476 517.391 247.11 514.316 241.815C513.511 240.55 513.005 239.118 512.835 237.627C512.857 237.287 512.913 236.951 513.004 236.623C513.202 236.126 513.358 235.614 513.473 235.092C513.499 234.883 513.499 234.672 513.473 234.463V234.435C513.623 233.299 512.957 232.205 512.123 231.421C511.677 231.002 511.179 230.645 510.681 230.287L510.681 230.287L510.68 230.287C510.247 229.976 509.813 229.665 509.414 229.313C506.771 226.989 505.969 223.262 505.918 219.713V219.525C505.929 218.907 505.956 218.288 505.983 217.668V217.668C506.023 216.766 506.062 215.863 506.054 214.962C506.075 214.098 506.037 213.234 505.941 212.375C505.688 210.225 504.873 208.037 503.185 206.667C500.956 204.857 497.956 204.918 494.947 204.98C492.017 205.039 489.079 205.1 486.833 203.432C486.488 203.177 486.164 202.882 485.84 202.589C485.123 201.938 484.411 201.292 483.487 201.085C482.47 200.841 481.416 201.169 480.427 201.498C477.071 202.606 473.331 204.066 472.019 207.333C471.632 208.303 471.5 209.333 471.369 210.363L471.369 210.363C471.247 211.328 471.124 212.293 470.791 213.206C470.498 213.995 470.065 214.714 469.63 215.435C469.368 215.869 469.106 216.304 468.874 216.755C468.364 217.656 468.115 218.682 468.157 219.717C468.105 220.253 468.18 220.794 468.377 221.295C468.609 221.893 468.982 222.426 469.464 222.849C469.288 223.221 469.068 223.571 468.808 223.891C468.358 224.443 467.781 224.912 467.206 225.38L467.206 225.38C466.685 225.804 466.166 226.226 465.743 226.708C464.093 228.623 464.154 231.229 464.97 233.482C465.447 234.801 466.146 236.051 466.845 237.3L466.845 237.3L466.845 237.301C467.34 238.186 467.835 239.07 468.25 239.979C468.686 240.918 469.038 241.998 468.583 242.946C468.364 243.406 467.977 243.787 467.589 244.17L467.589 244.17C467.422 244.334 467.256 244.498 467.102 244.669C466.354 245.51 465.885 246.563 465.762 247.683C455.718 249.979 455.713 258.058 455.713 258.058L450.296 271.738C450.296 271.738 449.428 274.038 448.421 277.076L442 275.926L446.434 283.409C445.585 286.456 444.99 289.282 445.187 290.699C445.187 290.699 443.195 300.089 446.738 301.727L454.565 305.253C454.903 305.458 455.267 305.616 455.648 305.722L455.966 305.863C456.197 305.976 456.467 305.976 456.698 305.863H456.74H456.824C456.983 305.879 457.144 305.857 457.293 305.797C457.469 305.705 457.606 305.554 457.682 305.37C457.684 305.356 457.684 305.342 457.682 305.328L460.025 304.647L462.012 306.994C462.908 307.623 463.784 308.173 464.642 308.666L461.586 339.274C461.586 339.274 461.089 379.957 459.594 389.22C459.036 392.652 459.032 394.989 459.243 396.581L459.186 396.684C459.557 399.299 460.517 399.815 460.517 399.815V399.778L460.574 399.815C461.026 398.628 461.563 397.475 462.181 396.365V397.032C462.153 400.487 462.045 405.318 461.712 408.458C461.103 413.801 463.264 431.499 463.264 431.499L464.009 447.602C464.13 450.333 463.497 453.046 462.181 455.441C460.414 458.657 458.113 463.178 457.963 465.183C457.956 465.292 457.956 465.402 457.963 465.511L454.045 470.079C454.045 470.079 452.545 472.394 455.92 473.328C457.733 473.835 460.869 473.328 463.381 472.732C465.643 472.212 467.248 470.197 467.252 467.873C467.899 465.655 468.987 463.59 470.449 461.803L471.081 465.507L475.299 466.554L475.838 456.399C476.057 455.828 476.156 455.217 476.129 454.606C476.958 447.386 474.174 448.033 474.174 448.033C474.245 448.102 474.293 448.19 474.31 448.287C474.264 448.207 474.217 448.123 474.174 448.038C472.464 444.658 473.303 439.118 473.303 439.118C473.303 439.118 475.52 423.025 476.298 418.777C476.846 415.777 476.621 405.947 476.438 400.44C476.438 400.21 476.438 399.97 476.415 399.778C482.943 399.693 490.944 399.468 496.568 398.923V399.59L495.527 437.616C495.457 440.039 494.967 442.431 494.079 444.686C494.079 444.699 494.076 444.712 494.07 444.725C494.065 444.738 494.058 444.751 494.051 444.764C494.046 444.773 494.041 444.783 494.036 444.792C494.033 444.799 494.03 444.806 494.028 444.813C492.783 447.99 492.074 451.351 491.928 454.761L491.459 466.845V467.178C490.62 467.502 489.299 468.436 489.261 471.145C489.205 475.112 496.183 473.788 496.183 473.788C503.162 473.788 503.214 466.511 503.214 466.511C503.214 466.511 503.439 459.84 503.767 455.376C504.083 451.064 502.809 451.836 502.721 451.894V451.878L502.745 451.536L503.612 438.438C503.612 438.438 510.037 416.608 511.036 412.42C511.743 409.449 511.448 400.482 511.214 395.52C511.214 395.29 511.214 395.074 511.186 394.863C513.173 394.684 514.935 394.666 515.643 394.666H515.966C515.966 394.666 515.633 359.606 514.804 346.377C513.974 333.148 512.643 321.073 509.316 317.435C507.31 315.238 504.512 308.45 502.609 303.422C506.577 305.143 510.696 306.495 514.912 307.459C525.438 309.666 523.999 300.511 523.999 300.511L522.931 283.202H523.001C522.963 278.667 522.574 274.142 521.839 269.668C521.286 266.236 520.433 262.687 519.13 259.809C519.986 259.482 520.831 259.119 521.666 258.76L521.666 258.76C521.946 258.639 522.226 258.519 522.504 258.401C525.363 257.138 528.597 255.345 529 252.256H528.859C528.912 252.04 528.948 251.82 528.967 251.598ZM502.614 453.54L502.716 452.009L502.614 464.572V453.54ZM463.718 276.639C463.746 278.428 463.676 281.526 463.573 284.958L460.231 280.489L463.582 275.043L463.718 276.639ZM509.903 292.462L509.911 292.465H509.892C509.892 292.465 509.896 292.464 509.903 292.462ZM508.252 285.939L507.783 286.409C506.485 287.7 505.331 289.129 504.343 290.671L509.903 292.462C510.082 292.42 512.365 291.83 510.455 289.7C509.542 288.586 508.893 287.279 508.556 285.878L508.252 285.939ZM508.252 285.939L508.51 285.695L508.35 285.733L508.078 285.977L508.252 285.939Z" fill="url(#paint4_linear_201_1723)"/>
<path d="M476 454L475.308 466L470.925 464.993L470 460L476 454V454Z" fill="#A27772"/>
<path opacity="0.1" d="M476 454L475.308 466L470.925 464.993L470 460L476 454V454Z" fill="black"/>
<path d="M491 467.689L497.413 469L502.156 464.852V453.171L502.26 451.575V451.528V451.528L502.284 451.191L503.147 438.223C503.147 438.223 509.56 416.608 510.556 412.474C511.263 409.529 510.969 400.648 510.737 395.742C510.642 393.728 510.556 392.385 510.556 392.385L496.403 389L496.104 399.768L495.07 437.408C494.999 439.806 494.508 442.175 493.618 444.407L493.571 444.534C492.338 447.687 491.644 451.02 491.517 454.398L491.043 466.36V466.692L491 467.689Z" fill="#CC818C"/>
<path opacity="0.1" d="M501.988 450.835V451.169V451.169L502.012 450.831L501.988 450.835Z" fill="black"/>
<path opacity="0.1" d="M491 467.725L497.323 469L502 464.965V464C501.971 464.436 501.718 464.828 501.327 465.043L501.261 465.079C499.083 466.202 496.614 466.677 494.162 466.445L491.692 466.24C491.47 466.264 491.251 466.316 491.042 466.395V466.719L491 467.725Z" fill="black"/>
<path d="M501.11 464.877L501.174 464.839C501.584 464.604 501.838 464.159 501.836 463.677L501.937 451.09C501.937 451.09 503.27 450.12 502.951 454.544C502.631 458.967 502.416 465.58 502.416 465.58C502.416 465.58 502.366 472.791 495.658 472.791C495.658 472.791 488.95 474.099 489 470.167C489.051 466.236 491.772 466.072 491.772 466.072L494.179 466.287C496.574 466.521 498.983 466.031 501.11 464.877Z" fill="#B07473"/>
<path d="M458.007 464.321C458.167 467.174 466.323 465.527 466.323 465.527L471.812 454.552C471.812 454.552 476.387 450.927 474.1 447.744C473.975 447.572 473.862 447.391 473.761 447.203V447.174V447.174C473.711 447.09 473.67 447.005 473.624 446.915V446.915C471.977 443.554 472.787 438.041 472.787 438.041C472.787 438.041 474.918 422.033 475.669 417.796C476.195 414.806 475.98 405.018 475.801 399.538C475.733 397.264 475.669 395.729 475.669 395.729L462.119 392C462.119 392 462.119 393.737 462.119 396.157C462.092 399.594 461.991 404.406 461.662 407.532C461.076 412.857 463.158 430.475 463.158 430.475L463.876 446.511C463.978 449.225 463.356 451.916 462.078 454.293C460.376 457.495 458.162 462 458.007 463.996C457.998 464.105 457.998 464.213 458.007 464.321V464.321Z" fill="#CC818C"/>
<path opacity="0.1" d="M458 464.303C458.163 467.187 466.449 465.522 466.449 465.522L472.026 454.429C472.026 454.429 476.673 450.764 474.349 447.547C474.223 447.373 474.108 447.19 474.005 447C473.931 448.68 472.147 452.872 472.147 452.872C472.147 452.872 467.541 462.309 466.105 464.47C464.669 466.63 458.274 464.07 458.037 463.994C458.017 464.096 458.004 464.199 458 464.303Z" fill="black"/>
<path d="M473.94 447.014C473.94 447.014 476.657 446.385 475.85 453.456V453.456C475.91 455.092 475.087 456.635 473.694 457.499C471.751 458.721 468.746 461.347 467.229 466.454V466.454C467.232 468.725 465.668 470.699 463.454 471.22C461.001 471.789 457.94 472.294 456.169 471.798C452.872 470.872 454.314 468.617 454.314 468.617L458.098 464.134C458.098 464.134 464.693 466.728 466.153 464.621C467.614 462.514 472.182 453.335 472.182 453.335C472.182 453.335 474.765 447.607 473.94 447.014Z" fill="#B07473"/>
<path opacity="0.1" d="M496.286 390L496 401C499.63 400.632 502.19 400.115 502.635 399.393C503.583 397.839 507.05 397.179 510 396.911C509.909 394.854 509.828 393.482 509.828 393.482L496.286 390Z" fill="black"/>
<path opacity="0.1" d="M462 398.385C462.359 397.615 462.883 396.945 463.53 396.428C465.004 395.559 464.845 401.985 464.845 401.985C464.845 401.985 469.735 402.035 476 401.951C475.93 399.547 475.864 397.933 475.864 397.933L462.005 394C462.005 394 462.023 395.832 462 398.385Z" fill="black"/>
<path d="M460.464 399.997C460.464 399.997 462.103 395.529 463.573 394.708C465.044 393.887 464.889 399.988 464.889 399.988C464.889 399.988 500.915 400.318 502.718 397.511C504.521 394.703 515 394.873 515 394.873C515 394.873 514.672 359.885 513.853 346.682C513.033 333.479 511.722 321.433 508.449 317.804C506.328 315.445 503.299 307.852 501.454 302.785C500.438 300.015 499.768 298 499.768 298L465.381 299.982L465.1 302.785L461.447 339.59C461.447 339.59 460.979 380.17 459.481 389.428C457.983 398.686 460.464 399.997 460.464 399.997Z" fill="#444053"/>
<g opacity="0.1">
<path d="M499.94 397.142C501.732 394.35 512.181 394.515 512.181 394.515C512.181 394.515 511.854 359.661 511.038 346.509C510.221 333.357 508.914 321.357 505.652 317.742C503.538 315.392 500.519 307.829 498.68 302.78C497.831 300.463 497.224 298.677 497.052 298.165L499.712 298.014C499.712 298.014 500.379 300.021 501.392 302.78C503.258 307.829 506.25 315.401 508.364 317.742C511.63 321.357 512.932 333.357 513.749 346.509C514.566 359.661 514.874 394.491 514.874 394.491C514.874 394.491 504.43 394.322 502.638 397.142C501.102 399.53 474.68 399.638 467.008 399.619C476.845 399.572 498.54 399.276 499.94 397.142Z" fill="black"/>
<path d="M460.913 394.322C461.576 393.951 461.907 394.98 462.071 396.202C461.479 397.286 460.963 398.411 460.526 399.568C460.526 399.568 459.593 399.055 459.219 396.456C459.737 395.53 460.339 394.646 460.913 394.322Z" fill="black"/>
</g>
<path d="M470.775 212.992C468.425 216.28 470.803 220.945 468.281 224.138C467.448 225.194 466.167 225.947 465.297 226.98C463.686 228.903 463.751 231.508 464.542 233.767C465.334 236.027 466.764 238.078 467.745 240.276C468.17 241.223 468.513 242.298 468.073 243.246C467.768 243.904 467.148 244.401 466.629 244.974C465.01 246.826 464.963 249.403 465.833 251.582C466.703 253.761 468.374 255.651 469.998 257.489C470.646 258.218 471.465 259.019 472.543 259C473.111 258.952 473.66 258.767 474.144 258.46C477.982 256.391 480.894 252.888 482.274 248.678C483.441 244.718 483.195 240.463 481.58 236.671C480.192 233.322 477.934 230.111 477.915 226.568C477.915 223.759 479.327 221.078 479.577 218.279C479.882 214.882 477.915 209.483 473.908 208C474.172 210.193 471.988 211.325 470.775 212.992Z" fill="#585268"/>
<path opacity="0.1" d="M470.775 212.992C468.425 216.28 470.803 220.945 468.281 224.138C467.448 225.194 466.167 225.947 465.297 226.98C463.686 228.903 463.751 231.508 464.542 233.767C465.334 236.027 466.764 238.078 467.745 240.276C468.17 241.223 468.513 242.298 468.073 243.246C467.768 243.904 467.148 244.401 466.629 244.974C465.01 246.826 464.963 249.403 465.833 251.582C466.703 253.761 468.374 255.651 469.998 257.489C470.646 258.218 471.465 259.019 472.543 259C473.111 258.952 473.66 258.767 474.144 258.46C477.982 256.391 480.894 252.888 482.274 248.678C483.441 244.718 483.195 240.463 481.58 236.671C480.192 233.322 477.934 230.111 477.915 226.568C477.915 223.759 479.327 221.078 479.577 218.279C479.882 214.882 477.915 209.483 473.908 208C474.172 210.193 471.988 211.325 470.775 212.992Z" fill="black"/>
<path opacity="0.1" d="M497 332C492.256 332.248 487.791 334.256 483.639 336.53C479.486 338.805 475.469 341.401 471 343" fill="black"/>
<path opacity="0.1" d="M494 343C489.364 343.468 485.043 345.676 481.828 349.221C480.691 350.489 479.711 351.912 478.523 353.127C476.702 354.988 474.455 356.322 472 357" fill="black"/>
<path opacity="0.1" d="M496 352C492.195 353.053 488.751 355.124 486.041 357.989C485.31 358.775 484.635 359.621 483.913 360.402C479.962 364.61 474.385 366.877 469 369" fill="black"/>
<path d="M494.774 233.229C494.88 237.031 495.206 240.824 495.75 244.588C496.187 247.272 496.81 249.66 497.703 250.722C500.301 253.83 485.022 258 485.022 258L476 250.988C476 250.988 483.154 244.364 479.821 237.899C476.488 231.434 494.774 233.229 494.774 233.229Z" fill="#CC818C"/>
<path opacity="0.1" d="M465 303H501C499.994 300.106 499.331 298 499.331 298L465.278 300.071L465 303Z" fill="black"/>
<path d="M463.076 302H501.845C500.757 298.079 501.845 294.445 503.4 291.657C504.487 289.698 505.855 287.911 507.459 286.353L507.726 286.114L521.271 283.09L522 282.931C522 282.931 522.107 258.158 513.396 254.759C504.685 251.36 499.453 246.766 499.453 246.766L487.477 250.49L478.654 246C475.823 249.07 468.308 247.881 468.308 247.881C456 249.291 456 258.624 456 258.624C456 258.624 463.189 275.507 463.735 275.507C464.282 275.507 463.076 302 463.076 302Z" fill="#67647E"/>
<path opacity="0.1" d="M476 286C476 286 467.792 284.181 465 281Z" fill="black"/>
<path opacity="0.1" d="M516.08 277L507 284.288C507.066 284.864 507.166 285.436 507.301 286L507.565 285.769L521 282.857L516.08 277Z" fill="black"/>
<path opacity="0.1" d="M491 299.446C491 299.446 493.024 300.551 496.122 302H501.432C500.335 298.189 501.432 294.657 503 291.947L493.617 289C496.819 291.879 491 299.446 491 299.446Z" fill="black"/>
<path d="M461.501 255L456.003 257.982L450.613 271.687C450.613 271.687 445.006 286.719 445.553 290.702C445.553 290.702 443.577 300.093 447.095 301.752L456.272 305.924C456.603 306.075 456.994 305.997 457.242 305.73C457.491 305.463 457.543 305.066 457.371 304.743C456.064 302.254 454.631 298.367 456.899 296.21L454.258 290.687L463.817 275.005L467 269.611L461.501 255Z" fill="#67647E"/>
<path opacity="0.1" d="M473.056 282.836C473.525 284.825 475.128 287.881 480.418 289.035L486.242 293.93L492.417 296.827L494.931 298L496 290.063L493.576 288.697L490.762 287.108C490.762 287.108 484.389 275.213 474.294 280.238C473.338 280.696 472.823 281.778 473.056 282.836V282.836Z" fill="black"/>
<path d="M474.055 281.83C474.524 283.819 476.127 286.875 481.417 288.029L487.241 292.93L493.417 295.827L495.931 297L497 289.062L494.576 287.701L491.762 286.107C491.762 286.107 485.389 274.215 475.293 279.237C474.339 279.694 473.824 280.773 474.055 281.83V281.83Z" fill="#CC818C"/>
<circle opacity="0.1" cx="485" cy="229" r="14" fill="black"/>
<circle cx="485" cy="228" r="14" fill="#CC818C"/>
<path opacity="0.1" d="M493.373 258L489 249.989C489 249.989 495.433 247.556 495.899 244.731C496.365 241.906 502.059 248.039 500.825 250.071C499.591 252.104 493.373 258 493.373 258Z" fill="black"/>
<path d="M493.373 258L489 249.989C489 249.989 495.433 247.556 495.899 244.731C496.365 241.905 502.059 248.043 500.825 250.071C499.591 252.099 493.373 258 493.373 258Z" fill="#67647E"/>
<path d="M458.768 279.056L482 310.691C482 310.691 473.442 315.399 461.631 306.957L456.52 300.813L442 276L458.768 279.056Z" fill="#F6F8FB"/>
<path d="M454.586 295.945L456.774 295.89C456.774 295.89 470.138 283.504 473.416 289.77C476.695 296.036 465.095 301.881 465.095 301.881L461.567 303.716L456.942 305L454 301.229L454.586 295.945Z" fill="#CC818C"/>
<path opacity="0.1" d="M457.762 303.267C457.961 304.003 458.152 304.815 457.819 305.5C457.742 305.684 457.602 305.836 457.424 305.927C457.274 305.99 457.11 306.012 456.949 305.994C455.804 305.896 454.738 305.368 453.968 304.516C453.207 303.67 452.557 302.732 452.032 301.723C451.443 300.701 450.83 299.561 451.044 298.397C451.277 297.124 452.413 296.24 453.497 295.546C455.689 294.097 455.741 295.784 456.24 297.646L457.762 303.267Z" fill="black"/>
<path d="M456.762 303.267C456.961 304.003 457.152 304.815 456.819 305.5C456.742 305.684 456.602 305.836 456.424 305.927C456.274 305.99 456.11 306.012 455.949 305.994C454.804 305.896 453.738 305.368 452.968 304.516C452.207 303.67 451.557 302.732 451.032 301.723C450.443 300.701 449.83 299.561 450.044 298.397C450.277 297.124 451.413 296.24 452.497 295.546C454.689 294.097 454.741 295.784 455.24 297.646L456.762 303.267Z" fill="#67647E"/>
<path opacity="0.1" d="M463 275.615L464 274L463.124 277L463 275.615V275.615Z" fill="black"/>
<path opacity="0.1" d="M493 295.864L495.806 297L497 289.318L494.293 288C496.141 289.897 494.524 293.421 493 295.864Z" fill="black"/>
<path opacity="0.1" d="M503 286.947C503 286.947 494.573 287.504 491 285Z" fill="black"/>
<g opacity="0.1">
<path d="M501.829 292.318C502.925 290.374 504.303 288.601 505.918 287.054C506.306 286.812 506.708 286.594 507.122 286.401L519.814 283.815L520.547 283.657C520.547 283.657 520.66 259.068 511.888 255.694C506.973 253.833 502.364 251.255 498.214 248.045L499.177 247.751C499.177 247.751 504.438 252.32 513.205 255.685C521.972 259.049 521.873 283.657 521.873 283.657H520.557L507.564 286.125L506.83 286.821C505.201 288.438 503.804 290.271 502.679 292.267C500.964 295.432 500.574 299.14 501.594 302.589H500.249C499.168 298.697 500.282 295.09 501.829 292.318Z" fill="black"/>
<path d="M467.188 248.923C467.4 248.895 467.602 248.862 467.818 248.839C468.708 248.963 469.604 249.037 470.502 249.058C469.396 249.088 468.288 249.043 467.188 248.923H467.188Z" fill="black"/>
<path d="M485.794 251.447L477.765 247.429C477.931 247.299 478.089 247.157 478.235 247.005L486.612 251.205L485.794 251.447Z" fill="black"/>
</g>
<path d="M516.576 276L521.86 282.645L522.937 300.683C522.937 300.683 524.324 309.868 514.098 307.656C503.872 305.444 492 298.58 492 298.58C492 298.58 497.714 290.72 494.589 287.734L509.248 292.604C509.248 292.604 511.726 292.049 509.785 289.837C507.843 287.625 507.501 283.638 507.501 283.638L516.576 276Z" fill="#67647E"/>
<path opacity="0.1" d="M519 295L522 298C520.427 297.58 519.264 296.417 519 295V295Z" fill="black"/>
<path opacity="0.1" d="M514 295L519 300.49L516.503 301L514 295V295Z" fill="black"/>
<path opacity="0.1" d="M468.235 222.378C467.728 221.15 468.113 219.731 468.704 218.55C469.296 217.369 470.145 216.296 470.581 215.045C471.262 213.178 471.051 211.087 471.792 209.248C473.092 206.027 476.785 204.58 480.098 203.492C481.074 203.17 482.116 202.844 483.12 203.082C484.443 203.399 485.33 204.608 486.405 205.415C490.9 208.748 498.207 205.079 502.552 208.608C504.218 209.957 505.025 212.123 505.274 214.242C505.522 216.361 505.274 218.513 505.25 220.651C505.18 224.385 505.879 228.483 508.699 230.961C509.549 231.708 510.548 232.273 511.374 233.043C512.2 233.813 512.852 234.91 512.707 236.016C512.59 236.53 512.433 237.034 512.238 237.524C511.674 239.475 512.51 241.543 513.528 243.303C516.569 248.53 521.923 252.839 528 252.96C527.592 256.008 524.41 257.777 521.585 259.028C517.986 260.62 514.204 262.183 510.271 261.983C506.339 261.782 502.238 259.28 501.538 255.448C501.299 254.127 501.332 252.507 500.178 251.812C499.483 251.392 498.582 251.499 497.831 251.182C496.747 250.715 496.208 249.529 495.851 248.409C495.118 246.106 494.725 243.71 494.683 241.296C494.636 238.434 495.02 235.312 493.387 232.955C491.876 230.775 489.192 229.687 487.451 227.661C485.846 225.794 484.096 223.563 481.464 223.209C477.925 222.7 470.389 227.624 468.235 222.378Z" fill="black"/>
<path d="M468.235 221.378C467.728 220.15 468.113 218.731 468.704 217.55C469.296 216.369 470.145 215.296 470.581 214.045C471.262 212.178 471.051 210.087 471.792 208.248C473.092 205.027 476.785 203.58 480.098 202.492C481.074 202.17 482.116 201.844 483.12 202.082C484.443 202.399 485.33 203.608 486.405 204.415C490.9 207.753 498.207 204.079 502.552 207.608C504.218 208.962 505.025 211.123 505.274 213.242C505.522 215.361 505.274 217.513 505.25 219.651C505.18 223.385 505.879 227.483 508.699 229.961C509.549 230.708 510.548 231.273 511.374 232.043C512.2 232.813 512.852 233.91 512.707 235.016C512.589 235.532 512.433 236.037 512.238 236.529C511.674 238.475 512.51 240.548 513.528 242.303C516.569 247.53 521.923 251.839 528 251.96C527.592 255.008 524.41 256.777 521.585 258.028C517.986 259.624 514.204 261.183 510.271 260.982C506.339 260.782 502.238 258.28 501.538 254.424C501.299 253.104 501.332 251.484 500.178 250.788C499.483 250.368 498.582 250.476 497.831 250.158C496.747 249.692 496.208 248.506 495.851 247.386C495.118 245.083 494.725 242.687 494.683 240.272C494.636 237.411 495.02 234.288 493.387 231.931C491.876 229.751 489.192 228.664 487.451 226.638C485.846 224.771 484.096 222.54 481.464 222.185C477.925 221.723 470.389 226.624 468.235 221.378Z" fill="#585268"/>
<path opacity="0.1" d="M477.815 258L486 251.427C486 251.427 480.398 248.422 479.728 245.858C479.059 243.294 474.577 247.074 475.032 249.375C475.488 251.675 477.815 258 477.815 258Z" fill="black"/>
<path d="M478.815 257L487 250.427C487 250.427 481.398 247.422 480.728 244.858C480.059 242.294 475.577 246.074 476.032 248.375C476.488 250.675 478.815 257 478.815 257Z" fill="#67647E"/>
<circle opacity="0.1" cx="486.5" cy="255.5" r="0.5" fill="black"/>
<circle opacity="0.1" cx="486.5" cy="259.5" r="0.5" fill="black"/>
<circle opacity="0.1" cx="486.5" cy="262.5" r="0.5" fill="black"/>
<g opacity="0.1">
<path d="M471.655 211.571C472.298 209.793 472.161 207.802 472.762 206.014C472.486 206.411 472.256 206.837 472.076 207.285C471.329 209.153 471.537 211.287 470.856 213.178C470.856 213.212 470.823 213.25 470.809 213.287C471.143 212.742 471.426 212.168 471.655 211.571V211.571Z" fill="black"/>
<path d="M523.099 256.249C519.472 257.871 515.66 259.454 511.693 259.25C507.726 259.047 503.602 256.505 502.898 252.589C502.657 251.247 502.69 249.602 501.526 248.895C500.827 248.469 499.919 248.578 499.162 248.255C498.065 247.781 497.526 246.577 497.167 245.439C496.427 243.097 496.031 240.66 495.989 238.203C495.942 235.297 496.325 232.125 494.684 229.731C493.161 227.516 490.457 226.412 488.702 224.354C487.08 222.457 485.321 220.191 482.664 219.831C479.023 219.356 471.424 224.335 469.258 219.006C468.911 217.998 468.96 216.896 469.395 215.924C469.239 216.189 469.088 216.455 468.951 216.725C468.336 217.925 467.948 219.366 468.478 220.613C470.648 225.942 478.242 220.94 481.888 221.438C484.541 221.798 486.305 224.079 487.927 225.961C489.681 228 492.381 229.124 493.904 231.343C495.549 233.713 495.166 236.909 495.214 239.811C495.253 242.265 495.648 244.701 496.386 247.041C496.746 248.175 497.29 249.412 498.382 249.858C499.138 250.175 500.046 250.071 500.746 250.498C501.905 251.2 501.876 252.869 502.113 254.187C502.817 258.103 506.95 260.649 510.913 260.853C514.876 261.057 518.692 259.469 522.314 257.847C524.924 256.685 527.832 255.069 528.612 252.423C527.345 254.163 525.132 255.344 523.099 256.249Z" fill="black"/>
</g>
<path opacity="0.1" d="M1444.77 128.65C1441.38 130.059 1437.91 131.867 1436.04 135.037C1434.07 138.386 1434.31 142.544 1434.67 146.419C1437.87 180.022 1446.31 215.759 1431.75 246.197C1424.68 260.964 1412.86 272.797 1403.45 286.208C1394.05 299.618 1386.95 316.362 1391.32 332.138C1396.65 351.416 1416.55 362.103 1429.96 376.938C1438.73 386.638 1444.89 398.424 1453.08 408.628C1461.27 418.832 1472.49 427.821 1485.57 428.42C1504.37 429.288 1519.67 413.017 1538.11 409.248C1557 405.389 1576.02 415.209 1591.33 426.964C1606.65 438.719 1620.58 452.96 1638.43 460.299C1658.13 468.41 1680.35 467.17 1701.09 472.043C1719.98 476.485 1737.37 485.932 1756.12 490.968C1774.88 496.004 1796.86 495.699 1811.38 482.836C1830.32 466.013 1828.83 436.048 1840.92 413.795C1852.16 393.12 1874.15 380.776 1888.95 362.497C1915.58 329.599 1914.71 279.316 1892.1 243.537C1869.48 207.757 1828.52 186.093 1786.63 180.453C1767.75 177.913 1748.3 178.26 1730.14 172.483C1681.53 157.027 1652.6 101.65 1602.98 90.1267C1571.43 82.8142 1540.75 95.4784 1513.89 111.065C1490.56 124.597 1469.05 118.562 1444.77 128.65Z" fill="#88A4AA"/>
<path d="M1492 237C1492 237 1474 253.789 1454.69 254.29C1446.58 254.449 1438.74 257.206 1432.35 262.145C1429.33 264.506 1426.54 267.135 1424 270" stroke="#3A5459" stroke-width="2"/>
<path d="M1412.26 270.737C1414.9 269.402 1425 270.289 1425 270.289C1425 270.289 1419.76 278.917 1417.12 280.253C1415.39 281.27 1413.24 281.247 1411.53 280.193C1409.83 279.138 1408.86 277.229 1409.02 275.24C1409.17 273.252 1410.43 271.515 1412.28 270.737H1412.26Z" fill="#88A4AA"/>
<path d="M1422.48 256.009C1425.32 256.3 1433 262.125 1433 262.125C1433 262.125 1424.21 266.272 1421.4 265.986C1418.66 265.585 1416.74 263.166 1417.03 260.496C1417.32 257.826 1419.72 255.849 1422.48 256.009V256.009Z" fill="#88A4AA"/>
<path d="M1447.07 243.897C1449.38 245.643 1453 255 1453 255C1453 255 1443.23 254.236 1440.93 252.495C1438.77 250.701 1438.37 247.479 1440.01 245.179C1441.65 242.879 1444.76 242.314 1447.07 243.897V243.897Z" fill="#88A4AA"/>
<path d="M1468.05 238.701C1470.7 240.027 1476 248.67 1476 248.67C1476 248.67 1465.89 249.621 1463.23 248.294C1461.41 247.499 1460.17 245.765 1460.02 243.785C1459.86 241.804 1460.82 239.901 1462.5 238.837C1464.18 237.772 1466.31 237.72 1468.05 238.701Z" fill="#88A4AA"/>
<path d="M1438.81 272.132C1439.71 269.413 1437.08 260 1437.08 260C1437.08 260 1429.23 266.358 1428.33 269.077C1427.64 270.865 1428.05 272.866 1429.4 274.283C1430.75 275.7 1432.82 276.303 1434.79 275.854C1436.76 275.404 1438.31 273.974 1438.81 272.132V272.132Z" fill="#88A4AA"/>
<path d="M1462.99 265.589C1462.99 262.611 1457.46 254 1457.46 254C1457.46 254 1451.99 262.632 1452 265.621C1452.01 268.601 1454.48 271.009 1457.52 271C1460.55 270.991 1463.01 268.568 1463 265.589H1462.99Z" fill="#88A4AA"/>
<path d="M1484.96 256.897C1485.42 254.067 1481.8 245 1481.8 245C1481.8 245 1475.49 252.345 1475.04 255.175C1474.72 257.933 1476.55 260.465 1479.2 260.927C1481.85 261.389 1484.39 259.617 1484.96 256.902V256.897Z" fill="#88A4AA"/>
<path d="M1515 192C1515 192 1493.61 180.192 1487.25 162.103C1484.64 154.496 1479.64 147.947 1473.01 143.439C1469.85 141.322 1466.5 139.502 1463 138" stroke="#3A5459" stroke-width="2"/>
<path d="M1458.77 126.363C1460.81 128.403 1463 138 1463 138C1463 138 1453.38 135.756 1451.35 133.71C1449.48 131.643 1449.56 128.478 1451.55 126.517C1453.53 124.556 1456.7 124.488 1458.77 126.363Z" fill="#88A4AA"/>
<path d="M1475.93 131.53C1476.5 134.443 1473.27 144 1473.27 144C1473.27 144 1466.73 136.667 1466.16 133.747C1465.7 131.824 1466.25 129.784 1467.61 128.435C1468.96 127.086 1470.89 126.648 1472.63 127.293C1474.37 127.939 1475.64 129.564 1475.94 131.524L1475.93 131.53Z" fill="#88A4AA"/>
<path d="M1495.72 151.924C1494.84 154.674 1487.55 161 1487.55 161C1487.55 161 1485.33 151.361 1486.2 148.606C1487.08 145.847 1489.92 144.353 1492.56 145.27C1495.19 146.186 1496.62 149.165 1495.74 151.924H1495.72Z" fill="#88A4AA"/>
<path d="M1506.89 169.419C1506.43 172.338 1499.68 180 1499.68 180C1499.68 180 1495.58 170.726 1496.04 167.808C1496.24 165.843 1497.54 164.149 1499.42 163.4C1501.29 162.651 1503.44 162.969 1505 164.227C1506.57 165.484 1507.29 167.478 1506.89 169.414V169.419Z" fill="#88A4AA"/>
<path d="M1466.46 151.989C1469.43 151.956 1478 146.357 1478 146.357C1478 146.357 1469.31 140.967 1466.33 141C1463.35 141.035 1460.97 143.526 1461 146.563C1461.03 149.601 1463.48 152.035 1466.46 152V151.989Z" fill="#88A4AA"/>
<path d="M1478.99 173.656C1481.71 172.715 1488 164.763 1488 164.763C1488 164.763 1478.49 162.272 1475.77 163.212C1473.94 163.765 1472.54 165.332 1472.13 167.297C1471.71 169.262 1472.34 171.311 1473.77 172.638C1475.2 173.964 1477.2 174.357 1478.99 173.661V173.656Z" fill="#88A4AA"/>
<path d="M1495.36 191.897C1498.29 191.457 1506 184.749 1506 184.749C1506 184.749 1496.73 180.593 1493.81 181.033C1491.85 181.24 1490.16 182.533 1489.41 184.4C1488.65 186.267 1488.96 188.407 1490.2 189.974C1491.45 191.541 1493.43 192.281 1495.37 191.902L1495.36 191.897Z" fill="#88A4AA"/>
<circle cx="1664" cy="290" r="190" fill="url(#paint5_linear_201_1723)"/>
<circle cx="1664" cy="290" r="187" fill="#3A5459"/>
<circle cx="1664.5" cy="289.5" r="148.5" fill="#DDE1EC"/>
<path fill-rule="evenodd" clip-rule="evenodd" d="M1660 141.001V289C1660 289 1767.03 220.883 1786 203.18C1740.57 140.787 1660 141.001 1660 141.001Z" fill="#FF715B"/>
<g opacity="0.1">
<path d="M1584.05 256.624L1588.92 247.307L1663.44 286.467L1658.57 295.784L1584.05 256.624Z" fill="black"/>
<ellipse cx="1663.62" cy="291.914" rx="15.7215" ry="15.7759" fill="black"/>
</g>
<path d="M1589.23 245.362L1663.89 284.474L1659.02 293.78L1584.36 254.667L1589.23 245.362Z" fill="#3A5459"/>
<circle cx="1664" cy="290" r="16" fill="#3A5459"/>
<path opacity="0.05" d="M1773 219C1773 219 1771.44 223.56 1772.22 225Z" fill="black"/>
<path opacity="0.05" d="M1697.09 217C1697.09 217 1698.92 221.56 1697.09 223Z" fill="black"/>
<path d="M1895.85 322C1895.85 322 1873.86 343.911 1886.28 376.423C1898.69 408.934 1865 463 1865 463C1865 463 1865.36 462.948 1866.05 462.832C1911.22 454.888 1933.65 403.424 1908.54 365.189C1899.18 350.971 1891.52 334.296 1895.85 322Z" fill="#88A4AA"/>
<path opacity="0.1" d="M1895.85 322C1895.85 322 1873.86 343.912 1886.28 376.425C1898.69 408.937 1865 463 1865 463C1865 463 1865.36 462.948 1866.05 462.832C1911.22 454.888 1933.65 403.422 1908.54 365.186C1899.18 350.972 1891.52 334.297 1895.85 322Z" fill="#3A5459"/>
<path d="M1895.9 322C1895.9 322 1883.47 348.855 1895.9 370.767C1908.34 392.678 1898.01 454.165 1865 463" stroke="#535461"/>
<path d="M1935 410.274C1935 410.274 1909.79 406.291 1907.49 428.707C1905.2 451.123 1859 454.231 1859 454.231L1859.87 454.802C1897.99 479.639 1934.45 470.621 1928.95 437.641C1926.92 425.385 1927.09 413.072 1935 410.274Z" fill="#88A4AA"/>
<path d="M1935 410C1935 410 1915.42 414.253 1917.04 431.882C1918.66 449.51 1887.99 470.639 1859 453.889" stroke="#535461"/>
<rect opacity="0.184245" x="1670.51" y="283.063" width="118.435" height="10.5172" transform="rotate(-37 1670.51 283.063)" fill="#3A5459"/>
<rect x="1666.95" y="279.678" width="119" height="11" transform="rotate(-37 1666.95 279.678)" fill="#3A5459"/>
<path d="M1913 455.289C1913 455.289 1893.13 451.361 1887.83 446.12C1882.53 440.88 1858.69 431.716 1856.05 438.283C1853.4 444.851 1820.29 467.097 1842.8 471.026C1865.31 474.955 1895.78 476.251 1902.4 473.638C1909.02 471.026 1913 455.289 1913 455.289Z" fill="#3A5459"/>
<path opacity="0.2" d="M1843.7 468.541C1865.93 472.503 1896 473.81 1902.54 471.176C1907.52 469.163 1910.98 459.5 1912.35 455L1913 455.137C1913 455.137 1909.08 470.986 1902.54 473.626C1896 476.266 1865.92 474.948 1843.7 470.991C1837.28 469.848 1835.44 467.161 1836.14 463.762C1836.68 465.981 1838.92 467.688 1843.7 468.541Z" fill="black"/>
<rect opacity="0.396029" x="1660" y="168" width="8" height="131" fill="#535461"/>
<defs>
<linearGradient id="paint0_linear_201_1723" x1="323.998" y1="238" x2="323.998" y2="153" gradientUnits="userSpaceOnUse">
<stop stop-color="#808080" stop-opacity="0.25"/>
<stop offset="0.54" stop-color="#808080" stop-opacity="0.12"/>
<stop offset="1" stop-color="#808080" stop-opacity="0.1"/>
</linearGradient>
<linearGradient id="paint1_linear_201_1723" x1="422" y1="348" x2="422" y2="268" gradientUnits="userSpaceOnUse">
<stop stop-color="#808080" stop-opacity="0.25"/>
<stop offset="0.54" stop-color="#808080" stop-opacity="0.12"/>
<stop offset="1" stop-color="#808080" stop-opacity="0.1"/>
</linearGradient>
<linearGradient id="paint2_linear_201_1723" x1="122.66" y1="224.56" x2="122.66" y2="224.47" gradientUnits="userSpaceOnUse">
<stop stop-color="#808080" stop-opacity="0.25"/>
<stop offset="0.54" stop-color="#808080" stop-opacity="0.12"/>
<stop offset="1" stop-color="#808080" stop-opacity="0.1"/>
</linearGradient>
<linearGradient id="paint3_linear_201_1723" x1="196.995" y1="476" x2="196.995" y2="192.015" gradientUnits="userSpaceOnUse">
<stop stop-color="#808080" stop-opacity="0.25"/>
<stop offset="0.54" stop-color="#808080" stop-opacity="0.12"/>
<stop offset="1" stop-color="#808080" stop-opacity="0.1"/>
</linearGradient>
<linearGradient id="paint4_linear_201_1723" x1="528.969" y1="473.98" x2="528.969" y2="200.981" gradientUnits="userSpaceOnUse">
<stop stop-color="#808080" stop-opacity="0.25"/>
<stop offset="0.54" stop-color="#808080" stop-opacity="0.12"/>
<stop offset="1" stop-color="#808080" stop-opacity="0.1"/>
</linearGradient>
<linearGradient id="paint5_linear_201_1723" x1="1854" y1="480" x2="1854" y2="100" gradientUnits="userSpaceOnUse">
<stop stop-color="#808080" stop-opacity="0.25"/>
<stop offset="0.54" stop-color="#808080" stop-opacity="0.12"/>
<stop offset="1" stop-color="#808080" stop-opacity="0.1"/>
</linearGradient>
</defs>
</svg>
