<svg width="86" height="86" viewBox="0 0 86 86" fill="none" xmlns="http://www.w3.org/2000/svg">
<rect width="86" height="86" fill="#3A5459"/>
<path fill-rule="evenodd" clip-rule="evenodd" d="M68.5109 27.0878L27.5428 16.1225C25 15.442 25 17.8181 25 17.8181V33.7009V51.6827V67.5654C25 67.5654 25 69.9416 27.5428 69.261L68.5109 58.2958C68.5109 58.2958 71 57.5949 71 55.0281V51.6827V33.7009V30.3554C71 27.7887 68.5109 27.0878 68.5109 27.0878Z" fill="white"/>
<path fill-rule="evenodd" clip-rule="evenodd" d="M58.8239 35.5685C59.2003 35.9169 59.6882 36.0912 60.2876 36.0912C60.887 36.0912 61.3749 35.9135 61.7512 35.558C62.1276 35.2025 62.3158 34.753 62.3158 34.2094C62.3158 33.7075 62.1276 33.2894 61.7512 32.9548C61.3749 32.6203 60.887 32.453 60.2876 32.453C59.6882 32.453 59.2003 32.6272 58.8239 32.9757C58.4476 33.3242 58.2594 33.7563 58.2594 34.2721C58.2594 34.7879 58.4476 35.22 58.8239 35.5685ZM38.3609 37.4921C39.7549 37.4921 40.8805 37.9103 41.7377 38.7467C42.595 39.583 43.0236 40.8236 43.0236 42.4685V48.9085H39.7618V42.9703C39.7618 42.0782 39.5667 41.4126 39.1764 40.9735C38.7861 40.5344 38.2215 40.3148 37.4827 40.3148C36.6603 40.3148 36.0052 40.5692 35.5173 41.078C35.0294 41.5868 34.7855 42.343 34.7855 43.3467V48.9085H31.5236V37.6594H34.6391V38.9767C35.0712 38.5027 35.6079 38.1368 36.2491 37.8789C36.8903 37.621 37.5942 37.4921 38.3609 37.4921ZM51.7497 37.4921C52.7952 37.4921 53.7465 37.7326 54.6038 38.2135C55.4611 38.6944 56.1336 39.3704 56.6215 40.2417C57.1094 41.1129 57.3533 42.127 57.3533 43.2839C57.3533 44.4409 57.1094 45.455 56.6215 46.3262C56.1336 47.1974 55.4611 47.8735 54.6038 48.3544C53.7465 48.8353 52.7952 49.0757 51.7497 49.0757C50.3139 49.0757 49.1849 48.6227 48.3624 47.7167V52.9648H45.1006V37.6594H48.2161V38.9557C49.0246 37.98 50.2024 37.4921 51.7497 37.4921ZM53.2447 45.5526C52.708 46.1171 52.0215 46.3994 51.1852 46.3994C50.3488 46.3994 49.6623 46.1171 49.1256 45.5526C48.5889 44.988 48.3206 44.2318 48.3206 43.2839C48.3206 42.3361 48.5889 41.5799 49.1256 41.0153C49.6623 40.4508 50.3488 40.1685 51.1852 40.1685C52.0215 40.1685 52.708 40.4508 53.2447 41.0153C53.7814 41.5799 54.0497 42.3361 54.0497 43.2839C54.0497 44.2318 53.7814 44.988 53.2447 45.5526ZM58.6567 37.6594H61.9185V48.9085H58.6567V37.6594Z" fill="#3A5459"/>
</svg>
