<svg width="621" height="283" viewBox="0 0 621 283" fill="none" xmlns="http://www.w3.org/2000/svg">
<g id="npi-logo">
<rect width="621" height="283" fill="#F3F5F5"/>
<g id="Group 19">
<path id="wedge" fill-rule="evenodd" clip-rule="evenodd" d="M61.4879 36.4287C43.6647 29.9979 41 47.3611 41 47.3611V125.691V156.691V235.02C41 235.02 43.6647 252.383 61.4879 245.953C79.3112 239.522 210.717 203.741 210.717 203.741C210.717 203.741 223.998 197.685 223.998 185.549V156.691V125.691V96.8322C223.998 84.6964 210.717 78.6399 210.717 78.6399C210.717 78.6399 79.3112 42.8595 61.4879 36.4287Z" fill="#3A5459"/>
<path id="npi" fill-rule="evenodd" clip-rule="evenodd" d="M177.759 120.915H190.998V109.691H177.759V120.915ZM76.9984 170.387H89.5762V145.527C89.5762 139.54 92.6379 136.464 97.4373 136.464C102.237 136.464 105.05 139.54 105.05 145.527V170.387H117.628V141.536C117.628 131.309 112.084 124.99 102.568 124.99C96.1961 124.99 92.4724 128.399 89.5762 132.14V125.821H76.9984V170.387ZM125.103 183.691H137.681V164.567C140.66 168.142 144.797 171.219 151.5 171.219C161.904 171.219 171.497 163.233 171.688 148.632L171.69 148.021C171.69 133.138 161.843 124.99 151.5 124.99C144.963 124.99 140.742 128.066 137.681 132.223V125.821H125.103V183.691ZM137.519 148.527C137.666 155.737 142.488 160.493 148.273 160.493C154.148 160.493 159.113 155.67 159.113 148.187L159.109 147.681C158.96 140.471 154.057 135.715 148.273 135.715C142.397 135.715 137.515 140.621 137.515 148.021L137.519 148.527ZM178.09 125.821V170.387H190.667V125.821H178.09Z" fill="white"/>
<g id="desc">
<path id="new" fill-rule="evenodd" clip-rule="evenodd" d="M257.318 125.691H248.806V95.6747H257.318V99.9307C259.278 97.4107 261.798 95.1147 266.11 95.1147C272.55 95.1147 276.302 99.3707 276.302 106.259V125.691H267.79V108.947C267.79 104.915 265.886 102.843 262.638 102.843C259.39 102.843 257.318 104.915 257.318 108.947V125.691ZM307.849 120.763C305.049 124.235 301.017 126.363 295.585 126.363C286.569 126.363 279.905 120.035 279.905 110.851L279.908 110.418C280.058 101.995 286.118 95.1147 294.745 95.1147C304.769 95.1147 309.361 102.899 309.361 111.411C309.361 111.814 309.341 112.257 309.313 112.717L309.249 113.651H288.361C289.201 117.515 291.889 119.531 295.697 119.531C298.553 119.531 300.625 118.635 302.977 116.451L307.849 120.763ZM288.249 108.331C288.921 104.467 291.217 101.947 294.745 101.947C298.329 101.947 300.569 104.523 301.073 108.331H288.249ZM309.492 95.6747L318.732 125.915H326.348L332.228 107.491L337.996 125.915H345.668L355.02 95.6747H346.564L341.636 113.931L335.924 95.5627H328.588L322.932 113.875L318.116 95.6747H309.492Z" fill="#FF715B"/>
<path id="patientsinc" fill-rule="evenodd" clip-rule="evenodd" d="M344.846 146.371H335.886V138.811H344.846V146.371ZM324.948 180.195C327.804 180.195 329.876 179.523 331.668 178.459V171.627C330.436 172.299 329.036 172.691 327.468 172.691C325.564 172.691 324.724 171.739 324.724 169.779V156.955H331.78V149.675H324.724V142.003H316.212V149.675H312.628V156.955H316.212V171.179C316.212 178.123 319.74 180.195 324.948 180.195ZM257.318 188.651H248.806V149.675H257.318V153.987C259.39 151.187 262.246 149.115 266.67 149.115C273.67 149.115 280.334 154.603 280.334 164.627L280.331 165.127C280.164 174.904 273.69 180.251 266.67 180.251C262.134 180.251 259.334 178.179 257.318 175.771V188.651ZM257.21 165.024C257.334 169.849 260.587 173.027 264.486 173.027C268.462 173.027 271.822 169.779 271.822 164.739L271.819 164.341C271.693 159.517 268.386 156.339 264.486 156.339C260.51 156.339 257.206 159.643 257.206 164.627L257.21 165.024ZM292.785 180.251C296.929 180.251 299.785 178.739 301.857 176.443V179.691H310.089V162.275C310.089 158.243 309.081 154.939 306.841 152.699C304.713 150.571 301.353 149.339 296.705 149.339C291.609 149.339 288.361 150.291 285.057 151.747L287.185 158.243C289.929 157.235 292.225 156.619 295.473 156.619C299.729 156.619 301.913 158.579 301.913 162.107V162.611C299.785 161.883 297.601 161.379 294.577 161.379C287.578 161.379 282.64 164.307 282.485 170.645L282.481 171.067C282.481 177.003 287.129 180.251 292.785 180.251ZM290.713 170.731C290.713 173.027 292.617 174.371 295.361 174.371C299.337 174.371 302.025 172.187 302.025 169.107V167.595C300.569 166.923 298.665 166.475 296.593 166.475C292.953 166.475 290.713 167.931 290.713 170.619V170.731ZM336.11 179.691H344.622V149.675H336.11V179.691ZM376.785 174.763C373.985 178.235 369.953 180.363 364.521 180.363C355.505 180.363 348.841 174.035 348.841 164.851L348.844 164.418C348.994 155.995 355.054 149.115 363.681 149.115C373.705 149.115 378.297 156.899 378.297 165.411C378.297 165.814 378.277 166.257 378.249 166.717L378.185 167.651H357.297C358.137 171.515 360.825 173.531 364.633 173.531C367.489 173.531 369.561 172.635 371.913 170.451L376.785 174.763ZM357.185 162.331C357.857 158.467 360.153 155.947 363.681 155.947C367.265 155.947 369.505 158.523 370.009 162.331H357.185ZM390.804 179.691H382.292V149.675H390.804V153.931C392.764 151.411 395.284 149.115 399.596 149.115C406.036 149.115 409.788 153.371 409.788 160.259V179.691H401.276V162.947C401.276 158.915 399.372 156.843 396.124 156.843C392.876 156.843 390.804 158.915 390.804 162.947V179.691ZM424.982 180.195C427.838 180.195 429.91 179.523 431.702 178.459V171.627C430.47 172.299 429.07 172.691 427.502 172.691C425.598 172.691 424.758 171.739 424.758 169.779V156.955H431.814V149.675H424.758V142.003H416.246V149.675H412.662V156.955H416.246V171.179C416.246 178.123 419.774 180.195 424.982 180.195ZM457.757 170.882C457.6 177.323 452.672 180.251 446.281 180.251C442.081 180.251 437.377 178.851 433.401 175.715L437.041 170.115C440.289 172.467 443.705 173.699 446.505 173.699C448.969 173.699 450.089 172.803 450.089 171.459V171.347C450.089 169.909 448.327 169.217 445.99 168.506L443.643 167.807C439.502 166.57 434.913 164.577 434.913 158.859L434.917 158.444C435.078 152.53 439.942 149.227 445.889 149.227C449.697 149.227 453.841 150.515 457.089 152.699L453.841 158.579C450.873 156.843 447.905 155.779 445.721 155.779C443.649 155.779 442.585 156.675 442.585 157.851V157.963C442.585 159.307 444.413 160.077 446.807 160.905L448.923 161.625C453.068 163.023 457.761 165.064 457.761 170.451L457.757 170.882ZM476.166 146.371H485.126V138.811H476.166V146.371ZM484.902 179.691H476.39V149.675H484.902V179.691ZM490.577 179.691H499.089V162.947C499.089 158.915 501.161 156.843 504.409 156.843C507.657 156.843 509.561 158.915 509.561 162.947V179.691H518.073V160.259C518.073 153.371 514.321 149.115 507.881 149.115C503.569 149.115 501.049 151.411 499.089 153.931V149.675H490.577V179.691ZM521.679 165.167C521.839 173.589 528.395 180.363 537.3 180.363C543.006 180.363 546.326 178.28 549.144 175.324L549.564 174.875L544.58 169.835C542.508 171.795 540.548 173.027 537.692 173.027C533.044 173.027 530.076 169.331 530.076 164.739L530.079 164.372C530.192 160.06 533.182 156.451 537.356 156.451C540.38 156.451 542.284 157.739 544.188 159.755L549.396 154.155C546.596 151.019 543.068 149.115 537.412 149.115C528.228 149.115 521.676 156.171 521.676 164.739L521.679 165.167Z" fill="#FF715B"/>
</g>
<path id="TM" fill-rule="evenodd" clip-rule="evenodd" d="M557.234 149.691H554.283V135.459H548.998V132.691H562.519V135.459H557.234V149.691ZM564.622 132.691V149.691H567.502V137.548L572.715 145.514H572.81L578.071 137.499V149.691H580.998V132.691H577.88L572.81 140.729L567.74 132.691H564.622Z" fill="#FF715B"/>
</g>
</g>
</svg>
