<svg xmlns="http://www.w3.org/2000/svg" xmlns:xlink="http://www.w3.org/1999/xlink" xmlns:lucid="lucid" width="1840" height="1455"><g transform="translate(-20 -5)" lucid:page-tab-id="0_0"><path d="M0 0h3456v2656H0z" fill="#fff"/><path d="M1120 680h360v460h-360zM400 680h360v460H400zM40 1140h900v300H40zM940 1140h900v300H940zM1480 25h360v1115h-360zM1120 25h360v655h-360zM760 25h360v1115H760zM400 25h360v655H400zM40 25h360v1115H40z" stroke="#000" stroke-width="2" fill="#fff"/><path d="M80 140h280v140H80z" stroke="#fcc438" stroke-width="2" fill="#ffdf71"/><use xlink:href="#a" transform="matrix(1,0,0,1,96,156) translate(7.599999999999994 25.19999999999999)"/><use xlink:href="#b" transform="matrix(1,0,0,1,96,156) translate(68.6 25.19999999999999)"/><use xlink:href="#c" transform="matrix(1,0,0,1,96,156) translate(99.55 25.19999999999999)"/><use xlink:href="#d" transform="matrix(1,0,0,1,96,156) translate(161.45000000000002 25.19999999999999)"/><use xlink:href="#e" transform="matrix(1,0,0,1,96,156) translate(220.4 25.19999999999999)"/><use xlink:href="#f" transform="matrix(1,0,0,1,96,156) translate(3.0500000000000114 46.79999999999999)"/><use xlink:href="#g" transform="matrix(1,0,0,1,96,156) translate(33.05000000000001 46.79999999999999)"/><use xlink:href="#h" transform="matrix(1,0,0,1,96,156) translate(77.00000000000001 46.79999999999999)"/><use xlink:href="#i" transform="matrix(1,0,0,1,96,156) translate(150 46.79999999999999)"/><use xlink:href="#b" transform="matrix(1,0,0,1,96,156) translate(189 46.79999999999999)"/><use xlink:href="#j" transform="matrix(1,0,0,1,96,156) translate(219.95 46.79999999999999)"/><use xlink:href="#k" transform="matrix(1,0,0,1,96,156) translate(17.44999999999999 68.39999999999999)"/><use xlink:href="#l" transform="matrix(1,0,0,1,96,156) translate(71.35 68.39999999999999)"/><use xlink:href="#m" transform="matrix(1,0,0,1,96,156) translate(91.35 68.39999999999999)"/><use xlink:href="#f" transform="matrix(1,0,0,1,96,156) translate(114.25 68.39999999999999)"/><use xlink:href="#n" transform="matrix(1,0,0,1,96,156) translate(144.25 68.39999999999999)"/><use xlink:href="#o" transform="matrix(1,0,0,1,96,156) translate(34.55 90)"/><use xlink:href="#i" transform="matrix(1,0,0,1,96,156) translate(91.55 90)"/><use xlink:href="#p" transform="matrix(1,0,0,1,96,156) translate(130.55 90)"/><use xlink:href="#q" transform="matrix(1,0,0,1,96,156) translate(164.55 90)"/><path d="M80 320h280v140H80z" stroke="#fcc438" stroke-width="2" fill="#ffdf71"/><use xlink:href="#a" transform="matrix(1,0,0,1,96,336) translate(2.0999999999999943 46.8)"/><use xlink:href="#b" transform="matrix(1,0,0,1,96,336) translate(63.099999999999994 46.8)"/><use xlink:href="#r" transform="matrix(1,0,0,1,96,336) translate(94.05 46.8)"/><use xlink:href="#s" transform="matrix(1,0,0,1,96,336) translate(124.05 46.8)"/><use xlink:href="#f" transform="matrix(1,0,0,1,96,336) translate(181 46.8)"/><use xlink:href="#t" transform="matrix(1,0,0,1,96,336) translate(211 46.8)"/><use xlink:href="#u" transform="matrix(1,0,0,1,96,336) translate(85.525 68.4)"/><path d="M80 500h280v140H80z" stroke="#fcc438" stroke-width="2" fill="#ffdf71"/><use xlink:href="#a" transform="matrix(1,0,0,1,96,516) translate(16.099999999999994 36)"/><use xlink:href="#v" transform="matrix(1,0,0,1,96,516) translate(77.1 36)"/><use xlink:href="#w" transform="matrix(1,0,0,1,96,516) translate(120.05 36)"/><use xlink:href="#x" transform="matrix(1,0,0,1,96,516) translate(140.05 36)"/><use xlink:href="#y" transform="matrix(1,0,0,1,96,516) translate(11.350000000000009 57.6)"/><use xlink:href="#z" transform="matrix(1,0,0,1,96,516) translate(90.30000000000001 57.6)"/><use xlink:href="#A" transform="matrix(1,0,0,1,96,516) translate(144.3 57.6)"/><use xlink:href="#B" transform="matrix(1,0,0,1,96,516) translate(169.3 57.6)"/><use xlink:href="#C" transform="matrix(1,0,0,1,96,516) translate(13.274999999999991 79.20000000000002)"/><use xlink:href="#D" transform="matrix(1,0,0,1,96,516) translate(74.82499999999999 79.20000000000002)"/><use xlink:href="#E" transform="matrix(1,0,0,1,96,516) translate(176.72500000000002 79.20000000000002)"/><path d="M440 140h280v140H440z" stroke="#fcc438" stroke-width="2" fill="#ffdf71"/><use xlink:href="#F" transform="matrix(1,0,0,1,456,156) translate(14.599999999999994 36)"/><use xlink:href="#G" transform="matrix(1,0,0,1,456,156) translate(56.5 36)"/><use xlink:href="#H" transform="matrix(1,0,0,1,456,156) translate(115.5 36)"/><use xlink:href="#I" transform="matrix(1,0,0,1,456,156) translate(179.45000000000002 36)"/><use xlink:href="#J" transform="matrix(1,0,0,1,456,156) translate(34.07499999999999 57.6)"/><use xlink:href="#o" transform="matrix(1,0,0,1,456,156) translate(111.925 57.6)"/><use xlink:href="#K" transform="matrix(1,0,0,1,456,156) translate(168.925 57.6)"/><use xlink:href="#L" transform="matrix(1,0,0,1,456,156) translate(203.925 57.6)"/><use xlink:href="#M" transform="matrix(1,0,0,1,456,156) translate(70.05 79.20000000000002)"/><use xlink:href="#N" transform="matrix(1,0,0,1,456,156) translate(148.95 79.20000000000002)"/><path d="M440 320h280v140H440z" stroke="#fcc438" stroke-width="2" fill="#ffdf71"/><use xlink:href="#O" transform="matrix(1,0,0,1,456,336) translate(42.55 36)"/><use xlink:href="#P" transform="matrix(1,0,0,1,456,336) translate(88.5 36)"/><use xlink:href="#w" transform="matrix(1,0,0,1,456,336) translate(110.5 36)"/><use xlink:href="#Q" transform="matrix(1,0,0,1,456,336) translate(130.5 36)"/><use xlink:href="#R" transform="matrix(1,0,0,1,456,336) translate(3.5999999999999943 57.6)"/><use xlink:href="#S" transform="matrix(1,0,0,1,456,336) translate(90.55 57.6)"/><use xlink:href="#T" transform="matrix(1,0,0,1,456,336) translate(125.55 57.6)"/><use xlink:href="#U" transform="matrix(1,0,0,1,456,336) translate(185.5 57.6)"/><use xlink:href="#V" transform="matrix(1,0,0,1,456,336) translate(105.05 79.20000000000002)"/><path d="M440 500h280v140H440z" stroke="#fcc438" stroke-width="2" fill="#ffdf71"/><use xlink:href="#W" transform="matrix(1,0,0,1,456,516) translate(43.625 36)"/><use xlink:href="#w" transform="matrix(1,0,0,1,456,516) translate(146.47500000000002 36)"/><use xlink:href="#X" transform="matrix(1,0,0,1,456,516) translate(166.47500000000002 36)"/><use xlink:href="#Y" transform="matrix(1,0,0,1,456,516) translate(17.200000000000017 57.6)"/><use xlink:href="#Z" transform="matrix(1,0,0,1,456,516) translate(123.00000000000001 57.6)"/><use xlink:href="#aa" transform="matrix(1,0,0,1,456,516) translate(159.9 57.6)"/><use xlink:href="#ab" transform="matrix(1,0,0,1,456,516) translate(190.85 57.6)"/><use xlink:href="#ac" transform="matrix(1,0,0,1,456,516) translate(92.025 79.20000000000002)"/><path d="M440 780h280v140H440z" stroke="#fcc438" stroke-width="2" fill="#ffdf71"/><g><use xlink:href="#ad" transform="matrix(1,0,0,1,456,796) translate(5.1499999999999915 36)"/><use xlink:href="#ae" transform="matrix(1,0,0,1,456,796) translate(46.05 36)"/><use xlink:href="#af" transform="matrix(1,0,0,1,456,796) translate(95 36)"/><use xlink:href="#ag" transform="matrix(1,0,0,1,456,796) translate(171.95 36)"/><use xlink:href="#ah" transform="matrix(1,0,0,1,456,796) translate(33.67500000000001 57.6)"/><use xlink:href="#Z" transform="matrix(1,0,0,1,456,796) translate(106.525 57.6)"/><use xlink:href="#aa" transform="matrix(1,0,0,1,456,796) translate(143.425 57.6)"/><use xlink:href="#ab" transform="matrix(1,0,0,1,456,796) translate(174.375 57.6)"/><use xlink:href="#ac" transform="matrix(1,0,0,1,456,796) translate(92.025 79.20000000000002)"/></g><path d="M440 960h280v140H440z" stroke="#fcc438" stroke-width="2" fill="#ffdf71"/><g><use xlink:href="#ai" transform="matrix(1,0,0,1,456,976) translate(37.099999999999994 46.8)"/><use xlink:href="#aj" transform="matrix(1,0,0,1,456,976) translate(120 46.8)"/><use xlink:href="#ak" transform="matrix(1,0,0,1,456,976) translate(189.95000000000002 46.8)"/><use xlink:href="#af" transform="matrix(1,0,0,1,456,976) translate(15.099999999999994 68.4)"/><use xlink:href="#al" transform="matrix(1,0,0,1,456,976) translate(92.05 68.4)"/><use xlink:href="#am" transform="matrix(1,0,0,1,456,976) translate(140 68.4)"/><use xlink:href="#an" transform="matrix(1,0,0,1,456,976) translate(172.95000000000002 68.4)"/></g><path d="M120 47h240v60H120z" stroke="#000" stroke-opacity="0" stroke-width="2" fill="#fff" fill-opacity="0"/><g><use xlink:href="#ao" transform="matrix(1,0,0,1,125,52) translate(61.740740740740726 30.333333333333336)"/></g><path d="M460 47h240v60H460z" stroke="#000" stroke-opacity="0" stroke-width="2" fill="#fff" fill-opacity="0"/><g><use xlink:href="#ap" transform="matrix(1,0,0,1,465,52) translate(61.85185185185184 30.333333333333336)"/></g><path d="M820 40h240v74H820z" stroke="#000" stroke-opacity="0" stroke-width="2" fill="#fff" fill-opacity="0"/><g><use xlink:href="#aq" transform="matrix(1,0,0,1,825,45) translate(31.481481481481467 21.333333333333336)"/><use xlink:href="#ar" transform="matrix(1,0,0,1,825,45) translate(128.962962962963 21.333333333333336)"/><use xlink:href="#as" transform="matrix(1,0,0,1,825,45) translate(41.14814814814814 53.333333333333336)"/></g><path d="M800 140h280v140H800z" stroke="#fcc438" stroke-width="2" fill="#ffdf71"/><g><use xlink:href="#at" transform="matrix(1,0,0,1,816,156) translate(3.7750000000000057 36)"/><use xlink:href="#au" transform="matrix(1,0,0,1,816,156) translate(35.375 36)"/><use xlink:href="#G" transform="matrix(1,0,0,1,816,156) translate(84.325 36)"/><use xlink:href="#av" transform="matrix(1,0,0,1,816,156) translate(143.32500000000002 36)"/><use xlink:href="#s" transform="matrix(1,0,0,1,816,156) translate(162.275 36)"/><use xlink:href="#aw" transform="matrix(1,0,0,1,816,156) translate(219.225 36)"/><use xlink:href="#ax" transform="matrix(1,0,0,1,816,156) translate(21.099999999999994 57.6)"/><use xlink:href="#ay" transform="matrix(1,0,0,1,816,156) translate(60.99999999999999 57.6)"/><use xlink:href="#w" transform="matrix(1,0,0,1,816,156) translate(142.95 57.6)"/><use xlink:href="#az" transform="matrix(1,0,0,1,816,156) translate(162.95 57.6)"/><use xlink:href="#aA" transform="matrix(1,0,0,1,816,156) translate(58.599999999999994 79.20000000000002)"/><use xlink:href="#aB" transform="matrix(1,0,0,1,816,156) translate(124.45 79.20000000000002)"/></g><path d="M1160 40h240v74h-240z" stroke="#000" stroke-opacity="0" stroke-width="2" fill="#fff" fill-opacity="0"/><g><use xlink:href="#aC" transform="matrix(1,0,0,1,1165,45) translate(4.925925925925924 37.333333333333336)"/><use xlink:href="#aD" transform="matrix(1,0,0,1,1165,45) translate(89.14814814814815 37.333333333333336)"/></g><path d="M1160 140h280v140h-280z" stroke="#fcc438" stroke-width="2" fill="#ffdf71"/><g><use xlink:href="#aE" transform="matrix(1,0,0,1,1176,156) translate(2.7749999999999915 36)"/><use xlink:href="#ah" transform="matrix(1,0,0,1,1176,156) translate(70.675 36)"/><use xlink:href="#Z" transform="matrix(1,0,0,1,1176,156) translate(143.52499999999998 36)"/><use xlink:href="#aF" transform="matrix(1,0,0,1,1176,156) translate(180.425 36)"/><use xlink:href="#af" transform="matrix(1,0,0,1,1176,156) translate(13.174999999999983 57.6)"/><use xlink:href="#aG" transform="matrix(1,0,0,1,1176,156) translate(90.12499999999999 57.6)"/><use xlink:href="#aH" transform="matrix(1,0,0,1,1176,156) translate(191.82500000000002 57.6)"/><use xlink:href="#aI" transform="matrix(1,0,0,1,1176,156) translate(67.6 79.20000000000002)"/><use xlink:href="#w" transform="matrix(1,0,0,1,1176,156) translate(116.55 79.20000000000002)"/><use xlink:href="#aJ" transform="matrix(1,0,0,1,1176,156) translate(136.55 79.20000000000002)"/></g><path d="M1560 40h240v74h-240z" stroke="#000" stroke-opacity="0" stroke-width="2" fill="#fff" fill-opacity="0"/><g><use xlink:href="#aK" transform="matrix(1,0,0,1,1565,45) translate(52.92592592592592 21.333333333333336)"/><use xlink:href="#aL" transform="matrix(1,0,0,1,1565,45) translate(51.407407407407405 53.333333333333336)"/></g><path d="M1500 140h150.6v140H1500z" stroke="#fcc438" stroke-width="2" fill="#ffdf71"/><g><use xlink:href="#aM" transform="matrix(1,0,0,1,1516,156) translate(13.299999999999997 36)"/><use xlink:href="#aN" transform="matrix(1,0,0,1,1516,156) translate(58.2 36)"/><use xlink:href="#aO" transform="matrix(1,0,0,1,1516,156) translate(73.7 36)"/><use xlink:href="#aP" transform="matrix(1,0,0,1,1516,156) translate(31.124999999999996 57.6)"/><use xlink:href="#aQ" transform="matrix(1,0,0,1,1516,156) translate(29.5 79.20000000000002)"/></g><path d="M1669.4 140H1820v140h-150.6z" stroke="#fcc438" stroke-width="2" fill="#ffdf71"/><g><use xlink:href="#aR" transform="matrix(1,0,0,1,1685.4117647058824,156) translate(32.525 36)"/><use xlink:href="#aS" transform="matrix(1,0,0,1,1685.4117647058824,156) translate(12.624999999999993 57.6)"/><use xlink:href="#aT" transform="matrix(1,0,0,1,1685.4117647058824,156) translate(3.549999999999997 79.20000000000002)"/><use xlink:href="#aU" transform="matrix(1,0,0,1,1685.4117647058824,156) translate(68.55 79.20000000000002)"/></g><path d="M1160 780h120v120h-120z" stroke="#fcc438" stroke-width="2" fill="#ffdf71"/><g><use xlink:href="#aV" transform="matrix(1,0,0,1,1176,796) translate(21.525 36.8)"/><use xlink:href="#aW" transform="matrix(1,0,0,1,1176,796) translate(22.049999999999997 58.4)"/></g><path d="M1320 780h120v120h-120z" stroke="#fcc438" stroke-width="2" fill="#ffdf71"/><g><use xlink:href="#aX" transform="matrix(1,0,0,1,1336,796) translate(17.525 36.8)"/><use xlink:href="#aY" transform="matrix(1,0,0,1,1336,796) translate(28.5 58.4)"/></g><path d="M1160 940h120v120h-120z" stroke="#fcc438" stroke-width="2" fill="#ffdf71"/><g><use xlink:href="#aZ" transform="matrix(1,0,0,1,1176,956) translate(11.5 36.8)"/><use xlink:href="#ba" transform="matrix(1,0,0,1,1176,956) translate(71.5 36.8)"/><use xlink:href="#bb" transform="matrix(1,0,0,1,1176,956) translate(-0.10000000000000142 58.4)"/></g><path d="M1320 940h120v120h-120z" stroke="#fcc438" stroke-width="2" fill="#ffdf71"/><g><use xlink:href="#bc" transform="matrix(1,0,0,1,1336,956) translate(7.099999999999994 26)"/><use xlink:href="#bd" transform="matrix(1,0,0,1,1336,956) translate(12.549999999999997 47.6)"/><use xlink:href="#be" transform="matrix(1,0,0,1,1336,956) translate(0.5749999999999957 69.2)"/></g><path d="M460 700h240v60H460z" stroke="#000" stroke-opacity="0" stroke-width="2" fill="#fff" fill-opacity="0"/><g><use xlink:href="#bf" transform="matrix(1,0,0,1,465,705) translate(40.29629629629629 30.333333333333336)"/><use xlink:href="#bg" transform="matrix(1,0,0,1,465,705) translate(96.51851851851852 30.333333333333336)"/></g><path d="M80 1160h280v60H80z" stroke="#000" stroke-opacity="0" stroke-width="2" fill="#fff" fill-opacity="0"/><g><use xlink:href="#bh" transform="matrix(1,0,0,1,85,1165) translate(42.66666666666666 30.333333333333336)"/><use xlink:href="#bi" transform="matrix(1,0,0,1,85,1165) translate(109.11111111111111 30.333333333333336)"/></g><path d="M1140 1160h280v60h-280z" stroke="#000" stroke-opacity="0" stroke-width="2" fill="#fff" fill-opacity="0"/><g><use xlink:href="#bj" transform="matrix(1,0,0,1,1145,1165) translate(23.296296296296276 30.333333333333336)"/><use xlink:href="#bk" transform="matrix(1,0,0,1,1145,1165) translate(141.5925925925926 30.333333333333336)"/></g><path d="M80 1240h160v140H80z" stroke="#fcc438" stroke-width="2" fill="#ffdf71"/><g><use xlink:href="#bl" transform="matrix(1,0,0,1,96,1256) translate(33.55 57.6)"/></g><path d="M280 1240h160v140H280z" stroke="#fcc438" stroke-width="2" fill="#ffdf71"/><g><use xlink:href="#bm" transform="matrix(1,0,0,1,296,1256) translate(11.074999999999996 46.8)"/><use xlink:href="#bn" transform="matrix(1,0,0,1,296,1256) translate(37.55 68.4)"/></g><path d="M480 1240h160v140H480z" stroke="#fcc438" stroke-width="2" fill="#ffdf71"/><g><use xlink:href="#bo" transform="matrix(1,0,0,1,496,1256) translate(21.574999999999996 25.19999999999999)"/><use xlink:href="#ba" transform="matrix(1,0,0,1,496,1256) translate(101.42500000000001 25.19999999999999)"/><use xlink:href="#bp" transform="matrix(1,0,0,1,496,1256) translate(4.124999999999993 46.79999999999999)"/><use xlink:href="#bq" transform="matrix(1,0,0,1,496,1256) translate(91.975 46.79999999999999)"/><use xlink:href="#br" transform="matrix(1,0,0,1,496,1256) translate(18.049999999999997 68.39999999999999)"/><use xlink:href="#ak" transform="matrix(1,0,0,1,496,1256) translate(89 68.39999999999999)"/><use xlink:href="#bs" transform="matrix(1,0,0,1,496,1256) translate(15.074999999999996 90)"/></g><path d="M680 1240h160v140H680z" stroke="#fcc438" stroke-width="2" fill="#ffdf71"/><g><use xlink:href="#bt" transform="matrix(1,0,0,1,696,1256) translate(18.025 36)"/><use xlink:href="#bu" transform="matrix(1,0,0,1,696,1256) translate(80.975 36)"/><use xlink:href="#bv" transform="matrix(1,0,0,1,696,1256) translate(29.525 57.6)"/><use xlink:href="#bw" transform="matrix(1,0,0,1,696,1256) translate(83.475 57.6)"/><use xlink:href="#bx" transform="matrix(1,0,0,1,696,1256) translate(20.075000000000003 79.20000000000002)"/></g><path d="M1020 1240h160v140h-160z" stroke="#fcc438" stroke-width="2" fill="#ffdf71"/><g><use xlink:href="#by" transform="matrix(1,0,0,1,1036,1256) translate(3.049999999999997 36)"/><use xlink:href="#bz" transform="matrix(1,0,0,1,1036,1256) translate(80 36)"/><use xlink:href="#bA" transform="matrix(1,0,0,1,1036,1256) translate(3.5999999999999943 57.6)"/><use xlink:href="#bB" transform="matrix(1,0,0,1,1036,1256) translate(26.549999999999997 57.6)"/><use xlink:href="#ac" transform="matrix(1,0,0,1,1036,1256) translate(32.025 79.20000000000002)"/></g><path d="M1220 1240h160v140h-160z" stroke="#fcc438" stroke-width="2" fill="#ffdf71"/><g><use xlink:href="#bC" transform="matrix(1,0,0,1,1236,1256) translate(23.575000000000003 36)"/><use xlink:href="#bD" transform="matrix(1,0,0,1,1236,1256) translate(68.525 36)"/><use xlink:href="#af" transform="matrix(1,0,0,1,1236,1256) translate(17.549999999999997 57.6)"/><use xlink:href="#bE" transform="matrix(1,0,0,1,1236,1256) translate(94.5 57.6)"/><use xlink:href="#ac" transform="matrix(1,0,0,1,1236,1256) translate(32.025 79.20000000000002)"/></g><path d="M1420 1240h160v140h-160z" stroke="#fcc438" stroke-width="2" fill="#ffdf71"/><g><use xlink:href="#bF" transform="matrix(1,0,0,1,1436,1256) translate(12.099999999999994 36)"/><use xlink:href="#bG" transform="matrix(1,0,0,1,1436,1256) translate(7.125 57.6)"/><use xlink:href="#bH" transform="matrix(1,0,0,1,1436,1256) translate(48.025 57.6)"/><use xlink:href="#ac" transform="matrix(1,0,0,1,1436,1256) translate(32.025 79.20000000000002)"/></g><path d="M1620 1240h160v140h-160z" stroke="#fcc438" stroke-width="2" fill="#ffdf71"/><g><use xlink:href="#bI" transform="matrix(1,0,0,1,1636,1256) translate(28.049999999999997 36)"/><use xlink:href="#bD" transform="matrix(1,0,0,1,1636,1256) translate(64.05 36)"/><use xlink:href="#bJ" transform="matrix(1,0,0,1,1636,1256) translate(22.025 57.6)"/><use xlink:href="#bw" transform="matrix(1,0,0,1,1636,1256) translate(90.975 57.6)"/><use xlink:href="#bK" transform="matrix(1,0,0,1,1636,1256) translate(28.025 79.20000000000002)"/></g><path d="M1180 700h240v60h-240z" stroke="#000" stroke-opacity="0" stroke-width="2" fill="#fff" fill-opacity="0"/><g><use xlink:href="#bL" transform="matrix(1,0,0,1,1185,705) translate(55.14814814814814 30.333333333333336)"/></g><defs><path d="M205 0l-28-72H64L36 0H1l101-248h38L239 0h-34zm-38-99l-47-123c-12 45-31 82-46 123h93" id="bM"/><path d="M177-190C167-65 218 103 67 71c-23-6-38-20-44-43l32-5c15 47 100 32 89-28v-30C133-14 115 1 83 1 29 1 15-40 15-95c0-56 16-97 71-98 29-1 48 16 59 35 1-10 0-23 2-32h30zM94-22c36 0 50-32 50-73 0-42-14-75-50-75-39 0-46 34-46 75s6 73 46 73" id="bN"/><path d="M100-194c63 0 86 42 84 106H49c0 40 14 67 53 68 26 1 43-12 49-29l28 8c-11 28-37 45-77 45C44 4 14-33 15-96c1-61 26-98 85-98zm52 81c6-60-76-77-97-28-3 7-6 17-6 28h103" id="bO"/><path d="M117-194c89-4 53 116 60 194h-32v-121c0-31-8-49-39-48C34-167 62-67 57 0H25l-1-190h30c1 10-1 24 2 32 11-22 29-35 61-36" id="bP"/><path d="M59-47c-2 24 18 29 38 22v24C64 9 27 4 27-40v-127H5v-23h24l9-43h21v43h35v23H59v120" id="bQ"/><path d="M135-143c-3-34-86-38-87 0 15 53 115 12 119 90S17 21 10-45l28-5c4 36 97 45 98 0-10-56-113-15-118-90-4-57 82-63 122-42 12 7 21 19 24 35" id="bR"/><g id="a"><use transform="matrix(0.05,0,0,0.05,0,0)" xlink:href="#bM"/><use transform="matrix(0.05,0,0,0.05,12,0)" xlink:href="#bN"/><use transform="matrix(0.05,0,0,0.05,22,0)" xlink:href="#bO"/><use transform="matrix(0.05,0,0,0.05,32,0)" xlink:href="#bP"/><use transform="matrix(0.05,0,0,0.05,42,0)" xlink:href="#bQ"/><use transform="matrix(0.05,0,0,0.05,47,0)" xlink:href="#bR"/></g><path d="M141-36C126-15 110 5 73 4 37 3 15-17 15-53c-1-64 63-63 125-63 3-35-9-54-41-54-24 1-41 7-42 31l-33-3c5-37 33-52 76-52 45 0 72 20 72 64v82c-1 20 7 32 28 27v20c-31 9-61-2-59-35zM48-53c0 20 12 33 32 33 41-3 63-29 60-74-43 2-92-5-92 41" id="bS"/><path d="M114-163C36-179 61-72 57 0H25l-1-190h30c1 12-1 29 2 39 6-27 23-49 58-41v29" id="bT"/><g id="b"><use transform="matrix(0.05,0,0,0.05,0,0)" xlink:href="#bS"/><use transform="matrix(0.05,0,0,0.05,10,0)" xlink:href="#bT"/><use transform="matrix(0.05,0,0,0.05,15.949999999999998,0)" xlink:href="#bO"/></g><path d="M24 0v-261h32V0H24" id="bU"/><path d="M108 0H70L1-190h34L89-25l56-165h34" id="bV"/><path d="M24-231v-30h32v30H24zM24 0v-190h32V0H24" id="bW"/><g id="c"><use transform="matrix(0.05,0,0,0.05,0,0)" xlink:href="#bU"/><use transform="matrix(0.05,0,0,0.05,3.95,0)" xlink:href="#bO"/><use transform="matrix(0.05,0,0,0.05,13.949999999999998,0)" xlink:href="#bS"/><use transform="matrix(0.05,0,0,0.05,23.95,0)" xlink:href="#bV"/><use transform="matrix(0.05,0,0,0.05,32.95,0)" xlink:href="#bW"/><use transform="matrix(0.05,0,0,0.05,36.900000000000006,0)" xlink:href="#bP"/><use transform="matrix(0.05,0,0,0.05,46.900000000000006,0)" xlink:href="#bN"/></g><path d="M210-169c-67 3-38 105-44 169h-31v-121c0-29-5-50-35-48C34-165 62-65 56 0H25l-1-190h30c1 10-1 24 2 32 10-44 99-50 107 0 11-21 27-35 58-36 85-2 47 119 55 194h-31v-121c0-29-5-49-35-48" id="bX"/><path d="M100-194c62-1 85 37 85 99 1 63-27 99-86 99S16-35 15-95c0-66 28-99 85-99zM99-20c44 1 53-31 53-75 0-43-8-75-51-75s-53 32-53 75 10 74 51 75" id="bY"/><path d="M179-190L93 31C79 59 56 82 12 73V49c39 6 53-20 64-50L1-190h34L92-34l54-156h33" id="bZ"/><g id="d"><use transform="matrix(0.05,0,0,0.05,0,0)" xlink:href="#bX"/><use transform="matrix(0.05,0,0,0.05,14.950000000000001,0)" xlink:href="#bY"/><use transform="matrix(0.05,0,0,0.05,24.950000000000003,0)" xlink:href="#bP"/><use transform="matrix(0.05,0,0,0.05,34.95,0)" xlink:href="#bO"/><use transform="matrix(0.05,0,0,0.05,44.95,0)" xlink:href="#bZ"/></g><g id="e"><use transform="matrix(0.05,0,0,0.05,0,0)" xlink:href="#bY"/><use transform="matrix(0.05,0,0,0.05,10,0)" xlink:href="#bP"/></g><path d="M106-169C34-169 62-67 57 0H25v-261h32l-1 103c12-21 28-36 61-36 89 0 53 116 60 194h-32v-121c2-32-8-49-39-48" id="ca"/><g id="f"><use transform="matrix(0.05,0,0,0.05,0,0)" xlink:href="#bQ"/><use transform="matrix(0.05,0,0,0.05,5,0)" xlink:href="#ca"/><use transform="matrix(0.05,0,0,0.05,15,0)" xlink:href="#bO"/></g><path d="M115-194c53 0 69 39 70 98 0 66-23 100-70 100C84 3 66-7 56-30L54 0H23l1-261h32v101c10-23 28-34 59-34zm-8 174c40 0 45-34 45-75 0-40-5-75-45-74-42 0-51 32-51 76 0 43 10 73 51 73" id="cb"/><g id="g"><use transform="matrix(0.05,0,0,0.05,0,0)" xlink:href="#bQ"/><use transform="matrix(0.05,0,0,0.05,5,0)" xlink:href="#bS"/><use transform="matrix(0.05,0,0,0.05,15,0)" xlink:href="#cb"/><use transform="matrix(0.05,0,0,0.05,25,0)" xlink:href="#bU"/><use transform="matrix(0.05,0,0,0.05,28.950000000000003,0)" xlink:href="#bO"/></g><path d="M96-169c-40 0-48 33-48 73s9 75 48 75c24 0 41-14 43-38l32 2c-6 37-31 61-74 61-59 0-76-41-82-99-10-93 101-131 147-64 4 7 5 14 7 22l-32 3c-4-21-16-35-41-35" id="cc"/><path d="M84 4C-5 8 30-112 23-190h32v120c0 31 7 50 39 49 72-2 45-101 50-169h31l1 190h-30c-1-10 1-25-2-33-11 22-28 36-60 37" id="cd"/><g id="h"><use transform="matrix(0.05,0,0,0.05,0,0)" xlink:href="#cb"/><use transform="matrix(0.05,0,0,0.05,10,0)" xlink:href="#bO"/><use transform="matrix(0.05,0,0,0.05,20,0)" xlink:href="#cc"/><use transform="matrix(0.05,0,0,0.05,29,0)" xlink:href="#bS"/><use transform="matrix(0.05,0,0,0.05,39,0)" xlink:href="#cd"/><use transform="matrix(0.05,0,0,0.05,49,0)" xlink:href="#bR"/><use transform="matrix(0.05,0,0,0.05,58,0)" xlink:href="#bO"/></g><g id="i"><use transform="matrix(0.05,0,0,0.05,0,0)" xlink:href="#bQ"/><use transform="matrix(0.05,0,0,0.05,5,0)" xlink:href="#ca"/><use transform="matrix(0.05,0,0,0.05,15,0)" xlink:href="#bO"/><use transform="matrix(0.05,0,0,0.05,25,0)" xlink:href="#bZ"/></g><g id="j"><use transform="matrix(0.05,0,0,0.05,0,0)" xlink:href="#bP"/><use transform="matrix(0.05,0,0,0.05,10,0)" xlink:href="#bY"/><use transform="matrix(0.05,0,0,0.05,20,0)" xlink:href="#bQ"/></g><path d="M206 0h-36l-40-164L89 0H53L-1-190h32L70-26l43-164h34l41 164 42-164h31" id="ce"/><g id="k"><use transform="matrix(0.05,0,0,0.05,0,0)" xlink:href="#bS"/><use transform="matrix(0.05,0,0,0.05,10,0)" xlink:href="#ce"/><use transform="matrix(0.05,0,0,0.05,22.950000000000003,0)" xlink:href="#bS"/><use transform="matrix(0.05,0,0,0.05,32.95,0)" xlink:href="#bT"/><use transform="matrix(0.05,0,0,0.05,38.900000000000006,0)" xlink:href="#bO"/></g><path d="M101-234c-31-9-42 10-38 44h38v23H63V0H32v-167H5v-23h27c-7-52 17-82 69-68v24" id="cf"/><g id="l"><use transform="matrix(0.05,0,0,0.05,0,0)" xlink:href="#bY"/><use transform="matrix(0.05,0,0,0.05,10,0)" xlink:href="#cf"/></g><g id="m"><use transform="matrix(0.05,0,0,0.05,0,0)" xlink:href="#bS"/><use transform="matrix(0.05,0,0,0.05,10,0)" xlink:href="#bU"/><use transform="matrix(0.05,0,0,0.05,13.949999999999998,0)" xlink:href="#bU"/></g><path d="M47-170H22l-4-78h33" id="cg"/><g id="n"><use transform="matrix(0.05,0,0,0.05,0,0)" xlink:href="#cc"/><use transform="matrix(0.05,0,0,0.05,9,0)" xlink:href="#cd"/><use transform="matrix(0.05,0,0,0.05,19,0)" xlink:href="#bR"/><use transform="matrix(0.05,0,0,0.05,28,0)" xlink:href="#bQ"/><use transform="matrix(0.05,0,0,0.05,33,0)" xlink:href="#bY"/><use transform="matrix(0.05,0,0,0.05,43,0)" xlink:href="#bX"/><use transform="matrix(0.05,0,0,0.05,57.95,0)" xlink:href="#bO"/><use transform="matrix(0.05,0,0,0.05,67.95,0)" xlink:href="#bT"/><use transform="matrix(0.05,0,0,0.05,73.9,0)" xlink:href="#bR"/><use transform="matrix(0.05,0,0,0.05,82.9,0)" xlink:href="#cg"/></g><g id="o"><use transform="matrix(0.05,0,0,0.05,0,0)" xlink:href="#bS"/><use transform="matrix(0.05,0,0,0.05,10,0)" xlink:href="#bR"/><use transform="matrix(0.05,0,0,0.05,19,0)" xlink:href="#bR"/><use transform="matrix(0.05,0,0,0.05,28,0)" xlink:href="#bO"/><use transform="matrix(0.05,0,0,0.05,38,0)" xlink:href="#bQ"/><use transform="matrix(0.05,0,0,0.05,43,0)" xlink:href="#bR"/></g><g id="p"><use transform="matrix(0.05,0,0,0.05,0,0)" xlink:href="#cc"/><use transform="matrix(0.05,0,0,0.05,9,0)" xlink:href="#bS"/><use transform="matrix(0.05,0,0,0.05,19,0)" xlink:href="#bP"/></g><g id="q"><use transform="matrix(0.05,0,0,0.05,0,0)" xlink:href="#bW"/><use transform="matrix(0.05,0,0,0.05,3.95,0)" xlink:href="#bP"/><use transform="matrix(0.05,0,0,0.05,13.949999999999998,0)" xlink:href="#bR"/><use transform="matrix(0.05,0,0,0.05,22.95,0)" xlink:href="#cd"/><use transform="matrix(0.05,0,0,0.05,32.95,0)" xlink:href="#bT"/><use transform="matrix(0.05,0,0,0.05,38.900000000000006,0)" xlink:href="#bO"/></g><g id="r"><use transform="matrix(0.05,0,0,0.05,0,0)" xlink:href="#bP"/><use transform="matrix(0.05,0,0,0.05,10,0)" xlink:href="#bY"/><use transform="matrix(0.05,0,0,0.05,20,0)" xlink:href="#bQ"/></g><path d="M143 0L79-87 56-68V0H24v-261h32v163l83-92h37l-77 82L181 0h-38" id="ch"/><g id="s"><use transform="matrix(0.05,0,0,0.05,0,0)" xlink:href="#bS"/><use transform="matrix(0.05,0,0,0.05,10,0)" xlink:href="#bR"/><use transform="matrix(0.05,0,0,0.05,19,0)" xlink:href="#ch"/><use transform="matrix(0.05,0,0,0.05,28,0)" xlink:href="#bW"/><use transform="matrix(0.05,0,0,0.05,31.950000000000003,0)" xlink:href="#bP"/><use transform="matrix(0.05,0,0,0.05,41.95,0)" xlink:href="#bN"/></g><g id="t"><use transform="matrix(0.05,0,0,0.05,0,0)" xlink:href="#bT"/><use transform="matrix(0.05,0,0,0.05,5.95,0)" xlink:href="#bW"/><use transform="matrix(0.05,0,0,0.05,9.9,0)" xlink:href="#bN"/><use transform="matrix(0.05,0,0,0.05,19.9,0)" xlink:href="#ca"/><use transform="matrix(0.05,0,0,0.05,29.899999999999995,0)" xlink:href="#bQ"/></g><path d="M145-31C134-9 116 4 85 4 32 4 16-35 15-94c0-59 17-99 70-100 32-1 48 14 60 33 0-11-1-24 2-32h30l-1 268h-32zM93-21c41 0 51-33 51-76s-8-73-50-73c-40 0-46 35-46 75s5 74 45 74" id="ci"/><g id="u"><use transform="matrix(0.05,0,0,0.05,0,0)" xlink:href="#ci"/><use transform="matrix(0.05,0,0,0.05,10,0)" xlink:href="#cd"/><use transform="matrix(0.05,0,0,0.05,20,0)" xlink:href="#bO"/><use transform="matrix(0.05,0,0,0.05,30,0)" xlink:href="#bR"/><use transform="matrix(0.05,0,0,0.05,39,0)" xlink:href="#bQ"/><use transform="matrix(0.05,0,0,0.05,44,0)" xlink:href="#bW"/><use transform="matrix(0.05,0,0,0.05,47.95,0)" xlink:href="#bY"/><use transform="matrix(0.05,0,0,0.05,57.95,0)" xlink:href="#bP"/><use transform="matrix(0.05,0,0,0.05,67.95,0)" xlink:href="#bR"/></g><g id="v"><use transform="matrix(0.05,0,0,0.05,0,0)" xlink:href="#ce"/><use transform="matrix(0.05,0,0,0.05,12.950000000000001,0)" xlink:href="#bS"/><use transform="matrix(0.05,0,0,0.05,22.950000000000003,0)" xlink:href="#bP"/><use transform="matrix(0.05,0,0,0.05,32.95,0)" xlink:href="#bQ"/></g><g id="w"><use transform="matrix(0.05,0,0,0.05,0,0)" xlink:href="#bQ"/><use transform="matrix(0.05,0,0,0.05,5,0)" xlink:href="#bY"/></g><path d="M115-194c55 1 70 41 70 98S169 2 115 4C84 4 66-9 55-30l1 105H24l-1-265h31l2 30c10-21 28-34 59-34zm-8 174c40 0 45-34 45-75s-6-73-45-74c-42 0-51 32-51 76 0 43 10 73 51 73" id="cj"/><path d="M9 0v-24l116-142H16v-24h144v24L44-24h123V0H9" id="ck"/><g id="x"><use transform="matrix(0.05,0,0,0.05,0,0)" xlink:href="#cj"/><use transform="matrix(0.05,0,0,0.05,10,0)" xlink:href="#bO"/><use transform="matrix(0.05,0,0,0.05,20,0)" xlink:href="#bT"/><use transform="matrix(0.05,0,0,0.05,25.950000000000003,0)" xlink:href="#bR"/><use transform="matrix(0.05,0,0,0.05,34.95,0)" xlink:href="#bY"/><use transform="matrix(0.05,0,0,0.05,44.95,0)" xlink:href="#bP"/><use transform="matrix(0.05,0,0,0.05,54.95,0)" xlink:href="#bS"/><use transform="matrix(0.05,0,0,0.05,64.95,0)" xlink:href="#bU"/><use transform="matrix(0.05,0,0,0.05,68.9,0)" xlink:href="#bW"/><use transform="matrix(0.05,0,0,0.05,72.85000000000001,0)" xlink:href="#ck"/><use transform="matrix(0.05,0,0,0.05,81.85000000000001,0)" xlink:href="#bO"/></g><g id="y"><use transform="matrix(0.05,0,0,0.05,0,0)" xlink:href="#cc"/><use transform="matrix(0.05,0,0,0.05,9,0)" xlink:href="#bY"/><use transform="matrix(0.05,0,0,0.05,19,0)" xlink:href="#bV"/><use transform="matrix(0.05,0,0,0.05,28,0)" xlink:href="#bO"/><use transform="matrix(0.05,0,0,0.05,38,0)" xlink:href="#bT"/><use transform="matrix(0.05,0,0,0.05,43.95,0)" xlink:href="#bS"/><use transform="matrix(0.05,0,0,0.05,53.95,0)" xlink:href="#bN"/><use transform="matrix(0.05,0,0,0.05,63.95,0)" xlink:href="#bO"/></g><path d="M85-194c31 0 48 13 60 33l-1-100h32l1 261h-30c-2-10 0-23-3-31C134-8 116 4 85 4 32 4 16-35 15-94c0-66 23-100 70-100zm9 24c-40 0-46 34-46 75 0 40 6 74 45 74 42 0 51-32 51-76 0-42-9-74-50-73" id="cl"/><g id="z"><use transform="matrix(0.05,0,0,0.05,0,0)" xlink:href="#cb"/><use transform="matrix(0.05,0,0,0.05,10,0)" xlink:href="#bS"/><use transform="matrix(0.05,0,0,0.05,20,0)" xlink:href="#bR"/><use transform="matrix(0.05,0,0,0.05,29,0)" xlink:href="#bO"/><use transform="matrix(0.05,0,0,0.05,39,0)" xlink:href="#cl"/></g><g id="A"><use transform="matrix(0.05,0,0,0.05,0,0)" xlink:href="#bY"/><use transform="matrix(0.05,0,0,0.05,10,0)" xlink:href="#bP"/></g><g id="B"><use transform="matrix(0.05,0,0,0.05,0,0)" xlink:href="#cj"/><use transform="matrix(0.05,0,0,0.05,10,0)" xlink:href="#bO"/><use transform="matrix(0.05,0,0,0.05,20,0)" xlink:href="#bT"/><use transform="matrix(0.05,0,0,0.05,25.950000000000003,0)" xlink:href="#bR"/><use transform="matrix(0.05,0,0,0.05,34.95,0)" xlink:href="#bY"/><use transform="matrix(0.05,0,0,0.05,44.95,0)" xlink:href="#bP"/><use transform="matrix(0.05,0,0,0.05,54.95,0)" xlink:href="#cg"/><use transform="matrix(0.05,0,0,0.05,58.35,0)" xlink:href="#bR"/></g><path d="M68-38c1 34 0 65-14 84H32c9-13 17-26 17-46H33v-38h35" id="cm"/><g id="C"><use transform="matrix(0.05,0,0,0.05,0,0)" xlink:href="#ca"/><use transform="matrix(0.05,0,0,0.05,10,0)" xlink:href="#bW"/><use transform="matrix(0.05,0,0,0.05,13.949999999999998,0)" xlink:href="#bR"/><use transform="matrix(0.05,0,0,0.05,22.95,0)" xlink:href="#bQ"/><use transform="matrix(0.05,0,0,0.05,27.950000000000003,0)" xlink:href="#bY"/><use transform="matrix(0.05,0,0,0.05,37.95,0)" xlink:href="#bT"/><use transform="matrix(0.05,0,0,0.05,43.900000000000006,0)" xlink:href="#bZ"/><use transform="matrix(0.05,0,0,0.05,51.550000000000004,0)" xlink:href="#cm"/></g><g id="D"><use transform="matrix(0.05,0,0,0.05,0,0)" xlink:href="#bN"/><use transform="matrix(0.05,0,0,0.05,10,0)" xlink:href="#bO"/><use transform="matrix(0.05,0,0,0.05,20,0)" xlink:href="#bY"/><use transform="matrix(0.05,0,0,0.05,30,0)" xlink:href="#bU"/><use transform="matrix(0.05,0,0,0.05,33.95,0)" xlink:href="#bY"/><use transform="matrix(0.05,0,0,0.05,43.95,0)" xlink:href="#cc"/><use transform="matrix(0.05,0,0,0.05,52.95,0)" xlink:href="#bS"/><use transform="matrix(0.05,0,0,0.05,62.95,0)" xlink:href="#bQ"/><use transform="matrix(0.05,0,0,0.05,67.95,0)" xlink:href="#bW"/><use transform="matrix(0.05,0,0,0.05,71.9,0)" xlink:href="#bY"/><use transform="matrix(0.05,0,0,0.05,81.9,0)" xlink:href="#bP"/><use transform="matrix(0.05,0,0,0.05,91.9,0)" xlink:href="#cm"/></g><path d="M141 0L90-78 38 0H4l68-98-65-92h35l48 74 47-74h35l-64 92 68 98h-35" id="cn"/><g id="E"><use transform="matrix(0.05,0,0,0.05,0,0)" xlink:href="#cc"/><use transform="matrix(0.05,0,0,0.05,9,0)" xlink:href="#bY"/><use transform="matrix(0.05,0,0,0.05,19,0)" xlink:href="#bP"/><use transform="matrix(0.05,0,0,0.05,29,0)" xlink:href="#bQ"/><use transform="matrix(0.05,0,0,0.05,34,0)" xlink:href="#bO"/><use transform="matrix(0.05,0,0,0.05,44,0)" xlink:href="#cn"/><use transform="matrix(0.05,0,0,0.05,53,0)" xlink:href="#bQ"/></g><path d="M197 0v-115H63V0H30v-248h33v105h134v-105h34V0h-34" id="co"/><g id="F"><use transform="matrix(0.05,0,0,0.05,0,0)" xlink:href="#co"/><use transform="matrix(0.05,0,0,0.05,12.950000000000001,0)" xlink:href="#bO"/><use transform="matrix(0.05,0,0,0.05,22.950000000000003,0)" xlink:href="#bU"/><use transform="matrix(0.05,0,0,0.05,26.900000000000002,0)" xlink:href="#cj"/></g><g id="G"><use transform="matrix(0.05,0,0,0.05,0,0)" xlink:href="#bS"/><use transform="matrix(0.05,0,0,0.05,10,0)" xlink:href="#bN"/><use transform="matrix(0.05,0,0,0.05,20,0)" xlink:href="#bO"/><use transform="matrix(0.05,0,0,0.05,30,0)" xlink:href="#bP"/><use transform="matrix(0.05,0,0,0.05,40,0)" xlink:href="#bQ"/><use transform="matrix(0.05,0,0,0.05,45,0)" xlink:href="#bR"/></g><g id="H"><use transform="matrix(0.05,0,0,0.05,0,0)" xlink:href="#bR"/><use transform="matrix(0.05,0,0,0.05,9,0)" xlink:href="#cd"/><use transform="matrix(0.05,0,0,0.05,19,0)" xlink:href="#bT"/><use transform="matrix(0.05,0,0,0.05,24.95,0)" xlink:href="#cf"/><use transform="matrix(0.05,0,0,0.05,29.950000000000003,0)" xlink:href="#bS"/><use transform="matrix(0.05,0,0,0.05,39.95,0)" xlink:href="#cc"/><use transform="matrix(0.05,0,0,0.05,48.95,0)" xlink:href="#bO"/></g><g id="I"><use transform="matrix(0.05,0,0,0.05,0,0)" xlink:href="#ca"/><use transform="matrix(0.05,0,0,0.05,10,0)" xlink:href="#bW"/><use transform="matrix(0.05,0,0,0.05,13.949999999999998,0)" xlink:href="#cl"/><use transform="matrix(0.05,0,0,0.05,23.95,0)" xlink:href="#cl"/><use transform="matrix(0.05,0,0,0.05,33.95,0)" xlink:href="#bO"/><use transform="matrix(0.05,0,0,0.05,43.95,0)" xlink:href="#bP"/></g><g id="J"><use transform="matrix(0.05,0,0,0.05,0,0)" xlink:href="#bW"/><use transform="matrix(0.05,0,0,0.05,3.95,0)" xlink:href="#bP"/><use transform="matrix(0.05,0,0,0.05,13.949999999999998,0)" xlink:href="#bR"/><use transform="matrix(0.05,0,0,0.05,22.95,0)" xlink:href="#cd"/><use transform="matrix(0.05,0,0,0.05,32.95,0)" xlink:href="#bT"/><use transform="matrix(0.05,0,0,0.05,38.900000000000006,0)" xlink:href="#bS"/><use transform="matrix(0.05,0,0,0.05,48.900000000000006,0)" xlink:href="#cb"/><use transform="matrix(0.05,0,0,0.05,58.900000000000006,0)" xlink:href="#bU"/><use transform="matrix(0.05,0,0,0.05,62.85,0)" xlink:href="#bO"/></g><g id="K"><use transform="matrix(0.05,0,0,0.05,0,0)" xlink:href="#bQ"/><use transform="matrix(0.05,0,0,0.05,5,0)" xlink:href="#ca"/><use transform="matrix(0.05,0,0,0.05,15,0)" xlink:href="#bS"/><use transform="matrix(0.05,0,0,0.05,25,0)" xlink:href="#bQ"/></g><use transform="matrix(0.05,0,0,0.05,0,0)" xlink:href="#bS" id="L"/><g id="M"><use transform="matrix(0.05,0,0,0.05,0,0)" xlink:href="#cc"/><use transform="matrix(0.05,0,0,0.05,9,0)" xlink:href="#cd"/><use transform="matrix(0.05,0,0,0.05,19,0)" xlink:href="#bR"/><use transform="matrix(0.05,0,0,0.05,28,0)" xlink:href="#bQ"/><use transform="matrix(0.05,0,0,0.05,33,0)" xlink:href="#bY"/><use transform="matrix(0.05,0,0,0.05,43,0)" xlink:href="#bX"/><use transform="matrix(0.05,0,0,0.05,57.95,0)" xlink:href="#bO"/><use transform="matrix(0.05,0,0,0.05,67.95,0)" xlink:href="#bT"/></g><g id="N"><use transform="matrix(0.05,0,0,0.05,0,0)" xlink:href="#ca"/><use transform="matrix(0.05,0,0,0.05,10,0)" xlink:href="#bS"/><use transform="matrix(0.05,0,0,0.05,20,0)" xlink:href="#bR"/></g><path d="M232-93c-1 65-40 97-104 97C67 4 28-28 28-90v-158h33c8 89-33 224 67 224 102 0 64-133 71-224h33v155" id="cp"/><g id="O"><use transform="matrix(0.05,0,0,0.05,0,0)" xlink:href="#cp"/><use transform="matrix(0.05,0,0,0.05,12.950000000000001,0)" xlink:href="#bR"/><use transform="matrix(0.05,0,0,0.05,21.950000000000003,0)" xlink:href="#bO"/><use transform="matrix(0.05,0,0,0.05,31.950000000000003,0)" xlink:href="#bR"/></g><path d="M33 0v-248h34V0H33" id="cq"/><g id="P"><use transform="matrix(0.05,0,0,0.05,0,0)" xlink:href="#bM"/><use transform="matrix(0.05,0,0,0.05,12,0)" xlink:href="#cq"/></g><g id="Q"><use transform="matrix(0.05,0,0,0.05,0,0)" xlink:href="#bS"/><use transform="matrix(0.05,0,0,0.05,10,0)" xlink:href="#cd"/><use transform="matrix(0.05,0,0,0.05,20,0)" xlink:href="#bQ"/><use transform="matrix(0.05,0,0,0.05,25,0)" xlink:href="#bY"/><use transform="matrix(0.05,0,0,0.05,35,0)" xlink:href="#bX"/><use transform="matrix(0.05,0,0,0.05,49.95,0)" xlink:href="#bS"/><use transform="matrix(0.05,0,0,0.05,59.95,0)" xlink:href="#bQ"/><use transform="matrix(0.05,0,0,0.05,64.95,0)" xlink:href="#bO"/></g><g id="R"><use transform="matrix(0.05,0,0,0.05,0,0)" xlink:href="#cj"/><use transform="matrix(0.05,0,0,0.05,10,0)" xlink:href="#bT"/><use transform="matrix(0.05,0,0,0.05,15.949999999999998,0)" xlink:href="#bY"/><use transform="matrix(0.05,0,0,0.05,25.950000000000003,0)" xlink:href="#cc"/><use transform="matrix(0.05,0,0,0.05,34.95,0)" xlink:href="#bO"/><use transform="matrix(0.05,0,0,0.05,44.95,0)" xlink:href="#bR"/><use transform="matrix(0.05,0,0,0.05,53.95,0)" xlink:href="#bR"/><use transform="matrix(0.05,0,0,0.05,62.95,0)" xlink:href="#bO"/><use transform="matrix(0.05,0,0,0.05,72.95,0)" xlink:href="#bR"/></g><g id="S"><use transform="matrix(0.05,0,0,0.05,0,0)" xlink:href="#bS"/><use transform="matrix(0.05,0,0,0.05,10,0)" xlink:href="#bP"/><use transform="matrix(0.05,0,0,0.05,20,0)" xlink:href="#cl"/></g><g id="T"><use transform="matrix(0.05,0,0,0.05,0,0)" xlink:href="#bT"/><use transform="matrix(0.05,0,0,0.05,5.95,0)" xlink:href="#bO"/><use transform="matrix(0.05,0,0,0.05,15.949999999999998,0)" xlink:href="#cl"/><use transform="matrix(0.05,0,0,0.05,25.950000000000003,0)" xlink:href="#cd"/><use transform="matrix(0.05,0,0,0.05,35.95,0)" xlink:href="#cc"/><use transform="matrix(0.05,0,0,0.05,44.95,0)" xlink:href="#bO"/></g><g id="U"><use transform="matrix(0.05,0,0,0.05,0,0)" xlink:href="#bX"/><use transform="matrix(0.05,0,0,0.05,14.950000000000001,0)" xlink:href="#bS"/><use transform="matrix(0.05,0,0,0.05,24.950000000000003,0)" xlink:href="#bP"/><use transform="matrix(0.05,0,0,0.05,34.95,0)" xlink:href="#cd"/><use transform="matrix(0.05,0,0,0.05,44.95,0)" xlink:href="#bS"/><use transform="matrix(0.05,0,0,0.05,54.95,0)" xlink:href="#bU"/></g><g id="V"><use transform="matrix(0.05,0,0,0.05,0,0)" xlink:href="#ce"/><use transform="matrix(0.05,0,0,0.05,12.950000000000001,0)" xlink:href="#bY"/><use transform="matrix(0.05,0,0,0.05,22.950000000000003,0)" xlink:href="#bT"/><use transform="matrix(0.05,0,0,0.05,28.900000000000002,0)" xlink:href="#ch"/></g><path d="M240 0l2-218c-23 76-54 145-80 218h-23L58-218 59 0H30v-248h44l77 211c21-75 51-140 76-211h43V0h-30" id="cr"/><g id="W"><use transform="matrix(0.05,0,0,0.05,0,0)" xlink:href="#cr"/><use transform="matrix(0.05,0,0,0.05,14.950000000000001,0)" xlink:href="#bS"/><use transform="matrix(0.05,0,0,0.05,24.950000000000003,0)" xlink:href="#bT"/><use transform="matrix(0.05,0,0,0.05,30.900000000000002,0)" xlink:href="#ch"/><use transform="matrix(0.05,0,0,0.05,39.900000000000006,0)" xlink:href="#bO"/><use transform="matrix(0.05,0,0,0.05,49.900000000000006,0)" xlink:href="#bQ"/><use transform="matrix(0.05,0,0,0.05,54.900000000000006,0)" xlink:href="#cj"/><use transform="matrix(0.05,0,0,0.05,64.9,0)" xlink:href="#bU"/><use transform="matrix(0.05,0,0,0.05,68.85000000000001,0)" xlink:href="#bS"/><use transform="matrix(0.05,0,0,0.05,78.85000000000001,0)" xlink:href="#cc"/><use transform="matrix(0.05,0,0,0.05,87.85000000000001,0)" xlink:href="#bO"/></g><g id="X"><use transform="matrix(0.05,0,0,0.05,0,0)" xlink:href="#cb"/><use transform="matrix(0.05,0,0,0.05,10,0)" xlink:href="#cd"/><use transform="matrix(0.05,0,0,0.05,20,0)" xlink:href="#bW"/><use transform="matrix(0.05,0,0,0.05,23.95,0)" xlink:href="#bU"/><use transform="matrix(0.05,0,0,0.05,27.899999999999995,0)" xlink:href="#cl"/></g><g id="Y"><use transform="matrix(0.05,0,0,0.05,0,0)" xlink:href="#bT"/><use transform="matrix(0.05,0,0,0.05,5.95,0)" xlink:href="#bO"/><use transform="matrix(0.05,0,0,0.05,15.949999999999998,0)" xlink:href="#bU"/><use transform="matrix(0.05,0,0,0.05,19.9,0)" xlink:href="#bS"/><use transform="matrix(0.05,0,0,0.05,29.899999999999995,0)" xlink:href="#bQ"/><use transform="matrix(0.05,0,0,0.05,34.9,0)" xlink:href="#bW"/><use transform="matrix(0.05,0,0,0.05,38.85,0)" xlink:href="#bY"/><use transform="matrix(0.05,0,0,0.05,48.85,0)" xlink:href="#bP"/><use transform="matrix(0.05,0,0,0.05,58.85,0)" xlink:href="#bR"/><use transform="matrix(0.05,0,0,0.05,67.85,0)" xlink:href="#ca"/><use transform="matrix(0.05,0,0,0.05,77.85,0)" xlink:href="#bW"/><use transform="matrix(0.05,0,0,0.05,81.8,0)" xlink:href="#cj"/><use transform="matrix(0.05,0,0,0.05,91.8,0)" xlink:href="#bR"/></g><g id="Z"><use transform="matrix(0.05,0,0,0.05,0,0)" xlink:href="#ce"/><use transform="matrix(0.05,0,0,0.05,12.950000000000001,0)" xlink:href="#bW"/><use transform="matrix(0.05,0,0,0.05,16.900000000000002,0)" xlink:href="#bQ"/><use transform="matrix(0.05,0,0,0.05,21.900000000000002,0)" xlink:href="#ca"/></g><path d="M126-127c33 6 58 20 58 59 0 88-139 92-164 29-3-8-5-16-6-25l32-3c6 27 21 44 54 44 32 0 52-15 52-46 0-38-36-46-79-43v-28c39 1 72-4 72-42 0-27-17-43-46-43-28 0-47 15-49 41l-32-3c6-42 35-63 81-64 48-1 79 21 79 65 0 36-21 52-52 59" id="cs"/><g id="aa"><use transform="matrix(0.05,0,0,0.05,0,0)" xlink:href="#cs"/><use transform="matrix(0.05,0,0,0.05,10,0)" xlink:href="#bT"/><use transform="matrix(0.05,0,0,0.05,15.949999999999998,0)" xlink:href="#cl"/></g><g id="ab"><use transform="matrix(0.05,0,0,0.05,0,0)" xlink:href="#cj"/><use transform="matrix(0.05,0,0,0.05,10,0)" xlink:href="#bS"/><use transform="matrix(0.05,0,0,0.05,20,0)" xlink:href="#bT"/><use transform="matrix(0.05,0,0,0.05,25.950000000000003,0)" xlink:href="#bQ"/><use transform="matrix(0.05,0,0,0.05,30.950000000000003,0)" xlink:href="#bZ"/></g><g id="ac"><use transform="matrix(0.05,0,0,0.05,0,0)" xlink:href="#bV"/><use transform="matrix(0.05,0,0,0.05,9,0)" xlink:href="#bO"/><use transform="matrix(0.05,0,0,0.05,19,0)" xlink:href="#bP"/><use transform="matrix(0.05,0,0,0.05,29,0)" xlink:href="#cl"/><use transform="matrix(0.05,0,0,0.05,39,0)" xlink:href="#bY"/><use transform="matrix(0.05,0,0,0.05,49,0)" xlink:href="#bT"/><use transform="matrix(0.05,0,0,0.05,54.95,0)" xlink:href="#bR"/></g><g id="ad"><use transform="matrix(0.05,0,0,0.05,0,0)" xlink:href="#co"/><use transform="matrix(0.05,0,0,0.05,12.950000000000001,0)" xlink:href="#bY"/><use transform="matrix(0.05,0,0,0.05,22.950000000000003,0)" xlink:href="#ce"/></g><g id="ae"><use transform="matrix(0.05,0,0,0.05,0,0)" xlink:href="#bX"/><use transform="matrix(0.05,0,0,0.05,14.950000000000001,0)" xlink:href="#bS"/><use transform="matrix(0.05,0,0,0.05,24.950000000000003,0)" xlink:href="#bP"/><use transform="matrix(0.05,0,0,0.05,34.95,0)" xlink:href="#bZ"/></g><g id="af"><use transform="matrix(0.05,0,0,0.05,0,0)" xlink:href="#bS"/><use transform="matrix(0.05,0,0,0.05,10,0)" xlink:href="#bN"/><use transform="matrix(0.05,0,0,0.05,20,0)" xlink:href="#bO"/><use transform="matrix(0.05,0,0,0.05,30,0)" xlink:href="#bP"/><use transform="matrix(0.05,0,0,0.05,40,0)" xlink:href="#cc"/><use transform="matrix(0.05,0,0,0.05,49,0)" xlink:href="#bW"/><use transform="matrix(0.05,0,0,0.05,52.95,0)" xlink:href="#bO"/><use transform="matrix(0.05,0,0,0.05,62.95,0)" xlink:href="#bR"/></g><g id="ag"><use transform="matrix(0.05,0,0,0.05,0,0)" xlink:href="#bO"/><use transform="matrix(0.05,0,0,0.05,10,0)" xlink:href="#bR"/><use transform="matrix(0.05,0,0,0.05,19,0)" xlink:href="#bQ"/><use transform="matrix(0.05,0,0,0.05,24,0)" xlink:href="#bS"/><use transform="matrix(0.05,0,0,0.05,34,0)" xlink:href="#cb"/><use transform="matrix(0.05,0,0,0.05,44,0)" xlink:href="#bU"/><use transform="matrix(0.05,0,0,0.05,47.95,0)" xlink:href="#bW"/><use transform="matrix(0.05,0,0,0.05,51.900000000000006,0)" xlink:href="#bR"/><use transform="matrix(0.05,0,0,0.05,60.900000000000006,0)" xlink:href="#ca"/></g><g id="ah"><use transform="matrix(0.05,0,0,0.05,0,0)" xlink:href="#bT"/><use transform="matrix(0.05,0,0,0.05,5.95,0)" xlink:href="#bO"/><use transform="matrix(0.05,0,0,0.05,15.949999999999998,0)" xlink:href="#bU"/><use transform="matrix(0.05,0,0,0.05,19.9,0)" xlink:href="#bS"/><use transform="matrix(0.05,0,0,0.05,29.899999999999995,0)" xlink:href="#bQ"/><use transform="matrix(0.05,0,0,0.05,34.9,0)" xlink:href="#bW"/><use transform="matrix(0.05,0,0,0.05,38.85,0)" xlink:href="#bY"/><use transform="matrix(0.05,0,0,0.05,48.85,0)" xlink:href="#bP"/><use transform="matrix(0.05,0,0,0.05,58.85,0)" xlink:href="#bR"/></g><g id="ai"><use transform="matrix(0.05,0,0,0.05,0,0)" xlink:href="#bW"/><use transform="matrix(0.05,0,0,0.05,3.95,0)" xlink:href="#bP"/><use transform="matrix(0.05,0,0,0.05,13.949999999999998,0)" xlink:href="#cc"/><use transform="matrix(0.05,0,0,0.05,22.95,0)" xlink:href="#bT"/><use transform="matrix(0.05,0,0,0.05,28.899999999999995,0)" xlink:href="#bO"/><use transform="matrix(0.05,0,0,0.05,38.9,0)" xlink:href="#bS"/><use transform="matrix(0.05,0,0,0.05,48.9,0)" xlink:href="#bR"/><use transform="matrix(0.05,0,0,0.05,57.900000000000006,0)" xlink:href="#bO"/><use transform="matrix(0.05,0,0,0.05,67.9,0)" xlink:href="#cl"/></g><g id="aj"><use transform="matrix(0.05,0,0,0.05,0,0)" xlink:href="#bT"/><use transform="matrix(0.05,0,0,0.05,5.95,0)" xlink:href="#bO"/><use transform="matrix(0.05,0,0,0.05,15.949999999999998,0)" xlink:href="#bV"/><use transform="matrix(0.05,0,0,0.05,24.95,0)" xlink:href="#bO"/><use transform="matrix(0.05,0,0,0.05,34.95,0)" xlink:href="#bP"/><use transform="matrix(0.05,0,0,0.05,44.95,0)" xlink:href="#cd"/><use transform="matrix(0.05,0,0,0.05,54.95,0)" xlink:href="#bO"/></g><g id="ak"><use transform="matrix(0.05,0,0,0.05,0,0)" xlink:href="#cf"/><use transform="matrix(0.05,0,0,0.05,5,0)" xlink:href="#bY"/><use transform="matrix(0.05,0,0,0.05,15,0)" xlink:href="#bT"/></g><g id="al"><use transform="matrix(0.05,0,0,0.05,0,0)" xlink:href="#cd"/><use transform="matrix(0.05,0,0,0.05,10,0)" xlink:href="#bR"/><use transform="matrix(0.05,0,0,0.05,19,0)" xlink:href="#bW"/><use transform="matrix(0.05,0,0,0.05,22.95,0)" xlink:href="#bP"/><use transform="matrix(0.05,0,0,0.05,32.95,0)" xlink:href="#bN"/></g><g id="am"><use transform="matrix(0.05,0,0,0.05,0,0)" xlink:href="#bQ"/><use transform="matrix(0.05,0,0,0.05,5,0)" xlink:href="#ca"/><use transform="matrix(0.05,0,0,0.05,15,0)" xlink:href="#bW"/><use transform="matrix(0.05,0,0,0.05,18.95,0)" xlink:href="#bR"/></g><g id="an"><use transform="matrix(0.05,0,0,0.05,0,0)" xlink:href="#cj"/><use transform="matrix(0.05,0,0,0.05,10,0)" xlink:href="#bT"/><use transform="matrix(0.05,0,0,0.05,15.949999999999998,0)" xlink:href="#bY"/><use transform="matrix(0.05,0,0,0.05,25.950000000000003,0)" xlink:href="#cl"/><use transform="matrix(0.05,0,0,0.05,35.95,0)" xlink:href="#cd"/><use transform="matrix(0.05,0,0,0.05,45.95,0)" xlink:href="#cc"/><use transform="matrix(0.05,0,0,0.05,54.95,0)" xlink:href="#bQ"/></g><path d="M24-248c93 1 206-16 204 79-1 75-69 88-152 82V0H24v-248zm52 121c47 0 100 7 100-41 0-47-54-39-100-39v80" id="ct"/><path d="M135-150c-39-12-60 13-60 57V0H25l-1-190h47c2 13-1 29 3 40 6-28 27-53 61-41v41" id="cu"/><path d="M110-194c64 0 96 36 96 99 0 64-35 99-97 99-61 0-95-36-95-99 0-62 34-99 96-99zm-1 164c35 0 45-28 45-65 0-40-10-65-43-65-34 0-45 26-45 65 0 36 10 65 43 65" id="cv"/><path d="M135-194c52 0 70 43 70 98 0 56-19 99-73 100-30 1-46-15-58-35L72 0H24l1-261h50v104c11-23 29-37 60-37zM114-30c31 0 40-27 40-66 0-37-7-63-39-63s-41 28-41 65c0 36 8 64 40 64" id="cw"/><path d="M25 0v-261h50V0H25" id="cx"/><path d="M185-48c-13 30-37 53-82 52C43 2 14-33 14-96s30-98 90-98c62 0 83 45 84 108H66c0 31 8 55 39 56 18 0 30-7 34-22zm-45-69c5-46-57-63-70-21-2 6-4 13-4 21h74" id="cy"/><path d="M220-157c-53 9-28 100-34 157h-49v-107c1-27-5-49-29-50C55-147 81-57 75 0H25l-1-190h47c2 12-1 28 3 38 10-53 101-56 108 0 13-22 24-43 59-42 82 1 51 116 57 194h-49v-107c-1-25-5-48-29-50" id="cz"/><g id="ao"><use transform="matrix(0.07407407407407408,0,0,0.07407407407407408,0,0)" xlink:href="#ct"/><use transform="matrix(0.07407407407407408,0,0,0.07407407407407408,17.77777777777778,0)" xlink:href="#cu"/><use transform="matrix(0.07407407407407408,0,0,0.07407407407407408,28.148148148148152,0)" xlink:href="#cv"/><use transform="matrix(0.07407407407407408,0,0,0.07407407407407408,44.37037037037039,0)" xlink:href="#cw"/><use transform="matrix(0.07407407407407408,0,0,0.07407407407407408,60.59259259259261,0)" xlink:href="#cx"/><use transform="matrix(0.07407407407407408,0,0,0.07407407407407408,68.00000000000001,0)" xlink:href="#cy"/><use transform="matrix(0.07407407407407408,0,0,0.07407407407407408,82.81481481481484,0)" xlink:href="#cz"/></g><path d="M169-182c-1-43-94-46-97-3 18 66 151 10 154 114 3 95-165 93-204 36-6-8-10-19-12-30l50-8c3 46 112 56 116 5-17-69-150-10-154-114-4-87 153-88 188-35 5 8 8 18 10 28" id="cA"/><path d="M85 4C-2 5 27-109 22-190h50c7 57-23 150 33 157 60-5 35-97 40-157h50l1 190h-47c-2-12 1-28-3-38-12 25-28 42-61 42" id="cB"/><path d="M115-3C79 11 28 4 28-45v-112H4v-33h27l15-45h31v45h36v33H77v99c-1 23 16 31 38 25v30" id="cC"/><path d="M25-224v-37h50v37H25zM25 0v-190h50V0H25" id="cD"/><path d="M135-194c87-1 58 113 63 194h-50c-7-57 23-157-34-157-59 0-34 97-39 157H25l-1-190h47c2 12-1 28 3 38 12-26 28-41 61-42" id="cE"/><g id="ap"><use transform="matrix(0.07407407407407408,0,0,0.07407407407407408,0,0)" xlink:href="#cA"/><use transform="matrix(0.07407407407407408,0,0,0.07407407407407408,17.77777777777778,0)" xlink:href="#cv"/><use transform="matrix(0.07407407407407408,0,0,0.07407407407407408,34,0)" xlink:href="#cx"/><use transform="matrix(0.07407407407407408,0,0,0.07407407407407408,41.407407407407405,0)" xlink:href="#cB"/><use transform="matrix(0.07407407407407408,0,0,0.07407407407407408,57.62962962962964,0)" xlink:href="#cC"/><use transform="matrix(0.07407407407407408,0,0,0.07407407407407408,66.44444444444446,0)" xlink:href="#cD"/><use transform="matrix(0.07407407407407408,0,0,0.07407407407407408,73.85185185185186,0)" xlink:href="#cv"/><use transform="matrix(0.07407407407407408,0,0,0.07407407407407408,90.07407407407409,0)" xlink:href="#cE"/></g><path d="M238-95c0 69-44 99-111 99C63 4 22-25 22-93v-155h51v151c-1 38 19 59 55 60 90 1 49-130 58-211h52v153" id="cF"/><path d="M84 4C32 4 15-41 15-95c0-55 18-99 73-99 29 0 47 12 58 34l2-30h48l-1 265h-49V-32C136-9 114 4 84 4zm21-34c32 0 41-29 41-66 0-36-9-64-40-64-33 0-39 30-40 65 0 43 13 65 39 65" id="cG"/><g id="aq"><use transform="matrix(0.07407407407407408,0,0,0.07407407407407408,0,0)" xlink:href="#cF"/><use transform="matrix(0.07407407407407408,0,0,0.07407407407407408,19.185185185185187,0)" xlink:href="#cE"/><use transform="matrix(0.07407407407407408,0,0,0.07407407407407408,35.40740740740741,0)" xlink:href="#cD"/><use transform="matrix(0.07407407407407408,0,0,0.07407407407407408,42.814814814814824,0)" xlink:href="#cG"/><use transform="matrix(0.07407407407407408,0,0,0.07407407407407408,59.03703703703705,0)" xlink:href="#cB"/><use transform="matrix(0.07407407407407408,0,0,0.07407407407407408,75.25925925925928,0)" xlink:href="#cy"/></g><path d="M147 0H94L2-248h55l64 206c17-72 42-137 63-206h54" id="cH"/><path d="M133-34C117-15 103 5 69 4 32 3 11-16 11-54c-1-60 55-63 116-61 1-26-3-47-28-47-18 1-26 9-28 27l-52-2c7-38 36-58 82-57s74 22 75 68l1 82c-1 14 12 18 25 15v27c-30 8-71 5-69-32zm-48 3c29 0 43-24 42-57-32 0-66-3-65 30 0 17 8 27 23 27" id="cI"/><g id="ar"><use transform="matrix(0.07407407407407408,0,0,0.07407407407407408,0,0)" xlink:href="#cH"/><use transform="matrix(0.07407407407407408,0,0,0.07407407407407408,16.296296296296298,0)" xlink:href="#cI"/><use transform="matrix(0.07407407407407408,0,0,0.07407407407407408,31.111111111111114,0)" xlink:href="#cx"/><use transform="matrix(0.07407407407407408,0,0,0.07407407407407408,38.51851851851851,0)" xlink:href="#cB"/><use transform="matrix(0.07407407407407408,0,0,0.07407407407407408,54.74074074074075,0)" xlink:href="#cy"/></g><path d="M135-194c53 0 70 44 70 98 0 56-19 98-73 100-31 1-45-17-59-34 3 33 2 69 2 105H25l-1-265h48c2 10 0 23 3 31 11-24 29-35 60-35zM114-30c33 0 39-31 40-66 0-38-9-64-40-64-56 0-55 130 0 130" id="cJ"/><path d="M137-138c1-29-70-34-71-4 15 46 118 7 119 86 1 83-164 76-172 9l43-7c4 19 20 25 44 25 33 8 57-30 24-41C81-84 22-81 20-136c-2-80 154-74 161-7" id="cK"/><g id="as"><use transform="matrix(0.07407407407407408,0,0,0.07407407407407408,0,0)" xlink:href="#ct"/><use transform="matrix(0.07407407407407408,0,0,0.07407407407407408,17.77777777777778,0)" xlink:href="#cu"/><use transform="matrix(0.07407407407407408,0,0,0.07407407407407408,28.148148148148152,0)" xlink:href="#cv"/><use transform="matrix(0.07407407407407408,0,0,0.07407407407407408,44.37037037037039,0)" xlink:href="#cJ"/><use transform="matrix(0.07407407407407408,0,0,0.07407407407407408,60.59259259259261,0)" xlink:href="#cv"/><use transform="matrix(0.07407407407407408,0,0,0.07407407407407408,76.81481481481484,0)" xlink:href="#cK"/><use transform="matrix(0.07407407407407408,0,0,0.07407407407407408,91.62962962962965,0)" xlink:href="#cD"/><use transform="matrix(0.07407407407407408,0,0,0.07407407407407408,99.03703703703705,0)" xlink:href="#cC"/><use transform="matrix(0.07407407407407408,0,0,0.07407407407407408,107.85185185185188,0)" xlink:href="#cD"/><use transform="matrix(0.07407407407407408,0,0,0.07407407407407408,115.25925925925928,0)" xlink:href="#cv"/><use transform="matrix(0.07407407407407408,0,0,0.07407407407407408,131.4814814814815,0)" xlink:href="#cE"/></g><path d="M266 0h-40l-56-210L115 0H75L2-248h35L96-30l15-64 43-154h32l59 218 59-218h35" id="cL"/><g id="at"><use transform="matrix(0.05,0,0,0.05,0,0)" xlink:href="#cL"/><use transform="matrix(0.05,0,0,0.05,16.599999999999998,0)" xlink:href="#bO"/></g><g id="au"><use transform="matrix(0.05,0,0,0.05,0,0)" xlink:href="#bN"/><use transform="matrix(0.05,0,0,0.05,10,0)" xlink:href="#cd"/><use transform="matrix(0.05,0,0,0.05,20,0)" xlink:href="#bW"/><use transform="matrix(0.05,0,0,0.05,23.95,0)" xlink:href="#cl"/><use transform="matrix(0.05,0,0,0.05,33.95,0)" xlink:href="#bO"/></g><g id="av"><use transform="matrix(0.05,0,0,0.05,0,0)" xlink:href="#bW"/><use transform="matrix(0.05,0,0,0.05,3.95,0)" xlink:href="#bP"/></g><g id="aw"><use transform="matrix(0.05,0,0,0.05,0,0)" xlink:href="#bQ"/><use transform="matrix(0.05,0,0,0.05,5,0)" xlink:href="#ca"/><use transform="matrix(0.05,0,0,0.05,15,0)" xlink:href="#bO"/></g><g id="ax"><use transform="matrix(0.05,0,0,0.05,0,0)" xlink:href="#bT"/><use transform="matrix(0.05,0,0,0.05,5.95,0)" xlink:href="#bW"/><use transform="matrix(0.05,0,0,0.05,9.9,0)" xlink:href="#bN"/><use transform="matrix(0.05,0,0,0.05,19.9,0)" xlink:href="#ca"/><use transform="matrix(0.05,0,0,0.05,29.899999999999995,0)" xlink:href="#bQ"/></g><g id="ay"><use transform="matrix(0.05,0,0,0.05,0,0)" xlink:href="#ci"/><use transform="matrix(0.05,0,0,0.05,10,0)" xlink:href="#cd"/><use transform="matrix(0.05,0,0,0.05,20,0)" xlink:href="#bO"/><use transform="matrix(0.05,0,0,0.05,30,0)" xlink:href="#bR"/><use transform="matrix(0.05,0,0,0.05,39,0)" xlink:href="#bQ"/><use transform="matrix(0.05,0,0,0.05,44,0)" xlink:href="#bW"/><use transform="matrix(0.05,0,0,0.05,47.95,0)" xlink:href="#bY"/><use transform="matrix(0.05,0,0,0.05,57.95,0)" xlink:href="#bP"/><use transform="matrix(0.05,0,0,0.05,67.95,0)" xlink:href="#bR"/></g><g id="az"><use transform="matrix(0.05,0,0,0.05,0,0)" xlink:href="#cd"/><use transform="matrix(0.05,0,0,0.05,10,0)" xlink:href="#bP"/><use transform="matrix(0.05,0,0,0.05,20,0)" xlink:href="#cc"/><use transform="matrix(0.05,0,0,0.05,29,0)" xlink:href="#bY"/><use transform="matrix(0.05,0,0,0.05,39,0)" xlink:href="#bV"/><use transform="matrix(0.05,0,0,0.05,48,0)" xlink:href="#bO"/><use transform="matrix(0.05,0,0,0.05,58,0)" xlink:href="#bT"/></g><g id="aA"><use transform="matrix(0.05,0,0,0.05,0,0)" xlink:href="#bX"/><use transform="matrix(0.05,0,0,0.05,14.950000000000001,0)" xlink:href="#bW"/><use transform="matrix(0.05,0,0,0.05,18.900000000000002,0)" xlink:href="#bR"/><use transform="matrix(0.05,0,0,0.05,27.900000000000002,0)" xlink:href="#bR"/><use transform="matrix(0.05,0,0,0.05,36.900000000000006,0)" xlink:href="#bW"/><use transform="matrix(0.05,0,0,0.05,40.85000000000001,0)" xlink:href="#bP"/><use transform="matrix(0.05,0,0,0.05,50.85000000000001,0)" xlink:href="#bN"/></g><g id="aB"><use transform="matrix(0.05,0,0,0.05,0,0)" xlink:href="#bT"/><use transform="matrix(0.05,0,0,0.05,5.95,0)" xlink:href="#bO"/><use transform="matrix(0.05,0,0,0.05,15.949999999999998,0)" xlink:href="#bV"/><use transform="matrix(0.05,0,0,0.05,24.95,0)" xlink:href="#bO"/><use transform="matrix(0.05,0,0,0.05,34.95,0)" xlink:href="#bP"/><use transform="matrix(0.05,0,0,0.05,44.95,0)" xlink:href="#cd"/><use transform="matrix(0.05,0,0,0.05,54.95,0)" xlink:href="#bO"/></g><path d="M121-226c-27-7-43 5-38 36h38v33H83V0H34v-157H6v-33h28c-9-59 32-81 87-68v32" id="cM"/><g id="aC"><use transform="matrix(0.07407407407407408,0,0,0.07407407407407408,0,0)" xlink:href="#cF"/><use transform="matrix(0.07407407407407408,0,0,0.07407407407407408,19.185185185185187,0)" xlink:href="#cE"/><use transform="matrix(0.07407407407407408,0,0,0.07407407407407408,35.40740740740741,0)" xlink:href="#cM"/><use transform="matrix(0.07407407407407408,0,0,0.07407407407407408,44.22222222222223,0)" xlink:href="#cI"/><use transform="matrix(0.07407407407407408,0,0,0.07407407407407408,59.037037037037045,0)" xlink:href="#cD"/><use transform="matrix(0.07407407407407408,0,0,0.07407407407407408,66.44444444444446,0)" xlink:href="#cu"/></g><path d="M199 0l-22-63H83L61 0H9l90-248h61L250 0h-51zm-33-102l-36-108c-10 38-24 72-36 108h72" id="cN"/><path d="M88-194c31-1 46 15 58 34l-1-101h50l1 261h-48c-2-10 0-23-3-31C134-8 116 4 84 4 32 4 16-41 15-95c0-56 19-97 73-99zm17 164c33 0 40-30 41-66 1-37-9-64-41-64s-38 30-39 65c0 43 13 65 39 65" id="cO"/><path d="M128 0H69L1-190h53L99-40l48-150h52" id="cP"/><path d="M195-6C206 82 75 100 31 46c-4-6-6-13-8-21l49-6c3 16 16 24 34 25 40 0 42-37 40-79-11 22-30 35-61 35-53 0-70-43-70-97 0-56 18-96 73-97 30 0 46 14 59 34l2-30h47zm-90-29c32 0 41-27 41-63 0-35-9-62-40-62-32 0-39 29-40 63 0 36 9 62 39 62" id="cQ"/><g id="aD"><use transform="matrix(0.07407407407407408,0,0,0.07407407407407408,0,0)" xlink:href="#cN"/><use transform="matrix(0.07407407407407408,0,0,0.07407407407407408,19.185185185185187,0)" xlink:href="#cO"/><use transform="matrix(0.07407407407407408,0,0,0.07407407407407408,35.40740740740741,0)" xlink:href="#cP"/><use transform="matrix(0.07407407407407408,0,0,0.07407407407407408,50.22222222222223,0)" xlink:href="#cI"/><use transform="matrix(0.07407407407407408,0,0,0.07407407407407408,65.03703703703704,0)" xlink:href="#cE"/><use transform="matrix(0.07407407407407408,0,0,0.07407407407407408,81.25925925925927,0)" xlink:href="#cC"/><use transform="matrix(0.07407407407407408,0,0,0.07407407407407408,90.07407407407408,0)" xlink:href="#cI"/><use transform="matrix(0.07407407407407408,0,0,0.07407407407407408,104.88888888888889,0)" xlink:href="#cQ"/><use transform="matrix(0.07407407407407408,0,0,0.07407407407407408,121.11111111111111,0)" xlink:href="#cy"/></g><path d="M30 0v-248h187v28H63v79h144v27H63v87h162V0H30" id="cR"/><g id="aE"><use transform="matrix(0.05,0,0,0.05,0,0)" xlink:href="#cR"/><use transform="matrix(0.05,0,0,0.05,12,0)" xlink:href="#cn"/><use transform="matrix(0.05,0,0,0.05,21,0)" xlink:href="#bW"/><use transform="matrix(0.05,0,0,0.05,24.95,0)" xlink:href="#bR"/><use transform="matrix(0.05,0,0,0.05,33.95,0)" xlink:href="#bQ"/><use transform="matrix(0.05,0,0,0.05,38.95,0)" xlink:href="#bW"/><use transform="matrix(0.05,0,0,0.05,42.900000000000006,0)" xlink:href="#bP"/><use transform="matrix(0.05,0,0,0.05,52.900000000000006,0)" xlink:href="#bN"/></g><g id="aF"><use transform="matrix(0.05,0,0,0.05,0,0)" xlink:href="#cc"/><use transform="matrix(0.05,0,0,0.05,9,0)" xlink:href="#bS"/><use transform="matrix(0.05,0,0,0.05,19,0)" xlink:href="#bT"/><use transform="matrix(0.05,0,0,0.05,24.95,0)" xlink:href="#bT"/><use transform="matrix(0.05,0,0,0.05,30.899999999999995,0)" xlink:href="#bW"/><use transform="matrix(0.05,0,0,0.05,34.85,0)" xlink:href="#bO"/><use transform="matrix(0.05,0,0,0.05,44.85,0)" xlink:href="#bT"/><use transform="matrix(0.05,0,0,0.05,50.800000000000004,0)" xlink:href="#bR"/><use transform="matrix(0.05,0,0,0.05,59.800000000000004,0)" xlink:href="#cm"/></g><path d="M87 75C49 33 22-17 22-94c0-76 28-126 65-167h31c-38 41-64 92-64 168S80 34 118 75H87" id="cS"/><g id="aG"><use transform="matrix(0.05,0,0,0.05,0,0)" xlink:href="#cS"/><use transform="matrix(0.05,0,0,0.05,5.95,0)" xlink:href="#bQ"/><use transform="matrix(0.05,0,0,0.05,10.95,0)" xlink:href="#bT"/><use transform="matrix(0.05,0,0,0.05,16.9,0)" xlink:href="#bS"/><use transform="matrix(0.05,0,0,0.05,26.899999999999995,0)" xlink:href="#cl"/><use transform="matrix(0.05,0,0,0.05,36.9,0)" xlink:href="#bW"/><use transform="matrix(0.05,0,0,0.05,40.85,0)" xlink:href="#bQ"/><use transform="matrix(0.05,0,0,0.05,45.85,0)" xlink:href="#bW"/><use transform="matrix(0.05,0,0,0.05,49.800000000000004,0)" xlink:href="#bY"/><use transform="matrix(0.05,0,0,0.05,59.800000000000004,0)" xlink:href="#bP"/><use transform="matrix(0.05,0,0,0.05,69.80000000000001,0)" xlink:href="#bS"/><use transform="matrix(0.05,0,0,0.05,79.80000000000001,0)" xlink:href="#bU"/><use transform="matrix(0.05,0,0,0.05,83.75000000000001,0)" xlink:href="#bU"/><use transform="matrix(0.05,0,0,0.05,87.70000000000002,0)" xlink:href="#bZ"/></g><g id="aH"><use transform="matrix(0.05,0,0,0.05,0,0)" xlink:href="#bQ"/><use transform="matrix(0.05,0,0,0.05,5,0)" xlink:href="#bS"/><use transform="matrix(0.05,0,0,0.05,15,0)" xlink:href="#ch"/><use transform="matrix(0.05,0,0,0.05,24,0)" xlink:href="#bO"/><use transform="matrix(0.05,0,0,0.05,34,0)" xlink:href="#bR"/></g><g id="aI"><use transform="matrix(0.05,0,0,0.05,0,0)" xlink:href="#bZ"/><use transform="matrix(0.05,0,0,0.05,9,0)" xlink:href="#bO"/><use transform="matrix(0.05,0,0,0.05,19,0)" xlink:href="#bS"/><use transform="matrix(0.05,0,0,0.05,29,0)" xlink:href="#bT"/><use transform="matrix(0.05,0,0,0.05,34.95,0)" xlink:href="#bR"/></g><path d="M33-261c38 41 65 92 65 168S71 34 33 75H2C39 34 66-17 66-93S39-220 2-261h31" id="cT"/><g id="aJ"><use transform="matrix(0.05,0,0,0.05,0,0)" xlink:href="#cb"/><use transform="matrix(0.05,0,0,0.05,10,0)" xlink:href="#cd"/><use transform="matrix(0.05,0,0,0.05,20,0)" xlink:href="#bW"/><use transform="matrix(0.05,0,0,0.05,23.95,0)" xlink:href="#bU"/><use transform="matrix(0.05,0,0,0.05,27.899999999999995,0)" xlink:href="#cl"/><use transform="matrix(0.05,0,0,0.05,37.9,0)" xlink:href="#cT"/></g><path d="M67-125c0 53 21 87 73 88 37 1 54-22 65-47l45 17C233-25 199 4 140 4 58 4 20-42 15-125 8-235 124-281 211-232c18 10 29 29 36 50l-46 12c-8-25-30-41-62-41-52 0-71 34-72 86" id="cU"/><g id="aK"><use transform="matrix(0.07407407407407408,0,0,0.07407407407407408,0,0)" xlink:href="#cU"/><use transform="matrix(0.07407407407407408,0,0,0.07407407407407408,19.185185185185187,0)" xlink:href="#cB"/><use transform="matrix(0.07407407407407408,0,0,0.07407407407407408,35.40740740740741,0)" xlink:href="#cK"/><use transform="matrix(0.07407407407407408,0,0,0.07407407407407408,50.22222222222223,0)" xlink:href="#cC"/><use transform="matrix(0.07407407407407408,0,0,0.07407407407407408,59.037037037037045,0)" xlink:href="#cv"/><use transform="matrix(0.07407407407407408,0,0,0.07407407407407408,75.25925925925927,0)" xlink:href="#cz"/><use transform="matrix(0.07407407407407408,0,0,0.07407407407407408,98.96296296296298,0)" xlink:href="#cy"/><use transform="matrix(0.07407407407407408,0,0,0.07407407407407408,113.7777777777778,0)" xlink:href="#cu"/></g><g id="aL"><use transform="matrix(0.07407407407407408,0,0,0.07407407407407408,0,0)" xlink:href="#cA"/><use transform="matrix(0.07407407407407408,0,0,0.07407407407407408,17.77777777777778,0)" xlink:href="#cy"/><use transform="matrix(0.07407407407407408,0,0,0.07407407407407408,32.592592592592595,0)" xlink:href="#cQ"/><use transform="matrix(0.07407407407407408,0,0,0.07407407407407408,48.814814814814824,0)" xlink:href="#cz"/><use transform="matrix(0.07407407407407408,0,0,0.07407407407407408,72.51851851851853,0)" xlink:href="#cy"/><use transform="matrix(0.07407407407407408,0,0,0.07407407407407408,87.33333333333334,0)" xlink:href="#cE"/><use transform="matrix(0.07407407407407408,0,0,0.07407407407407408,103.55555555555557,0)" xlink:href="#cC"/><use transform="matrix(0.07407407407407408,0,0,0.07407407407407408,112.37037037037038,0)" xlink:href="#cK"/></g><g id="aM"><use transform="matrix(0.05,0,0,0.05,0,0)" xlink:href="#cr"/><use transform="matrix(0.05,0,0,0.05,14.950000000000001,0)" xlink:href="#bY"/><use transform="matrix(0.05,0,0,0.05,24.950000000000003,0)" xlink:href="#bX"/></g><path d="M118-107v75H92v-75H18v-26h74v-75h26v75h74v26h-74" id="cV"/><use transform="matrix(0.05,0,0,0.05,0,0)" xlink:href="#cV" id="aN"/><path d="M30-248c87 1 191-15 191 75 0 78-77 80-158 76V0H30v-248zm33 125c57 0 124 11 124-50 0-59-68-47-124-48v98" id="cW"/><g id="aO"><use transform="matrix(0.05,0,0,0.05,0,0)" xlink:href="#cW"/><use transform="matrix(0.05,0,0,0.05,12,0)" xlink:href="#bY"/><use transform="matrix(0.05,0,0,0.05,22,0)" xlink:href="#cj"/></g><path d="M185-189c-5-48-123-54-124 2 14 75 158 14 163 119 3 78-121 87-175 55-17-10-28-26-33-46l33-7c5 56 141 63 141-1 0-78-155-14-162-118-5-82 145-84 179-34 5 7 8 16 11 25" id="cX"/><g id="aP"><use transform="matrix(0.05,0,0,0.05,0,0)" xlink:href="#cS"/><use transform="matrix(0.05,0,0,0.05,5.95,0)" xlink:href="#cX"/><use transform="matrix(0.05,0,0,0.05,17.95,0)" xlink:href="#bX"/><use transform="matrix(0.05,0,0,0.05,32.9,0)" xlink:href="#bS"/><use transform="matrix(0.05,0,0,0.05,42.9,0)" xlink:href="#bU"/><use transform="matrix(0.05,0,0,0.05,46.85,0)" xlink:href="#bU"/><use transform="matrix(0.05,0,0,0.05,50.800000000000004,0)" xlink:href="#cT"/></g><g id="aQ"><use transform="matrix(0.05,0,0,0.05,0,0)" xlink:href="#bM"/><use transform="matrix(0.05,0,0,0.05,12,0)" xlink:href="#bN"/><use transform="matrix(0.05,0,0,0.05,22,0)" xlink:href="#bO"/><use transform="matrix(0.05,0,0,0.05,32,0)" xlink:href="#bP"/><use transform="matrix(0.05,0,0,0.05,42,0)" xlink:href="#cc"/><use transform="matrix(0.05,0,0,0.05,51,0)" xlink:href="#bZ"/></g><path d="M153-248C145-148 188 4 80 4 36 3 13-21 6-62l32-5c4 25 16 42 43 43 27 0 39-20 39-49v-147H72v-28h81" id="cY"/><g id="aR"><use transform="matrix(0.05,0,0,0.05,0,0)" xlink:href="#cY"/><use transform="matrix(0.05,0,0,0.05,9,0)" xlink:href="#cd"/><use transform="matrix(0.05,0,0,0.05,19,0)" xlink:href="#bX"/><use transform="matrix(0.05,0,0,0.05,33.95,0)" xlink:href="#cb"/><use transform="matrix(0.05,0,0,0.05,43.95,0)" xlink:href="#bY"/></g><g id="aS"><use transform="matrix(0.05,0,0,0.05,0,0)" xlink:href="#cS"/><use transform="matrix(0.05,0,0,0.05,5.95,0)" xlink:href="#cR"/><use transform="matrix(0.05,0,0,0.05,17.95,0)" xlink:href="#bP"/><use transform="matrix(0.05,0,0,0.05,27.950000000000003,0)" xlink:href="#bQ"/><use transform="matrix(0.05,0,0,0.05,32.95,0)" xlink:href="#bO"/><use transform="matrix(0.05,0,0,0.05,42.95,0)" xlink:href="#bT"/><use transform="matrix(0.05,0,0,0.05,48.900000000000006,0)" xlink:href="#cj"/><use transform="matrix(0.05,0,0,0.05,58.900000000000006,0)" xlink:href="#bT"/><use transform="matrix(0.05,0,0,0.05,64.85000000000001,0)" xlink:href="#bW"/><use transform="matrix(0.05,0,0,0.05,68.80000000000001,0)" xlink:href="#bR"/><use transform="matrix(0.05,0,0,0.05,77.80000000000001,0)" xlink:href="#bO"/><use transform="matrix(0.05,0,0,0.05,87.80000000000001,0)" xlink:href="#cT"/></g><g id="aT"><use transform="matrix(0.05,0,0,0.05,0,0)" xlink:href="#bM"/><use transform="matrix(0.05,0,0,0.05,12,0)" xlink:href="#bN"/><use transform="matrix(0.05,0,0,0.05,22,0)" xlink:href="#bO"/><use transform="matrix(0.05,0,0,0.05,32,0)" xlink:href="#bP"/><use transform="matrix(0.05,0,0,0.05,42,0)" xlink:href="#cc"/><use transform="matrix(0.05,0,0,0.05,51,0)" xlink:href="#bZ"/></g><path d="M212-179c-10-28-35-45-73-45-59 0-87 40-87 99 0 60 29 101 89 101 43 0 62-24 78-52l27 14C228-24 195 4 139 4 59 4 22-46 18-125c-6-104 99-153 187-111 19 9 31 26 39 46" id="cZ"/><path d="M233-177c-1 41-23 64-60 70L243 0h-38l-65-103H63V0H30v-248c88 3 205-21 203 71zM63-129c60-2 137 13 137-47 0-61-80-42-137-45v92" id="da"/><g id="aU"><use transform="matrix(0.05,0,0,0.05,0,0)" xlink:href="#cZ"/><use transform="matrix(0.05,0,0,0.05,12.950000000000001,0)" xlink:href="#cX"/><use transform="matrix(0.05,0,0,0.05,24.950000000000003,0)" xlink:href="#da"/><use transform="matrix(0.05,0,0,0.05,37.900000000000006,0)" xlink:href="#bR"/></g><g id="aV"><use transform="matrix(0.05,0,0,0.05,0,0)" xlink:href="#cX"/><use transform="matrix(0.05,0,0,0.05,12,0)" xlink:href="#bS"/><use transform="matrix(0.05,0,0,0.05,22,0)" xlink:href="#bU"/><use transform="matrix(0.05,0,0,0.05,25.950000000000003,0)" xlink:href="#bO"/><use transform="matrix(0.05,0,0,0.05,35.95,0)" xlink:href="#bR"/></g><path d="M127-220V0H93v-220H8v-28h204v28h-85" id="db"/><g id="aW"><use transform="matrix(0.05,0,0,0.05,0,0)" xlink:href="#db"/><use transform="matrix(0.05,0,0,0.05,8.950000000000001,0)" xlink:href="#bO"/><use transform="matrix(0.05,0,0,0.05,18.950000000000003,0)" xlink:href="#bS"/><use transform="matrix(0.05,0,0,0.05,28.950000000000003,0)" xlink:href="#bX"/></g><path d="M16-82v-28h88v28H16" id="dc"/><g id="aX"><use transform="matrix(0.05,0,0,0.05,0,0)" xlink:href="#cq"/><use transform="matrix(0.05,0,0,0.05,5,0)" xlink:href="#bP"/><use transform="matrix(0.05,0,0,0.05,15,0)" xlink:href="#dc"/><use transform="matrix(0.05,0,0,0.05,20.95,0)" xlink:href="#bM"/><use transform="matrix(0.05,0,0,0.05,32.95,0)" xlink:href="#cj"/><use transform="matrix(0.05,0,0,0.05,42.95,0)" xlink:href="#cj"/></g><g id="aY"><use transform="matrix(0.05,0,0,0.05,0,0)" xlink:href="#bM"/><use transform="matrix(0.05,0,0,0.05,12,0)" xlink:href="#cl"/><use transform="matrix(0.05,0,0,0.05,22,0)" xlink:href="#bR"/></g><g id="aZ"><use transform="matrix(0.05,0,0,0.05,0,0)" xlink:href="#cR"/><use transform="matrix(0.05,0,0,0.05,12,0)" xlink:href="#bV"/><use transform="matrix(0.05,0,0,0.05,21,0)" xlink:href="#bO"/><use transform="matrix(0.05,0,0,0.05,31,0)" xlink:href="#bP"/><use transform="matrix(0.05,0,0,0.05,41,0)" xlink:href="#bQ"/><use transform="matrix(0.05,0,0,0.05,46,0)" xlink:href="#bR"/></g><path d="M0 4l72-265h28L28 4H0" id="dd"/><use transform="matrix(0.05,0,0,0.05,0,0)" xlink:href="#dd" id="ba"/><g id="bb"><use transform="matrix(0.05,0,0,0.05,0,0)" xlink:href="#db"/><use transform="matrix(0.05,0,0,0.05,10.3,0)" xlink:href="#bT"/><use transform="matrix(0.05,0,0,0.05,16.25,0)" xlink:href="#bS"/><use transform="matrix(0.05,0,0,0.05,26.25,0)" xlink:href="#cl"/><use transform="matrix(0.05,0,0,0.05,36.25,0)" xlink:href="#bO"/><use transform="matrix(0.05,0,0,0.05,46.25,0)" xlink:href="#bR"/><use transform="matrix(0.05,0,0,0.05,55.25,0)" xlink:href="#ca"/><use transform="matrix(0.05,0,0,0.05,65.25,0)" xlink:href="#bY"/><use transform="matrix(0.05,0,0,0.05,75.25,0)" xlink:href="#ce"/></g><g id="bc"><use transform="matrix(0.05,0,0,0.05,0,0)" xlink:href="#cp"/><use transform="matrix(0.05,0,0,0.05,12.950000000000001,0)" xlink:href="#cj"/><use transform="matrix(0.05,0,0,0.05,22.950000000000003,0)" xlink:href="#bR"/><use transform="matrix(0.05,0,0,0.05,31.950000000000003,0)" xlink:href="#bO"/><use transform="matrix(0.05,0,0,0.05,41.95,0)" xlink:href="#bU"/><use transform="matrix(0.05,0,0,0.05,45.900000000000006,0)" xlink:href="#bU"/><use transform="matrix(0.05,0,0,0.05,49.85000000000001,0)" xlink:href="#bW"/><use transform="matrix(0.05,0,0,0.05,53.80000000000001,0)" xlink:href="#bP"/><use transform="matrix(0.05,0,0,0.05,63.80000000000001,0)" xlink:href="#bN"/></g><g id="bd"><use transform="matrix(0.05,0,0,0.05,0,0)" xlink:href="#cR"/><use transform="matrix(0.05,0,0,0.05,12,0)" xlink:href="#cn"/><use transform="matrix(0.05,0,0,0.05,21,0)" xlink:href="#bW"/><use transform="matrix(0.05,0,0,0.05,24.95,0)" xlink:href="#bR"/><use transform="matrix(0.05,0,0,0.05,33.95,0)" xlink:href="#bQ"/><use transform="matrix(0.05,0,0,0.05,38.95,0)" xlink:href="#bW"/><use transform="matrix(0.05,0,0,0.05,42.900000000000006,0)" xlink:href="#bP"/><use transform="matrix(0.05,0,0,0.05,52.900000000000006,0)" xlink:href="#bN"/></g><g id="be"><use transform="matrix(0.05,0,0,0.05,0,0)" xlink:href="#cZ"/><use transform="matrix(0.05,0,0,0.05,12.950000000000001,0)" xlink:href="#cd"/><use transform="matrix(0.05,0,0,0.05,22.950000000000003,0)" xlink:href="#bR"/><use transform="matrix(0.05,0,0,0.05,31.950000000000003,0)" xlink:href="#bQ"/><use transform="matrix(0.05,0,0,0.05,36.95,0)" xlink:href="#bY"/><use transform="matrix(0.05,0,0,0.05,46.95,0)" xlink:href="#bX"/><use transform="matrix(0.05,0,0,0.05,61.900000000000006,0)" xlink:href="#bO"/><use transform="matrix(0.05,0,0,0.05,71.9,0)" xlink:href="#bT"/><use transform="matrix(0.05,0,0,0.05,77.85000000000001,0)" xlink:href="#bR"/></g><path d="M195 0l-88-114-31 24V0H24v-248h52v113l112-113h60L142-143 257 0h-62" id="de"/><path d="M123 10C108 53 80 86 19 72V37c35 8 53-11 59-39L3-190h52l48 148c12-52 28-100 44-148h51" id="df"/><g id="bf"><use transform="matrix(0.07407407407407408,0,0,0.07407407407407408,0,0)" xlink:href="#de"/><use transform="matrix(0.07407407407407408,0,0,0.07407407407407408,19.185185185185187,0)" xlink:href="#cy"/><use transform="matrix(0.07407407407407408,0,0,0.07407407407407408,34,0)" xlink:href="#df"/></g><path d="M230 0l2-204L168 0h-37L68-204 70 0H24v-248h70l56 185 57-185h69V0h-46" id="dg"/><path d="M190-63c-7 42-38 67-86 67-59 0-84-38-90-98-12-110 154-137 174-36l-49 2c-2-19-15-32-35-32-30 0-35 28-38 64-6 74 65 87 74 30" id="dh"/><g id="bg"><use transform="matrix(0.07407407407407408,0,0,0.07407407407407408,0,0)" xlink:href="#dg"/><use transform="matrix(0.07407407407407408,0,0,0.07407407407407408,22.148148148148152,0)" xlink:href="#cy"/><use transform="matrix(0.07407407407407408,0,0,0.07407407407407408,36.96296296296297,0)" xlink:href="#cC"/><use transform="matrix(0.07407407407407408,0,0,0.07407407407407408,45.777777777777786,0)" xlink:href="#cu"/><use transform="matrix(0.07407407407407408,0,0,0.07407407407407408,56.14814814814815,0)" xlink:href="#cD"/><use transform="matrix(0.07407407407407408,0,0,0.07407407407407408,63.55555555555557,0)" xlink:href="#dh"/><use transform="matrix(0.07407407407407408,0,0,0.07407407407407408,78.37037037037038,0)" xlink:href="#cK"/></g><g id="bh"><use transform="matrix(0.07407407407407408,0,0,0.07407407407407408,0,0)" xlink:href="#cU"/><use transform="matrix(0.07407407407407408,0,0,0.07407407407407408,19.185185185185187,0)" xlink:href="#cv"/><use transform="matrix(0.07407407407407408,0,0,0.07407407407407408,35.40740740740741,0)" xlink:href="#cK"/><use transform="matrix(0.07407407407407408,0,0,0.07407407407407408,50.22222222222223,0)" xlink:href="#cC"/></g><g id="bi"><use transform="matrix(0.07407407407407408,0,0,0.07407407407407408,0,0)" xlink:href="#cA"/><use transform="matrix(0.07407407407407408,0,0,0.07407407407407408,17.77777777777778,0)" xlink:href="#cC"/><use transform="matrix(0.07407407407407408,0,0,0.07407407407407408,26.592592592592595,0)" xlink:href="#cu"/><use transform="matrix(0.07407407407407408,0,0,0.07407407407407408,36.96296296296297,0)" xlink:href="#cB"/><use transform="matrix(0.07407407407407408,0,0,0.07407407407407408,53.18518518518519,0)" xlink:href="#dh"/><use transform="matrix(0.07407407407407408,0,0,0.07407407407407408,68,0)" xlink:href="#cC"/><use transform="matrix(0.07407407407407408,0,0,0.07407407407407408,76.81481481481481,0)" xlink:href="#cB"/><use transform="matrix(0.07407407407407408,0,0,0.07407407407407408,93.03703703703704,0)" xlink:href="#cu"/><use transform="matrix(0.07407407407407408,0,0,0.07407407407407408,103.4074074074074,0)" xlink:href="#cy"/></g><path d="M240-174c0 40-23 61-54 70L253 0h-59l-57-94H76V0H24v-248c93 4 217-23 216 74zM76-134c48-2 112 12 112-38 0-48-66-32-112-35v73" id="di"/><g id="bj"><use transform="matrix(0.07407407407407408,0,0,0.07407407407407408,0,0)" xlink:href="#di"/><use transform="matrix(0.07407407407407408,0,0,0.07407407407407408,19.185185185185187,0)" xlink:href="#cy"/><use transform="matrix(0.07407407407407408,0,0,0.07407407407407408,34,0)" xlink:href="#cP"/><use transform="matrix(0.07407407407407408,0,0,0.07407407407407408,48.81481481481481,0)" xlink:href="#cy"/><use transform="matrix(0.07407407407407408,0,0,0.07407407407407408,63.629629629629626,0)" xlink:href="#cE"/><use transform="matrix(0.07407407407407408,0,0,0.07407407407407408,79.85185185185186,0)" xlink:href="#cB"/><use transform="matrix(0.07407407407407408,0,0,0.07407407407407408,96.07407407407409,0)" xlink:href="#cy"/></g><g id="bk"><use transform="matrix(0.07407407407407408,0,0,0.07407407407407408,0,0)" xlink:href="#cA"/><use transform="matrix(0.07407407407407408,0,0,0.07407407407407408,17.77777777777778,0)" xlink:href="#cC"/><use transform="matrix(0.07407407407407408,0,0,0.07407407407407408,26.592592592592595,0)" xlink:href="#cu"/><use transform="matrix(0.07407407407407408,0,0,0.07407407407407408,36.96296296296297,0)" xlink:href="#cy"/><use transform="matrix(0.07407407407407408,0,0,0.07407407407407408,51.777777777777786,0)" xlink:href="#cI"/><use transform="matrix(0.07407407407407408,0,0,0.07407407407407408,66.59259259259261,0)" xlink:href="#cz"/><use transform="matrix(0.07407407407407408,0,0,0.07407407407407408,90.29629629629632,0)" xlink:href="#cK"/></g><g id="bl"><use transform="matrix(0.05,0,0,0.05,0,0)" xlink:href="#co"/><use transform="matrix(0.05,0,0,0.05,12.950000000000001,0)" xlink:href="#bY"/><use transform="matrix(0.05,0,0,0.05,22.950000000000003,0)" xlink:href="#bR"/><use transform="matrix(0.05,0,0,0.05,31.950000000000003,0)" xlink:href="#bQ"/><use transform="matrix(0.05,0,0,0.05,36.95,0)" xlink:href="#bW"/><use transform="matrix(0.05,0,0,0.05,40.900000000000006,0)" xlink:href="#bP"/><use transform="matrix(0.05,0,0,0.05,50.900000000000006,0)" xlink:href="#bN"/></g><path d="M30-248c118-7 216 8 213 122C240-48 200 0 122 0H30v-248zM63-27c89 8 146-16 146-99s-60-101-146-95v194" id="dj"/><g id="bm"><use transform="matrix(0.05,0,0,0.05,0,0)" xlink:href="#dj"/><use transform="matrix(0.05,0,0,0.05,12.950000000000001,0)" xlink:href="#bO"/><use transform="matrix(0.05,0,0,0.05,22.950000000000003,0)" xlink:href="#bV"/><use transform="matrix(0.05,0,0,0.05,31.950000000000003,0)" xlink:href="#bO"/><use transform="matrix(0.05,0,0,0.05,41.95,0)" xlink:href="#bU"/><use transform="matrix(0.05,0,0,0.05,45.900000000000006,0)" xlink:href="#bY"/><use transform="matrix(0.05,0,0,0.05,55.900000000000006,0)" xlink:href="#cj"/><use transform="matrix(0.05,0,0,0.05,65.9,0)" xlink:href="#bX"/><use transform="matrix(0.05,0,0,0.05,80.85000000000001,0)" xlink:href="#bO"/><use transform="matrix(0.05,0,0,0.05,90.85000000000001,0)" xlink:href="#bP"/><use transform="matrix(0.05,0,0,0.05,100.85000000000001,0)" xlink:href="#bQ"/></g><g id="bn"><use transform="matrix(0.05,0,0,0.05,0,0)" xlink:href="#db"/><use transform="matrix(0.05,0,0,0.05,8.950000000000001,0)" xlink:href="#bO"/><use transform="matrix(0.05,0,0,0.05,18.950000000000003,0)" xlink:href="#bS"/><use transform="matrix(0.05,0,0,0.05,28.950000000000003,0)" xlink:href="#bX"/><use transform="matrix(0.05,0,0,0.05,43.900000000000006,0)" xlink:href="#bR"/></g><g id="bo"><use transform="matrix(0.05,0,0,0.05,0,0)" xlink:href="#bM"/><use transform="matrix(0.05,0,0,0.05,12,0)" xlink:href="#cc"/><use transform="matrix(0.05,0,0,0.05,21,0)" xlink:href="#ci"/><use transform="matrix(0.05,0,0,0.05,31,0)" xlink:href="#cd"/><use transform="matrix(0.05,0,0,0.05,41,0)" xlink:href="#bW"/><use transform="matrix(0.05,0,0,0.05,44.95,0)" xlink:href="#bT"/><use transform="matrix(0.05,0,0,0.05,50.900000000000006,0)" xlink:href="#bW"/><use transform="matrix(0.05,0,0,0.05,54.85,0)" xlink:href="#bP"/><use transform="matrix(0.05,0,0,0.05,64.85000000000001,0)" xlink:href="#bN"/></g><g id="bp"><use transform="matrix(0.05,0,0,0.05,0,0)" xlink:href="#cW"/><use transform="matrix(0.05,0,0,0.05,12,0)" xlink:href="#bS"/><use transform="matrix(0.05,0,0,0.05,22,0)" xlink:href="#bT"/><use transform="matrix(0.05,0,0,0.05,27.950000000000003,0)" xlink:href="#bQ"/><use transform="matrix(0.05,0,0,0.05,32.95,0)" xlink:href="#bP"/><use transform="matrix(0.05,0,0,0.05,42.95,0)" xlink:href="#bO"/><use transform="matrix(0.05,0,0,0.05,52.95,0)" xlink:href="#bT"/><use transform="matrix(0.05,0,0,0.05,58.900000000000006,0)" xlink:href="#bW"/><use transform="matrix(0.05,0,0,0.05,62.85,0)" xlink:href="#bP"/><use transform="matrix(0.05,0,0,0.05,72.85000000000001,0)" xlink:href="#bN"/></g><g id="bq"><use transform="matrix(0.05,0,0,0.05,0,0)" xlink:href="#ce"/><use transform="matrix(0.05,0,0,0.05,12.950000000000001,0)" xlink:href="#bW"/><use transform="matrix(0.05,0,0,0.05,16.900000000000002,0)" xlink:href="#bQ"/><use transform="matrix(0.05,0,0,0.05,21.900000000000002,0)" xlink:href="#ca"/></g><path d="M137 0h-34L2-248h35l83 218 83-218h36" id="dk"/><g id="br"><use transform="matrix(0.05,0,0,0.05,0,0)" xlink:href="#dk"/><use transform="matrix(0.05,0,0,0.05,11,0)" xlink:href="#bO"/><use transform="matrix(0.05,0,0,0.05,21,0)" xlink:href="#bP"/><use transform="matrix(0.05,0,0,0.05,31,0)" xlink:href="#cl"/><use transform="matrix(0.05,0,0,0.05,41,0)" xlink:href="#bY"/><use transform="matrix(0.05,0,0,0.05,51,0)" xlink:href="#bT"/><use transform="matrix(0.05,0,0,0.05,56.95,0)" xlink:href="#bR"/></g><g id="bs"><use transform="matrix(0.05,0,0,0.05,0,0)" xlink:href="#cr"/><use transform="matrix(0.05,0,0,0.05,14.950000000000001,0)" xlink:href="#bS"/><use transform="matrix(0.05,0,0,0.05,24.950000000000003,0)" xlink:href="#bT"/><use transform="matrix(0.05,0,0,0.05,30.900000000000002,0)" xlink:href="#ch"/><use transform="matrix(0.05,0,0,0.05,39.900000000000006,0)" xlink:href="#bO"/><use transform="matrix(0.05,0,0,0.05,49.900000000000006,0)" xlink:href="#bQ"/><use transform="matrix(0.05,0,0,0.05,54.900000000000006,0)" xlink:href="#cj"/><use transform="matrix(0.05,0,0,0.05,64.9,0)" xlink:href="#bU"/><use transform="matrix(0.05,0,0,0.05,68.85000000000001,0)" xlink:href="#bS"/><use transform="matrix(0.05,0,0,0.05,78.85000000000001,0)" xlink:href="#cc"/><use transform="matrix(0.05,0,0,0.05,87.85000000000001,0)" xlink:href="#bO"/></g><path d="M143 4C61 4 22-44 18-125c-5-107 100-154 193-111 17 8 29 25 37 43l-32 9c-13-25-37-40-76-40-61 0-88 39-88 99 0 61 29 100 91 101 35 0 62-11 79-27v-45h-74v-28h105v86C228-13 192 4 143 4" id="dl"/><g id="bt"><use transform="matrix(0.05,0,0,0.05,0,0)" xlink:href="#dl"/><use transform="matrix(0.05,0,0,0.05,14,0)" xlink:href="#bO"/><use transform="matrix(0.05,0,0,0.05,24,0)" xlink:href="#bQ"/><use transform="matrix(0.05,0,0,0.05,29,0)" xlink:href="#bQ"/><use transform="matrix(0.05,0,0,0.05,34,0)" xlink:href="#bW"/><use transform="matrix(0.05,0,0,0.05,37.95,0)" xlink:href="#bP"/><use transform="matrix(0.05,0,0,0.05,47.95,0)" xlink:href="#bN"/></g><g id="bu"><use transform="matrix(0.05,0,0,0.05,0,0)" xlink:href="#cl"/><use transform="matrix(0.05,0,0,0.05,10,0)" xlink:href="#bO"/><use transform="matrix(0.05,0,0,0.05,20,0)" xlink:href="#bV"/></g><g id="bv"><use transform="matrix(0.05,0,0,0.05,0,0)" xlink:href="#bQ"/><use transform="matrix(0.05,0,0,0.05,5,0)" xlink:href="#bO"/><use transform="matrix(0.05,0,0,0.05,15,0)" xlink:href="#bS"/><use transform="matrix(0.05,0,0,0.05,25,0)" xlink:href="#bX"/><use transform="matrix(0.05,0,0,0.05,39.95,0)" xlink:href="#bR"/></g><g id="bw"><use transform="matrix(0.05,0,0,0.05,0,0)" xlink:href="#bQ"/><use transform="matrix(0.05,0,0,0.05,5,0)" xlink:href="#bY"/></g><g id="bx"><use transform="matrix(0.05,0,0,0.05,0,0)" xlink:href="#cc"/><use transform="matrix(0.05,0,0,0.05,9,0)" xlink:href="#bY"/><use transform="matrix(0.05,0,0,0.05,19,0)" xlink:href="#bU"/><use transform="matrix(0.05,0,0,0.05,22.95,0)" xlink:href="#bU"/><use transform="matrix(0.05,0,0,0.05,26.899999999999995,0)" xlink:href="#bS"/><use transform="matrix(0.05,0,0,0.05,36.9,0)" xlink:href="#cb"/><use transform="matrix(0.05,0,0,0.05,46.9,0)" xlink:href="#bY"/><use transform="matrix(0.05,0,0,0.05,56.900000000000006,0)" xlink:href="#bT"/><use transform="matrix(0.05,0,0,0.05,62.85,0)" xlink:href="#bS"/><use transform="matrix(0.05,0,0,0.05,72.85,0)" xlink:href="#bQ"/><use transform="matrix(0.05,0,0,0.05,77.85,0)" xlink:href="#bO"/></g><g id="by"><use transform="matrix(0.05,0,0,0.05,0,0)" xlink:href="#da"/><use transform="matrix(0.05,0,0,0.05,12.950000000000001,0)" xlink:href="#bO"/><use transform="matrix(0.05,0,0,0.05,22.950000000000003,0)" xlink:href="#bV"/><use transform="matrix(0.05,0,0,0.05,31.950000000000003,0)" xlink:href="#bO"/><use transform="matrix(0.05,0,0,0.05,41.95,0)" xlink:href="#bP"/><use transform="matrix(0.05,0,0,0.05,51.95,0)" xlink:href="#cd"/><use transform="matrix(0.05,0,0,0.05,61.95,0)" xlink:href="#bO"/></g><g id="bz"><use transform="matrix(0.05,0,0,0.05,0,0)" xlink:href="#bR"/><use transform="matrix(0.05,0,0,0.05,9,0)" xlink:href="#ca"/><use transform="matrix(0.05,0,0,0.05,19,0)" xlink:href="#bS"/><use transform="matrix(0.05,0,0,0.05,29,0)" xlink:href="#bT"/><use transform="matrix(0.05,0,0,0.05,34.95,0)" xlink:href="#bO"/></g><g id="bA"><use transform="matrix(0.05,0,0,0.05,0,0)" xlink:href="#ce"/><use transform="matrix(0.05,0,0,0.05,12.950000000000001,0)" xlink:href="#dd"/></g><g id="bB"><use transform="matrix(0.05,0,0,0.05,0,0)" xlink:href="#bX"/><use transform="matrix(0.05,0,0,0.05,14.950000000000001,0)" xlink:href="#bS"/><use transform="matrix(0.05,0,0,0.05,24.950000000000003,0)" xlink:href="#bT"/><use transform="matrix(0.05,0,0,0.05,30.900000000000002,0)" xlink:href="#ch"/><use transform="matrix(0.05,0,0,0.05,39.900000000000006,0)" xlink:href="#bO"/><use transform="matrix(0.05,0,0,0.05,49.900000000000006,0)" xlink:href="#bQ"/><use transform="matrix(0.05,0,0,0.05,54.900000000000006,0)" xlink:href="#cj"/><use transform="matrix(0.05,0,0,0.05,64.9,0)" xlink:href="#bU"/><use transform="matrix(0.05,0,0,0.05,68.85000000000001,0)" xlink:href="#bS"/><use transform="matrix(0.05,0,0,0.05,78.85000000000001,0)" xlink:href="#cc"/><use transform="matrix(0.05,0,0,0.05,87.85000000000001,0)" xlink:href="#bO"/></g><path d="M63-220v92h138v28H63V0H30v-248h175v28H63" id="dm"/><g id="bC"><use transform="matrix(0.05,0,0,0.05,0,0)" xlink:href="#dm"/><use transform="matrix(0.05,0,0,0.05,10.950000000000001,0)" xlink:href="#bO"/><use transform="matrix(0.05,0,0,0.05,20.950000000000003,0)" xlink:href="#bO"/><use transform="matrix(0.05,0,0,0.05,30.950000000000003,0)" xlink:href="#bR"/></g><g id="bD"><use transform="matrix(0.05,0,0,0.05,0,0)" xlink:href="#cf"/><use transform="matrix(0.05,0,0,0.05,5,0)" xlink:href="#bT"/><use transform="matrix(0.05,0,0,0.05,10.95,0)" xlink:href="#bY"/><use transform="matrix(0.05,0,0,0.05,20.95,0)" xlink:href="#bX"/></g><g id="bE"><use transform="matrix(0.05,0,0,0.05,0,0)" xlink:href="#bY"/><use transform="matrix(0.05,0,0,0.05,10,0)" xlink:href="#bT"/></g><g id="bF"><use transform="matrix(0.05,0,0,0.05,0,0)" xlink:href="#cZ"/><use transform="matrix(0.05,0,0,0.05,12.950000000000001,0)" xlink:href="#bY"/><use transform="matrix(0.05,0,0,0.05,22.950000000000003,0)" xlink:href="#bX"/><use transform="matrix(0.05,0,0,0.05,37.900000000000006,0)" xlink:href="#bX"/><use transform="matrix(0.05,0,0,0.05,52.85,0)" xlink:href="#bR"/><use transform="matrix(0.05,0,0,0.05,61.85,0)" xlink:href="#bR"/><use transform="matrix(0.05,0,0,0.05,70.85000000000001,0)" xlink:href="#bW"/><use transform="matrix(0.05,0,0,0.05,74.80000000000001,0)" xlink:href="#bY"/><use transform="matrix(0.05,0,0,0.05,84.80000000000001,0)" xlink:href="#bP"/><use transform="matrix(0.05,0,0,0.05,94.80000000000001,0)" xlink:href="#bR"/></g><g id="bG"><use transform="matrix(0.05,0,0,0.05,0,0)" xlink:href="#cf"/><use transform="matrix(0.05,0,0,0.05,5,0)" xlink:href="#bT"/><use transform="matrix(0.05,0,0,0.05,10.95,0)" xlink:href="#bY"/><use transform="matrix(0.05,0,0,0.05,20.95,0)" xlink:href="#bX"/></g><g id="bH"><use transform="matrix(0.05,0,0,0.05,0,0)" xlink:href="#cj"/><use transform="matrix(0.05,0,0,0.05,10,0)" xlink:href="#bT"/><use transform="matrix(0.05,0,0,0.05,15.949999999999998,0)" xlink:href="#bO"/><use transform="matrix(0.05,0,0,0.05,25.950000000000003,0)" xlink:href="#cf"/><use transform="matrix(0.05,0,0,0.05,30.950000000000003,0)" xlink:href="#bO"/><use transform="matrix(0.05,0,0,0.05,40.95,0)" xlink:href="#bT"/><use transform="matrix(0.05,0,0,0.05,46.900000000000006,0)" xlink:href="#bT"/><use transform="matrix(0.05,0,0,0.05,52.85,0)" xlink:href="#bO"/><use transform="matrix(0.05,0,0,0.05,62.85,0)" xlink:href="#cl"/></g><g id="bI"><use transform="matrix(0.05,0,0,0.05,0,0)" xlink:href="#bM"/><use transform="matrix(0.05,0,0,0.05,12,0)" xlink:href="#cl"/><use transform="matrix(0.05,0,0,0.05,22,0)" xlink:href="#bR"/></g><g id="bJ"><use transform="matrix(0.05,0,0,0.05,0,0)" xlink:href="#bV"/><use transform="matrix(0.05,0,0,0.05,9,0)" xlink:href="#bO"/><use transform="matrix(0.05,0,0,0.05,19,0)" xlink:href="#bP"/><use transform="matrix(0.05,0,0,0.05,29,0)" xlink:href="#cl"/><use transform="matrix(0.05,0,0,0.05,39,0)" xlink:href="#bY"/><use transform="matrix(0.05,0,0,0.05,49,0)" xlink:href="#bT"/><use transform="matrix(0.05,0,0,0.05,54.95,0)" xlink:href="#bR"/></g><g id="bK"><use transform="matrix(0.05,0,0,0.05,0,0)" xlink:href="#bS"/><use transform="matrix(0.05,0,0,0.05,10,0)" xlink:href="#bN"/><use transform="matrix(0.05,0,0,0.05,20,0)" xlink:href="#bO"/><use transform="matrix(0.05,0,0,0.05,30,0)" xlink:href="#bP"/><use transform="matrix(0.05,0,0,0.05,40,0)" xlink:href="#cc"/><use transform="matrix(0.05,0,0,0.05,49,0)" xlink:href="#bW"/><use transform="matrix(0.05,0,0,0.05,52.95,0)" xlink:href="#bO"/><use transform="matrix(0.05,0,0,0.05,62.95,0)" xlink:href="#bR"/></g><path d="M114-157C55-157 80-60 75 0H25v-261h50l-1 109c12-26 28-41 61-42 86-1 58 113 63 194h-50c-7-57 23-157-34-157" id="dn"/><g id="bL"><use transform="matrix(0.07407407407407408,0,0,0.07407407407407408,0,0)" xlink:href="#cU"/><use transform="matrix(0.07407407407407408,0,0,0.07407407407407408,19.185185185185187,0)" xlink:href="#dn"/><use transform="matrix(0.07407407407407408,0,0,0.07407407407407408,35.40740740740741,0)" xlink:href="#cI"/><use transform="matrix(0.07407407407407408,0,0,0.07407407407407408,50.22222222222223,0)" xlink:href="#cE"/><use transform="matrix(0.07407407407407408,0,0,0.07407407407407408,66.44444444444446,0)" xlink:href="#cE"/><use transform="matrix(0.07407407407407408,0,0,0.07407407407407408,82.66666666666667,0)" xlink:href="#cy"/><use transform="matrix(0.07407407407407408,0,0,0.07407407407407408,97.4814814814815,0)" xlink:href="#cx"/><use transform="matrix(0.07407407407407408,0,0,0.07407407407407408,104.8888888888889,0)" xlink:href="#cK"/></g></defs></g></svg>