<svg xmlns="http://www.w3.org/2000/svg" xmlns:xlink="http://www.w3.org/1999/xlink" xmlns:lucid="lucid" width="1687.5" height="800"><g transform="translate(-52.5 0)" lucid:page-tab-id="0_0"><path d="M0 0h1760v1360H0z" fill="#fff"/><path d="M105.03 447.25c0 4-3.25 7.25-7.25 7.25s-7.25-3.25-7.25-7.25 3.24-7.25 7.25-7.25c4 0 7.25 3.25 7.25 7.25z" stroke="#000" stroke-width="2" fill="#fff"/><path d="M80 440h35.56v58H80z" fill="none"/><path d="M97.78 454.5v20.3l17.78 23.2m-17.78-23.2L80 498m0-36.25h35.56" stroke="#000" stroke-width="2" fill="none"/><use xlink:href="#a" transform="matrix(1,0,0,1,0,498) translate(74.5 14.6)"/><path d="M265.03 447.25c0 4-3.25 7.25-7.25 7.25s-7.25-3.25-7.25-7.25 3.24-7.25 7.25-7.25c4 0 7.25 3.25 7.25 7.25z" stroke="#000" stroke-width="2" fill="#fff"/><path d="M240 440h35.56v58H240z" fill="none"/><path d="M257.78 454.5v20.3l17.78 23.2m-17.78-23.2L240 498m0-36.25h35.56" stroke="#000" stroke-width="2" fill="none"/><use xlink:href="#b" transform="matrix(1,0,0,1,159.99999999999994,498) translate(65.5 14.6)"/><path d="M115.56 480h106.2" stroke="#000" stroke-width="2" fill="none"/><path/><path d="M236.76 480l-14.26 4.64v-9.28z"/><path d="M240 480l-18.5 6v-12zm-16.5 3.26l10.03-3.26-10.03-3.26z"/><path d="M137 620h242v120H137z" stroke="#000" stroke-width="2" fill="#fff"/><use xlink:href="#c" transform="matrix(1,0,0,1,142,625) translate(89 58.6)"/><path d="M200 600v-41.76" stroke="#000" stroke-width="2" fill="none"/><path d="M200 543.24l4.64 14.26h-9.28z" stroke="#000" stroke-width="2"/><path d="M258 619l-.18-80.76" stroke="#000" stroke-width="2" fill="none"/><path d="M259 620h-2v-1h2zM262.45 537.5h-9.27l4.6-14.26z"/><path d="M263.83 538.5l-12.02.02L257.8 520zm-9.27-2h6.5l-3.27-10.03z"/><path d="M320 600v-41.76" stroke="#000" stroke-width="2" fill="none"/><path d="M320 543.24l4.64 14.26h-9.28z" stroke="#000" stroke-width="2"/><path d="M460 400h200v120H460z" stroke="#000" stroke-width="2" fill="#fff"/><use xlink:href="#d" transform="matrix(1,0,0,1,465,405) translate(15.974999999999994 47.8)"/><use xlink:href="#e" transform="matrix(1,0,0,1,465,405) translate(81.275 47.8)"/><use xlink:href="#f" transform="matrix(1,0,0,1,465,405) translate(111.075 47.8)"/><use xlink:href="#g" transform="matrix(1,0,0,1,465,405) translate(41.525 69.4)"/><use xlink:href="#h" transform="matrix(1,0,0,1,465,405) translate(71.525 69.4)"/><use xlink:href="#i" transform="matrix(1,0,0,1,465,405) translate(119.525 69.4)"/><path d="M840 508c0 6.63-26.86 12-60 12s-60-5.37-60-12v-96c0-6.63 26.86-12 60-12s60 5.37 60 12z" stroke="#000" stroke-width="2" fill="#fff"/><path d="M840 412c0 6.63-26.86 12-60 12s-60-5.37-60-12" stroke="#000" stroke-width="2" fill="none"/><use xlink:href="#j" transform="matrix(1,0,0,1,725,429) translate(7.549999999999997 46.6)"/><use xlink:href="#k" transform="matrix(1,0,0,1,725,429) translate(57.55 46.6)"/><path d="M661 460h39.76" stroke="#000" stroke-width="2" fill="none"/><path d="M661 461h-1v-2h1zM715.76 460l-14.26 4.64v-9.28z"/><path d="M719 460l-18.5 6v-12zm-16.5 3.26l10.03-3.26-10.03-3.26z"/><path d="M944 484c-13.25 0-24-10.75-24-24 0-10.6 6.5-19.55 16.58-22.83C936 406 976 400 992 412c8-18 48-12 48 6 24-6 48 18 32 48 16 24 0 54-32 42-8 15.6-40 15.6-48 0-16 12-48 6-48-24z" stroke="#000" stroke-width="2" fill="#fff"/><use xlink:href="#l" transform="matrix(1,0,0,1,924.9999999999999,405) translate(43.025 58.6)"/><path d="M940 600c0 11.05-8.95 20-20 20s-20-8.95-20-20 8.95-20 20-20 20 8.95 20 20z" stroke="#000" stroke-width="2" fill="#fff"/><use xlink:href="#m" transform="matrix(1,0,0,1,905,585) translate(3.8086419753086407 24.888888888888893)"/><path d="M1020 640c0 11.05-8.95 20-20 20s-20-8.95-20-20 8.95-20 20-20 20 8.95 20 20z" stroke="#000" stroke-width="2" fill="#fff"/><use xlink:href="#m" transform="matrix(1,0,0,1,984.9999999999999,625) translate(3.8086419753086407 24.888888888888893)"/><path d="M1100 600c0 11.05-8.95 20-20 20s-20-8.95-20-20 8.95-20 20-20 20 8.95 20 20z" stroke="#000" stroke-width="2" fill="#fff"/><use xlink:href="#m" transform="matrix(1,0,0,1,1065,585) translate(3.8086419753086407 24.888888888888893)"/><path d="M1200 680h200v100h-200z" stroke="#000" stroke-width="2" fill="#fff"/><use xlink:href="#n" transform="matrix(1,0,0,1,1205,685) translate(79.5 48.6)"/><path d="M1200 410h200v100h-200z" stroke="#000" stroke-width="2" fill="#fff"/><use xlink:href="#o" transform="matrix(1,0,0,1,1205,415) translate(17.099999999999994 48.6)"/><use xlink:href="#p" transform="matrix(1,0,0,1,1205,415) translate(48.05 48.6)"/><use xlink:href="#q" transform="matrix(1,0,0,1,1205,415) translate(95 48.6)"/><path d="M1200 120h200v100h-200z" stroke="#000" stroke-width="2" fill="#fff"/><use xlink:href="#r" transform="matrix(1,0,0,1,1205,125) translate(60.05 48.6)"/><path d="M1075.73 460H1140V176.73h40.76" stroke="#000" stroke-width="2" fill="none"/><path d="M1075.73 461h-1.42l.14-.28.57-1.72h.73zM1195.76 176.73l-14.26 4.64v-9.28z"/><path d="M1199 176.73l-18.5 6v-12zm-16.5 3.26l10.03-3.27-10.03-3.26z"/><path d="M1075.73 460h105.03" stroke="#000" stroke-width="2" fill="none"/><path d="M1075.73 461h-1.42l.14-.28.57-1.72h.73zM1195.76 460l-14.26 4.64v-9.28z"/><path d="M1199 460l-18.5 6v-12zm-16.5 3.26l10.03-3.26-10.03-3.26z"/><path d="M1507.25 447.25c0 4-3.25 7.25-7.25 7.25s-7.25-3.25-7.25-7.25S1496 440 1500 440s7.25 3.25 7.25 7.25z" stroke="#000" stroke-width="2" fill="#fff"/><path d="M1480 440h40v58h-40z" fill="none"/><path d="M1500 454.5v20.3l20 23.2m-20-23.2l-20 23.2m0-36.25h40" stroke="#000" stroke-width="2" fill="none"/><use xlink:href="#a" transform="matrix(1,0,0,1,1400,498) translate(76.5 14.6)"/><path d="M1667.25 447.25c0 4-3.25 7.25-7.25 7.25s-7.25-3.25-7.25-7.25S1656 440 1660 440s7.25 3.25 7.25 7.25z" stroke="#000" stroke-width="2" fill="#fff"/><path d="M1640 440h40v58h-40z" fill="none"/><path d="M1660 454.5v20.3l20 23.2m-20-23.2l-20 23.2m0-36.25h40" stroke="#000" stroke-width="2" fill="none"/><use xlink:href="#b" transform="matrix(1,0,0,1,1560,498) translate(67.5 14.6)"/><path d="M1558.24 460h43.52" stroke="#000" stroke-width="2" fill="none"/><path d="M1543.24 460l14.26-4.64v9.28zM1616.76 460l-14.26 4.64v-9.28z" stroke="#000" stroke-width="2"/><path d="M1401 170h39.5v290.75h21.26" stroke="#000" stroke-width="2" fill="none"/><path d="M1401 171h-1v-2h1zM1476.76 460.75l-14.26 4.64v-9.3z"/><path d="M1480 460.75l-18.5 6v-12zm-16.5 3.26l10.03-3.25-10.03-3.26z"/><path d="M1401 460h39.5v.75h21.26" stroke="#000" stroke-width="2" fill="none"/><path d="M1401 461h-1v-2h1zM1476.76 460.75l-14.26 4.64v-9.3z"/><path d="M1480 460.75l-18.5 6v-12zm-16.5 3.26l10.03-3.25-10.03-3.26z"/><path d="M1401 730h39.5V460.75h21.26" stroke="#000" stroke-width="2" fill="none"/><path d="M1401 731h-1v-2h1zM1476.76 460.75l-14.26 4.64v-9.3z"/><path d="M1480 460.75l-18.5 6v-12zm-16.5 3.26l10.03-3.25-10.03-3.26z"/><path d="M841 460h59.76" stroke="#000" stroke-width="2" fill="none"/><path d="M841 461h-1v-2h1zM915.76 460l-14.26 4.64v-9.28z"/><path d="M919 460l-18.5 6v-12zm-16.5 3.26l10.03-3.26-10.03-3.26z"/><path d="M1000 517v83.76" stroke="#000" stroke-width="2" fill="none"/><path d="M1000.9 516.36l.1.05v.6h-2v-1.7zM1000 615.76l-4.64-14.26h9.28z"/><path d="M1000 619l-6-18.5h12zm-3.26-16.5l3.26 10.03 3.26-10.03z"/><path d="M1000 661v69h180.76" stroke="#000" stroke-width="2" fill="none"/><path d="M1000 660l1-.04V661h-2v-1.13zM1195.76 730l-14.26 4.64v-9.28z"/><path d="M1199 730l-18.5 6v-12zm-16.5 3.26l10.03-3.26-10.03-3.26z"/><path d="M1037.02 513.48v32.76H1080v14.52" stroke="#000" stroke-width="2" fill="none"/><path d="M1038.02 513.48h-2v-.44l.8-.73 1.2-1.3zM1080 575.76l-4.64-14.26h9.28z"/><path d="M1080 579l-6-18.5h12zm-3.26-16.5l3.26 10.03 3.26-10.03z"/><path d="M1101 600h39V460h40.76" stroke="#000" stroke-width="2" fill="none"/><path d="M1101 601h-1.13l.13-1-.04-1h1.04zM1195.76 460l-14.26 4.64v-9.28z"/><path d="M1199 460l-18.5 6v-12zm-16.5 3.26l10.03-3.26-10.03-3.26z"/><path d="M1220 40h160v48h-160z" stroke="#000" stroke-width="2" fill="#a3d977"/><use xlink:href="#s" transform="matrix(1,0,0,1,1225,45) translate(22.525 22.6)"/><use xlink:href="#t" transform="matrix(1,0,0,1,1225,45) translate(87.525 22.6)"/><path d="M1180 320h240v53.2h-240z" stroke="#000" stroke-width="2" fill="#7ab648"/><use xlink:href="#u" transform="matrix(1,0,0,1,1185,325) translate(38.14999999999999 14.799999999999999)"/><use xlink:href="#v" transform="matrix(1,0,0,1,1185,325) translate(141.9 14.799999999999999)"/><use xlink:href="#w" transform="matrix(1,0,0,1,1185,325) translate(186.85000000000002 14.799999999999999)"/><use xlink:href="#x" transform="matrix(1,0,0,1,1185,325) translate(46.05 36.4)"/><use xlink:href="#y" transform="matrix(1,0,0,1,1185,325) translate(67.05 36.4)"/><use xlink:href="#z" transform="matrix(1,0,0,1,1185,325) translate(87.05 36.4)"/><path d="M1300 119v-11.76" stroke="#000" stroke-width="2" fill="none"/><path d="M1301 120h-2v-1h2zM1304.64 106.5h-9.28l4.64-14.26z"/><path d="M1306 107.5h-12l6-18.5zm-9.26-2h6.52L1300 95.47z"/><path d="M1300 409v-16.56" stroke="#000" stroke-width="2" fill="none"/><path d="M1301 410h-2v-1h2zM1304.64 391.7h-9.28l4.64-14.26z"/><path d="M1306 392.7h-12l6-18.5zm-9.26-2h6.52l-3.26-10.03z"/><path d="M1320 620c0 11.05-8.95 20-20 20s-20-8.95-20-20 8.95-20 20-20 20 8.95 20 20z" stroke="#000" stroke-width="2" fill="#7ab648"/><use xlink:href="#A" transform="matrix(1,0,0,1,1285,605) translate(8.827160493827162 19.444444444444443)"/><path d="M1200 320c0 11.05-8.95 20-20 20s-20-8.95-20-20 8.95-20 20-20 20 8.95 20 20z" stroke="#000" stroke-width="2" fill="#7ab648"/><use xlink:href="#A" transform="matrix(1,0,0,1,1165,305) translate(8.827160493827162 19.444444444444443)"/><path d="M1240 40c0 11.05-8.95 20-20 20s-20-8.95-20-20 8.95-20 20-20 20 8.95 20 20z" stroke="#000" stroke-width="2" fill="#7ab648"/><use xlink:href="#A" transform="matrix(1,0,0,1,1205,25) translate(8.827160493827162 19.444444444444443)"/><path d="M1480 540h240v40h-240z" stroke="#000" stroke-opacity="0" stroke-width="2" fill="#fff" fill-opacity="0"/><g><use xlink:href="#B" transform="matrix(1,0,0,1,1485,545) translate(62.074999999999996 18.6)"/></g><path d="M959.44 511.72v33.64H920v15.4" stroke="#000" stroke-width="2" fill="none"/><path d="M960.44 511.1v.62h-2v-1.6zM920 575.76l-4.64-14.26h9.28z"/><path d="M920 579l-6-18.5h12zm-3.26-16.5l3.26 10.03 3.26-10.03z"/><path d="M1300 679v-19.76" stroke="#000" stroke-width="2" fill="none"/><path d="M1301 680h-2v-1h2zM1304.64 658.5h-9.28l4.64-14.26z"/><path d="M1306 659.5h-12l6-18.5zm-9.26-2h6.52l-3.26-10.03z"/><path d="M275.56 461.24h165.2" stroke="#000" stroke-width="2" fill="none"/><path/><path d="M455.76 461.24l-14.26 4.63v-9.27z"/><path d="M459 461.24l-18.5 6v-12zm-16.5 3.26l10.03-3.26-10.03-3.26z"/><defs><path d="M205 0l-28-72H64L36 0H1l101-248h38L239 0h-34zm-38-99l-47-123c-12 45-31 82-46 123h93" id="C"/><path d="M177-190C167-65 218 103 67 71c-23-6-38-20-44-43l32-5c15 47 100 32 89-28v-30C133-14 115 1 83 1 29 1 15-40 15-95c0-56 16-97 71-98 29-1 48 16 59 35 1-10 0-23 2-32h30zM94-22c36 0 50-32 50-73 0-42-14-75-50-75-39 0-46 34-46 75s6 73 46 73" id="D"/><path d="M100-194c63 0 86 42 84 106H49c0 40 14 67 53 68 26 1 43-12 49-29l28 8c-11 28-37 45-77 45C44 4 14-33 15-96c1-61 26-98 85-98zm52 81c6-60-76-77-97-28-3 7-6 17-6 28h103" id="E"/><path d="M117-194c89-4 53 116 60 194h-32v-121c0-31-8-49-39-48C34-167 62-67 57 0H25l-1-190h30c1 10-1 24 2 32 11-22 29-35 61-36" id="F"/><path d="M59-47c-2 24 18 29 38 22v24C64 9 27 4 27-40v-127H5v-23h24l9-43h21v43h35v23H59v120" id="G"/><g id="a"><use transform="matrix(0.05,0,0,0.05,0,0)" xlink:href="#C"/><use transform="matrix(0.05,0,0,0.05,12,0)" xlink:href="#D"/><use transform="matrix(0.05,0,0,0.05,22,0)" xlink:href="#E"/><use transform="matrix(0.05,0,0,0.05,32,0)" xlink:href="#F"/><use transform="matrix(0.05,0,0,0.05,42,0)" xlink:href="#G"/></g><path d="M96-169c-40 0-48 33-48 73s9 75 48 75c24 0 41-14 43-38l32 2c-6 37-31 61-74 61-59 0-76-41-82-99-10-93 101-131 147-64 4 7 5 14 7 22l-32 3c-4-21-16-35-41-35" id="H"/><path d="M100-194c62-1 85 37 85 99 1 63-27 99-86 99S16-35 15-95c0-66 28-99 85-99zM99-20c44 1 53-31 53-75 0-43-8-75-51-75s-53 32-53 75 10 74 51 75" id="I"/><path d="M84 4C-5 8 30-112 23-190h32v120c0 31 7 50 39 49 72-2 45-101 50-169h31l1 190h-30c-1-10 1-25-2-33-11 22-28 36-60 37" id="J"/><g id="b"><use transform="matrix(0.05,0,0,0.05,0,0)" xlink:href="#C"/><use transform="matrix(0.05,0,0,0.05,12,0)" xlink:href="#H"/><use transform="matrix(0.05,0,0,0.05,21,0)" xlink:href="#H"/><use transform="matrix(0.05,0,0,0.05,30,0)" xlink:href="#I"/><use transform="matrix(0.05,0,0,0.05,40,0)" xlink:href="#J"/><use transform="matrix(0.05,0,0,0.05,50,0)" xlink:href="#F"/><use transform="matrix(0.05,0,0,0.05,60,0)" xlink:href="#G"/></g><path d="M135-143c-3-34-86-38-87 0 15 53 115 12 119 90S17 21 10-45l28-5c4 36 97 45 98 0-10-56-113-15-118-90-4-57 82-63 122-42 12 7 21 19 24 35" id="K"/><g id="c"><use transform="matrix(0.05,0,0,0.05,0,0)" xlink:href="#C"/><use transform="matrix(0.05,0,0,0.05,12,0)" xlink:href="#K"/><use transform="matrix(0.05,0,0,0.05,21,0)" xlink:href="#K"/><use transform="matrix(0.05,0,0,0.05,30,0)" xlink:href="#E"/><use transform="matrix(0.05,0,0,0.05,40,0)" xlink:href="#G"/><use transform="matrix(0.05,0,0,0.05,45,0)" xlink:href="#K"/></g><path d="M30 0v-248h187v28H63v79h144v27H63v87h162V0H30" id="L"/><path d="M209 0H11v-25l151-195H24v-28h176v25L50-27h159V0" id="M"/><path d="M30 0v-248h33v221h125V0H30" id="N"/><path d="M179-190L93 31C79 59 56 82 12 73V49c39 6 53-20 64-50L1-190h34L92-34l54-156h33" id="O"/><path d="M141 0L90-78 38 0H4l68-98-65-92h35l48 74 47-74h35l-64 92 68 98h-35" id="P"/><g id="d"><use transform="matrix(0.05,0,0,0.05,0,0)" xlink:href="#L"/><use transform="matrix(0.05,0,0,0.05,12,0)" xlink:href="#M"/><use transform="matrix(0.05,0,0,0.05,22.950000000000003,0)" xlink:href="#N"/><use transform="matrix(0.05,0,0,0.05,32.300000000000004,0)" xlink:href="#O"/><use transform="matrix(0.05,0,0,0.05,41.300000000000004,0)" xlink:href="#F"/><use transform="matrix(0.05,0,0,0.05,51.300000000000004,0)" xlink:href="#P"/></g><path d="M206 0h-36l-40-164L89 0H53L-1-190h32L70-26l43-164h34l41 164 42-164h31" id="Q"/><path d="M24-231v-30h32v30H24zM24 0v-190h32V0H24" id="R"/><path d="M24 0v-261h32V0H24" id="S"/><g id="e"><use transform="matrix(0.05,0,0,0.05,0,0)" xlink:href="#Q"/><use transform="matrix(0.05,0,0,0.05,12.950000000000001,0)" xlink:href="#R"/><use transform="matrix(0.05,0,0,0.05,16.900000000000002,0)" xlink:href="#S"/><use transform="matrix(0.05,0,0,0.05,20.85,0)" xlink:href="#S"/></g><path d="M115-194c55 1 70 41 70 98S169 2 115 4C84 4 66-9 55-30l1 105H24l-1-265h31l2 30c10-21 28-34 59-34zm-8 174c40 0 45-34 45-75s-6-73-45-74c-42 0-51 32-51 76 0 43 10 73 51 73" id="T"/><path d="M114-163C36-179 61-72 57 0H25l-1-190h30c1 12-1 29 2 39 6-27 23-49 58-41v29" id="U"/><g id="f"><use transform="matrix(0.05,0,0,0.05,0,0)" xlink:href="#T"/><use transform="matrix(0.05,0,0,0.05,10,0)" xlink:href="#U"/><use transform="matrix(0.05,0,0,0.05,15.949999999999998,0)" xlink:href="#I"/><use transform="matrix(0.05,0,0,0.05,25.950000000000003,0)" xlink:href="#H"/><use transform="matrix(0.05,0,0,0.05,34.95,0)" xlink:href="#E"/><use transform="matrix(0.05,0,0,0.05,44.95,0)" xlink:href="#K"/><use transform="matrix(0.05,0,0,0.05,53.95,0)" xlink:href="#K"/></g><path d="M106-169C34-169 62-67 57 0H25v-261h32l-1 103c12-21 28-36 61-36 89 0 53 116 60 194h-32v-121c2-32-8-49-39-48" id="V"/><g id="g"><use transform="matrix(0.05,0,0,0.05,0,0)" xlink:href="#G"/><use transform="matrix(0.05,0,0,0.05,5,0)" xlink:href="#V"/><use transform="matrix(0.05,0,0,0.05,15,0)" xlink:href="#E"/></g><path d="M141-36C126-15 110 5 73 4 37 3 15-17 15-53c-1-64 63-63 125-63 3-35-9-54-41-54-24 1-41 7-42 31l-33-3c5-37 33-52 76-52 45 0 72 20 72 64v82c-1 20 7 32 28 27v20c-31 9-61-2-59-35zM48-53c0 20 12 33 32 33 41-3 63-29 60-74-43 2-92-5-92 41" id="W"/><g id="h"><use transform="matrix(0.05,0,0,0.05,0,0)" xlink:href="#W"/><use transform="matrix(0.05,0,0,0.05,10,0)" xlink:href="#K"/><use transform="matrix(0.05,0,0,0.05,19,0)" xlink:href="#K"/><use transform="matrix(0.05,0,0,0.05,28,0)" xlink:href="#E"/><use transform="matrix(0.05,0,0,0.05,38,0)" xlink:href="#G"/></g><path d="M101-234c-31-9-42 10-38 44h38v23H63V0H32v-167H5v-23h27c-7-52 17-82 69-68v24" id="X"/><g id="i"><use transform="matrix(0.05,0,0,0.05,0,0)" xlink:href="#R"/><use transform="matrix(0.05,0,0,0.05,3.95,0)" xlink:href="#F"/><use transform="matrix(0.05,0,0,0.05,13.949999999999998,0)" xlink:href="#X"/><use transform="matrix(0.05,0,0,0.05,18.95,0)" xlink:href="#I"/></g><g id="j"><use transform="matrix(0.05,0,0,0.05,0,0)" xlink:href="#C"/><use transform="matrix(0.05,0,0,0.05,12,0)" xlink:href="#K"/><use transform="matrix(0.05,0,0,0.05,21,0)" xlink:href="#K"/><use transform="matrix(0.05,0,0,0.05,30,0)" xlink:href="#E"/><use transform="matrix(0.05,0,0,0.05,40,0)" xlink:href="#G"/></g><path d="M240 0l2-218c-23 76-54 145-80 218h-23L58-218 59 0H30v-248h44l77 211c21-75 51-140 76-211h43V0h-30" id="Y"/><path d="M210-169c-67 3-38 105-44 169h-31v-121c0-29-5-50-35-48C34-165 62-65 56 0H25l-1-190h30c1 10-1 24 2 32 10-44 99-50 107 0 11-21 27-35 58-36 85-2 47 119 55 194h-31v-121c0-29-5-49-35-48" id="Z"/><g id="k"><use transform="matrix(0.05,0,0,0.05,0,0)" xlink:href="#Y"/><use transform="matrix(0.05,0,0,0.05,14.950000000000001,0)" xlink:href="#D"/><use transform="matrix(0.05,0,0,0.05,24.950000000000003,0)" xlink:href="#Z"/><use transform="matrix(0.05,0,0,0.05,39.900000000000006,0)" xlink:href="#G"/></g><path d="M9 0v-24l116-142H16v-24h144v24L44-24h123V0H9" id="aa"/><g id="l"><use transform="matrix(0.05,0,0,0.05,0,0)" xlink:href="#C"/><use transform="matrix(0.05,0,0,0.05,12,0)" xlink:href="#F"/><use transform="matrix(0.05,0,0,0.05,22,0)" xlink:href="#W"/><use transform="matrix(0.05,0,0,0.05,32,0)" xlink:href="#S"/><use transform="matrix(0.05,0,0,0.05,35.95,0)" xlink:href="#O"/><use transform="matrix(0.05,0,0,0.05,44.95,0)" xlink:href="#aa"/><use transform="matrix(0.05,0,0,0.05,53.95,0)" xlink:href="#E"/></g><path d="M67-125c0 53 21 87 73 88 37 1 54-22 65-47l45 17C233-25 199 4 140 4 58 4 20-42 15-125 8-235 124-281 211-232c18 10 29 29 36 50l-46 12c-8-25-30-41-62-41-52 0-71 34-72 86" id="ab"/><use transform="matrix(0.08641975308641976,0,0,0.08641975308641976,0,0)" xlink:href="#ab" id="m"/><path d="M85-194c31 0 48 13 60 33l-1-100h32l1 261h-30c-2-10 0-23-3-31C134-8 116 4 85 4 32 4 16-35 15-94c0-66 23-100 70-100zm9 24c-40 0-46 34-46 75 0 40 6 74 45 74 42 0 51-32 51-76 0-42-9-74-50-73" id="ac"/><g id="n"><use transform="matrix(0.05,0,0,0.05,0,0)" xlink:href="#C"/><use transform="matrix(0.05,0,0,0.05,12,0)" xlink:href="#ac"/><use transform="matrix(0.05,0,0,0.05,22,0)" xlink:href="#K"/></g><path d="M126-127c33 6 58 20 58 59 0 88-139 92-164 29-3-8-5-16-6-25l32-3c6 27 21 44 54 44 32 0 52-15 52-46 0-38-36-46-79-43v-28c39 1 72-4 72-42 0-27-17-43-46-43-28 0-47 15-49 41l-32-3c6-42 35-63 81-64 48-1 79 21 79 65 0 36-21 52-52 59" id="ad"/><g id="o"><use transform="matrix(0.05,0,0,0.05,0,0)" xlink:href="#ad"/><use transform="matrix(0.05,0,0,0.05,10,0)" xlink:href="#U"/><use transform="matrix(0.05,0,0,0.05,15.949999999999998,0)" xlink:href="#ac"/></g><path d="M30-248c87 1 191-15 191 75 0 78-77 80-158 76V0H30v-248zm33 125c57 0 124 11 124-50 0-59-68-47-124-48v98" id="ae"/><g id="p"><use transform="matrix(0.05,0,0,0.05,0,0)" xlink:href="#ae"/><use transform="matrix(0.05,0,0,0.05,12,0)" xlink:href="#W"/><use transform="matrix(0.05,0,0,0.05,22,0)" xlink:href="#U"/><use transform="matrix(0.05,0,0,0.05,27.950000000000003,0)" xlink:href="#G"/><use transform="matrix(0.05,0,0,0.05,32.95,0)" xlink:href="#O"/></g><path d="M212-179c-10-28-35-45-73-45-59 0-87 40-87 99 0 60 29 101 89 101 43 0 62-24 78-52l27 14C228-24 195 4 139 4 59 4 22-46 18-125c-6-104 99-153 187-111 19 9 31 26 39 46" id="af"/><path d="M108 0H70L1-190h34L89-25l56-165h34" id="ag"/><g id="q"><use transform="matrix(0.05,0,0,0.05,0,0)" xlink:href="#af"/><use transform="matrix(0.05,0,0,0.05,12.950000000000001,0)" xlink:href="#I"/><use transform="matrix(0.05,0,0,0.05,22.950000000000003,0)" xlink:href="#ag"/><use transform="matrix(0.05,0,0,0.05,31.950000000000003,0)" xlink:href="#E"/><use transform="matrix(0.05,0,0,0.05,41.95,0)" xlink:href="#U"/><use transform="matrix(0.05,0,0,0.05,47.900000000000006,0)" xlink:href="#W"/><use transform="matrix(0.05,0,0,0.05,57.900000000000006,0)" xlink:href="#D"/><use transform="matrix(0.05,0,0,0.05,67.9,0)" xlink:href="#E"/></g><path d="M160-131c35 5 61 23 61 61C221 17 115-2 30 0v-248c76 3 177-17 177 60 0 33-19 50-47 57zm-97-11c50-1 110 9 110-42 0-47-63-36-110-37v79zm0 115c55-2 124 14 124-45 0-56-70-42-124-44v89" id="ah"/><g id="r"><use transform="matrix(0.05,0,0,0.05,0,0)" xlink:href="#ah"/><use transform="matrix(0.05,0,0,0.05,12,0)" xlink:href="#J"/><use transform="matrix(0.05,0,0,0.05,22,0)" xlink:href="#F"/><use transform="matrix(0.05,0,0,0.05,32,0)" xlink:href="#ac"/><use transform="matrix(0.05,0,0,0.05,42,0)" xlink:href="#S"/><use transform="matrix(0.05,0,0,0.05,45.95,0)" xlink:href="#R"/><use transform="matrix(0.05,0,0,0.05,49.900000000000006,0)" xlink:href="#F"/><use transform="matrix(0.05,0,0,0.05,59.900000000000006,0)" xlink:href="#D"/></g><g id="s"><use transform="matrix(0.05,0,0,0.05,0,0)" xlink:href="#C"/><use transform="matrix(0.05,0,0,0.05,12,0)" xlink:href="#D"/><use transform="matrix(0.05,0,0,0.05,22,0)" xlink:href="#E"/><use transform="matrix(0.05,0,0,0.05,32,0)" xlink:href="#F"/><use transform="matrix(0.05,0,0,0.05,42,0)" xlink:href="#H"/><use transform="matrix(0.05,0,0,0.05,51,0)" xlink:href="#O"/></g><path d="M63-220v92h138v28H63V0H30v-248h175v28H63" id="ai"/><g id="t"><use transform="matrix(0.05,0,0,0.05,0,0)" xlink:href="#ai"/><use transform="matrix(0.05,0,0,0.05,10.950000000000001,0)" xlink:href="#E"/><use transform="matrix(0.05,0,0,0.05,20.950000000000003,0)" xlink:href="#E"/><use transform="matrix(0.05,0,0,0.05,30.950000000000003,0)" xlink:href="#K"/></g><g id="u"><use transform="matrix(0.05,0,0,0.05,0,0)" xlink:href="#af"/><use transform="matrix(0.05,0,0,0.05,12.950000000000001,0)" xlink:href="#I"/><use transform="matrix(0.05,0,0,0.05,22.950000000000003,0)" xlink:href="#Z"/><use transform="matrix(0.05,0,0,0.05,37.900000000000006,0)" xlink:href="#Z"/><use transform="matrix(0.05,0,0,0.05,52.85,0)" xlink:href="#R"/><use transform="matrix(0.05,0,0,0.05,56.80000000000001,0)" xlink:href="#K"/><use transform="matrix(0.05,0,0,0.05,65.80000000000001,0)" xlink:href="#K"/><use transform="matrix(0.05,0,0,0.05,74.80000000000001,0)" xlink:href="#R"/><use transform="matrix(0.05,0,0,0.05,78.75000000000001,0)" xlink:href="#I"/><use transform="matrix(0.05,0,0,0.05,88.75000000000001,0)" xlink:href="#F"/></g><g id="v"><use transform="matrix(0.05,0,0,0.05,0,0)" xlink:href="#ai"/><use transform="matrix(0.05,0,0,0.05,10.950000000000001,0)" xlink:href="#E"/><use transform="matrix(0.05,0,0,0.05,20.950000000000003,0)" xlink:href="#E"/><use transform="matrix(0.05,0,0,0.05,30.950000000000003,0)" xlink:href="#K"/></g><path d="M0 4l72-265h28L28 4H0" id="aj"/><use transform="matrix(0.05,0,0,0.05,0,0)" xlink:href="#aj" id="w"/><path d="M252-156c43 0 55 33 55 80 0 46-13 78-56 78-42 0-55-33-55-78 0-48 12-80 56-80zM93 0H65l162-248h28zM13-171c-1-47 13-79 56-79s55 33 55 79-13 79-55 79c-43 0-56-33-56-79zM251-17c28 0 30-29 30-59 0-31-1-60-29-60-29 0-31 29-31 60 0 29 2 59 30 59zM69-112c27 0 28-30 29-59 0-31-1-60-29-60-29 0-30 30-30 60s2 59 30 59" id="ak"/><use transform="matrix(0.05,0,0,0.05,0,0)" xlink:href="#ak" id="x"/><g id="y"><use transform="matrix(0.05,0,0,0.05,0,0)" xlink:href="#I"/><use transform="matrix(0.05,0,0,0.05,10,0)" xlink:href="#X"/></g><g id="z"><use transform="matrix(0.05,0,0,0.05,0,0)" xlink:href="#G"/><use transform="matrix(0.05,0,0,0.05,5,0)" xlink:href="#U"/><use transform="matrix(0.05,0,0,0.05,10.95,0)" xlink:href="#W"/><use transform="matrix(0.05,0,0,0.05,20.95,0)" xlink:href="#F"/><use transform="matrix(0.05,0,0,0.05,30.950000000000003,0)" xlink:href="#K"/><use transform="matrix(0.05,0,0,0.05,39.95,0)" xlink:href="#W"/><use transform="matrix(0.05,0,0,0.05,49.95,0)" xlink:href="#H"/><use transform="matrix(0.05,0,0,0.05,58.95,0)" xlink:href="#G"/><use transform="matrix(0.05,0,0,0.05,63.95,0)" xlink:href="#R"/><use transform="matrix(0.05,0,0,0.05,67.9,0)" xlink:href="#I"/><use transform="matrix(0.05,0,0,0.05,77.9,0)" xlink:href="#F"/><use transform="matrix(0.05,0,0,0.05,87.9,0)" xlink:href="#K"/></g><path d="M111-147c44 9 85 22 84 75-1 49-35 65-84 68v31H91V-4C40-5 12-27 5-72l45-8c4 24 15 38 41 40-2-22 4-51-2-69-39-10-76-22-76-72 0-47 35-60 78-63v-23h20v23c47 1 70 23 78 62l-46 7c-4-18-12-32-32-34v62zm-20-63c-33-4-45 46-13 54 4 1 8 2 13 4v-58zm20 170c39 5 53-51 15-60-7-2-7-2-15-4v64" id="al"/><use transform="matrix(0.06172839506172839,0,0,0.06172839506172839,0,0)" xlink:href="#al" id="A"/><g id="B"><use transform="matrix(0.05,0,0,0.05,0,0)" xlink:href="#af"/><use transform="matrix(0.05,0,0,0.05,12.950000000000001,0)" xlink:href="#I"/><use transform="matrix(0.05,0,0,0.05,22.950000000000003,0)" xlink:href="#F"/><use transform="matrix(0.05,0,0,0.05,32.95,0)" xlink:href="#ag"/><use transform="matrix(0.05,0,0,0.05,41.95,0)" xlink:href="#E"/><use transform="matrix(0.05,0,0,0.05,51.95,0)" xlink:href="#U"/><use transform="matrix(0.05,0,0,0.05,57.900000000000006,0)" xlink:href="#K"/><use transform="matrix(0.05,0,0,0.05,66.9,0)" xlink:href="#W"/><use transform="matrix(0.05,0,0,0.05,76.9,0)" xlink:href="#G"/><use transform="matrix(0.05,0,0,0.05,81.9,0)" xlink:href="#R"/><use transform="matrix(0.05,0,0,0.05,85.85000000000001,0)" xlink:href="#I"/><use transform="matrix(0.05,0,0,0.05,95.85000000000001,0)" xlink:href="#F"/></g></defs></g></svg>