<?xml version="1.0" encoding="UTF-8" standalone="no"?>
<!DOCTYPE svg PUBLIC "-//W3C//DTD SVG 1.1//EN" "http://www.w3.org/Graphics/SVG/1.1/DTD/svg11.dtd">
<svg width="100%" height="100%" viewBox="0 0 2550 3300" version="1.1" xmlns="http://www.w3.org/2000/svg" xmlns:xlink="http://www.w3.org/1999/xlink" xml:space="preserve" xmlns:serif="http://www.serif.com/" style="fill-rule:evenodd;clip-rule:evenodd;stroke-linejoin:round;stroke-miterlimit:2;">
    <g transform="matrix(1,0,0,1,-2868.75,0)">
        <g id="Page-2" serif:id="Page 2" transform="matrix(4.16667,0,0,4.16667,2868.75,0)">
            <rect x="0" y="0" width="612" height="792" style="fill:white;"/>
            <g>
                <clipPath id="_clip1">
                    <rect x="48" y="48" width="516" height="695.96" clip-rule="nonzero"/>
                </clipPath>
                <g clip-path="url(#_clip1)">
                    <g transform="matrix(1,0,0,1,0,-696)">
                        <rect x="47.96" y="48" width="527.29" height="1392" style="fill:white;"/>
                    </g>
                    <g transform="matrix(0,-1,-1,0,781.615,151.015)">
                        <ellipse cx="70.315" cy="711.3" rx="1.54" ry="1.535"/>
                    </g>
                    <g transform="matrix(0,-1,-1,0,724.015,208.615)">
                        <ellipse cx="70.315" cy="653.7" rx="1.54" ry="1.535"/>
                    </g>
                    <g transform="matrix(0,-1,-1,0,487.015,445.615)">
                        <ellipse cx="70.315" cy="416.7" rx="1.54" ry="1.535"/>
                    </g>
                    <g transform="matrix(0,-1,-1,0,467.815,464.815)">
                        <ellipse cx="70.315" cy="397.5" rx="1.54" ry="1.535"/>
                    </g>
                    <g transform="matrix(0,-1,-1,0,419.815,512.815)">
                        <ellipse cx="70.315" cy="349.5" rx="1.54" ry="1.535"/>
                    </g>
                    <g transform="matrix(0.24,0,0,0.24,187.218,75.984)">
                        <text x="246.34px" y="123.859px" style="font-family:'Helvetica';font-size:33.292px;">1.</text>
                        <text x="246.34px" y="163.859px" style="font-family:'Helvetica';font-size:33.292px;">2.</text>
                        <text x="246.34px" y="203.859px" style="font-family:'Helvetica';font-size:33.292px;">3.</text>
                        <g transform="matrix(33.2917,0,0,33.2917,274.1,323.859)">
                        </g>
                        <text x="246.34px" y="323.859px" style="font-family:'Helvetica';font-size:33.292px;">4.</text>
                    </g>
                    <g transform="matrix(0.24,0,0,0.24,37.62,37.908)">
                        <text x="168.25px" y="73.759px" style="font-family:'Helvetica';font-size:33.292px;fill:rgb(51,51,51);">Wo<tspan x="218.182px " y="73.759px ">u</tspan>ld that be another Cert Holder,</text>
                        <text x="168.25px" y="113.759px" style="font-family:'Helvetica';font-size:33.292px;fill:rgb(51,51,51);">or just a PDF that can be imported</text>
                        <text x="168.25px" y="153.759px" style="font-family:'Helvetica';font-size:33.292px;fill:rgb(51,51,51);">from Docs library?</text>
                        <text x="168.25px" y="193.759px" style="font-family:'Helvetica';font-size:33.292px;">Add documents needs to be before</text>
                        <text x="168.25px" y="233.759px" style="font-family:'Helvetica';font-size:33.292px;">Add Cert Holders so they don&apos;<tspan x="612.327px " y="233.759px ">t</tspan> end</text>
                        <text x="168.25px" y="273.759px" style="font-family:'Helvetica';font-size:33.292px;">up wasting time adding the same</text>
                        <g transform="matrix(33.2917,0,0,33.2917,506.839,313.759)">
                        </g>
                        <g transform="matrix(33.2917,0,0,33.2917,516.087,313.759)">
                        </g>
                        <text x="168.25px" y="313.759px" style="font-family:'Helvetica';font-size:33.292px;">doc to all Cert Holders ﬁrst and</text>
                        <text x="168.25px" y="353.759px" style="font-family:'Helvetica';font-size:33.292px;">then again to each individual cer<tspan x="645.66px " y="353.759px ">t</tspan></text>
                        <text x="168.25px" y="393.759px" style="font-family:'Helvetica';font-size:33.292px;">holder</text>
                        <text x="168.25px" y="433.759px" style="font-family:'Helvetica';font-size:33.292px;fill:rgb(51,51,51);">Carlo: &quot;Wo<tspan x="328.035px " y="433.759px ">u</tspan>ld be nice to be able to</text>
                        <text x="168.25px" y="473.759px" style="font-family:'Helvetica';font-size:33.292px;fill:rgb(51,51,51);">add a log # or something to track a</text>
                        <g transform="matrix(33.2917,0,0,33.2917,231.137,513.759)">
                        </g>
                        <g transform="matrix(33.2917,0,0,33.2917,240.386,513.759)">
                        </g>
                        <g transform="matrix(33.2917,0,0,33.2917,356.967,513.759)">
                        </g>
                        <g transform="matrix(33.2917,0,0,33.2917,366.216,513.759)">
                        </g>
                        <text x="168.25px" y="513.759px" style="font-family:'Helvetica';font-size:33.292px;fill:rgb(51,51,51);">certiﬁcate to ﬁnd fraud.&quot; Can</text>
                        <text x="168.25px" y="553.759px" style="font-family:'Helvetica';font-size:33.292px;fill:rgb(51,51,51);">probably use distribution history to</text>
                        <text x="168.25px" y="593.759px" style="font-family:'Helvetica';font-size:33.292px;fill:rgb(51,51,51);">track that.</text>
                        <g transform="matrix(50,0,0,50,274.499,758.009)">
                        </g>
                        <g transform="matrix(50,0,0,50,291.149,758.009)">
                        </g>
                        <text x="49.5px" y="758.009px" style="font-family:'Helvetica-Bold', 'Helvetica';font-weight:700;font-size:50px;fill:rgb(51,51,51);">Add Certiﬁcate Holders</text>
                        <g transform="matrix(43.75,0,0,43.75,251.285,867.967)">
                        </g>
                        <g transform="matrix(43.75,0,0,43.75,265.853,867.967)">
                        </g>
                        <text x="49.5px" y="867.967px" style="font-family:'Helvetica-Bold', 'Helvetica';font-weight:700;font-size:43.75px;fill:rgb(51,51,51);">New Certiﬁcate Holder Modal</text>
                        <text x="49.5px" y="974.259px" style="font-family:'Helvetica-Bold', 'Helvetica';font-weight:700;font-size:43.75px;fill:rgb(51,51,51);">Import From Other Policies</text>
                        <text x="49.5px" y="1080.51px" style="font-family:'Helvetica-Bold', 'Helvetica';font-weight:700;font-size:43.75px;fill:rgb(51,51,51);">Upload File</text>
                        <g transform="matrix(50,0,0,50,410.632,1258.01)">
                        </g>
                        <g transform="matrix(50,0,0,50,427.281,1258.01)">
                        </g>
                        <text x="49.5px" y="1258.01px" style="font-family:'Helvetica-Bold', 'Helvetica';font-weight:700;font-size:50px;fill:rgb(51,51,51);">Distribute Certiﬁcates –</text>
                        <text x="49.5px" y="1333.01px" style="font-family:'Helvetica-Bold', 'Helvetica';font-weight:700;font-size:50px;fill:rgb(51,51,51);">Review</text>
                        <text x="168.25px" y="1421.26px" style="font-family:'Helvetica';font-size:33.292px;fill:rgb(51,51,51);">Need a back button from</text>
                        <text x="168.25px" y="1461.26px" style="font-family:'Helvetica';font-size:33.292px;fill:rgb(51,51,51);">distribution history to Edit Master.</text>
                        <text x="168.25px" y="1501.26px" style="font-family:'Helvetica';font-size:33.292px;">C: &quot;</text>
                        <text x="222.611px" y="1501.26px" style="font-family:'Helvetica';font-size:33.292px;fill:rgb(51,51,51);">No reason to see if no</text>
                        <g transform="matrix(33.2917,0,0,33.2917,468.051,1541.26)">
                        </g>
                        <g transform="matrix(33.2917,0,0,33.2917,477.3,1541.26)">
                        </g>
                        <text x="168.25px" y="1541.26px" style="font-family:'Helvetica';font-size:33.292px;fill:rgb(51,51,51);">one has seen a certiﬁcate yet. May</text>
                        <text x="168.25px" y="1581.26px" style="font-family:'Helvetica';font-size:33.292px;fill:rgb(51,51,51);">not be useful.<tspan x="368.412px " y="1581.26px ">A</tspan>ll certs will go out.</text>
                        <text x="168.25px" y="1621.26px" style="font-family:'Helvetica';font-size:33.292px;fill:rgb(51,51,51);">Should not have situation where</text>
                        <text x="168.25px" y="1661.26px" style="font-family:'Helvetica';font-size:33.292px;fill:rgb(51,51,51);">someone did not receive cert.&quot;</text>
                        <text x="168.25px" y="1701.26px" style="font-family:'Helvetica';font-size:33.292px;fill:rgb(51,51,51);">&quot;Fax wouldn&apos;<tspan x="357.679px " y="1701.26px ">t</tspan> work because has to</text>
                        <text x="168.25px" y="1741.26px" style="font-family:'Helvetica';font-size:33.292px;fill:rgb(51,51,51);">come from certain email address.</text>
                        <text x="168.25px" y="1781.26px" style="font-family:'Helvetica';font-size:33.292px;fill:rgb(51,51,51);">Might work? Something like</text>
                        <text x="582.262px" y="1781.26px" style="font-family:'Helvetica';font-size:33.292px;fill:rgb(0,51,102);">fax@a</text>
                        <text x="168.25px" y="1821.26px" style="font-family:'Helvetica';font-size:33.292px;fill:rgb(0,51,102);">bc.com</text>
                        <text x="275.577px" y="1821.26px" style="font-family:'Helvetica';font-size:33.292px;fill:rgb(51,51,51);">. Wo<tspan x="344.036px " y="1821.26px ">u</tspan>ldn&apos;<tspan x="414.385px " y="1821.26px ">t</tspan> work from a</text>
                        <text x="168.25px" y="1861.26px" style="font-family:'Helvetica';font-size:33.292px;fill:rgb(51,51,51);">regular email. Has to come from a</text>
                        <text x="168.25px" y="1901.26px" style="font-family:'Helvetica';font-size:33.292px;fill:rgb(51,51,51);">FA<tspan x="210.787px " y="1901.26px ">X</tspan> machine. Subject has to be</text>
                        <g transform="matrix(33.2917,0,0,33.2917,411.373,1941.26)">
                        </g>
                        <text x="168.25px" y="1941.26px" style="font-family:'Helvetica';font-size:33.292px;fill:rgb(51,51,51);">the fax number.<tspan x="399.555px " y="1941.26px ">&quot;</tspan></text>
                    </g>
                    <g transform="matrix(0.24,0,0,0.24,174.025,57.6789)">
                        <text x="228.98px" y="111.88px" style="font-family:'Helvetica-Bold', 'Helvetica';font-weight:700;font-size:50px;fill:rgb(51,51,51);">J (H)</text>
                        <text x="347.73px" y="200.13px" style="font-family:'Helvetica';font-size:33.292px;fill:rgb(51,51,51);">Likes the Postal Mail feature.</text>
                        <text x="347.73px" y="240.13px" style="font-family:'Helvetica';font-size:33.292px;">Distribution history</text>
                        <text x="347.73px" y="280.13px" style="font-family:'Helvetica';font-size:33.292px;">Being able to edit/distribute cert</text>
                        <text x="347.73px" y="320.13px" style="font-family:'Helvetica';font-size:33.292px;">holder from the Master landing</text>
                        <text x="347.73px" y="360.13px" style="font-family:'Helvetica';font-size:33.292px;">page.</text>
                        <g transform="matrix(33.2917,0,0,33.2917,845.514,400.13)">
                        </g>
                        <text x="347.73px" y="400.13px" style="font-family:'Helvetica';font-size:33.292px;">Being able to attach endorsement</text>
                    </g>
                </g>
            </g>
        </g>
    </g>
</svg>
