<?xml version="1.0" encoding="UTF-8" standalone="no"?>
<!DOCTYPE svg PUBLIC "-//W3C//DTD SVG 1.1//EN" "http://www.w3.org/Graphics/SVG/1.1/DTD/svg11.dtd">
<svg width="100%" height="100%" viewBox="0 0 2550 3300" version="1.1" xmlns="http://www.w3.org/2000/svg" xmlns:xlink="http://www.w3.org/1999/xlink" xml:space="preserve" xmlns:serif="http://www.serif.com/" style="fill-rule:evenodd;clip-rule:evenodd;stroke-linejoin:round;stroke-miterlimit:2;">
    <g id="Page-1" serif:id="Page 1" transform="matrix(4.16667,0,0,4.16667,0,0)">
        <rect x="0" y="0" width="612" height="792" style="fill:white;"/>
        <g>
            <clipPath id="_clip1">
                <rect x="48" y="48" width="516" height="695.96" clip-rule="nonzero"/>
            </clipPath>
            <g clip-path="url(#_clip1)">
                <g transform="matrix(1,0,0,1,0,535.46)">
                    <rect x="47.96" y="-487.46" width="527.29" height="1231.46" style="fill:white;"/>
                </g>
                <g transform="matrix(0,-1,-1,0,700.915,231.715)">
                    <ellipse cx="70.315" cy="630.6" rx="1.54" ry="1.535"/>
                </g>
                <g transform="matrix(0,-1,-1,0,662.515,270.115)">
                    <ellipse cx="70.315" cy="592.2" rx="1.54" ry="1.535"/>
                </g>
                <g transform="matrix(0,-1,-1,0,563.065,369.565)">
                    <ellipse cx="70.315" cy="492.75" rx="1.54" ry="1.535"/>
                </g>
                <g transform="matrix(0,-1,-1,0,543.865,388.765)">
                    <ellipse cx="70.315" cy="473.55" rx="1.54" ry="1.535"/>
                </g>
                <g transform="matrix(0,-1,-1,0,505.465,427.165)">
                    <ellipse cx="70.315" cy="435.15" rx="1.54" ry="1.535"/>
                </g>
                <g transform="matrix(0,-1,-1,0,476.665,455.965)">
                    <ellipse cx="70.315" cy="406.35" rx="1.54" ry="1.535"/>
                </g>
                <g transform="matrix(0,-1,-1,0,388.165,544.465)">
                    <ellipse cx="70.315" cy="317.85" rx="1.54" ry="1.535"/>
                </g>
                <g transform="matrix(0,-1,-1,0,317.965,614.665)">
                    <ellipse cx="70.315" cy="247.65" rx="1.54" ry="1.535"/>
                </g>
                <g transform="matrix(0,-1,-1,0,247.765,684.865)">
                    <ellipse cx="70.315" cy="177.45" rx="1.54" ry="1.535"/>
                </g>
                <g transform="matrix(0,-1,-1,0,218.965,713.665)">
                    <ellipse cx="70.315" cy="148.65" rx="1.54" ry="1.535"/>
                </g>
                <g transform="matrix(0,-1,-1,0,190.165,742.465)">
                    <ellipse cx="70.315" cy="119.85" rx="1.54" ry="1.535"/>
                </g>
                <g transform="matrix(0,-1,-1,0,142.165,790.465)">
                    <ellipse cx="70.315" cy="71.85" rx="1.54" ry="1.535"/>
                </g>
                <g transform="matrix(0.24,0,0,0.24,187.218,117.708)">
                    <g transform="matrix(33.2917,0,0,33.2917,274.1,178.759)">
                    </g>
                    <text x="246.34px" y="178.759px" style="font-family:'Helvetica';font-size:33.292px;">1.</text>
                </g>
                <g transform="matrix(0.24,0,0,0.24,187.218,161.484)">
                    <text x="246.34px" y="236.359px" style="font-family:'Helvetica';font-size:33.292px;">2.</text>
                    <g transform="matrix(33.2917,0,0,33.2917,274.1,276.359)">
                    </g>
                    <text x="246.34px" y="276.359px" style="font-family:'Helvetica';font-size:33.292px;">3.</text>
                </g>
                <g transform="matrix(0.24,0,0,0.24,187.218,249.72)">
                    <text x="246.34px" y="352.459px" style="font-family:'Helvetica';font-size:33.292px;">1.</text>
                    <text x="246.34px" y="392.459px" style="font-family:'Helvetica';font-size:33.292px;">2.</text>
                    <text x="246.34px" y="472.459px" style="font-family:'Helvetica';font-size:33.292px;">3.</text>
                    <text x="246.34px" y="552.459px" style="font-family:'Helvetica';font-size:33.292px;">4.</text>
                    <text x="246.34px" y="632.459px" style="font-family:'Helvetica';font-size:33.292px;">5.</text>
                    <text x="246.34px" y="752.459px" style="font-family:'Helvetica';font-size:33.292px;">6.</text>
                    <g transform="matrix(33.2917,0,0,33.2917,274.1,792.459)">
                    </g>
                    <text x="246.34px" y="792.459px" style="font-family:'Helvetica';font-size:33.292px;">7.</text>
                </g>
                <g transform="matrix(0.24,0,0,0.24,187.218,464.04)">
                    <text x="246.34px" y="634.459px" style="font-family:'Helvetica';font-size:33.292px;">1.</text>
                    <text x="246.34px" y="714.459px" style="font-family:'Helvetica';font-size:33.292px;">2.</text>
                    <text x="246.34px" y="794.459px" style="font-family:'Helvetica';font-size:33.292px;">3.</text>
                    <text x="246.34px" y="834.459px" style="font-family:'Helvetica';font-size:33.292px;">4.</text>
                    <text x="246.34px" y="874.459px" style="font-family:'Helvetica';font-size:33.292px;">5.</text>
                    <text x="246.34px" y="914.459px" style="font-family:'Helvetica';font-size:33.292px;">6.</text>
                    <text x="246.34px" y="954.459px" style="font-family:'Helvetica';font-size:33.292px;">7.</text>
                    <g transform="matrix(33.2917,0,0,33.2917,274.1,1074.46)">
                    </g>
                    <text x="246.34px" y="1074.46px" style="font-family:'Helvetica';font-size:33.292px;">8.</text>
                </g>
                <g transform="matrix(0.24,0,0,0.24,323.646,121.128)">
                    <text x="425.85px" y="183.259px" style="font-family:'Helvetica';font-size:33.292px;">1.</text>
                    <text x="425.85px" y="223.259px" style="font-family:'Helvetica';font-size:33.292px;">2.</text>
                    <text x="425.85px" y="383.259px" style="font-family:'Helvetica';font-size:33.292px;">3.</text>
                    <text x="425.85px" y="543.259px" style="font-family:'Helvetica';font-size:33.292px;">4.</text>
                    <text x="425.85px" y="685.759px" style="font-family:'Helvetica';font-size:33.292px;">1.</text>
                    <text x="425.85px" y="805.759px" style="font-family:'Helvetica';font-size:33.292px;">2.</text>
                    <text x="425.85px" y="948.259px" style="font-family:'Helvetica';font-size:33.292px;">1.</text>
                    <text x="425.85px" y="1028.26px" style="font-family:'Helvetica';font-size:33.292px;">2.</text>
                    <text x="425.85px" y="1148.26px" style="font-family:'Helvetica';font-size:33.292px;">3.</text>
                    <g transform="matrix(33.2917,0,0,33.2917,453.61,1228.26)">
                    </g>
                    <text x="425.85px" y="1228.26px" style="font-family:'Helvetica';font-size:33.292px;">4.</text>
                </g>
                <g transform="matrix(0.24,0,0,0.24,37.62,41.1987)">
                    <text x="49.5px" y="108.005px" style="font-family:'Helvetica';font-size:75px;fill:rgb(51,51,51);">Usability T<tspan x="399.526px 441.233px " y="108.005px 108.005px ">es</tspan>ting</text>
                    <text x="49.5px" y="210.672px" style="font-family:'Helvetica-Bold', 'Helvetica';font-weight:700;font-size:62.5px;fill:rgb(51,51,51);">Summary of</text>
                    <text x="49.5px" y="304.422px" style="font-family:'Helvetica-Bold', 'Helvetica';font-weight:700;font-size:62.5px;fill:rgb(51,51,51);">feedback</text>
                    <text x="49.5px" y="428.005px" style="font-family:'Helvetica-Bold', 'Helvetica';font-weight:700;font-size:50px;fill:rgb(51,51,51);">General</text>
                    <text x="168.25px" y="516.297px" style="font-family:'Helvetica';font-size:33.292px;fill:rgb(51,51,51);">Buttons at the bottom are a little</text>
                    <text x="168.25px" y="556.297px" style="font-family:'Helvetica';font-size:33.292px;fill:rgb(51,51,51);">hard to see.Maybe add another set</text>
                    <text x="168.25px" y="596.297px" style="font-family:'Helvetica';font-size:33.292px;fill:rgb(51,51,51);">at the top as well, just below the</text>
                    <text x="168.25px" y="636.297px" style="font-family:'Helvetica';font-size:33.292px;fill:rgb(51,51,51);">wizard?</text>
                    <text x="168.25px" y="676.297px" style="font-family:'Helvetica';font-size:33.292px;fill:rgb(51,51,51);">Add automatic date formatting to all</text>
                    <g transform="matrix(33.2917,0,0,33.2917,242.412,716.755)">
                    </g>
                    <g transform="matrix(33.2917,0,0,33.2917,251.661,716.755)">
                    </g>
                    <text x="168.25px" y="716.755px" style="font-family:'Helvetica';font-size:33.292px;fill:rgb(51,51,51);">date <tspan x="242.412px " y="716.755px ">ﬁ</tspan>elds.</text>
                    <text x="338.748px" y="716.755px" style="font-family:'Helvetica-Bold', 'Helvetica';font-weight:700;font-size:33.292px;fill:rgb(51,51,51);">This <tspan x="416.55px " y="716.755px ">s</tspan>hould <tspan x="535.027px " y="716.755px ">b</tspan>e</text>
                    <text x="168.25px" y="757.255px" style="font-family:'Helvetica-Bold', 'Helvetica';font-weight:700;font-size:33.292px;fill:rgb(51,51,51);">standard across EZLy<tspan x="516.099px " y="757.255px ">n</tspan>x. We<tspan x="623.392px " y="757.255px "> </tspan>got</text>
                    <text x="168.25px" y="797.714px" style="font-family:'Helvetica-Bold', 'Helvetica';font-weight:700;font-size:33.292px;fill:rgb(51,51,51);">great feedback on this feature</text>
                    <text x="168.25px" y="838.172px" style="font-family:'Helvetica-Bold', 'Helvetica';font-weight:700;font-size:33.292px;fill:rgb(51,51,51);">alone from A<tspan x="371.724px " y="838.172px ">g</tspan>entLy<tspan x="480.849px " y="838.172px ">n</tspan>x.</text>
                    <g transform="matrix(50,0,0,50,163.402,1002.38)">
                    </g>
                    <g transform="matrix(50,0,0,50,180.051,1002.38)">
                    </g>
                    <text x="49.5px" y="1002.38px" style="font-family:'Helvetica-Bold', 'Helvetica';font-weight:700;font-size:50px;fill:rgb(51,51,51);">Certiﬁcates Home Page</text>
                    <text x="168.25px" y="1090.67px" style="font-family:'Helvetica';font-size:33.292px;">Did not scroll down to see the</text>
                    <g transform="matrix(33.2917,0,0,33.2917,497.567,1130.67)">
                    </g>
                    <g transform="matrix(33.2917,0,0,33.2917,506.816,1130.67)">
                    </g>
                    <text x="168.25px" y="1130.67px" style="font-family:'Helvetica';font-size:33.292px;">Future or Expired certiﬁcates.</text>
                    <text x="168.25px" y="1170.67px" style="font-family:'Helvetica';font-size:33.292px;">Almost everyone loved Distribution</text>
                    <text x="168.25px" y="1210.67px" style="font-family:'Helvetica';font-size:33.292px;">History.<tspan x="281.063px 290.319px 312.522px 321.778px " y="1210.67px 1210.67px 1210.67px 1210.67px "> A c</tspan>ouple of them didn&apos;<tspan x="619.724px " y="1210.67px ">t</tspan></text>
                    <text x="168.25px" y="1250.67px" style="font-family:'Helvetica';font-size:33.292px;">know to click the history icon, but</text>
                    <text x="168.25px" y="1290.67px" style="font-family:'Helvetica';font-size:33.292px;">most got it.</text>
                    <text x="168.25px" y="1330.67px" style="font-family:'Helvetica';font-size:33.292px;">Future, Expired term confused</text>
                    <text x="168.25px" y="1370.67px" style="font-family:'Helvetica';font-size:33.292px;">almost everybody.<tspan x="438.388px " y="1370.67px "> </tspan>It just doesn&apos;<tspan x="634.555px " y="1370.67px ">t</tspan></text>
                    <text x="168.25px" y="1410.67px" style="font-family:'Helvetica';font-size:33.292px;">match their mental model.</text>
                    <g transform="matrix(33.2917,0,0,33.2917,343.997,1450.67)">
                    </g>
                    <g transform="matrix(33.2917,0,0,33.2917,353.245,1450.67)">
                    </g>
                    <text x="168.25px" y="1450.67px" style="font-family:'Helvetica';font-size:33.292px;">Renew certiﬁcate design confused</text>
                    <text x="168.25px" y="1490.67px" style="font-family:'Helvetica';font-size:33.292px;">everybody.<tspan x="331.074px " y="1490.67px "> </tspan>So replaced it with a</text>
                    <text x="168.25px" y="1530.67px" style="font-family:'Helvetica';font-size:33.292px;">simple &quot;Copy master and edit</text>
                    <text x="168.25px" y="1570.67px" style="font-family:'Helvetica';font-size:33.292px;">everything•<tspan x="331.08px 340.335px " y="1570.67px 1570.67px ">– </tspan>including policy and</text>
                    <text x="168.25px" y="1610.67px" style="font-family:'Helvetica';font-size:33.292px;">ACORD form&quot;</text>
                    <text x="49.5px" y="1734.92px" style="font-family:'Helvetica-Bold', 'Helvetica';font-weight:700;font-size:43.75px;fill:rgb(51,51,51);">History</text>
                    <text x="168.25px" y="1819.42px" style="font-family:'Helvetica';font-size:33.292px;fill:rgb(51,51,51);">Should we let them resend expired</text>
                    <g transform="matrix(33.2917,0,0,33.2917,231.136,1859.42)">
                    </g>
                    <g transform="matrix(33.2917,0,0,33.2917,240.385,1859.42)">
                    </g>
                    <text x="168.25px" y="1859.42px" style="font-family:'Helvetica';font-size:33.292px;fill:rgb(51,51,51);">certiﬁcates or only the latest?</text>
                    <text x="49.5px" y="2023.63px" style="font-family:'Helvetica-Bold', 'Helvetica';font-weight:700;font-size:50px;fill:rgb(51,51,51);">Master Remarks</text>
                    <text x="168.25px" y="2111.92px" style="font-family:'Helvetica';font-size:33.292px;">Missed the save snippets checkbox</text>
                    <g transform="matrix(33.2917,0,0,33.2917,223.784,2151.92)">
                    </g>
                    <g transform="matrix(33.2917,0,0,33.2917,233.033,2151.92)">
                    </g>
                    <text x="168.25px" y="2151.92px" style="font-family:'Helvetica';font-size:33.292px;">the ﬁrst time.</text>
                    <text x="49.5px" y="2316.17px" style="font-family:'Helvetica-Bold', 'Helvetica';font-weight:700;font-size:50px;fill:rgb(51,51,51);">Add Documents</text>
                    <text x="168.25px" y="2404.42px" style="font-family:'Helvetica';font-size:33.292px;">ACORD tab was super confusing</text>
                    <text x="168.25px" y="2444.42px" style="font-family:'Helvetica';font-size:33.292px;">for everybody.<tspan x="379.183px " y="2444.42px "> </tspan>Removed it from</text>
                    <text x="168.25px" y="2484.42px" style="font-family:'Helvetica';font-size:33.292px;">prototype.</text>
                    <text x="168.25px" y="2524.42px" style="font-family:'Helvetica';font-size:33.292px;">Is a major pain point today,</text>
                    <text x="168.25px" y="2564.42px" style="font-family:'Helvetica';font-size:33.292px;">especially being able to add from</text>
                    <text x="168.25px" y="2604.42px" style="font-family:'Helvetica';font-size:33.292px;">their desktop.</text>
                    <text x="168.25px" y="2644.42px" style="font-family:'Helvetica';font-size:33.292px;">Almost every agent we spoke to</text>
                    <text x="168.25px" y="2684.42px" style="font-family:'Helvetica';font-size:33.292px;">wanted to drag endorsements from</text>
                    <text x="168.25px" y="2724.42px" style="font-family:'Helvetica';font-size:33.292px;">their desktop i.e. they don&apos;<tspan x="556.869px " y="2724.42px ">t</tspan> already</text>
                    <text x="168.25px" y="2764.42px" style="font-family:'Helvetica';font-size:33.292px;">have it in their document library.</text>
                    <text x="168.25px" y="2804.42px" style="font-family:'Helvetica';font-size:33.292px;">That was the biggest use case.•</text>
                    <text x="168.25px" y="2844.42px" style="font-family:'Helvetica';font-size:33.292px;">Also a request to add &quot;</text>
                    <text x="504.194px" y="2844.42px" style="font-family:'Helvetica';font-size:33.292px;fill:rgb(51,51,51);">blanket</text>
                    <g transform="matrix(33.2917,0,0,33.2917,605.653,2884.42)">
                    </g>
                    <text x="168.25px" y="2884.42px" style="font-family:'Helvetica';font-size:33.292px;fill:rgb(51,51,51);">additional insured document&quot;.</text>
                </g>
                <g transform="matrix(0.24,0,0,0.24,172.885,61.5327)">
                    <text x="233.73px" y="125.947px" style="font-family:'Helvetica-Bold', 'Helvetica';font-weight:700;font-size:62.5px;fill:rgb(51,51,51);">What did they like?</text>
                    <text x="233.73px" y="249.53px" style="font-family:'Helvetica-Bold', 'Helvetica';font-weight:700;font-size:50px;fill:rgb(51,51,51);">K (M</text>
                    <text x="233.73px" y="324.53px" style="font-family:'Helvetica-Bold', 'Helvetica';font-weight:700;font-size:50px;fill:rgb(51,51,51);">A)</text>
                    <text x="352.48px" y="412.822px" style="font-family:'Helvetica';font-size:33.292px;">Like the History,<tspan x="591.129px " y="412.822px "> </tspan>and auto recording</text>
                    <text x="352.48px" y="452.822px" style="font-family:'Helvetica';font-size:33.292px;">where was the last place cert was</text>
                    <text x="352.48px" y="492.822px" style="font-family:'Helvetica';font-size:33.292px;">sent. Commercial staff<tspan x="683.642px " y="492.822px "> </tspan>forgets to</text>
                    <text x="352.48px" y="532.822px" style="font-family:'Helvetica';font-size:33.292px;">record this info manually all the</text>
                    <text x="352.48px" y="572.822px" style="font-family:'Helvetica';font-size:33.292px;">time. Most Important. Currently</text>
                    <text x="352.48px" y="612.822px" style="font-family:'Helvetica';font-size:33.292px;">rename document</text>
                    <text x="352.48px" y="652.822px" style="font-family:'Helvetica';font-size:33.292px;">Cert Holders</text>
                    <g transform="matrix(33.2917,0,0,33.2917,670.69,692.822)">
                    </g>
                    <g transform="matrix(33.2917,0,0,33.2917,679.939,692.822)">
                    </g>
                    <text x="352.48px" y="692.822px" style="font-family:'Helvetica';font-size:33.292px;">LIke Distribution workﬂow.<tspan x="739.136px " y="692.822px "> </tspan>Favorite</text>
                    <text x="352.48px" y="732.822px" style="font-family:'Helvetica';font-size:33.292px;">thing. Plug in the email and it sends</text>
                    <text x="352.48px" y="772.822px" style="font-family:'Helvetica';font-size:33.292px;">it &quot;for ya&quot;. Most certs are email.</text>
                    <text x="227.48px" y="844.072px" style="font-family:'Helvetica';font-size:33.292px;">If sending out multiple, click Distribute and it</text>
                    <text x="227.48px" y="884.072px" style="font-family:'Helvetica';font-size:33.292px;">sends it out.</text>
                    <text x="233.73px" y="1048.28px" style="font-family:'Helvetica-Bold', 'Helvetica';font-weight:700;font-size:50px;fill:rgb(51,51,51);">A</text>
                    <text x="352.48px" y="1136.57px" style="font-family:'Helvetica';font-size:33.292px;">Everything :-)</text>
                    <text x="352.48px" y="1176.57px" style="font-family:'Helvetica';font-size:33.292px;">Biggest thing: can see what was</text>
                    <text x="352.48px" y="1216.57px" style="font-family:'Helvetica';font-size:33.292px;">attached to cert holder.</text>
                    <text x="352.48px" y="1256.57px" style="font-family:'Helvetica';font-size:33.292px;">Distribution history.<tspan x="635.522px " y="1256.57px "> </tspan>Love. Multiple</text>
                    <text x="352.48px" y="1296.57px" style="font-family:'Helvetica';font-size:33.292px;">options to send. T<tspan x="617.118px 635.632px " y="1296.57px 1296.57px ">o </tspan>track it.</text>
                    <text x="352.48px" y="1336.57px" style="font-family:'Helvetica';font-size:33.292px;">Everything can be retained when</text>
                    <text x="352.48px" y="1376.57px" style="font-family:'Helvetica';font-size:33.292px;">copied.</text>
                    <text x="352.48px" y="1416.57px" style="font-family:'Helvetica';font-size:33.292px;">Entering everything once and recall</text>
                    <text x="352.48px" y="1456.57px" style="font-family:'Helvetica';font-size:33.292px;">it when I need to, without having to</text>
                    <text x="352.48px" y="1496.57px" style="font-family:'Helvetica';font-size:33.292px;">retype it and re-attach it.</text>
                    <text x="352.48px" y="1536.57px" style="font-family:'Helvetica';font-size:33.292px;">Like master list.</text>
                    <text x="352.48px" y="1576.57px" style="font-family:'Helvetica';font-size:33.292px;">Does 95% of what they want.</text>
                    <text x="233.73px" y="1740.82px" style="font-family:'Helvetica-Bold', 'Helvetica';font-weight:700;font-size:50px;fill:rgb(51,51,51);">A<tspan x="268.007px 281.907px " y="1740.82px 1740.82px "> a</tspan>nd J</text>
                    <text x="233.73px" y="1815.82px" style="font-family:'Helvetica-Bold', 'Helvetica';font-weight:700;font-size:50px;fill:rgb(51,51,51);">(C)</text>
                    <text x="352.48px" y="1904.07px" style="font-family:'Helvetica';font-size:33.292px;">Loved the postal mail.</text>
                    <text x="352.48px" y="1944.07px" style="font-family:'Helvetica';font-size:33.292px;">Loved that she could attach</text>
                    <g transform="matrix(33.2917,0,0,33.2917,631.852,1984.07)">
                    </g>
                    <g transform="matrix(33.2917,0,0,33.2917,641.101,1984.07)">
                    </g>
                    <text x="352.48px" y="1984.07px" style="font-family:'Helvetica';font-size:33.292px;">documents to Certiﬁcate Holder.</text>
                    <text x="233.73px" y="2148.32px" style="font-family:'Helvetica-Bold', 'Helvetica';font-weight:700;font-size:50px;fill:rgb(51,51,51);">C (S)</text>
                    <text x="352.48px" y="2236.57px" style="font-family:'Helvetica';font-size:33.292px;fill:rgb(51,51,51);">Like the progress bar</text>
                    <text x="352.48px" y="2276.57px" style="font-family:'Helvetica';font-size:33.292px;fill:rgb(51,51,51);">/steps/wizards at the top.</text>
                    <text x="352.48px" y="2316.57px" style="font-family:'Helvetica';font-size:33.292px;fill:rgb(51,51,51);">Likes that PDF viewer doesn&apos;<tspan x="783.587px " y="2316.57px ">t</tspan> open</text>
                    <text x="352.48px" y="2356.57px" style="font-family:'Helvetica';font-size:33.292px;fill:rgb(51,51,51);">in a separate tab.</text>
                    <g transform="matrix(33.2917,0,0,33.2917,642.986,2396.57)">
                    </g>
                    <g transform="matrix(33.2917,0,0,33.2917,652.234,2396.57)">
                    </g>
                    <text x="352.48px" y="2396.57px" style="font-family:'Helvetica';font-size:33.292px;">Making one off<tspan x="570.847px " y="2396.57px "> </tspan>certiﬁcates.</text>
                    <g transform="matrix(33.2917,0,0,33.2917,572.606,2436.57)">
                    </g>
                    <g transform="matrix(33.2917,0,0,33.2917,581.855,2436.57)">
                    </g>
                    <text x="352.48px" y="2436.57px" style="font-family:'Helvetica';font-size:33.292px;">Distribute Certiﬁcates button is cool</text>
                    <text x="352.48px" y="2476.57px" style="font-family:'Helvetica';font-size:33.292px;">History tab</text>
                    <g transform="matrix(33.2917,0,0,33.2917,504.185,2516.57)">
                    </g>
                    <g transform="matrix(33.2917,0,0,33.2917,513.434,2516.57)">
                    </g>
                    <text x="352.48px" y="2516.57px" style="font-family:'Helvetica';font-size:33.292px;">Gave certiﬁcates its own tab.</text>
                    <text x="352.48px" y="2556.57px" style="font-family:'Helvetica';font-size:33.292px;">Like the streamlined process. Wa<tspan x="844.621px " y="2556.57px ">y</tspan></text>
                    <text x="352.48px" y="2596.57px" style="font-family:'Helvetica';font-size:33.292px;">easier.<tspan x="452.388px " y="2596.57px "> </tspan>3-4 clicks to see just one</text>
                    <text x="352.48px" y="2636.57px" style="font-family:'Helvetica';font-size:33.292px;">thing.</text>
                    <text x="352.48px" y="2676.57px" style="font-family:'Helvetica';font-size:33.292px;">Like adding policy is really cool.</text>
                    <g transform="matrix(33.2917,0,0,33.2917,622.638,2716.57)">
                    </g>
                    <g transform="matrix(33.2917,0,0,33.2917,631.886,2716.57)">
                    </g>
                    <text x="352.48px" y="2716.57px" style="font-family:'Helvetica';font-size:33.292px;">Looks a lot easier ﬂows a lot</text>
                    <g transform="matrix(33.2917,0,0,33.2917,469.029,2756.57)">
                    </g>
                    <text x="352.48px" y="2756.57px" style="font-family:'Helvetica';font-size:33.292px;">quicker.</text>
                </g>
                <g transform="matrix(0.24,0,0,0.24,309.312,61.5327)">
                    <text x="413.24px" y="125.947px" style="font-family:'Helvetica-Bold', 'Helvetica';font-weight:700;font-size:62.5px;fill:rgb(51,51,51);">What did they not</text>
                    <text x="413.24px" y="219.697px" style="font-family:'Helvetica-Bold', 'Helvetica';font-weight:700;font-size:62.5px;fill:rgb(51,51,51);">like?</text>
                    <text x="413.24px" y="343.28px" style="font-family:'Helvetica-Bold', 'Helvetica';font-weight:700;font-size:50px;fill:rgb(51,51,51);">A</text>
                    <text x="531.99px" y="431.572px" style="font-family:'Helvetica';font-size:33.292px;">Ta<tspan x="570.837px " y="431.572px ">k</tspan>es some getting used to.</text>
                    <g transform="matrix(33.2917,0,0,33.2917,766.927,471.572)">
                    </g>
                    <g transform="matrix(33.2917,0,0,33.2917,776.176,471.572)">
                    </g>
                    <text x="531.99px" y="471.572px" style="font-family:'Helvetica';font-size:33.292px;">Remarks. Speciﬁc jobs in the</text>
                    <text x="531.99px" y="511.572px" style="font-family:'Helvetica';font-size:33.292px;">remarks (customer is subcontractor</text>
                    <text x="531.99px" y="551.572px" style="font-family:'Helvetica';font-size:33.292px;">for several companies. Wa<tspan x="926.069px " y="551.572px ">n</tspan>ts some</text>
                    <g transform="matrix(33.2917,0,0,33.2917,718.871,591.572)">
                    </g>
                    <g transform="matrix(33.2917,0,0,33.2917,728.12,591.572)">
                    </g>
                    <text x="531.99px" y="591.572px" style="font-family:'Helvetica';font-size:33.292px;">project speciﬁc remarks.)</text>
                    <text x="531.99px" y="631.572px" style="font-family:'Helvetica';font-size:33.292px;">See cert holder&apos;<tspan x="765.13px " y="631.572px ">s</tspan> attachments in</text>
                    <text x="531.99px" y="671.572px" style="font-family:'Helvetica';font-size:33.292px;">Distribution History.<tspan x="820.545px " y="671.572px "> </tspan>Maybe open up</text>
                    <text x="531.99px" y="711.572px" style="font-family:'Helvetica';font-size:33.292px;">list of attachments for that cert</text>
                    <text x="531.99px" y="751.572px" style="font-family:'Helvetica';font-size:33.292px;">holder.</text>
                    <text x="531.99px" y="791.572px" style="font-family:'Helvetica';font-size:33.292px;">Remove Delete button everywhere.</text>
                    <text x="406.99px" y="862.822px" style="font-family:'Helvetica';font-size:33.292px;">C (S)</text>
                    <text x="531.99px" y="934.072px" style="font-family:'Helvetica';font-size:33.292px;">Some users might get confused by</text>
                    <text x="531.99px" y="974.072px" style="font-family:'Helvetica';font-size:33.292px;">the back button. Have to submit it</text>
                    <text x="531.99px" y="1014.07px" style="font-family:'Helvetica';font-size:33.292px;">again.</text>
                    <text x="531.99px" y="1054.07px" style="font-family:'Helvetica';font-size:33.292px;">Not having the Back button.</text>
                    <text x="406.99px" y="1125.32px" style="font-family:'Helvetica';font-size:33.292px;">J (H)</text>
                    <text x="531.99px" y="1196.57px" style="font-family:'Helvetica';font-size:33.292px;">Where is the part where I edit my</text>
                    <text x="531.99px" y="1236.57px" style="font-family:'Helvetica';font-size:33.292px;">signature?</text>
                    <g transform="matrix(33.2917,0,0,33.2917,704.038,1276.57)">
                    </g>
                    <g transform="matrix(33.2917,0,0,33.2917,713.287,1276.57)">
                    </g>
                    <text x="531.99px" y="1276.57px" style="font-family:'Helvetica';font-size:33.292px;">Select Certiﬁcate Holder-&gt; is</text>
                    <text x="531.99px" y="1316.57px" style="font-family:'Helvetica';font-size:33.292px;">confusing versus Save and</text>
                    <text x="531.99px" y="1356.57px" style="font-family:'Helvetica';font-size:33.292px;">Continue.</text>
                    <text x="531.99px" y="1396.57px" style="font-family:'Helvetica';font-size:33.292px;">Associate document library to</text>
                    <text x="531.99px" y="1436.57px" style="font-family:'Helvetica';font-size:33.292px;">policy</text>
                    <text x="531.99px" y="1476.57px" style="font-family:'Helvetica';font-size:33.292px;">Wa<tspan x="581.924px " y="1476.57px ">n</tspan>t to see what policy the</text>
                    <g transform="matrix(33.2917,0,0,33.2917,594.874,1516.57)">
                    </g>
                    <g transform="matrix(33.2917,0,0,33.2917,604.122,1516.57)">
                    </g>
                    <g transform="matrix(33.2917,0,0,33.2917,953.815,1516.57)">
                    </g>
                    <text x="531.99px" y="1516.57px" style="font-family:'Helvetica';font-size:33.292px;">certiﬁcate is associated with.</text>
                </g>
                <g transform="matrix(0,-1,-1,0,526.99,764.59)">
                    <circle cx="249.79" cy="277.2" r="1.54"/>
                </g>
                <g transform="matrix(0,-1,-1,0,517.39,774.19)">
                    <circle cx="249.79" cy="267.6" r="1.54"/>
                </g>
            </g>
        </g>
    </g>
</svg>
