<svg width="688" height="120" viewBox="0 0 688 120" fill="none" xmlns="http://www.w3.org/2000/svg">
<g clip-path="url(#clip0_278_16575)">
<path fill-rule="evenodd" clip-rule="evenodd" d="M143.284 37.6274L148.941 31.9706L143.284 26.3137L131.971 15L126.314 20.6569L137.628 31.9706L126.314 43.2843L131.971 48.9411L143.284 37.6274Z" fill="#B1B1B1"/>
<path fill-rule="evenodd" clip-rule="evenodd" d="M327.284 37.6274L332.941 31.9706L327.284 26.3137L315.971 15L310.314 20.6569L321.628 31.9706L310.314 43.2843L315.971 48.9411L327.284 37.6274Z" fill="#B1B1B1"/>
<path fill-rule="evenodd" clip-rule="evenodd" d="M503.284 37.6274L508.941 31.9706L503.284 26.3137L491.971 15L486.314 20.6569L497.628 31.9706L486.314 43.2843L491.971 48.9411L503.284 37.6274Z" fill="#B1B1B1"/>
<path d="M350.918 94.5455H354.114L359.67 108.114H359.875L365.432 94.5455H368.628V112H366.122V99.3693H365.96L360.812 111.974H358.733L353.585 99.3608H353.423V112H350.918V94.5455ZM377.046 112.264C375.819 112.264 374.748 111.983 373.833 111.42C372.918 110.858 372.208 110.071 371.703 109.06C371.197 108.048 370.944 106.866 370.944 105.514C370.944 104.156 371.197 102.969 371.703 101.952C372.208 100.935 372.918 100.145 373.833 99.5824C374.748 99.0199 375.819 98.7386 377.046 98.7386C378.274 98.7386 379.345 99.0199 380.259 99.5824C381.174 100.145 381.884 100.935 382.39 101.952C382.896 102.969 383.149 104.156 383.149 105.514C383.149 106.866 382.896 108.048 382.39 109.06C381.884 110.071 381.174 110.858 380.259 111.42C379.345 111.983 378.274 112.264 377.046 112.264ZM377.055 110.125C377.85 110.125 378.509 109.915 379.032 109.494C379.555 109.074 379.941 108.514 380.191 107.815C380.447 107.116 380.575 106.347 380.575 105.506C380.575 104.67 380.447 103.903 380.191 103.205C379.941 102.5 379.555 101.935 379.032 101.509C378.509 101.082 377.85 100.869 377.055 100.869C376.254 100.869 375.589 101.082 375.061 101.509C374.538 101.935 374.149 102.5 373.893 103.205C373.643 103.903 373.518 104.67 373.518 105.506C373.518 106.347 373.643 107.116 373.893 107.815C374.149 108.514 374.538 109.074 375.061 109.494C375.589 109.915 376.254 110.125 377.055 110.125ZM390.787 112.264C389.52 112.264 388.429 111.977 387.515 111.403C386.605 110.824 385.907 110.026 385.418 109.009C384.929 107.991 384.685 106.827 384.685 105.514C384.685 104.185 384.935 103.011 385.435 101.994C385.935 100.972 386.64 100.173 387.549 99.5994C388.458 99.0256 389.529 98.7386 390.762 98.7386C391.756 98.7386 392.642 98.9233 393.421 99.2926C394.199 99.6562 394.827 100.168 395.304 100.827C395.787 101.486 396.074 102.256 396.165 103.136H393.685C393.549 102.523 393.236 101.994 392.748 101.551C392.265 101.108 391.617 100.886 390.804 100.886C390.094 100.886 389.472 101.074 388.938 101.449C388.409 101.818 387.998 102.347 387.702 103.034C387.407 103.716 387.259 104.523 387.259 105.455C387.259 106.409 387.404 107.233 387.694 107.926C387.983 108.619 388.392 109.156 388.921 109.537C389.455 109.918 390.083 110.108 390.804 110.108C391.287 110.108 391.725 110.02 392.117 109.844C392.515 109.662 392.847 109.403 393.114 109.068C393.387 108.733 393.577 108.33 393.685 107.858H396.165C396.074 108.705 395.799 109.46 395.338 110.125C394.878 110.79 394.262 111.312 393.489 111.693C392.722 112.074 391.821 112.264 390.787 112.264ZM400.514 107.56L400.497 104.449H400.94L406.156 98.9091H409.207L403.258 105.216H402.858L400.514 107.56ZM398.17 112V94.5455H400.719V112H398.17ZM406.437 112L401.75 105.778L403.505 103.997L409.565 112H406.437ZM419.102 106.571V98.9091H421.659V112H419.153V109.733H419.017C418.716 110.432 418.233 111.014 417.568 111.48C416.909 111.94 416.088 112.17 415.105 112.17C414.264 112.17 413.52 111.986 412.872 111.616C412.23 111.241 411.724 110.688 411.355 109.955C410.991 109.222 410.81 108.315 410.81 107.236V98.9091H413.358V106.929C413.358 107.821 413.605 108.531 414.099 109.06C414.594 109.588 415.236 109.852 416.026 109.852C416.503 109.852 416.977 109.733 417.449 109.494C417.926 109.256 418.321 108.895 418.633 108.412C418.952 107.929 419.108 107.315 419.102 106.571ZM424.363 116.909V98.9091H426.852V101.031H427.065C427.213 100.759 427.426 100.443 427.704 100.085C427.982 99.7273 428.369 99.4148 428.863 99.1477C429.357 98.875 430.011 98.7386 430.823 98.7386C431.88 98.7386 432.823 99.0057 433.653 99.5398C434.482 100.074 435.133 100.844 435.605 101.849C436.082 102.855 436.32 104.065 436.32 105.48C436.32 106.895 436.085 108.108 435.613 109.119C435.141 110.125 434.494 110.901 433.67 111.446C432.846 111.986 431.906 112.256 430.849 112.256C430.053 112.256 429.403 112.122 428.897 111.855C428.397 111.588 428.005 111.276 427.721 110.918C427.437 110.56 427.218 110.241 427.065 109.963H426.911V116.909H424.363ZM426.86 105.455C426.86 106.375 426.994 107.182 427.261 107.875C427.528 108.568 427.914 109.111 428.42 109.503C428.926 109.889 429.545 110.082 430.278 110.082C431.039 110.082 431.676 109.881 432.187 109.477C432.698 109.068 433.085 108.514 433.346 107.815C433.613 107.116 433.747 106.33 433.747 105.455C433.747 104.591 433.616 103.815 433.355 103.128C433.099 102.44 432.713 101.898 432.195 101.5C431.684 101.102 431.045 100.903 430.278 100.903C429.539 100.903 428.914 101.094 428.403 101.474C427.897 101.855 427.514 102.386 427.252 103.068C426.991 103.75 426.86 104.545 426.86 105.455ZM448.265 102.105L445.956 102.514C445.859 102.219 445.706 101.937 445.495 101.67C445.291 101.403 445.012 101.185 444.66 101.014C444.308 100.844 443.868 100.759 443.339 100.759C442.618 100.759 442.015 100.92 441.532 101.244C441.049 101.562 440.808 101.974 440.808 102.48C440.808 102.918 440.97 103.27 441.294 103.537C441.618 103.804 442.14 104.023 442.862 104.193L444.941 104.67C446.146 104.949 447.044 105.378 447.635 105.957C448.225 106.537 448.521 107.29 448.521 108.216C448.521 109 448.294 109.699 447.839 110.312C447.39 110.92 446.762 111.398 445.956 111.744C445.154 112.091 444.225 112.264 443.169 112.264C441.703 112.264 440.507 111.952 439.581 111.327C438.654 110.696 438.086 109.801 437.876 108.642L440.339 108.267C440.493 108.909 440.808 109.395 441.285 109.724C441.762 110.048 442.385 110.21 443.152 110.21C443.987 110.21 444.654 110.037 445.154 109.69C445.654 109.338 445.904 108.909 445.904 108.403C445.904 107.994 445.751 107.651 445.444 107.372C445.143 107.094 444.68 106.884 444.055 106.741L441.839 106.256C440.618 105.977 439.714 105.534 439.129 104.926C438.549 104.318 438.26 103.548 438.26 102.616C438.26 101.844 438.475 101.168 438.907 100.588C439.339 100.009 439.936 99.5568 440.697 99.233C441.458 98.9034 442.331 98.7386 443.314 98.7386C444.728 98.7386 445.842 99.0455 446.654 99.6591C447.467 100.267 448.004 101.082 448.265 102.105Z" fill="black"/>
<path fill-rule="evenodd" clip-rule="evenodd" d="M396 2.38426e-06V56L356 56V0L396 2.38426e-06ZM388 8L388 48H364L364 8L388 8ZM444 8V56L404 56V8L444 8ZM436 16V48H412V16H436Z" fill="#387152"/>
<path fill-rule="evenodd" clip-rule="evenodd" d="M380 16H372V24H380V16ZM396 64V72L356 72V64L396 64ZM444 64V72L404 72V64L444 64ZM372 32H380V40H372V32ZM428 24H420V32H428V24Z" fill="#63DB9A"/>
<path d="M168.142 94.5455H170.784V106.026C170.784 107.247 170.497 108.33 169.923 109.273C169.349 110.21 168.543 110.949 167.503 111.489C166.463 112.023 165.244 112.29 163.847 112.29C162.455 112.29 161.239 112.023 160.199 111.489C159.159 110.949 158.352 110.21 157.778 109.273C157.205 108.33 156.918 107.247 156.918 106.026V94.5455H159.551V105.812C159.551 106.602 159.724 107.304 160.071 107.918C160.423 108.531 160.92 109.014 161.562 109.366C162.205 109.713 162.966 109.886 163.847 109.886C164.733 109.886 165.497 109.713 166.139 109.366C166.787 109.014 167.281 108.531 167.622 107.918C167.969 107.304 168.142 106.602 168.142 105.812V94.5455ZM183.498 102.105L181.188 102.514C181.092 102.219 180.938 101.937 180.728 101.67C180.524 101.403 180.245 101.185 179.893 101.014C179.541 100.844 179.1 100.759 178.572 100.759C177.85 100.759 177.248 100.92 176.765 101.244C176.282 101.562 176.041 101.974 176.041 102.48C176.041 102.918 176.203 103.27 176.526 103.537C176.85 103.804 177.373 104.023 178.095 104.193L180.174 104.67C181.379 104.949 182.276 105.378 182.867 105.957C183.458 106.537 183.754 107.29 183.754 108.216C183.754 109 183.526 109.699 183.072 110.312C182.623 110.92 181.995 111.398 181.188 111.744C180.387 112.091 179.458 112.264 178.401 112.264C176.936 112.264 175.74 111.952 174.813 111.327C173.887 110.696 173.319 109.801 173.109 108.642L175.572 108.267C175.725 108.909 176.041 109.395 176.518 109.724C176.995 110.048 177.617 110.21 178.384 110.21C179.22 110.21 179.887 110.037 180.387 109.69C180.887 109.338 181.137 108.909 181.137 108.403C181.137 107.994 180.984 107.651 180.677 107.372C180.376 107.094 179.913 106.884 179.288 106.741L177.072 106.256C175.85 105.977 174.947 105.534 174.362 104.926C173.782 104.318 173.492 103.548 173.492 102.616C173.492 101.844 173.708 101.168 174.14 100.588C174.572 100.009 175.168 99.5568 175.93 99.233C176.691 98.9034 177.563 98.7386 178.546 98.7386C179.961 98.7386 181.075 99.0455 181.887 99.6591C182.7 100.267 183.237 101.082 183.498 102.105ZM191.478 112.264C190.188 112.264 189.077 111.989 188.145 111.438C187.219 110.881 186.503 110.099 185.997 109.094C185.497 108.082 185.247 106.898 185.247 105.54C185.247 104.199 185.497 103.017 185.997 101.994C186.503 100.972 187.208 100.173 188.111 99.5994C189.02 99.0256 190.083 98.7386 191.299 98.7386C192.037 98.7386 192.753 98.8608 193.446 99.1051C194.14 99.3494 194.762 99.733 195.313 100.256C195.864 100.778 196.299 101.457 196.617 102.293C196.935 103.122 197.094 104.131 197.094 105.318V106.222H186.688V104.312H194.597C194.597 103.642 194.461 103.048 194.188 102.531C193.915 102.009 193.532 101.597 193.037 101.295C192.549 100.994 191.975 100.844 191.316 100.844C190.6 100.844 189.975 101.02 189.441 101.372C188.912 101.719 188.503 102.173 188.213 102.736C187.929 103.293 187.787 103.898 187.787 104.551V106.043C187.787 106.918 187.941 107.662 188.247 108.276C188.56 108.889 188.995 109.358 189.551 109.682C190.108 110 190.759 110.159 191.503 110.159C191.986 110.159 192.426 110.091 192.824 109.955C193.222 109.812 193.566 109.602 193.855 109.324C194.145 109.045 194.367 108.702 194.52 108.293L196.932 108.727C196.739 109.437 196.392 110.06 195.892 110.594C195.398 111.122 194.776 111.534 194.026 111.83C193.282 112.119 192.432 112.264 191.478 112.264ZM199.202 112V98.9091H201.665V100.989H201.801C202.04 100.284 202.46 99.7301 203.062 99.3267C203.67 98.9176 204.358 98.7131 205.125 98.7131C205.284 98.7131 205.471 98.7187 205.687 98.7301C205.909 98.7415 206.082 98.7557 206.207 98.7727V101.21C206.105 101.182 205.923 101.151 205.662 101.116C205.4 101.077 205.139 101.057 204.878 101.057C204.275 101.057 203.738 101.185 203.267 101.44C202.801 101.69 202.432 102.04 202.159 102.489C201.886 102.932 201.75 103.437 201.75 104.006V112H199.202ZM213.529 112V94.5455H224.352V96.8125H216.162V102.131H223.577V104.389H216.162V112H213.529ZM229.215 94.5455V112H226.667V94.5455H229.215ZM237.437 112.264C236.21 112.264 235.139 111.983 234.224 111.42C233.309 110.858 232.599 110.071 232.094 109.06C231.588 108.048 231.335 106.866 231.335 105.514C231.335 104.156 231.588 102.969 232.094 101.952C232.599 100.935 233.309 100.145 234.224 99.5824C235.139 99.0199 236.21 98.7386 237.437 98.7386C238.665 98.7386 239.736 99.0199 240.65 99.5824C241.565 100.145 242.275 100.935 242.781 101.952C243.287 102.969 243.54 104.156 243.54 105.514C243.54 106.866 243.287 108.048 242.781 109.06C242.275 110.071 241.565 110.858 240.65 111.42C239.736 111.983 238.665 112.264 237.437 112.264ZM237.446 110.125C238.241 110.125 238.9 109.915 239.423 109.494C239.946 109.074 240.332 108.514 240.582 107.815C240.838 107.116 240.966 106.347 240.966 105.506C240.966 104.67 240.838 103.903 240.582 103.205C240.332 102.5 239.946 101.935 239.423 101.509C238.9 101.082 238.241 100.869 237.446 100.869C236.645 100.869 235.98 101.082 235.451 101.509C234.929 101.935 234.54 102.5 234.284 103.205C234.034 103.903 233.909 104.67 233.909 105.506C233.909 106.347 234.034 107.116 234.284 107.815C234.54 108.514 234.929 109.074 235.451 109.494C235.98 109.915 236.645 110.125 237.446 110.125ZM248.104 112L244.251 98.9091H246.885L249.45 108.523H249.578L252.152 98.9091H254.785L257.342 108.48H257.47L260.018 98.9091H262.652L258.808 112H256.209L253.55 102.548H253.354L250.695 112H248.104ZM274.16 102.105L271.85 102.514C271.754 102.219 271.6 101.937 271.39 101.67C271.185 101.403 270.907 101.185 270.555 101.014C270.203 100.844 269.762 100.759 269.234 100.759C268.512 100.759 267.91 100.92 267.427 101.244C266.944 101.562 266.703 101.974 266.703 102.48C266.703 102.918 266.864 103.27 267.188 103.537C267.512 103.804 268.035 104.023 268.757 104.193L270.836 104.67C272.041 104.949 272.938 105.378 273.529 105.957C274.12 106.537 274.416 107.29 274.416 108.216C274.416 109 274.188 109.699 273.734 110.312C273.285 110.92 272.657 111.398 271.85 111.744C271.049 112.091 270.12 112.264 269.063 112.264C267.597 112.264 266.401 111.952 265.475 111.327C264.549 110.696 263.981 109.801 263.771 108.642L266.234 108.267C266.387 108.909 266.703 109.395 267.18 109.724C267.657 110.048 268.279 110.21 269.046 110.21C269.882 110.21 270.549 110.037 271.049 109.69C271.549 109.338 271.799 108.909 271.799 108.403C271.799 107.994 271.646 107.651 271.339 107.372C271.038 107.094 270.575 106.884 269.95 106.741L267.734 106.256C266.512 105.977 265.609 105.534 265.024 104.926C264.444 104.318 264.154 103.548 264.154 102.616C264.154 101.844 264.37 101.168 264.802 100.588C265.234 100.009 265.83 99.5568 266.592 99.233C267.353 98.9034 268.225 98.7386 269.208 98.7386C270.623 98.7386 271.737 99.0455 272.549 99.6591C273.362 100.267 273.899 101.082 274.16 102.105Z" fill="black"/>
<path fill-rule="evenodd" clip-rule="evenodd" d="M248 8.00001V2.38426e-06L208 0V8L208 16L176 16V24L208 24H216L248 24V16L216 16L216 8L248 8.00001ZM248 64V72L176 72V64L248 64ZM264 40V32H232H224L192 32V40H224L224 48L192 48V56H224L232 56V48L232 40H264Z" fill="#D034F5"/>
<path fill-rule="evenodd" clip-rule="evenodd" d="M568 0H544V24H568V0ZM560 8H552V16H560V8Z" fill="#FF7338"/>
<path d="M523.142 94.5455H525.784V106.026C525.784 107.247 525.497 108.33 524.923 109.273C524.349 110.21 523.543 110.949 522.503 111.489C521.463 112.023 520.244 112.29 518.847 112.29C517.455 112.29 516.239 112.023 515.199 111.489C514.159 110.949 513.352 110.21 512.778 109.273C512.205 108.33 511.918 107.247 511.918 106.026V94.5455H514.551V105.812C514.551 106.602 514.724 107.304 515.071 107.918C515.423 108.531 515.92 109.014 516.562 109.366C517.205 109.713 517.966 109.886 518.847 109.886C519.733 109.886 520.497 109.713 521.139 109.366C521.787 109.014 522.281 108.531 522.622 107.918C522.969 107.304 523.142 106.602 523.142 105.812V94.5455ZM538.498 102.105L536.188 102.514C536.092 102.219 535.938 101.937 535.728 101.67C535.524 101.403 535.245 101.185 534.893 101.014C534.541 100.844 534.1 100.759 533.572 100.759C532.85 100.759 532.248 100.92 531.765 101.244C531.282 101.562 531.041 101.974 531.041 102.48C531.041 102.918 531.203 103.27 531.526 103.537C531.85 103.804 532.373 104.023 533.095 104.193L535.174 104.67C536.379 104.949 537.276 105.378 537.867 105.957C538.458 106.537 538.754 107.29 538.754 108.216C538.754 109 538.526 109.699 538.072 110.312C537.623 110.92 536.995 111.398 536.188 111.744C535.387 112.091 534.458 112.264 533.401 112.264C531.936 112.264 530.74 111.952 529.813 111.327C528.887 110.696 528.319 109.801 528.109 108.642L530.572 108.267C530.725 108.909 531.041 109.395 531.518 109.724C531.995 110.048 532.617 110.21 533.384 110.21C534.22 110.21 534.887 110.037 535.387 109.69C535.887 109.338 536.137 108.909 536.137 108.403C536.137 107.994 535.984 107.651 535.677 107.372C535.376 107.094 534.913 106.884 534.288 106.741L532.072 106.256C530.85 105.977 529.947 105.534 529.362 104.926C528.782 104.318 528.492 103.548 528.492 102.616C528.492 101.844 528.708 101.168 529.14 100.588C529.572 100.009 530.168 99.5568 530.93 99.233C531.691 98.9034 532.563 98.7386 533.546 98.7386C534.961 98.7386 536.075 99.0455 536.887 99.6591C537.7 100.267 538.237 101.082 538.498 102.105ZM544.645 112.29C543.816 112.29 543.066 112.136 542.395 111.83C541.725 111.517 541.194 111.065 540.801 110.474C540.415 109.884 540.222 109.159 540.222 108.301C540.222 107.562 540.364 106.955 540.648 106.477C540.932 106 541.316 105.622 541.799 105.344C542.282 105.065 542.821 104.855 543.418 104.713C544.015 104.571 544.622 104.463 545.242 104.389C546.026 104.298 546.662 104.224 547.151 104.168C547.64 104.105 547.995 104.006 548.216 103.869C548.438 103.733 548.549 103.511 548.549 103.205V103.145C548.549 102.401 548.338 101.824 547.918 101.415C547.503 101.006 546.884 100.801 546.06 100.801C545.202 100.801 544.526 100.991 544.032 101.372C543.543 101.747 543.205 102.165 543.017 102.625L540.622 102.08C540.907 101.284 541.321 100.642 541.867 100.153C542.418 99.6591 543.051 99.3011 543.767 99.0795C544.483 98.8523 545.236 98.7386 546.026 98.7386C546.549 98.7386 547.103 98.8011 547.688 98.9261C548.279 99.0455 548.83 99.267 549.341 99.5909C549.858 99.9148 550.282 100.378 550.611 100.98C550.941 101.577 551.105 102.352 551.105 103.307V112H548.617V110.21H548.515C548.35 110.54 548.103 110.864 547.773 111.182C547.444 111.5 547.02 111.764 546.503 111.974C545.986 112.185 545.367 112.29 544.645 112.29ZM545.199 110.244C545.904 110.244 546.506 110.105 547.006 109.827C547.512 109.548 547.895 109.185 548.157 108.736C548.424 108.281 548.557 107.795 548.557 107.278V105.591C548.466 105.682 548.29 105.767 548.029 105.847C547.773 105.92 547.48 105.986 547.151 106.043C546.821 106.094 546.5 106.142 546.188 106.188C545.875 106.227 545.614 106.261 545.404 106.29C544.909 106.352 544.458 106.457 544.049 106.605C543.645 106.753 543.321 106.966 543.077 107.244C542.838 107.517 542.719 107.881 542.719 108.335C542.719 108.966 542.952 109.443 543.418 109.767C543.884 110.085 544.478 110.244 545.199 110.244ZM553.984 112V94.5455H556.532V101.031H556.686C556.834 100.759 557.047 100.443 557.325 100.085C557.603 99.7273 557.99 99.4148 558.484 99.1477C558.978 98.875 559.632 98.7386 560.444 98.7386C561.501 98.7386 562.444 99.0057 563.274 99.5398C564.103 100.074 564.754 100.844 565.226 101.849C565.703 102.855 565.942 104.065 565.942 105.48C565.942 106.895 565.706 108.108 565.234 109.119C564.763 110.125 564.115 110.901 563.291 111.446C562.467 111.986 561.527 112.256 560.47 112.256C559.675 112.256 559.024 112.122 558.518 111.855C558.018 111.588 557.626 111.276 557.342 110.918C557.058 110.56 556.839 110.241 556.686 109.963H556.473V112H553.984ZM556.481 105.455C556.481 106.375 556.615 107.182 556.882 107.875C557.149 108.568 557.535 109.111 558.041 109.503C558.547 109.889 559.166 110.082 559.899 110.082C560.66 110.082 561.297 109.881 561.808 109.477C562.319 109.068 562.706 108.514 562.967 107.815C563.234 107.116 563.368 106.33 563.368 105.455C563.368 104.591 563.237 103.815 562.976 103.128C562.72 102.44 562.334 101.898 561.817 101.5C561.305 101.102 560.666 100.903 559.899 100.903C559.16 100.903 558.535 101.094 558.024 101.474C557.518 101.855 557.135 102.386 556.873 103.068C556.612 103.75 556.481 104.545 556.481 105.455ZM568.083 112V98.9091H570.631V112H568.083ZM569.37 96.8892C568.927 96.8892 568.546 96.7415 568.228 96.446C567.915 96.1449 567.759 95.7869 567.759 95.3722C567.759 94.9517 567.915 94.5937 568.228 94.2983C568.546 93.9972 568.927 93.8466 569.37 93.8466C569.813 93.8466 570.191 93.9972 570.504 94.2983C570.822 94.5937 570.981 94.9517 570.981 95.3722C570.981 95.7869 570.822 96.1449 570.504 96.446C570.191 96.7415 569.813 96.8892 569.37 96.8892ZM575.888 94.5455V112H573.34V94.5455H575.888ZM578.596 112V98.9091H581.144V112H578.596ZM579.883 96.8892C579.44 96.8892 579.059 96.7415 578.741 96.446C578.429 96.1449 578.272 95.7869 578.272 95.3722C578.272 94.9517 578.429 94.5937 578.741 94.2983C579.059 93.9972 579.44 93.8466 579.883 93.8466C580.326 93.8466 580.704 93.9972 581.017 94.2983C581.335 94.5937 581.494 94.9517 581.494 95.3722C581.494 95.7869 581.335 96.1449 581.017 96.446C580.704 96.7415 580.326 96.8892 579.883 96.8892ZM589.964 98.9091V100.955H582.813V98.9091H589.964ZM584.731 95.7727H587.279V108.156C587.279 108.651 587.353 109.023 587.5 109.273C587.648 109.517 587.839 109.685 588.072 109.776C588.31 109.861 588.569 109.903 588.847 109.903C589.052 109.903 589.231 109.889 589.384 109.861C589.537 109.832 589.657 109.81 589.742 109.793L590.202 111.898C590.054 111.955 589.844 112.011 589.572 112.068C589.299 112.131 588.958 112.165 588.549 112.17C587.878 112.182 587.253 112.062 586.674 111.812C586.094 111.562 585.625 111.176 585.268 110.653C584.91 110.131 584.731 109.474 584.731 108.685V95.7727ZM593.673 116.909C593.293 116.909 592.946 116.878 592.633 116.815C592.321 116.759 592.088 116.696 591.935 116.628L592.548 114.54C593.014 114.665 593.429 114.719 593.793 114.702C594.156 114.685 594.477 114.548 594.756 114.293C595.04 114.037 595.29 113.619 595.506 113.04L595.821 112.17L591.031 98.9091H593.758L597.074 109.068H597.21L600.526 98.9091H603.261L597.866 113.747C597.616 114.429 597.298 115.006 596.912 115.477C596.526 115.955 596.065 116.313 595.531 116.551C594.997 116.79 594.378 116.909 593.673 116.909ZM609.912 96.8125V94.5455H623.42V96.8125H617.974V112H615.349V96.8125H609.912ZM629.224 112.264C627.934 112.264 626.824 111.989 625.892 111.438C624.966 110.881 624.25 110.099 623.744 109.094C623.244 108.082 622.994 106.898 622.994 105.54C622.994 104.199 623.244 103.017 623.744 101.994C624.25 100.972 624.954 100.173 625.858 99.5994C626.767 99.0256 627.829 98.7386 629.045 98.7386C629.784 98.7386 630.5 98.8608 631.193 99.1051C631.886 99.3494 632.508 99.733 633.059 100.256C633.611 100.778 634.045 101.457 634.363 102.293C634.682 103.122 634.841 104.131 634.841 105.318V106.222H624.434V104.312H632.343C632.343 103.642 632.207 103.048 631.934 102.531C631.662 102.009 631.278 101.597 630.784 101.295C630.295 100.994 629.721 100.844 629.062 100.844C628.346 100.844 627.721 101.02 627.187 101.372C626.659 101.719 626.25 102.173 625.96 102.736C625.676 103.293 625.534 103.898 625.534 104.551V106.043C625.534 106.918 625.687 107.662 625.994 108.276C626.307 108.889 626.741 109.358 627.298 109.682C627.855 110 628.505 110.159 629.25 110.159C629.733 110.159 630.173 110.091 630.571 109.955C630.968 109.812 631.312 109.602 631.602 109.324C631.892 109.045 632.113 108.702 632.267 108.293L634.679 108.727C634.486 109.437 634.139 110.06 633.639 110.594C633.145 111.122 632.522 111.534 631.772 111.83C631.028 112.119 630.179 112.264 629.224 112.264ZM646.758 102.105L644.448 102.514C644.351 102.219 644.198 101.937 643.988 101.67C643.783 101.403 643.505 101.185 643.153 101.014C642.8 100.844 642.36 100.759 641.832 100.759C641.11 100.759 640.508 100.92 640.025 101.244C639.542 101.562 639.3 101.974 639.3 102.48C639.3 102.918 639.462 103.27 639.786 103.537C640.11 103.804 640.633 104.023 641.354 104.193L643.434 104.67C644.638 104.949 645.536 105.378 646.127 105.957C646.718 106.537 647.013 107.29 647.013 108.216C647.013 109 646.786 109.699 646.332 110.312C645.883 110.92 645.255 111.398 644.448 111.744C643.647 112.091 642.718 112.264 641.661 112.264C640.195 112.264 638.999 111.952 638.073 111.327C637.147 110.696 636.579 109.801 636.369 108.642L638.832 108.267C638.985 108.909 639.3 109.395 639.778 109.724C640.255 110.048 640.877 110.21 641.644 110.21C642.479 110.21 643.147 110.037 643.647 109.69C644.147 109.338 644.397 108.909 644.397 108.403C644.397 107.994 644.244 107.651 643.937 107.372C643.636 107.094 643.173 106.884 642.548 106.741L640.332 106.256C639.11 105.977 638.207 105.534 637.621 104.926C637.042 104.318 636.752 103.548 636.752 102.616C636.752 101.844 636.968 101.168 637.4 100.588C637.832 100.009 638.428 99.5568 639.19 99.233C639.951 98.9034 640.823 98.7386 641.806 98.7386C643.221 98.7386 644.334 99.0455 645.147 99.6591C645.959 100.267 646.496 101.082 646.758 102.105ZM655.206 98.9091V100.955H648.055V98.9091H655.206ZM649.973 95.7727H652.521V108.156C652.521 108.651 652.595 109.023 652.743 109.273C652.891 109.517 653.081 109.685 653.314 109.776C653.553 109.861 653.811 109.903 654.09 109.903C654.294 109.903 654.473 109.889 654.627 109.861C654.78 109.832 654.899 109.81 654.984 109.793L655.445 111.898C655.297 111.955 655.087 112.011 654.814 112.068C654.541 112.131 654.2 112.165 653.791 112.17C653.121 112.182 652.496 112.062 651.916 111.812C651.337 111.562 650.868 111.176 650.51 110.653C650.152 110.131 649.973 109.474 649.973 108.685V95.7727ZM657.305 112V98.9091H659.853V112H657.305ZM658.592 96.8892C658.149 96.8892 657.768 96.7415 657.45 96.446C657.137 96.1449 656.981 95.7869 656.981 95.3722C656.981 94.9517 657.137 94.5937 657.45 94.2983C657.768 93.9972 658.149 93.8466 658.592 93.8466C659.035 93.8466 659.413 93.9972 659.725 94.2983C660.044 94.5937 660.203 94.9517 660.203 95.3722C660.203 95.7869 660.044 96.1449 659.725 96.446C659.413 96.7415 659.035 96.8892 658.592 96.8892ZM665.11 104.227V112H662.562V98.9091H665.008V101.04H665.169C665.471 100.347 665.942 99.7898 666.584 99.3693C667.232 98.9489 668.047 98.7386 669.03 98.7386C669.922 98.7386 670.704 98.9261 671.374 99.3011C672.044 99.6705 672.564 100.222 672.934 100.955C673.303 101.687 673.488 102.594 673.488 103.673V112H670.939V103.98C670.939 103.031 670.692 102.29 670.198 101.756C669.704 101.216 669.025 100.946 668.161 100.946C667.57 100.946 667.044 101.074 666.584 101.33C666.13 101.585 665.769 101.96 665.502 102.455C665.24 102.943 665.11 103.534 665.11 104.227ZM681.674 117.182C680.634 117.182 679.739 117.045 678.989 116.773C678.245 116.5 677.637 116.139 677.165 115.69C676.694 115.241 676.342 114.75 676.109 114.216L678.299 113.312C678.452 113.562 678.657 113.827 678.913 114.105C679.174 114.389 679.526 114.631 679.969 114.83C680.418 115.028 680.995 115.128 681.699 115.128C682.665 115.128 683.464 114.892 684.094 114.42C684.725 113.955 685.04 113.21 685.04 112.188V109.614H684.878C684.725 109.892 684.503 110.202 684.214 110.543C683.93 110.884 683.538 111.179 683.038 111.429C682.538 111.679 681.887 111.804 681.086 111.804C680.052 111.804 679.12 111.562 678.29 111.08C677.467 110.591 676.813 109.872 676.33 108.923C675.853 107.969 675.614 106.795 675.614 105.403C675.614 104.011 675.85 102.818 676.322 101.824C676.799 100.83 677.452 100.068 678.282 99.5398C679.111 99.0057 680.052 98.7386 681.103 98.7386C681.915 98.7386 682.572 98.875 683.072 99.1477C683.572 99.4148 683.961 99.7273 684.239 100.085C684.523 100.443 684.742 100.759 684.895 101.031H685.083V98.9091H687.58V112.29C687.58 113.415 687.319 114.338 686.796 115.06C686.273 115.781 685.566 116.315 684.674 116.662C683.788 117.009 682.788 117.182 681.674 117.182ZM681.648 109.69C682.381 109.69 683.001 109.52 683.506 109.179C684.018 108.832 684.404 108.338 684.665 107.696C684.932 107.048 685.066 106.273 685.066 105.369C685.066 104.489 684.935 103.713 684.674 103.043C684.413 102.372 684.029 101.849 683.523 101.474C683.018 101.094 682.393 100.903 681.648 100.903C680.881 100.903 680.242 101.102 679.731 101.5C679.219 101.892 678.833 102.426 678.572 103.102C678.316 103.778 678.188 104.534 678.188 105.369C678.188 106.227 678.319 106.98 678.58 107.628C678.842 108.276 679.228 108.781 679.739 109.145C680.256 109.509 680.893 109.69 681.648 109.69Z" fill="black"/>
<path fill-rule="evenodd" clip-rule="evenodd" d="M568 32H544V56H568V32ZM560 40H552V48H560V40Z" fill="#FF7338"/>
<rect x="592" y="16" width="8" height="8" fill="#FCB191"/>
<rect x="592" y="48" width="8" height="8" fill="#FCB191"/>
<rect x="584" y="8" width="8" height="8" fill="#FCB191"/>
<rect x="584" y="40" width="8" height="8" fill="#FCB191"/>
<rect x="576" width="8" height="8" fill="#FCB191"/>
<rect x="576" y="32" width="8" height="8" fill="#FCB191"/>
<rect x="544" y="64" width="8" height="8" fill="#FCB191"/>
<rect x="600" y="8" width="16" height="8" fill="#FCB191"/>
<rect x="600" y="40" width="16" height="8" fill="#FCB191"/>
<rect x="560" y="64" width="24" height="8" fill="#FCB191"/>
<rect x="592" y="64" width="40" height="8" fill="#FCB191"/>
<rect x="616" width="16" height="8" fill="#FCB191"/>
<rect x="616" y="32" width="16" height="8" fill="#FCB191"/>
<path d="M1.91761 112V94.5455H12.7415V96.8125H4.55114V102.131H11.9659V104.389H4.55114V112H1.91761ZM19.7367 112.264C18.4469 112.264 17.3361 111.989 16.4043 111.438C15.4782 110.881 14.7622 110.099 14.2566 109.094C13.7566 108.082 13.5066 106.898 13.5066 105.54C13.5066 104.199 13.7566 103.017 14.2566 101.994C14.7622 100.972 15.4668 100.173 16.3702 99.5994C17.2793 99.0256 18.3418 98.7386 19.5577 98.7386C20.2963 98.7386 21.0122 98.8608 21.7054 99.1051C22.3986 99.3494 23.0208 99.733 23.5719 100.256C24.123 100.778 24.5577 101.457 24.8759 102.293C25.1941 103.122 25.3532 104.131 25.3532 105.318V106.222H14.9469V104.312H22.856C22.856 103.642 22.7196 103.048 22.4469 102.531C22.1742 102.009 21.7907 101.597 21.2963 101.295C20.8077 100.994 20.2338 100.844 19.5747 100.844C18.8588 100.844 18.2338 101.02 17.6997 101.372C17.1713 101.719 16.7622 102.173 16.4725 102.736C16.1884 103.293 16.0463 103.898 16.0463 104.551V106.043C16.0463 106.918 16.1997 107.662 16.5066 108.276C16.8191 108.889 17.2537 109.358 17.8105 109.682C18.3674 110 19.0179 110.159 19.7622 110.159C20.2452 110.159 20.6855 110.091 21.0833 109.955C21.481 109.812 21.8247 109.602 22.1145 109.324C22.4043 109.045 22.6259 108.702 22.7793 108.293L25.1912 108.727C24.998 109.437 24.6514 110.06 24.1514 110.594C23.6571 111.122 23.035 111.534 22.285 111.83C21.5407 112.119 20.6912 112.264 19.7367 112.264ZM31.2702 112.29C30.4407 112.29 29.6907 112.136 29.0202 111.83C28.3498 111.517 27.8185 111.065 27.4265 110.474C27.0401 109.884 26.8469 109.159 26.8469 108.301C26.8469 107.562 26.989 106.955 27.2731 106.477C27.5572 106 27.9407 105.622 28.4236 105.344C28.9066 105.065 29.4464 104.855 30.043 104.713C30.6395 104.571 31.2475 104.463 31.8668 104.389C32.6509 104.298 33.2873 104.224 33.7759 104.168C34.2645 104.105 34.6197 104.006 34.8412 103.869C35.0628 103.733 35.1736 103.511 35.1736 103.205V103.145C35.1736 102.401 34.9634 101.824 34.543 101.415C34.1282 101.006 33.5089 100.801 32.685 100.801C31.827 100.801 31.1509 100.991 30.6566 101.372C30.168 101.747 29.8299 102.165 29.6424 102.625L27.2475 102.08C27.5316 101.284 27.9464 100.642 28.4918 100.153C29.043 99.6591 29.6765 99.3011 30.3924 99.0795C31.1083 98.8523 31.8611 98.7386 32.6509 98.7386C33.1736 98.7386 33.7276 98.8011 34.3128 98.9261C34.9037 99.0455 35.4549 99.267 35.9662 99.5909C36.4833 99.9148 36.9066 100.378 37.2361 100.98C37.5657 101.577 37.7305 102.352 37.7305 103.307V112H35.2418V110.21H35.1395C34.9748 110.54 34.7276 110.864 34.3981 111.182C34.0685 111.5 33.6452 111.764 33.1282 111.974C32.6111 112.185 31.9918 112.29 31.2702 112.29ZM31.8242 110.244C32.5287 110.244 33.131 110.105 33.631 109.827C34.1367 109.548 34.5202 109.185 34.7816 108.736C35.0486 108.281 35.1822 107.795 35.1822 107.278V105.591C35.0912 105.682 34.9151 105.767 34.6537 105.847C34.3981 105.92 34.1055 105.986 33.7759 106.043C33.4464 106.094 33.1253 106.142 32.8128 106.188C32.5003 106.227 32.239 106.261 32.0287 106.29C31.5344 106.352 31.0827 106.457 30.6736 106.605C30.2702 106.753 29.9464 106.966 29.702 107.244C29.4634 107.517 29.3441 107.881 29.3441 108.335C29.3441 108.966 29.577 109.443 30.043 109.767C30.5089 110.085 31.1026 110.244 31.8242 110.244ZM46.5154 98.9091V100.955H39.3649V98.9091H46.5154ZM41.2825 95.7727H43.8308V108.156C43.8308 108.651 43.9046 109.023 44.0524 109.273C44.2001 109.517 44.3904 109.685 44.6234 109.776C44.862 109.861 45.1205 109.903 45.3989 109.903C45.6035 109.903 45.7825 109.889 45.9359 109.861C46.0893 109.832 46.2086 109.81 46.2938 109.793L46.7541 111.898C46.6063 111.955 46.3961 112.011 46.1234 112.068C45.8507 112.131 45.5097 112.165 45.1007 112.17C44.4302 112.182 43.8052 112.062 43.2257 111.812C42.6461 111.562 42.1774 111.176 41.8194 110.653C41.4614 110.131 41.2825 109.474 41.2825 108.685V95.7727ZM56.9069 106.571V98.9091H59.4637V112H56.9581V109.733H56.8217C56.5206 110.432 56.0376 111.014 55.3728 111.48C54.7137 111.94 53.8927 112.17 52.9098 112.17C52.0689 112.17 51.3245 111.986 50.6768 111.616C50.0348 111.241 49.5291 110.688 49.1598 109.955C48.7961 109.222 48.6143 108.315 48.6143 107.236V98.9091H51.1626V106.929C51.1626 107.821 51.4098 108.531 51.9041 109.06C52.3984 109.588 53.0405 109.852 53.8302 109.852C54.3075 109.852 54.7819 109.733 55.2535 109.494C55.7308 109.256 56.1257 108.895 56.4382 108.412C56.7564 107.929 56.9126 107.315 56.9069 106.571ZM62.1678 112V98.9091H64.6308V100.989H64.7672C65.0058 100.284 65.4263 99.7301 66.0286 99.3267C66.6365 98.9176 67.324 98.7131 68.0911 98.7131C68.2501 98.7131 68.4376 98.7187 68.6536 98.7301C68.8751 98.7415 69.0484 98.7557 69.1734 98.7727V101.21C69.0712 101.182 68.8893 101.151 68.628 101.116C68.3666 101.077 68.1053 101.057 67.8439 101.057C67.2416 101.057 66.7047 101.185 66.2331 101.44C65.7672 101.69 65.3979 102.04 65.1251 102.489C64.8524 102.932 64.7161 103.437 64.7161 104.006V112H62.1678ZM75.832 112.264C74.5422 112.264 73.4314 111.989 72.4996 111.438C71.5735 110.881 70.8576 110.099 70.3519 109.094C69.8519 108.082 69.6019 106.898 69.6019 105.54C69.6019 104.199 69.8519 103.017 70.3519 101.994C70.8576 100.972 71.5621 100.173 72.4655 99.5994C73.3746 99.0256 74.4371 98.7386 75.653 98.7386C76.3916 98.7386 77.1076 98.8608 77.8007 99.1051C78.4939 99.3494 79.1161 99.733 79.6672 100.256C80.2184 100.778 80.653 101.457 80.9712 102.293C81.2894 103.122 81.4485 104.131 81.4485 105.318V106.222H71.0422V104.312H78.9513C78.9513 103.642 78.8149 103.048 78.5422 102.531C78.2695 102.009 77.886 101.597 77.3916 101.295C76.903 100.994 76.3291 100.844 75.6701 100.844C74.9541 100.844 74.3291 101.02 73.7951 101.372C73.2666 101.719 72.8576 102.173 72.5678 102.736C72.2837 103.293 72.1416 103.898 72.1416 104.551V106.043C72.1416 106.918 72.2951 107.662 72.6019 108.276C72.9144 108.889 73.349 109.358 73.9059 109.682C74.4627 110 75.1132 110.159 75.8576 110.159C76.3405 110.159 76.7809 110.091 77.1786 109.955C77.5763 109.812 77.9201 109.602 78.2098 109.324C78.4996 109.045 78.7212 108.702 78.8746 108.293L81.2865 108.727C81.0934 109.437 80.7468 110.06 80.2468 110.594C79.7524 111.122 79.1303 111.534 78.3803 111.83C77.636 112.119 76.7865 112.264 75.832 112.264ZM93.3655 102.105L91.0559 102.514C90.9593 102.219 90.8059 101.937 90.5957 101.67C90.3911 101.403 90.1127 101.185 89.7604 101.014C89.4082 100.844 88.9678 100.759 88.4394 100.759C87.7178 100.759 87.1155 100.92 86.6326 101.244C86.1496 101.562 85.9082 101.974 85.9082 102.48C85.9082 102.918 86.0701 103.27 86.3939 103.537C86.7178 103.804 87.2405 104.023 87.9621 104.193L90.0417 104.67C91.2462 104.949 92.1439 105.378 92.7349 105.957C93.3258 106.537 93.6212 107.29 93.6212 108.216C93.6212 109 93.3939 109.699 92.9394 110.312C92.4905 110.92 91.8627 111.398 91.0559 111.744C90.2547 112.091 89.3258 112.264 88.2689 112.264C86.803 112.264 85.607 111.952 84.6809 111.327C83.7547 110.696 83.1866 109.801 82.9763 108.642L85.4394 108.267C85.5928 108.909 85.9082 109.395 86.3854 109.724C86.8627 110.048 87.4849 110.21 88.2519 110.21C89.0871 110.21 89.7547 110.037 90.2547 109.69C90.7547 109.338 91.0047 108.909 91.0047 108.403C91.0047 107.994 90.8513 107.651 90.5445 107.372C90.2434 107.094 89.7803 106.884 89.1553 106.741L86.9394 106.256C85.7178 105.977 84.8144 105.534 84.2292 104.926C83.6496 104.318 83.3599 103.548 83.3599 102.616C83.3599 101.844 83.5758 101.168 84.0076 100.588C84.4394 100.009 85.036 99.5568 85.7974 99.233C86.5587 98.9034 87.4309 98.7386 88.4138 98.7386C89.8286 98.7386 90.9422 99.0455 91.7547 99.6591C92.5672 100.267 93.1042 101.082 93.3655 102.105Z" fill="black"/>
<path fill-rule="evenodd" clip-rule="evenodd" d="M81 4.13248e-06L1 3.8147e-06L1 56L81 56L81 4.13248e-06ZM73 8L9 8L9 48L73 48L73 8Z" fill="#00B6FF"/>
<rect x="17" y="16" width="8" height="8" fill="#92D2EB"/>
<rect x="17" y="32" width="8" height="8" fill="#92D2EB"/>
<rect x="33" y="16" width="32" height="8" fill="#92D2EB"/>
<rect x="33" y="32" width="32" height="8" fill="#92D2EB"/>
<rect x="1" y="64" width="32" height="8" fill="#92D2EB"/>
<rect x="41" y="64" width="40" height="8" fill="#92D2EB"/>
</g>
<defs>
<clipPath id="clip0_278_16575">
<rect width="688" height="120" fill="white"/>
</clipPath>
</defs>
</svg>
