<svg xmlns="http://www.w3.org/2000/svg" xmlns:xlink="http://www.w3.org/1999/xlink" xmlns:lucid="lucid" width="3324" height="1960"><g transform="translate(1650 -200)" lucid:page-tab-id="6ruXcL_0PI~V"><path d="M-1696 0h3456v2656h-3456z" fill="#fff"/><path d="M1012 400h240v120h-240z" stroke="#000" stroke-width="2" fill="#fff"/><use xlink:href="#a" transform="matrix(1,0,0,1,1017,405) translate(62.625 58.6)"/><use xlink:href="#b" transform="matrix(1,0,0,1,1017,405) translate(113.475 58.6)"/><path d="M-720 880h240v80h-240z" stroke="#000" stroke-width="2" fill="#fcc438"/><use xlink:href="#c" transform="matrix(1,0,0,1,-715,885) translate(79.07499999999999 38.6)"/><path d="M-720 1000h240v80h-240z" stroke="#000" stroke-width="2" fill="#3aa6dd"/><use xlink:href="#d" transform="matrix(1,0,0,1,-715,1005) translate(58.099999999999994 38.6)"/><path d="M1012 940h240v80h-240z" stroke="#000" stroke-width="2" fill="#fff"/><use xlink:href="#e" transform="matrix(1,0,0,1,1017,945) translate(44.125 38.6)"/><use xlink:href="#f" transform="matrix(1,0,0,1,1017,945) translate(131.025 38.6)"/><path d="M1012 1080h240v80h-240z" stroke="#000" stroke-width="2" fill="#fff"/><use xlink:href="#g" transform="matrix(1,0,0,1,1017,1085) translate(40.175 38.6)"/><use xlink:href="#f" transform="matrix(1,0,0,1,1017,1085) translate(134.97500000000002 38.6)"/><path d="M1012 580h240v120h-240z" stroke="#000" stroke-width="2" fill="#fff"/><use xlink:href="#h" transform="matrix(1,0,0,1,1017,585) translate(80.025 37)"/><use xlink:href="#i" transform="matrix(1,0,0,1,1017,585) translate(127.025 37)"/><use xlink:href="#j" transform="matrix(1,0,0,1,1017,585) translate(33.14999999999999 58.6)"/><use xlink:href="#k" transform="matrix(1,0,0,1,1017,585) translate(127.9 58.6)"/><use xlink:href="#l" transform="matrix(1,0,0,1,1017,585) translate(61.599999999999994 80.20000000000002)"/><path d="M882.67 592H872c-33.14 0-60-26.86-60-60s26.86-60 60-60h10.67z" stroke="#000" stroke-width="2" fill="#fff"/><path d="M883.67 532h63.66v-72h45.43" stroke="#000" stroke-width="2" fill="none"/><path d="M883.67 533h-1v-2h1zM1007.76 460l-14.26 4.64v-9.28z"/><path d="M1011 460l-18.5 6v-12zm-16.5 3.26l10.03-3.26-10.03-3.26z"/><path d="M883.67 532h63.66v108h45.43" stroke="#000" stroke-width="2" fill="none"/><path d="M883.67 533h-1v-2h1zM1007.76 640l-14.26 4.64v-9.28z"/><path d="M1011 640l-18.5 6v-12zm-16.5 3.26l10.03-3.26-10.03-3.26z"/><path d="M598 928v104l-78-52z" stroke="#000" stroke-width="2" fill="#fff"/><path d="M401 980h98.96" stroke="#000" stroke-width="2" fill="none"/><path d="M401 981h-1v-2h1zM514.96 980l-14.26 4.64v-9.28z"/><path d="M518.2 980l-18.5 6v-12zm-16.5 3.26l10.03-3.26-10.03-3.26z"/><path d="M599 980h121V532h72.76" stroke="#000" stroke-width="2" fill="none"/><path d="M599 981h-1v-2h1zM807.76 532l-14.26 4.64v-9.28z"/><path d="M811 532l-18.5 6v-12zm-16.5 3.26l10.03-3.26-10.03-3.26z"/><path d="M599 980h121v140h272.76" stroke="#000" stroke-width="2" fill="none"/><path d="M599 981h-1v-2h1zM1007.76 1120l-14.26 4.64v-9.28z"/><path d="M1011 1120l-18.5 6v-12zm-16.5 3.26l10.03-3.26-10.03-3.26z"/><path d="M599 980h393.76" stroke="#000" stroke-width="2" fill="none"/><path d="M599 981h-1v-2h1zM1007.76 980l-14.26 4.64v-9.28z"/><path d="M1011 980l-18.5 6v-12zm-16.5 3.26l10.03-3.26-10.03-3.26z"/><path d="M-720 1120h240v80h-240z" stroke="#000" stroke-width="2" fill="#b391b5"/><use xlink:href="#m" transform="matrix(1,0,0,1,-715,1125) translate(76.55 38.6)"/><path d="M1012 760h240v120h-240z" stroke="#000" stroke-width="2" fill="#fff"/><use xlink:href="#n" transform="matrix(1,0,0,1,1017,765) translate(99.525 47.8)"/><use xlink:href="#j" transform="matrix(1,0,0,1,1017,765) translate(37.64999999999999 69.4)"/><use xlink:href="#o" transform="matrix(1,0,0,1,1017,765) translate(132.4 69.4)"/><path d="M883.67 532h63.66v288h45.43" stroke="#000" stroke-width="2" fill="none"/><path d="M883.67 533h-1v-2h1zM1007.76 820l-14.26 4.64v-9.28z"/><path d="M1011 820l-18.5 6v-12zm-16.5 3.26l10.03-3.26-10.03-3.26z"/><path d="M-1312 880c17.67 0 32 17.9 32 40s-14.33 40-32 40h-96c-17.67 0-32-17.9-32-40s14.33-40 32-40z" stroke="#000" stroke-width="2" fill="#fff"/><use xlink:href="#p" transform="matrix(1,0,0,1,-1435,885) translate(37.599999999999994 38.6)"/><use xlink:href="#q" transform="matrix(1,0,0,1,-1435,885) translate(78.5 38.6)"/><path d="M-1200 760h160v80h-160z" stroke="#000" stroke-width="2" fill="#fff"/><use xlink:href="#r" transform="matrix(1,0,0,1,-1195,765) translate(19.14999999999999 38.6)"/><use xlink:href="#s" transform="matrix(1,0,0,1,-1195,765) translate(89 38.6)"/><path d="M-1200 880h160v80h-160z" stroke="#000" stroke-width="2" fill="#fff"/><use xlink:href="#t" transform="matrix(1,0,0,1,-1195,885) translate(33.55 38.6)"/><use xlink:href="#u" transform="matrix(1,0,0,1,-1195,885) translate(86.44999999999999 38.6)"/><path d="M-1200 1000h160v80h-160z" stroke="#000" stroke-width="2" fill="#fff"/><use xlink:href="#t" transform="matrix(1,0,0,1,-1195,1005) translate(33.55 38.6)"/><use xlink:href="#u" transform="matrix(1,0,0,1,-1195,1005) translate(86.44999999999999 38.6)"/><path d="M-1200 1120h160v80h-160z" stroke="#000" stroke-width="2" fill="#fff"/><use xlink:href="#t" transform="matrix(1,0,0,1,-1195,1125) translate(33.55 38.6)"/><use xlink:href="#u" transform="matrix(1,0,0,1,-1195,1125) translate(86.44999999999999 38.6)"/><path d="M-960 880h160v80h-160z" stroke="#000" stroke-width="2" fill="#7ab648"/><use xlink:href="#v" transform="matrix(1,0,0,1,-955,885) translate(16.099999999999994 38.6)"/><use xlink:href="#w" transform="matrix(1,0,0,1,-955,885) translate(81.05 38.6)"/><path d="M-960 1040h160v100c-26.72-16.7-43.36-16.7-53.44-16.7-16 0-37.28 16.7-53.28 16.7-9.92 0-26.72 0-53.28-16.7z" stroke="#000" stroke-width="2" fill="#fff"/><use xlink:href="#x" transform="matrix(1,0,0,1,-955,1045) translate(48.05 40.6)"/><path d="M-850 800c0 16.57-13.43 30-30 30s-30-13.43-30-30 13.43-30 30-30 30 13.43 30 30z" stroke="#000" stroke-width="2" fill="#c1e4f7"/><use xlink:href="#y" transform="matrix(1,0,0,1,-905,775) translate(19.074074074074073 28.555555555555557)"/><path d="M-880 831v29.76" stroke="#000" stroke-width="2" fill="none"/><path d="M-880 830l1-.04V831h-2v-1.08zM-880 875.76l-4.64-14.26h9.28z"/><path d="M-880 879l-6-18.5h12zm-3.26-16.5l3.26 10.03 3.26-10.03z"/><path d="M-880 961v59.76" stroke="#000" stroke-width="2" fill="none"/><path d="M-879 961h-2v-1h2zM-880 1035.76l-4.64-14.26h9.28z"/><path d="M-880 1039l-6-18.5h12zm-3.26-16.5l3.26 10.03 3.26-10.03z"/><path d="M-1279 920h59.76" stroke="#000" stroke-width="2" fill="none"/><path d="M-1279 921h-1.06l.06-1-.04-1h1.04zM-1204.24 920l-14.26 4.64v-9.28z"/><path d="M-1201 920l-18.5 6v-12zm-16.5 3.26l10.03-3.26-10.03-3.26z"/><path d="M-1279 920h39v120h20.76" stroke="#000" stroke-width="2" fill="none"/><path d="M-1279 921h-1.06l.06-1-.04-1h1.04zM-1204.24 1040l-14.26 4.64v-9.28z"/><path d="M-1201 1040l-18.5 6v-12zm-16.5 3.26l10.03-3.26-10.03-3.26z"/><path d="M-1279 920h39v240h20.76" stroke="#000" stroke-width="2" fill="none"/><path d="M-1279 921h-1.06l.06-1-.04-1h1.04zM-1204.24 1160l-14.26 4.64v-9.28z"/><path d="M-1201 1160l-18.5 6v-12zm-16.5 3.26l10.03-3.26-10.03-3.26z"/><path d="M-1279 920h39V800h20.76" stroke="#000" stroke-width="2" fill="none"/><path d="M-1279 921h-1.06l.06-1-.04-1h1.04zM-1204.24 800l-14.26 4.64v-9.28z"/><path d="M-1201 800l-18.5 6v-12zm-16.5 3.26l10.03-3.26-10.03-3.26z"/><path d="M-1020.76 800h20.76v120h20.76" stroke="#000" stroke-width="2" fill="none"/><path d="M-1021.5 804.64l-14.26-4.64 14.26-4.64z"/><path d="M-1020.5 806l-18.5-6 18.5-6zm-12.03-6l10.03 3.26v-6.52zM-964.24 920l-14.26 4.64v-9.28z"/><path d="M-961 920l-18.5 6v-12zm-16.5 3.26l10.03-3.26-10.03-3.26z"/><path d="M-1020.76 920h41.52" stroke="#000" stroke-width="2" fill="none"/><path d="M-1021.5 924.64l-14.26-4.64 14.26-4.64z"/><path d="M-1020.5 926l-18.5-6 18.5-6zm-12.03-6l10.03 3.26v-6.52zM-964.24 920l-14.26 4.64v-9.28z"/><path d="M-961 920l-18.5 6v-12zm-16.5 3.26l10.03-3.26-10.03-3.26z"/><path d="M-1020.76 1040h20.76V920h20.76" stroke="#000" stroke-width="2" fill="none"/><path d="M-1021.5 1044.64l-14.26-4.64 14.26-4.64z"/><path d="M-1020.5 1046l-18.5-6 18.5-6zm-12.03-6l10.03 3.26v-6.52zM-964.24 920l-14.26 4.64v-9.28z"/><path d="M-961 920l-18.5 6v-12zm-16.5 3.26l10.03-3.26-10.03-3.26z"/><path d="M-1020.76 1160h20.76V920h20.76" stroke="#000" stroke-width="2" fill="none"/><path d="M-1021.5 1164.64l-14.26-4.64 14.26-4.64z"/><path d="M-1020.5 1166l-18.5-6 18.5-6zm-12.03-6l10.03 3.26v-6.52zM-964.24 920l-14.26 4.64v-9.28z"/><path d="M-961 920l-18.5 6v-12zm-16.5 3.26l10.03-3.26-10.03-3.26z"/><path d="M-720 760h240v80h-240z" stroke="#000" stroke-width="2" fill="#de5f85"/><use xlink:href="#z" transform="matrix(1,0,0,1,-715,765) translate(65.025 38.6)"/><path d="M-400 940h320v80h-320z" stroke="#000" stroke-width="2" fill="#fff"/><use xlink:href="#A" transform="matrix(1,0,0,1,-395,945) translate(107.3 38.6)"/><use xlink:href="#B" transform="matrix(1,0,0,1,-395,945) translate(148.2 38.6)"/><path d="M160 940h240v80H160z" stroke="#000" stroke-width="2" fill="#fff"/><use xlink:href="#j" transform="matrix(1,0,0,1,164.99999999999977,945) translate(37.64999999999999 38.6)"/><use xlink:href="#o" transform="matrix(1,0,0,1,164.99999999999977,945) translate(132.4 38.6)"/><path d="M-780.76 920h41.52" stroke="#000" stroke-width="2" fill="none"/><path d="M-781.5 924.64l-14.26-4.64 14.26-4.64z"/><path d="M-780.5 926l-18.5-6 18.5-6zm-12.03-6l10.03 3.26v-6.52zM-724.24 920l-14.26 4.64v-9.28z"/><path d="M-721 920l-18.5 6v-12zm-16.5 3.26l10.03-3.26-10.03-3.26z"/><path d="M-780.76 920H-760V800h20.76" stroke="#000" stroke-width="2" fill="none"/><path d="M-781.5 924.64l-14.26-4.64 14.26-4.64z"/><path d="M-780.5 926l-18.5-6 18.5-6zm-12.03-6l10.03 3.26v-6.52zM-724.24 800l-14.26 4.64v-9.28z"/><path d="M-721 800l-18.5 6v-12zm-16.5 3.26l10.03-3.26-10.03-3.26z"/><path d="M-780.76 920H-760v240h20.76" stroke="#000" stroke-width="2" fill="none"/><path d="M-781.5 924.64l-14.26-4.64 14.26-4.64z"/><path d="M-780.5 926l-18.5-6 18.5-6zm-12.03-6l10.03 3.26v-6.52zM-724.24 1160l-14.26 4.64v-9.28z"/><path d="M-721 1160l-18.5 6v-12zm-16.5 3.26l10.03-3.26-10.03-3.26z"/><path d="M-780.76 920H-760v120h20.76" stroke="#000" stroke-width="2" fill="none"/><path d="M-781.5 924.64l-14.26-4.64 14.26-4.64z"/><path d="M-780.5 926l-18.5-6 18.5-6zm-12.03-6l10.03 3.26v-6.52zM-724.24 1040l-14.26 4.64v-9.28z"/><path d="M-721 1040l-18.5 6v-12zm-16.5 3.26l10.03-3.26-10.03-3.26z"/><path d="M-460.76 920H-440v60h20.76" stroke="#000" stroke-width="2" fill="none"/><path d="M-461.5 924.64l-14.26-4.64 14.26-4.64z"/><path d="M-460.5 926l-18.5-6 18.5-6zm-12.03-6l10.03 3.26v-6.52zM-404.24 980l-14.26 4.64v-9.28z"/><path d="M-401 980l-18.5 6v-12zm-16.5 3.26l10.03-3.26-10.03-3.26z"/><path d="M-460.76 800H-440v180h20.76" stroke="#000" stroke-width="2" fill="none"/><path d="M-461.5 804.64l-14.26-4.64 14.26-4.64z"/><path d="M-460.5 806l-18.5-6 18.5-6zm-12.03-6l10.03 3.26v-6.52zM-404.24 980l-14.26 4.64v-9.28z"/><path d="M-401 980l-18.5 6v-12zm-16.5 3.26l10.03-3.26-10.03-3.26z"/><path d="M-460.76 1160H-440V980h20.76" stroke="#000" stroke-width="2" fill="none"/><path d="M-461.5 1164.64l-14.26-4.64 14.26-4.64z"/><path d="M-460.5 1166l-18.5-6 18.5-6zm-12.03-6l10.03 3.26v-6.52zM-404.24 980l-14.26 4.64v-9.28z"/><path d="M-401 980l-18.5 6v-12zm-16.5 3.26l10.03-3.26-10.03-3.26z"/><path d="M-460.76 1040H-440v-60h20.76" stroke="#000" stroke-width="2" fill="none"/><path d="M-461.5 1044.64l-14.26-4.64 14.26-4.64z"/><path d="M-460.5 1046l-18.5-6 18.5-6zm-12.03-6l10.03 3.26v-6.52zM-404.24 980l-14.26 4.64v-9.28z"/><path d="M-401 980l-18.5 6v-12zm-16.5 3.26l10.03-3.26-10.03-3.26z"/><path d="M-60.76 980h201.52" stroke="#000" stroke-width="2" fill="none"/><path d="M-61.5 984.64L-75.76 980l14.26-4.64z"/><path d="M-60.5 986l-18.5-6 18.5-6zm-12.03-6l10.03 3.26v-6.52zM155.76 980l-14.26 4.64v-9.28z"/><path d="M159 980l-18.5 6v-12zm-16.5 3.26l10.03-3.26-10.03-3.26z"/><path d="M-570 1290c0 16.57-13.43 30-30 30s-30-13.43-30-30 13.43-30 30-30 30 13.43 30 30z" stroke="#000" stroke-width="2" fill="#c1e4f7"/><use xlink:href="#C" transform="matrix(1,0,0,1,-625,1265) translate(18.604938271604937 28.555555555555557)"/><path d="M-600 1259v-39.76" stroke="#000" stroke-width="2" fill="none"/><path d="M-599 1260.08l-1-.08-1 .04V1259h2zM-595.36 1218.5h-9.28l4.64-14.26z"/><path d="M-594 1219.5h-12l6-18.5zm-9.26-2h6.52l-3.26-10.03z"/><path d="M-570 670c0 16.57-13.43 30-30 30s-30-13.43-30-30 13.43-30 30-30 30 13.43 30 30z" stroke="#000" stroke-width="2" fill="#c1e4f7"/><use xlink:href="#D" transform="matrix(1,0,0,1,-625,645) translate(18.604938271604937 28.555555555555557)"/><path d="M-600 701v39.76" stroke="#000" stroke-width="2" fill="none"/><path d="M-600 700l1-.04V701h-2v-1.08zM-600 755.76l-4.64-14.26h9.28z"/><path d="M-600 759l-6-18.5h12zm-3.26-16.5l3.26 10.03 3.26-10.03z"/><path d="M-320 820c0 22.1-17.9 40-40 40s-40-17.9-40-40 17.9-40 40-40 40 17.9 40 40z" stroke="#000" stroke-width="2" fill="#c1e4f7"/><use xlink:href="#y" transform="matrix(1,0,0,1,-395,785) translate(29.074074074074073 38.55555555555556)"/><path d="M-200 820c0 22.1-17.9 40-40 40s-40-17.9-40-40 17.9-40 40-40 40 17.9 40 40z" stroke="#000" stroke-width="2" fill="#c1e4f7"/><use xlink:href="#D" transform="matrix(1,0,0,1,-275,785) translate(28.604938271604937 38.55555555555556)"/><path d="M-80 820c0 22.1-17.9 40-40 40s-40-17.9-40-40 17.9-40 40-40 40 17.9 40 40z" stroke="#000" stroke-width="2" fill="#c1e4f7"/><use xlink:href="#C" transform="matrix(1,0,0,1,-154.99999999999977,785) translate(28.604938271604937 38.55555555555556)"/><path d="M-360 861v59.76" stroke="#000" stroke-width="2" fill="none"/><path d="M-360 860l1-.04V861h-2v-1.06zM-360 935.76l-4.64-14.26h9.28z"/><path d="M-360 939l-6-18.5h12zm-3.26-16.5l3.26 10.03 3.26-10.03z"/><path d="M-240 861v59.76" stroke="#000" stroke-width="2" fill="none"/><path d="M-240 860l1-.04V861h-2v-1.06zM-240 935.76l-4.64-14.26h9.28z"/><path d="M-240 939l-6-18.5h12zm-3.26-16.5l3.26 10.03 3.26-10.03z"/><path d="M-120 861V920.76" stroke="#000" stroke-width="2" fill="none"/><path d="M-120 860l1-.04V861h-2v-1.06zM-120 935.76l-4.64-14.26h9.28z"/><path d="M-120 939l-6-18.5h12zm-3.26-16.5l3.26 10.03 3.26-10.03z"/><path d="M-1390 1860h240v80h-240z" stroke="#000" stroke-width="2" fill="#de5f85"/><use xlink:href="#z" transform="matrix(1,0,0,1,-1385,1865) translate(65.025 38.6)"/><path d="M-1630 1740h160v120h-160z" stroke="#000" stroke-width="2" fill="#fff"/><use xlink:href="#E" transform="matrix(1,0,0,1,-1625,1745) translate(34.05 47.8)"/><use xlink:href="#F" transform="matrix(1,0,0,1,-1625,1745) translate(47.575 69.4)"/><path d="M-1630 1920h160v120h-160z" stroke="#000" stroke-width="2" fill="#fff"/><use xlink:href="#G" transform="matrix(1,0,0,1,-1625,1925) translate(26.099999999999994 47.8)"/><use xlink:href="#H" transform="matrix(1,0,0,1,-1625,1925) translate(88 47.8)"/><use xlink:href="#I" transform="matrix(1,0,0,1,-1625,1925) translate(35.574999999999996 69.4)"/><path d="M-1469 1800h39v100h20.76" stroke="#000" stroke-width="2" fill="none"/><path d="M-1469 1801h-1v-2h1zM-1394.24 1900l-14.26 4.64v-9.28z"/><path d="M-1391 1900l-18.5 6v-12zm-16.5 3.26l10.03-3.26-10.03-3.26z"/><path d="M-1469 1980h39v-79.34h20.76" stroke="#000" stroke-width="2" fill="none"/><path d="M-1469 1981h-1v-2h1zM-1394.24 1900.66l-14.26 4.64v-9.27z"/><path d="M-1391 1900.66l-18.5 6.02v-12.03zm-16.5 3.26l10.03-3.26-10.03-3.25z"/><path d="M-830 1860h240v80h-240z" stroke="#000" stroke-width="2" fill="#fcc438"/><use xlink:href="#J" transform="matrix(1,0,0,1,-825.0000000000001,1865) translate(49.125 38.6)"/><use xlink:href="#K" transform="matrix(1,0,0,1,-825.0000000000001,1865) translate(109.025 38.6)"/><path d="M-1070 1660h160v120h-160z" stroke="#000" stroke-width="2" fill="#fff"/><use xlink:href="#L" transform="matrix(1,0,0,1,-1065,1665) translate(7.525000000000006 58.6)"/><use xlink:href="#M" transform="matrix(1,0,0,1,-1065,1665) translate(72.525 58.6)"/><path d="M-1070 1840h160v120h-160z" stroke="#000" stroke-width="2" fill="#fff"/><use xlink:href="#v" transform="matrix(1,0,0,1,-1065,1845) translate(16.099999999999994 47.8)"/><use xlink:href="#N" transform="matrix(1,0,0,1,-1065,1845) translate(81.05 47.8)"/><use xlink:href="#K" transform="matrix(1,0,0,1,-1065,1845) translate(39.074999999999996 69.4)"/><path d="M-909 1720h39v180h20.76" stroke="#000" stroke-width="2" fill="none"/><path d="M-909 1721h-1v-2h1zM-834.24 1900l-14.26 4.64v-9.28z"/><path d="M-831 1900l-18.5 6v-12zm-16.5 3.26l10.03-3.26-10.03-3.26z"/><path d="M-909 1900h39v.66h20.76" stroke="#000" stroke-width="2" fill="none"/><path d="M-909 1901h-1v-2h1zM-834.24 1900.66l-14.26 4.64v-9.27z"/><path d="M-831 1900.66l-18.5 6.02v-12.03zm-16.5 3.26l10.03-3.26-10.03-3.25z"/><path d="M-1070 2020h160v120h-160z" stroke="#000" stroke-width="2" fill="#fff"/><use xlink:href="#O" transform="matrix(1,0,0,1,-1065,2025) translate(35.574999999999996 47.8)"/><use xlink:href="#K" transform="matrix(1,0,0,1,-1065,2025) translate(39.074999999999996 69.4)"/><path d="M-909 2080h39v-180h20.76" stroke="#000" stroke-width="2" fill="none"/><path d="M-909 2081h-1v-2h1zM-834.24 1900l-14.26 4.64v-9.28z"/><path d="M-831 1900l-18.5 6v-12zm-16.5 3.26l10.03-3.26-10.03-3.26z"/><path d="M-270 1860h240v80h-240z" stroke="#000" stroke-width="2" fill="#7ab648"/><use xlink:href="#v" transform="matrix(1,0,0,1,-265.0000000000002,1865) translate(56.099999999999994 38.6)"/><use xlink:href="#w" transform="matrix(1,0,0,1,-265.0000000000002,1865) translate(121.05 38.6)"/><path d="M-510 1660h160v120h-160z" stroke="#000" stroke-width="2" fill="#fff"/><use xlink:href="#P" transform="matrix(1,0,0,1,-505.0000000000002,1665) translate(17.074999999999996 37)"/><use xlink:href="#Q" transform="matrix(1,0,0,1,-505.0000000000002,1665) translate(72.975 37)"/><use xlink:href="#R" transform="matrix(1,0,0,1,-505.0000000000002,1665) translate(3.1500000000000057 58.6)"/><use xlink:href="#S" transform="matrix(1,0,0,1,-505.0000000000002,1665) translate(61.000000000000014 58.6)"/><use xlink:href="#T" transform="matrix(1,0,0,1,-505.0000000000002,1665) translate(101.9 58.6)"/><use xlink:href="#U" transform="matrix(1,0,0,1,-505.0000000000002,1665) translate(53.55 80.20000000000002)"/><path d="M-510 1840h160v120h-160z" stroke="#000" stroke-width="2" fill="#fff"/><use xlink:href="#V" transform="matrix(1,0,0,1,-505.0000000000002,1845) translate(26.525 37)"/><use xlink:href="#Q" transform="matrix(1,0,0,1,-505.0000000000002,1845) translate(63.525 37)"/><use xlink:href="#R" transform="matrix(1,0,0,1,-505.0000000000002,1845) translate(25.14999999999999 58.6)"/><use xlink:href="#W" transform="matrix(1,0,0,1,-505.0000000000002,1845) translate(83 58.6)"/><use xlink:href="#X" transform="matrix(1,0,0,1,-505.0000000000002,1845) translate(44.525 80.20000000000002)"/><path d="M-349 1720h39v180h20.76" stroke="#000" stroke-width="2" fill="none"/><path d="M-349 1721h-1v-2h1zM-274.24 1900l-14.26 4.64v-9.28z"/><path d="M-271 1900l-18.5 6v-12zm-16.5 3.26l10.03-3.26-10.03-3.26z"/><path d="M-349 1900h39v.66h20.76" stroke="#000" stroke-width="2" fill="none"/><path d="M-349 1901h-1v-2h1zM-274.24 1900.66l-14.26 4.64v-9.27z"/><path d="M-271 1900.66l-18.5 6.02v-12.03zm-16.5 3.26l10.03-3.26-10.03-3.25z"/><path d="M-510 2020h160v120h-160z" stroke="#000" stroke-width="2" fill="#fff"/><use xlink:href="#V" transform="matrix(1,0,0,1,-505.0000000000002,2025) translate(25.049999999999997 47.8)"/><use xlink:href="#Y" transform="matrix(1,0,0,1,-505.0000000000002,2025) translate(62.05 47.8)"/><use xlink:href="#Z" transform="matrix(1,0,0,1,-505.0000000000002,2025) translate(16.099999999999994 69.4)"/><use xlink:href="#w" transform="matrix(1,0,0,1,-505.0000000000002,2025) translate(81.05 69.4)"/><path d="M-349 2080h39v-180h20.76" stroke="#000" stroke-width="2" fill="none"/><path d="M-349 2081h-1v-2h1zM-274.24 1900l-14.26 4.64v-9.28z"/><path d="M-271 1900l-18.5 6v-12zm-16.5 3.26l10.03-3.26-10.03-3.26z"/><path d="M634 1860h240v80H634z" stroke="#000" stroke-width="2" fill="#3aa6dd"/><use xlink:href="#d" transform="matrix(1,0,0,1,639,1865) translate(58.099999999999994 38.6)"/><path d="M214 1750h340v120H214z" stroke="#000" stroke-width="2" fill="#fff"/><use xlink:href="#aa" transform="matrix(1,0,0,1,219,1755) translate(76.14999999999999 47.8)"/><use xlink:href="#ab" transform="matrix(1,0,0,1,219,1755) translate(128.05 47.8)"/><use xlink:href="#ac" transform="matrix(1,0,0,1,219,1755) translate(158.05 47.8)"/><use xlink:href="#ad" transform="matrix(1,0,0,1,219,1755) translate(216.95 47.8)"/><use xlink:href="#ae" transform="matrix(1,0,0,1,219,1755) translate(72.375 69.4)"/><use xlink:href="#af" transform="matrix(1,0,0,1,219,1755) translate(125.275 69.4)"/><use xlink:href="#ag" transform="matrix(1,0,0,1,219,1755) translate(167.875 69.4)"/><use xlink:href="#ah" transform="matrix(1,0,0,1,219,1755) translate(206.825 69.4)"/><path d="M214 1930h340v120H214z" stroke="#000" stroke-width="2" fill="#fff"/><use xlink:href="#ai" transform="matrix(1,0,0,1,219,1935) translate(77.94999999999999 58.6)"/><use xlink:href="#aj" transform="matrix(1,0,0,1,219,1935) translate(138.14999999999998 58.6)"/><use xlink:href="#ak" transform="matrix(1,0,0,1,219,1935) translate(158.14999999999998 58.6)"/><path d="M555 1810h39v90h20.76" stroke="#000" stroke-width="2" fill="none"/><path d="M555 1811h-1v-2h1zM629.76 1900l-14.26 4.64v-9.28z"/><path d="M633 1900l-18.5 6v-12zm-16.5 3.26l10.03-3.26-10.03-3.26z"/><path d="M555 1990h39v-89.34h20.76" stroke="#000" stroke-width="2" fill="none"/><path d="M555 1991h-1v-2h1zM629.76 1900.66l-14.26 4.64v-9.27z"/><path d="M633 1900.66l-18.5 6.02v-12.03zm-16.5 3.26l10.03-3.26-10.03-3.25z"/><path d="M1414 1860h240v80h-240z" stroke="#000" stroke-width="2" fill="#b391b5"/><g><use xlink:href="#m" transform="matrix(1,0,0,1,1419,1865) translate(76.55 38.6)"/></g><path d="M994 1750h340v120H994z" stroke="#000" stroke-width="2" fill="#fff"/><g><use xlink:href="#al" transform="matrix(1,0,0,1,999,1755) translate(36.67499999999998 58.6)"/><use xlink:href="#am" transform="matrix(1,0,0,1,999,1755) translate(91.62499999999999 58.6)"/><use xlink:href="#S" transform="matrix(1,0,0,1,999,1755) translate(173.525 58.6)"/><use xlink:href="#an" transform="matrix(1,0,0,1,999,1755) translate(214.425 58.6)"/></g><path d="M994 1930h340v120H994z" stroke="#000" stroke-width="2" fill="#fff"/><g><use xlink:href="#ao" transform="matrix(1,0,0,1,999,1935) translate(60.69999999999999 58.6)"/><use xlink:href="#am" transform="matrix(1,0,0,1,999,1935) translate(127.6 58.6)"/><use xlink:href="#ap" transform="matrix(1,0,0,1,999,1935) translate(209.5 58.6)"/></g><path d="M1335 1810h39v90h20.76" stroke="#000" stroke-width="2" fill="none"/><path d="M1335 1811h-1v-2h1zM1409.76 1900l-14.26 4.64v-9.28z"/><path d="M1413 1900l-18.5 6v-12zm-16.5 3.26l10.03-3.26-10.03-3.26z"/><path d="M1335 1990h39v-89.34h20.76" stroke="#000" stroke-width="2" fill="none"/><path d="M1335 1991h-1v-2h1zM1409.76 1900.66l-14.26 4.64v-9.27z"/><path d="M1413 1900.66l-18.5 6.02v-12.03zm-16.5 3.26l10.03-3.26-10.03-3.25z"/><path d="M-1440 280h240v80h-240z" stroke="#000" stroke-width="2" fill="#fff"/><g><use xlink:href="#aq" transform="matrix(1,0,0,1,-1435,285) translate(39.125 38.6)"/><use xlink:href="#ar" transform="matrix(1,0,0,1,-1435,285) translate(101.075 38.6)"/></g><path d="M-1120 280h300v80h-300z" stroke="#000" stroke-width="2" fill="#fff"/><g><use xlink:href="#as" transform="matrix(1,0,0,1,-1115,285) translate(36.724999999999994 38.6)"/><use xlink:href="#at" transform="matrix(1,0,0,1,-1115,285) translate(69.675 38.6)"/><use xlink:href="#au" transform="matrix(1,0,0,1,-1115,285) translate(164.47500000000002 38.6)"/></g><path d="M-740 340h300v80h-300z" stroke="#000" stroke-width="2" fill="#fff"/><g><use xlink:href="#av" transform="matrix(1,0,0,1,-735,345) translate(20.724999999999994 38.6)"/><use xlink:href="#Z" transform="matrix(1,0,0,1,-735,345) translate(56.675 38.6)"/><use xlink:href="#aw" transform="matrix(1,0,0,1,-735,345) translate(121.625 38.6)"/><use xlink:href="#ax" transform="matrix(1,0,0,1,-735,345) translate(188.475 38.6)"/></g><path d="M-740 220h300v80h-300z" stroke="#000" stroke-width="2" fill="#fff"/><g><use xlink:href="#av" transform="matrix(1,0,0,1,-735,225) translate(56.67499999999998 38.6)"/><use xlink:href="#ay" transform="matrix(1,0,0,1,-735,225) translate(92.62499999999999 38.6)"/><use xlink:href="#ax" transform="matrix(1,0,0,1,-735,225) translate(152.52499999999998 38.6)"/></g><path d="M-184 280c24.3 0 44 17.9 44 40s-19.7 40-44 40h-132c-24.3 0-44-17.9-44-40s19.7-40 44-40z" stroke="#000" stroke-width="2" fill="#fff"/><g><use xlink:href="#az" transform="matrix(1,0,0,1,-355,285) translate(48.77777777777777 38.55555555555556)"/><use xlink:href="#aA" transform="matrix(1,0,0,1,-355,285) translate(127.74074074074073 38.55555555555556)"/></g><path d="M-439 260h39v60h20.76" stroke="#000" stroke-width="2" fill="none"/><path d="M-439 261h-1v-2h1zM-364.24 320l-14.26 4.64v-9.28z"/><path d="M-361 320l-18.5 6v-12zm-16.5 3.26l10.03-3.26-10.03-3.26z"/><path d="M-439 380h39v-60h20.76" stroke="#000" stroke-width="2" fill="none"/><path d="M-439 381h-1v-2h1zM-364.24 320l-14.26 4.64v-9.28z"/><path d="M-361 320l-18.5 6v-12zm-16.5 3.26l10.03-3.26-10.03-3.26z"/><path d="M-819 320h39v-60h20.76" stroke="#000" stroke-width="2" fill="none"/><path d="M-819 321h-1v-2h1zM-744.24 260l-14.26 4.64v-9.28z"/><path d="M-741 260l-18.5 6v-12zm-16.5 3.26l10.03-3.26-10.03-3.26z"/><path d="M-819 320h39v60h20.76" stroke="#000" stroke-width="2" fill="none"/><path d="M-819 321h-1v-2h1zM-744.24 380l-14.26 4.64v-9.28z"/><path d="M-741 380l-18.5 6v-12zm-16.5 3.26l10.03-3.26-10.03-3.26z"/><path d="M-1199 320h59.76" stroke="#000" stroke-width="2" fill="none"/><path d="M-1199 321h-1v-2h1zM-1124.24 320l-14.26 4.64v-9.28z"/><path d="M-1121 320l-18.5 6v-12zm-16.5 3.26l10.03-3.26-10.03-3.26z"/><defs><path d="M212-179c-10-28-35-45-73-45-59 0-87 40-87 99 0 60 29 101 89 101 43 0 62-24 78-52l27 14C228-24 195 4 139 4 59 4 22-46 18-125c-6-104 99-153 187-111 19 9 31 26 39 46" id="aB"/><path d="M24 0v-261h32V0H24" id="aC"/><path d="M24-231v-30h32v30H24zM24 0v-190h32V0H24" id="aD"/><path d="M100-194c63 0 86 42 84 106H49c0 40 14 67 53 68 26 1 43-12 49-29l28 8c-11 28-37 45-77 45C44 4 14-33 15-96c1-61 26-98 85-98zm52 81c6-60-76-77-97-28-3 7-6 17-6 28h103" id="aE"/><path d="M117-194c89-4 53 116 60 194h-32v-121c0-31-8-49-39-48C34-167 62-67 57 0H25l-1-190h30c1 10-1 24 2 32 11-22 29-35 61-36" id="aF"/><path d="M59-47c-2 24 18 29 38 22v24C64 9 27 4 27-40v-127H5v-23h24l9-43h21v43h35v23H59v120" id="aG"/><g id="a"><use transform="matrix(0.05,0,0,0.05,0,0)" xlink:href="#aB"/><use transform="matrix(0.05,0,0,0.05,12.950000000000001,0)" xlink:href="#aC"/><use transform="matrix(0.05,0,0,0.05,16.900000000000002,0)" xlink:href="#aD"/><use transform="matrix(0.05,0,0,0.05,20.85,0)" xlink:href="#aE"/><use transform="matrix(0.05,0,0,0.05,30.85,0)" xlink:href="#aF"/><use transform="matrix(0.05,0,0,0.05,40.85,0)" xlink:href="#aG"/></g><path d="M114-163C36-179 61-72 57 0H25l-1-190h30c1 12-1 29 2 39 6-27 23-49 58-41v29" id="aH"/><g id="b"><use transform="matrix(0.05,0,0,0.05,0,0)" xlink:href="#aB"/><use transform="matrix(0.05,0,0,0.05,12.950000000000001,0)" xlink:href="#aE"/><use transform="matrix(0.05,0,0,0.05,22.950000000000003,0)" xlink:href="#aF"/><use transform="matrix(0.05,0,0,0.05,32.95,0)" xlink:href="#aG"/><use transform="matrix(0.05,0,0,0.05,37.95,0)" xlink:href="#aE"/><use transform="matrix(0.05,0,0,0.05,47.95,0)" xlink:href="#aH"/></g><path d="M233-177c-1 41-23 64-60 70L243 0h-38l-65-103H63V0H30v-248c88 3 205-21 203 71zM63-129c60-2 137 13 137-47 0-61-80-42-137-45v92" id="aI"/><path d="M210-169c-67 3-38 105-44 169h-31v-121c0-29-5-50-35-48C34-165 62-65 56 0H25l-1-190h30c1 10-1 24 2 32 10-44 99-50 107 0 11-21 27-35 58-36 85-2 47 119 55 194h-31v-121c0-29-5-49-35-48" id="aJ"/><path d="M141-36C126-15 110 5 73 4 37 3 15-17 15-53c-1-64 63-63 125-63 3-35-9-54-41-54-24 1-41 7-42 31l-33-3c5-37 33-52 76-52 45 0 72 20 72 64v82c-1 20 7 32 28 27v20c-31 9-61-2-59-35zM48-53c0 20 12 33 32 33 41-3 63-29 60-74-43 2-92-5-92 41" id="aK"/><path d="M143 0L79-87 56-68V0H24v-261h32v163l83-92h37l-77 82L181 0h-38" id="aL"/><path d="M135-143c-3-34-86-38-87 0 15 53 115 12 119 90S17 21 10-45l28-5c4 36 97 45 98 0-10-56-113-15-118-90-4-57 82-63 122-42 12 7 21 19 24 35" id="aM"/><g id="c"><use transform="matrix(0.05,0,0,0.05,0,0)" xlink:href="#aI"/><use transform="matrix(0.05,0,0,0.05,12.950000000000001,0)" xlink:href="#aE"/><use transform="matrix(0.05,0,0,0.05,22.950000000000003,0)" xlink:href="#aJ"/><use transform="matrix(0.05,0,0,0.05,37.900000000000006,0)" xlink:href="#aK"/><use transform="matrix(0.05,0,0,0.05,47.900000000000006,0)" xlink:href="#aH"/><use transform="matrix(0.05,0,0,0.05,53.85,0)" xlink:href="#aL"/><use transform="matrix(0.05,0,0,0.05,62.85,0)" xlink:href="#aM"/></g><path d="M84 4C-5 8 30-112 23-190h32v120c0 31 7 50 39 49 72-2 45-101 50-169h31l1 190h-30c-1-10 1-25-2-33-11 22-28 36-60 37" id="aN"/><path d="M100-194c62-1 85 37 85 99 1 63-27 99-86 99S16-35 15-95c0-66 28-99 85-99zM99-20c44 1 53-31 53-75 0-43-8-75-51-75s-53 32-53 75 10 74 51 75" id="aO"/><path d="M9 0v-24l116-142H16v-24h144v24L44-24h123V0H9" id="aP"/><g id="d"><use transform="matrix(0.05,0,0,0.05,0,0)" xlink:href="#aB"/><use transform="matrix(0.05,0,0,0.05,12.950000000000001,0)" xlink:href="#aN"/><use transform="matrix(0.05,0,0,0.05,22.950000000000003,0)" xlink:href="#aM"/><use transform="matrix(0.05,0,0,0.05,31.950000000000003,0)" xlink:href="#aG"/><use transform="matrix(0.05,0,0,0.05,36.95,0)" xlink:href="#aO"/><use transform="matrix(0.05,0,0,0.05,46.95,0)" xlink:href="#aJ"/><use transform="matrix(0.05,0,0,0.05,61.900000000000006,0)" xlink:href="#aD"/><use transform="matrix(0.05,0,0,0.05,65.85000000000001,0)" xlink:href="#aP"/><use transform="matrix(0.05,0,0,0.05,74.85000000000001,0)" xlink:href="#aK"/><use transform="matrix(0.05,0,0,0.05,84.85000000000001,0)" xlink:href="#aG"/><use transform="matrix(0.05,0,0,0.05,89.85000000000001,0)" xlink:href="#aD"/><use transform="matrix(0.05,0,0,0.05,93.80000000000001,0)" xlink:href="#aO"/><use transform="matrix(0.05,0,0,0.05,103.80000000000001,0)" xlink:href="#aF"/></g><path d="M30-248c118-7 216 8 213 122C240-48 200 0 122 0H30v-248zM63-27c89 8 146-16 146-99s-60-101-146-95v194" id="aQ"/><path d="M96-169c-40 0-48 33-48 73s9 75 48 75c24 0 41-14 43-38l32 2c-6 37-31 61-74 61-59 0-76-41-82-99-10-93 101-131 147-64 4 7 5 14 7 22l-32 3c-4-21-16-35-41-35" id="aR"/><g id="e"><use transform="matrix(0.05,0,0,0.05,0,0)" xlink:href="#aQ"/><use transform="matrix(0.05,0,0,0.05,12.950000000000001,0)" xlink:href="#aO"/><use transform="matrix(0.05,0,0,0.05,22.950000000000003,0)" xlink:href="#aR"/><use transform="matrix(0.05,0,0,0.05,31.950000000000003,0)" xlink:href="#aN"/><use transform="matrix(0.05,0,0,0.05,41.95,0)" xlink:href="#aJ"/><use transform="matrix(0.05,0,0,0.05,56.900000000000006,0)" xlink:href="#aE"/><use transform="matrix(0.05,0,0,0.05,66.9,0)" xlink:href="#aF"/><use transform="matrix(0.05,0,0,0.05,76.9,0)" xlink:href="#aG"/></g><path d="M30 0v-248h33v221h125V0H30" id="aS"/><path d="M115-194c53 0 69 39 70 98 0 66-23 100-70 100C84 3 66-7 56-30L54 0H23l1-261h32v101c10-23 28-34 59-34zm-8 174c40 0 45-34 45-75 0-40-5-75-45-74-42 0-51 32-51 76 0 43 10 73 51 73" id="aT"/><path d="M179-190L93 31C79 59 56 82 12 73V49c39 6 53-20 64-50L1-190h34L92-34l54-156h33" id="aU"/><g id="f"><use transform="matrix(0.05,0,0,0.05,0,0)" xlink:href="#aS"/><use transform="matrix(0.05,0,0,0.05,10,0)" xlink:href="#aD"/><use transform="matrix(0.05,0,0,0.05,13.949999999999998,0)" xlink:href="#aT"/><use transform="matrix(0.05,0,0,0.05,23.95,0)" xlink:href="#aH"/><use transform="matrix(0.05,0,0,0.05,29.899999999999995,0)" xlink:href="#aK"/><use transform="matrix(0.05,0,0,0.05,39.9,0)" xlink:href="#aH"/><use transform="matrix(0.05,0,0,0.05,45.85,0)" xlink:href="#aU"/></g><path d="M101-234c-31-9-42 10-38 44h38v23H63V0H32v-167H5v-23h27c-7-52 17-82 69-68v24" id="aV"/><g id="g"><use transform="matrix(0.05,0,0,0.05,0,0)" xlink:href="#aB"/><use transform="matrix(0.05,0,0,0.05,12.950000000000001,0)" xlink:href="#aE"/><use transform="matrix(0.05,0,0,0.05,22.950000000000003,0)" xlink:href="#aH"/><use transform="matrix(0.05,0,0,0.05,28.900000000000002,0)" xlink:href="#aG"/><use transform="matrix(0.05,0,0,0.05,33.900000000000006,0)" xlink:href="#aD"/><use transform="matrix(0.05,0,0,0.05,37.85000000000001,0)" xlink:href="#aV"/><use transform="matrix(0.05,0,0,0.05,42.85000000000001,0)" xlink:href="#aD"/><use transform="matrix(0.05,0,0,0.05,46.80000000000001,0)" xlink:href="#aR"/><use transform="matrix(0.05,0,0,0.05,55.80000000000001,0)" xlink:href="#aK"/><use transform="matrix(0.05,0,0,0.05,65.80000000000001,0)" xlink:href="#aG"/><use transform="matrix(0.05,0,0,0.05,70.80000000000001,0)" xlink:href="#aE"/><use transform="matrix(0.05,0,0,0.05,80.80000000000001,0)" xlink:href="#aM"/></g><path d="M185-189c-5-48-123-54-124 2 14 75 158 14 163 119 3 78-121 87-175 55-17-10-28-26-33-46l33-7c5 56 141 63 141-1 0-78-155-14-162-118-5-82 145-84 179-34 5 7 8 16 11 25" id="aW"/><path d="M85-194c31 0 48 13 60 33l-1-100h32l1 261h-30c-2-10 0-23-3-31C134-8 116 4 85 4 32 4 16-35 15-94c0-66 23-100 70-100zm9 24c-40 0-46 34-46 75 0 40 6 74 45 74 42 0 51-32 51-76 0-42-9-74-50-73" id="aX"/><g id="h"><use transform="matrix(0.05,0,0,0.05,0,0)" xlink:href="#aW"/><use transform="matrix(0.05,0,0,0.05,12,0)" xlink:href="#aE"/><use transform="matrix(0.05,0,0,0.05,22,0)" xlink:href="#aF"/><use transform="matrix(0.05,0,0,0.05,32,0)" xlink:href="#aX"/></g><path d="M108 0H70L1-190h34L89-25l56-165h34" id="aY"/><g id="i"><use transform="matrix(0.05,0,0,0.05,0,0)" xlink:href="#aY"/><use transform="matrix(0.05,0,0,0.05,9,0)" xlink:href="#aD"/><use transform="matrix(0.05,0,0,0.05,12.949999999999998,0)" xlink:href="#aK"/></g><g id="j"><use transform="matrix(0.05,0,0,0.05,0,0)" xlink:href="#aQ"/><use transform="matrix(0.05,0,0,0.05,12.950000000000001,0)" xlink:href="#aD"/><use transform="matrix(0.05,0,0,0.05,16.900000000000002,0)" xlink:href="#aM"/><use transform="matrix(0.05,0,0,0.05,25.900000000000002,0)" xlink:href="#aG"/><use transform="matrix(0.05,0,0,0.05,30.900000000000002,0)" xlink:href="#aH"/><use transform="matrix(0.05,0,0,0.05,36.85,0)" xlink:href="#aD"/><use transform="matrix(0.05,0,0,0.05,40.800000000000004,0)" xlink:href="#aT"/><use transform="matrix(0.05,0,0,0.05,50.800000000000004,0)" xlink:href="#aN"/><use transform="matrix(0.05,0,0,0.05,60.800000000000004,0)" xlink:href="#aG"/><use transform="matrix(0.05,0,0,0.05,65.80000000000001,0)" xlink:href="#aD"/><use transform="matrix(0.05,0,0,0.05,69.75000000000001,0)" xlink:href="#aO"/><use transform="matrix(0.05,0,0,0.05,79.75000000000001,0)" xlink:href="#aF"/></g><path d="M240 0l2-218c-23 76-54 145-80 218h-23L58-218 59 0H30v-248h44l77 211c21-75 51-140 76-211h43V0h-30" id="aZ"/><path d="M106-169C34-169 62-67 57 0H25v-261h32l-1 103c12-21 28-36 61-36 89 0 53 116 60 194h-32v-121c2-32-8-49-39-48" id="ba"/><g id="k"><use transform="matrix(0.05,0,0,0.05,0,0)" xlink:href="#aZ"/><use transform="matrix(0.05,0,0,0.05,14.950000000000001,0)" xlink:href="#aE"/><use transform="matrix(0.05,0,0,0.05,24.950000000000003,0)" xlink:href="#aG"/><use transform="matrix(0.05,0,0,0.05,29.950000000000003,0)" xlink:href="#ba"/><use transform="matrix(0.05,0,0,0.05,39.95,0)" xlink:href="#aO"/><use transform="matrix(0.05,0,0,0.05,49.95,0)" xlink:href="#aX"/><use transform="matrix(0.05,0,0,0.05,59.95,0)" xlink:href="#aM"/></g><path d="M205 0l-28-72H64L36 0H1l101-248h38L239 0h-34zm-38-99l-47-123c-12 45-31 82-46 123h93" id="bb"/><g id="l"><use transform="matrix(0.05,0,0,0.05,0,0)" xlink:href="#bb"/><use transform="matrix(0.05,0,0,0.05,12,0)" xlink:href="#aN"/><use transform="matrix(0.05,0,0,0.05,22,0)" xlink:href="#aG"/><use transform="matrix(0.05,0,0,0.05,27,0)" xlink:href="#aO"/><use transform="matrix(0.05,0,0,0.05,37,0)" xlink:href="#aJ"/><use transform="matrix(0.05,0,0,0.05,51.95,0)" xlink:href="#aK"/><use transform="matrix(0.05,0,0,0.05,61.95,0)" xlink:href="#aG"/><use transform="matrix(0.05,0,0,0.05,66.95,0)" xlink:href="#aD"/><use transform="matrix(0.05,0,0,0.05,70.9,0)" xlink:href="#aR"/><use transform="matrix(0.05,0,0,0.05,79.9,0)" xlink:href="#aK"/><use transform="matrix(0.05,0,0,0.05,89.9,0)" xlink:href="#aC"/><use transform="matrix(0.05,0,0,0.05,93.85000000000001,0)" xlink:href="#aC"/><use transform="matrix(0.05,0,0,0.05,97.80000000000001,0)" xlink:href="#aU"/></g><path d="M177-190C167-65 218 103 67 71c-23-6-38-20-44-43l32-5c15 47 100 32 89-28v-30C133-14 115 1 83 1 29 1 15-40 15-95c0-56 16-97 71-98 29-1 48 16 59 35 1-10 0-23 2-32h30zM94-22c36 0 50-32 50-73 0-42-14-75-50-75-39 0-46 34-46 75s6 73 46 73" id="bc"/><g id="m"><use transform="matrix(0.05,0,0,0.05,0,0)" xlink:href="#aW"/><use transform="matrix(0.05,0,0,0.05,12,0)" xlink:href="#aD"/><use transform="matrix(0.05,0,0,0.05,15.949999999999998,0)" xlink:href="#bc"/><use transform="matrix(0.05,0,0,0.05,25.950000000000003,0)" xlink:href="#aF"/><use transform="matrix(0.05,0,0,0.05,35.95,0)" xlink:href="#aK"/><use transform="matrix(0.05,0,0,0.05,45.95,0)" xlink:href="#aG"/><use transform="matrix(0.05,0,0,0.05,50.95,0)" xlink:href="#aN"/><use transform="matrix(0.05,0,0,0.05,60.95,0)" xlink:href="#aH"/><use transform="matrix(0.05,0,0,0.05,66.9,0)" xlink:href="#aE"/></g><path d="M30 0v-248h187v28H63v79h144v27H63v87h162V0H30" id="bd"/><g id="n"><use transform="matrix(0.05,0,0,0.05,0,0)" xlink:href="#bd"/><use transform="matrix(0.05,0,0,0.05,12,0)" xlink:href="#aX"/><use transform="matrix(0.05,0,0,0.05,22,0)" xlink:href="#aD"/><use transform="matrix(0.05,0,0,0.05,25.950000000000003,0)" xlink:href="#aG"/></g><g id="o"><use transform="matrix(0.05,0,0,0.05,0,0)" xlink:href="#aZ"/><use transform="matrix(0.05,0,0,0.05,14.950000000000001,0)" xlink:href="#aE"/><use transform="matrix(0.05,0,0,0.05,24.950000000000003,0)" xlink:href="#aG"/><use transform="matrix(0.05,0,0,0.05,29.950000000000003,0)" xlink:href="#ba"/><use transform="matrix(0.05,0,0,0.05,39.95,0)" xlink:href="#aO"/><use transform="matrix(0.05,0,0,0.05,49.95,0)" xlink:href="#aX"/></g><path d="M190 0L58-211 59 0H30v-248h39L202-35l-2-213h31V0h-41" id="be"/><path d="M206 0h-36l-40-164L89 0H53L-1-190h32L70-26l43-164h34l41 164 42-164h31" id="bf"/><g id="p"><use transform="matrix(0.05,0,0,0.05,0,0)" xlink:href="#be"/><use transform="matrix(0.05,0,0,0.05,12.950000000000001,0)" xlink:href="#aE"/><use transform="matrix(0.05,0,0,0.05,22.950000000000003,0)" xlink:href="#bf"/></g><g id="q"><use transform="matrix(0.05,0,0,0.05,0,0)" xlink:href="#aB"/><use transform="matrix(0.05,0,0,0.05,12.950000000000001,0)" xlink:href="#aE"/><use transform="matrix(0.05,0,0,0.05,22.950000000000003,0)" xlink:href="#aH"/><use transform="matrix(0.05,0,0,0.05,28.900000000000002,0)" xlink:href="#aG"/></g><path d="M140-251c81 0 123 46 123 126C263-46 219 4 140 4 59 4 17-45 17-125s42-126 123-126zm0 227c63 0 89-41 89-101s-29-99-89-99c-61 0-89 39-89 99S79-25 140-24" id="bg"/><g id="r"><use transform="matrix(0.05,0,0,0.05,0,0)" xlink:href="#bb"/><use transform="matrix(0.05,0,0,0.05,12,0)" xlink:href="#aB"/><use transform="matrix(0.05,0,0,0.05,24.950000000000003,0)" xlink:href="#bg"/><use transform="matrix(0.05,0,0,0.05,38.95,0)" xlink:href="#aI"/><use transform="matrix(0.05,0,0,0.05,51.900000000000006,0)" xlink:href="#aQ"/></g><path d="M63-220v92h138v28H63V0H30v-248h175v28H63" id="bh"/><g id="s"><use transform="matrix(0.05,0,0,0.05,0,0)" xlink:href="#bh"/><use transform="matrix(0.05,0,0,0.05,10.950000000000001,0)" xlink:href="#aO"/><use transform="matrix(0.05,0,0,0.05,20.950000000000003,0)" xlink:href="#aH"/><use transform="matrix(0.05,0,0,0.05,26.900000000000002,0)" xlink:href="#aJ"/></g><path d="M30-248c87 1 191-15 191 75 0 78-77 80-158 76V0H30v-248zm33 125c57 0 124 11 124-50 0-59-68-47-124-48v98" id="bi"/><g id="t"><use transform="matrix(0.05,0,0,0.05,0,0)" xlink:href="#bi"/><use transform="matrix(0.05,0,0,0.05,12,0)" xlink:href="#aO"/><use transform="matrix(0.05,0,0,0.05,22,0)" xlink:href="#aC"/><use transform="matrix(0.05,0,0,0.05,25.950000000000003,0)" xlink:href="#aD"/><use transform="matrix(0.05,0,0,0.05,29.899999999999995,0)" xlink:href="#aR"/><use transform="matrix(0.05,0,0,0.05,38.9,0)" xlink:href="#aU"/></g><path d="M33 0v-248h34V0H33" id="bj"/><g id="u"><use transform="matrix(0.05,0,0,0.05,0,0)" xlink:href="#bj"/><use transform="matrix(0.05,0,0,0.05,5,0)" xlink:href="#aF"/><use transform="matrix(0.05,0,0,0.05,15,0)" xlink:href="#aV"/><use transform="matrix(0.05,0,0,0.05,20,0)" xlink:href="#aO"/></g><g id="v"><use transform="matrix(0.05,0,0,0.05,0,0)" xlink:href="#bj"/><use transform="matrix(0.05,0,0,0.05,5,0)" xlink:href="#aF"/><use transform="matrix(0.05,0,0,0.05,15,0)" xlink:href="#aG"/><use transform="matrix(0.05,0,0,0.05,20,0)" xlink:href="#aE"/><use transform="matrix(0.05,0,0,0.05,30,0)" xlink:href="#aH"/><use transform="matrix(0.05,0,0,0.05,35.95,0)" xlink:href="#aE"/><use transform="matrix(0.05,0,0,0.05,45.95,0)" xlink:href="#aM"/><use transform="matrix(0.05,0,0,0.05,54.95,0)" xlink:href="#aG"/></g><path d="M197 0v-115H63V0H30v-248h33v105h134v-105h34V0h-34" id="bk"/><g id="w"><use transform="matrix(0.05,0,0,0.05,0,0)" xlink:href="#bk"/><use transform="matrix(0.05,0,0,0.05,12.950000000000001,0)" xlink:href="#aO"/><use transform="matrix(0.05,0,0,0.05,22.950000000000003,0)" xlink:href="#aC"/><use transform="matrix(0.05,0,0,0.05,26.900000000000002,0)" xlink:href="#aX"/><use transform="matrix(0.05,0,0,0.05,36.900000000000006,0)" xlink:href="#aE"/><use transform="matrix(0.05,0,0,0.05,46.900000000000006,0)" xlink:href="#aH"/></g><path d="M115-194c55 1 70 41 70 98S169 2 115 4C84 4 66-9 55-30l1 105H24l-1-265h31l2 30c10-21 28-34 59-34zm-8 174c40 0 45-34 45-75s-6-73-45-74c-42 0-51 32-51 76 0 43 10 73 51 73" id="bl"/><g id="x"><use transform="matrix(0.05,0,0,0.05,0,0)" xlink:href="#aI"/><use transform="matrix(0.05,0,0,0.05,12.950000000000001,0)" xlink:href="#aE"/><use transform="matrix(0.05,0,0,0.05,22.950000000000003,0)" xlink:href="#bl"/><use transform="matrix(0.05,0,0,0.05,32.95,0)" xlink:href="#aO"/><use transform="matrix(0.05,0,0,0.05,42.95,0)" xlink:href="#aH"/><use transform="matrix(0.05,0,0,0.05,48.900000000000006,0)" xlink:href="#aG"/></g><path d="M160-131c35 5 61 23 61 61C221 17 115-2 30 0v-248c76 3 177-17 177 60 0 33-19 50-47 57zm-97-11c50-1 110 9 110-42 0-47-63-36-110-37v79zm0 115c55-2 124 14 124-45 0-56-70-42-124-44v89" id="bm"/><use transform="matrix(0.04938271604938272,0,0,0.04938271604938272,0,0)" xlink:href="#bm" id="y"/><g id="z"><use transform="matrix(0.05,0,0,0.05,0,0)" xlink:href="#bb"/><use transform="matrix(0.05,0,0,0.05,12,0)" xlink:href="#aG"/><use transform="matrix(0.05,0,0,0.05,17,0)" xlink:href="#aG"/><use transform="matrix(0.05,0,0,0.05,22,0)" xlink:href="#aK"/><use transform="matrix(0.05,0,0,0.05,32,0)" xlink:href="#aR"/><use transform="matrix(0.05,0,0,0.05,41,0)" xlink:href="#ba"/><use transform="matrix(0.05,0,0,0.05,51,0)" xlink:href="#aJ"/><use transform="matrix(0.05,0,0,0.05,65.95,0)" xlink:href="#aE"/><use transform="matrix(0.05,0,0,0.05,75.95,0)" xlink:href="#aF"/><use transform="matrix(0.05,0,0,0.05,85.95,0)" xlink:href="#aG"/><use transform="matrix(0.05,0,0,0.05,90.95,0)" xlink:href="#aM"/></g><g id="A"><use transform="matrix(0.05,0,0,0.05,0,0)" xlink:href="#bi"/><use transform="matrix(0.05,0,0,0.05,12,0)" xlink:href="#aQ"/><use transform="matrix(0.05,0,0,0.05,24.950000000000003,0)" xlink:href="#bh"/></g><path d="M137 0h-34L2-248h35l83 218 83-218h36" id="bn"/><g id="B"><use transform="matrix(0.05,0,0,0.05,0,0)" xlink:href="#bn"/><use transform="matrix(0.05,0,0,0.05,11.65,0)" xlink:href="#aD"/><use transform="matrix(0.05,0,0,0.05,15.600000000000001,0)" xlink:href="#aE"/><use transform="matrix(0.05,0,0,0.05,25.6,0)" xlink:href="#bf"/><use transform="matrix(0.05,0,0,0.05,38.550000000000004,0)" xlink:href="#aE"/><use transform="matrix(0.05,0,0,0.05,48.550000000000004,0)" xlink:href="#aH"/></g><use transform="matrix(0.04938271604938272,0,0,0.04938271604938272,0,0)" xlink:href="#aQ" id="C"/><use transform="matrix(0.04938271604938272,0,0,0.04938271604938272,0,0)" xlink:href="#aB" id="D"/><g id="E"><use transform="matrix(0.05,0,0,0.05,0,0)" xlink:href="#aQ"/><use transform="matrix(0.05,0,0,0.05,12.950000000000001,0)" xlink:href="#aO"/><use transform="matrix(0.05,0,0,0.05,22.950000000000003,0)" xlink:href="#aR"/><use transform="matrix(0.05,0,0,0.05,31.950000000000003,0)" xlink:href="#aN"/><use transform="matrix(0.05,0,0,0.05,41.95,0)" xlink:href="#aJ"/><use transform="matrix(0.05,0,0,0.05,56.900000000000006,0)" xlink:href="#aE"/><use transform="matrix(0.05,0,0,0.05,66.9,0)" xlink:href="#aF"/><use transform="matrix(0.05,0,0,0.05,76.9,0)" xlink:href="#aG"/></g><g id="F"><use transform="matrix(0.05,0,0,0.05,0,0)" xlink:href="#aS"/><use transform="matrix(0.05,0,0,0.05,10,0)" xlink:href="#aD"/><use transform="matrix(0.05,0,0,0.05,13.949999999999998,0)" xlink:href="#aT"/><use transform="matrix(0.05,0,0,0.05,23.95,0)" xlink:href="#aH"/><use transform="matrix(0.05,0,0,0.05,29.899999999999995,0)" xlink:href="#aK"/><use transform="matrix(0.05,0,0,0.05,39.9,0)" xlink:href="#aH"/><use transform="matrix(0.05,0,0,0.05,45.85,0)" xlink:href="#aU"/></g><path d="M232-93c-1 65-40 97-104 97C67 4 28-28 28-90v-158h33c8 89-33 224 67 224 102 0 64-133 71-224h33v155" id="bo"/><g id="G"><use transform="matrix(0.05,0,0,0.05,0,0)" xlink:href="#bo"/><use transform="matrix(0.05,0,0,0.05,12.950000000000001,0)" xlink:href="#bl"/><use transform="matrix(0.05,0,0,0.05,22.950000000000003,0)" xlink:href="#aC"/><use transform="matrix(0.05,0,0,0.05,26.900000000000002,0)" xlink:href="#aO"/><use transform="matrix(0.05,0,0,0.05,36.900000000000006,0)" xlink:href="#aK"/><use transform="matrix(0.05,0,0,0.05,46.900000000000006,0)" xlink:href="#aX"/></g><g id="H"><use transform="matrix(0.05,0,0,0.05,0,0)" xlink:href="#aV"/><use transform="matrix(0.05,0,0,0.05,5,0)" xlink:href="#aH"/><use transform="matrix(0.05,0,0,0.05,10.95,0)" xlink:href="#aO"/><use transform="matrix(0.05,0,0,0.05,20.95,0)" xlink:href="#aJ"/></g><g id="I"><use transform="matrix(0.05,0,0,0.05,0,0)" xlink:href="#aB"/><use transform="matrix(0.05,0,0,0.05,12.950000000000001,0)" xlink:href="#aO"/><use transform="matrix(0.05,0,0,0.05,22.950000000000003,0)" xlink:href="#aJ"/><use transform="matrix(0.05,0,0,0.05,37.900000000000006,0)" xlink:href="#bl"/><use transform="matrix(0.05,0,0,0.05,47.900000000000006,0)" xlink:href="#aN"/><use transform="matrix(0.05,0,0,0.05,57.900000000000006,0)" xlink:href="#aG"/><use transform="matrix(0.05,0,0,0.05,62.900000000000006,0)" xlink:href="#aE"/><use transform="matrix(0.05,0,0,0.05,72.9,0)" xlink:href="#aH"/></g><g id="J"><use transform="matrix(0.05,0,0,0.05,0,0)" xlink:href="#aZ"/><use transform="matrix(0.05,0,0,0.05,14.950000000000001,0)" xlink:href="#aK"/><use transform="matrix(0.05,0,0,0.05,24.950000000000003,0)" xlink:href="#aM"/><use transform="matrix(0.05,0,0,0.05,33.95,0)" xlink:href="#aG"/><use transform="matrix(0.05,0,0,0.05,38.95,0)" xlink:href="#aE"/><use transform="matrix(0.05,0,0,0.05,48.95,0)" xlink:href="#aH"/></g><g id="K"><use transform="matrix(0.05,0,0,0.05,0,0)" xlink:href="#aI"/><use transform="matrix(0.05,0,0,0.05,12.950000000000001,0)" xlink:href="#aE"/><use transform="matrix(0.05,0,0,0.05,22.950000000000003,0)" xlink:href="#aJ"/><use transform="matrix(0.05,0,0,0.05,37.900000000000006,0)" xlink:href="#aK"/><use transform="matrix(0.05,0,0,0.05,47.900000000000006,0)" xlink:href="#aH"/><use transform="matrix(0.05,0,0,0.05,53.85,0)" xlink:href="#aL"/><use transform="matrix(0.05,0,0,0.05,62.85,0)" xlink:href="#aM"/></g><g id="L"><use transform="matrix(0.05,0,0,0.05,0,0)" xlink:href="#bb"/><use transform="matrix(0.05,0,0,0.05,12,0)" xlink:href="#bc"/><use transform="matrix(0.05,0,0,0.05,22,0)" xlink:href="#aE"/><use transform="matrix(0.05,0,0,0.05,32,0)" xlink:href="#aF"/><use transform="matrix(0.05,0,0,0.05,42,0)" xlink:href="#aR"/><use transform="matrix(0.05,0,0,0.05,51,0)" xlink:href="#aU"/></g><g id="M"><use transform="matrix(0.05,0,0,0.05,0,0)" xlink:href="#aW"/><use transform="matrix(0.05,0,0,0.05,12,0)" xlink:href="#aF"/><use transform="matrix(0.05,0,0,0.05,22,0)" xlink:href="#aD"/><use transform="matrix(0.05,0,0,0.05,25.950000000000003,0)" xlink:href="#bl"/><use transform="matrix(0.05,0,0,0.05,35.95,0)" xlink:href="#bl"/><use transform="matrix(0.05,0,0,0.05,45.95,0)" xlink:href="#aE"/><use transform="matrix(0.05,0,0,0.05,55.95,0)" xlink:href="#aG"/><use transform="matrix(0.05,0,0,0.05,60.95,0)" xlink:href="#aM"/></g><g id="N"><use transform="matrix(0.05,0,0,0.05,0,0)" xlink:href="#bk"/><use transform="matrix(0.05,0,0,0.05,12.950000000000001,0)" xlink:href="#aO"/><use transform="matrix(0.05,0,0,0.05,22.950000000000003,0)" xlink:href="#aC"/><use transform="matrix(0.05,0,0,0.05,26.900000000000002,0)" xlink:href="#aX"/><use transform="matrix(0.05,0,0,0.05,36.900000000000006,0)" xlink:href="#aE"/><use transform="matrix(0.05,0,0,0.05,46.900000000000006,0)" xlink:href="#aH"/></g><g id="O"><use transform="matrix(0.05,0,0,0.05,0,0)" xlink:href="#bb"/><use transform="matrix(0.05,0,0,0.05,12,0)" xlink:href="#aX"/><use transform="matrix(0.05,0,0,0.05,22,0)" xlink:href="#aX"/><use transform="matrix(0.05,0,0,0.05,32,0)" xlink:href="#aD"/><use transform="matrix(0.05,0,0,0.05,35.95,0)" xlink:href="#aG"/><use transform="matrix(0.05,0,0,0.05,40.95,0)" xlink:href="#aD"/><use transform="matrix(0.05,0,0,0.05,44.900000000000006,0)" xlink:href="#aO"/><use transform="matrix(0.05,0,0,0.05,54.900000000000006,0)" xlink:href="#aF"/><use transform="matrix(0.05,0,0,0.05,64.9,0)" xlink:href="#aK"/><use transform="matrix(0.05,0,0,0.05,74.9,0)" xlink:href="#aC"/></g><g id="P"><use transform="matrix(0.05,0,0,0.05,0,0)" xlink:href="#bj"/><use transform="matrix(0.05,0,0,0.05,5,0)" xlink:href="#aJ"/><use transform="matrix(0.05,0,0,0.05,19.950000000000003,0)" xlink:href="#bl"/><use transform="matrix(0.05,0,0,0.05,29.950000000000003,0)" xlink:href="#aO"/><use transform="matrix(0.05,0,0,0.05,39.95,0)" xlink:href="#aH"/><use transform="matrix(0.05,0,0,0.05,45.900000000000006,0)" xlink:href="#aG"/></g><g id="Q"><use transform="matrix(0.05,0,0,0.05,0,0)" xlink:href="#bj"/><use transform="matrix(0.05,0,0,0.05,5,0)" xlink:href="#aF"/><use transform="matrix(0.05,0,0,0.05,15,0)" xlink:href="#aG"/><use transform="matrix(0.05,0,0,0.05,20,0)" xlink:href="#aE"/><use transform="matrix(0.05,0,0,0.05,30,0)" xlink:href="#aH"/><use transform="matrix(0.05,0,0,0.05,35.95,0)" xlink:href="#aE"/><use transform="matrix(0.05,0,0,0.05,45.95,0)" xlink:href="#aM"/><use transform="matrix(0.05,0,0,0.05,54.95,0)" xlink:href="#aG"/></g><g id="R"><use transform="matrix(0.05,0,0,0.05,0,0)" xlink:href="#bk"/><use transform="matrix(0.05,0,0,0.05,12.950000000000001,0)" xlink:href="#aO"/><use transform="matrix(0.05,0,0,0.05,22.950000000000003,0)" xlink:href="#aC"/><use transform="matrix(0.05,0,0,0.05,26.900000000000002,0)" xlink:href="#aX"/><use transform="matrix(0.05,0,0,0.05,36.900000000000006,0)" xlink:href="#aE"/><use transform="matrix(0.05,0,0,0.05,46.900000000000006,0)" xlink:href="#aH"/></g><g id="S"><use transform="matrix(0.05,0,0,0.05,0,0)" xlink:href="#aV"/><use transform="matrix(0.05,0,0,0.05,5,0)" xlink:href="#aH"/><use transform="matrix(0.05,0,0,0.05,10.95,0)" xlink:href="#aO"/><use transform="matrix(0.05,0,0,0.05,20.95,0)" xlink:href="#aJ"/></g><g id="T"><use transform="matrix(0.05,0,0,0.05,0,0)" xlink:href="#bg"/><use transform="matrix(0.05,0,0,0.05,14,0)" xlink:href="#aG"/><use transform="matrix(0.05,0,0,0.05,19,0)" xlink:href="#ba"/><use transform="matrix(0.05,0,0,0.05,29,0)" xlink:href="#aE"/><use transform="matrix(0.05,0,0,0.05,39,0)" xlink:href="#aH"/></g><g id="U"><use transform="matrix(0.05,0,0,0.05,0,0)" xlink:href="#aB"/><use transform="matrix(0.05,0,0,0.05,12.950000000000001,0)" xlink:href="#aE"/><use transform="matrix(0.05,0,0,0.05,22.950000000000003,0)" xlink:href="#aH"/><use transform="matrix(0.05,0,0,0.05,28.900000000000002,0)" xlink:href="#aG"/><use transform="matrix(0.05,0,0,0.05,33.900000000000006,0)" xlink:href="#aM"/></g><g id="V"><use transform="matrix(0.05,0,0,0.05,0,0)" xlink:href="#bb"/><use transform="matrix(0.05,0,0,0.05,12,0)" xlink:href="#aX"/><use transform="matrix(0.05,0,0,0.05,22,0)" xlink:href="#aX"/></g><g id="W"><use transform="matrix(0.05,0,0,0.05,0,0)" xlink:href="#bh"/><use transform="matrix(0.05,0,0,0.05,10.950000000000001,0)" xlink:href="#aH"/><use transform="matrix(0.05,0,0,0.05,16.900000000000002,0)" xlink:href="#aO"/><use transform="matrix(0.05,0,0,0.05,26.900000000000002,0)" xlink:href="#aJ"/></g><g id="X"><use transform="matrix(0.05,0,0,0.05,0,0)" xlink:href="#aW"/><use transform="matrix(0.05,0,0,0.05,12,0)" xlink:href="#aR"/><use transform="matrix(0.05,0,0,0.05,21,0)" xlink:href="#aH"/><use transform="matrix(0.05,0,0,0.05,26.950000000000003,0)" xlink:href="#aK"/><use transform="matrix(0.05,0,0,0.05,36.95,0)" xlink:href="#aG"/><use transform="matrix(0.05,0,0,0.05,41.95,0)" xlink:href="#aR"/><use transform="matrix(0.05,0,0,0.05,50.95,0)" xlink:href="#ba"/></g><path d="M141 0L90-78 38 0H4l68-98-65-92h35l48 74 47-74h35l-64 92 68 98h-35" id="bp"/><g id="Y"><use transform="matrix(0.05,0,0,0.05,0,0)" xlink:href="#bd"/><use transform="matrix(0.05,0,0,0.05,12,0)" xlink:href="#bp"/><use transform="matrix(0.05,0,0,0.05,21,0)" xlink:href="#aD"/><use transform="matrix(0.05,0,0,0.05,24.95,0)" xlink:href="#aM"/><use transform="matrix(0.05,0,0,0.05,33.95,0)" xlink:href="#aG"/><use transform="matrix(0.05,0,0,0.05,38.95,0)" xlink:href="#aD"/><use transform="matrix(0.05,0,0,0.05,42.900000000000006,0)" xlink:href="#aF"/><use transform="matrix(0.05,0,0,0.05,52.900000000000006,0)" xlink:href="#bc"/></g><g id="Z"><use transform="matrix(0.05,0,0,0.05,0,0)" xlink:href="#bj"/><use transform="matrix(0.05,0,0,0.05,5,0)" xlink:href="#aF"/><use transform="matrix(0.05,0,0,0.05,15,0)" xlink:href="#aG"/><use transform="matrix(0.05,0,0,0.05,20,0)" xlink:href="#aE"/><use transform="matrix(0.05,0,0,0.05,30,0)" xlink:href="#aH"/><use transform="matrix(0.05,0,0,0.05,35.95,0)" xlink:href="#aE"/><use transform="matrix(0.05,0,0,0.05,45.95,0)" xlink:href="#aM"/><use transform="matrix(0.05,0,0,0.05,54.95,0)" xlink:href="#aG"/></g><g id="aa"><use transform="matrix(0.05,0,0,0.05,0,0)" xlink:href="#aB"/><use transform="matrix(0.05,0,0,0.05,12.950000000000001,0)" xlink:href="#aH"/><use transform="matrix(0.05,0,0,0.05,18.900000000000002,0)" xlink:href="#aO"/><use transform="matrix(0.05,0,0,0.05,28.900000000000002,0)" xlink:href="#aM"/><use transform="matrix(0.05,0,0,0.05,37.900000000000006,0)" xlink:href="#aM"/></g><g id="ab"><use transform="matrix(0.05,0,0,0.05,0,0)" xlink:href="#aO"/><use transform="matrix(0.05,0,0,0.05,10,0)" xlink:href="#aN"/><use transform="matrix(0.05,0,0,0.05,20,0)" xlink:href="#aG"/></g><g id="ac"><use transform="matrix(0.05,0,0,0.05,0,0)" xlink:href="#aR"/><use transform="matrix(0.05,0,0,0.05,9,0)" xlink:href="#aE"/><use transform="matrix(0.05,0,0,0.05,19,0)" xlink:href="#aH"/><use transform="matrix(0.05,0,0,0.05,24.95,0)" xlink:href="#aG"/><use transform="matrix(0.05,0,0,0.05,29.950000000000003,0)" xlink:href="#aK"/><use transform="matrix(0.05,0,0,0.05,39.95,0)" xlink:href="#aD"/><use transform="matrix(0.05,0,0,0.05,43.900000000000006,0)" xlink:href="#aF"/></g><g id="ad"><use transform="matrix(0.05,0,0,0.05,0,0)" xlink:href="#aC"/><use transform="matrix(0.05,0,0,0.05,3.95,0)" xlink:href="#aD"/><use transform="matrix(0.05,0,0,0.05,7.9,0)" xlink:href="#aF"/><use transform="matrix(0.05,0,0,0.05,17.9,0)" xlink:href="#aE"/><use transform="matrix(0.05,0,0,0.05,27.899999999999995,0)" xlink:href="#aM"/></g><path d="M87 75C49 33 22-17 22-94c0-76 28-126 65-167h31c-38 41-64 92-64 168S80 34 118 75H87" id="bq"/><g id="ae"><use transform="matrix(0.05,0,0,0.05,0,0)" xlink:href="#bq"/><use transform="matrix(0.05,0,0,0.05,5.95,0)" xlink:href="#bo"/><use transform="matrix(0.05,0,0,0.05,18.900000000000002,0)" xlink:href="#aM"/><use transform="matrix(0.05,0,0,0.05,27.900000000000002,0)" xlink:href="#aE"/><use transform="matrix(0.05,0,0,0.05,37.900000000000006,0)" xlink:href="#aX"/></g><path d="M68-38c1 34 0 65-14 84H32c9-13 17-26 17-46H33v-38h35" id="br"/><g id="af"><use transform="matrix(0.05,0,0,0.05,0,0)" xlink:href="#aY"/><use transform="matrix(0.05,0,0,0.05,9,0)" xlink:href="#aE"/><use transform="matrix(0.05,0,0,0.05,19,0)" xlink:href="#aH"/><use transform="matrix(0.05,0,0,0.05,24.95,0)" xlink:href="#aU"/><use transform="matrix(0.05,0,0,0.05,32.599999999999994,0)" xlink:href="#br"/></g><g id="ag"><use transform="matrix(0.05,0,0,0.05,0,0)" xlink:href="#aY"/><use transform="matrix(0.05,0,0,0.05,9,0)" xlink:href="#aE"/><use transform="matrix(0.05,0,0,0.05,19,0)" xlink:href="#aH"/><use transform="matrix(0.05,0,0,0.05,24.95,0)" xlink:href="#aU"/></g><path d="M33-261c38 41 65 92 65 168S71 34 33 75H2C39 34 66-17 66-93S39-220 2-261h31" id="bs"/><g id="ah"><use transform="matrix(0.05,0,0,0.05,0,0)" xlink:href="#aH"/><use transform="matrix(0.05,0,0,0.05,5.95,0)" xlink:href="#aK"/><use transform="matrix(0.05,0,0,0.05,15.949999999999998,0)" xlink:href="#aH"/><use transform="matrix(0.05,0,0,0.05,21.9,0)" xlink:href="#aE"/><use transform="matrix(0.05,0,0,0.05,31.899999999999995,0)" xlink:href="#aC"/><use transform="matrix(0.05,0,0,0.05,35.85,0)" xlink:href="#aU"/><use transform="matrix(0.05,0,0,0.05,44.85,0)" xlink:href="#bs"/></g><path d="M266 0h-40l-56-210L115 0H75L2-248h35L96-30l15-64 43-154h32l59 218 59-218h35" id="bt"/><g id="ai"><use transform="matrix(0.05,0,0,0.05,0,0)" xlink:href="#bt"/><use transform="matrix(0.05,0,0,0.05,16.3,0)" xlink:href="#aK"/><use transform="matrix(0.05,0,0,0.05,26.3,0)" xlink:href="#aD"/><use transform="matrix(0.05,0,0,0.05,30.25,0)" xlink:href="#aY"/><use transform="matrix(0.05,0,0,0.05,39.25,0)" xlink:href="#aE"/><use transform="matrix(0.05,0,0,0.05,49.25,0)" xlink:href="#aH"/></g><g id="aj"><use transform="matrix(0.05,0,0,0.05,0,0)" xlink:href="#aO"/><use transform="matrix(0.05,0,0,0.05,10,0)" xlink:href="#aV"/></g><g id="ak"><use transform="matrix(0.05,0,0,0.05,0,0)" xlink:href="#aM"/><use transform="matrix(0.05,0,0,0.05,9,0)" xlink:href="#aN"/><use transform="matrix(0.05,0,0,0.05,19,0)" xlink:href="#aT"/><use transform="matrix(0.05,0,0,0.05,29,0)" xlink:href="#aH"/><use transform="matrix(0.05,0,0,0.05,34.95,0)" xlink:href="#aO"/><use transform="matrix(0.05,0,0,0.05,44.95,0)" xlink:href="#bc"/><use transform="matrix(0.05,0,0,0.05,54.95,0)" xlink:href="#aK"/><use transform="matrix(0.05,0,0,0.05,64.95,0)" xlink:href="#aG"/><use transform="matrix(0.05,0,0,0.05,69.95,0)" xlink:href="#aD"/><use transform="matrix(0.05,0,0,0.05,73.9,0)" xlink:href="#aO"/><use transform="matrix(0.05,0,0,0.05,83.9,0)" xlink:href="#aF"/></g><g id="al"><use transform="matrix(0.05,0,0,0.05,0,0)" xlink:href="#aW"/><use transform="matrix(0.05,0,0,0.05,12,0)" xlink:href="#aE"/><use transform="matrix(0.05,0,0,0.05,22,0)" xlink:href="#aC"/><use transform="matrix(0.05,0,0,0.05,25.950000000000003,0)" xlink:href="#aE"/><use transform="matrix(0.05,0,0,0.05,35.95,0)" xlink:href="#aR"/><use transform="matrix(0.05,0,0,0.05,44.95,0)" xlink:href="#aG"/></g><g id="am"><use transform="matrix(0.05,0,0,0.05,0,0)" xlink:href="#aW"/><use transform="matrix(0.05,0,0,0.05,12,0)" xlink:href="#aD"/><use transform="matrix(0.05,0,0,0.05,15.949999999999998,0)" xlink:href="#bc"/><use transform="matrix(0.05,0,0,0.05,25.950000000000003,0)" xlink:href="#aF"/><use transform="matrix(0.05,0,0,0.05,35.95,0)" xlink:href="#aK"/><use transform="matrix(0.05,0,0,0.05,45.95,0)" xlink:href="#aG"/><use transform="matrix(0.05,0,0,0.05,50.95,0)" xlink:href="#aN"/><use transform="matrix(0.05,0,0,0.05,60.95,0)" xlink:href="#aH"/><use transform="matrix(0.05,0,0,0.05,66.9,0)" xlink:href="#aE"/></g><g id="an"><use transform="matrix(0.05,0,0,0.05,0,0)" xlink:href="#aX"/><use transform="matrix(0.05,0,0,0.05,10,0)" xlink:href="#aH"/><use transform="matrix(0.05,0,0,0.05,15.949999999999998,0)" xlink:href="#aO"/><use transform="matrix(0.05,0,0,0.05,25.950000000000003,0)" xlink:href="#bl"/><use transform="matrix(0.05,0,0,0.05,35.95,0)" xlink:href="#aX"/><use transform="matrix(0.05,0,0,0.05,45.95,0)" xlink:href="#aO"/><use transform="matrix(0.05,0,0,0.05,55.95,0)" xlink:href="#bf"/><use transform="matrix(0.05,0,0,0.05,68.9,0)" xlink:href="#aF"/></g><g id="ao"><use transform="matrix(0.05,0,0,0.05,0,0)" xlink:href="#aB"/><use transform="matrix(0.05,0,0,0.05,12.950000000000001,0)" xlink:href="#aN"/><use transform="matrix(0.05,0,0,0.05,22.950000000000003,0)" xlink:href="#aM"/><use transform="matrix(0.05,0,0,0.05,31.950000000000003,0)" xlink:href="#aG"/><use transform="matrix(0.05,0,0,0.05,36.95,0)" xlink:href="#aO"/><use transform="matrix(0.05,0,0,0.05,46.95,0)" xlink:href="#aJ"/></g><g id="ap"><use transform="matrix(0.05,0,0,0.05,0,0)" xlink:href="#bq"/><use transform="matrix(0.05,0,0,0.05,5.95,0)" xlink:href="#be"/><use transform="matrix(0.05,0,0,0.05,18.900000000000002,0)" xlink:href="#aK"/><use transform="matrix(0.05,0,0,0.05,28.900000000000002,0)" xlink:href="#aJ"/><use transform="matrix(0.05,0,0,0.05,43.85,0)" xlink:href="#aE"/><use transform="matrix(0.05,0,0,0.05,53.85,0)" xlink:href="#bs"/></g><g id="aq"><use transform="matrix(0.05,0,0,0.05,0,0)" xlink:href="#aW"/><use transform="matrix(0.05,0,0,0.05,12,0)" xlink:href="#aE"/><use transform="matrix(0.05,0,0,0.05,22,0)" xlink:href="#aK"/><use transform="matrix(0.05,0,0,0.05,32,0)" xlink:href="#aH"/><use transform="matrix(0.05,0,0,0.05,37.95,0)" xlink:href="#aR"/><use transform="matrix(0.05,0,0,0.05,46.95,0)" xlink:href="#ba"/></g><g id="ar"><use transform="matrix(0.05,0,0,0.05,0,0)" xlink:href="#aB"/><use transform="matrix(0.05,0,0,0.05,12.950000000000001,0)" xlink:href="#aE"/><use transform="matrix(0.05,0,0,0.05,22.950000000000003,0)" xlink:href="#aH"/><use transform="matrix(0.05,0,0,0.05,28.900000000000002,0)" xlink:href="#aG"/><use transform="matrix(0.05,0,0,0.05,33.900000000000006,0)" xlink:href="#aD"/><use transform="matrix(0.05,0,0,0.05,37.85000000000001,0)" xlink:href="#aV"/><use transform="matrix(0.05,0,0,0.05,42.85000000000001,0)" xlink:href="#aD"/><use transform="matrix(0.05,0,0,0.05,46.80000000000001,0)" xlink:href="#aR"/><use transform="matrix(0.05,0,0,0.05,55.80000000000001,0)" xlink:href="#aK"/><use transform="matrix(0.05,0,0,0.05,65.80000000000001,0)" xlink:href="#aG"/><use transform="matrix(0.05,0,0,0.05,70.80000000000001,0)" xlink:href="#aE"/><use transform="matrix(0.05,0,0,0.05,80.80000000000001,0)" xlink:href="#aM"/></g><g id="as"><use transform="matrix(0.05,0,0,0.05,0,0)" xlink:href="#aS"/><use transform="matrix(0.05,0,0,0.05,10,0)" xlink:href="#aD"/><use transform="matrix(0.05,0,0,0.05,13.949999999999998,0)" xlink:href="#aM"/><use transform="matrix(0.05,0,0,0.05,22.95,0)" xlink:href="#aG"/></g><g id="at"><use transform="matrix(0.05,0,0,0.05,0,0)" xlink:href="#aB"/><use transform="matrix(0.05,0,0,0.05,12.950000000000001,0)" xlink:href="#aE"/><use transform="matrix(0.05,0,0,0.05,22.950000000000003,0)" xlink:href="#aH"/><use transform="matrix(0.05,0,0,0.05,28.900000000000002,0)" xlink:href="#aG"/><use transform="matrix(0.05,0,0,0.05,33.900000000000006,0)" xlink:href="#aD"/><use transform="matrix(0.05,0,0,0.05,37.85000000000001,0)" xlink:href="#aV"/><use transform="matrix(0.05,0,0,0.05,42.85000000000001,0)" xlink:href="#aD"/><use transform="matrix(0.05,0,0,0.05,46.80000000000001,0)" xlink:href="#aR"/><use transform="matrix(0.05,0,0,0.05,55.80000000000001,0)" xlink:href="#aK"/><use transform="matrix(0.05,0,0,0.05,65.80000000000001,0)" xlink:href="#aG"/><use transform="matrix(0.05,0,0,0.05,70.80000000000001,0)" xlink:href="#aE"/><use transform="matrix(0.05,0,0,0.05,80.80000000000001,0)" xlink:href="#aM"/></g><g id="au"><use transform="matrix(0.05,0,0,0.05,0,0)" xlink:href="#bj"/><use transform="matrix(0.05,0,0,0.05,5,0)" xlink:href="#aF"/><use transform="matrix(0.05,0,0,0.05,15,0)" xlink:href="#aX"/><use transform="matrix(0.05,0,0,0.05,25,0)" xlink:href="#aD"/><use transform="matrix(0.05,0,0,0.05,28.950000000000003,0)" xlink:href="#aY"/><use transform="matrix(0.05,0,0,0.05,37.95,0)" xlink:href="#aD"/><use transform="matrix(0.05,0,0,0.05,41.900000000000006,0)" xlink:href="#aX"/><use transform="matrix(0.05,0,0,0.05,51.900000000000006,0)" xlink:href="#aN"/><use transform="matrix(0.05,0,0,0.05,61.900000000000006,0)" xlink:href="#aK"/><use transform="matrix(0.05,0,0,0.05,71.9,0)" xlink:href="#aC"/><use transform="matrix(0.05,0,0,0.05,75.85000000000001,0)" xlink:href="#aC"/><use transform="matrix(0.05,0,0,0.05,79.80000000000001,0)" xlink:href="#aU"/></g><g id="av"><use transform="matrix(0.05,0,0,0.05,0,0)" xlink:href="#bd"/><use transform="matrix(0.05,0,0,0.05,12,0)" xlink:href="#aX"/><use transform="matrix(0.05,0,0,0.05,22,0)" xlink:href="#aD"/><use transform="matrix(0.05,0,0,0.05,25.950000000000003,0)" xlink:href="#aG"/></g><g id="aw"><use transform="matrix(0.05,0,0,0.05,0,0)" xlink:href="#bk"/><use transform="matrix(0.05,0,0,0.05,12.950000000000001,0)" xlink:href="#aO"/><use transform="matrix(0.05,0,0,0.05,22.950000000000003,0)" xlink:href="#aC"/><use transform="matrix(0.05,0,0,0.05,26.900000000000002,0)" xlink:href="#aX"/><use transform="matrix(0.05,0,0,0.05,36.900000000000006,0)" xlink:href="#aE"/><use transform="matrix(0.05,0,0,0.05,46.900000000000006,0)" xlink:href="#aH"/><use transform="matrix(0.05,0,0,0.05,52.85,0)" xlink:href="#aM"/></g><g id="ax"><use transform="matrix(0.05,0,0,0.05,0,0)" xlink:href="#aB"/><use transform="matrix(0.05,0,0,0.05,12.950000000000001,0)" xlink:href="#aE"/><use transform="matrix(0.05,0,0,0.05,22.950000000000003,0)" xlink:href="#aH"/><use transform="matrix(0.05,0,0,0.05,28.900000000000002,0)" xlink:href="#aG"/><use transform="matrix(0.05,0,0,0.05,33.900000000000006,0)" xlink:href="#aD"/><use transform="matrix(0.05,0,0,0.05,37.85000000000001,0)" xlink:href="#aV"/><use transform="matrix(0.05,0,0,0.05,42.85000000000001,0)" xlink:href="#aD"/><use transform="matrix(0.05,0,0,0.05,46.80000000000001,0)" xlink:href="#aR"/><use transform="matrix(0.05,0,0,0.05,55.80000000000001,0)" xlink:href="#aK"/><use transform="matrix(0.05,0,0,0.05,65.80000000000001,0)" xlink:href="#aG"/><use transform="matrix(0.05,0,0,0.05,70.80000000000001,0)" xlink:href="#aE"/></g><g id="ay"><use transform="matrix(0.05,0,0,0.05,0,0)" xlink:href="#aZ"/><use transform="matrix(0.05,0,0,0.05,14.950000000000001,0)" xlink:href="#aK"/><use transform="matrix(0.05,0,0,0.05,24.950000000000003,0)" xlink:href="#aM"/><use transform="matrix(0.05,0,0,0.05,33.95,0)" xlink:href="#aG"/><use transform="matrix(0.05,0,0,0.05,38.95,0)" xlink:href="#aE"/><use transform="matrix(0.05,0,0,0.05,48.95,0)" xlink:href="#aH"/></g><path d="M143 4C61 4 22-44 18-125c-5-107 100-154 193-111 17 8 29 25 37 43l-32 9c-13-25-37-40-76-40-61 0-88 39-88 99 0 61 29 100 91 101 35 0 62-11 79-27v-45h-74v-28h105v86C228-13 192 4 143 4" id="bu"/><g id="az"><use transform="matrix(0.04938271604938272,0,0,0.04938271604938272,0,0)" xlink:href="#bu"/><use transform="matrix(0.04938271604938272,0,0,0.04938271604938272,13.827160493827162,0)" xlink:href="#aE"/><use transform="matrix(0.04938271604938272,0,0,0.04938271604938272,23.703703703703706,0)" xlink:href="#aF"/><use transform="matrix(0.04938271604938272,0,0,0.04938271604938272,33.580246913580254,0)" xlink:href="#aE"/><use transform="matrix(0.04938271604938272,0,0,0.04938271604938272,43.4567901234568,0)" xlink:href="#aH"/><use transform="matrix(0.04938271604938272,0,0,0.04938271604938272,49.33333333333334,0)" xlink:href="#aK"/><use transform="matrix(0.04938271604938272,0,0,0.04938271604938272,59.209876543209894,0)" xlink:href="#aG"/><use transform="matrix(0.04938271604938272,0,0,0.04938271604938272,64.14814814814815,0)" xlink:href="#aE"/></g><g id="aA"><use transform="matrix(0.04938271604938272,0,0,0.04938271604938272,0,0)" xlink:href="#aB"/><use transform="matrix(0.04938271604938272,0,0,0.04938271604938272,12.790123456790125,0)" xlink:href="#aE"/><use transform="matrix(0.04938271604938272,0,0,0.04938271604938272,22.66666666666667,0)" xlink:href="#aH"/><use transform="matrix(0.04938271604938272,0,0,0.04938271604938272,28.54320987654322,0)" xlink:href="#aG"/></g></defs></g></svg>