<?xml version="1.0" encoding="UTF-8" standalone="no"?>
<!DOCTYPE svg PUBLIC "-//W3C//DTD SVG 1.1//EN" "http://www.w3.org/Graphics/SVG/1.1/DTD/svg11.dtd">
<svg width="100%" height="100%" viewBox="0 0 2550 3300" version="1.1" xmlns="http://www.w3.org/2000/svg" xmlns:xlink="http://www.w3.org/1999/xlink" xml:space="preserve" xmlns:serif="http://www.serif.com/" style="fill-rule:evenodd;clip-rule:evenodd;stroke-linejoin:round;stroke-miterlimit:2;">
    <g transform="matrix(4.16667,0,0,4.16667,0,0)">
        <clipPath id="_clip1">
            <rect x="48" y="48" width="516" height="695.96" clip-rule="nonzero"/>
        </clipPath>
        <g clip-path="url(#_clip1)">
            <g transform="matrix(1,0,0,1,0,573.3)">
                <rect x="47.96" y="-525.3" width="527.29" height="1269.3" style="fill:white;"/>
            </g>
            <g transform="matrix(0,-1,-1,0,751.915,180.715)">
                <ellipse cx="70.315" cy="681.6" rx="1.54" ry="1.535"/>
            </g>
            <g transform="matrix(0,-1,-1,0,742.315,190.315)">
                <ellipse cx="70.315" cy="672" rx="1.54" ry="1.535"/>
            </g>
            <g transform="matrix(0,-1,-1,0,677.215,255.415)">
                <ellipse cx="70.315" cy="606.9" rx="1.54" ry="1.535"/>
            </g>
            <g transform="matrix(0,-1,-1,0,667.615,265.015)">
                <ellipse cx="70.315" cy="597.3" rx="1.54" ry="1.535"/>
            </g>
            <g transform="matrix(0,-1,-1,0,638.815,293.815)">
                <ellipse cx="70.315" cy="568.5" rx="1.54" ry="1.535"/>
            </g>
            <g transform="matrix(0,-1,-1,0,564.115,368.515)">
                <ellipse cx="70.315" cy="493.8" rx="1.54" ry="1.535"/>
            </g>
            <g transform="matrix(0,-1,-1,0,611.515,435.115)">
                <ellipse cx="127.315" cy="484.2" rx="1.54" ry="1.535"/>
            </g>
            <g transform="matrix(0,-1,-1,0,631.915,474.715)">
                <ellipse cx="157.315" cy="474.6" rx="1.54" ry="1.535"/>
            </g>
            <g transform="matrix(0,-1,-1,0,583.915,522.715)">
                <ellipse cx="157.315" cy="426.6" rx="1.54" ry="1.535"/>
            </g>
            <g transform="matrix(0,-1,-1,0,555.115,551.515)">
                <ellipse cx="157.315" cy="397.8" rx="1.54" ry="1.535"/>
            </g>
            <g transform="matrix(0,-1,-1,0,467.515,579.115)">
                <ellipse cx="127.315" cy="340.2" rx="1.54" ry="1.535"/>
            </g>
            <g transform="matrix(0,-1,-1,0,400.915,531.715)">
                <ellipse cx="70.315" cy="330.6" rx="1.54" ry="1.535"/>
            </g>
            <g transform="matrix(0,-1,-1,0,411.715,580.915)">
                <ellipse cx="100.315" cy="311.4" rx="1.54" ry="1.535"/>
            </g>
            <g transform="matrix(0,-1,-1,0,392.515,600.115)">
                <ellipse cx="100.315" cy="292.2" rx="1.54" ry="1.535"/>
            </g>
            <g transform="matrix(0,-1,-1,0,333.715,598.915)">
                <ellipse cx="70.315" cy="263.4" rx="1.54" ry="1.535"/>
            </g>
            <g transform="matrix(0,-1,-1,0,354.115,638.515)">
                <ellipse cx="100.315" cy="253.8" rx="1.54" ry="1.535"/>
            </g>
            <g transform="matrix(0,-1,-1,0,334.915,657.715)">
                <ellipse cx="100.315" cy="234.6" rx="1.54" ry="1.535"/>
            </g>
            <g transform="matrix(0,-1,-1,0,276.115,656.515)">
                <ellipse cx="70.315" cy="205.8" rx="1.54" ry="1.535"/>
            </g>
            <g transform="matrix(0,-1,-1,0,266.515,666.115)">
                <ellipse cx="70.315" cy="196.2" rx="1.54" ry="1.535"/>
            </g>
            <g transform="matrix(0,-1,-1,0,256.915,675.715)">
                <ellipse cx="70.315" cy="186.6" rx="1.54" ry="1.535"/>
            </g>
            <g transform="matrix(0,-1,-1,0,182.215,750.415)">
                <ellipse cx="70.315" cy="111.9" rx="1.54" ry="1.535"/>
            </g>
            <g transform="matrix(0,-1,-1,0,163.015,769.615)">
                <ellipse cx="70.315" cy="92.7" rx="1.54" ry="1.535"/>
            </g>
            <g transform="matrix(0,-1,-1,0,153.415,779.215)">
                <ellipse cx="70.315" cy="83.1" rx="1.54" ry="1.535"/>
            </g>
            <g transform="matrix(0,-1,-1,0,134.215,798.415)">
                <ellipse cx="70.315" cy="63.9" rx="1.54" ry="1.535"/>
            </g>
            <g transform="matrix(0,-1,-1,0,902.89,388.69)">
                <circle cx="249.79" cy="653.1" r="1.54"/>
            </g>
            <g transform="matrix(0,-1,-1,0,893.29,398.29)">
                <circle cx="249.79" cy="643.5" r="1.54"/>
            </g>
            <g transform="matrix(0,-1,-1,0,823.09,468.49)">
                <circle cx="249.79" cy="573.3" r="1.54"/>
            </g>
            <g transform="matrix(0,-1,-1,0,775.09,516.49)">
                <circle cx="249.79" cy="525.3" r="1.54"/>
            </g>
            <g transform="matrix(0,-1,-1,0,704.89,586.69)">
                <circle cx="249.79" cy="455.1" r="1.54"/>
            </g>
            <g transform="matrix(0,-1,-1,0,601.69,689.89)">
                <circle cx="249.79" cy="351.9" r="1.54"/>
            </g>
            <g transform="matrix(0,-1,-1,0,572.89,718.69)">
                <circle cx="249.79" cy="323.1" r="1.54"/>
            </g>
            <g transform="matrix(0,-1,-1,0,553.69,737.89)">
                <circle cx="249.79" cy="303.9" r="1.54"/>
            </g>
            <g transform="matrix(0,-1,-1,0,564.49,787.09)">
                <circle cx="279.79" cy="284.7" r="1.54"/>
            </g>
            <g transform="matrix(0,-1,-1,0,545.29,806.29)">
                <circle cx="279.79" cy="265.5" r="1.54"/>
            </g>
            <g transform="matrix(0,-1,-1,0,505.69,785.89)">
                <circle cx="249.79" cy="255.9" r="1.54"/>
            </g>
            <g transform="matrix(0,-1,-1,0,467.29,824.29)">
                <circle cx="249.79" cy="217.5" r="1.54"/>
            </g>
            <g transform="matrix(0,-1,-1,0,358.69,932.89)">
                <circle cx="249.79" cy="108.9" r="1.54"/>
            </g>
            <g transform="matrix(0,-1,-1,0,349.09,942.49)">
                <circle cx="249.79" cy="99.3" r="1.54"/>
            </g>
            <g transform="matrix(0,-1,-1,0,339.49,952.09)">
                <circle cx="249.79" cy="89.7" r="1.54"/>
            </g>
            <g transform="matrix(0,-1,-1,0,320.29,971.29)">
                <circle cx="249.79" cy="70.5" r="1.54"/>
            </g>
            <g transform="matrix(0,-1,-1,0,340.69,1010.89)">
                <circle cx="279.79" cy="60.9" r="1.54"/>
            </g>
            <g transform="matrix(0.24,0,0,0.24,37.62,41.1987)">
                <text x="49.5px" y="108.005px" style="font-family:'Helvetica';font-size:75px;fill:rgb(51,51,51);">Steven, A<tspan x="374.696px " y="108.005px ">g</tspan>ent</text>
                <text x="49.5px" y="210.672px" style="font-family:'Helvetica-Bold', 'Helvetica';font-weight:700;font-size:62.5px;fill:rgb(51,51,51);">Other Job Ti<tspan x="417.638px " y="210.672px ">t</tspan>les</text>
                <text x="168.25px" y="303.797px" style="font-family:'Helvetica';font-size:33.292px;">Independent agent</text>
                <text x="168.25px" y="343.797px" style="font-family:'Helvetica';font-size:33.292px;">Captive agent</text>
                <text x="49.5px" y="521.922px" style="font-family:'Helvetica-Bold', 'Helvetica';font-weight:700;font-size:62.5px;fill:rgb(51,51,51);">Demographic</text>
                <text x="168.25px" y="615.047px" style="font-family:'Helvetica';font-size:33.292px;">Male, younger,<tspan x="388.442px " y="615.047px "> </tspan>30s</text>
                <text x="168.25px" y="655.047px" style="font-family:'Helvetica';font-size:33.292px;">Has been doing it for a decade,</text>
                <text x="168.25px" y="695.047px" style="font-family:'Helvetica';font-size:33.292px;">always with some computer +</text>
                <text x="168.25px" y="735.047px" style="font-family:'Helvetica';font-size:33.292px;">software</text>
                <text x="168.25px" y="775.047px" style="font-family:'Helvetica';font-size:33.292px;">Detailed oriented (because lawsuit<tspan x="677.065px " y="775.047px ">s</tspan></text>
                <text x="168.25px" y="815.047px" style="font-family:'Helvetica';font-size:33.292px;">can sink an agency due to E&amp;O)</text>
                <text x="49.5px" y="993.172px" style="font-family:'Helvetica-Bold', 'Helvetica';font-weight:700;font-size:62.5px;fill:rgb(51,51,51);">About the A<tspan x="403.636px " y="993.172px ">g</tspan>ency</text>
                <text x="168.25px" y="1086.3px" style="font-family:'Helvetica';font-size:33.292px;">Small agency = 8 people</text>
                <text x="405.75px" y="1126.3px" style="font-family:'Helvetica';font-size:33.292px;">3 independent</text>
                <text x="530.75px" y="1166.3px" style="font-family:'Helvetica';font-size:33.292px;">1 split</text>
                <text x="530.75px" y="1206.3px" style="font-family:'Helvetica';font-size:33.292px;">between</text>
                <text x="530.75px" y="1246.3px" style="font-family:'Helvetica';font-size:33.292px;">commercia</text>
                <text x="530.75px" y="1286.3px" style="font-family:'Helvetica';font-size:33.292px;">l and</text>
                <text x="530.75px" y="1326.3px" style="font-family:'Helvetica';font-size:33.292px;">personal</text>
                <text x="530.75px" y="1366.3px" style="font-family:'Helvetica';font-size:33.292px;">1 heavily</text>
                <text x="530.75px" y="1406.3px" style="font-family:'Helvetica';font-size:33.292px;">commercia</text>
                <text x="530.75px" y="1446.3px" style="font-family:'Helvetica';font-size:33.292px;">l</text>
                <text x="530.75px" y="1486.3px" style="font-family:'Helvetica';font-size:33.292px;">1 part-time</text>
                <text x="530.75px" y="1526.3px" style="font-family:'Helvetica';font-size:33.292px;">shared</text>
                <text x="530.75px" y="1566.3px" style="font-family:'Helvetica';font-size:33.292px;">from</text>
                <text x="530.75px" y="1606.3px" style="font-family:'Helvetica';font-size:33.292px;">captive</text>
                <text x="530.75px" y="1646.3px" style="font-family:'Helvetica';font-size:33.292px;">part of</text>
                <text x="530.75px" y="1686.3px" style="font-family:'Helvetica';font-size:33.292px;">agency</text>
                <text x="405.75px" y="1726.3px" style="font-family:'Helvetica';font-size:33.292px;">4-5 captive</text>
                <text x="168.25px" y="1766.3px" style="font-family:'Helvetica';font-size:33.292px;">Small town near T<tspan x="436.514px 453.158px " y="1766.3px 1766.3px ">yl</tspan>er,<tspan x="499.396px " y="1766.3px "> </tspan>so most</text>
                <text x="168.25px" y="1806.3px" style="font-family:'Helvetica';font-size:33.292px;">customers went to him.</text>
                <text x="293.25px" y="1846.3px" style="font-family:'Helvetica';font-size:33.292px;">Almost no competition</text>
                <text x="293.25px" y="1886.3px" style="font-family:'Helvetica';font-size:33.292px;">because it&apos;<tspan x="452.38px " y="1886.3px ">s</tspan> a small town</text>
                <text x="293.25px" y="1926.3px" style="font-family:'Helvetica';font-size:33.292px;">Ve<tspan x="333.964px " y="1926.3px ">r</tspan>sus Denton which has</text>
                <text x="293.25px" y="1966.3px" style="font-family:'Helvetica';font-size:33.292px;">a much larger population =</text>
                <text x="293.25px" y="2006.3px" style="font-family:'Helvetica';font-size:33.292px;">more competition</text>
                <text x="168.25px" y="2046.3px" style="font-family:'Helvetica';font-size:33.292px;">Established agency</text>
                <text x="293.25px" y="2086.3px" style="font-family:'Helvetica';font-size:33.292px;">&quot;income was always going</text>
                <text x="293.25px" y="2126.3px" style="font-family:'Helvetica';font-size:33.292px;">to be there&quot;</text>
                <text x="293.25px" y="2166.3px" style="font-family:'Helvetica';font-size:33.292px;">Don&apos;<tspan x="361.698px " y="2166.3px ">t</tspan> have to worry about</text>
                <text x="293.25px" y="2206.3px" style="font-family:'Helvetica';font-size:33.292px;">laying off<tspan x="426.48px " y="2206.3px "> </tspan>workers because</text>
                <text x="293.25px" y="2246.3px" style="font-family:'Helvetica';font-size:33.292px;">of a bad month.</text>
                <text x="168.25px" y="2286.3px" style="font-family:'Helvetica';font-size:33.292px;">Producers are licensed.</text>
                <text x="168.25px" y="2326.3px" style="font-family:'Helvetica';font-size:33.292px;">CSRs are usually not licensed</text>
                <g transform="matrix(33.2917,0,0,33.2917,286.657,2366.3)">
                </g>
                <g transform="matrix(33.2917,0,0,33.2917,295.905,2366.3)">
                </g>
                <text x="168.25px" y="2366.3px" style="font-family:'Helvetica';font-size:33.292px;">Hard to ﬁnd &quot;actual licensed</text>
                <text x="168.25px" y="2406.3px" style="font-family:'Helvetica';font-size:33.292px;">people.&quot;</text>
                <text x="49.5px" y="2584.42px" style="font-family:'Helvetica-Bold', 'Helvetica';font-weight:700;font-size:62.5px;fill:rgb(51,51,51);">Activities</text>
                <text x="168.25px" y="2677.55px" style="font-family:'Helvetica';font-size:33.292px;">Wo<tspan x="218.182px " y="2677.55px ">r</tspan>ked on both commercial and</text>
                <text x="168.25px" y="2717.55px" style="font-family:'Helvetica';font-size:33.292px;">personal</text>
                <text x="168.25px" y="2757.55px" style="font-family:'Helvetica';font-size:33.292px;">Wo<tspan x="218.19px " y="2757.55px ">r</tspan>k sales</text>
                <text x="168.25px" y="2797.55px" style="font-family:'Helvetica';font-size:33.292px;">Sometimes had to do sales after</text>
                <g transform="matrix(33.2917,0,0,33.2917,196.011,2837.55)">
                </g>
                <g transform="matrix(33.2917,0,0,33.2917,205.26,2837.55)">
                </g>
                <text x="168.25px" y="2837.55px" style="font-family:'Helvetica';font-size:33.292px;">ofﬁce hours.</text>
                <text x="168.25px" y="2877.55px" style="font-family:'Helvetica';font-size:33.292px;">Responsibilities to existing</text>
                <g transform="matrix(33.2917,0,0,33.2917,321.791,2917.55)">
                </g>
                <text x="168.25px" y="2917.55px" style="font-family:'Helvetica';font-size:33.292px;">customers</text>
            </g>
            <g transform="matrix(0.24,0,0,0.24,174.025,61.5327)">
                <text x="228.98px" y="125.947px" style="font-family:'Helvetica-Bold', 'Helvetica';font-weight:700;font-size:62.5px;fill:rgb(51,51,51);">Goals</text>
                <text x="228.98px" y="249.53px" style="font-family:'Helvetica-Bold', 'Helvetica';font-weight:700;font-size:50px;fill:rgb(51,51,51);">Sales</text>
                <text x="347.73px" y="337.822px" style="font-family:'Helvetica';font-size:33.292px;">Sales -- bring in more business.</text>
                <text x="347.73px" y="377.822px" style="font-family:'Helvetica';font-size:33.292px;">Because get commissions from</text>
                <text x="347.73px" y="417.822px" style="font-family:'Helvetica';font-size:33.292px;">sales.</text>
                <text x="228.98px" y="582.03px" style="font-family:'Helvetica-Bold', 'Helvetica';font-weight:700;font-size:50px;fill:rgb(51,51,51);">Existing Customers</text>
                <text x="347.73px" y="670.322px" style="font-family:'Helvetica';font-size:33.292px;">Renewals are more valuable than</text>
                <text x="347.73px" y="710.322px" style="font-family:'Helvetica';font-size:33.292px;">new business because already</text>
                <text x="347.73px" y="750.322px" style="font-family:'Helvetica';font-size:33.292px;">have that relationship. Don&apos;<tspan x="751.133px " y="750.322px ">t</tspan> have</text>
                <text x="347.73px" y="790.322px" style="font-family:'Helvetica';font-size:33.292px;">to go through the sales funnel to</text>
                <text x="347.73px" y="830.322px" style="font-family:'Helvetica';font-size:33.292px;">get new customers.</text>
                <text x="347.73px" y="870.322px" style="font-family:'Helvetica';font-size:33.292px;">Biggest problem is losing that trust</text>
                <text x="347.73px" y="910.322px" style="font-family:'Helvetica';font-size:33.292px;">with existing customers.</text>
                <text x="228.98px" y="1074.57px" style="font-family:'Helvetica-Bold', 'Helvetica';font-weight:700;font-size:50px;fill:rgb(51,51,51);">Big <tspan x="321.599px 357.708px " y="1074.57px 1074.57px ">Ac</tspan>counts</text>
                <text x="347.73px" y="1162.82px" style="font-family:'Helvetica';font-size:33.292px;">Don&apos;<tspan x="416.178px " y="1162.82px ">t</tspan> want to lose trust on a big</text>
                <text x="347.73px" y="1202.82px" style="font-family:'Helvetica';font-size:33.292px;">account.</text>
                <text x="228.98px" y="1380.95px" style="font-family:'Helvetica-Bold', 'Helvetica';font-weight:700;font-size:62.5px;fill:rgb(51,51,51);">Behaviors</text>
                <text x="228.98px" y="1504.53px" style="font-family:'Helvetica-Bold', 'Helvetica';font-weight:700;font-size:50px;fill:rgb(51,51,51);">Existing Customers</text>
                <text x="347.73px" y="1592.82px" style="font-family:'Helvetica';font-size:33.292px;">Tr<tspan x="379.149px " y="1592.82px ">e</tspan>at existing customers like</text>
                <text x="347.73px" y="1632.82px" style="font-family:'Helvetica';font-size:33.292px;">friends, want them to be special,</text>
                <text x="347.73px" y="1672.82px" style="font-family:'Helvetica';font-size:33.292px;">grow a friendship</text>
                <text x="347.73px" y="1712.82px" style="font-family:'Helvetica';font-size:33.292px;">Some customers only want to</text>
                <text x="347.73px" y="1752.82px" style="font-family:'Helvetica';font-size:33.292px;">speak to him, not a CSR</text>
                <text x="347.73px" y="1792.82px" style="font-family:'Helvetica';font-size:33.292px;">Grow friendships, build</text>
                <g transform="matrix(33.2917,0,0,33.2917,534.596,1832.82)">
                </g>
                <text x="347.73px" y="1832.82px" style="font-family:'Helvetica';font-size:33.292px;">relationships</text>
            </g>
            <g transform="matrix(0.24,0,0,0.24,195.685,384.012)">
                <text x="382.48px" y="529.159px" style="font-family:'Helvetica';font-size:33.292px;">Relationships help build</text>
                <text x="382.48px" y="569.159px" style="font-family:'Helvetica';font-size:33.292px;">more business</text>
                <text x="382.48px" y="609.159px" style="font-family:'Helvetica';font-size:33.292px;">Build trust</text>
                <text x="257.48px" y="649.159px" style="font-family:'Helvetica';font-size:33.292px;">Still has responsibilities to existing</text>
                <text x="257.48px" y="689.159px" style="font-family:'Helvetica';font-size:33.292px;">customers. T<tspan x="449.858px 460.943px " y="689.159px 689.159px ">re</tspan>at them like friends,</text>
                <text x="257.48px" y="729.159px" style="font-family:'Helvetica';font-size:33.292px;">want them to be special, grow a</text>
                <text x="257.48px" y="769.159px" style="font-family:'Helvetica';font-size:33.292px;">friendship.</text>
                <text x="257.48px" y="809.159px" style="font-family:'Helvetica';font-size:33.292px;">Sometimes customer can&apos;<tspan x="640.434px " y="809.159px ">t</tspan> sign the</text>
                <text x="257.48px" y="849.159px" style="font-family:'Helvetica';font-size:33.292px;">paperwork until after hours. So he</text>
                <text x="257.48px" y="889.159px" style="font-family:'Helvetica';font-size:33.292px;">had to wait until after hours. Or</text>
                <text x="257.48px" y="929.159px" style="font-family:'Helvetica';font-size:33.292px;">come to the customer&apos;<tspan x="584.959px " y="929.159px ">s</tspan> house after</text>
                <text x="257.48px" y="969.159px" style="font-family:'Helvetica';font-size:33.292px;">hours to get photos for claims, new</text>
                <g transform="matrix(33.2917,0,0,33.2917,351.823,1009.16)">
                </g>
                <text x="257.48px" y="1009.16px" style="font-family:'Helvetica';font-size:33.292px;">policy.</text>
            </g>
            <g transform="matrix(0.24,0,0,0.24,174.025,499.315)">
                <text x="228.98px" y="692.98px" style="font-family:'Helvetica-Bold', 'Helvetica';font-weight:700;font-size:50px;fill:rgb(51,51,51);">Sales</text>
                <text x="347.73px" y="781.23px" style="font-family:'Helvetica';font-size:33.292px;">Start day with sales.</text>
                <text x="347.73px" y="821.23px" style="font-family:'Helvetica';font-size:33.292px;">Not just phone calls.</text>
                <text x="347.73px" y="861.23px" style="font-family:'Helvetica';font-size:33.292px;">Sometimes had to do sales after</text>
                <g transform="matrix(33.2917,0,0,33.2917,375.491,901.23)">
                </g>
                <g transform="matrix(33.2917,0,0,33.2917,384.74,901.23)">
                </g>
                <text x="347.73px" y="901.23px" style="font-family:'Helvetica';font-size:33.292px;">ofﬁce hours.</text>
                <g transform="matrix(33.2917,0,0,33.2917,653.038,941.23)">
                </g>
                <text x="347.73px" y="941.23px" style="font-family:'Helvetica';font-size:33.292px;">Have to get creative.</text>
            </g>
            <g transform="matrix(0.24,0,0,0.24,218.485,554.1)">
                <g transform="matrix(33.2917,0,0,33.2917,653.821,752.959)">
                </g>
                <text x="287.48px" y="752.959px" style="font-family:'Helvetica';font-size:33.292px;">E.g. owner was mayor of</text>
            </g>
        </g>
    </g>
</svg>
