<?xml version="1.0" encoding="UTF-8" standalone="no"?>
<!DOCTYPE svg PUBLIC "-//W3C//DTD SVG 1.1//EN" "http://www.w3.org/Graphics/SVG/1.1/DTD/svg11.dtd">
<svg width="100%" height="100%" viewBox="0 0 2550 3300" version="1.1" xmlns="http://www.w3.org/2000/svg" xmlns:xlink="http://www.w3.org/1999/xlink" xml:space="preserve" xmlns:serif="http://www.serif.com/" style="fill-rule:evenodd;clip-rule:evenodd;stroke-linejoin:round;stroke-miterlimit:2;">
    <g transform="matrix(4.16667,0,0,4.16667,0,0)">
        <clipPath id="_clip1">
            <rect x="48" y="48" width="516" height="695.96" clip-rule="nonzero"/>
        </clipPath>
        <g clip-path="url(#_clip1)">
            <g transform="matrix(1,0,0,1,0,494.06)">
                <rect x="47.96" y="-446.06" width="527.29" height="1190.06" style="fill:white;"/>
            </g>
            <g transform="matrix(1,0,0,1,0,-571.2)">
                <rect x="68.78" y="680.06" width="3.07" height="3.08"/>
            </g>
            <g transform="matrix(1,0,0,1,0,-552)">
                <rect x="68.78" y="670.46" width="3.07" height="3.08"/>
            </g>
            <g transform="matrix(1,0,0,1,0,-532.8)">
                <rect x="68.78" y="660.86" width="3.07" height="3.08"/>
            </g>
            <g transform="matrix(1,0,0,1,0,-402.6)">
                <rect x="68.78" y="595.76" width="3.07" height="3.08"/>
            </g>
            <g transform="matrix(1,0,0,1,0,-383.4)">
                <rect x="68.78" y="586.16" width="3.07" height="3.08"/>
            </g>
            <g transform="matrix(1,0,0,1,0,-345)">
                <rect x="68.78" y="566.96" width="3.07" height="3.08"/>
            </g>
            <g transform="matrix(1,0,0,1,0,-138)">
                <rect x="68.78" y="463.46" width="3.07" height="3.08"/>
            </g>
            <g transform="matrix(1,0,0,1,0,-80.4)">
                <rect x="68.78" y="434.66" width="3.07" height="3.08"/>
            </g>
            <g transform="matrix(0,-1,-1,0,398.815,533.815)">
                <ellipse cx="70.315" cy="328.5" rx="1.54" ry="1.535"/>
            </g>
            <g transform="matrix(0,-1,-1,0,389.215,543.415)">
                <ellipse cx="70.315" cy="318.9" rx="1.54" ry="1.535"/>
            </g>
            <g transform="matrix(0,-1,-1,0,324.115,608.515)">
                <ellipse cx="70.315" cy="253.8" rx="1.54" ry="1.535"/>
            </g>
            <g transform="matrix(0,-1,-1,0,304.915,627.715)">
                <ellipse cx="70.315" cy="234.6" rx="1.54" ry="1.535"/>
            </g>
            <g transform="matrix(0,-1,-1,0,245.215,687.415)">
                <ellipse cx="70.315" cy="174.9" rx="1.54" ry="1.535"/>
            </g>
            <g transform="matrix(0,-1,-1,0,265.615,727.015)">
                <ellipse cx="100.315" cy="165.3" rx="1.54" ry="1.535"/>
            </g>
            <g transform="matrix(0,-1,-1,0,216.415,716.215)">
                <ellipse cx="70.315" cy="146.1" rx="1.54" ry="1.535"/>
            </g>
            <g transform="matrix(0,-1,-1,0,227.215,765.415)">
                <ellipse cx="100.315" cy="126.9" rx="1.54" ry="1.535"/>
            </g>
            <g transform="matrix(0,-1,-1,0,198.415,794.215)">
                <ellipse cx="100.315" cy="98.1" rx="1.54" ry="1.535"/>
            </g>
            <g transform="matrix(0,-1,-1,0,149.215,783.415)">
                <ellipse cx="70.315" cy="78.9" rx="1.54" ry="1.535"/>
            </g>
            <g transform="matrix(0,-1,-1,0,169.615,823.015)">
                <ellipse cx="100.315" cy="69.3" rx="1.54" ry="1.535"/>
            </g>
            <g transform="matrix(0.24,0,0,0.24,187.218,95.364)">
                <text x="246.34px" y="149.359px" style="font-family:'Helvetica';font-size:33.292px;">1.</text>
                <text x="246.34px" y="189.359px" style="font-family:'Helvetica';font-size:33.292px;">2.</text>
                <text x="246.34px" y="229.359px" style="font-family:'Helvetica';font-size:33.292px;">3.</text>
                <g transform="matrix(33.2917,0,0,33.2917,274.1,309.359)">
                </g>
                <text x="246.34px" y="309.359px" style="font-family:'Helvetica';font-size:33.292px;">4.</text>
            </g>
            <g transform="matrix(0.24,0,0,0.24,37.62,41.1987)">
                <text x="49.5px" y="108.005px" style="font-family:'Helvetica';font-size:75px;fill:rgb(51,51,51);">Kathleen, Commercia<tspan x="770.537px " y="108.005px ">l</tspan> A<tspan x="858.068px " y="108.005px ">g</tspan>ent</text>
                <text x="49.5px" y="210.672px" style="font-family:'Helvetica-Bold', 'Helvetica';font-weight:700;font-size:62.5px;fill:rgb(51,51,51);">Other Job Ti<tspan x="417.638px " y="210.672px ">t</tspan>les</text>
                <text x="168.25px" y="303.797px" style="font-family:'Helvetica';font-size:33.292px;">Commercial Lines <tspan x="442.044px 464.245px " y="303.797px 303.797px ">Ag</tspan>ent</text>
                <text x="168.25px" y="343.797px" style="font-family:'Helvetica';font-size:33.292px;">Processor</text>
                <text x="168.25px" y="383.797px" style="font-family:'Helvetica';font-size:33.292px;">Account Representative</text>
                <text x="49.5px" y="561.922px" style="font-family:'Helvetica-Bold', 'Helvetica';font-weight:700;font-size:62.5px;fill:rgb(51,51,51);">Demographic</text>
                <text x="168.25px" y="655.047px" style="font-family:'Helvetica';font-size:33.292px;">Female, older,<tspan x="381.017px " y="655.047px "> </tspan>40-60</text>
                <text x="168.25px" y="695.047px" style="font-family:'Helvetica';font-size:33.292px;">Has been doing this since before</text>
                <text x="168.25px" y="735.047px" style="font-family:'Helvetica';font-size:33.292px;">computers.</text>
                <text x="168.25px" y="775.047px" style="font-family:'Helvetica';font-size:33.292px;">More detailed oriented (because in</text>
                <text x="168.25px" y="815.047px" style="font-family:'Helvetica';font-size:33.292px;">the old days had to do everything</text>
                <text x="168.25px" y="855.047px" style="font-family:'Helvetica';font-size:33.292px;">on paper with carbon copy where</text>
                <text x="168.25px" y="895.047px" style="font-family:'Helvetica';font-size:33.292px;">one mistake would mean redoing</text>
                <text x="168.25px" y="935.047px" style="font-family:'Helvetica';font-size:33.292px;">the whole thing from scratch).</text>
                <text x="49.5px" y="1113.17px" style="font-family:'Helvetica-Bold', 'Helvetica';font-weight:700;font-size:62.5px;fill:rgb(51,51,51);">About The A<tspan x="421.012px " y="1113.17px ">g</tspan>ency</text>
                <g transform="matrix(33.2917,0,0,33.2917,503.15,1206.3)">
                </g>
                <g transform="matrix(33.2917,0,0,33.2917,512.399,1206.3)">
                </g>
                <text x="168.25px" y="1206.3px" style="font-family:'Helvetica';font-size:33.292px;">Wo<tspan x="218.183px " y="1206.3px ">r</tspan>king at a branch ofﬁce split</text>
                <text x="168.25px" y="1246.3px" style="font-family:'Helvetica';font-size:33.292px;">between Commercial (2 agents)</text>
                <text x="168.25px" y="1286.3px" style="font-family:'Helvetica';font-size:33.292px;">and Personal (2 agents)</text>
                <text x="168.25px" y="1326.3px" style="font-family:'Helvetica';font-size:33.292px;">Other branch is entirely Personal</text>
                <text x="168.25px" y="1366.3px" style="font-family:'Helvetica';font-size:33.292px;">Lines, about 3 agents, 3 CSRs.</text>
                <text x="49.5px" y="1544.42px" style="font-family:'Helvetica-Bold', 'Helvetica';font-weight:700;font-size:62.5px;fill:rgb(51,51,51);">Activities</text>
                <g transform="matrix(43.75,0,0,43.75,149.17,1690.55)">
                </g>
                <g transform="matrix(43.75,0,0,43.75,163.738,1690.55)">
                </g>
                <g transform="matrix(43.75,0,0,43.75,394.735,1690.55)">
                </g>
                <g transform="matrix(43.75,0,0,43.75,409.304,1690.55)">
                </g>
                <text x="49.5px" y="1690.55px" style="font-family:'Helvetica-Bold', 'Helvetica';font-weight:700;font-size:43.75px;fill:rgb(51,51,51);">Certiﬁcate-Speciﬁc Behaviors</text>
                <g transform="matrix(33.2917,0,0,33.2917,434.69,1775.05)">
                </g>
                <g transform="matrix(33.2917,0,0,33.2917,443.939,1775.05)">
                </g>
                <text x="168.25px" y="1775.05px" style="font-family:'Helvetica';font-size:33.292px;">Issues lots of certiﬁcates.</text>
                <text x="168.25px" y="1815.05px" style="font-family:'Helvetica';font-size:33.292px;">Sometimes several a day.</text>
                <g transform="matrix(43.75,0,0,43.75,581.9,1939.26)">
                </g>
                <g transform="matrix(43.75,0,0,43.75,596.469,1939.26)">
                </g>
                <text x="49.5px" y="1939.26px" style="font-family:'Helvetica-Bold', 'Helvetica';font-weight:700;font-size:43.75px;fill:rgb(51,51,51);">Submission-Center-Speciﬁc</text>
                <text x="49.5px" y="2001.76px" style="font-family:'Helvetica-Bold', 'Helvetica';font-weight:700;font-size:43.75px;fill:rgb(51,51,51);">Behaviors</text>
                <text x="168.25px" y="2086.3px" style="font-family:'Helvetica';font-size:33.292px;">Simple submission can be done in</text>
                <g transform="matrix(33.2917,0,0,33.2917,484.688,2126.3)">
                </g>
                <g transform="matrix(33.2917,0,0,33.2917,493.936,2126.3)">
                </g>
                <text x="168.25px" y="2126.3px" style="font-family:'Helvetica';font-size:33.292px;">an hour.<tspan x="290.406px " y="2126.3px "> </tspan>Lots of form ﬁelds.</text>
                <text x="168.25px" y="2166.3px" style="font-family:'Helvetica';font-size:33.292px;">Submissions could take anywhere</text>
                <text x="168.25px" y="2206.3px" style="font-family:'Helvetica';font-size:33.292px;">from several hours to a whole day.</text>
                <text x="49.5px" y="2330.55px" style="font-family:'Helvetica-Bold', 'Helvetica';font-weight:700;font-size:43.75px;fill:rgb(51,51,51);">Communication</text>
                <text x="168.25px" y="2415.05px" style="font-family:'Helvetica';font-size:33.292px;">Ve<tspan x="208.965px " y="2415.05px ">r</tspan>y few walk-ins</text>
                <text x="293.25px" y="2455.05px" style="font-family:'Helvetica';font-size:33.292px;">customers are almost</text>
                <text x="293.25px" y="2495.05px" style="font-family:'Helvetica';font-size:33.292px;">always new customers.</text>
                <text x="168.25px" y="2535.05px" style="font-family:'Helvetica';font-size:33.292px;">Not many calls, except new biz,</text>
                <text x="168.25px" y="2575.05px" style="font-family:'Helvetica';font-size:33.292px;">billing, or docs from carrier.</text>
                <text x="293.25px" y="2615.05px" style="font-family:'Helvetica';font-size:33.292px;">Phone calls are almost</text>
                <text x="293.25px" y="2655.05px" style="font-family:'Helvetica';font-size:33.292px;">always from new</text>
                <text x="293.25px" y="2695.05px" style="font-family:'Helvetica';font-size:33.292px;">customers.</text>
                <text x="293.25px" y="2735.05px" style="font-family:'Helvetica';font-size:33.292px;">Also occasionally from</text>
                <text x="293.25px" y="2775.05px" style="font-family:'Helvetica';font-size:33.292px;">ENS brokers.</text>
                <text x="168.25px" y="2815.05px" style="font-family:'Helvetica';font-size:33.292px;">Mostly communicates via email.</text>
                <text x="293.25px" y="2855.05px" style="font-family:'Helvetica';font-size:33.292px;">Renewals are usually via</text>
                <g transform="matrix(33.2917,0,0,33.2917,382.033,2895.05)">
                </g>
                <text x="293.25px" y="2895.05px" style="font-family:'Helvetica';font-size:33.292px;">email.</text>
            </g>
            <g transform="matrix(0.24,0,0,0.24,172.885,61.5327)">
                <text x="233.73px" y="125.947px" style="font-family:'Helvetica-Bold', 'Helvetica';font-weight:700;font-size:62.5px;fill:rgb(51,51,51);">Goals</text>
                <text x="227.48px" y="219.072px" style="font-family:'Helvetica';font-size:33.292px;">Cares about (in order):</text>
                <text x="352.48px" y="290.322px" style="font-family:'Helvetica';font-size:33.292px;">Cancellations</text>
                <text x="352.48px" y="330.322px" style="font-family:'Helvetica';font-size:33.292px;">Downloads (needs matching)</text>
                <text x="352.48px" y="370.322px" style="font-family:'Helvetica';font-size:33.292px;">Issues from primary carrier (carrier</text>
                <text x="352.48px" y="410.322px" style="font-family:'Helvetica';font-size:33.292px;">with most customers)</text>
                <text x="352.48px" y="450.322px" style="font-family:'Helvetica';font-size:33.292px;">Renewals and New Business</text>
                <text x="227.48px" y="521.572px" style="font-family:'Helvetica';font-size:33.292px;">Then looks at tasks:</text>
                <text x="352.48px" y="592.822px" style="font-family:'Helvetica';font-size:33.292px;">Are any overdue?</text>
                <text x="352.48px" y="632.822px" style="font-family:'Helvetica';font-size:33.292px;">Has 1-2 overdue tasks only</text>
                <text x="227.48px" y="704.53px" style="font-family:'Helvetica-Bold', 'Helvetica';font-weight:700;font-size:33.292px;">Wo<tspan x="279.238px " y="704.53px ">r</tspan>k-Life Balance</text>
                <text x="352.48px" y="775.322px" style="font-family:'Helvetica';font-size:33.292px;">Doesn&apos;<tspan x="456.084px " y="775.322px ">t</tspan> work from home.</text>
                <text x="352.48px" y="815.322px" style="font-family:'Helvetica';font-size:33.292px;">Stressful enough at work.</text>
                <text x="352.48px" y="855.322px" style="font-family:'Helvetica';font-size:33.292px;">Ve<tspan x="393.196px " y="855.322px ">r</tspan>y OCD, detail oriented, if</text>
                <text x="352.48px" y="895.322px" style="font-family:'Helvetica';font-size:33.292px;">brought work home, would be</text>
                <text x="352.48px" y="935.322px" style="font-family:'Helvetica';font-size:33.292px;">working 24/7.</text>
                <text x="233.73px" y="1113.45px" style="font-family:'Helvetica-Bold', 'Helvetica';font-weight:700;font-size:62.5px;fill:rgb(51,51,51);">Behaviors</text>
                <text x="233.73px" y="1259.57px" style="font-family:'Helvetica-Bold', 'Helvetica';font-weight:700;font-size:43.75px;fill:rgb(51,51,51);">Daily</text>
                <text x="352.48px" y="1344.07px" style="font-family:'Helvetica';font-size:33.292px;">Handles cancellations (when</text>
                <text x="352.48px" y="1384.07px" style="font-family:'Helvetica';font-size:33.292px;">re-marketing policies, due to</text>
                <text x="352.48px" y="1424.07px" style="font-family:'Helvetica';font-size:33.292px;">non-payment of bills)</text>
                <text x="352.48px" y="1464.07px" style="font-family:'Helvetica';font-size:33.292px;">Matches downloads as they come</text>
                <text x="352.48px" y="1504.07px" style="font-family:'Helvetica';font-size:33.292px;">in.</text>
                <text x="352.48px" y="1544.07px" style="font-family:'Helvetica';font-size:33.292px;">Handles commercial lines</text>
                <text x="352.48px" y="1584.07px" style="font-family:'Helvetica';font-size:33.292px;">submissions.</text>
                <g transform="matrix(33.2917,0,0,33.2917,618.92,1624.07)">
                </g>
                <g transform="matrix(33.2917,0,0,33.2917,628.169,1624.07)">
                </g>
                <text x="352.48px" y="1624.07px" style="font-family:'Helvetica';font-size:33.292px;">Issues lots of certiﬁcates. Several</text>
                <text x="352.48px" y="1664.07px" style="font-family:'Helvetica';font-size:33.292px;">per day.</text>
                <g transform="matrix(33.2917,0,0,33.2917,794.616,1704.07)">
                </g>
                <text x="352.48px" y="1704.07px" style="font-family:'Helvetica';font-size:33.292px;">Deals mostly with contractors.</text>
            </g>
            <g transform="matrix(0.24,0,0,0.24,174.025,360.528)">
                <text x="472.73px" y="498.259px" style="font-family:'Helvetica';font-size:33.292px;">Ta<tspan x="511.577px " y="498.259px ">k</tspan>es the longest to do</text>
                <text x="472.73px" y="538.259px" style="font-family:'Helvetica';font-size:33.292px;">submissions for.</text>
                <g transform="matrix(43.75,0,0,43.75,328.65,662.509)">
                </g>
                <g transform="matrix(43.75,0,0,43.75,343.218,662.509)">
                </g>
                <g transform="matrix(43.75,0,0,43.75,574.215,662.509)">
                </g>
                <g transform="matrix(43.75,0,0,43.75,588.784,662.509)">
                </g>
                <text x="228.98px" y="662.509px" style="font-family:'Helvetica-Bold', 'Helvetica';font-weight:700;font-size:43.75px;fill:rgb(51,51,51);">Certiﬁcate-Speciﬁc Behaviors</text>
                <g transform="matrix(33.2917,0,0,33.2917,614.17,747.009)">
                </g>
                <g transform="matrix(33.2917,0,0,33.2917,623.419,747.009)">
                </g>
                <text x="347.73px" y="747.009px" style="font-family:'Helvetica';font-size:33.292px;">Issues lots of certiﬁcates.</text>
                <text x="347.73px" y="787.009px" style="font-family:'Helvetica';font-size:33.292px;">Sometimes several a day.</text>
                <g transform="matrix(43.75,0,0,43.75,761.38,911.259)">
                </g>
                <g transform="matrix(43.75,0,0,43.75,775.949,911.259)">
                </g>
                <text x="228.98px" y="911.259px" style="font-family:'Helvetica-Bold', 'Helvetica';font-weight:700;font-size:43.75px;fill:rgb(51,51,51);">Submission-Center-Speciﬁc</text>
                <text x="228.98px" y="973.759px" style="font-family:'Helvetica-Bold', 'Helvetica';font-weight:700;font-size:43.75px;fill:rgb(51,51,51);">Behaviors</text>
                <text x="347.73px" y="1058.26px" style="font-family:'Helvetica';font-size:33.292px;">Simple submission can be done in</text>
                <g transform="matrix(33.2917,0,0,33.2917,664.168,1098.26)">
                </g>
                <g transform="matrix(33.2917,0,0,33.2917,673.416,1098.26)">
                </g>
                <text x="347.73px" y="1098.26px" style="font-family:'Helvetica';font-size:33.292px;">an hour.<tspan x="469.886px " y="1098.26px "> </tspan>Lots of form ﬁelds.</text>
                <text x="347.73px" y="1138.26px" style="font-family:'Helvetica';font-size:33.292px;">Submissions could take anywhere</text>
                <text x="347.73px" y="1178.26px" style="font-family:'Helvetica';font-size:33.292px;">from several hours to a whole day.</text>
                <text x="228.98px" y="1302.51px" style="font-family:'Helvetica-Bold', 'Helvetica';font-weight:700;font-size:43.75px;fill:rgb(51,51,51);">&quot;Garbage in, garbage out&quot;</text>
                <text x="347.73px" y="1387.01px" style="font-family:'Helvetica';font-size:33.292px;">Information in EZLy<tspan x="636.357px " y="1387.01px ">n</tspan>x has to be</text>
                <text x="347.73px" y="1427.01px" style="font-family:'Helvetica';font-size:33.292px;">accurate.</text>
                <text x="347.73px" y="1467.01px" style="font-family:'Helvetica';font-size:33.292px;">Information only useful once it&apos;<tspan x="797.355px " y="1467.01px ">s</tspan> in</text>
                <text x="347.73px" y="1507.01px" style="font-family:'Helvetica';font-size:33.292px;">system.</text>
                <g transform="matrix(33.2917,0,0,33.2917,813.941,1547.01)">
                </g>
                <text x="347.73px" y="1547.01px" style="font-family:'Helvetica';font-size:33.292px;">Shreds paperwork immediately.</text>
            </g>
            <g transform="matrix(0.24,0,0,0.24,310.452,61.5327)">
                <text x="408.49px" y="125.947px" style="font-family:'Helvetica-Bold', 'Helvetica';font-weight:700;font-size:62.5px;fill:rgb(51,51,51);">Commercial Details</text>
                <text x="408.49px" y="272.072px" style="font-family:'Helvetica-Bold', 'Helvetica';font-weight:700;font-size:43.75px;fill:rgb(51,51,51);">Some Carriers have</text>
                <text x="408.49px" y="334.572px" style="font-family:'Helvetica-Bold', 'Helvetica';font-weight:700;font-size:43.75px;fill:rgb(51,51,51);">Commercial Raters!</text>
                <text x="527.24px" y="419.072px" style="font-family:'Helvetica';font-size:33.292px;">For simple submissions, can use</text>
                <text x="527.24px" y="459.572px" style="font-family:'Helvetica';font-size:33.292px;">the</text>
                <text x="582.764px" y="459.572px" style="font-family:'Helvetica-Bold', 'Helvetica';font-weight:700;font-size:33.292px;fill:rgb(153,204,0);">carrier&apos;<tspan x="695.661px " y="459.572px ">s</tspan> own commercial</text>
                <text x="527.24px" y="500.03px" style="font-family:'Helvetica-Bold', 'Helvetica';font-weight:700;font-size:33.292px;fill:rgb(153,204,0);">rating website</text>
                <text x="751.162px" y="500.03px" style="font-family:'Helvetica';font-size:33.292px;">.</text>
                <text x="408.49px" y="624.239px" style="font-family:'Helvetica-Bold', 'Helvetica';font-weight:700;font-size:43.75px;fill:rgb(51,51,51);">Underwriters</text>
                <text x="527.24px" y="708.78px" style="font-family:'Helvetica';font-size:33.292px;">But for everything else has to</text>
                <text x="527.24px" y="748.78px" style="font-family:'Helvetica';font-size:33.292px;">prepare•<tspan x="651.218px " y="748.78px "> </tspan>an application and submit</text>
                <text x="527.24px" y="788.78px" style="font-family:'Helvetica';font-size:33.292px;">to Underwriters.</text>
                <text x="527.24px" y="828.78px" style="font-family:'Helvetica';font-size:33.292px;">Can send same email to all carriers</text>
                <text x="527.24px" y="868.78px" style="font-family:'Helvetica';font-size:33.292px;">-- subject, body,<tspan x="764.078px 773.334px 795.538px " y="868.78px 868.78px 868.78px "> AC</tspan>ORD forms as</text>
                <text x="527.24px" y="908.78px" style="font-family:'Helvetica';font-size:33.292px;">attachments</text>
                <text x="527.24px" y="948.78px" style="font-family:'Helvetica';font-size:33.292px;">But each carrier has a custom</text>
                <text x="527.24px" y="988.78px" style="font-family:'Helvetica';font-size:33.292px;">supplemental doc.</text>
                <text x="527.24px" y="1028.78px" style="font-family:'Helvetica';font-size:33.292px;">But underwriters turnover</text>
                <text x="527.24px" y="1068.78px" style="font-family:'Helvetica';font-size:33.292px;">frequently,<tspan x="682.671px " y="1068.78px "> </tspan>every couple of months,</text>
                <text x="527.24px" y="1108.78px" style="font-family:'Helvetica';font-size:33.292px;">few months.</text>
                <text x="408.49px" y="1232.99px" style="font-family:'Helvetica-Bold', 'Helvetica';font-weight:700;font-size:43.75px;fill:rgb(51,51,51);">Submission Center &gt; Brokers</text>
                <text x="527.24px" y="1317.53px" style="font-family:'Helvetica';font-size:33.292px;">Sometimes have to go through</text>
                <text x="527.24px" y="1357.53px" style="font-family:'Helvetica';font-size:33.292px;">brokers e.g. for excess and surplus•</text>
                <text x="527.24px" y="1397.53px" style="font-family:'Helvetica';font-size:33.292px;">(ENS) line companies.</text>
                <text x="527.24px" y="1437.53px" style="font-family:'Helvetica';font-size:33.292px;">Brokers have access to hundreds</text>
                <text x="527.24px" y="1477.53px" style="font-family:'Helvetica';font-size:33.292px;">of companies</text>
                <text x="527.24px" y="1517.53px" style="font-family:'Helvetica';font-size:33.292px;">Agent can work with multiple</text>
                <g transform="matrix(33.2917,0,0,33.2917,647.484,1557.53)">
                </g>
                <text x="527.24px" y="1557.53px" style="font-family:'Helvetica';font-size:33.292px;">brokers.</text>
            </g>
            <g transform="matrix(0,-1,-1,0,841.69,449.89)">
                <circle cx="249.79" cy="591.9" r="1.54"/>
            </g>
            <g transform="matrix(0,-1,-1,0,832.09,459.49)">
                <circle cx="249.79" cy="582.3" r="1.54"/>
            </g>
            <g transform="matrix(0,-1,-1,0,797.89,493.69)">
                <circle cx="249.79" cy="548.1" r="1.54"/>
            </g>
            <g transform="matrix(0,-1,-1,0,788.29,503.29)">
                <circle cx="249.79" cy="538.5" r="1.54"/>
            </g>
            <g transform="matrix(0,-1,-1,0,778.69,512.89)">
                <circle cx="249.79" cy="528.9" r="1.54"/>
            </g>
            <g transform="matrix(0,-1,-1,0,661.39,630.19)">
                <circle cx="249.79" cy="411.6" r="1.54"/>
            </g>
            <g transform="matrix(0,-1,-1,0,632.59,658.99)">
                <circle cx="249.79" cy="382.8" r="1.54"/>
            </g>
            <g transform="matrix(0,-1,-1,0,613.39,678.19)">
                <circle cx="249.79" cy="363.6" r="1.54"/>
            </g>
            <g transform="matrix(0,-1,-1,0,594.19,697.39)">
                <circle cx="249.79" cy="344.4" r="1.54"/>
            </g>
            <g transform="matrix(0,-1,-1,0,574.99,716.59)">
                <circle cx="249.79" cy="325.2" r="1.54"/>
            </g>
            <g transform="matrix(0,-1,-1,0,595.39,756.19)">
                <circle cx="279.79" cy="315.6" r="1.54"/>
            </g>
            <g transform="matrix(0,-1,-1,0,505.69,785.89)">
                <circle cx="249.79" cy="255.9" r="1.54"/>
            </g>
            <g transform="matrix(0,-1,-1,0,496.09,795.49)">
                <circle cx="249.79" cy="246.3" r="1.54"/>
            </g>
            <g transform="matrix(0,-1,-1,0,430.99,860.59)">
                <circle cx="249.79" cy="181.2" r="1.54"/>
            </g>
            <g transform="matrix(0,-1,-1,0,411.79,879.79)">
                <circle cx="249.79" cy="162" r="1.54"/>
            </g>
            <g transform="matrix(0,-1,-1,0,352.09,939.49)">
                <circle cx="249.79" cy="102.3" r="1.54"/>
            </g>
            <g transform="matrix(0,-1,-1,0,332.89,958.69)">
                <circle cx="249.79" cy="83.1" r="1.54"/>
            </g>
            <g transform="matrix(0,-1,-1,0,313.69,977.89)">
                <circle cx="249.79" cy="63.9" r="1.54"/>
            </g>
            <g transform="matrix(0,-1,-1,0,1062.9,587.7)">
                <circle cx="429.3" cy="633.6" r="1.54"/>
            </g>
            <g transform="matrix(0,-1,-1,0,993.375,657.225)">
                <ellipse cx="429.3" cy="564.075" rx="1.535" ry="1.54"/>
            </g>
            <g transform="matrix(0,-1,-1,0,964.575,686.025)">
                <ellipse cx="429.3" cy="535.275" rx="1.535" ry="1.54"/>
            </g>
            <g transform="matrix(0,-1,-1,0,935.775,714.825)">
                <ellipse cx="429.3" cy="506.475" rx="1.535" ry="1.54"/>
            </g>
            <g transform="matrix(0,-1,-1,0,916.575,734.025)">
                <ellipse cx="429.3" cy="487.275" rx="1.535" ry="1.54"/>
            </g>
            <g transform="matrix(0,-1,-1,0,847.275,803.325)">
                <ellipse cx="429.3" cy="417.975" rx="1.535" ry="1.54"/>
            </g>
            <g transform="matrix(0,-1,-1,0,818.475,832.125)">
                <ellipse cx="429.3" cy="389.175" rx="1.535" ry="1.54"/>
            </g>
            <g transform="matrix(0,-1,-1,0,799.275,851.325)">
                <ellipse cx="429.3" cy="369.975" rx="1.535" ry="1.54"/>
            </g>
        </g>
    </g>
</svg>
