<svg width="832" height="152" viewBox="0 0 832 152" fill="none" xmlns="http://www.w3.org/2000/svg">
<g clip-path="url(#clip0_259_146)">
<path fill-rule="evenodd" clip-rule="evenodd" d="M143.284 45.6274L148.941 39.9706L143.284 34.3137L131.971 23L126.314 28.6569L137.628 39.9706L126.314 51.2843L131.971 56.9411L143.284 45.6274Z" fill="#B1B1B1"/>
<path fill-rule="evenodd" clip-rule="evenodd" d="M327.284 45.6274L332.941 39.9706L327.284 34.3137L315.971 23L310.314 28.6569L321.628 39.9706L310.314 51.2843L315.971 56.9411L327.284 45.6274Z" fill="#B1B1B1"/>
<path fill-rule="evenodd" clip-rule="evenodd" d="M503.284 45.6274L508.941 39.9706L503.284 34.3137L491.971 23L486.314 28.6569L497.628 39.9706L486.314 51.2843L491.971 56.9411L503.284 45.6274Z" fill="#B1B1B1"/>
<path fill-rule="evenodd" clip-rule="evenodd" d="M695.284 45.6274L700.941 39.9706L695.284 34.3137L683.971 23L678.314 28.6569L689.628 39.9706L678.314 51.2843L683.971 56.9411L695.284 45.6274Z" fill="#B1B1B1"/>
<path fill-rule="evenodd" clip-rule="evenodd" d="M768 16H744V40H768V16ZM760 24H752V32H760V24Z" fill="#FF7338"/>
<path fill-rule="evenodd" clip-rule="evenodd" d="M768 48H744V72H768V48ZM760 56H752V64H760V56Z" fill="#FF7338"/>
<path d="M541.335 128L536.494 110.545H539.264L542.665 124.062H542.827L546.364 110.545H549.108L552.645 124.071H552.807L556.199 110.545H558.977L554.128 128H551.477L547.804 114.926H547.668L543.994 128H541.335ZM560.454 128V114.909H563.002V128H560.454ZM561.741 112.889C561.298 112.889 560.917 112.741 560.599 112.446C560.286 112.145 560.13 111.787 560.13 111.372C560.13 110.952 560.286 110.594 560.599 110.298C560.917 109.997 561.298 109.847 561.741 109.847C562.184 109.847 562.562 109.997 562.874 110.298C563.193 110.594 563.352 110.952 563.352 111.372C563.352 111.787 563.193 112.145 562.874 112.446C562.562 112.741 562.184 112.889 561.741 112.889ZM565.711 128V114.909H568.174V116.989H568.31C568.549 116.284 568.969 115.73 569.571 115.327C570.179 114.918 570.867 114.713 571.634 114.713C571.793 114.713 571.98 114.719 572.196 114.73C572.418 114.741 572.591 114.756 572.716 114.773V117.21C572.614 117.182 572.432 117.151 572.171 117.116C571.909 117.077 571.648 117.057 571.387 117.057C570.784 117.057 570.247 117.185 569.776 117.44C569.31 117.69 568.941 118.04 568.668 118.489C568.395 118.932 568.259 119.437 568.259 120.006V128H565.711ZM579.375 128.264C578.085 128.264 576.974 127.989 576.042 127.438C575.116 126.881 574.4 126.099 573.895 125.094C573.395 124.082 573.145 122.898 573.145 121.54C573.145 120.199 573.395 119.017 573.895 117.994C574.4 116.972 575.105 116.173 576.008 115.599C576.917 115.026 577.98 114.739 579.196 114.739C579.934 114.739 580.65 114.861 581.344 115.105C582.037 115.349 582.659 115.733 583.21 116.256C583.761 116.778 584.196 117.457 584.514 118.293C584.832 119.122 584.991 120.131 584.991 121.318V122.222H574.585V120.312H582.494C582.494 119.642 582.358 119.048 582.085 118.531C581.812 118.009 581.429 117.597 580.934 117.295C580.446 116.994 579.872 116.844 579.213 116.844C578.497 116.844 577.872 117.02 577.338 117.372C576.809 117.719 576.4 118.173 576.111 118.736C575.827 119.293 575.684 119.898 575.684 120.551V122.043C575.684 122.918 575.838 123.662 576.145 124.276C576.457 124.889 576.892 125.358 577.449 125.682C578.005 126 578.656 126.159 579.4 126.159C579.883 126.159 580.324 126.091 580.721 125.955C581.119 125.812 581.463 125.602 581.753 125.324C582.042 125.045 582.264 124.702 582.417 124.293L584.829 124.727C584.636 125.437 584.29 126.06 583.79 126.594C583.295 127.122 582.673 127.534 581.923 127.83C581.179 128.119 580.329 128.264 579.375 128.264ZM593.329 114.909V116.955H585.931V114.909H593.329ZM587.959 128V113.392C587.959 112.574 588.138 111.895 588.496 111.355C588.854 110.81 589.329 110.403 589.92 110.136C590.511 109.864 591.153 109.727 591.846 109.727C592.357 109.727 592.795 109.77 593.158 109.855C593.522 109.935 593.792 110.009 593.968 110.077L593.371 112.139C593.252 112.105 593.099 112.065 592.911 112.02C592.724 111.969 592.496 111.943 592.229 111.943C591.61 111.943 591.167 112.097 590.9 112.403C590.638 112.71 590.508 113.153 590.508 113.733V128H587.959ZM595.238 128V114.909H597.701V116.989H597.838C598.076 116.284 598.497 115.73 599.099 115.327C599.707 114.918 600.394 114.713 601.161 114.713C601.32 114.713 601.508 114.719 601.724 114.73C601.945 114.741 602.119 114.756 602.244 114.773V117.21C602.141 117.182 601.96 117.151 601.698 117.116C601.437 117.077 601.176 117.057 600.914 117.057C600.312 117.057 599.775 117.185 599.303 117.44C598.838 117.69 598.468 118.04 598.195 118.489C597.923 118.932 597.786 119.437 597.786 120.006V128H595.238ZM607.421 128.29C606.592 128.29 605.842 128.136 605.171 127.83C604.501 127.517 603.97 127.065 603.578 126.474C603.191 125.884 602.998 125.159 602.998 124.301C602.998 123.562 603.14 122.955 603.424 122.477C603.708 122 604.092 121.622 604.575 121.344C605.058 121.065 605.598 120.855 606.194 120.713C606.791 120.571 607.399 120.463 608.018 120.389C608.802 120.298 609.439 120.224 609.927 120.168C610.416 120.105 610.771 120.006 610.993 119.869C611.214 119.733 611.325 119.511 611.325 119.205V119.145C611.325 118.401 611.115 117.824 610.694 117.415C610.279 117.006 609.66 116.801 608.836 116.801C607.978 116.801 607.302 116.991 606.808 117.372C606.319 117.747 605.981 118.165 605.794 118.625L603.399 118.08C603.683 117.284 604.098 116.642 604.643 116.153C605.194 115.659 605.828 115.301 606.544 115.08C607.26 114.852 608.012 114.739 608.802 114.739C609.325 114.739 609.879 114.801 610.464 114.926C611.055 115.045 611.606 115.267 612.118 115.591C612.635 115.915 613.058 116.378 613.387 116.98C613.717 117.577 613.882 118.352 613.882 119.307V128H611.393V126.21H611.291C611.126 126.54 610.879 126.864 610.549 127.182C610.22 127.5 609.796 127.764 609.279 127.974C608.762 128.185 608.143 128.29 607.421 128.29ZM607.975 126.244C608.68 126.244 609.282 126.105 609.782 125.827C610.288 125.548 610.671 125.185 610.933 124.736C611.2 124.281 611.333 123.795 611.333 123.278V121.591C611.243 121.682 611.066 121.767 610.805 121.847C610.549 121.92 610.257 121.986 609.927 122.043C609.598 122.094 609.277 122.142 608.964 122.188C608.652 122.227 608.39 122.261 608.18 122.29C607.686 122.352 607.234 122.457 606.825 122.605C606.421 122.753 606.098 122.966 605.853 123.244C605.615 123.517 605.495 123.881 605.495 124.335C605.495 124.966 605.728 125.443 606.194 125.767C606.66 126.085 607.254 126.244 607.975 126.244ZM616.556 128V114.909H619.002V117.04H619.164C619.437 116.318 619.883 115.756 620.502 115.352C621.121 114.943 621.863 114.739 622.726 114.739C623.601 114.739 624.334 114.943 624.925 115.352C625.522 115.761 625.962 116.324 626.246 117.04H626.383C626.695 116.341 627.192 115.784 627.874 115.369C628.556 114.949 629.368 114.739 630.312 114.739C631.499 114.739 632.468 115.111 633.218 115.855C633.973 116.599 634.351 117.722 634.351 119.222V128H631.803V119.46C631.803 118.574 631.562 117.932 631.079 117.534C630.596 117.136 630.019 116.938 629.348 116.938C628.519 116.938 627.874 117.193 627.414 117.705C626.954 118.21 626.723 118.861 626.723 119.656V128H624.184V119.298C624.184 118.588 623.962 118.017 623.519 117.585C623.076 117.153 622.499 116.938 621.789 116.938C621.306 116.938 620.86 117.065 620.451 117.321C620.047 117.571 619.721 117.92 619.471 118.369C619.226 118.818 619.104 119.338 619.104 119.929V128H616.556ZM642.689 128.264C641.399 128.264 640.288 127.989 639.356 127.438C638.43 126.881 637.714 126.099 637.209 125.094C636.709 124.082 636.459 122.898 636.459 121.54C636.459 120.199 636.709 119.017 637.209 117.994C637.714 116.972 638.419 116.173 639.322 115.599C640.231 115.026 641.294 114.739 642.51 114.739C643.249 114.739 643.964 114.861 644.658 115.105C645.351 115.349 645.973 115.733 646.524 116.256C647.075 116.778 647.51 117.457 647.828 118.293C648.146 119.122 648.305 120.131 648.305 121.318V122.222H637.899V120.312H645.808C645.808 119.642 645.672 119.048 645.399 118.531C645.126 118.009 644.743 117.597 644.249 117.295C643.76 116.994 643.186 116.844 642.527 116.844C641.811 116.844 641.186 117.02 640.652 117.372C640.124 117.719 639.714 118.173 639.425 118.736C639.141 119.293 638.999 119.898 638.999 120.551V122.043C638.999 122.918 639.152 123.662 639.459 124.276C639.771 124.889 640.206 125.358 640.763 125.682C641.32 126 641.97 126.159 642.714 126.159C643.197 126.159 643.638 126.091 644.035 125.955C644.433 125.812 644.777 125.602 645.067 125.324C645.356 125.045 645.578 124.702 645.731 124.293L648.143 124.727C647.95 125.437 647.604 126.06 647.104 126.594C646.609 127.122 645.987 127.534 645.237 127.83C644.493 128.119 643.643 128.264 642.689 128.264ZM660.222 118.105L657.913 118.514C657.816 118.219 657.663 117.937 657.453 117.67C657.248 117.403 656.97 117.185 656.617 117.014C656.265 116.844 655.825 116.759 655.296 116.759C654.575 116.759 653.972 116.92 653.489 117.244C653.007 117.562 652.765 117.974 652.765 118.48C652.765 118.918 652.927 119.27 653.251 119.537C653.575 119.804 654.097 120.023 654.819 120.193L656.899 120.67C658.103 120.949 659.001 121.378 659.592 121.957C660.183 122.537 660.478 123.29 660.478 124.216C660.478 125 660.251 125.699 659.796 126.312C659.347 126.92 658.72 127.398 657.913 127.744C657.112 128.091 656.183 128.264 655.126 128.264C653.66 128.264 652.464 127.952 651.538 127.327C650.612 126.696 650.043 125.801 649.833 124.642L652.296 124.267C652.45 124.909 652.765 125.395 653.242 125.724C653.72 126.048 654.342 126.21 655.109 126.21C655.944 126.21 656.612 126.037 657.112 125.69C657.612 125.338 657.862 124.909 657.862 124.403C657.862 123.994 657.708 123.651 657.401 123.372C657.1 123.094 656.637 122.884 656.012 122.741L653.796 122.256C652.575 121.977 651.671 121.534 651.086 120.926C650.507 120.318 650.217 119.548 650.217 118.616C650.217 117.844 650.433 117.168 650.864 116.588C651.296 116.009 651.893 115.557 652.654 115.233C653.416 114.903 654.288 114.739 655.271 114.739C656.685 114.739 657.799 115.045 658.612 115.659C659.424 116.267 659.961 117.082 660.222 118.105Z" fill="black"/>
<path d="M739.918 128V110.545H746.139C747.491 110.545 748.614 110.778 749.506 111.244C750.403 111.71 751.074 112.355 751.517 113.179C751.96 113.997 752.182 114.943 752.182 116.017C752.182 117.085 751.957 118.026 751.509 118.838C751.065 119.645 750.395 120.273 749.497 120.722C748.605 121.17 747.483 121.395 746.131 121.395H741.418V119.128H745.892C746.744 119.128 747.438 119.006 747.972 118.761C748.511 118.517 748.906 118.162 749.156 117.696C749.406 117.23 749.531 116.67 749.531 116.017C749.531 115.358 749.403 114.787 749.148 114.304C748.898 113.821 748.503 113.452 747.963 113.196C747.429 112.935 746.727 112.804 745.858 112.804H742.551V128H739.918ZM748.534 120.125L752.847 128H749.847L745.619 120.125H748.534ZM759.94 128.264C758.65 128.264 757.539 127.989 756.607 127.438C755.681 126.881 754.965 126.099 754.46 125.094C753.96 124.082 753.71 122.898 753.71 121.54C753.71 120.199 753.96 119.017 754.46 117.994C754.965 116.972 755.67 116.173 756.573 115.599C757.482 115.026 758.545 114.739 759.761 114.739C760.499 114.739 761.215 114.861 761.909 115.105C762.602 115.349 763.224 115.733 763.775 116.256C764.326 116.778 764.761 117.457 765.079 118.293C765.397 119.122 765.556 120.131 765.556 121.318V122.222H755.15V120.312H763.059C763.059 119.642 762.923 119.048 762.65 118.531C762.377 118.009 761.994 117.597 761.499 117.295C761.011 116.994 760.437 116.844 759.778 116.844C759.062 116.844 758.437 117.02 757.903 117.372C757.374 117.719 756.965 118.173 756.676 118.736C756.392 119.293 756.249 119.898 756.249 120.551V122.043C756.249 122.918 756.403 123.662 756.71 124.276C757.022 124.889 757.457 125.358 758.014 125.682C758.57 126 759.221 126.159 759.965 126.159C760.448 126.159 760.889 126.091 761.286 125.955C761.684 125.812 762.028 125.602 762.318 125.324C762.607 125.045 762.829 124.702 762.982 124.293L765.394 124.727C765.201 125.437 764.855 126.06 764.355 126.594C763.86 127.122 763.238 127.534 762.488 127.83C761.744 128.119 760.894 128.264 759.94 128.264ZM778.488 114.909L773.74 128H771.013L766.257 114.909H768.993L772.309 124.983H772.445L775.752 114.909H778.488ZM780.162 128V114.909H782.711V128H780.162ZM781.449 112.889C781.006 112.889 780.626 112.741 780.307 112.446C779.995 112.145 779.839 111.787 779.839 111.372C779.839 110.952 779.995 110.594 780.307 110.298C780.626 109.997 781.006 109.847 781.449 109.847C781.893 109.847 782.27 109.997 782.583 110.298C782.901 110.594 783.06 110.952 783.06 111.372C783.06 111.787 782.901 112.145 782.583 112.446C782.27 112.741 781.893 112.889 781.449 112.889ZM791.061 128.264C789.771 128.264 788.66 127.989 787.729 127.438C786.803 126.881 786.087 126.099 785.581 125.094C785.081 124.082 784.831 122.898 784.831 121.54C784.831 120.199 785.081 119.017 785.581 117.994C786.087 116.972 786.791 116.173 787.695 115.599C788.604 115.026 789.666 114.739 790.882 114.739C791.621 114.739 792.337 114.861 793.03 115.105C793.723 115.349 794.345 115.733 794.896 116.256C795.447 116.778 795.882 117.457 796.2 118.293C796.518 119.122 796.678 120.131 796.678 121.318V122.222H786.271V120.312H794.18C794.18 119.642 794.044 119.048 793.771 118.531C793.499 118.009 793.115 117.597 792.621 117.295C792.132 116.994 791.558 116.844 790.899 116.844C790.183 116.844 789.558 117.02 789.024 117.372C788.496 117.719 788.087 118.173 787.797 118.736C787.513 119.293 787.371 119.898 787.371 120.551V122.043C787.371 122.918 787.524 123.662 787.831 124.276C788.143 124.889 788.578 125.358 789.135 125.682C789.692 126 790.342 126.159 791.087 126.159C791.57 126.159 792.01 126.091 792.408 125.955C792.805 125.812 793.149 125.602 793.439 125.324C793.729 125.045 793.95 124.702 794.104 124.293L796.516 124.727C796.322 125.437 795.976 126.06 795.476 126.594C794.982 127.122 794.359 127.534 793.609 127.83C792.865 128.119 792.016 128.264 791.061 128.264ZM801.6 128L797.747 114.909H800.381L802.946 124.523H803.074L805.648 114.909H808.281L810.838 124.48H810.966L813.514 114.909H816.148L812.304 128H809.705L807.046 118.548H806.85L804.19 128H801.6Z" fill="black"/>
<path fill-rule="evenodd" clip-rule="evenodd" d="M583 16V72L543 72V16L583 16ZM575 24L575 64H551L551 24L575 24ZM631 24V72L591 72V24L631 24ZM623 32V64H599V32H623Z" fill="#387152"/>
<path fill-rule="evenodd" clip-rule="evenodd" d="M583 88V80L543 80V88L583 88ZM631 88V80L591 80V88L631 88Z" fill="#63DB9A"/>
<path d="M177.918 128V110.545H184.139C185.491 110.545 186.614 110.778 187.506 111.244C188.403 111.71 189.074 112.355 189.517 113.179C189.96 113.997 190.182 114.943 190.182 116.017C190.182 117.085 189.957 118.026 189.509 118.838C189.065 119.645 188.395 120.273 187.497 120.722C186.605 121.17 185.483 121.395 184.131 121.395H179.418V119.128H183.892C184.744 119.128 185.438 119.006 185.972 118.761C186.511 118.517 186.906 118.162 187.156 117.696C187.406 117.23 187.531 116.67 187.531 116.017C187.531 115.358 187.403 114.787 187.148 114.304C186.898 113.821 186.503 113.452 185.963 113.196C185.429 112.935 184.727 112.804 183.858 112.804H180.551V128H177.918ZM186.534 120.125L190.847 128H187.847L183.619 120.125H186.534ZM197.94 128.264C196.65 128.264 195.539 127.989 194.607 127.438C193.681 126.881 192.965 126.099 192.46 125.094C191.96 124.082 191.71 122.898 191.71 121.54C191.71 120.199 191.96 119.017 192.46 117.994C192.965 116.972 193.67 116.173 194.573 115.599C195.482 115.026 196.545 114.739 197.761 114.739C198.499 114.739 199.215 114.861 199.909 115.105C200.602 115.349 201.224 115.733 201.775 116.256C202.326 116.778 202.761 117.457 203.079 118.293C203.397 119.122 203.556 120.131 203.556 121.318V122.222H193.15V120.312H201.059C201.059 119.642 200.923 119.048 200.65 118.531C200.377 118.009 199.994 117.597 199.499 117.295C199.011 116.994 198.437 116.844 197.778 116.844C197.062 116.844 196.437 117.02 195.903 117.372C195.374 117.719 194.965 118.173 194.676 118.736C194.392 119.293 194.249 119.898 194.249 120.551V122.043C194.249 122.918 194.403 123.662 194.71 124.276C195.022 124.889 195.457 125.358 196.014 125.682C196.57 126 197.221 126.159 197.965 126.159C198.448 126.159 198.889 126.091 199.286 125.955C199.684 125.812 200.028 125.602 200.318 125.324C200.607 125.045 200.829 124.702 200.982 124.293L203.394 124.727C203.201 125.437 202.855 126.06 202.355 126.594C201.86 127.122 201.238 127.534 200.488 127.83C199.744 128.119 198.894 128.264 197.94 128.264ZM215.473 118.105L213.164 118.514C213.067 118.219 212.914 117.937 212.703 117.67C212.499 117.403 212.221 117.185 211.868 117.014C211.516 116.844 211.076 116.759 210.547 116.759C209.826 116.759 209.223 116.92 208.74 117.244C208.257 117.562 208.016 117.974 208.016 118.48C208.016 118.918 208.178 119.27 208.502 119.537C208.826 119.804 209.348 120.023 210.07 120.193L212.149 120.67C213.354 120.949 214.252 121.378 214.843 121.957C215.434 122.537 215.729 123.29 215.729 124.216C215.729 125 215.502 125.699 215.047 126.312C214.598 126.92 213.971 127.398 213.164 127.744C212.363 128.091 211.434 128.264 210.377 128.264C208.911 128.264 207.715 127.952 206.789 127.327C205.863 126.696 205.294 125.801 205.084 124.642L207.547 124.267C207.701 124.909 208.016 125.395 208.493 125.724C208.971 126.048 209.593 126.21 210.36 126.21C211.195 126.21 211.863 126.037 212.363 125.69C212.863 125.338 213.113 124.909 213.113 124.403C213.113 123.994 212.959 123.651 212.652 123.372C212.351 123.094 211.888 122.884 211.263 122.741L209.047 122.256C207.826 121.977 206.922 121.534 206.337 120.926C205.757 120.318 205.468 119.548 205.468 118.616C205.468 117.844 205.684 117.168 206.115 116.588C206.547 116.009 207.144 115.557 207.905 115.233C208.667 114.903 209.539 114.739 210.522 114.739C211.936 114.739 213.05 115.045 213.863 115.659C214.675 116.267 215.212 117.082 215.473 118.105ZM223.453 128.264C222.163 128.264 221.052 127.989 220.121 127.438C219.194 126.881 218.478 126.099 217.973 125.094C217.473 124.082 217.223 122.898 217.223 121.54C217.223 120.199 217.473 119.017 217.973 117.994C218.478 116.972 219.183 116.173 220.086 115.599C220.996 115.026 222.058 114.739 223.274 114.739C224.013 114.739 224.728 114.861 225.422 115.105C226.115 115.349 226.737 115.733 227.288 116.256C227.839 116.778 228.274 117.457 228.592 118.293C228.91 119.122 229.069 120.131 229.069 121.318V122.222H218.663V120.312H226.572C226.572 119.642 226.436 119.048 226.163 118.531C225.89 118.009 225.507 117.597 225.013 117.295C224.524 116.994 223.95 116.844 223.291 116.844C222.575 116.844 221.95 117.02 221.416 117.372C220.888 117.719 220.478 118.173 220.189 118.736C219.905 119.293 219.763 119.898 219.763 120.551V122.043C219.763 122.918 219.916 123.662 220.223 124.276C220.535 124.889 220.97 125.358 221.527 125.682C222.084 126 222.734 126.159 223.478 126.159C223.961 126.159 224.402 126.091 224.8 125.955C225.197 125.812 225.541 125.602 225.831 125.324C226.121 125.045 226.342 124.702 226.496 124.293L228.907 124.727C228.714 125.437 228.368 126.06 227.868 126.594C227.373 127.122 226.751 127.534 226.001 127.83C225.257 128.119 224.407 128.264 223.453 128.264ZM234.986 128.29C234.157 128.29 233.407 128.136 232.736 127.83C232.066 127.517 231.535 127.065 231.143 126.474C230.756 125.884 230.563 125.159 230.563 124.301C230.563 123.562 230.705 122.955 230.989 122.477C231.273 122 231.657 121.622 232.14 121.344C232.623 121.065 233.163 120.855 233.759 120.713C234.356 120.571 234.964 120.463 235.583 120.389C236.367 120.298 237.004 120.224 237.492 120.168C237.981 120.105 238.336 120.006 238.557 119.869C238.779 119.733 238.89 119.511 238.89 119.205V119.145C238.89 118.401 238.68 117.824 238.259 117.415C237.844 117.006 237.225 116.801 236.401 116.801C235.543 116.801 234.867 116.991 234.373 117.372C233.884 117.747 233.546 118.165 233.359 118.625L230.964 118.08C231.248 117.284 231.663 116.642 232.208 116.153C232.759 115.659 233.393 115.301 234.109 115.08C234.825 114.852 235.577 114.739 236.367 114.739C236.89 114.739 237.444 114.801 238.029 114.926C238.62 115.045 239.171 115.267 239.682 115.591C240.2 115.915 240.623 116.378 240.952 116.98C241.282 117.577 241.447 118.352 241.447 119.307V128H238.958V126.21H238.856C238.691 126.54 238.444 126.864 238.114 127.182C237.785 127.5 237.361 127.764 236.844 127.974C236.327 128.185 235.708 128.29 234.986 128.29ZM235.54 126.244C236.245 126.244 236.847 126.105 237.347 125.827C237.853 125.548 238.236 125.185 238.498 124.736C238.765 124.281 238.898 123.795 238.898 123.278V121.591C238.807 121.682 238.631 121.767 238.37 121.847C238.114 121.92 237.822 121.986 237.492 122.043C237.163 122.094 236.842 122.142 236.529 122.188C236.217 122.227 235.955 122.261 235.745 122.29C235.251 122.352 234.799 122.457 234.39 122.605C233.986 122.753 233.663 122.966 233.418 123.244C233.18 123.517 233.06 123.881 233.06 124.335C233.06 124.966 233.293 125.443 233.759 125.767C234.225 126.085 234.819 126.244 235.54 126.244ZM244.121 128V114.909H246.584V116.989H246.72C246.959 116.284 247.379 115.73 247.982 115.327C248.59 114.918 249.277 114.713 250.044 114.713C250.203 114.713 250.391 114.719 250.607 114.73C250.828 114.741 251.002 114.756 251.127 114.773V117.21C251.024 117.182 250.842 117.151 250.581 117.116C250.32 117.077 250.058 117.057 249.797 117.057C249.195 117.057 248.658 117.185 248.186 117.44C247.72 117.69 247.351 118.04 247.078 118.489C246.806 118.932 246.669 119.437 246.669 120.006V128H244.121ZM257.657 128.264C256.39 128.264 255.299 127.977 254.385 127.403C253.475 126.824 252.777 126.026 252.288 125.009C251.799 123.991 251.555 122.827 251.555 121.514C251.555 120.185 251.805 119.011 252.305 117.994C252.805 116.972 253.51 116.173 254.419 115.599C255.328 115.026 256.399 114.739 257.632 114.739C258.626 114.739 259.512 114.923 260.291 115.293C261.069 115.656 261.697 116.168 262.174 116.827C262.657 117.486 262.944 118.256 263.035 119.136H260.555C260.419 118.523 260.106 117.994 259.618 117.551C259.135 117.108 258.487 116.886 257.674 116.886C256.964 116.886 256.342 117.074 255.808 117.449C255.279 117.818 254.868 118.347 254.572 119.034C254.277 119.716 254.129 120.523 254.129 121.455C254.129 122.409 254.274 123.233 254.564 123.926C254.853 124.619 255.262 125.156 255.791 125.537C256.325 125.918 256.953 126.108 257.674 126.108C258.157 126.108 258.595 126.02 258.987 125.844C259.385 125.662 259.717 125.403 259.984 125.068C260.257 124.733 260.447 124.33 260.555 123.858H263.035C262.944 124.705 262.669 125.46 262.208 126.125C261.748 126.79 261.132 127.312 260.359 127.693C259.592 128.074 258.691 128.264 257.657 128.264ZM267.589 120.227V128H265.04V110.545H267.554V117.04H267.716C268.023 116.335 268.492 115.776 269.123 115.361C269.753 114.946 270.577 114.739 271.594 114.739C272.492 114.739 273.276 114.923 273.947 115.293C274.623 115.662 275.145 116.213 275.515 116.946C275.89 117.673 276.077 118.582 276.077 119.673V128H273.529V119.98C273.529 119.02 273.282 118.276 272.787 117.747C272.293 117.213 271.606 116.946 270.725 116.946C270.123 116.946 269.583 117.074 269.106 117.33C268.634 117.585 268.262 117.96 267.989 118.455C267.722 118.943 267.589 119.534 267.589 120.227Z" fill="black"/>
<path fill-rule="evenodd" clip-rule="evenodd" d="M223 0V24L247 24V48L271 48V72H247H223V48H199V72H175V48V24L199 24V0H223Z" fill="#854EFF"/>
<path fill-rule="evenodd" clip-rule="evenodd" d="M183 8H191V16H183V8ZM271 80V88L175 88V80L271 80ZM239 8H231V16H239V8ZM255 32H263V40H255V32ZM215 56H207V64H215V56Z" fill="#C4A9FF"/>
<path d="M1.91761 128V110.545H8.1392C9.49716 110.545 10.6222 110.793 11.5142 111.287C12.4063 111.781 13.0739 112.457 13.517 113.315C13.9602 114.168 14.1818 115.128 14.1818 116.196C14.1818 117.27 13.9574 118.236 13.5085 119.094C13.0653 119.946 12.3949 120.622 11.4972 121.122C10.6051 121.616 9.48295 121.864 8.13068 121.864H3.85227V119.631H7.89205C8.75 119.631 9.44602 119.483 9.98011 119.188C10.5142 118.886 10.9062 118.477 11.1562 117.96C11.4062 117.443 11.5312 116.855 11.5312 116.196C11.5312 115.537 11.4062 114.952 11.1562 114.44C10.9062 113.929 10.5114 113.528 9.97159 113.239C9.4375 112.949 8.73295 112.804 7.85795 112.804H4.55114V128H1.91761ZM21.8226 128.264C20.5328 128.264 19.422 127.989 18.4902 127.438C17.5641 126.881 16.8482 126.099 16.3425 125.094C15.8425 124.082 15.5925 122.898 15.5925 121.54C15.5925 120.199 15.8425 119.017 16.3425 117.994C16.8482 116.972 17.5527 116.173 18.4561 115.599C19.3652 115.026 20.4277 114.739 21.6436 114.739C22.3823 114.739 23.0982 114.861 23.7914 115.105C24.4845 115.349 25.1067 115.733 25.6578 116.256C26.209 116.778 26.6436 117.457 26.9618 118.293C27.28 119.122 27.4391 120.131 27.4391 121.318V122.222H17.0328V120.312H24.9419C24.9419 119.642 24.8056 119.048 24.5328 118.531C24.2601 118.009 23.8766 117.597 23.3823 117.295C22.8936 116.994 22.3198 116.844 21.6607 116.844C20.9448 116.844 20.3198 117.02 19.7857 117.372C19.2573 117.719 18.8482 118.173 18.5584 118.736C18.2743 119.293 18.1323 119.898 18.1323 120.551V122.043C18.1323 122.918 18.2857 123.662 18.5925 124.276C18.905 124.889 19.3397 125.358 19.8965 125.682C20.4533 126 21.1039 126.159 21.8482 126.159C22.3311 126.159 22.7715 126.091 23.1692 125.955C23.5669 125.812 23.9107 125.602 24.2005 125.324C24.4902 125.045 24.7118 124.702 24.8652 124.293L27.2772 124.727C27.084 125.437 26.7374 126.06 26.2374 126.594C25.7431 127.122 25.1209 127.534 24.3709 127.83C23.6266 128.119 22.7772 128.264 21.8226 128.264ZM29.5465 128V114.909H32.0096V116.989H32.1459C32.3846 116.284 32.805 115.73 33.4073 115.327C34.0153 114.918 34.7028 114.713 35.4698 114.713C35.6289 114.713 35.8164 114.719 36.0323 114.73C36.2539 114.741 36.4272 114.756 36.5522 114.773V117.21C36.4499 117.182 36.2681 117.151 36.0067 117.116C35.7454 117.077 35.484 117.057 35.2226 117.057C34.6204 117.057 34.0834 117.185 33.6118 117.44C33.1459 117.69 32.7766 118.04 32.5039 118.489C32.2312 118.932 32.0948 119.437 32.0948 120.006V128H29.5465ZM47.8471 118.105L45.5374 118.514C45.4409 118.219 45.2874 117.937 45.0772 117.67C44.8727 117.403 44.5943 117.185 44.242 117.014C43.8897 116.844 43.4494 116.759 42.921 116.759C42.1994 116.759 41.5971 116.92 41.1141 117.244C40.6312 117.562 40.3897 117.974 40.3897 118.48C40.3897 118.918 40.5516 119.27 40.8755 119.537C41.1994 119.804 41.7221 120.023 42.4437 120.193L44.5232 120.67C45.7278 120.949 46.6255 121.378 47.2164 121.957C47.8073 122.537 48.1028 123.29 48.1028 124.216C48.1028 125 47.8755 125.699 47.421 126.312C46.9721 126.92 46.3443 127.398 45.5374 127.744C44.7363 128.091 43.8073 128.264 42.7505 128.264C41.2846 128.264 40.0886 127.952 39.1624 127.327C38.2363 126.696 37.6681 125.801 37.4579 124.642L39.921 124.267C40.0744 124.909 40.3897 125.395 40.867 125.724C41.3443 126.048 41.9664 126.21 42.7335 126.21C43.5687 126.21 44.2363 126.037 44.7363 125.69C45.2363 125.338 45.4863 124.909 45.4863 124.403C45.4863 123.994 45.3329 123.651 45.0261 123.372C44.7249 123.094 44.2619 122.884 43.6369 122.741L41.421 122.256C40.1994 121.977 39.296 121.534 38.7107 120.926C38.1312 120.318 37.8414 119.548 37.8414 118.616C37.8414 117.844 38.0573 117.168 38.4891 116.588C38.921 116.009 39.5176 115.557 40.2789 115.233C41.0403 114.903 41.9124 114.739 42.8954 114.739C44.3102 114.739 45.4238 115.045 46.2363 115.659C47.0488 116.267 47.5857 117.082 47.8471 118.105ZM55.6988 128.264C54.4716 128.264 53.4005 127.983 52.4858 127.42C51.571 126.858 50.8608 126.071 50.3551 125.06C49.8494 124.048 49.5966 122.866 49.5966 121.514C49.5966 120.156 49.8494 118.969 50.3551 117.952C50.8608 116.935 51.571 116.145 52.4858 115.582C53.4005 115.02 54.4716 114.739 55.6988 114.739C56.9261 114.739 57.9971 115.02 58.9119 115.582C59.8267 116.145 60.5369 116.935 61.0426 117.952C61.5483 118.969 61.8011 120.156 61.8011 121.514C61.8011 122.866 61.5483 124.048 61.0426 125.06C60.5369 126.071 59.8267 126.858 58.9119 127.42C57.9971 127.983 56.9261 128.264 55.6988 128.264ZM55.7074 126.125C56.5028 126.125 57.1619 125.915 57.6846 125.494C58.2074 125.074 58.5937 124.514 58.8437 123.815C59.0994 123.116 59.2272 122.347 59.2272 121.506C59.2272 120.67 59.0994 119.903 58.8437 119.205C58.5937 118.5 58.2074 117.935 57.6846 117.509C57.1619 117.082 56.5028 116.869 55.7074 116.869C54.9062 116.869 54.2414 117.082 53.713 117.509C53.1903 117.935 52.8011 118.5 52.5454 119.205C52.2954 119.903 52.1704 120.67 52.1704 121.506C52.1704 122.347 52.2954 123.116 52.5454 123.815C52.8011 124.514 53.1903 125.074 53.713 125.494C54.2414 125.915 54.9062 126.125 55.7074 126.125ZM66.4739 120.227V128H63.9256V114.909H66.3716V117.04H66.5335C66.8347 116.347 67.3063 115.79 67.9483 115.369C68.596 114.949 69.4114 114.739 70.3943 114.739C71.2864 114.739 72.0676 114.926 72.7381 115.301C73.4085 115.67 73.9284 116.222 74.2977 116.955C74.667 117.687 74.8517 118.594 74.8517 119.673V128H72.3034V119.98C72.3034 119.031 72.0563 118.29 71.5619 117.756C71.0676 117.216 70.3886 116.946 69.525 116.946C68.9341 116.946 68.4085 117.074 67.9483 117.33C67.4938 117.585 67.133 117.96 66.8659 118.455C66.6045 118.943 66.4739 119.534 66.4739 120.227ZM81.359 128.29C80.5294 128.29 79.7794 128.136 79.109 127.83C78.4385 127.517 77.9073 127.065 77.5152 126.474C77.1289 125.884 76.9357 125.159 76.9357 124.301C76.9357 123.562 77.0777 122.955 77.3618 122.477C77.6459 122 78.0294 121.622 78.5124 121.344C78.9953 121.065 79.5351 120.855 80.1317 120.713C80.7283 120.571 81.3363 120.463 81.9556 120.389C82.7397 120.298 83.376 120.224 83.8647 120.168C84.3533 120.105 84.7084 120.006 84.93 119.869C85.1516 119.733 85.2624 119.511 85.2624 119.205V119.145C85.2624 118.401 85.0522 117.824 84.6317 117.415C84.2169 117.006 83.5976 116.801 82.7738 116.801C81.9158 116.801 81.2397 116.991 80.7453 117.372C80.2567 117.747 79.9186 118.165 79.7311 118.625L77.3363 118.08C77.6203 117.284 78.0351 116.642 78.5806 116.153C79.1317 115.659 79.7652 115.301 80.4811 115.08C81.197 114.852 81.9499 114.739 82.7397 114.739C83.2624 114.739 83.8164 114.801 84.4016 114.926C84.9925 115.045 85.5436 115.267 86.055 115.591C86.572 115.915 86.9953 116.378 87.3249 116.98C87.6544 117.577 87.8192 118.352 87.8192 119.307V128H85.3306V126.21H85.2283C85.0635 126.54 84.8164 126.864 84.4868 127.182C84.1573 127.5 83.734 127.764 83.2169 127.974C82.6999 128.185 82.0806 128.29 81.359 128.29ZM81.913 126.244C82.6175 126.244 83.2198 126.105 83.7198 125.827C84.2255 125.548 84.609 125.185 84.8703 124.736C85.1374 124.281 85.2709 123.795 85.2709 123.278V121.591C85.18 121.682 85.0039 121.767 84.7425 121.847C84.4868 121.92 84.1942 121.986 83.8647 122.043C83.5351 122.094 83.2141 122.142 82.9016 122.188C82.5891 122.227 82.3277 122.261 82.1175 122.29C81.6232 122.352 81.1715 122.457 80.7624 122.605C80.359 122.753 80.0351 122.966 79.7908 123.244C79.5522 123.517 79.4328 123.881 79.4328 124.335C79.4328 124.966 79.6658 125.443 80.1317 125.767C80.5976 126.085 81.1914 126.244 81.913 126.244ZM100.303 118.105L97.9934 118.514C97.8968 118.219 97.7434 117.937 97.5332 117.67C97.3286 117.403 97.0502 117.185 96.6979 117.014C96.3457 116.844 95.9053 116.759 95.3769 116.759C94.6553 116.759 94.053 116.92 93.5701 117.244C93.0871 117.562 92.8457 117.974 92.8457 118.48C92.8457 118.918 93.0076 119.27 93.3314 119.537C93.6553 119.804 94.178 120.023 94.8996 120.193L96.9792 120.67C98.1837 120.949 99.0814 121.378 99.6724 121.957C100.263 122.537 100.559 123.29 100.559 124.216C100.559 125 100.331 125.699 99.8769 126.312C99.428 126.92 98.8002 127.398 97.9934 127.744C97.1922 128.091 96.2633 128.264 95.2064 128.264C93.7405 128.264 92.5445 127.952 91.6184 127.327C90.6922 126.696 90.1241 125.801 89.9138 124.642L92.3769 124.267C92.5303 124.909 92.8457 125.395 93.3229 125.724C93.8002 126.048 94.4224 126.21 95.1894 126.21C96.0246 126.21 96.6922 126.037 97.1922 125.69C97.6922 125.338 97.9422 124.909 97.9422 124.403C97.9422 123.994 97.7888 123.651 97.482 123.372C97.1809 123.094 96.7178 122.884 96.0928 122.741L93.8769 122.256C92.6553 121.977 91.7519 121.534 91.1667 120.926C90.5871 120.318 90.2974 119.548 90.2974 118.616C90.2974 117.844 90.5133 117.168 90.9451 116.588C91.3769 116.009 91.9735 115.557 92.7349 115.233C93.4962 114.903 94.3684 114.739 95.3513 114.739C96.7661 114.739 97.8797 115.045 98.6922 115.659C99.5047 116.267 100.042 117.082 100.303 118.105Z" fill="black"/>
<path fill-rule="evenodd" clip-rule="evenodd" d="M58 16V56H34V16H58ZM26 32V56H2V32L26 32ZM90 56V24L66 24V56H90Z" fill="#B98E01"/>
<path fill-rule="evenodd" clip-rule="evenodd" d="M42 0H50V8H42V0ZM18 16H10V24H18V16ZM26 64V72H2V64H26ZM26 80V88H2V80H26ZM58 72V64H34V72H58ZM58 80V88H34V80H58ZM90 72V64H66V72H90ZM90 80V88H66V80H90ZM82 8H74V16H82V8Z" fill="#E6C867"/>
<path d="M354.142 110.545H356.784V122.026C356.784 123.247 356.497 124.33 355.923 125.273C355.349 126.21 354.543 126.949 353.503 127.489C352.463 128.023 351.244 128.29 349.847 128.29C348.455 128.29 347.239 128.023 346.199 127.489C345.159 126.949 344.352 126.21 343.778 125.273C343.205 124.33 342.918 123.247 342.918 122.026V110.545H345.551V121.812C345.551 122.602 345.724 123.304 346.071 123.918C346.423 124.531 346.92 125.014 347.562 125.366C348.205 125.713 348.966 125.886 349.847 125.886C350.733 125.886 351.497 125.713 352.139 125.366C352.787 125.014 353.281 124.531 353.622 123.918C353.969 123.304 354.142 122.602 354.142 121.812V110.545ZM369.498 118.105L367.188 118.514C367.092 118.219 366.938 117.937 366.728 117.67C366.524 117.403 366.245 117.185 365.893 117.014C365.541 116.844 365.1 116.759 364.572 116.759C363.85 116.759 363.248 116.92 362.765 117.244C362.282 117.562 362.041 117.974 362.041 118.48C362.041 118.918 362.203 119.27 362.526 119.537C362.85 119.804 363.373 120.023 364.095 120.193L366.174 120.67C367.379 120.949 368.276 121.378 368.867 121.957C369.458 122.537 369.754 123.29 369.754 124.216C369.754 125 369.526 125.699 369.072 126.312C368.623 126.92 367.995 127.398 367.188 127.744C366.387 128.091 365.458 128.264 364.401 128.264C362.936 128.264 361.74 127.952 360.813 127.327C359.887 126.696 359.319 125.801 359.109 124.642L361.572 124.267C361.725 124.909 362.041 125.395 362.518 125.724C362.995 126.048 363.617 126.21 364.384 126.21C365.22 126.21 365.887 126.037 366.387 125.69C366.887 125.338 367.137 124.909 367.137 124.403C367.137 123.994 366.984 123.651 366.677 123.372C366.376 123.094 365.913 122.884 365.288 122.741L363.072 122.256C361.85 121.977 360.947 121.534 360.362 120.926C359.782 120.318 359.492 119.548 359.492 118.616C359.492 117.844 359.708 117.168 360.14 116.588C360.572 116.009 361.168 115.557 361.93 115.233C362.691 114.903 363.563 114.739 364.546 114.739C365.961 114.739 367.075 115.045 367.887 115.659C368.7 116.267 369.237 117.082 369.498 118.105ZM377.478 128.264C376.188 128.264 375.077 127.989 374.145 127.438C373.219 126.881 372.503 126.099 371.997 125.094C371.497 124.082 371.247 122.898 371.247 121.54C371.247 120.199 371.497 119.017 371.997 117.994C372.503 116.972 373.208 116.173 374.111 115.599C375.02 115.026 376.083 114.739 377.299 114.739C378.037 114.739 378.753 114.861 379.446 115.105C380.14 115.349 380.762 115.733 381.313 116.256C381.864 116.778 382.299 117.457 382.617 118.293C382.935 119.122 383.094 120.131 383.094 121.318V122.222H372.688V120.312H380.597C380.597 119.642 380.461 119.048 380.188 118.531C379.915 118.009 379.532 117.597 379.037 117.295C378.549 116.994 377.975 116.844 377.316 116.844C376.6 116.844 375.975 117.02 375.441 117.372C374.912 117.719 374.503 118.173 374.213 118.736C373.929 119.293 373.787 119.898 373.787 120.551V122.043C373.787 122.918 373.941 123.662 374.247 124.276C374.56 124.889 374.995 125.358 375.551 125.682C376.108 126 376.759 126.159 377.503 126.159C377.986 126.159 378.426 126.091 378.824 125.955C379.222 125.812 379.566 125.602 379.855 125.324C380.145 125.045 380.367 124.702 380.52 124.293L382.932 124.727C382.739 125.437 382.392 126.06 381.892 126.594C381.398 127.122 380.776 127.534 380.026 127.83C379.282 128.119 378.432 128.264 377.478 128.264ZM385.202 128V114.909H387.665V116.989H387.801C388.04 116.284 388.46 115.73 389.062 115.327C389.67 114.918 390.358 114.713 391.125 114.713C391.284 114.713 391.471 114.719 391.687 114.73C391.909 114.741 392.082 114.756 392.207 114.773V117.21C392.105 117.182 391.923 117.151 391.662 117.116C391.4 117.077 391.139 117.057 390.878 117.057C390.275 117.057 389.738 117.185 389.267 117.44C388.801 117.69 388.432 118.04 388.159 118.489C387.886 118.932 387.75 119.437 387.75 120.006V128H385.202ZM399.529 128V110.545H410.352V112.812H402.162V118.131H409.577V120.389H402.162V128H399.529ZM415.215 110.545V128H412.667V110.545H415.215ZM423.437 128.264C422.21 128.264 421.139 127.983 420.224 127.42C419.309 126.858 418.599 126.071 418.094 125.06C417.588 124.048 417.335 122.866 417.335 121.514C417.335 120.156 417.588 118.969 418.094 117.952C418.599 116.935 419.309 116.145 420.224 115.582C421.139 115.02 422.21 114.739 423.437 114.739C424.665 114.739 425.736 115.02 426.65 115.582C427.565 116.145 428.275 116.935 428.781 117.952C429.287 118.969 429.54 120.156 429.54 121.514C429.54 122.866 429.287 124.048 428.781 125.06C428.275 126.071 427.565 126.858 426.65 127.42C425.736 127.983 424.665 128.264 423.437 128.264ZM423.446 126.125C424.241 126.125 424.9 125.915 425.423 125.494C425.946 125.074 426.332 124.514 426.582 123.815C426.838 123.116 426.966 122.347 426.966 121.506C426.966 120.67 426.838 119.903 426.582 119.205C426.332 118.5 425.946 117.935 425.423 117.509C424.9 117.082 424.241 116.869 423.446 116.869C422.645 116.869 421.98 117.082 421.451 117.509C420.929 117.935 420.54 118.5 420.284 119.205C420.034 119.903 419.909 120.67 419.909 121.506C419.909 122.347 420.034 123.116 420.284 123.815C420.54 124.514 420.929 125.074 421.451 125.494C421.98 125.915 422.645 126.125 423.446 126.125ZM434.104 128L430.251 114.909H432.885L435.45 124.523H435.578L438.152 114.909H440.785L443.342 124.48H443.47L446.018 114.909H448.652L444.808 128H442.209L439.55 118.548H439.354L436.695 128H434.104ZM460.16 118.105L457.85 118.514C457.754 118.219 457.6 117.937 457.39 117.67C457.185 117.403 456.907 117.185 456.555 117.014C456.203 116.844 455.762 116.759 455.234 116.759C454.512 116.759 453.91 116.92 453.427 117.244C452.944 117.562 452.703 117.974 452.703 118.48C452.703 118.918 452.864 119.27 453.188 119.537C453.512 119.804 454.035 120.023 454.757 120.193L456.836 120.67C458.041 120.949 458.938 121.378 459.529 121.957C460.12 122.537 460.416 123.29 460.416 124.216C460.416 125 460.188 125.699 459.734 126.312C459.285 126.92 458.657 127.398 457.85 127.744C457.049 128.091 456.12 128.264 455.063 128.264C453.597 128.264 452.401 127.952 451.475 127.327C450.549 126.696 449.981 125.801 449.771 124.642L452.234 124.267C452.387 124.909 452.703 125.395 453.18 125.724C453.657 126.048 454.279 126.21 455.046 126.21C455.882 126.21 456.549 126.037 457.049 125.69C457.549 125.338 457.799 124.909 457.799 124.403C457.799 123.994 457.646 123.651 457.339 123.372C457.038 123.094 456.575 122.884 455.95 122.741L453.734 122.256C452.512 121.977 451.609 121.534 451.024 120.926C450.444 120.318 450.154 119.548 450.154 118.616C450.154 117.844 450.37 117.168 450.802 116.588C451.234 116.009 451.83 115.557 452.592 115.233C453.353 114.903 454.225 114.739 455.208 114.739C456.623 114.739 457.737 115.045 458.549 115.659C459.362 116.267 459.899 117.082 460.16 118.105Z" fill="black"/>
<path fill-rule="evenodd" clip-rule="evenodd" d="M434 24V16L394 16V24L394 32L362 32V40L394 40H402L434 40V32L402 32L402 24L434 24ZM434 80V88L362 88V80L434 80ZM450 56V48H418H410L378 48V56H410L410 64L378 64V72H410L418 72V64L418 56H450Z" fill="#D034F5"/>
<path d="M26.0568 139.273H27.3182L30.2841 146.517H30.3864L33.3523 139.273H34.6136V148H33.625V141.369H33.5398L30.8125 148H29.858L27.1307 141.369H27.0455V148H26.0568V139.273ZM38.8953 148.136C38.3044 148.136 37.786 147.996 37.3399 147.714C36.8967 147.433 36.5502 147.04 36.3002 146.534C36.053 146.028 35.9294 145.437 35.9294 144.761C35.9294 144.08 36.053 143.484 36.3002 142.976C36.5502 142.467 36.8967 142.072 37.3399 141.791C37.786 141.51 38.3044 141.369 38.8953 141.369C39.4862 141.369 40.0033 141.51 40.4465 141.791C40.8925 142.072 41.2391 142.467 41.4862 142.976C41.7362 143.484 41.8612 144.08 41.8612 144.761C41.8612 145.437 41.7362 146.028 41.4862 146.534C41.2391 147.04 40.8925 147.433 40.4465 147.714C40.0033 147.996 39.4862 148.136 38.8953 148.136ZM38.8953 147.233C39.3442 147.233 39.7135 147.118 40.0033 146.888C40.2931 146.658 40.5075 146.355 40.6467 145.98C40.786 145.605 40.8556 145.199 40.8556 144.761C40.8556 144.324 40.786 143.916 40.6467 143.538C40.5075 143.161 40.2931 142.855 40.0033 142.622C39.7135 142.389 39.3442 142.273 38.8953 142.273C38.4465 142.273 38.0771 142.389 37.7874 142.622C37.4976 142.855 37.2831 143.161 37.1439 143.538C37.0047 143.916 36.9351 144.324 36.9351 144.761C36.9351 145.199 37.0047 145.605 37.1439 145.98C37.2831 146.355 37.4976 146.658 37.7874 146.888C38.0771 147.118 38.4465 147.233 38.8953 147.233ZM44.0421 144.062V148H43.0364V141.455H44.008V142.477H44.0932C44.2466 142.145 44.4796 141.878 44.7921 141.676C45.1046 141.472 45.508 141.369 46.0023 141.369C46.4455 141.369 46.8333 141.46 47.1657 141.642C47.498 141.821 47.7566 142.094 47.9412 142.46C48.1259 142.824 48.2182 143.284 48.2182 143.841V148H47.2125V143.909C47.2125 143.395 47.079 142.994 46.812 142.707C46.5449 142.418 46.1784 142.273 45.7125 142.273C45.3915 142.273 45.1046 142.342 44.8517 142.482C44.6017 142.621 44.4043 142.824 44.2594 143.091C44.1145 143.358 44.0421 143.682 44.0421 144.062ZM52.1675 148.136C51.6221 148.136 51.1405 147.999 50.7229 147.723C50.3053 147.445 49.9786 147.053 49.7428 146.547C49.507 146.038 49.3891 145.438 49.3891 144.744C49.3891 144.057 49.507 143.46 49.7428 142.955C49.9786 142.449 50.3067 142.058 50.7272 141.783C51.1476 141.507 51.6334 141.369 52.1846 141.369C52.6107 141.369 52.9473 141.44 53.1945 141.582C53.4445 141.722 53.6348 141.881 53.7655 142.06C53.899 142.236 54.0027 142.381 54.0766 142.494H54.1618V139.273H55.1675V148H54.1959V146.994H54.0766C54.0027 147.114 53.8976 147.264 53.7613 147.446C53.6249 147.625 53.4303 147.786 53.1775 147.928C52.9246 148.067 52.588 148.136 52.1675 148.136ZM52.3039 147.233C52.7073 147.233 53.0482 147.128 53.3266 146.918C53.605 146.705 53.8167 146.411 53.9615 146.036C54.1064 145.658 54.1789 145.222 54.1789 144.727C54.1789 144.239 54.1079 143.811 53.9658 143.445C53.8238 143.075 53.6135 142.788 53.3351 142.584C53.0567 142.376 52.713 142.273 52.3039 142.273C51.8777 142.273 51.5226 142.382 51.2385 142.601C50.9573 142.817 50.7456 143.111 50.6036 143.483C50.4644 143.852 50.3948 144.267 50.3948 144.727C50.3948 145.193 50.4658 145.616 50.6079 145.997C50.7527 146.375 50.9658 146.676 51.2471 146.901C51.5312 147.122 51.8834 147.233 52.3039 147.233ZM58.7152 148.153C58.3004 148.153 57.924 148.075 57.5859 147.919C57.2479 147.76 56.9794 147.531 56.7805 147.233C56.5817 146.932 56.4822 146.568 56.4822 146.142C56.4822 145.767 56.5561 145.463 56.7038 145.23C56.8515 144.994 57.049 144.81 57.2962 144.676C57.5433 144.543 57.816 144.443 58.1143 144.378C58.4155 144.31 58.718 144.256 59.022 144.216C59.4197 144.165 59.7422 144.126 59.9893 144.101C60.2393 144.072 60.4212 144.026 60.5348 143.96C60.6513 143.895 60.7095 143.781 60.7095 143.619V143.585C60.7095 143.165 60.5944 142.838 60.3643 142.605C60.1371 142.372 59.7919 142.256 59.3288 142.256C58.8487 142.256 58.4723 142.361 58.1996 142.571C57.9268 142.781 57.7351 143.006 57.6243 143.244L56.6697 142.903C56.8402 142.506 57.0675 142.196 57.3515 141.974C57.6385 141.75 57.951 141.594 58.289 141.506C58.63 141.415 58.9652 141.369 59.2947 141.369C59.505 141.369 59.7464 141.395 60.0192 141.446C60.2947 141.494 60.5604 141.595 60.816 141.749C61.0746 141.902 61.289 142.134 61.4595 142.443C61.63 142.753 61.7152 143.168 61.7152 143.688V148H60.7095V147.114H60.6584C60.5902 147.256 60.4765 147.408 60.3175 147.57C60.1584 147.732 59.9467 147.869 59.6825 147.983C59.4183 148.097 59.0959 148.153 58.7152 148.153ZM58.8686 147.25C59.2663 147.25 59.6015 147.172 59.8743 147.016C60.1498 146.859 60.3572 146.658 60.4964 146.411C60.6385 146.163 60.7095 145.903 60.7095 145.631V144.71C60.6669 144.761 60.5731 144.808 60.4283 144.851C60.2862 144.891 60.1214 144.926 59.9339 144.957C59.7493 144.986 59.5689 145.011 59.3927 145.034C59.2194 145.054 59.0788 145.071 58.9709 145.085C58.7095 145.119 58.4652 145.175 58.2379 145.251C58.0135 145.325 57.8317 145.437 57.6925 145.588C57.5561 145.736 57.4879 145.937 57.4879 146.193C57.4879 146.543 57.6172 146.807 57.8757 146.986C58.1371 147.162 58.468 147.25 58.8686 147.25ZM63.6041 150.455C63.4337 150.455 63.2817 150.44 63.1482 150.412C63.0146 150.386 62.9223 150.361 62.8712 150.335L63.1268 149.449C63.3712 149.511 63.5871 149.534 63.7746 149.517C63.9621 149.5 64.1283 149.416 64.2732 149.266C64.4209 149.118 64.5558 148.878 64.678 148.545L64.8655 148.034L62.445 141.455H63.5359L65.3428 146.67H65.4109L67.2178 141.455H68.3087L65.5303 148.955C65.4053 149.293 65.2504 149.572 65.0658 149.794C64.8811 150.018 64.6666 150.185 64.4223 150.293C64.1808 150.401 63.9081 150.455 63.6041 150.455Z" fill="#7C7C7C"/>
<path d="M201.58 140.21V139.273H208.125V140.21H205.381V148H204.324V140.21H201.58ZM212.494 145.324V141.455H213.5V148H212.494V146.892H212.426C212.272 147.224 212.034 147.507 211.71 147.74C211.386 147.97 210.977 148.085 210.483 148.085C210.074 148.085 209.71 147.996 209.392 147.817C209.074 147.635 208.824 147.362 208.642 146.999C208.46 146.632 208.369 146.17 208.369 145.614V141.455H209.375V145.545C209.375 146.023 209.508 146.403 209.775 146.688C210.045 146.972 210.389 147.114 210.807 147.114C211.057 147.114 211.311 147.05 211.569 146.922C211.831 146.794 212.049 146.598 212.226 146.334C212.405 146.07 212.494 145.733 212.494 145.324ZM217.726 148.136C217.095 148.136 216.551 147.997 216.094 147.719C215.639 147.438 215.289 147.045 215.041 146.543C214.797 146.037 214.675 145.449 214.675 144.778C214.675 144.108 214.797 143.517 215.041 143.006C215.289 142.491 215.632 142.091 216.073 141.804C216.516 141.514 217.033 141.369 217.624 141.369C217.965 141.369 218.301 141.426 218.634 141.54C218.966 141.653 219.269 141.838 219.541 142.094C219.814 142.347 220.031 142.682 220.193 143.099C220.355 143.517 220.436 144.031 220.436 144.642V145.068H215.391V144.199H219.414C219.414 143.83 219.34 143.5 219.192 143.21C219.047 142.92 218.84 142.692 218.57 142.524C218.303 142.357 217.987 142.273 217.624 142.273C217.223 142.273 216.877 142.372 216.584 142.571C216.294 142.767 216.071 143.023 215.915 143.338C215.759 143.653 215.681 143.991 215.681 144.352V144.932C215.681 145.426 215.766 145.845 215.936 146.189C216.11 146.53 216.35 146.79 216.656 146.969C216.963 147.145 217.32 147.233 217.726 147.233C217.99 147.233 218.229 147.196 218.442 147.122C218.658 147.045 218.844 146.932 219 146.781C219.156 146.628 219.277 146.437 219.362 146.21L220.334 146.483C220.232 146.812 220.06 147.102 219.818 147.352C219.577 147.599 219.279 147.793 218.923 147.932C218.568 148.068 218.169 148.136 217.726 148.136ZM226.242 142.92L225.339 143.176C225.282 143.026 225.198 142.879 225.088 142.737C224.98 142.592 224.832 142.473 224.644 142.379C224.457 142.286 224.217 142.239 223.924 142.239C223.524 142.239 223.19 142.331 222.923 142.516C222.659 142.697 222.527 142.929 222.527 143.21C222.527 143.46 222.617 143.658 222.799 143.803C222.981 143.947 223.265 144.068 223.652 144.165L224.623 144.403C225.208 144.545 225.644 144.763 225.931 145.055C226.218 145.345 226.362 145.719 226.362 146.176C226.362 146.551 226.254 146.886 226.038 147.182C225.825 147.477 225.527 147.71 225.143 147.881C224.759 148.051 224.313 148.136 223.805 148.136C223.137 148.136 222.585 147.991 222.147 147.702C221.71 147.412 221.433 146.989 221.316 146.432L222.271 146.193C222.362 146.545 222.534 146.81 222.786 146.986C223.042 147.162 223.376 147.25 223.788 147.25C224.257 147.25 224.629 147.151 224.904 146.952C225.183 146.75 225.322 146.509 225.322 146.227C225.322 146 225.242 145.81 225.083 145.656C224.924 145.5 224.68 145.384 224.35 145.307L223.259 145.051C222.66 144.909 222.22 144.689 221.938 144.391C221.66 144.089 221.521 143.713 221.521 143.261C221.521 142.892 221.625 142.565 221.832 142.281C222.042 141.997 222.328 141.774 222.688 141.612C223.052 141.45 223.464 141.369 223.924 141.369C224.572 141.369 225.081 141.511 225.45 141.795C225.822 142.08 226.086 142.455 226.242 142.92ZM229.987 148.136C229.442 148.136 228.96 147.999 228.543 147.723C228.125 147.445 227.798 147.053 227.562 146.547C227.327 146.038 227.209 145.438 227.209 144.744C227.209 144.057 227.327 143.46 227.562 142.955C227.798 142.449 228.126 142.058 228.547 141.783C228.967 141.507 229.453 141.369 230.004 141.369C230.43 141.369 230.767 141.44 231.014 141.582C231.264 141.722 231.455 141.881 231.585 142.06C231.719 142.236 231.822 142.381 231.896 142.494H231.982V139.273H232.987V148H232.016V146.994H231.896C231.822 147.114 231.717 147.264 231.581 147.446C231.445 147.625 231.25 147.786 230.997 147.928C230.744 148.067 230.408 148.136 229.987 148.136ZM230.124 147.233C230.527 147.233 230.868 147.128 231.146 146.918C231.425 146.705 231.636 146.411 231.781 146.036C231.926 145.658 231.999 145.222 231.999 144.727C231.999 144.239 231.928 143.811 231.785 143.445C231.643 143.075 231.433 142.788 231.155 142.584C230.876 142.376 230.533 142.273 230.124 142.273C229.697 142.273 229.342 142.382 229.058 142.601C228.777 142.817 228.565 143.111 228.423 143.483C228.284 143.852 228.214 144.267 228.214 144.727C228.214 145.193 228.285 145.616 228.428 145.997C228.572 146.375 228.785 146.676 229.067 146.901C229.351 147.122 229.703 147.233 230.124 147.233ZM236.535 148.153C236.12 148.153 235.744 148.075 235.406 147.919C235.068 147.76 234.799 147.531 234.6 147.233C234.401 146.932 234.302 146.568 234.302 146.142C234.302 145.767 234.376 145.463 234.524 145.23C234.671 144.994 234.869 144.81 235.116 144.676C235.363 144.543 235.636 144.443 235.934 144.378C236.235 144.31 236.538 144.256 236.842 144.216C237.239 144.165 237.562 144.126 237.809 144.101C238.059 144.072 238.241 144.026 238.354 143.96C238.471 143.895 238.529 143.781 238.529 143.619V143.585C238.529 143.165 238.414 142.838 238.184 142.605C237.957 142.372 237.612 142.256 237.149 142.256C236.668 142.256 236.292 142.361 236.019 142.571C235.747 142.781 235.555 143.006 235.444 143.244L234.489 142.903C234.66 142.506 234.887 142.196 235.171 141.974C235.458 141.75 235.771 141.594 236.109 141.506C236.45 141.415 236.785 141.369 237.114 141.369C237.325 141.369 237.566 141.395 237.839 141.446C238.114 141.494 238.38 141.595 238.636 141.749C238.894 141.902 239.109 142.134 239.279 142.443C239.45 142.753 239.535 143.168 239.535 143.688V148H238.529V147.114H238.478C238.41 147.256 238.296 147.408 238.137 147.57C237.978 147.732 237.766 147.869 237.502 147.983C237.238 148.097 236.916 148.153 236.535 148.153ZM236.688 147.25C237.086 147.25 237.421 147.172 237.694 147.016C237.97 146.859 238.177 146.658 238.316 146.411C238.458 146.163 238.529 145.903 238.529 145.631V144.71C238.487 144.761 238.393 144.808 238.248 144.851C238.106 144.891 237.941 144.926 237.754 144.957C237.569 144.986 237.389 145.011 237.212 145.034C237.039 145.054 236.899 145.071 236.791 145.085C236.529 145.119 236.285 145.175 236.058 145.251C235.833 145.325 235.651 145.437 235.512 145.588C235.376 145.736 235.308 145.937 235.308 146.193C235.308 146.543 235.437 146.807 235.695 146.986C235.957 147.162 236.288 147.25 236.688 147.25ZM241.424 150.455C241.253 150.455 241.101 150.44 240.968 150.412C240.834 150.386 240.742 150.361 240.691 150.335L240.947 149.449C241.191 149.511 241.407 149.534 241.594 149.517C241.782 149.5 241.948 149.416 242.093 149.266C242.241 149.118 242.376 148.878 242.498 148.545L242.685 148.034L240.265 141.455H241.356L243.162 146.67H243.231L245.037 141.455H246.128L243.35 148.955C243.225 149.293 243.07 149.572 242.885 149.794C242.701 150.018 242.486 150.185 242.242 150.293C242.001 150.401 241.728 150.455 241.424 150.455Z" fill="#7C7C7C"/>
<path d="M383.642 148L381.256 139.273H382.33L384.153 146.381H384.239L386.097 139.273H387.29L389.148 146.381H389.233L391.057 139.273H392.131L389.744 148H388.653L386.727 141.045H386.659L384.733 148H383.642ZM395.086 148.136C394.455 148.136 393.911 147.997 393.454 147.719C392.999 147.438 392.649 147.045 392.401 146.543C392.157 146.037 392.035 145.449 392.035 144.778C392.035 144.108 392.157 143.517 392.401 143.006C392.649 142.491 392.992 142.091 393.433 141.804C393.876 141.514 394.393 141.369 394.984 141.369C395.325 141.369 395.661 141.426 395.994 141.54C396.326 141.653 396.629 141.838 396.901 142.094C397.174 142.347 397.391 142.682 397.553 143.099C397.715 143.517 397.796 144.031 397.796 144.642V145.068H392.751V144.199H396.774C396.774 143.83 396.7 143.5 396.552 143.21C396.407 142.92 396.2 142.692 395.93 142.524C395.663 142.357 395.347 142.273 394.984 142.273C394.583 142.273 394.237 142.372 393.944 142.571C393.654 142.767 393.431 143.023 393.275 143.338C393.119 143.653 393.041 143.991 393.041 144.352V144.932C393.041 145.426 393.126 145.845 393.296 146.189C393.47 146.53 393.71 146.79 394.016 146.969C394.323 147.145 394.68 147.233 395.086 147.233C395.35 147.233 395.589 147.196 395.802 147.122C396.018 147.045 396.204 146.932 396.36 146.781C396.516 146.628 396.637 146.437 396.722 146.21L397.694 146.483C397.592 146.812 397.42 147.102 397.178 147.352C396.937 147.599 396.639 147.793 396.283 147.932C395.928 148.068 395.529 148.136 395.086 148.136ZM401.438 148.136C400.892 148.136 400.411 147.999 399.993 147.723C399.575 147.445 399.249 147.053 399.013 146.547C398.777 146.038 398.659 145.438 398.659 144.744C398.659 144.057 398.777 143.46 399.013 142.955C399.249 142.449 399.577 142.058 399.997 141.783C400.418 141.507 400.904 141.369 401.455 141.369C401.881 141.369 402.218 141.44 402.465 141.582C402.715 141.722 402.905 141.881 403.036 142.06C403.169 142.236 403.273 142.381 403.347 142.494H403.432V139.273H404.438V148H403.466V146.994H403.347C403.273 147.114 403.168 147.264 403.031 147.446C402.895 147.625 402.7 147.786 402.448 147.928C402.195 148.067 401.858 148.136 401.438 148.136ZM401.574 147.233C401.977 147.233 402.318 147.128 402.597 146.918C402.875 146.705 403.087 146.411 403.232 146.036C403.377 145.658 403.449 145.222 403.449 144.727C403.449 144.239 403.378 143.811 403.236 143.445C403.094 143.075 402.884 142.788 402.605 142.584C402.327 142.376 401.983 142.273 401.574 142.273C401.148 142.273 400.793 142.382 400.509 142.601C400.227 142.817 400.016 143.111 399.874 143.483C399.735 143.852 399.665 144.267 399.665 144.727C399.665 145.193 399.736 145.616 399.878 145.997C400.023 146.375 400.236 146.676 400.517 146.901C400.801 147.122 401.154 147.233 401.574 147.233ZM407.065 144.062V148H406.059V141.455H407.031V142.477H407.116C407.269 142.145 407.502 141.878 407.815 141.676C408.127 141.472 408.531 141.369 409.025 141.369C409.468 141.369 409.856 141.46 410.188 141.642C410.521 141.821 410.779 142.094 410.964 142.46C411.149 142.824 411.241 143.284 411.241 143.841V148H410.235V143.909C410.235 143.395 410.102 142.994 409.835 142.707C409.568 142.418 409.201 142.273 408.735 142.273C408.414 142.273 408.127 142.342 407.875 142.482C407.625 142.621 407.427 142.824 407.282 143.091C407.137 143.358 407.065 143.682 407.065 144.062ZM415.463 148.136C414.832 148.136 414.288 147.997 413.831 147.719C413.376 147.438 413.026 147.045 412.778 146.543C412.534 146.037 412.412 145.449 412.412 144.778C412.412 144.108 412.534 143.517 412.778 143.006C413.026 142.491 413.369 142.091 413.81 141.804C414.253 141.514 414.77 141.369 415.361 141.369C415.702 141.369 416.038 141.426 416.371 141.54C416.703 141.653 417.006 141.838 417.278 142.094C417.551 142.347 417.768 142.682 417.93 143.099C418.092 143.517 418.173 144.031 418.173 144.642V145.068H413.128V144.199H417.151C417.151 143.83 417.077 143.5 416.929 143.21C416.784 142.92 416.577 142.692 416.307 142.524C416.04 142.357 415.724 142.273 415.361 142.273C414.96 142.273 414.614 142.372 414.321 142.571C414.031 142.767 413.808 143.023 413.652 143.338C413.496 143.653 413.418 143.991 413.418 144.352V144.932C413.418 145.426 413.503 145.845 413.673 146.189C413.847 146.53 414.087 146.79 414.393 146.969C414.7 147.145 415.057 147.233 415.463 147.233C415.727 147.233 415.966 147.196 416.179 147.122C416.395 147.045 416.581 146.932 416.737 146.781C416.893 146.628 417.014 146.437 417.099 146.21L418.071 146.483C417.969 146.812 417.797 147.102 417.555 147.352C417.314 147.599 417.016 147.793 416.66 147.932C416.305 148.068 415.906 148.136 415.463 148.136ZM423.979 142.92L423.076 143.176C423.019 143.026 422.935 142.879 422.825 142.737C422.717 142.592 422.569 142.473 422.381 142.379C422.194 142.286 421.954 142.239 421.661 142.239C421.261 142.239 420.927 142.331 420.66 142.516C420.396 142.697 420.264 142.929 420.264 143.21C420.264 143.46 420.354 143.658 420.536 143.803C420.718 143.947 421.002 144.068 421.389 144.165L422.36 144.403C422.945 144.545 423.381 144.763 423.668 145.055C423.955 145.345 424.099 145.719 424.099 146.176C424.099 146.551 423.991 146.886 423.775 147.182C423.562 147.477 423.264 147.71 422.88 147.881C422.497 148.051 422.05 148.136 421.542 148.136C420.874 148.136 420.322 147.991 419.884 147.702C419.447 147.412 419.17 146.989 419.053 146.432L420.008 146.193C420.099 146.545 420.271 146.81 420.524 146.986C420.779 147.162 421.113 147.25 421.525 147.25C421.994 147.25 422.366 147.151 422.641 146.952C422.92 146.75 423.059 146.509 423.059 146.227C423.059 146 422.979 145.81 422.82 145.656C422.661 145.5 422.417 145.384 422.087 145.307L420.997 145.051C420.397 144.909 419.957 144.689 419.675 144.391C419.397 144.089 419.258 143.713 419.258 143.261C419.258 142.892 419.362 142.565 419.569 142.281C419.779 141.997 420.065 141.774 420.425 141.612C420.789 141.45 421.201 141.369 421.661 141.369C422.309 141.369 422.818 141.511 423.187 141.795C423.559 142.08 423.823 142.455 423.979 142.92ZM427.724 148.136C427.179 148.136 426.697 147.999 426.28 147.723C425.862 147.445 425.535 147.053 425.3 146.547C425.064 146.038 424.946 145.438 424.946 144.744C424.946 144.057 425.064 143.46 425.3 142.955C425.535 142.449 425.863 142.058 426.284 141.783C426.704 141.507 427.19 141.369 427.741 141.369C428.167 141.369 428.504 141.44 428.751 141.582C429.001 141.722 429.192 141.881 429.322 142.06C429.456 142.236 429.559 142.381 429.633 142.494H429.719V139.273H430.724V148H429.753V146.994H429.633C429.559 147.114 429.454 147.264 429.318 147.446C429.182 147.625 428.987 147.786 428.734 147.928C428.481 148.067 428.145 148.136 427.724 148.136ZM427.861 147.233C428.264 147.233 428.605 147.128 428.883 146.918C429.162 146.705 429.373 146.411 429.518 146.036C429.663 145.658 429.736 145.222 429.736 144.727C429.736 144.239 429.665 143.811 429.523 143.445C429.38 143.075 429.17 142.788 428.892 142.584C428.613 142.376 428.27 142.273 427.861 142.273C427.434 142.273 427.079 142.382 426.795 142.601C426.514 142.817 426.302 143.111 426.16 143.483C426.021 143.852 425.952 144.267 425.952 144.727C425.952 145.193 426.023 145.616 426.165 145.997C426.309 146.375 426.523 146.676 426.804 146.901C427.088 147.122 427.44 147.233 427.861 147.233ZM434.272 148.153C433.857 148.153 433.481 148.075 433.143 147.919C432.805 147.76 432.536 147.531 432.337 147.233C432.138 146.932 432.039 146.568 432.039 146.142C432.039 145.767 432.113 145.463 432.261 145.23C432.408 144.994 432.606 144.81 432.853 144.676C433.1 144.543 433.373 144.443 433.671 144.378C433.972 144.31 434.275 144.256 434.579 144.216C434.976 144.165 435.299 144.126 435.546 144.101C435.796 144.072 435.978 144.026 436.092 143.96C436.208 143.895 436.266 143.781 436.266 143.619V143.585C436.266 143.165 436.151 142.838 435.921 142.605C435.694 142.372 435.349 142.256 434.886 142.256C434.405 142.256 434.029 142.361 433.756 142.571C433.484 142.781 433.292 143.006 433.181 143.244L432.226 142.903C432.397 142.506 432.624 142.196 432.908 141.974C433.195 141.75 433.508 141.594 433.846 141.506C434.187 141.415 434.522 141.369 434.851 141.369C435.062 141.369 435.303 141.395 435.576 141.446C435.851 141.494 436.117 141.595 436.373 141.749C436.631 141.902 436.846 142.134 437.016 142.443C437.187 142.753 437.272 143.168 437.272 143.688V148H436.266V147.114H436.215C436.147 147.256 436.033 147.408 435.874 147.57C435.715 147.732 435.503 147.869 435.239 147.983C434.975 148.097 434.653 148.153 434.272 148.153ZM434.425 147.25C434.823 147.25 435.158 147.172 435.431 147.016C435.707 146.859 435.914 146.658 436.053 146.411C436.195 146.163 436.266 145.903 436.266 145.631V144.71C436.224 144.761 436.13 144.808 435.985 144.851C435.843 144.891 435.678 144.926 435.491 144.957C435.306 144.986 435.126 145.011 434.949 145.034C434.776 145.054 434.636 145.071 434.528 145.085C434.266 145.119 434.022 145.175 433.795 145.251C433.57 145.325 433.388 145.437 433.249 145.588C433.113 145.736 433.045 145.937 433.045 146.193C433.045 146.543 433.174 146.807 433.432 146.986C433.694 147.162 434.025 147.25 434.425 147.25ZM439.161 150.455C438.99 150.455 438.838 150.44 438.705 150.412C438.571 150.386 438.479 150.361 438.428 150.335L438.684 149.449C438.928 149.511 439.144 149.534 439.331 149.517C439.519 149.5 439.685 149.416 439.83 149.266C439.978 149.118 440.113 148.878 440.235 148.545L440.422 148.034L438.002 141.455H439.093L440.899 146.67H440.968L442.774 141.455H443.865L441.087 148.955C440.962 149.293 440.807 149.572 440.622 149.794C440.438 150.018 440.223 150.185 439.979 150.293C439.738 150.401 439.465 150.455 439.161 150.455Z" fill="#7C7C7C"/>
<path d="M565.58 140.21V139.273H572.125V140.21H569.381V148H568.324V140.21H565.58ZM574.265 144.062V148H573.26V139.273H574.265V142.477H574.351C574.504 142.139 574.734 141.871 575.041 141.672C575.351 141.47 575.763 141.369 576.277 141.369C576.723 141.369 577.113 141.459 577.449 141.638C577.784 141.814 578.044 142.085 578.228 142.452C578.416 142.815 578.51 143.278 578.51 143.841V148H577.504V143.909C577.504 143.389 577.369 142.987 577.099 142.703C576.832 142.416 576.461 142.273 575.987 142.273C575.657 142.273 575.362 142.342 575.101 142.482C574.842 142.621 574.638 142.824 574.487 143.091C574.339 143.358 574.265 143.682 574.265 144.062ZM584.115 145.324V141.455H585.12V148H584.115V146.892H584.046C583.893 147.224 583.654 147.507 583.33 147.74C583.007 147.97 582.597 148.085 582.103 148.085C581.694 148.085 581.33 147.996 581.012 147.817C580.694 147.635 580.444 147.362 580.262 146.999C580.08 146.632 579.99 146.17 579.99 145.614V141.455H580.995V145.545C580.995 146.023 581.129 146.403 581.396 146.688C581.666 146.972 582.009 147.114 582.427 147.114C582.677 147.114 582.931 147.05 583.19 146.922C583.451 146.794 583.67 146.598 583.846 146.334C584.025 146.07 584.115 145.733 584.115 145.324ZM586.602 148V141.455H587.574V142.443H587.642C587.761 142.119 587.977 141.857 588.29 141.655C588.602 141.453 588.954 141.352 589.346 141.352C589.42 141.352 589.513 141.354 589.623 141.357C589.734 141.359 589.818 141.364 589.875 141.369V142.392C589.841 142.384 589.763 142.371 589.641 142.354C589.521 142.334 589.395 142.324 589.261 142.324C588.943 142.324 588.659 142.391 588.409 142.524C588.162 142.655 587.966 142.837 587.821 143.07C587.679 143.3 587.608 143.562 587.608 143.858V148H586.602ZM595.343 142.92L594.44 143.176C594.383 143.026 594.299 142.879 594.189 142.737C594.081 142.592 593.933 142.473 593.745 142.379C593.558 142.286 593.318 142.239 593.025 142.239C592.625 142.239 592.291 142.331 592.024 142.516C591.76 142.697 591.627 142.929 591.627 143.21C591.627 143.46 591.718 143.658 591.9 143.803C592.082 143.947 592.366 144.068 592.752 144.165L593.724 144.403C594.309 144.545 594.745 144.763 595.032 145.055C595.319 145.345 595.463 145.719 595.463 146.176C595.463 146.551 595.355 146.886 595.139 147.182C594.926 147.477 594.627 147.71 594.244 147.881C593.86 148.051 593.414 148.136 592.906 148.136C592.238 148.136 591.686 147.991 591.248 147.702C590.811 147.412 590.534 146.989 590.417 146.432L591.372 146.193C591.463 146.545 591.635 146.81 591.887 146.986C592.143 147.162 592.477 147.25 592.889 147.25C593.358 147.25 593.73 147.151 594.005 146.952C594.284 146.75 594.423 146.509 594.423 146.227C594.423 146 594.343 145.81 594.184 145.656C594.025 145.5 593.781 145.384 593.451 145.307L592.36 145.051C591.761 144.909 591.321 144.689 591.039 144.391C590.761 144.089 590.622 143.713 590.622 143.261C590.622 142.892 590.725 142.565 590.933 142.281C591.143 141.997 591.429 141.774 591.789 141.612C592.153 141.45 592.565 141.369 593.025 141.369C593.673 141.369 594.181 141.511 594.551 141.795C594.923 142.08 595.187 142.455 595.343 142.92ZM599.088 148.136C598.543 148.136 598.061 147.999 597.644 147.723C597.226 147.445 596.899 147.053 596.663 146.547C596.428 146.038 596.31 145.438 596.31 144.744C596.31 144.057 596.428 143.46 596.663 142.955C596.899 142.449 597.227 142.058 597.648 141.783C598.068 141.507 598.554 141.369 599.105 141.369C599.531 141.369 599.868 141.44 600.115 141.582C600.365 141.722 600.555 141.881 600.686 142.06C600.82 142.236 600.923 142.381 600.997 142.494H601.082V139.273H602.088V148H601.117V146.994H600.997C600.923 147.114 600.818 147.264 600.682 147.446C600.546 147.625 600.351 147.786 600.098 147.928C599.845 148.067 599.509 148.136 599.088 148.136ZM599.225 147.233C599.628 147.233 599.969 147.128 600.247 146.918C600.526 146.705 600.737 146.411 600.882 146.036C601.027 145.658 601.1 145.222 601.1 144.727C601.1 144.239 601.028 143.811 600.886 143.445C600.744 143.075 600.534 142.788 600.256 142.584C599.977 142.376 599.634 142.273 599.225 142.273C598.798 142.273 598.443 142.382 598.159 142.601C597.878 142.817 597.666 143.111 597.524 143.483C597.385 143.852 597.315 144.267 597.315 144.727C597.315 145.193 597.386 145.616 597.528 145.997C597.673 146.375 597.886 146.676 598.168 146.901C598.452 147.122 598.804 147.233 599.225 147.233ZM605.636 148.153C605.221 148.153 604.845 148.075 604.507 147.919C604.168 147.76 603.9 147.531 603.701 147.233C603.502 146.932 603.403 146.568 603.403 146.142C603.403 145.767 603.477 145.463 603.624 145.23C603.772 144.994 603.97 144.81 604.217 144.676C604.464 144.543 604.737 144.443 605.035 144.378C605.336 144.31 605.639 144.256 605.943 144.216C606.34 144.165 606.663 144.126 606.91 144.101C607.16 144.072 607.342 144.026 607.455 143.96C607.572 143.895 607.63 143.781 607.63 143.619V143.585C607.63 143.165 607.515 142.838 607.285 142.605C607.058 142.372 606.713 142.256 606.249 142.256C605.769 142.256 605.393 142.361 605.12 142.571C604.847 142.781 604.656 143.006 604.545 143.244L603.59 142.903C603.761 142.506 603.988 142.196 604.272 141.974C604.559 141.75 604.872 141.594 605.21 141.506C605.551 141.415 605.886 141.369 606.215 141.369C606.426 141.369 606.667 141.395 606.94 141.446C607.215 141.494 607.481 141.595 607.737 141.749C607.995 141.902 608.21 142.134 608.38 142.443C608.551 142.753 608.636 143.168 608.636 143.688V148H607.63V147.114H607.579C607.511 147.256 607.397 147.408 607.238 147.57C607.079 147.732 606.867 147.869 606.603 147.983C606.339 148.097 606.016 148.153 605.636 148.153ZM605.789 147.25C606.187 147.25 606.522 147.172 606.795 147.016C607.07 146.859 607.278 146.658 607.417 146.411C607.559 146.163 607.63 145.903 607.63 145.631V144.71C607.588 144.761 607.494 144.808 607.349 144.851C607.207 144.891 607.042 144.926 606.855 144.957C606.67 144.986 606.49 145.011 606.313 145.034C606.14 145.054 605.999 145.071 605.891 145.085C605.63 145.119 605.386 145.175 605.159 145.251C604.934 145.325 604.752 145.437 604.613 145.588C604.477 145.736 604.409 145.937 604.409 146.193C604.409 146.543 604.538 146.807 604.796 146.986C605.058 147.162 605.389 147.25 605.789 147.25ZM610.525 150.455C610.354 150.455 610.202 150.44 610.069 150.412C609.935 150.386 609.843 150.361 609.792 150.335L610.047 149.449C610.292 149.511 610.508 149.534 610.695 149.517C610.883 149.5 611.049 149.416 611.194 149.266C611.342 149.118 611.476 148.878 611.599 148.545L611.786 148.034L609.366 141.455H610.457L612.263 146.67H612.332L614.138 141.455H615.229L612.451 148.955C612.326 149.293 612.171 149.572 611.986 149.794C611.802 150.018 611.587 150.185 611.343 150.293C611.101 150.401 610.829 150.455 610.525 150.455Z" fill="#7C7C7C"/>
<path d="M761.057 148V139.273H766.29V140.21H762.114V143.159H765.898V144.097H762.114V148H761.057ZM767.533 148V141.455H768.505V142.443H768.573C768.692 142.119 768.908 141.857 769.221 141.655C769.533 141.453 769.885 141.352 770.277 141.352C770.351 141.352 770.444 141.354 770.554 141.357C770.665 141.359 770.749 141.364 770.806 141.369V142.392C770.772 142.384 770.694 142.371 770.571 142.354C770.452 142.334 770.326 142.324 770.192 142.324C769.874 142.324 769.59 142.391 769.34 142.524C769.093 142.655 768.897 142.837 768.752 143.07C768.61 143.3 768.539 143.562 768.539 143.858V148H767.533ZM771.638 148V141.455H772.644V148H771.638ZM772.149 140.364C771.953 140.364 771.784 140.297 771.642 140.163C771.503 140.03 771.433 139.869 771.433 139.682C771.433 139.494 771.503 139.334 771.642 139.2C771.784 139.067 771.953 139 772.149 139C772.345 139 772.513 139.067 772.652 139.2C772.794 139.334 772.865 139.494 772.865 139.682C772.865 139.869 772.794 140.03 772.652 140.163C772.513 140.297 772.345 140.364 772.149 140.364ZM776.597 148.136C776.052 148.136 775.57 147.999 775.153 147.723C774.735 147.445 774.408 147.053 774.172 146.547C773.937 146.038 773.819 145.438 773.819 144.744C773.819 144.057 773.937 143.46 774.172 142.955C774.408 142.449 774.736 142.058 775.157 141.783C775.577 141.507 776.063 141.369 776.614 141.369C777.04 141.369 777.377 141.44 777.624 141.582C777.874 141.722 778.065 141.881 778.195 142.06C778.329 142.236 778.432 142.381 778.506 142.494H778.592V139.273H779.597V148H778.626V146.994H778.506C778.432 147.114 778.327 147.264 778.191 147.446C778.055 147.625 777.86 147.786 777.607 147.928C777.354 148.067 777.018 148.136 776.597 148.136ZM776.734 147.233C777.137 147.233 777.478 147.128 777.756 146.918C778.035 146.705 778.246 146.411 778.391 146.036C778.536 145.658 778.609 145.222 778.609 144.727C778.609 144.239 778.538 143.811 778.395 143.445C778.253 143.075 778.043 142.788 777.765 142.584C777.486 142.376 777.143 142.273 776.734 142.273C776.307 142.273 775.952 142.382 775.668 142.601C775.387 142.817 775.175 143.111 775.033 143.483C774.894 143.852 774.824 144.267 774.824 144.727C774.824 145.193 774.895 145.616 775.038 145.997C775.182 146.375 775.395 146.676 775.677 146.901C775.961 147.122 776.313 147.233 776.734 147.233ZM783.145 148.153C782.73 148.153 782.354 148.075 782.016 147.919C781.678 147.76 781.409 147.531 781.21 147.233C781.011 146.932 780.912 146.568 780.912 146.142C780.912 145.767 780.986 145.463 781.134 145.23C781.281 144.994 781.479 144.81 781.726 144.676C781.973 144.543 782.246 144.443 782.544 144.378C782.845 144.31 783.148 144.256 783.452 144.216C783.849 144.165 784.172 144.126 784.419 144.101C784.669 144.072 784.851 144.026 784.964 143.96C785.081 143.895 785.139 143.781 785.139 143.619V143.585C785.139 143.165 785.024 142.838 784.794 142.605C784.567 142.372 784.222 142.256 783.759 142.256C783.278 142.256 782.902 142.361 782.629 142.571C782.357 142.781 782.165 143.006 782.054 143.244L781.099 142.903C781.27 142.506 781.497 142.196 781.781 141.974C782.068 141.75 782.381 141.594 782.719 141.506C783.06 141.415 783.395 141.369 783.724 141.369C783.935 141.369 784.176 141.395 784.449 141.446C784.724 141.494 784.99 141.595 785.246 141.749C785.504 141.902 785.719 142.134 785.889 142.443C786.06 142.753 786.145 143.168 786.145 143.688V148H785.139V147.114H785.088C785.02 147.256 784.906 147.408 784.747 147.57C784.588 147.732 784.376 147.869 784.112 147.983C783.848 148.097 783.526 148.153 783.145 148.153ZM783.298 147.25C783.696 147.25 784.031 147.172 784.304 147.016C784.58 146.859 784.787 146.658 784.926 146.411C785.068 146.163 785.139 145.903 785.139 145.631V144.71C785.097 144.761 785.003 144.808 784.858 144.851C784.716 144.891 784.551 144.926 784.364 144.957C784.179 144.986 783.999 145.011 783.822 145.034C783.649 145.054 783.509 145.071 783.401 145.085C783.139 145.119 782.895 145.175 782.668 145.251C782.443 145.325 782.261 145.437 782.122 145.588C781.986 145.736 781.918 145.937 781.918 146.193C781.918 146.543 782.047 146.807 782.305 146.986C782.567 147.162 782.898 147.25 783.298 147.25ZM788.034 150.455C787.863 150.455 787.711 150.44 787.578 150.412C787.444 150.386 787.352 150.361 787.301 150.335L787.557 149.449C787.801 149.511 788.017 149.534 788.204 149.517C788.392 149.5 788.558 149.416 788.703 149.266C788.851 149.118 788.986 148.878 789.108 148.545L789.295 148.034L786.875 141.455H787.966L789.772 146.67H789.841L791.647 141.455H792.738L789.96 148.955C789.835 149.293 789.68 149.572 789.495 149.794C789.311 150.018 789.096 150.185 788.852 150.293C788.611 150.401 788.338 150.455 788.034 150.455Z" fill="#7C7C7C"/>
<rect x="792" y="32" width="8" height="8" fill="#FCB191"/>
<rect x="792" y="64" width="8" height="8" fill="#FCB191"/>
<rect x="784" y="24" width="8" height="8" fill="#FCB191"/>
<rect x="784" y="56" width="8" height="8" fill="#FCB191"/>
<rect x="776" y="16" width="8" height="8" fill="#FCB191"/>
<rect x="776" y="48" width="8" height="8" fill="#FCB191"/>
<rect x="744" y="80" width="8" height="8" fill="#FCB191"/>
<rect x="800" y="24" width="16" height="8" fill="#FCB191"/>
<rect x="800" y="56" width="16" height="8" fill="#FCB191"/>
<rect x="760" y="80" width="24" height="8" fill="#FCB191"/>
<rect x="792" y="80" width="40" height="8" fill="#FCB191"/>
<rect x="816" y="16" width="16" height="8" fill="#FCB191"/>
<rect x="816" y="48" width="16" height="8" fill="#FCB191"/>
</g>
<defs>
<clipPath id="clip0_259_146">
<rect width="832" height="152" fill="white"/>
</clipPath>
</defs>
</svg>
