<svg width="1440" height="136" viewBox="0 0 1440 136" fill="none" xmlns="http://www.w3.org/2000/svg">
<rect width="1440" height="136" fill="#DB5B54"/>
<path d="M333.226 105V101.325H336.53V105H333.226Z" fill="white"/>
<path d="M325.323 105.247C323.923 105.247 322.842 104.979 322.08 104.444C321.318 103.888 320.783 103.085 320.474 102.035C320.186 100.964 320.041 99.657 320.041 98.1128V94.036C320.041 92.4506 320.196 91.1329 320.505 90.0828C320.813 89.0328 321.349 88.2401 322.111 87.7047C322.893 87.1694 323.964 86.9017 325.323 86.9017C326.826 86.9017 327.927 87.2106 328.627 87.8283C329.348 88.446 329.821 89.3416 330.048 90.5152C330.274 91.6682 330.388 93.058 330.388 94.6846V96.1362H323.346V99.7188C323.346 100.439 323.408 101.026 323.531 101.479C323.675 101.932 323.892 102.272 324.18 102.498C324.489 102.704 324.88 102.807 325.353 102.807C325.848 102.807 326.218 102.694 326.465 102.467C326.733 102.22 326.908 101.881 326.99 101.448C327.093 100.995 327.145 100.47 327.145 99.8732V98.7922H330.357V99.4717C330.357 101.263 329.976 102.673 329.214 103.703C328.452 104.732 327.155 105.247 325.323 105.247ZM323.346 94.3449H327.145V92.7389C327.145 91.9977 327.104 91.38 327.021 90.8858C326.939 90.3711 326.764 89.9902 326.496 89.7431C326.249 89.4754 325.848 89.3416 325.292 89.3416C324.756 89.3416 324.345 89.4651 324.056 89.7122C323.789 89.9593 323.603 90.3814 323.5 90.9785C323.397 91.555 323.346 92.358 323.346 93.3875V94.3449Z" fill="white"/>
<path d="M306.809 105V87.1488H310.113V88.9092C310.711 88.3533 311.369 87.8797 312.09 87.4885C312.811 87.0973 313.603 86.9017 314.468 86.9017C315.189 86.9017 315.734 87.087 316.105 87.4576C316.496 87.8283 316.764 88.2915 316.908 88.8475C317.073 89.4034 317.155 89.9696 317.155 90.5461V105H313.85V91.5035C313.85 90.8652 313.758 90.3711 313.573 90.0211C313.387 89.671 313.006 89.496 312.43 89.496C312.059 89.496 311.668 89.6093 311.256 89.8357C310.865 90.0416 310.484 90.299 310.113 90.6079V105H306.809Z" fill="white"/>
<path d="M298.6 105.247C297.282 105.247 296.242 104.979 295.48 104.444C294.718 103.909 294.173 103.147 293.843 102.159C293.535 101.17 293.38 100.007 293.38 98.6687V93.4801C293.38 92.1418 293.535 90.9785 293.843 89.9902C294.173 89.0019 294.718 88.2401 295.48 87.7047C296.242 87.1694 297.282 86.9017 298.6 86.9017C299.917 86.9017 300.947 87.1694 301.688 87.7047C302.45 88.2401 302.985 89.0019 303.294 89.9902C303.623 90.9785 303.788 92.1418 303.788 93.4801V98.6687C303.788 100.007 303.623 101.17 303.294 102.159C302.985 103.147 302.45 103.909 301.688 104.444C300.947 104.979 299.917 105.247 298.6 105.247ZM298.6 102.807C299.238 102.807 299.681 102.622 299.928 102.251C300.195 101.881 300.35 101.397 300.391 100.8C300.453 100.182 300.484 99.5437 300.484 98.8849V93.2948C300.484 92.6153 300.453 91.9771 300.391 91.38C300.35 90.7829 300.195 90.299 299.928 89.9284C299.681 89.5372 299.238 89.3416 298.6 89.3416C297.961 89.3416 297.508 89.5372 297.241 89.9284C296.973 90.299 296.808 90.7829 296.747 91.38C296.705 91.9771 296.685 92.6153 296.685 93.2948V98.8849C296.685 99.5437 296.705 100.182 296.747 100.8C296.808 101.397 296.973 101.881 297.241 102.251C297.508 102.622 297.961 102.807 298.6 102.807Z" fill="white"/>
<path d="M278.422 105.247C277.104 105.247 276.065 104.979 275.303 104.444C274.541 103.909 273.995 103.147 273.666 102.159C273.357 101.17 273.203 100.007 273.203 98.6687V93.4801C273.203 92.1418 273.357 90.9785 273.666 89.9902C273.995 89.0019 274.541 88.2401 275.303 87.7047C276.065 87.1694 277.104 86.9017 278.422 86.9017C279.74 86.9017 280.769 87.1694 281.511 87.7047C282.272 88.2401 282.808 89.0019 283.117 89.9902C283.446 90.9785 283.611 92.1418 283.611 93.4801V98.6687C283.611 100.007 283.446 101.17 283.117 102.159C282.808 103.147 282.272 103.909 281.511 104.444C280.769 104.979 279.74 105.247 278.422 105.247ZM278.422 102.807C279.06 102.807 279.503 102.622 279.75 102.251C280.018 101.881 280.172 101.397 280.214 100.8C280.275 100.182 280.306 99.5437 280.306 98.8849V93.2948C280.306 92.6153 280.275 91.9771 280.214 91.38C280.172 90.7829 280.018 90.299 279.75 89.9284C279.503 89.5372 279.06 89.3416 278.422 89.3416C277.784 89.3416 277.331 89.5372 277.063 89.9284C276.796 90.299 276.631 90.7829 276.569 91.38C276.528 91.9771 276.507 92.6153 276.507 93.2948V98.8849C276.507 99.5437 276.528 100.182 276.569 100.8C276.631 101.397 276.796 101.881 277.063 102.251C277.331 102.622 277.784 102.807 278.422 102.807Z" fill="white"/>
<path d="M268.767 105.247C267.841 105.247 267.089 105.072 266.513 104.722C265.957 104.372 265.545 103.878 265.277 103.24C265.03 102.601 264.907 101.85 264.907 100.985V89.3416H263.023V87.1488H264.907V81.9294H268.211V87.1488H271.084V89.3416H268.211V100.769C268.211 101.469 268.325 101.973 268.551 102.282C268.777 102.57 269.21 102.715 269.848 102.715C270.013 102.715 270.198 102.704 270.404 102.684C270.631 102.663 270.847 102.642 271.053 102.622V105.062C270.641 105.124 270.26 105.165 269.91 105.185C269.56 105.226 269.179 105.247 268.767 105.247Z" fill="white"/>
<path d="M248.744 105.247C247.427 105.247 246.387 104.979 245.625 104.444C244.863 103.909 244.317 103.147 243.988 102.159C243.679 101.17 243.525 100.007 243.525 98.6687V93.4801C243.525 92.1418 243.679 90.9785 243.988 89.9902C244.317 89.0019 244.863 88.2401 245.625 87.7047C246.387 87.1694 247.427 86.9017 248.744 86.9017C250.062 86.9017 251.091 87.1694 251.833 87.7047C252.595 88.2401 253.13 89.0019 253.439 89.9902C253.768 90.9785 253.933 92.1418 253.933 93.4801V98.6687C253.933 100.007 253.768 101.17 253.439 102.159C253.13 103.147 252.595 103.909 251.833 104.444C251.091 104.979 250.062 105.247 248.744 105.247ZM248.744 102.807C249.383 102.807 249.825 102.622 250.072 102.251C250.34 101.881 250.494 101.397 250.536 100.8C250.597 100.182 250.628 99.5437 250.628 98.8849V93.2948C250.628 92.6153 250.597 91.9771 250.536 91.38C250.494 90.7829 250.34 90.299 250.072 89.9284C249.825 89.5372 249.383 89.3416 248.744 89.3416C248.106 89.3416 247.653 89.5372 247.385 89.9284C247.118 90.299 246.953 90.7829 246.891 91.38C246.85 91.9771 246.829 92.6153 246.829 93.2948V98.8849C246.829 99.5437 246.85 100.182 246.891 100.8C246.953 101.397 247.118 101.881 247.385 102.251C247.653 102.622 248.106 102.807 248.744 102.807Z" fill="white"/>
<path d="M234.094 105V87.1488H237.399V89.6813C238.057 88.5901 238.716 87.8591 239.375 87.4885C240.034 87.1179 240.693 86.9326 241.352 86.9326C241.434 86.9326 241.506 86.9326 241.568 86.9326C241.65 86.9326 241.753 86.9429 241.877 86.9635V90.6079C241.63 90.5049 241.342 90.4226 241.012 90.3608C240.703 90.2784 240.384 90.2372 240.055 90.2372C239.54 90.2372 239.066 90.3608 238.634 90.6079C238.222 90.8343 237.81 91.2873 237.399 91.9668V105H234.094Z" fill="white"/>
<path d="M225.944 105.247C224.543 105.247 223.463 104.979 222.701 104.444C221.939 103.888 221.404 103.085 221.095 102.035C220.806 100.964 220.662 99.657 220.662 98.1128V94.036C220.662 92.4506 220.817 91.1329 221.126 90.0828C221.434 89.0328 221.97 88.2401 222.732 87.7047C223.514 87.1694 224.585 86.9017 225.944 86.9017C227.447 86.9017 228.548 87.2106 229.248 87.8283C229.969 88.446 230.442 89.3416 230.669 90.5152C230.895 91.6682 231.009 93.058 231.009 94.6846V96.1362H223.967V99.7188C223.967 100.439 224.029 101.026 224.152 101.479C224.296 101.932 224.513 102.272 224.801 102.498C225.11 102.704 225.501 102.807 225.974 102.807C226.469 102.807 226.839 102.694 227.086 102.467C227.354 102.22 227.529 101.881 227.611 101.448C227.714 100.995 227.766 100.47 227.766 99.8732V98.7922H230.978V99.4717C230.978 101.263 230.597 102.673 229.835 103.703C229.073 104.732 227.776 105.247 225.944 105.247ZM223.967 94.3449H227.766V92.7389C227.766 91.9977 227.725 91.38 227.642 90.8858C227.56 90.3711 227.385 89.9902 227.117 89.7431C226.87 89.4754 226.469 89.3416 225.913 89.3416C225.377 89.3416 224.966 89.4651 224.677 89.7122C224.41 89.9593 224.224 90.3814 224.121 90.9785C224.018 91.555 223.967 92.358 223.967 93.3875V94.3449Z" fill="white"/>
<path d="M209.857 105V102.776L215.323 89.6196H210.413V87.1488H218.875V88.9401L213.378 102.498H218.752V105H209.857Z" fill="white"/>
<path d="M182.487 105V87.1488H185.545V88.8475C186.142 88.168 186.801 87.6635 187.521 87.3341C188.242 87.0047 188.983 86.84 189.745 86.84C190.404 86.84 190.991 87.0047 191.505 87.3341C192.041 87.6635 192.422 88.2503 192.648 89.0945C193.286 88.3121 193.976 87.7459 194.717 87.3959C195.479 87.0253 196.272 86.84 197.095 86.84C197.672 86.84 198.197 86.9841 198.67 87.2723C199.144 87.54 199.525 87.9827 199.813 88.6004C200.101 89.1975 200.246 89.9902 200.246 90.9785V105H197.219V91.1947C197.219 90.3299 197.075 89.7534 196.787 89.4651C196.519 89.1563 196.148 89.0019 195.675 89.0019C195.222 89.0019 194.748 89.1357 194.254 89.4034C193.76 89.6504 193.307 90.0005 192.895 90.4534C192.895 90.5358 192.895 90.6182 192.895 90.7005C192.895 90.7829 192.895 90.8755 192.895 90.9785V105H189.868V91.1947C189.868 90.3299 189.724 89.7534 189.436 89.4651C189.168 89.1563 188.798 89.0019 188.324 89.0019C187.871 89.0019 187.398 89.1357 186.904 89.4034C186.43 89.6504 185.977 90.0005 185.545 90.4534V105H182.487Z" fill="white"/>
<path d="M174.278 105.247C172.96 105.247 171.92 104.979 171.159 104.444C170.397 103.909 169.851 103.147 169.522 102.159C169.213 101.17 169.058 100.007 169.058 98.6687V93.4801C169.058 92.1418 169.213 90.9785 169.522 89.9902C169.851 89.0019 170.397 88.2401 171.159 87.7047C171.92 87.1694 172.96 86.9017 174.278 86.9017C175.596 86.9017 176.625 87.1694 177.366 87.7047C178.128 88.2401 178.664 89.0019 178.972 89.9902C179.302 90.9785 179.467 92.1418 179.467 93.4801V98.6687C179.467 100.007 179.302 101.17 178.972 102.159C178.664 103.147 178.128 103.909 177.366 104.444C176.625 104.979 175.596 105.247 174.278 105.247ZM174.278 102.807C174.916 102.807 175.359 102.622 175.606 102.251C175.874 101.881 176.028 101.397 176.069 100.8C176.131 100.182 176.162 99.5437 176.162 98.8849V93.2948C176.162 92.6153 176.131 91.9771 176.069 91.38C176.028 90.7829 175.874 90.299 175.606 89.9284C175.359 89.5372 174.916 89.3416 174.278 89.3416C173.64 89.3416 173.187 89.5372 172.919 89.9284C172.651 90.299 172.487 90.7829 172.425 91.38C172.384 91.9771 172.363 92.6153 172.363 93.2948V98.8849C172.363 99.5437 172.384 100.182 172.425 100.8C172.487 101.397 172.651 101.881 172.919 102.251C173.187 102.622 173.64 102.807 174.278 102.807Z" fill="white"/>
<path d="M159.628 105V87.1488H162.932V89.6813C163.591 88.5901 164.25 87.8591 164.909 87.4885C165.568 87.1179 166.227 86.9326 166.885 86.9326C166.968 86.9326 167.04 86.9326 167.102 86.9326C167.184 86.9326 167.287 86.9429 167.41 86.9635V90.6079C167.163 90.5049 166.875 90.4226 166.546 90.3608C166.237 90.2784 165.918 90.2372 165.588 90.2372C165.074 90.2372 164.6 90.3608 164.168 90.6079C163.756 90.8343 163.344 91.2873 162.932 91.9668V105H159.628Z" fill="white"/>
<path d="M151.718 105V89.5887H149.587V87.1488H151.718V86.2223C151.718 85.1104 151.8 84.1633 151.965 83.3809C152.15 82.5779 152.521 81.9602 153.077 81.5278C153.633 81.0955 154.467 80.8793 155.578 80.8793C155.99 80.8793 156.35 80.8999 156.659 80.941C156.989 80.9616 157.349 81.0131 157.74 81.0955V83.5044C157.555 83.4633 157.349 83.4324 157.123 83.4118C156.896 83.3706 156.69 83.35 156.505 83.35C155.867 83.35 155.455 83.5662 155.27 83.9986C155.105 84.4104 155.022 84.9663 155.022 85.6664V87.1488H157.74V89.5887H155.022V105H151.718Z" fill="white"/>
<path d="M819.876 59.2471C818.414 59.2471 817.241 58.7941 816.355 57.8882C815.47 56.9616 814.966 55.7468 814.842 54.2438L817.591 53.4099C817.755 54.5424 818.033 55.3968 818.425 55.9733C818.816 56.5293 819.392 56.8072 820.154 56.8072C820.751 56.8072 821.204 56.6425 821.513 56.3131C821.822 55.963 821.976 55.4998 821.976 54.9233C821.976 54.4085 821.863 53.9453 821.637 53.5335C821.41 53.1217 821.04 52.6996 820.525 52.2672L817.467 49.642C816.85 49.1067 816.325 48.5096 815.892 47.8507C815.48 47.1919 815.274 46.3374 815.274 45.2873C815.274 44.3402 815.46 43.5475 815.83 42.9092C816.222 42.2504 816.757 41.7562 817.436 41.4268C818.136 41.0768 818.95 40.9017 819.876 40.9017C821.359 40.9017 822.491 41.365 823.273 42.2915C824.056 43.1975 824.509 44.299 824.632 45.5962L822.285 46.4301C822.203 45.8124 822.079 45.277 821.915 44.8241C821.75 44.3505 821.513 43.9902 821.204 43.7431C820.895 43.4754 820.494 43.3416 820 43.3416C819.464 43.3416 819.032 43.5269 818.703 43.8975C818.394 44.2476 818.239 44.6696 818.239 45.1638C818.239 45.4726 818.301 45.7815 818.425 46.0903C818.569 46.3786 818.806 46.6668 819.135 46.9551L822.285 49.8582C822.718 50.2494 823.119 50.6715 823.49 51.1245C823.881 51.5775 824.2 52.0922 824.447 52.6687C824.694 53.2452 824.818 53.9144 824.818 54.6762C824.818 55.6851 824.612 56.5292 824.2 57.2087C823.788 57.8882 823.212 58.4029 822.471 58.7529C821.729 59.0824 820.865 59.2471 819.876 59.2471Z" fill="white"/>
<path d="M810.993 59.2471C810.067 59.2471 809.315 59.0721 808.739 58.722C808.183 58.372 807.771 57.8779 807.503 57.2396C807.256 56.6013 807.133 55.8498 807.133 54.985V43.3416H805.249V41.1488H807.133V35.9294H810.437V41.1488H813.31V43.3416H810.437V54.7688C810.437 55.4689 810.551 55.9733 810.777 56.2822C811.004 56.5704 811.436 56.7145 812.074 56.7145C812.239 56.7145 812.424 56.7043 812.63 56.6837C812.857 56.6631 813.073 56.6425 813.279 56.6219V59.0618C812.867 59.1235 812.486 59.1647 812.136 59.1853C811.786 59.2265 811.405 59.2471 810.993 59.2471Z" fill="white"/>
<path d="M798.419 59.2471C796.957 59.2471 795.845 58.9588 795.084 58.3823C794.342 57.7852 793.838 56.9513 793.57 55.8807C793.323 54.81 793.2 53.5643 793.2 52.1437V48.036C793.2 46.533 793.334 45.2564 793.601 44.2064C793.869 43.1357 794.373 42.3224 795.115 41.7665C795.876 41.19 796.978 40.9017 798.419 40.9017C799.716 40.9017 800.715 41.1179 801.415 41.5503C802.136 41.9621 802.63 42.5901 802.897 43.4343C803.165 44.2579 803.299 45.2873 803.299 46.5227V47.5728H800.303V46.4918C800.303 45.7094 800.252 45.0917 800.149 44.6388C800.046 44.1858 799.86 43.8564 799.593 43.6505C799.325 43.4446 798.944 43.3416 798.45 43.3416C797.915 43.3416 797.503 43.4652 797.215 43.7122C796.926 43.9593 796.731 44.3814 796.628 44.9785C796.546 45.555 796.504 46.3477 796.504 47.3566V52.9775C796.504 54.5012 796.649 55.5204 796.937 56.0351C797.225 56.5498 797.74 56.8072 798.481 56.8072C799.037 56.8072 799.438 56.6837 799.685 56.4366C799.953 56.1689 800.118 55.7983 800.18 55.3248C800.262 54.8512 800.303 54.3159 800.303 53.7188V52.2672H803.299V53.5026C803.299 54.6968 803.155 55.7263 802.867 56.591C802.599 57.4558 802.105 58.1146 801.384 58.5676C800.684 59.0206 799.696 59.2471 798.419 59.2471Z" fill="white"/>
<path d="M782.5 59.2471C781.8 59.2471 781.255 59.0618 780.864 58.6912C780.472 58.3205 780.194 57.8573 780.03 57.3014C779.886 56.7454 779.813 56.1792 779.813 55.6027V41.1488H783.118V54.6144C783.118 55.2527 783.211 55.7571 783.396 56.1277C783.581 56.4778 783.962 56.6528 784.539 56.6528C784.909 56.6528 785.29 56.5498 785.682 56.3439C786.093 56.1175 786.485 55.8498 786.855 55.5409V41.1488H790.16V59H786.855V57.2396C786.279 57.7955 785.62 58.2691 784.879 58.6603C784.158 59.0515 783.365 59.2471 782.5 59.2471Z" fill="white"/>
<path d="M770.413 59.2471C768.91 59.2471 767.788 58.7015 767.046 57.6102C766.305 56.4984 765.935 54.6247 765.935 51.9892V48.5302C765.935 47.1713 766.048 45.9153 766.274 44.7623C766.501 43.5887 766.923 42.6519 767.541 41.9518C768.179 41.2518 769.105 40.9017 770.32 40.9017C770.917 40.9017 771.463 41.0356 771.957 41.3032C772.451 41.5709 772.894 41.9003 773.285 42.2915V33.9836H776.59V59H773.285V57.8573C772.894 58.2691 772.461 58.6088 771.988 58.8765C771.535 59.1235 771.01 59.2471 770.413 59.2471ZM771.247 56.6528C771.556 56.6528 771.885 56.6013 772.235 56.4984C772.585 56.3748 772.935 56.1998 773.285 55.9733V44.2681C772.997 44.0622 772.678 43.8872 772.328 43.7431C771.978 43.5784 771.597 43.496 771.185 43.496C770.423 43.496 769.908 43.8666 769.641 44.6079C769.373 45.3285 769.239 46.2036 769.239 47.233V52.2672C769.239 53.0908 769.28 53.8423 769.363 54.5218C769.466 55.1806 769.661 55.7057 769.95 56.0969C770.238 56.4675 770.67 56.6528 771.247 56.6528Z" fill="white"/>
<path d="M758.065 59.2471C756.747 59.2471 755.708 58.9794 754.946 58.4441C754.184 57.9088 753.638 57.1469 753.309 56.1586C753 55.1703 752.846 54.007 752.846 52.6687V47.4801C752.846 46.1418 753 44.9785 753.309 43.9902C753.638 43.0019 754.184 42.2401 754.946 41.7047C755.708 41.1694 756.747 40.9017 758.065 40.9017C759.383 40.9017 760.412 41.1694 761.154 41.7047C761.915 42.2401 762.451 43.0019 762.76 43.9902C763.089 44.9785 763.254 46.1418 763.254 47.4801V52.6687C763.254 54.007 763.089 55.1703 762.76 56.1586C762.451 57.1469 761.915 57.9088 761.154 58.4441C760.412 58.9794 759.383 59.2471 758.065 59.2471ZM758.065 56.8072C758.703 56.8072 759.146 56.6219 759.393 56.2513C759.661 55.8807 759.815 55.3968 759.857 54.7997C759.918 54.182 759.949 53.5438 759.949 52.8849V47.2948C759.949 46.6154 759.918 45.9771 759.857 45.38C759.815 44.7829 759.661 44.299 759.393 43.9284C759.146 43.5372 758.703 43.3416 758.065 43.3416C757.427 43.3416 756.974 43.5372 756.706 43.9284C756.439 44.299 756.274 44.7829 756.212 45.38C756.171 45.9771 756.15 46.6154 756.15 47.2948V52.8849C756.15 53.5438 756.171 54.182 756.212 54.7997C756.274 55.3968 756.439 55.8807 756.706 56.2513C756.974 56.6219 757.427 56.8072 758.065 56.8072Z" fill="white"/>
<path d="M743.415 59V41.1488H746.72V43.6813C747.379 42.5901 748.037 41.8592 748.696 41.4886C749.355 41.1179 750.014 40.9326 750.673 40.9326C750.755 40.9326 750.827 40.9326 750.889 40.9326C750.971 40.9326 751.074 40.9429 751.198 40.9635V44.6079C750.951 44.5049 750.663 44.4226 750.333 44.3608C750.024 44.2784 749.705 44.2373 749.376 44.2373C748.861 44.2373 748.387 44.3608 747.955 44.6079C747.543 44.8344 747.131 45.2873 746.72 45.9668V59H743.415Z" fill="white"/>
<path d="M729.539 64.868V41.1488H732.844V42.5695C733.235 42.1165 733.708 41.7253 734.264 41.3959C734.82 41.0665 735.479 40.9017 736.241 40.9017C737.167 40.9017 737.898 41.1488 738.434 41.643C738.99 42.1165 739.401 42.7239 739.669 43.4652C739.937 44.1858 740.112 44.927 740.194 45.6888C740.277 46.4301 740.318 47.0683 740.318 47.6037V51.9275C740.318 53.1834 740.194 54.3776 739.947 55.5101C739.7 56.6219 739.247 57.5278 738.588 58.2279C737.95 58.9073 737.044 59.2471 735.87 59.2471C735.232 59.2471 734.666 59.0927 734.172 58.7838C733.678 58.4544 733.235 58.0838 732.844 57.672V64.868H729.539ZM735.222 56.6528C735.798 56.6528 736.21 56.4469 736.457 56.0351C736.704 55.6027 736.859 55.0262 736.92 54.3056C736.982 53.5849 737.013 52.7922 737.013 51.9275V47.6037C737.013 46.8624 736.972 46.183 736.89 45.5653C736.807 44.927 736.632 44.4226 736.365 44.052C736.097 43.6813 735.675 43.496 735.098 43.496C734.666 43.496 734.254 43.5887 733.863 43.774C733.472 43.9593 733.132 44.1755 732.844 44.4226V55.8498C733.153 56.0763 733.503 56.2719 733.894 56.4366C734.285 56.5807 734.728 56.6528 735.222 56.6528Z" fill="white"/>
<path d="M714.424 59.2471C713.023 59.2471 711.943 58.9794 711.181 58.4441C710.419 57.8882 709.884 57.0852 709.575 56.0351C709.287 54.9644 709.142 53.657 709.142 52.1128V48.036C709.142 46.4506 709.297 45.1329 709.606 44.0828C709.914 43.0328 710.45 42.2401 711.212 41.7047C711.994 41.1694 713.065 40.9017 714.424 40.9017C715.927 40.9017 717.028 41.2106 717.728 41.8283C718.449 42.446 718.922 43.3416 719.149 44.5152C719.375 45.6682 719.489 47.058 719.489 48.6846V50.1362H712.447V53.7188C712.447 54.4394 712.509 55.0262 712.632 55.4792C712.776 55.9322 712.993 56.2719 713.281 56.4984C713.59 56.7043 713.981 56.8072 714.454 56.8072C714.949 56.8072 715.319 56.694 715.566 56.4675C715.834 56.2204 716.009 55.8807 716.091 55.4483C716.194 54.9953 716.246 54.4703 716.246 53.8732V52.7922H719.458V53.4717C719.458 55.263 719.077 56.6734 718.315 57.7029C717.553 58.7323 716.256 59.2471 714.424 59.2471ZM712.447 48.3449H716.246V46.7389C716.246 45.9977 716.205 45.38 716.122 44.8858C716.04 44.3711 715.865 43.9902 715.597 43.7431C715.35 43.4754 714.949 43.3416 714.393 43.3416C713.857 43.3416 713.446 43.4652 713.157 43.7122C712.89 43.9593 712.704 44.3814 712.601 44.9785C712.498 45.555 712.447 46.358 712.447 47.3875V48.3449Z" fill="white"/>
<path d="M702.733 59V33.9836H706.038V59H702.733Z" fill="white"/>
<path d="M688.641 64.868V41.1488H691.946V42.5695C692.337 42.1165 692.811 41.7253 693.367 41.3959C693.922 41.0665 694.581 40.9017 695.343 40.9017C696.27 40.9017 697.001 41.1488 697.536 41.643C698.092 42.1165 698.504 42.7239 698.771 43.4652C699.039 44.1858 699.214 44.927 699.296 45.6888C699.379 46.4301 699.42 47.0683 699.42 47.6037V51.9275C699.42 53.1834 699.296 54.3776 699.049 55.5101C698.802 56.6219 698.349 57.5278 697.69 58.2279C697.052 58.9073 696.146 59.2471 694.973 59.2471C694.334 59.2471 693.768 59.0927 693.274 58.7838C692.78 58.4544 692.337 58.0838 691.946 57.672V64.868H688.641ZM694.324 56.6528C694.9 56.6528 695.312 56.4469 695.559 56.0351C695.806 55.6027 695.961 55.0262 696.023 54.3056C696.084 53.5849 696.115 52.7922 696.115 51.9275V47.6037C696.115 46.8624 696.074 46.183 695.992 45.5653C695.909 44.927 695.734 44.4226 695.467 44.052C695.199 43.6813 694.777 43.496 694.2 43.496C693.768 43.496 693.356 43.5887 692.965 43.774C692.574 43.9593 692.234 44.1755 691.946 44.4226V55.8498C692.255 56.0763 692.605 56.2719 692.996 56.4366C693.387 56.5807 693.83 56.6528 694.324 56.6528Z" fill="white"/>
<path d="M681.8 59V41.1488H685.104V59H681.8ZM681.8 38.4928V35.0337H685.104V38.4928H681.8Z" fill="white"/>
<path d="M676.839 59.2471C675.913 59.2471 675.161 59.0721 674.585 58.722C674.029 58.372 673.617 57.8779 673.349 57.2396C673.102 56.6013 672.979 55.8498 672.979 54.985V43.3416H671.095V41.1488H672.979V35.9294H676.283V41.1488H679.156V43.3416H676.283V54.7688C676.283 55.4689 676.397 55.9733 676.623 56.2822C676.85 56.5704 677.282 56.7145 677.92 56.7145C678.085 56.7145 678.27 56.7043 678.476 56.6837C678.703 56.6631 678.919 56.6425 679.125 56.6219V59.0618C678.713 59.1235 678.332 59.1647 677.982 59.1853C677.632 59.2265 677.251 59.2471 676.839 59.2471Z" fill="white"/>
<path d="M665.334 59V33.9836H668.639V59H665.334Z" fill="white"/>
<path d="M653.987 59.2471C653.286 59.2471 652.741 59.0618 652.35 58.6912C651.958 58.3205 651.68 57.8573 651.516 57.3014C651.372 56.7454 651.3 56.1792 651.3 55.6027V41.1488H654.604V54.6144C654.604 55.2527 654.697 55.7571 654.882 56.1277C655.067 56.4778 655.448 56.6528 656.025 56.6528C656.395 56.6528 656.776 56.5498 657.168 56.3439C657.579 56.1175 657.971 55.8498 658.341 55.5409V41.1488H661.646V59H658.341V57.2396C657.765 57.7955 657.106 58.2691 656.365 58.6603C655.644 59.0515 654.851 59.2471 653.987 59.2471Z" fill="white"/>
<path d="M630.431 59V41.1488H633.489V42.8475C634.086 42.168 634.745 41.6636 635.466 41.3341C636.186 41.0047 636.927 40.84 637.689 40.84C638.348 40.84 638.935 41.0047 639.45 41.3341C639.985 41.6636 640.366 42.2504 640.592 43.0945C641.231 42.3121 641.92 41.7459 642.662 41.3959C643.423 41.0253 644.216 40.84 645.04 40.84C645.616 40.84 646.141 40.9841 646.615 41.2724C647.088 41.54 647.469 41.9827 647.758 42.6004C648.046 43.1975 648.19 43.9902 648.19 44.9785V59H645.163V45.1947C645.163 44.3299 645.019 43.7534 644.731 43.4652C644.463 43.1563 644.093 43.0019 643.619 43.0019C643.166 43.0019 642.693 43.1357 642.198 43.4034C641.704 43.6505 641.251 44.0005 640.839 44.4535C640.839 44.5358 640.839 44.6182 640.839 44.7005C640.839 44.7829 640.839 44.8755 640.839 44.9785V59H637.813V45.1947C637.813 44.3299 637.669 43.7534 637.38 43.4652C637.113 43.1563 636.742 43.0019 636.269 43.0019C635.816 43.0019 635.342 43.1357 634.848 43.4034C634.374 43.6505 633.921 44.0005 633.489 44.4535V59H630.431Z" fill="white"/>
<path d="M614.579 64.9916V62.7679C615.32 62.7473 615.887 62.3355 616.278 61.5325C616.669 60.7501 616.947 59.7103 617.112 58.4132C617.276 57.1161 617.369 55.6748 617.39 54.0894C617.431 52.504 617.451 50.9186 617.451 49.3332C617.451 47.7272 617.431 46.1418 617.39 44.577C617.369 42.9916 617.276 41.5606 617.112 40.2841C616.947 38.9869 616.669 37.9471 616.278 37.1647C615.887 36.3823 615.32 35.9808 614.579 35.9602V33.7675C615.773 33.7675 616.741 34.066 617.482 34.6631C618.244 35.2396 618.841 36.0426 619.274 37.0721C619.706 38.1016 620.015 39.2855 620.2 40.6238C620.406 41.9415 620.529 43.3416 620.571 44.8241C620.612 46.3065 620.632 47.8096 620.632 49.3332C620.632 50.8568 620.612 52.3702 620.571 53.8732C620.529 55.3556 620.406 56.766 620.2 58.1044C620.015 59.4427 619.706 60.6266 619.274 61.6561C618.841 62.6855 618.244 63.4885 617.482 64.065C616.741 64.6621 615.773 64.971 614.579 64.9916Z" fill="white"/>
<path d="M601.779 59V41.1488H605.083V42.9092C605.681 42.3533 606.339 41.8798 607.06 41.4886C607.781 41.0973 608.573 40.9017 609.438 40.9017C610.159 40.9017 610.704 41.0871 611.075 41.4577C611.466 41.8283 611.734 42.2915 611.878 42.8475C612.043 43.4034 612.125 43.9696 612.125 44.5461V59H608.82V45.5035C608.82 44.8652 608.728 44.3711 608.542 44.0211C608.357 43.671 607.976 43.496 607.4 43.496C607.029 43.496 606.638 43.6093 606.226 43.8358C605.835 44.0417 605.454 44.299 605.083 44.6079V59H601.779Z" fill="white"/>
<path d="M593.57 59.2471C592.252 59.2471 591.212 58.9794 590.45 58.4441C589.689 57.9088 589.143 57.1469 588.813 56.1586C588.505 55.1703 588.35 54.007 588.35 52.6687V47.4801C588.35 46.1418 588.505 44.9785 588.813 43.9902C589.143 43.0019 589.689 42.2401 590.45 41.7047C591.212 41.1694 592.252 40.9017 593.57 40.9017C594.887 40.9017 595.917 41.1694 596.658 41.7047C597.42 42.2401 597.955 43.0019 598.264 43.9902C598.594 44.9785 598.758 46.1418 598.758 47.4801V52.6687C598.758 54.007 598.594 55.1703 598.264 56.1586C597.955 57.1469 597.42 57.9088 596.658 58.4441C595.917 58.9794 594.887 59.2471 593.57 59.2471ZM593.57 56.8072C594.208 56.8072 594.651 56.6219 594.898 56.2513C595.165 55.8807 595.32 55.3968 595.361 54.7997C595.423 54.182 595.454 53.5438 595.454 52.8849V47.2948C595.454 46.6154 595.423 45.9771 595.361 45.38C595.32 44.7829 595.165 44.299 594.898 43.9284C594.651 43.5372 594.208 43.3416 593.57 43.3416C592.931 43.3416 592.478 43.5372 592.211 43.9284C591.943 44.299 591.778 44.7829 591.717 45.38C591.675 45.9771 591.655 46.6154 591.655 47.2948V52.8849C591.655 53.5438 591.675 54.182 591.717 54.7997C591.778 55.3968 591.943 55.8807 592.211 56.2513C592.478 56.6219 592.931 56.8072 593.57 56.8072Z" fill="white"/>
<path d="M581.818 59V41.1488H585.122V59H581.818ZM581.818 38.4928V35.0337H585.122V38.4928H581.818Z" fill="white"/>
<path d="M576.857 59.2471C575.931 59.2471 575.179 59.0721 574.603 58.722C574.047 58.372 573.635 57.8779 573.367 57.2396C573.12 56.6013 572.997 55.8498 572.997 54.985V43.3416H571.113V41.1488H572.997V35.9294H576.301V41.1488H579.173V43.3416H576.301V54.7688C576.301 55.4689 576.414 55.9733 576.641 56.2822C576.867 56.5704 577.3 56.7145 577.938 56.7145C578.103 56.7145 578.288 56.7043 578.494 56.6837C578.72 56.6631 578.937 56.6425 579.143 56.6219V59.0618C578.731 59.1235 578.35 59.1647 578 59.1853C577.65 59.2265 577.269 59.2471 576.857 59.2471Z" fill="white"/>
<path d="M564.283 59.2471C562.821 59.2471 561.709 58.9588 560.948 58.3823C560.206 57.7852 559.702 56.9513 559.434 55.8807C559.187 54.81 559.064 53.5643 559.064 52.1437V48.036C559.064 46.533 559.197 45.2564 559.465 44.2064C559.733 43.1357 560.237 42.3224 560.978 41.7665C561.74 41.19 562.842 40.9017 564.283 40.9017C565.58 40.9017 566.579 41.1179 567.279 41.5503C567.999 41.9621 568.494 42.5901 568.761 43.4343C569.029 44.2579 569.163 45.2873 569.163 46.5227V47.5728H566.167V46.4918C566.167 45.7094 566.116 45.0917 566.013 44.6388C565.91 44.1858 565.724 43.8564 565.457 43.6505C565.189 43.4446 564.808 43.3416 564.314 43.3416C563.779 43.3416 563.367 43.4652 563.079 43.7122C562.79 43.9593 562.595 44.3814 562.492 44.9785C562.409 45.555 562.368 46.3477 562.368 47.3566V52.9775C562.368 54.5012 562.512 55.5204 562.801 56.0351C563.089 56.5498 563.604 56.8072 564.345 56.8072C564.901 56.8072 565.302 56.6837 565.549 56.4366C565.817 56.1689 565.982 55.7983 566.043 55.3248C566.126 54.8512 566.167 54.3159 566.167 53.7188V52.2672H569.163V53.5026C569.163 54.6968 569.019 55.7263 568.73 56.591C568.463 57.4558 567.969 58.1146 567.248 58.5676C566.548 59.0206 565.56 59.2471 564.283 59.2471Z" fill="white"/>
<path d="M548.364 59.2471C547.664 59.2471 547.119 59.0618 546.727 58.6912C546.336 58.3205 546.058 57.8573 545.894 57.3014C545.749 56.7454 545.677 56.1792 545.677 55.6027V41.1488H548.982V54.6144C548.982 55.2527 549.075 55.7571 549.26 56.1277C549.445 56.4778 549.826 56.6528 550.403 56.6528C550.773 56.6528 551.154 56.5498 551.545 56.3439C551.957 56.1175 552.348 55.8498 552.719 55.5409V41.1488H556.024V59H552.719V57.2396C552.142 57.7955 551.484 58.2691 550.742 58.6603C550.022 59.0515 549.229 59.2471 548.364 59.2471Z" fill="white"/>
<path d="M536.277 59.2471C534.774 59.2471 533.652 58.7015 532.91 57.6102C532.169 56.4984 531.798 54.6247 531.798 51.9892V48.5302C531.798 47.1713 531.912 45.9153 532.138 44.7623C532.365 43.5887 532.787 42.6519 533.404 41.9518C534.043 41.2518 534.969 40.9017 536.184 40.9017C536.781 40.9017 537.327 41.0356 537.821 41.3032C538.315 41.5709 538.758 41.9003 539.149 42.2915V33.9836H542.454V59H539.149V57.8573C538.758 58.2691 538.325 58.6088 537.852 58.8765C537.399 59.1235 536.874 59.2471 536.277 59.2471ZM537.111 56.6528C537.419 56.6528 537.749 56.6013 538.099 56.4984C538.449 56.3748 538.799 56.1998 539.149 55.9733V44.2681C538.861 44.0622 538.542 43.8872 538.192 43.7431C537.842 43.5784 537.461 43.496 537.049 43.496C536.287 43.496 535.772 43.8666 535.505 44.6079C535.237 45.3285 535.103 46.2036 535.103 47.233V52.2672C535.103 53.0908 535.144 53.8423 535.227 54.5218C535.33 55.1806 535.525 55.7057 535.813 56.0969C536.102 56.4675 536.534 56.6528 537.111 56.6528Z" fill="white"/>
<path d="M523.929 59.2471C522.611 59.2471 521.571 58.9794 520.81 58.4441C520.048 57.9088 519.502 57.1469 519.173 56.1586C518.864 55.1703 518.709 54.007 518.709 52.6687V47.4801C518.709 46.1418 518.864 44.9785 519.173 43.9902C519.502 43.0019 520.048 42.2401 520.81 41.7047C521.571 41.1694 522.611 40.9017 523.929 40.9017C525.247 40.9017 526.276 41.1694 527.017 41.7047C527.779 42.2401 528.315 43.0019 528.623 43.9902C528.953 44.9785 529.117 46.1418 529.117 47.4801V52.6687C529.117 54.007 528.953 55.1703 528.623 56.1586C528.315 57.1469 527.779 57.9088 527.017 58.4441C526.276 58.9794 525.247 59.2471 523.929 59.2471ZM523.929 56.8072C524.567 56.8072 525.01 56.6219 525.257 56.2513C525.525 55.8807 525.679 55.3968 525.72 54.7997C525.782 54.182 525.813 53.5438 525.813 52.8849V47.2948C525.813 46.6154 525.782 45.9771 525.72 45.38C525.679 44.7829 525.525 44.299 525.257 43.9284C525.01 43.5372 524.567 43.3416 523.929 43.3416C523.291 43.3416 522.838 43.5372 522.57 43.9284C522.302 44.299 522.138 44.7829 522.076 45.38C522.035 45.9771 522.014 46.6154 522.014 47.2948V52.8849C522.014 53.5438 522.035 54.182 522.076 54.7997C522.138 55.3968 522.302 55.8807 522.57 56.2513C522.838 56.6219 523.291 56.8072 523.929 56.8072Z" fill="white"/>
<path d="M509.279 59V41.1488H512.583V43.6813C513.242 42.5901 513.901 41.8592 514.56 41.4886C515.219 41.1179 515.878 40.9326 516.537 40.9326C516.619 40.9326 516.691 40.9326 516.753 40.9326C516.835 40.9326 516.938 40.9429 517.062 40.9635V44.6079C516.814 44.5049 516.526 44.4226 516.197 44.3608C515.888 44.2784 515.569 44.2373 515.239 44.2373C514.725 44.2373 514.251 44.3608 513.819 44.6079C513.407 44.8344 512.995 45.2873 512.583 45.9668V59H509.279Z" fill="white"/>
<path d="M495.403 64.868V41.1488H498.707V42.5695C499.098 42.1165 499.572 41.7253 500.128 41.3959C500.684 41.0665 501.343 40.9017 502.104 40.9017C503.031 40.9017 503.762 41.1488 504.297 41.643C504.853 42.1165 505.265 42.7239 505.533 43.4652C505.8 44.1858 505.975 44.927 506.058 45.6888C506.14 46.4301 506.181 47.0683 506.181 47.6037V51.9275C506.181 53.1834 506.058 54.3776 505.811 55.5101C505.564 56.6219 505.111 57.5278 504.452 58.2279C503.813 58.9073 502.907 59.2471 501.734 59.2471C501.096 59.2471 500.529 59.0927 500.035 58.7838C499.541 58.4544 499.098 58.0838 498.707 57.672V64.868H495.403ZM501.085 56.6528C501.662 56.6528 502.074 56.4469 502.321 56.0351C502.568 55.6027 502.722 55.0262 502.784 54.3056C502.846 53.5849 502.877 52.7922 502.877 51.9275V47.6037C502.877 46.8624 502.835 46.183 502.753 45.5653C502.671 44.927 502.496 44.4226 502.228 44.052C501.96 43.6813 501.538 43.496 500.962 43.496C500.529 43.496 500.118 43.5887 499.726 43.774C499.335 43.9593 498.995 44.1755 498.707 44.4226V55.8498C499.016 56.0763 499.366 56.2719 499.757 56.4366C500.148 56.5807 500.591 56.6528 501.085 56.6528Z" fill="white"/>
<path d="M480.136 59.2471C478.818 59.2471 477.778 58.9794 477.017 58.4441C476.255 57.9088 475.709 57.1469 475.38 56.1586C475.071 55.1703 474.917 54.007 474.917 52.6687V47.4801C474.917 46.1418 475.071 44.9785 475.38 43.9902C475.709 43.0019 476.255 42.2401 477.017 41.7047C477.778 41.1694 478.818 40.9017 480.136 40.9017C481.454 40.9017 482.483 41.1694 483.224 41.7047C483.986 42.2401 484.522 43.0019 484.83 43.9902C485.16 44.9785 485.325 46.1418 485.325 47.4801V52.6687C485.325 54.007 485.16 55.1703 484.83 56.1586C484.522 57.1469 483.986 57.9088 483.224 58.4441C482.483 58.9794 481.454 59.2471 480.136 59.2471ZM480.136 56.8072C480.774 56.8072 481.217 56.6219 481.464 56.2513C481.732 55.8807 481.886 55.3968 481.927 54.7997C481.989 54.182 482.02 53.5438 482.02 52.8849V47.2948C482.02 46.6154 481.989 45.9771 481.927 45.38C481.886 44.7829 481.732 44.299 481.464 43.9284C481.217 43.5372 480.774 43.3416 480.136 43.3416C479.498 43.3416 479.045 43.5372 478.777 43.9284C478.509 44.299 478.345 44.7829 478.283 45.38C478.242 45.9771 478.221 46.6154 478.221 47.2948V52.8849C478.221 53.5438 478.242 54.182 478.283 54.7997C478.345 55.3968 478.509 55.8807 478.777 56.2513C479.045 56.6219 479.498 56.8072 480.136 56.8072Z" fill="white"/>
<path d="M470.481 59.2471C469.554 59.2471 468.803 59.0721 468.226 58.722C467.67 58.372 467.259 57.8779 466.991 57.2396C466.744 56.6013 466.62 55.8498 466.62 54.985V43.3416H464.736V41.1488H466.62V35.9294H469.925V41.1488H472.797V43.3416H469.925V54.7688C469.925 55.4689 470.038 55.9733 470.265 56.2822C470.491 56.5704 470.924 56.7145 471.562 56.7145C471.727 56.7145 471.912 56.7043 472.118 56.6837C472.344 56.6631 472.56 56.6425 472.766 56.6219V59.0618C472.355 59.1235 471.974 59.1647 471.624 59.1853C471.274 59.2265 470.893 59.2471 470.481 59.2471Z" fill="white"/>
<path d="M463.135 64.9916C461.961 64.971 460.994 64.6621 460.232 64.065C459.491 63.4885 458.904 62.6855 458.471 61.6561C458.039 60.6266 457.72 59.453 457.514 58.1352C457.329 56.8175 457.215 55.4071 457.174 53.9041C457.133 52.401 457.113 50.898 457.113 49.395C457.113 47.8713 457.133 46.3683 457.174 44.8858C457.215 43.3828 457.329 41.9724 457.514 40.6547C457.72 39.3164 458.039 38.1324 458.471 37.103C458.904 36.0735 459.491 35.2602 460.232 34.6631C460.994 34.066 461.961 33.7675 463.135 33.7675V35.9911C462.414 36.0117 461.858 36.4235 461.467 37.2265C461.076 38.0089 460.798 39.0487 460.633 40.3458C460.469 41.643 460.366 43.0842 460.325 44.6696C460.304 46.2345 460.294 47.8096 460.294 49.395C460.294 51.0009 460.304 52.5966 460.325 54.182C460.366 55.7468 460.469 57.1778 460.633 58.475C460.798 59.7721 461.076 60.8119 461.467 61.5943C461.858 62.3767 462.414 62.7782 463.135 62.7988V64.9916Z" fill="white"/>
<path d="M439.944 59.2471C438.441 59.2471 437.319 58.7015 436.578 57.6102C435.836 56.4984 435.466 54.6247 435.466 51.9892V48.5302C435.466 47.1713 435.579 45.9153 435.805 44.7623C436.032 43.5887 436.454 42.6519 437.072 41.9518C437.71 41.2518 438.637 40.9017 439.851 40.9017C440.448 40.9017 440.994 41.0356 441.488 41.3032C441.982 41.5709 442.425 41.9003 442.816 42.2915V33.9836H446.121V59H442.816V57.8573C442.425 58.2691 441.993 58.6088 441.519 58.8765C441.066 59.1235 440.541 59.2471 439.944 59.2471ZM440.778 56.6528C441.087 56.6528 441.416 56.6013 441.766 56.4984C442.116 56.3748 442.466 56.1998 442.816 55.9733V44.2681C442.528 44.0622 442.209 43.8872 441.859 43.7431C441.509 43.5784 441.128 43.496 440.716 43.496C439.954 43.496 439.439 43.8666 439.172 44.6079C438.904 45.3285 438.77 46.2036 438.77 47.233V52.2672C438.77 53.0908 438.812 53.8423 438.894 54.5218C438.997 55.1806 439.192 55.7057 439.481 56.0969C439.769 56.4675 440.201 56.6528 440.778 56.6528Z" fill="white"/>
<path d="M427.748 59.2471C426.348 59.2471 425.267 58.9794 424.505 58.4441C423.743 57.8882 423.208 57.0852 422.899 56.0351C422.611 54.9644 422.467 53.657 422.467 52.1128V48.036C422.467 46.4506 422.621 45.1329 422.93 44.0828C423.239 43.0328 423.774 42.2401 424.536 41.7047C425.318 41.1694 426.389 40.9017 427.748 40.9017C429.251 40.9017 430.352 41.2106 431.052 41.8283C431.773 42.446 432.247 43.3416 432.473 44.5152C432.7 45.6682 432.813 47.058 432.813 48.6846V50.1362H425.771V53.7188C425.771 54.4394 425.833 55.0262 425.956 55.4792C426.101 55.9322 426.317 56.2719 426.605 56.4984C426.914 56.7043 427.305 56.8072 427.779 56.8072C428.273 56.8072 428.643 56.694 428.891 56.4675C429.158 56.2204 429.333 55.8807 429.416 55.4483C429.518 54.9953 429.57 54.4703 429.57 53.8732V52.7922H432.782V53.4717C432.782 55.263 432.401 56.6734 431.639 57.7029C430.877 58.7323 429.58 59.2471 427.748 59.2471ZM425.771 48.3449H429.57V46.7389C429.57 45.9977 429.529 45.38 429.446 44.8858C429.364 44.3711 429.189 43.9902 428.921 43.7431C428.674 43.4754 428.273 43.3416 427.717 43.3416C427.182 43.3416 426.77 43.4652 426.482 43.7122C426.214 43.9593 426.029 44.3814 425.926 44.9785C425.823 45.555 425.771 46.358 425.771 47.3875V48.3449Z" fill="white"/>
<path d="M413.067 59V41.1488H416.371V43.6813C417.03 42.5901 417.689 41.8592 418.348 41.4886C419.007 41.1179 419.666 40.9326 420.324 40.9326C420.407 40.9326 420.479 40.9326 420.541 40.9326C420.623 40.9326 420.726 40.9429 420.85 40.9635V44.6079C420.602 44.5049 420.314 44.4226 419.985 44.3608C419.676 44.2784 419.357 44.2373 419.027 44.2373C418.513 44.2373 418.039 44.3608 417.607 44.6079C417.195 44.8344 416.783 45.2873 416.371 45.9668V59H413.067Z" fill="white"/>
<path d="M404.916 59.2471C403.516 59.2471 402.435 58.9794 401.673 58.4441C400.912 57.8882 400.376 57.0852 400.067 56.0351C399.779 54.9644 399.635 53.657 399.635 52.1128V48.036C399.635 46.4506 399.789 45.1329 400.098 44.0828C400.407 43.0328 400.942 42.2401 401.704 41.7047C402.487 41.1694 403.557 40.9017 404.916 40.9017C406.419 40.9017 407.521 41.2106 408.221 41.8283C408.941 42.446 409.415 43.3416 409.642 44.5152C409.868 45.6682 409.981 47.058 409.981 48.6846V50.1362H402.94V53.7188C402.94 54.4394 403.001 55.0262 403.125 55.4792C403.269 55.9322 403.485 56.2719 403.774 56.4984C404.082 56.7043 404.474 56.8072 404.947 56.8072C405.441 56.8072 405.812 56.694 406.059 56.4675C406.327 56.2204 406.502 55.8807 406.584 55.4483C406.687 54.9953 406.738 54.4703 406.738 53.8732V52.7922H409.95V53.4717C409.95 55.263 409.569 56.6734 408.808 57.7029C408.046 58.7323 406.749 59.2471 404.916 59.2471ZM402.94 48.3449H406.738V46.7389C406.738 45.9977 406.697 45.38 406.615 44.8858C406.533 44.3711 406.358 43.9902 406.09 43.7431C405.843 43.4754 405.441 43.3416 404.885 43.3416C404.35 43.3416 403.938 43.4652 403.65 43.7122C403.382 43.9593 403.197 44.3814 403.094 44.9785C402.991 45.555 402.94 46.358 402.94 47.3875V48.3449Z" fill="white"/>
<path d="M390.408 59L386.887 41.1488H390.222L392.415 55.5101L394.639 41.1488H397.851L394.454 59H390.408Z" fill="white"/>
<path d="M381.25 59V41.1488H384.555V59H381.25ZM381.25 38.4928V35.0337H384.555V38.4928H381.25Z" fill="white"/>
<path d="M374.285 59V33.9836H377.59V59H374.285Z" fill="white"/>
<path d="M365.919 59.2471C364.519 59.2471 363.438 58.9794 362.676 58.4441C361.914 57.8882 361.379 57.0852 361.07 56.0351C360.782 54.9644 360.637 53.657 360.637 52.1128V48.036C360.637 46.4506 360.792 45.1329 361.101 44.0828C361.41 43.0328 361.945 42.2401 362.707 41.7047C363.489 41.1694 364.56 40.9017 365.919 40.9017C367.422 40.9017 368.523 41.2106 369.223 41.8283C369.944 42.446 370.417 43.3416 370.644 44.5152C370.87 45.6682 370.984 47.058 370.984 48.6846V50.1362H363.942V53.7188C363.942 54.4394 364.004 55.0262 364.127 55.4792C364.272 55.9322 364.488 56.2719 364.776 56.4984C365.085 56.7043 365.476 56.8072 365.95 56.8072C366.444 56.8072 366.814 56.694 367.061 56.4675C367.329 56.2204 367.504 55.8807 367.586 55.4483C367.689 54.9953 367.741 54.4703 367.741 53.8732V52.7922H370.953V53.4717C370.953 55.263 370.572 56.6734 369.81 57.7029C369.048 58.7323 367.751 59.2471 365.919 59.2471ZM363.942 48.3449H367.741V46.7389C367.741 45.9977 367.7 45.38 367.617 44.8858C367.535 44.3711 367.36 43.9902 367.092 43.7431C366.845 43.4754 366.444 43.3416 365.888 43.3416C365.352 43.3416 364.941 43.4652 364.652 43.7122C364.385 43.9593 364.199 44.3814 364.096 44.9785C363.994 45.555 363.942 46.358 363.942 47.3875V48.3449Z" fill="white"/>
<path d="M351.453 59.2471C349.95 59.2471 348.828 58.7015 348.087 57.6102C347.345 56.4984 346.975 54.6247 346.975 51.9892V48.5302C346.975 47.1713 347.088 45.9153 347.314 44.7623C347.541 43.5887 347.963 42.6519 348.581 41.9518C349.219 41.2518 350.146 40.9017 351.36 40.9017C351.957 40.9017 352.503 41.0356 352.997 41.3032C353.491 41.5709 353.934 41.9003 354.325 42.2915V33.9836H357.63V59H354.325V57.8573C353.934 58.2691 353.502 58.6088 353.028 58.8765C352.575 59.1235 352.05 59.2471 351.453 59.2471ZM352.287 56.6528C352.596 56.6528 352.925 56.6013 353.275 56.4984C353.625 56.3748 353.975 56.1998 354.325 55.9733V44.2681C354.037 44.0622 353.718 43.8872 353.368 43.7431C353.018 43.5784 352.637 43.496 352.225 43.496C351.463 43.496 350.949 43.8666 350.681 44.6079C350.413 45.3285 350.279 46.2036 350.279 47.233V52.2672C350.279 53.0908 350.321 53.8423 350.403 54.5218C350.506 55.1806 350.701 55.7057 350.99 56.0969C351.278 56.4675 351.71 56.6528 352.287 56.6528Z" fill="white"/>
<path d="M330.733 59.2471C329.23 59.2471 328.107 58.7015 327.366 57.6102C326.625 56.4984 326.254 54.6247 326.254 51.9892V48.5302C326.254 47.1713 326.368 45.9153 326.594 44.7623C326.821 43.5887 327.243 42.6519 327.86 41.9518C328.499 41.2518 329.425 40.9017 330.64 40.9017C331.237 40.9017 331.783 41.0356 332.277 41.3032C332.771 41.5709 333.214 41.9003 333.605 42.2915V33.9836H336.91V59H333.605V57.8573C333.214 58.2691 332.781 58.6088 332.308 58.8765C331.855 59.1235 331.33 59.2471 330.733 59.2471ZM331.566 56.6528C331.875 56.6528 332.205 56.6013 332.555 56.4984C332.905 56.3748 333.255 56.1998 333.605 55.9733V44.2681C333.317 44.0622 332.997 43.8872 332.647 43.7431C332.297 43.5784 331.917 43.496 331.505 43.496C330.743 43.496 330.228 43.8666 329.961 44.6079C329.693 45.3285 329.559 46.2036 329.559 47.233V52.2672C329.559 53.0908 329.6 53.8423 329.683 54.5218C329.786 55.1806 329.981 55.7057 330.269 56.0969C330.558 56.4675 330.99 56.6528 331.566 56.6528Z" fill="white"/>
<path d="M313.022 59V41.1488H316.326V42.9092C316.924 42.3533 317.582 41.8798 318.303 41.4886C319.024 41.0973 319.816 40.9017 320.681 40.9017C321.402 40.9017 321.947 41.0871 322.318 41.4577C322.709 41.8283 322.977 42.2915 323.121 42.8475C323.286 43.4034 323.368 43.9696 323.368 44.5461V59H320.063V45.5035C320.063 44.8652 319.971 44.3711 319.786 44.0211C319.6 43.671 319.219 43.496 318.643 43.496C318.272 43.496 317.881 43.6093 317.469 43.8358C317.078 44.0417 316.697 44.299 316.326 44.6079V59H313.022Z" fill="white"/>
<path d="M303.072 59.2471C302.372 59.2471 301.754 59.0515 301.219 58.6603C300.683 58.2485 300.261 57.7337 299.952 57.1161C299.643 56.4778 299.489 55.8086 299.489 55.1086C299.489 53.9967 299.674 53.0599 300.045 52.2981C300.416 51.5363 300.92 50.898 301.558 50.3833C302.217 49.8479 302.969 49.3847 303.813 48.9935C304.678 48.6023 305.584 48.2213 306.531 47.8507V46.5845C306.531 45.8638 306.489 45.2667 306.407 44.7932C306.325 44.3196 306.15 43.9696 305.882 43.7431C305.635 43.496 305.254 43.3725 304.739 43.3725C304.286 43.3725 303.916 43.4754 303.628 43.6813C303.36 43.8872 303.164 44.1858 303.041 44.577C302.917 44.9476 302.855 45.3903 302.855 45.905V46.8007L299.582 46.6771C299.623 44.7005 300.076 43.249 300.941 42.3224C301.805 41.3753 303.144 40.9017 304.956 40.9017C306.726 40.9017 307.982 41.3856 308.723 42.3533C309.465 43.321 309.835 44.7211 309.835 46.5536V54.7071C309.835 55.263 309.846 55.7983 309.866 56.3131C309.907 56.8278 309.949 57.3117 309.99 57.7646C310.051 58.197 310.103 58.6088 310.144 59H307.117C307.056 58.6706 306.973 58.2588 306.87 57.7646C306.788 57.2499 306.726 56.7866 306.685 56.3748C306.479 57.0749 306.078 57.7337 305.481 58.3514C304.904 58.9485 304.101 59.2471 303.072 59.2471ZM304.369 56.4057C304.698 56.4057 305.007 56.3131 305.295 56.1278C305.584 55.9424 305.841 55.7365 306.067 55.5101C306.294 55.263 306.448 55.0674 306.531 54.9233V49.8582C306.016 50.1465 305.532 50.4347 305.079 50.723C304.626 51.0112 304.225 51.3201 303.875 51.6495C303.545 51.9584 303.278 52.3187 303.072 52.7305C302.886 53.1217 302.794 53.5746 302.794 54.0894C302.794 54.81 302.927 55.3762 303.195 55.788C303.463 56.1998 303.854 56.4057 304.369 56.4057Z" fill="white"/>
<path d="M283.803 59.2471C282.3 59.2471 281.178 58.7015 280.436 57.6102C279.695 56.4984 279.325 54.6247 279.325 51.9892V48.5302C279.325 47.1713 279.438 45.9153 279.664 44.7623C279.891 43.5887 280.313 42.6519 280.931 41.9518C281.569 41.2518 282.495 40.9017 283.71 40.9017C284.307 40.9017 284.853 41.0356 285.347 41.3032C285.841 41.5709 286.284 41.9003 286.675 42.2915V33.9836H289.98V59H286.675V57.8573C286.284 58.2691 285.851 58.6088 285.378 58.8765C284.925 59.1235 284.4 59.2471 283.803 59.2471ZM284.637 56.6528C284.946 56.6528 285.275 56.6013 285.625 56.4984C285.975 56.3748 286.325 56.1998 286.675 55.9733V44.2681C286.387 44.0622 286.068 43.8872 285.718 43.7431C285.368 43.5784 284.987 43.496 284.575 43.496C283.813 43.496 283.298 43.8666 283.031 44.6079C282.763 45.3285 282.629 46.2036 282.629 47.233V52.2672C282.629 53.0908 282.67 53.8423 282.753 54.5218C282.856 55.1806 283.051 55.7057 283.34 56.0969C283.628 56.4675 284.06 56.6528 284.637 56.6528Z" fill="white"/>
<path d="M271.607 59.2471C270.207 59.2471 269.126 58.9794 268.364 58.4441C267.602 57.8882 267.067 57.0852 266.758 56.0351C266.47 54.9644 266.325 53.657 266.325 52.1128V48.036C266.325 46.4506 266.48 45.1329 266.789 44.0828C267.098 43.0328 267.633 42.2401 268.395 41.7047C269.177 41.1694 270.248 40.9017 271.607 40.9017C273.11 40.9017 274.211 41.2106 274.911 41.8283C275.632 42.446 276.105 43.3416 276.332 44.5152C276.558 45.6682 276.672 47.058 276.672 48.6846V50.1362H269.63V53.7188C269.63 54.4394 269.692 55.0262 269.815 55.4792C269.96 55.9322 270.176 56.2719 270.464 56.4984C270.773 56.7043 271.164 56.8072 271.638 56.8072C272.132 56.8072 272.502 56.694 272.749 56.4675C273.017 56.2204 273.192 55.8807 273.274 55.4483C273.377 54.9953 273.429 54.4703 273.429 53.8732V52.7922H276.641V53.4717C276.641 55.263 276.26 56.6734 275.498 57.7029C274.736 58.7323 273.439 59.2471 271.607 59.2471ZM269.63 48.3449H273.429V46.7389C273.429 45.9977 273.388 45.38 273.305 44.8858C273.223 44.3711 273.048 43.9902 272.78 43.7431C272.533 43.4754 272.132 43.3416 271.576 43.3416C271.04 43.3416 270.629 43.4652 270.34 43.7122C270.073 43.9593 269.887 44.3814 269.784 44.9785C269.682 45.555 269.63 46.358 269.63 47.3875V48.3449Z" fill="white"/>
<path d="M253.093 59V41.1488H256.398V42.9092C256.995 42.3533 257.653 41.8798 258.374 41.4886C259.095 41.0973 259.887 40.9017 260.752 40.9017C261.473 40.9017 262.018 41.0871 262.389 41.4577C262.78 41.8283 263.048 42.2915 263.192 42.8475C263.357 43.4034 263.439 43.9696 263.439 44.5461V59H260.135V45.5035C260.135 44.8652 260.042 44.3711 259.857 44.0211C259.671 43.671 259.29 43.496 258.714 43.496C258.343 43.496 257.952 43.6093 257.54 43.8358C257.149 44.0417 256.768 44.299 256.398 44.6079V59H253.093Z" fill="white"/>
<path d="M244.186 64.5901C243.094 64.5901 242.106 64.4665 241.221 64.2195C240.356 63.993 239.666 63.6327 239.151 63.1385C238.657 62.6444 238.41 61.9958 238.41 61.1928C238.41 60.5751 238.554 60.0295 238.843 59.5559C239.131 59.103 239.502 58.7118 239.954 58.3823C240.407 58.0529 240.881 57.7955 241.375 57.6102L242.919 57.8264C242.652 58.0735 242.394 58.3308 242.147 58.5985C241.9 58.8456 241.694 59.103 241.53 59.3706C241.365 59.6589 241.283 59.9677 241.283 60.2971C241.283 60.8325 241.509 61.234 241.962 61.5016C242.436 61.7693 243.269 61.9031 244.464 61.9031C245.637 61.9031 246.502 61.759 247.058 61.4708C247.634 61.2031 247.923 60.7707 247.923 60.1736C247.923 59.803 247.851 59.4942 247.706 59.2471C247.562 59.0206 247.315 58.8353 246.965 58.6912C246.615 58.547 246.111 58.4441 245.452 58.3823L241.56 57.8882C240.757 57.7852 240.16 57.5278 239.769 57.1161C239.378 56.7043 239.182 56.2513 239.182 55.7571C239.182 55.0159 239.388 54.3879 239.8 53.8732C240.232 53.3585 240.809 52.7819 241.53 52.1437L242.641 53.0084C242.518 53.1731 242.363 53.4099 242.178 53.7188C241.993 54.007 241.9 54.2953 241.9 54.5835C241.9 54.81 242.013 54.9953 242.24 55.1395C242.487 55.2836 242.868 55.3762 243.383 55.4174L246.378 55.6954C247.779 55.8189 248.818 56.241 249.498 56.9616C250.177 57.6823 250.517 58.7117 250.517 60.0501C250.517 61.0384 250.28 61.8723 249.807 62.5517C249.354 63.2312 248.664 63.7356 247.737 64.065C246.811 64.4151 245.627 64.5901 244.186 64.5901ZM244.309 53.5026C243.094 53.5026 242.106 53.2349 241.344 52.6996C240.582 52.1643 240.016 51.423 239.646 50.4759C239.296 49.5288 239.121 48.4478 239.121 47.2331C239.121 45.8535 239.316 44.7005 239.707 43.774C240.099 42.8269 240.675 42.1165 241.437 41.643C242.219 41.1488 243.177 40.9018 244.309 40.9018C245.483 40.9018 246.44 41.2003 247.181 41.7974C247.923 42.3739 248.468 43.146 248.818 44.1137C249.168 45.0814 249.343 46.1521 249.343 47.3257C249.343 48.5405 249.179 49.6214 248.849 50.5686C248.54 51.4951 248.015 52.2157 247.274 52.7305C246.553 53.2452 245.565 53.5026 244.309 53.5026ZM244.309 51.1245C244.762 51.1245 245.122 51.0421 245.39 50.8774C245.658 50.6921 245.853 50.4347 245.977 50.1053C246.121 49.7759 246.214 49.3744 246.255 48.9008C246.317 48.4067 246.348 47.8507 246.348 47.2331C246.348 46.6154 246.327 46.0594 246.286 45.5653C246.245 45.0711 246.152 44.6594 246.008 44.3299C245.864 43.9799 245.658 43.7122 245.39 43.5269C245.122 43.3416 244.772 43.249 244.34 43.249C243.887 43.249 243.516 43.3416 243.228 43.5269C242.961 43.6916 242.744 43.949 242.58 44.299C242.436 44.6285 242.333 45.0403 242.271 45.5344C242.23 46.0286 242.209 46.5948 242.209 47.2331C242.209 47.789 242.23 48.3037 242.271 48.7773C242.333 49.2508 242.436 49.6626 242.58 50.0126C242.724 50.3627 242.93 50.6406 243.197 50.8465C243.486 51.0318 243.856 51.1245 244.309 51.1245ZM248.726 44.1446L247.954 42.9092C248.118 42.621 248.489 42.2607 249.065 41.8283C249.642 41.3959 250.26 41.0356 250.918 40.7473L251.783 42.9092C251.495 42.971 251.104 43.0842 250.61 43.249C250.136 43.4137 249.704 43.5887 249.312 43.774C248.921 43.9387 248.726 44.0623 248.726 44.1446Z" fill="white"/>
<path d="M232.619 59V41.1488H235.924V59H232.619ZM232.619 38.4928V35.0337H235.924V38.4928H232.619Z" fill="white"/>
<path d="M224.99 59.2471C223.528 59.2471 222.354 58.7941 221.469 57.8882C220.584 56.9616 220.079 55.7468 219.956 54.2438L222.704 53.4099C222.869 54.5424 223.147 55.3968 223.538 55.9733C223.929 56.5293 224.506 56.8072 225.268 56.8072C225.865 56.8072 226.318 56.6425 226.627 56.3131C226.936 55.963 227.09 55.4998 227.09 54.9233C227.09 54.4085 226.977 53.9453 226.75 53.5335C226.524 53.1217 226.153 52.6996 225.638 52.2672L222.581 49.642C221.963 49.1067 221.438 48.5096 221.006 47.8507C220.594 47.1919 220.388 46.3374 220.388 45.2873C220.388 44.3402 220.573 43.5475 220.944 42.9092C221.335 42.2504 221.871 41.7562 222.55 41.4268C223.25 41.0768 224.063 40.9017 224.99 40.9017C226.472 40.9017 227.605 41.365 228.387 42.2915C229.17 43.1975 229.623 44.299 229.746 45.5962L227.399 46.4301C227.316 45.8124 227.193 45.277 227.028 44.8241C226.863 44.3505 226.627 43.9902 226.318 43.7431C226.009 43.4754 225.608 43.3416 225.113 43.3416C224.578 43.3416 224.146 43.5269 223.816 43.8975C223.507 44.2476 223.353 44.6696 223.353 45.1638C223.353 45.4726 223.415 45.7815 223.538 46.0903C223.682 46.3786 223.919 46.6668 224.249 46.9551L227.399 49.8582C227.831 50.2494 228.233 50.6715 228.603 51.1245C228.995 51.5775 229.314 52.0922 229.561 52.6687C229.808 53.2452 229.931 53.9144 229.931 54.6762C229.931 55.6851 229.725 56.5292 229.314 57.2087C228.902 57.8882 228.325 58.4029 227.584 58.7529C226.843 59.0824 225.978 59.2471 224.99 59.2471Z" fill="white"/>
<path d="M212.794 59.2471C211.394 59.2471 210.313 58.9794 209.551 58.4441C208.789 57.8882 208.254 57.0852 207.945 56.0351C207.657 54.9644 207.512 53.657 207.512 52.1128V48.036C207.512 46.4506 207.667 45.1329 207.976 44.0828C208.285 43.0328 208.82 42.2401 209.582 41.7047C210.364 41.1694 211.435 40.9017 212.794 40.9017C214.297 40.9017 215.398 41.2106 216.098 41.8283C216.819 42.446 217.293 43.3416 217.519 44.5152C217.745 45.6682 217.859 47.058 217.859 48.6846V50.1362H210.817V53.7188C210.817 54.4394 210.879 55.0262 211.002 55.4792C211.147 55.9322 211.363 56.2719 211.651 56.4984C211.96 56.7043 212.351 56.8072 212.825 56.8072C213.319 56.8072 213.689 56.694 213.936 56.4675C214.204 56.2204 214.379 55.8807 214.461 55.4483C214.564 54.9953 214.616 54.4703 214.616 53.8732V52.7922H217.828V53.4717C217.828 55.263 217.447 56.6734 216.685 57.7029C215.923 58.7323 214.626 59.2471 212.794 59.2471ZM210.817 48.3449H214.616V46.7389C214.616 45.9977 214.575 45.38 214.492 44.8858C214.41 44.3711 214.235 43.9902 213.967 43.7431C213.72 43.4754 213.319 43.3416 212.763 43.3416C212.227 43.3416 211.816 43.4652 211.527 43.7122C211.26 43.9593 211.074 44.3814 210.972 44.9785C210.869 45.555 210.817 46.358 210.817 47.3875V48.3449Z" fill="white"/>
<path d="M198.328 59.2471C196.825 59.2471 195.703 58.7015 194.961 57.6102C194.22 56.4984 193.85 54.6247 193.85 51.9892V48.5302C193.85 47.1713 193.963 45.9153 194.189 44.7623C194.416 43.5887 194.838 42.6519 195.456 41.9518C196.094 41.2518 197.02 40.9017 198.235 40.9017C198.832 40.9017 199.378 41.0356 199.872 41.3032C200.366 41.5709 200.809 41.9003 201.2 42.2915V33.9836H204.505V59H201.2V57.8573C200.809 58.2691 200.377 58.6088 199.903 58.8765C199.45 59.1235 198.925 59.2471 198.328 59.2471ZM199.162 56.6528C199.471 56.6528 199.8 56.6013 200.15 56.4984C200.5 56.3748 200.85 56.1998 201.2 55.9733V44.2681C200.912 44.0622 200.593 43.8872 200.243 43.7431C199.893 43.5784 199.512 43.496 199.1 43.496C198.338 43.496 197.823 43.8666 197.556 44.6079C197.288 45.3285 197.154 46.2036 197.154 47.233V52.2672C197.154 53.0908 197.195 53.8423 197.278 54.5218C197.381 55.1806 197.576 55.7057 197.865 56.0969C198.153 56.4675 198.585 56.6528 199.162 56.6528Z" fill="white"/>
<path d="M179.074 59.2471C177.674 59.2471 176.593 58.9794 175.831 58.4441C175.07 57.8882 174.534 57.0852 174.225 56.0351C173.937 54.9644 173.793 53.657 173.793 52.1128V48.036C173.793 46.4506 173.947 45.1329 174.256 44.0828C174.565 43.0328 175.1 42.2401 175.862 41.7047C176.645 41.1694 177.715 40.9017 179.074 40.9017C180.577 40.9017 181.679 41.2106 182.379 41.8283C183.099 42.446 183.573 43.3416 183.8 44.5152C184.026 45.6682 184.139 47.058 184.139 48.6846V50.1362H177.098V53.7188C177.098 54.4394 177.159 55.0262 177.283 55.4792C177.427 55.9322 177.643 56.2719 177.931 56.4984C178.24 56.7043 178.632 56.8072 179.105 56.8072C179.599 56.8072 179.97 56.694 180.217 56.4675C180.485 56.2204 180.66 55.8807 180.742 55.4483C180.845 54.9953 180.896 54.4703 180.896 53.8732V52.7922H184.108V53.4717C184.108 55.263 183.727 56.6734 182.966 57.7029C182.204 58.7323 180.907 59.2471 179.074 59.2471ZM177.098 48.3449H180.896V46.7389C180.896 45.9977 180.855 45.38 180.773 44.8858C180.69 44.3711 180.515 43.9902 180.248 43.7431C180.001 43.4754 179.599 43.3416 179.043 43.3416C178.508 43.3416 178.096 43.4652 177.808 43.7122C177.54 43.9593 177.355 44.3814 177.252 44.9785C177.149 45.555 177.098 46.358 177.098 47.3875V48.3449Z" fill="white"/>
<path d="M164.566 59L161.045 41.1488H164.38L166.573 55.5101L168.797 41.1488H172.009L168.612 59H164.566Z" fill="white"/>
<path d="M157.278 41.643V33.9836H160.274L159.07 41.643H157.278Z" fill="white"/>
<path d="M151.131 59V33.9836H154.559V59H151.131Z" fill="white"/>
<path fill-rule="evenodd" clip-rule="evenodd" d="M1305 134.999C1305.16 135 1305.32 135 1305.48 135C1379.77 135 1440 74.7728 1440 0.478729C1440 0.319092 1440 0.159515 1440 0L1305 5.90102e-06V134.999Z" fill="#3D3D3D" fill-opacity="0.3"/>
<path fill-rule="evenodd" clip-rule="evenodd" d="M1170 134.999C1170.16 135 1170.32 135 1170.48 135C1244.77 135 1305 74.7728 1305 0.478729C1305 0.319092 1305 0.159515 1305 0L1170 5.90102e-06V134.999Z" fill="#3D3D3D" fill-opacity="0.3"/>
<path fill-rule="evenodd" clip-rule="evenodd" d="M1035 134.999C1035.16 135 1035.32 135 1035.48 135C1109.77 135 1170 74.7728 1170 0.478729C1170 0.319092 1170 0.159515 1170 0L1035 5.90102e-06V134.999Z" fill="#3D3D3D" fill-opacity="0.3"/>
</svg>
