<svg width="1440" height="136" viewBox="0 0 1440 136" fill="none" xmlns="http://www.w3.org/2000/svg">
<rect width="1440" height="136" fill="#DB5B54"/>
<path d="M634.469 101.016V97.3411H637.774V101.016H634.469Z" fill="white"/>
<path d="M627.211 101.263C625.749 101.263 624.575 100.81 623.69 99.9045C622.804 98.978 622.3 97.7632 622.177 96.2601L624.925 95.4263C625.09 96.5587 625.368 97.4132 625.759 97.9897C626.15 98.5456 626.727 98.8235 627.489 98.8235C628.086 98.8235 628.539 98.6588 628.848 98.3294C629.156 97.9794 629.311 97.5161 629.311 96.9396C629.311 96.4249 629.198 95.9616 628.971 95.5498C628.745 95.138 628.374 94.7159 627.859 94.2835L624.802 91.6584C624.184 91.123 623.659 90.5259 623.227 89.8671C622.815 89.2082 622.609 88.3537 622.609 87.3037C622.609 86.3566 622.794 85.5639 623.165 84.9256C623.556 84.2667 624.091 83.7726 624.771 83.4431C625.471 83.0931 626.284 82.9181 627.211 82.9181C628.693 82.9181 629.826 83.3814 630.608 84.3079C631.39 85.2138 631.843 86.3154 631.967 87.6125L629.62 88.4464C629.537 87.8287 629.414 87.2934 629.249 86.8404C629.084 86.3668 628.848 86.0065 628.539 85.7595C628.23 85.4918 627.828 85.358 627.334 85.358C626.799 85.358 626.367 85.5433 626.037 85.9139C625.728 86.2639 625.574 86.686 625.574 87.1801C625.574 87.489 625.636 87.7978 625.759 88.1067C625.903 88.3949 626.14 88.6832 626.469 88.9714L629.62 91.8746C630.052 92.2658 630.454 92.6879 630.824 93.1408C631.215 93.5938 631.535 94.1085 631.782 94.685C632.029 95.2616 632.152 95.9307 632.152 96.6925C632.152 97.7014 631.946 98.5456 631.534 99.225C631.123 99.9045 630.546 100.419 629.805 100.769C629.064 101.099 628.199 101.263 627.211 101.263Z" fill="white"/>
<path d="M615.875 101.016V76H619.303V101.016H615.875Z" fill="white"/>
<path d="M600.85 101.016V76H607.058C608.561 76 609.755 76.278 610.641 76.8339C611.547 77.3692 612.206 78.1516 612.617 79.1811C613.029 80.2106 613.235 81.4562 613.235 82.9181C613.235 84.2358 612.998 85.3786 612.525 86.3463C612.072 87.314 611.392 88.0655 610.486 88.6008C609.58 89.1156 608.448 89.3729 607.089 89.3729H604.34V101.016H600.85ZM604.34 86.8713H605.946C606.955 86.8713 607.748 86.7581 608.324 86.5316C608.901 86.3051 609.313 85.9139 609.56 85.358C609.807 84.7815 609.93 83.9785 609.93 82.949C609.93 81.7548 609.838 80.8386 609.652 80.2003C609.488 79.562 609.127 79.1193 608.571 78.8722C608.016 78.6252 607.151 78.5016 605.977 78.5016H604.34V86.8713Z" fill="white"/>
<path d="M584.291 101.016L589.603 76H592.969L598.312 101.016H595.007L593.865 94.7159H588.769L587.564 101.016H584.291ZM589.232 92.2143H593.401L591.301 80.9415L589.232 92.2143Z" fill="white"/>
<path d="M564.742 101.016V83.1652H568.046V84.9256C568.643 84.3697 569.302 83.8961 570.023 83.5049C570.744 83.1137 571.536 82.9181 572.401 82.9181C573.122 82.9181 573.667 83.1034 574.038 83.474C574.429 83.8446 574.697 84.3079 574.841 84.8638C575.006 85.4197 575.088 85.9859 575.088 86.5624V101.016H571.783V87.5199C571.783 86.8816 571.691 86.3874 571.505 86.0374C571.32 85.6874 570.939 85.5124 570.363 85.5124C569.992 85.5124 569.601 85.6256 569.189 85.8521C568.798 86.058 568.417 86.3154 568.046 86.6242V101.016H564.742Z" fill="white"/>
<path d="M556.684 101.263C555.284 101.263 554.203 100.996 553.441 100.46C552.679 99.9045 552.144 99.1015 551.835 98.0514C551.547 96.9808 551.403 95.6733 551.403 94.1291V90.0524C551.403 88.467 551.557 87.1493 551.866 86.0992C552.175 85.0491 552.71 84.2564 553.472 83.7211C554.254 83.1858 555.325 82.9181 556.684 82.9181C558.187 82.9181 559.289 83.2269 559.989 83.8446C560.709 84.4623 561.183 85.358 561.409 86.5316C561.636 87.6846 561.749 89.0744 561.749 90.701V92.1525H554.707V95.7351C554.707 96.4558 554.769 97.0426 554.893 97.4955C555.037 97.9485 555.253 98.2882 555.541 98.5147C555.85 98.7206 556.241 98.8235 556.715 98.8235C557.209 98.8235 557.58 98.7103 557.827 98.4838C558.094 98.2368 558.269 97.897 558.352 97.4646C558.455 97.0117 558.506 96.4866 558.506 95.8895V94.8086H561.718V95.488C561.718 97.2793 561.337 98.6897 560.576 99.7192C559.814 100.749 558.517 101.263 556.684 101.263ZM554.707 90.3612H558.506V88.7552C558.506 88.014 558.465 87.3963 558.383 86.9022C558.3 86.3874 558.125 86.0065 557.858 85.7595C557.611 85.4918 557.209 85.358 556.653 85.358C556.118 85.358 555.706 85.4815 555.418 85.7286C555.15 85.9756 554.965 86.3977 554.862 86.9948C554.759 87.5713 554.707 88.3743 554.707 89.4038V90.3612Z" fill="white"/>
<path d="M542.176 101.016L538.655 83.1652H541.99L544.183 97.5264L546.407 83.1652H549.619L546.221 101.016H542.176Z" fill="white"/>
<path d="M531.802 101.263C530.402 101.263 529.321 100.996 528.559 100.46C527.797 99.9045 527.262 99.1015 526.953 98.0514C526.665 96.9808 526.52 95.6733 526.52 94.1291V90.0524C526.52 88.467 526.675 87.1493 526.984 86.0992C527.292 85.0491 527.828 84.2564 528.59 83.7211C529.372 83.1858 530.443 82.9181 531.802 82.9181C533.305 82.9181 534.406 83.2269 535.106 83.8446C535.827 84.4623 536.3 85.358 536.527 86.5316C536.753 87.6846 536.867 89.0744 536.867 90.701V92.1525H529.825V95.7351C529.825 96.4558 529.887 97.0426 530.01 97.4955C530.154 97.9485 530.371 98.2882 530.659 98.5147C530.968 98.7206 531.359 98.8235 531.832 98.8235C532.327 98.8235 532.697 98.7103 532.944 98.4838C533.212 98.2368 533.387 97.897 533.469 97.4646C533.572 97.0117 533.624 96.4866 533.624 95.8895V94.8086H536.836V95.488C536.836 97.2793 536.455 98.6897 535.693 99.7192C534.931 100.749 533.634 101.263 531.802 101.263ZM529.825 90.3612H533.624V88.7552C533.624 88.014 533.583 87.3963 533.5 86.9022C533.418 86.3874 533.243 86.0065 532.975 85.7595C532.728 85.4918 532.327 85.358 531.771 85.358C531.235 85.358 530.824 85.4815 530.535 85.7286C530.268 85.9756 530.082 86.3977 529.979 86.9948C529.876 87.5713 529.825 88.3743 529.825 89.4038V90.3612Z" fill="white"/>
<path d="M510.278 101.263C508.775 101.263 507.653 100.718 506.912 99.6266C506.171 98.5147 505.8 96.6411 505.8 94.0056V90.5465C505.8 89.1876 505.913 87.9317 506.14 86.7787C506.366 85.605 506.788 84.6682 507.406 83.9682C508.044 83.2681 508.971 82.9181 510.186 82.9181C510.783 82.9181 511.328 83.0519 511.823 83.3196C512.317 83.5873 512.759 83.9167 513.151 84.3079V76H516.455V101.016H513.151V99.8736C512.759 100.285 512.327 100.625 511.853 100.893C511.4 101.14 510.875 101.263 510.278 101.263ZM511.112 98.6691C511.421 98.6691 511.75 98.6177 512.1 98.5147C512.45 98.3912 512.801 98.2162 513.151 97.9897V86.2845C512.862 86.0786 512.543 85.9036 512.193 85.7595C511.843 85.5948 511.462 85.5124 511.05 85.5124C510.289 85.5124 509.774 85.883 509.506 86.6242C509.238 87.3449 509.105 88.2199 509.105 89.2494V94.2836C509.105 95.1071 509.146 95.8587 509.228 96.5381C509.331 97.197 509.527 97.722 509.815 98.1132C510.103 98.4838 510.536 98.6691 511.112 98.6691Z" fill="white"/>
<path d="M492.568 101.016V83.1652H495.872V84.9256C496.469 84.3697 497.128 83.8961 497.849 83.5049C498.569 83.1137 499.362 82.9181 500.227 82.9181C500.948 82.9181 501.493 83.1034 501.864 83.474C502.255 83.8446 502.523 84.3079 502.667 84.8638C502.832 85.4197 502.914 85.9859 502.914 86.5624V101.016H499.609V87.5199C499.609 86.8816 499.517 86.3874 499.331 86.0374C499.146 85.6874 498.765 85.5124 498.189 85.5124C497.818 85.5124 497.427 85.6256 497.015 85.8521C496.624 86.058 496.243 86.3154 495.872 86.6242V101.016H492.568Z" fill="white"/>
<path d="M482.617 101.263C481.917 101.263 481.3 101.068 480.764 100.677C480.229 100.265 479.807 99.7501 479.498 99.1324C479.189 98.4941 479.035 97.825 479.035 97.1249C479.035 96.0131 479.22 95.0762 479.591 94.3144C479.961 93.5526 480.466 92.9143 481.104 92.3996C481.763 91.8643 482.514 91.401 483.358 91.0098C484.223 90.6186 485.129 90.2377 486.076 89.8671V88.6008C486.076 87.8802 486.035 87.2831 485.953 86.8095C485.87 86.336 485.695 85.9859 485.428 85.7595C485.181 85.5124 484.8 85.3888 484.285 85.3888C483.832 85.3888 483.461 85.4918 483.173 85.6977C482.906 85.9036 482.71 86.2021 482.586 86.5933C482.463 86.9639 482.401 87.4066 482.401 87.9214V88.817L479.127 88.6935C479.169 86.7169 479.621 85.2653 480.486 84.3388C481.351 83.3917 482.689 82.9181 484.501 82.9181C486.272 82.9181 487.528 83.4019 488.269 84.3697C489.01 85.3374 489.381 86.7375 489.381 88.5699V96.7234C489.381 97.2793 489.391 97.8147 489.412 98.3294C489.453 98.8441 489.494 99.328 489.535 99.781C489.597 100.213 489.649 100.625 489.69 101.016H486.663C486.601 100.687 486.519 100.275 486.416 99.781C486.334 99.2662 486.272 98.803 486.231 98.3912C486.025 99.0912 485.623 99.7501 485.026 100.368C484.45 100.965 483.647 101.263 482.617 101.263ZM483.914 98.4221C484.244 98.4221 484.553 98.3294 484.841 98.1441C485.129 97.9588 485.387 97.7529 485.613 97.5264C485.84 97.2793 485.994 97.0837 486.076 96.9396V91.8746C485.562 92.1628 485.078 92.4511 484.625 92.7393C484.172 93.0276 483.77 93.3364 483.42 93.6659C483.091 93.9747 482.823 94.335 482.617 94.7468C482.432 95.138 482.339 95.591 482.339 96.1057C482.339 96.8264 482.473 97.3926 482.741 97.8044C483.008 98.2162 483.4 98.4221 483.914 98.4221Z" fill="white"/>
<path d="M467.205 105.062L466.68 103.642C467.236 103.456 467.668 103.127 467.977 102.653C468.306 102.2 468.471 101.655 468.471 101.016H466.711V97.4647H470.108V100.955C470.108 102.046 469.871 102.911 469.398 103.549C468.924 104.208 468.193 104.712 467.205 105.062Z" fill="white"/>
<path d="M459.699 101.263C458.237 101.263 457.064 100.81 456.178 99.9045C455.293 98.978 454.788 97.7632 454.665 96.2601L457.414 95.4263C457.578 96.5587 457.856 97.4132 458.248 97.9897C458.639 98.5456 459.215 98.8235 459.977 98.8235C460.574 98.8235 461.027 98.6588 461.336 98.3294C461.645 97.9794 461.799 97.5161 461.799 96.9396C461.799 96.4249 461.686 95.9616 461.46 95.5498C461.233 95.138 460.862 94.7159 460.348 94.2835L457.29 91.6584C456.672 91.123 456.147 90.5259 455.715 89.8671C455.303 89.2082 455.097 88.3537 455.097 87.3037C455.097 86.3566 455.283 85.5639 455.653 84.9256C456.044 84.2667 456.58 83.7726 457.259 83.4431C457.959 83.0931 458.773 82.9181 459.699 82.9181C461.182 82.9181 462.314 83.3814 463.096 84.3079C463.879 85.2138 464.332 86.3154 464.455 87.6125L462.108 88.4464C462.026 87.8287 461.902 87.2934 461.737 86.8404C461.573 86.3668 461.336 86.0065 461.027 85.7595C460.718 85.4918 460.317 85.358 459.823 85.358C459.287 85.358 458.855 85.5433 458.525 85.9139C458.217 86.2639 458.062 86.686 458.062 87.1801C458.062 87.489 458.124 87.7978 458.248 88.1067C458.392 88.3949 458.628 88.6832 458.958 88.9714L462.108 91.8746C462.54 92.2658 462.942 92.6879 463.313 93.1408C463.704 93.5938 464.023 94.1085 464.27 94.685C464.517 95.2616 464.641 95.9307 464.641 96.6925C464.641 97.7014 464.435 98.5456 464.023 99.225C463.611 99.9045 463.035 100.419 462.293 100.769C461.552 101.099 460.687 101.263 459.699 101.263Z" fill="white"/>
<path d="M434.569 101.016V83.1652H437.626V84.8638C438.224 84.1844 438.882 83.6799 439.603 83.3505C440.324 83.021 441.065 82.8563 441.827 82.8563C442.486 82.8563 443.072 83.021 443.587 83.3505C444.122 83.6799 444.503 84.2667 444.73 85.1109C445.368 84.3285 446.058 83.7623 446.799 83.4122C447.561 83.0416 448.354 82.8563 449.177 82.8563C449.754 82.8563 450.279 83.0004 450.752 83.2887C451.226 83.5564 451.607 83.999 451.895 84.6167C452.183 85.2138 452.327 86.0065 452.327 86.9948V101.016H449.301V87.211C449.301 86.3463 449.157 85.7697 448.868 85.4815C448.601 85.1726 448.23 85.0182 447.756 85.0182C447.303 85.0182 446.83 85.1521 446.336 85.4197C445.842 85.6668 445.389 86.0168 444.977 86.4698C444.977 86.5522 444.977 86.6345 444.977 86.7169C444.977 86.7992 444.977 86.8919 444.977 86.9948V101.016H441.95V87.211C441.95 86.3463 441.806 85.7697 441.518 85.4815C441.25 85.1726 440.88 85.0182 440.406 85.0182C439.953 85.0182 439.479 85.1521 438.985 85.4197C438.512 85.6668 438.059 86.0168 437.626 86.4698V101.016H434.569Z" fill="white"/>
<path d="M426.511 101.263C425.111 101.263 424.03 100.996 423.268 100.46C422.507 99.9045 421.971 99.1015 421.662 98.0514C421.374 96.9808 421.23 95.6733 421.23 94.1291V90.0524C421.23 88.467 421.384 87.1493 421.693 86.0992C422.002 85.0491 422.537 84.2564 423.299 83.7211C424.082 83.1858 425.152 82.9181 426.511 82.9181C428.014 82.9181 429.116 83.2269 429.816 83.8446C430.536 84.4623 431.01 85.358 431.237 86.5316C431.463 87.6846 431.576 89.0744 431.576 90.701V92.1525H424.535V95.7351C424.535 96.4558 424.596 97.0426 424.72 97.4955C424.864 97.9485 425.08 98.2882 425.368 98.5147C425.677 98.7206 426.069 98.8235 426.542 98.8235C427.036 98.8235 427.407 98.7103 427.654 98.4838C427.922 98.2368 428.097 97.897 428.179 97.4646C428.282 97.0117 428.333 96.4866 428.333 95.8895V94.8086H431.545V95.488C431.545 97.2793 431.164 98.6897 430.403 99.7192C429.641 100.749 428.344 101.263 426.511 101.263ZM424.535 90.3612H428.333V88.7552C428.333 88.014 428.292 87.3963 428.21 86.9022C428.127 86.3874 427.952 86.0065 427.685 85.7595C427.438 85.4918 427.036 85.358 426.48 85.358C425.945 85.358 425.533 85.4815 425.245 85.7286C424.977 85.9756 424.792 86.3977 424.689 86.9948C424.586 87.5713 424.535 88.3743 424.535 89.4038V90.3612Z" fill="white"/>
<path d="M416.825 101.263C415.899 101.263 415.147 101.088 414.571 100.738C414.015 100.388 413.603 99.8942 413.335 99.2559C413.088 98.6177 412.965 97.8661 412.965 97.0014V85.358H411.081V83.1652H412.965V77.9457H416.269V83.1652H419.142V85.358H416.269V96.7852C416.269 97.4852 416.383 97.9897 416.609 98.2985C416.836 98.5868 417.268 98.7309 417.906 98.7309C418.071 98.7309 418.256 98.7206 418.462 98.7C418.689 98.6794 418.905 98.6588 419.111 98.6383V101.078C418.699 101.14 418.318 101.181 417.968 101.202C417.618 101.243 417.237 101.263 416.825 101.263Z" fill="white"/>
<path d="M404.656 101.263C403.194 101.263 402.021 100.81 401.135 99.9045C400.25 98.978 399.745 97.7632 399.622 96.2601L402.371 95.4263C402.535 96.5587 402.813 97.4132 403.205 97.9897C403.596 98.5456 404.172 98.8235 404.934 98.8235C405.531 98.8235 405.984 98.6588 406.293 98.3294C406.602 97.9794 406.756 97.5161 406.756 96.9396C406.756 96.4249 406.643 95.9616 406.417 95.5498C406.19 95.138 405.819 94.7159 405.305 94.2835L402.247 91.6584C401.629 91.123 401.104 90.5259 400.672 89.8671C400.26 89.2082 400.054 88.3537 400.054 87.3037C400.054 86.3566 400.24 85.5639 400.61 84.9256C401.001 84.2667 401.537 83.7726 402.216 83.4431C402.916 83.0931 403.73 82.9181 404.656 82.9181C406.139 82.9181 407.271 83.3814 408.053 84.3079C408.836 85.2138 409.289 86.3154 409.412 87.6125L407.065 88.4464C406.983 87.8287 406.859 87.2934 406.694 86.8404C406.53 86.3668 406.293 86.0065 405.984 85.7595C405.675 85.4918 405.274 85.358 404.78 85.358C404.244 85.358 403.812 85.5433 403.482 85.9139C403.174 86.2639 403.019 86.686 403.019 87.1801C403.019 87.489 403.081 87.7978 403.205 88.1067C403.349 88.3949 403.585 88.6832 403.915 88.9714L407.065 91.8746C407.497 92.2658 407.899 92.6879 408.27 93.1408C408.661 93.5938 408.98 94.1085 409.227 94.685C409.474 95.2616 409.598 95.9307 409.598 96.6925C409.598 97.7014 409.392 98.5456 408.98 99.225C408.568 99.9045 407.992 100.419 407.25 100.769C406.509 101.099 405.644 101.263 404.656 101.263Z" fill="white"/>
<path d="M388.145 105.495V102.962C388.948 102.962 389.587 102.921 390.06 102.839C390.534 102.777 390.873 102.643 391.079 102.437C391.285 102.252 391.388 101.984 391.388 101.634C391.388 101.449 391.316 101.037 391.172 100.399C391.028 99.7604 390.873 99.0809 390.709 98.3603L387.126 83.1652H390.462L392.871 96.5072L395.187 83.1652H398.522L394.26 102.005C394.075 102.869 393.735 103.549 393.241 104.043C392.747 104.558 392.109 104.928 391.326 105.155C390.565 105.381 389.638 105.495 388.547 105.495H388.145Z" fill="white"/>
<path d="M381.01 101.263C379.548 101.263 378.375 100.81 377.489 99.9045C376.604 98.978 376.1 97.7632 375.976 96.2601L378.725 95.4263C378.889 96.5587 379.167 97.4132 379.559 97.9897C379.95 98.5456 380.526 98.8235 381.288 98.8235C381.885 98.8235 382.338 98.6588 382.647 98.3294C382.956 97.9794 383.11 97.5161 383.11 96.9396C383.11 96.4249 382.997 95.9616 382.771 95.5498C382.544 95.138 382.174 94.7159 381.659 94.2835L378.601 91.6584C377.984 91.123 377.459 90.5259 377.026 89.8671C376.614 89.2082 376.408 88.3537 376.408 87.3037C376.408 86.3566 376.594 85.5639 376.964 84.9256C377.356 84.2667 377.891 83.7726 378.57 83.4431C379.27 83.0931 380.084 82.9181 381.01 82.9181C382.493 82.9181 383.625 83.3814 384.408 84.3079C385.19 85.2138 385.643 86.3154 385.766 87.6125L383.419 88.4464C383.337 87.8287 383.213 87.2934 383.049 86.8404C382.884 86.3668 382.647 86.0065 382.338 85.7595C382.029 85.4918 381.628 85.358 381.134 85.358C380.598 85.358 380.166 85.5433 379.837 85.9139C379.528 86.2639 379.373 86.686 379.373 87.1801C379.373 87.489 379.435 87.7978 379.559 88.1067C379.703 88.3949 379.94 88.6832 380.269 88.9714L383.419 91.8746C383.852 92.2658 384.253 92.6879 384.624 93.1408C385.015 93.5938 385.334 94.1085 385.581 94.685C385.828 95.2616 385.952 95.9307 385.952 96.6925C385.952 97.7014 385.746 98.5456 385.334 99.225C384.922 99.9045 384.346 100.419 383.605 100.769C382.863 101.099 381.999 101.263 381.01 101.263Z" fill="white"/>
<path d="M356.242 101.016V83.1652H359.547V84.9256C360.144 84.3697 360.803 83.8961 361.523 83.5049C362.244 83.1137 363.037 82.9181 363.901 82.9181C364.622 82.9181 365.168 83.1034 365.538 83.474C365.929 83.8446 366.197 84.3079 366.341 84.8638C366.506 85.4197 366.588 85.9859 366.588 86.5624V101.016H363.284V87.5199C363.284 86.8816 363.191 86.3874 363.006 86.0374C362.82 85.6874 362.439 85.5124 361.863 85.5124C361.492 85.5124 361.101 85.6256 360.689 85.8521C360.298 86.058 359.917 86.3154 359.547 86.6242V101.016H356.242Z" fill="white"/>
<path d="M347.335 106.606C346.243 106.606 345.255 106.483 344.37 106.236C343.505 106.009 342.815 105.649 342.301 105.155C341.806 104.661 341.559 104.012 341.559 103.209C341.559 102.591 341.703 102.046 341.992 101.572C342.28 101.119 342.651 100.728 343.104 100.399C343.557 100.069 344.03 99.8118 344.524 99.6265L346.068 99.8427C345.801 100.09 345.543 100.347 345.296 100.615C345.049 100.862 344.843 101.119 344.679 101.387C344.514 101.675 344.432 101.984 344.432 102.313C344.432 102.849 344.658 103.25 345.111 103.518C345.585 103.786 346.418 103.919 347.613 103.919C348.786 103.919 349.651 103.775 350.207 103.487C350.783 103.219 351.072 102.787 351.072 102.19C351.072 101.819 351 101.51 350.856 101.263C350.711 101.037 350.464 100.852 350.114 100.707C349.764 100.563 349.26 100.46 348.601 100.399L344.71 99.9045C343.907 99.8016 343.309 99.5442 342.918 99.1324C342.527 98.7206 342.331 98.2676 342.331 97.7735C342.331 97.0323 342.537 96.4043 342.949 95.8895C343.382 95.3748 343.958 94.7983 344.679 94.16L345.79 95.0248C345.667 95.1895 345.513 95.4263 345.327 95.7351C345.142 96.0234 345.049 96.3116 345.049 96.5999C345.049 96.8264 345.163 97.0117 345.389 97.1558C345.636 97.2999 346.017 97.3926 346.532 97.4338L349.527 97.7117C350.928 97.8353 351.967 98.2573 352.647 98.978C353.326 99.6986 353.666 100.728 353.666 102.066C353.666 103.055 353.429 103.889 352.956 104.568C352.503 105.248 351.813 105.752 350.886 106.081C349.96 106.431 348.776 106.606 347.335 106.606ZM347.458 95.5189C346.243 95.5189 345.255 95.2513 344.493 94.7159C343.732 94.1806 343.165 93.4394 342.795 92.4922C342.445 91.5451 342.27 90.4642 342.27 89.2494C342.27 87.8699 342.465 86.7169 342.856 85.7903C343.248 84.8432 343.824 84.1329 344.586 83.6593C345.368 83.1652 346.326 82.9181 347.458 82.9181C348.632 82.9181 349.589 83.2166 350.33 83.8137C351.072 84.3902 351.617 85.1624 351.967 86.1301C352.317 87.0978 352.492 88.1684 352.492 89.342C352.492 90.5568 352.328 91.6378 351.998 92.5849C351.689 93.5114 351.164 94.2321 350.423 94.7468C349.703 95.2616 348.714 95.5189 347.458 95.5189ZM347.458 93.1408C347.911 93.1408 348.272 93.0585 348.539 92.8937C348.807 92.7084 349.002 92.4511 349.126 92.1216C349.27 91.7922 349.363 91.3907 349.404 90.9171C349.466 90.423 349.497 89.8671 349.497 89.2494C349.497 88.6317 349.476 88.0758 349.435 87.5816C349.394 87.0875 349.301 86.6757 349.157 86.3463C349.013 85.9962 348.807 85.7286 348.539 85.5433C348.272 85.358 347.922 85.2653 347.489 85.2653C347.036 85.2653 346.666 85.358 346.377 85.5433C346.11 85.708 345.893 85.9654 345.729 86.3154C345.585 86.6448 345.482 87.0566 345.42 87.5508C345.379 88.0449 345.358 88.6111 345.358 89.2494C345.358 89.8053 345.379 90.32 345.42 90.7936C345.482 91.2672 345.585 91.679 345.729 92.029C345.873 92.379 346.079 92.657 346.346 92.8629C346.635 93.0482 347.005 93.1408 347.458 93.1408ZM351.875 86.1609L351.103 84.9256C351.267 84.6373 351.638 84.277 352.214 83.8446C352.791 83.4122 353.409 83.0519 354.068 82.7637L354.932 84.9256C354.644 84.9873 354.253 85.1006 353.759 85.2653C353.285 85.43 352.853 85.605 352.462 85.7903C352.07 85.9551 351.875 86.0786 351.875 86.1609Z" fill="white"/>
<path d="M335.768 101.016V83.1652H339.073V101.016H335.768ZM335.768 80.5091V77.0501H339.073V80.5091H335.768Z" fill="white"/>
<path d="M328.139 101.263C326.677 101.263 325.503 100.81 324.618 99.9045C323.733 98.978 323.228 97.7632 323.105 96.2601L325.853 95.4263C326.018 96.5587 326.296 97.4132 326.687 97.9897C327.079 98.5456 327.655 98.8235 328.417 98.8235C329.014 98.8235 329.467 98.6588 329.776 98.3294C330.085 97.9794 330.239 97.5161 330.239 96.9396C330.239 96.4249 330.126 95.9616 329.899 95.5498C329.673 95.138 329.302 94.7159 328.787 94.2835L325.73 91.6584C325.112 91.123 324.587 90.5259 324.155 89.8671C323.743 89.2082 323.537 88.3537 323.537 87.3037C323.537 86.3566 323.722 85.5639 324.093 84.9256C324.484 84.2667 325.02 83.7726 325.699 83.4431C326.399 83.0931 327.212 82.9181 328.139 82.9181C329.621 82.9181 330.754 83.3814 331.536 84.3079C332.319 85.2138 332.772 86.3154 332.895 87.6125L330.548 88.4464C330.466 87.8287 330.342 87.2934 330.177 86.8404C330.013 86.3668 329.776 86.0065 329.467 85.7595C329.158 85.4918 328.757 85.358 328.262 85.358C327.727 85.358 327.295 85.5433 326.965 85.9139C326.656 86.2639 326.502 86.686 326.502 87.1801C326.502 87.489 326.564 87.7978 326.687 88.1067C326.831 88.3949 327.068 88.6832 327.398 88.9714L330.548 91.8746C330.98 92.2658 331.382 92.6879 331.752 93.1408C332.144 93.5938 332.463 94.1085 332.71 94.685C332.957 95.2616 333.08 95.9307 333.08 96.6925C333.08 97.7014 332.874 98.5456 332.463 99.225C332.051 99.9045 331.474 100.419 330.733 100.769C329.992 101.099 329.127 101.263 328.139 101.263Z" fill="white"/>
<path d="M315.943 101.263C314.543 101.263 313.462 100.996 312.7 100.46C311.938 99.9045 311.403 99.1015 311.094 98.0514C310.805 96.9808 310.661 95.6733 310.661 94.1291V90.0524C310.661 88.467 310.816 87.1493 311.125 86.0992C311.433 85.0491 311.969 84.2564 312.731 83.7211C313.513 83.1858 314.584 82.9181 315.943 82.9181C317.446 82.9181 318.547 83.2269 319.247 83.8446C319.968 84.4623 320.441 85.358 320.668 86.5316C320.894 87.6846 321.008 89.0744 321.008 90.701V92.1525H313.966V95.7351C313.966 96.4558 314.028 97.0426 314.151 97.4955C314.295 97.9485 314.512 98.2882 314.8 98.5147C315.109 98.7206 315.5 98.8235 315.973 98.8235C316.468 98.8235 316.838 98.7103 317.085 98.4838C317.353 98.2368 317.528 97.897 317.61 97.4646C317.713 97.0117 317.765 96.4866 317.765 95.8895V94.8086H320.977V95.488C320.977 97.2793 320.596 98.6897 319.834 99.7192C319.072 100.749 317.775 101.263 315.943 101.263ZM313.966 90.3612H317.765V88.7552C317.765 88.014 317.724 87.3963 317.641 86.9022C317.559 86.3874 317.384 86.0065 317.116 85.7595C316.869 85.4918 316.468 85.358 315.912 85.358C315.376 85.358 314.965 85.4815 314.676 85.7286C314.409 85.9756 314.223 86.3977 314.12 86.9948C314.017 87.5713 313.966 88.3743 313.966 89.4038V90.3612Z" fill="white"/>
<path d="M301.477 101.263C299.974 101.263 298.852 100.718 298.111 99.6266C297.369 98.5147 296.999 96.6411 296.999 94.0056V90.5465C296.999 89.1876 297.112 87.9317 297.339 86.7787C297.565 85.605 297.987 84.6682 298.605 83.9682C299.243 83.2681 300.17 82.9181 301.384 82.9181C301.981 82.9181 302.527 83.0519 303.021 83.3196C303.515 83.5873 303.958 83.9167 304.349 84.3079V76H307.654V101.016H304.349V99.8736C303.958 100.285 303.526 100.625 303.052 100.893C302.599 101.14 302.074 101.263 301.477 101.263ZM302.311 98.6691C302.62 98.6691 302.949 98.6177 303.299 98.5147C303.649 98.3912 303.999 98.2162 304.349 97.9897V86.2845C304.061 86.0786 303.742 85.9036 303.392 85.7595C303.042 85.5948 302.661 85.5124 302.249 85.5124C301.487 85.5124 300.973 85.883 300.705 86.6242C300.437 87.3449 300.303 88.2199 300.303 89.2494V94.2836C300.303 95.1071 300.345 95.8587 300.427 96.5381C300.53 97.197 300.725 97.722 301.014 98.1132C301.302 98.4838 301.734 98.6691 302.311 98.6691Z" fill="white"/>
<path d="M284.613 105.062L284.088 103.642C284.644 103.456 285.076 103.127 285.385 102.653C285.714 102.2 285.879 101.655 285.879 101.016H284.119V97.4647H287.516V100.955C287.516 102.046 287.279 102.911 286.806 103.549C286.332 104.208 285.601 104.712 284.613 105.062Z" fill="white"/>
<path d="M277.107 101.263C275.645 101.263 274.472 100.81 273.586 99.9045C272.701 98.978 272.197 97.7632 272.073 96.2601L274.822 95.4263C274.987 96.5587 275.265 97.4132 275.656 97.9897C276.047 98.5456 276.623 98.8235 277.385 98.8235C277.982 98.8235 278.435 98.6588 278.744 98.3294C279.053 97.9794 279.207 97.5161 279.207 96.9396C279.207 96.4249 279.094 95.9616 278.868 95.5498C278.641 95.138 278.271 94.7159 277.756 94.2835L274.698 91.6584C274.081 91.123 273.556 90.5259 273.123 89.8671C272.711 89.2082 272.506 88.3537 272.506 87.3037C272.506 86.3566 272.691 85.5639 273.061 84.9256C273.453 84.2667 273.988 83.7726 274.667 83.4431C275.367 83.0931 276.181 82.9181 277.107 82.9181C278.59 82.9181 279.722 83.3814 280.505 84.3079C281.287 85.2138 281.74 86.3154 281.863 87.6125L279.516 88.4464C279.434 87.8287 279.31 87.2934 279.146 86.8404C278.981 86.3668 278.744 86.0065 278.435 85.7595C278.126 85.4918 277.725 85.358 277.231 85.358C276.695 85.358 276.263 85.5433 275.934 85.9139C275.625 86.2639 275.47 86.686 275.47 87.1801C275.47 87.489 275.532 87.7978 275.656 88.1067C275.8 88.3949 276.037 88.6832 276.366 88.9714L279.516 91.8746C279.949 92.2658 280.35 92.6879 280.721 93.1408C281.112 93.5938 281.431 94.1085 281.678 94.685C281.925 95.2616 282.049 95.9307 282.049 96.6925C282.049 97.7014 281.843 98.5456 281.431 99.225C281.019 99.9045 280.443 100.419 279.702 100.769C278.96 101.099 278.096 101.263 277.107 101.263Z" fill="white"/>
<path d="M259.185 106.884V83.1652H262.49V84.5858C262.881 84.1329 263.355 83.7417 263.911 83.4122C264.467 83.0828 265.125 82.9181 265.887 82.9181C266.814 82.9181 267.545 83.1652 268.08 83.6593C268.636 84.1329 269.048 84.7403 269.315 85.4815C269.583 86.2021 269.758 86.9434 269.84 87.7052C269.923 88.4464 269.964 89.0847 269.964 89.62V93.9438C269.964 95.1998 269.84 96.394 269.593 97.5264C269.346 98.6382 268.893 99.5442 268.234 100.244C267.596 100.924 266.69 101.263 265.517 101.263C264.878 101.263 264.312 101.109 263.818 100.8C263.324 100.471 262.881 100.1 262.49 99.6883V106.884H259.185ZM264.868 98.6691C265.445 98.6691 265.856 98.4632 266.103 98.0514C266.35 97.6191 266.505 97.0426 266.567 96.3219C266.628 95.6013 266.659 94.8086 266.659 93.9438V89.62C266.659 88.8788 266.618 88.1993 266.536 87.5816C266.453 86.9434 266.278 86.4389 266.011 86.0683C265.743 85.6977 265.321 85.5124 264.744 85.5124C264.312 85.5124 263.9 85.605 263.509 85.7903C263.118 85.9756 262.778 86.1918 262.49 86.4389V97.8661C262.799 98.0926 263.149 98.2882 263.54 98.4529C263.931 98.5971 264.374 98.6691 264.868 98.6691Z" fill="white"/>
<path d="M245.402 106.884V83.1652H248.707V84.5858C249.098 84.1329 249.571 83.7417 250.127 83.4122C250.683 83.0828 251.342 82.9181 252.104 82.9181C253.03 82.9181 253.761 83.1652 254.297 83.6593C254.853 84.1329 255.264 84.7403 255.532 85.4815C255.8 86.2021 255.975 86.9434 256.057 87.7052C256.139 88.4464 256.181 89.0847 256.181 89.62V93.9438C256.181 95.1998 256.057 96.394 255.81 97.5264C255.563 98.6382 255.11 99.5442 254.451 100.244C253.813 100.924 252.907 101.263 251.733 101.263C251.095 101.263 250.529 101.109 250.035 100.8C249.54 100.471 249.098 100.1 248.707 99.6883V106.884H245.402ZM251.085 98.6691C251.661 98.6691 252.073 98.4632 252.32 98.0514C252.567 97.6191 252.722 97.0426 252.783 96.3219C252.845 95.6013 252.876 94.8086 252.876 93.9438V89.62C252.876 88.8788 252.835 88.1993 252.752 87.5816C252.67 86.9434 252.495 86.4389 252.227 86.0683C251.96 85.6977 251.538 85.5124 250.961 85.5124C250.529 85.5124 250.117 85.605 249.726 85.7903C249.335 85.9756 248.995 86.1918 248.707 86.4389V97.8661C249.015 98.0926 249.365 98.2882 249.757 98.4529C250.148 98.5971 250.591 98.6691 251.085 98.6691Z" fill="white"/>
<path d="M235.452 101.263C234.752 101.263 234.134 101.068 233.599 100.677C233.063 100.265 232.641 99.7501 232.332 99.1324C232.024 98.4941 231.869 97.825 231.869 97.1249C231.869 96.0131 232.054 95.0762 232.425 94.3144C232.796 93.5526 233.3 92.9143 233.938 92.3996C234.597 91.8643 235.349 91.401 236.193 91.0098C237.058 90.6186 237.964 90.2377 238.911 89.8671V88.6008C238.911 87.8802 238.87 87.2831 238.787 86.8095C238.705 86.336 238.53 85.9859 238.262 85.7595C238.015 85.5124 237.634 85.3888 237.119 85.3888C236.667 85.3888 236.296 85.4918 236.008 85.6977C235.74 85.9036 235.544 86.2021 235.421 86.5933C235.297 86.9639 235.236 87.4066 235.236 87.9214V88.817L231.962 88.6935C232.003 86.7169 232.456 85.2653 233.321 84.3388C234.185 83.3917 235.524 82.9181 237.336 82.9181C239.106 82.9181 240.362 83.4019 241.104 84.3697C241.845 85.3374 242.215 86.7375 242.215 88.5699V96.7234C242.215 97.2793 242.226 97.8147 242.246 98.3294C242.287 98.8441 242.329 99.328 242.37 99.781C242.432 100.213 242.483 100.625 242.524 101.016H239.498C239.436 100.687 239.353 100.275 239.251 99.781C239.168 99.2662 239.106 98.803 239.065 98.3912C238.859 99.0912 238.458 99.7501 237.861 100.368C237.284 100.965 236.481 101.263 235.452 101.263ZM236.749 98.4221C237.078 98.4221 237.387 98.3294 237.675 98.1441C237.964 97.9588 238.221 97.7529 238.448 97.5264C238.674 97.2793 238.828 97.0837 238.911 96.9396V91.8746C238.396 92.1628 237.912 92.4511 237.459 92.7393C237.006 93.0276 236.605 93.3364 236.255 93.6659C235.925 93.9747 235.658 94.335 235.452 94.7468C235.266 95.138 235.174 95.591 235.174 96.1057C235.174 96.8264 235.308 97.3926 235.575 97.8044C235.843 98.2162 236.234 98.4221 236.749 98.4221Z" fill="white"/>
<path d="M217.65 101.263C216.249 101.263 215.168 100.996 214.407 100.46C213.645 99.9045 213.11 99.1015 212.801 98.0514C212.512 96.9808 212.368 95.6733 212.368 94.1291V90.0524C212.368 88.467 212.523 87.1493 212.832 86.0992C213.14 85.0491 213.676 84.2564 214.438 83.7211C215.22 83.1858 216.291 82.9181 217.65 82.9181C219.153 82.9181 220.254 83.2269 220.954 83.8446C221.675 84.4623 222.148 85.358 222.375 86.5316C222.601 87.6846 222.715 89.0744 222.715 90.701V92.1525H215.673V95.7351C215.673 96.4558 215.735 97.0426 215.858 97.4955C216.002 97.9485 216.219 98.2882 216.507 98.5147C216.816 98.7206 217.207 98.8235 217.68 98.8235C218.175 98.8235 218.545 98.7103 218.792 98.4838C219.06 98.2368 219.235 97.897 219.317 97.4646C219.42 97.0117 219.472 96.4866 219.472 95.8895V94.8086H222.684V95.488C222.684 97.2793 222.303 98.6897 221.541 99.7192C220.779 100.749 219.482 101.263 217.65 101.263ZM215.673 90.3612H219.472V88.7552C219.472 88.014 219.431 87.3963 219.348 86.9022C219.266 86.3874 219.091 86.0065 218.823 85.7595C218.576 85.4918 218.175 85.358 217.619 85.358C217.083 85.358 216.672 85.4815 216.383 85.7286C216.116 85.9756 215.93 86.3977 215.827 86.9948C215.724 87.5713 215.673 88.3743 215.673 89.4038V90.3612Z" fill="white"/>
<path d="M205.959 101.016V76H209.264V101.016H205.959Z" fill="white"/>
<path d="M198.809 101.016V83.1652H202.114V101.016H198.809ZM198.809 80.5091V77.0501H202.114V80.5091H198.809Z" fill="white"/>
<path d="M191.172 101.263C190.534 101.263 189.958 101.109 189.443 100.8C188.949 100.471 188.516 100.11 188.146 99.7192V101.016H184.841V76H188.146V84.5859C188.537 84.1329 189 83.7417 189.535 83.4123C190.091 83.0828 190.75 82.9181 191.512 82.9181C192.439 82.9181 193.17 83.1652 193.705 83.6593C194.261 84.1329 194.673 84.7403 194.94 85.4815C195.208 86.2021 195.383 86.9434 195.465 87.7052C195.548 88.4464 195.589 89.0847 195.589 89.62V93.9438C195.589 95.1998 195.465 96.394 195.218 97.5264C194.971 98.6383 194.528 99.5442 193.89 100.244C193.252 100.924 192.346 101.263 191.172 101.263ZM190.493 98.6691C191.069 98.6691 191.481 98.4632 191.728 98.0515C191.975 97.6191 192.13 97.0426 192.192 96.3219C192.253 95.6013 192.284 94.8086 192.284 93.9438V89.62C192.284 88.8788 192.243 88.1993 192.161 87.5816C192.078 86.9434 191.903 86.4389 191.636 86.0683C191.368 85.6977 190.946 85.5124 190.369 85.5124C189.937 85.5124 189.525 85.605 189.134 85.7904C188.763 85.9757 188.434 86.1816 188.146 86.408V97.8661C188.434 98.0926 188.774 98.2882 189.165 98.4529C189.577 98.5971 190.019 98.6691 190.493 98.6691Z" fill="white"/>
<path d="M176.57 101.263C175.252 101.263 174.213 100.996 173.451 100.46C172.689 99.9251 172.143 99.1633 171.814 98.175C171.505 97.1867 171.351 96.0234 171.351 94.685V89.4965C171.351 88.1581 171.505 86.9948 171.814 86.0065C172.143 85.0182 172.689 84.2564 173.451 83.7211C174.213 83.1858 175.252 82.9181 176.57 82.9181C177.888 82.9181 178.917 83.1858 179.658 83.7211C180.42 84.2564 180.956 85.0182 181.264 86.0065C181.594 86.9948 181.759 88.1581 181.759 89.4965V94.685C181.759 96.0234 181.594 97.1867 181.264 98.175C180.956 99.1633 180.42 99.9251 179.658 100.46C178.917 100.996 177.888 101.263 176.57 101.263ZM176.57 98.8235C177.208 98.8235 177.651 98.6382 177.898 98.2676C178.166 97.897 178.32 97.4132 178.361 96.8161C178.423 96.1984 178.454 95.5601 178.454 94.9012V89.3112C178.454 88.6317 178.423 87.9934 178.361 87.3963C178.32 86.7992 178.166 86.3154 177.898 85.9448C177.651 85.5536 177.208 85.358 176.57 85.358C175.932 85.358 175.479 85.5536 175.211 85.9448C174.943 86.3154 174.779 86.7992 174.717 87.3963C174.676 87.9934 174.655 88.6317 174.655 89.3112V94.9012C174.655 95.5601 174.676 96.1984 174.717 96.8161C174.779 97.4132 174.943 97.897 175.211 98.2676C175.479 98.6382 175.932 98.8235 176.57 98.8235Z" fill="white"/>
<path d="M150.668 101.016V83.1652H153.725V84.8638C154.322 84.1844 154.981 83.6799 155.702 83.3505C156.423 83.021 157.164 82.8563 157.926 82.8563C158.584 82.8563 159.171 83.021 159.686 83.3505C160.221 83.6799 160.602 84.2667 160.829 85.1109C161.467 84.3285 162.157 83.7623 162.898 83.4122C163.66 83.0416 164.452 82.8563 165.276 82.8563C165.853 82.8563 166.378 83.0004 166.851 83.2887C167.325 83.5564 167.706 83.999 167.994 84.6167C168.282 85.2138 168.426 86.0065 168.426 86.9948V101.016H165.4V87.211C165.4 86.3463 165.255 85.7697 164.967 85.4815C164.7 85.1726 164.329 85.0182 163.855 85.0182C163.402 85.0182 162.929 85.1521 162.435 85.4197C161.941 85.6668 161.488 86.0168 161.076 86.4698C161.076 86.5522 161.076 86.6345 161.076 86.7169C161.076 86.7992 161.076 86.8919 161.076 86.9948V101.016H158.049V87.211C158.049 86.3463 157.905 85.7697 157.617 85.4815C157.349 85.1726 156.978 85.0182 156.505 85.0182C156.052 85.0182 155.578 85.1521 155.084 85.4197C154.611 85.6668 154.158 86.0168 153.725 86.4698V101.016H150.668Z" fill="white"/>
<path d="M1014.71 59.0622L1014.18 57.6415C1014.74 57.4562 1015.17 57.1268 1015.48 56.6532C1015.81 56.2003 1015.98 55.6546 1015.98 55.0164H1014.21V51.4647H1017.61V54.9546C1017.61 56.0458 1017.38 56.9106 1016.9 57.5489C1016.43 58.2078 1015.7 58.7122 1014.71 59.0622Z" fill="white"/>
<path d="M1007.2 55.2634C1005.74 55.2634 1004.57 54.8104 1003.68 53.9045C1002.8 52.978 1002.29 51.7632 1002.17 50.2601L1004.92 49.4263C1005.08 50.5587 1005.36 51.4132 1005.75 51.9897C1006.14 52.5456 1006.72 52.8236 1007.48 52.8236C1008.08 52.8236 1008.53 52.6588 1008.84 52.3294C1009.15 51.9794 1009.3 51.5161 1009.3 50.9396C1009.3 50.4249 1009.19 49.9616 1008.96 49.5498C1008.74 49.138 1008.37 48.7159 1007.85 48.2835L1004.79 45.6584C1004.18 45.123 1003.65 44.5259 1003.22 43.8671C1002.81 43.2082 1002.6 42.3537 1002.6 41.3037C1002.6 40.3566 1002.79 39.5639 1003.16 38.9256C1003.55 38.2667 1004.08 37.7726 1004.76 37.4431C1005.46 37.0931 1006.28 36.9181 1007.2 36.9181C1008.69 36.9181 1009.82 37.3814 1010.6 38.3079C1011.38 39.2138 1011.84 40.3154 1011.96 41.6125L1009.61 42.4464C1009.53 41.8287 1009.41 41.2934 1009.24 40.8404C1009.08 40.3668 1008.84 40.0065 1008.53 39.7595C1008.22 39.4918 1007.82 39.358 1007.33 39.358C1006.79 39.358 1006.36 39.5433 1006.03 39.9139C1005.72 40.2639 1005.57 40.686 1005.57 41.1801C1005.57 41.489 1005.63 41.7978 1005.75 42.1067C1005.9 42.3949 1006.13 42.6832 1006.46 42.9714L1009.61 45.8746C1010.04 46.2658 1010.45 46.6879 1010.82 47.1408C1011.21 47.5938 1011.53 48.1085 1011.77 48.685C1012.02 49.2616 1012.14 49.9307 1012.14 50.6925C1012.14 51.7014 1011.94 52.5456 1011.53 53.225C1011.12 53.9045 1010.54 54.4192 1009.8 54.7693C1009.06 55.0987 1008.19 55.2634 1007.2 55.2634Z" fill="white"/>
<path d="M989.281 60.8844V37.1652H992.586V38.5858C992.977 38.1329 993.451 37.7417 994.007 37.4122C994.563 37.0828 995.222 36.9181 995.983 36.9181C996.91 36.9181 997.641 37.1652 998.176 37.6593C998.732 38.1329 999.144 38.7403 999.412 39.4815C999.679 40.2021 999.854 40.9434 999.937 41.7052C1000.02 42.4464 1000.06 43.0847 1000.06 43.62V47.9438C1000.06 49.1998 999.937 50.394 999.69 51.5264C999.442 52.6382 998.989 53.5442 998.331 54.2442C997.692 54.9237 996.786 55.2634 995.613 55.2634C994.975 55.2634 994.408 55.109 993.914 54.8002C993.42 54.4707 992.977 54.1001 992.586 53.6883V60.8844H989.281ZM994.964 52.6691C995.541 52.6691 995.953 52.4632 996.2 52.0514C996.447 51.6191 996.601 51.0426 996.663 50.3219C996.725 49.6013 996.755 48.8086 996.755 47.9438V43.62C996.755 42.8788 996.714 42.1993 996.632 41.5816C996.55 40.9434 996.375 40.4389 996.107 40.0683C995.839 39.6977 995.417 39.5124 994.841 39.5124C994.408 39.5124 993.996 39.605 993.605 39.7903C993.214 39.9756 992.874 40.1918 992.586 40.4389V51.8661C992.895 52.0926 993.245 52.2882 993.636 52.4529C994.027 52.5971 994.47 52.6691 994.964 52.6691Z" fill="white"/>
<path d="M975.498 60.8844V37.1652H978.803V38.5858C979.194 38.1329 979.667 37.7417 980.223 37.4122C980.779 37.0828 981.438 36.9181 982.2 36.9181C983.126 36.9181 983.857 37.1652 984.393 37.6593C984.949 38.1329 985.36 38.7403 985.628 39.4815C985.896 40.2021 986.071 40.9434 986.153 41.7052C986.235 42.4464 986.277 43.0847 986.277 43.62V47.9438C986.277 49.1998 986.153 50.394 985.906 51.5264C985.659 52.6382 985.206 53.5442 984.547 54.2442C983.909 54.9237 983.003 55.2634 981.829 55.2634C981.191 55.2634 980.625 55.109 980.131 54.8002C979.637 54.4707 979.194 54.1001 978.803 53.6883V60.8844H975.498ZM981.181 52.6691C981.757 52.6691 982.169 52.4632 982.416 52.0514C982.663 51.6191 982.818 51.0426 982.879 50.3219C982.941 49.6013 982.972 48.8086 982.972 47.9438V43.62C982.972 42.8788 982.931 42.1993 982.849 41.5816C982.766 40.9434 982.591 40.4389 982.323 40.0683C982.056 39.6977 981.634 39.5124 981.057 39.5124C980.625 39.5124 980.213 39.605 979.822 39.7903C979.431 39.9756 979.091 40.1918 978.803 40.4389V51.8661C979.112 52.0926 979.462 52.2882 979.853 52.4529C980.244 52.5971 980.687 52.6691 981.181 52.6691Z" fill="white"/>
<path d="M965.548 55.2634C964.848 55.2634 964.23 55.0678 963.695 54.6766C963.159 54.2648 962.737 53.7501 962.428 53.1324C962.12 52.4941 961.965 51.825 961.965 51.1249C961.965 50.0131 962.15 49.0762 962.521 48.3144C962.892 47.5526 963.396 46.9143 964.034 46.3996C964.693 45.8643 965.445 45.401 966.289 45.0098C967.154 44.6186 968.06 44.2377 969.007 43.8671V42.6008C969.007 41.8802 968.966 41.2831 968.883 40.8095C968.801 40.336 968.626 39.9859 968.358 39.7595C968.111 39.5124 967.73 39.3888 967.215 39.3888C966.762 39.3888 966.392 39.4918 966.104 39.6977C965.836 39.9036 965.64 40.2021 965.517 40.5933C965.393 40.9639 965.331 41.4066 965.331 41.9214V42.817L962.058 42.6935C962.099 40.7169 962.552 39.2653 963.417 38.3388C964.281 37.3917 965.62 36.9181 967.432 36.9181C969.202 36.9181 970.458 37.4019 971.2 38.3697C971.941 39.3374 972.311 40.7375 972.311 42.5699V50.7234C972.311 51.2793 972.322 51.8147 972.342 52.3294C972.383 52.8441 972.425 53.328 972.466 53.781C972.528 54.2133 972.579 54.6251 972.62 55.0163H969.594C969.532 54.6869 969.449 54.2751 969.346 53.781C969.264 53.2662 969.202 52.803 969.161 52.3912C968.955 53.0912 968.554 53.7501 967.957 54.3678C967.38 54.9649 966.577 55.2634 965.548 55.2634ZM966.845 52.4221C967.174 52.4221 967.483 52.3294 967.771 52.1441C968.06 51.9588 968.317 51.7529 968.543 51.5264C968.77 51.2793 968.924 51.0837 969.007 50.9396V45.8746C968.492 46.1628 968.008 46.4511 967.555 46.7393C967.102 47.0276 966.701 47.3364 966.351 47.6659C966.021 47.9747 965.754 48.335 965.548 48.7468C965.362 49.138 965.27 49.591 965.27 50.1057C965.27 50.8264 965.404 51.3926 965.671 51.8044C965.939 52.2162 966.33 52.4221 966.845 52.4221Z" fill="white"/>
<path d="M947.746 55.2634C946.346 55.2634 945.265 54.9958 944.503 54.4604C943.741 53.9045 943.206 53.1015 942.897 52.0514C942.609 50.9808 942.464 49.6733 942.464 48.1291V44.0524C942.464 42.467 942.619 41.1493 942.928 40.0992C943.237 39.0491 943.772 38.2564 944.534 37.7211C945.316 37.1858 946.387 36.9181 947.746 36.9181C949.249 36.9181 950.35 37.2269 951.05 37.8446C951.771 38.4623 952.244 39.358 952.471 40.5316C952.697 41.6846 952.811 43.0744 952.811 44.701V46.1525H945.769V49.7351C945.769 50.4557 945.831 51.0426 945.954 51.4955C946.098 51.9485 946.315 52.2882 946.603 52.5147C946.912 52.7206 947.303 52.8236 947.776 52.8236C948.271 52.8236 948.641 52.7103 948.888 52.4838C949.156 52.2367 949.331 51.897 949.413 51.4646C949.516 51.0117 949.568 50.4866 949.568 49.8895V48.8086H952.78V49.488C952.78 51.2793 952.399 52.6897 951.637 53.7192C950.875 54.7487 949.578 55.2634 947.746 55.2634ZM945.769 44.3612H949.568V42.7552C949.568 42.014 949.527 41.3963 949.444 40.9022C949.362 40.3874 949.187 40.0065 948.919 39.7595C948.672 39.4918 948.271 39.358 947.715 39.358C947.179 39.358 946.768 39.4815 946.479 39.7286C946.212 39.9756 946.026 40.3977 945.923 40.9948C945.821 41.5713 945.769 42.3743 945.769 43.4038V44.3612Z" fill="white"/>
<path d="M933.237 55.0164L929.716 37.1652H933.052L935.245 51.5264L937.468 37.1652H940.68L937.283 55.0164H933.237Z" fill="white"/>
<path d="M924.08 55.0164V37.1652H927.384V55.0164H924.08ZM924.08 34.5091V31.0501H927.384V34.5091H924.08Z" fill="white"/>
<path d="M919.119 55.2634C918.192 55.2634 917.441 55.0884 916.864 54.7384C916.308 54.3884 915.897 53.8942 915.629 53.2559C915.382 52.6177 915.258 51.8661 915.258 51.0014V39.358H913.374V37.1652H915.258V31.9457H918.563V37.1652H921.435V39.358H918.563V50.7852C918.563 51.4852 918.676 51.9897 918.903 52.2985C919.129 52.5868 919.561 52.7309 920.2 52.7309C920.364 52.7309 920.55 52.7206 920.756 52.7C920.982 52.6794 921.198 52.6588 921.404 52.6383V55.0781C920.992 55.1399 920.611 55.1811 920.261 55.2017C919.911 55.2428 919.531 55.2634 919.119 55.2634Z" fill="white"/>
<path d="M904.442 55.2634C903.742 55.2634 903.125 55.0678 902.589 54.6766C902.054 54.2648 901.632 53.7501 901.323 53.1324C901.014 52.4941 900.86 51.825 900.86 51.1249C900.86 50.0131 901.045 49.0762 901.416 48.3144C901.786 47.5526 902.291 46.9143 902.929 46.3996C903.588 45.8643 904.34 45.401 905.184 45.0098C906.048 44.6186 906.954 44.2377 907.901 43.8671V42.6008C907.901 41.8802 907.86 41.2831 907.778 40.8095C907.696 40.336 907.521 39.9859 907.253 39.7595C907.006 39.5124 906.625 39.3888 906.11 39.3888C905.657 39.3888 905.287 39.4918 904.998 39.6977C904.731 39.9036 904.535 40.2021 904.412 40.5933C904.288 40.9639 904.226 41.4066 904.226 41.9214V42.817L900.953 42.6935C900.994 40.7169 901.447 39.2653 902.311 38.3388C903.176 37.3917 904.515 36.9181 906.326 36.9181C908.097 36.9181 909.353 37.4019 910.094 38.3697C910.836 39.3374 911.206 40.7375 911.206 42.5699V50.7234C911.206 51.2793 911.216 51.8147 911.237 52.3294C911.278 52.8441 911.319 53.328 911.361 53.781C911.422 54.2133 911.474 54.6251 911.515 55.0163H908.488C908.427 54.6869 908.344 54.2751 908.241 53.781C908.159 53.2662 908.097 52.803 908.056 52.3912C907.85 53.0912 907.449 53.7501 906.851 54.3678C906.275 54.9649 905.472 55.2634 904.442 55.2634ZM905.74 52.4221C906.069 52.4221 906.378 52.3294 906.666 52.1441C906.954 51.9588 907.212 51.7529 907.438 51.5264C907.665 51.2793 907.819 51.0837 907.901 50.9396V45.8746C907.387 46.1628 906.903 46.4511 906.45 46.7393C905.997 47.0276 905.596 47.3364 905.245 47.6659C904.916 47.9747 904.648 48.335 904.442 48.7468C904.257 49.138 904.164 49.591 904.164 50.1057C904.164 50.8264 904.298 51.3926 904.566 51.8044C904.834 52.2162 905.225 52.4221 905.74 52.4221Z" fill="white"/>
<path d="M888.183 55.0163V37.1652H891.488V38.9256C892.085 38.3697 892.744 37.8961 893.465 37.5049C894.185 37.1137 894.978 36.9181 895.843 36.9181C896.563 36.9181 897.109 37.1034 897.479 37.474C897.871 37.8446 898.138 38.3079 898.283 38.8638C898.447 39.4197 898.53 39.9859 898.53 40.5624V55.0163H895.225V41.5199C895.225 40.8816 895.132 40.3874 894.947 40.0374C894.762 39.6874 894.381 39.5124 893.804 39.5124C893.434 39.5124 893.042 39.6256 892.631 39.8521C892.239 40.058 891.859 40.3154 891.488 40.6242V55.0163H888.183Z" fill="white"/>
<path d="M875.458 59.0622L874.933 57.6415C875.489 57.4562 875.921 57.1268 876.23 56.6532C876.559 56.2003 876.724 55.6546 876.724 55.0164H874.964V51.4647H878.361V54.9546C878.361 56.0458 878.124 56.9106 877.65 57.5489C877.177 58.2078 876.446 58.7122 875.458 59.0622Z" fill="white"/>
<path d="M867.952 55.2634C866.49 55.2634 865.317 54.8104 864.431 53.9045C863.546 52.978 863.042 51.7632 862.918 50.2601L865.667 49.4263C865.831 50.5587 866.109 51.4132 866.501 51.9897C866.892 52.5456 867.468 52.8236 868.23 52.8236C868.827 52.8236 869.28 52.6588 869.589 52.3294C869.898 51.9794 870.052 51.5161 870.052 50.9396C870.052 50.4249 869.939 49.9616 869.713 49.5498C869.486 49.138 869.115 48.7159 868.601 48.2835L865.543 45.6584C864.925 45.123 864.4 44.5259 863.968 43.8671C863.556 43.2082 863.35 42.3537 863.35 41.3037C863.35 40.3566 863.536 39.5639 863.906 38.9256C864.298 38.2667 864.833 37.7726 865.512 37.4431C866.212 37.0931 867.026 36.9181 867.952 36.9181C869.435 36.9181 870.567 37.3814 871.349 38.3079C872.132 39.2138 872.585 40.3154 872.708 41.6125L870.361 42.4464C870.279 41.8287 870.155 41.2934 869.99 40.8404C869.826 40.3668 869.589 40.0065 869.28 39.7595C868.971 39.4918 868.57 39.358 868.076 39.358C867.54 39.358 867.108 39.5433 866.779 39.9139C866.47 40.2639 866.315 40.686 866.315 41.1801C866.315 41.489 866.377 41.7978 866.501 42.1067C866.645 42.3949 866.882 42.6832 867.211 42.9714L870.361 45.8746C870.794 46.2658 871.195 46.6879 871.566 47.1408C871.957 47.5938 872.276 48.1085 872.523 48.685C872.77 49.2616 872.894 49.9307 872.894 50.6925C872.894 51.7014 872.688 52.5456 872.276 53.225C871.864 53.9045 871.288 54.4192 870.546 54.7693C869.805 55.0987 868.94 55.2634 867.952 55.2634Z" fill="white"/>
<path d="M850.03 60.8844V37.1652H853.335V38.5858C853.726 38.1329 854.2 37.7417 854.756 37.4122C855.311 37.0828 855.97 36.9181 856.732 36.9181C857.659 36.9181 858.39 37.1652 858.925 37.6593C859.481 38.1329 859.893 38.7403 860.16 39.4815C860.428 40.2021 860.603 40.9434 860.685 41.7052C860.768 42.4464 860.809 43.0847 860.809 43.62V47.9438C860.809 49.1998 860.685 50.394 860.438 51.5264C860.191 52.6382 859.738 53.5442 859.079 54.2442C858.441 54.9237 857.535 55.2634 856.362 55.2634C855.723 55.2634 855.157 55.109 854.663 54.8002C854.169 54.4707 853.726 54.1001 853.335 53.6883V60.8844H850.03ZM855.713 52.6691C856.289 52.6691 856.701 52.4632 856.948 52.0514C857.195 51.6191 857.35 51.0426 857.412 50.3219C857.473 49.6013 857.504 48.8086 857.504 47.9438V43.62C857.504 42.8788 857.463 42.1993 857.381 41.5816C857.298 40.9434 857.123 40.4389 856.856 40.0683C856.588 39.6977 856.166 39.5124 855.589 39.5124C855.157 39.5124 854.745 39.605 854.354 39.7903C853.963 39.9756 853.623 40.1918 853.335 40.4389V51.8661C853.644 52.0926 853.994 52.2882 854.385 52.4529C854.776 52.5971 855.219 52.6691 855.713 52.6691Z" fill="white"/>
<path d="M836.247 60.8844V37.1652H839.551V38.5858C839.943 38.1329 840.416 37.7417 840.972 37.4122C841.528 37.0828 842.187 36.9181 842.949 36.9181C843.875 36.9181 844.606 37.1652 845.141 37.6593C845.697 38.1329 846.109 38.7403 846.377 39.4815C846.645 40.2021 846.82 40.9434 846.902 41.7052C846.984 42.4464 847.025 43.0847 847.025 43.62V47.9438C847.025 49.1998 846.902 50.394 846.655 51.5264C846.408 52.6382 845.955 53.5442 845.296 54.2442C844.658 54.9237 843.752 55.2634 842.578 55.2634C841.94 55.2634 841.374 55.109 840.879 54.8002C840.385 54.4707 839.943 54.1001 839.551 53.6883V60.8844H836.247ZM841.93 52.6691C842.506 52.6691 842.918 52.4632 843.165 52.0514C843.412 51.6191 843.566 51.0426 843.628 50.3219C843.69 49.6013 843.721 48.8086 843.721 47.9438V43.62C843.721 42.8788 843.68 42.1993 843.597 41.5816C843.515 40.9434 843.34 40.4389 843.072 40.0683C842.805 39.6977 842.382 39.5124 841.806 39.5124C841.374 39.5124 840.962 39.605 840.571 39.7903C840.179 39.9756 839.84 40.1918 839.551 40.4389V51.8661C839.86 52.0926 840.21 52.2882 840.602 52.4529C840.993 52.5971 841.435 52.6691 841.93 52.6691Z" fill="white"/>
<path d="M826.296 55.2634C825.596 55.2634 824.979 55.0678 824.443 54.6766C823.908 54.2648 823.486 53.7501 823.177 53.1324C822.868 52.4941 822.714 51.825 822.714 51.1249C822.714 50.0131 822.899 49.0762 823.27 48.3144C823.64 47.5526 824.145 46.9143 824.783 46.3996C825.442 45.8643 826.194 45.401 827.038 45.0098C827.902 44.6186 828.808 44.2377 829.755 43.8671V42.6008C829.755 41.8802 829.714 41.2831 829.632 40.8095C829.55 40.336 829.375 39.9859 829.107 39.7595C828.86 39.5124 828.479 39.3888 827.964 39.3888C827.511 39.3888 827.141 39.4918 826.852 39.6977C826.585 39.9036 826.389 40.2021 826.266 40.5933C826.142 40.9639 826.08 41.4066 826.08 41.9214V42.817L822.807 42.6935C822.848 40.7169 823.301 39.2653 824.165 38.3388C825.03 37.3917 826.369 36.9181 828.18 36.9181C829.951 36.9181 831.207 37.4019 831.948 38.3697C832.69 39.3374 833.06 40.7375 833.06 42.5699V50.7234C833.06 51.2793 833.07 51.8147 833.091 52.3294C833.132 52.8441 833.173 53.328 833.215 53.781C833.276 54.2133 833.328 54.6251 833.369 55.0163H830.342C830.281 54.6869 830.198 54.2751 830.095 53.781C830.013 53.2662 829.951 52.803 829.91 52.3912C829.704 53.0912 829.303 53.7501 828.705 54.3678C828.129 54.9649 827.326 55.2634 826.296 55.2634ZM827.594 52.4221C827.923 52.4221 828.232 52.3294 828.52 52.1441C828.808 51.9588 829.066 51.7529 829.292 51.5264C829.519 51.2793 829.673 51.0837 829.755 50.9396V45.8746C829.241 46.1628 828.757 46.4511 828.304 46.7393C827.851 47.0276 827.45 47.3364 827.099 47.6659C826.77 47.9747 826.502 48.335 826.296 48.7468C826.111 49.138 826.018 49.591 826.018 50.1057C826.018 50.8264 826.152 51.3926 826.42 51.8044C826.688 52.2162 827.079 52.4221 827.594 52.4221Z" fill="white"/>
<path d="M809.132 55.2634C808.493 55.2634 807.917 55.109 807.402 54.8002C806.908 54.4707 806.476 54.1104 806.105 53.7192V55.0164H802.8V30H806.105V38.5859C806.496 38.1329 806.959 37.7417 807.495 37.4123C808.051 37.0828 808.709 36.9181 809.471 36.9181C810.398 36.9181 811.129 37.1652 811.664 37.6593C812.22 38.1329 812.632 38.7403 812.899 39.4815C813.167 40.2021 813.342 40.9434 813.424 41.7052C813.507 42.4464 813.548 43.0847 813.548 43.62V47.9438C813.548 49.1998 813.425 50.394 813.177 51.5264C812.93 52.6383 812.488 53.5442 811.849 54.2442C811.211 54.9237 810.305 55.2634 809.132 55.2634ZM808.452 52.6691C809.029 52.6691 809.44 52.4632 809.688 52.0515C809.935 51.6191 810.089 51.0426 810.151 50.3219C810.213 49.6013 810.243 48.8086 810.243 47.9438V43.62C810.243 42.8788 810.202 42.1993 810.12 41.5816C810.038 40.9434 809.863 40.4389 809.595 40.0683C809.327 39.6977 808.905 39.5124 808.329 39.5124C807.896 39.5124 807.484 39.605 807.093 39.7904C806.723 39.9757 806.393 40.1816 806.105 40.408V51.8661C806.393 52.0926 806.733 52.2882 807.124 52.453C807.536 52.5971 807.979 52.6691 808.452 52.6691Z" fill="white"/>
<path d="M794.681 55.2634C793.281 55.2634 792.2 54.9958 791.438 54.4604C790.676 53.9045 790.141 53.1015 789.832 52.0514C789.544 50.9808 789.399 49.6733 789.399 48.1291V44.0524C789.399 42.467 789.554 41.1493 789.863 40.0992C790.172 39.0491 790.707 38.2564 791.469 37.7211C792.251 37.1858 793.322 36.9181 794.681 36.9181C796.184 36.9181 797.285 37.2269 797.985 37.8446C798.706 38.4623 799.18 39.358 799.406 40.5316C799.632 41.6846 799.746 43.0744 799.746 44.701V46.1525H792.704V49.7351C792.704 50.4557 792.766 51.0426 792.889 51.4955C793.034 51.9485 793.25 52.2882 793.538 52.5147C793.847 52.7206 794.238 52.8236 794.712 52.8236C795.206 52.8236 795.576 52.7103 795.823 52.4838C796.091 52.2367 796.266 51.897 796.348 51.4646C796.451 51.0117 796.503 50.4866 796.503 49.8895V48.8086H799.715V49.488C799.715 51.2793 799.334 52.6897 798.572 53.7192C797.81 54.7487 796.513 55.2634 794.681 55.2634ZM792.704 44.3612H796.503V42.7552C796.503 42.014 796.462 41.3963 796.379 40.9022C796.297 40.3874 796.122 40.0065 795.854 39.7595C795.607 39.4918 795.206 39.358 794.65 39.358C794.114 39.358 793.703 39.4815 793.414 39.7286C793.147 39.9756 792.961 40.3977 792.859 40.9948C792.756 41.5713 792.704 42.3743 792.704 43.4038V44.3612Z" fill="white"/>
<path d="M773.652 55.0164L770.78 37.1652H773.498L775.351 50.3219L777.729 37.1652H780.261L782.639 50.2602L784.492 37.1652H787.21L784.245 55.0164H781.466L779.026 42.4155L776.617 55.0164H773.652Z" fill="white"/>
<path d="M758.857 59.0622L758.332 57.6415C758.888 57.4562 759.32 57.1268 759.629 56.6532C759.959 56.2003 760.123 55.6546 760.123 55.0164H758.363V51.4647H761.76V54.9546C761.76 56.0458 761.523 56.9106 761.05 57.5489C760.576 58.2078 759.845 58.7122 758.857 59.0622Z" fill="white"/>
<path d="M751.352 55.2634C749.89 55.2634 748.716 54.8104 747.831 53.9045C746.945 52.978 746.441 51.7632 746.317 50.2601L749.066 49.4263C749.231 50.5587 749.509 51.4132 749.9 51.9897C750.291 52.5456 750.868 52.8236 751.63 52.8236C752.227 52.8236 752.68 52.6588 752.988 52.3294C753.297 51.9794 753.452 51.5161 753.452 50.9396C753.452 50.4249 753.338 49.9616 753.112 49.5498C752.885 49.138 752.515 48.7159 752 48.2835L748.943 45.6584C748.325 45.123 747.8 44.5259 747.367 43.8671C746.956 43.2082 746.75 42.3537 746.75 41.3037C746.75 40.3566 746.935 39.5639 747.306 38.9256C747.697 38.2667 748.232 37.7726 748.912 37.4431C749.612 37.0931 750.425 36.9181 751.352 36.9181C752.834 36.9181 753.966 37.3814 754.749 38.3079C755.531 39.2138 755.984 40.3154 756.108 41.6125L753.761 42.4464C753.678 41.8287 753.555 41.2934 753.39 40.8404C753.225 40.3668 752.988 40.0065 752.68 39.7595C752.371 39.4918 751.969 39.358 751.475 39.358C750.94 39.358 750.507 39.5433 750.178 39.9139C749.869 40.2639 749.715 40.686 749.715 41.1801C749.715 41.489 749.776 41.7978 749.9 42.1067C750.044 42.3949 750.281 42.6832 750.61 42.9714L753.761 45.8746C754.193 46.2658 754.594 46.6879 754.965 47.1408C755.356 47.5938 755.675 48.1085 755.922 48.685C756.169 49.2616 756.293 49.9307 756.293 50.6925C756.293 51.7014 756.087 52.5456 755.675 53.225C755.264 53.9045 754.687 54.4192 753.946 54.7693C753.205 55.0987 752.34 55.2634 751.352 55.2634Z" fill="white"/>
<path d="M739.155 55.2634C737.755 55.2634 736.674 54.9958 735.912 54.4604C735.151 53.9045 734.615 53.1015 734.306 52.0514C734.018 50.9808 733.874 49.6733 733.874 48.1291V44.0524C733.874 42.467 734.028 41.1493 734.337 40.0992C734.646 39.0491 735.181 38.2564 735.943 37.7211C736.726 37.1858 737.796 36.9181 739.155 36.9181C740.658 36.9181 741.76 37.2269 742.46 37.8446C743.181 38.4623 743.654 39.358 743.881 40.5316C744.107 41.6846 744.22 43.0744 744.22 44.701V46.1525H737.179V49.7351C737.179 50.4557 737.24 51.0426 737.364 51.4955C737.508 51.9485 737.724 52.2882 738.013 52.5147C738.321 52.7206 738.713 52.8236 739.186 52.8236C739.68 52.8236 740.051 52.7103 740.298 52.4838C740.566 52.2367 740.741 51.897 740.823 51.4646C740.926 51.0117 740.977 50.4866 740.977 49.8895V48.8086H744.189V49.488C744.189 51.2793 743.809 52.6897 743.047 53.7192C742.285 54.7487 740.988 55.2634 739.155 55.2634ZM737.179 44.3612H740.977V42.7552C740.977 42.014 740.936 41.3963 740.854 40.9022C740.772 40.3874 740.597 40.0065 740.329 39.7595C740.082 39.4918 739.68 39.358 739.124 39.358C738.589 39.358 738.177 39.4815 737.889 39.7286C737.621 39.9756 737.436 40.3977 737.333 40.9948C737.23 41.5713 737.179 42.3743 737.179 43.4038V44.3612Z" fill="white"/>
<path d="M729.469 55.2634C728.543 55.2634 727.791 55.0884 727.215 54.7384C726.659 54.3884 726.247 53.8942 725.979 53.2559C725.732 52.6177 725.609 51.8661 725.609 51.0014V39.358H723.725V37.1652H725.609V31.9457H728.913V37.1652H731.786V39.358H728.913V50.7852C728.913 51.4852 729.027 51.9897 729.253 52.2985C729.48 52.5868 729.912 52.7309 730.55 52.7309C730.715 52.7309 730.9 52.7206 731.106 52.7C731.333 52.6794 731.549 52.6588 731.755 52.6383V55.0781C731.343 55.1399 730.962 55.1811 730.612 55.2017C730.262 55.2428 729.881 55.2634 729.469 55.2634Z" fill="white"/>
<path d="M717.872 55.0164V37.1652H721.176V55.0164H717.872ZM717.872 34.5091V31.0501H721.176V34.5091H717.872Z" fill="white"/>
<path d="M710.243 55.2634C708.781 55.2634 707.607 54.8104 706.722 53.9045C705.837 52.978 705.332 51.7632 705.208 50.2601L707.957 49.4263C708.122 50.5587 708.4 51.4132 708.791 51.9897C709.182 52.5456 709.759 52.8236 710.521 52.8236C711.118 52.8236 711.571 52.6588 711.88 52.3294C712.188 51.9794 712.343 51.5161 712.343 50.9396C712.343 50.4249 712.23 49.9616 712.003 49.5498C711.777 49.138 711.406 48.7159 710.891 48.2835L707.834 45.6584C707.216 45.123 706.691 44.5259 706.259 43.8671C705.847 43.2082 705.641 42.3537 705.641 41.3037C705.641 40.3566 705.826 39.5639 706.197 38.9256C706.588 38.2667 707.123 37.7726 707.803 37.4431C708.503 37.0931 709.316 36.9181 710.243 36.9181C711.725 36.9181 712.858 37.3814 713.64 38.3079C714.422 39.2138 714.875 40.3154 714.999 41.6125L712.652 42.4464C712.569 41.8287 712.446 41.2934 712.281 40.8404C712.116 40.3668 711.88 40.0065 711.571 39.7595C711.262 39.4918 710.86 39.358 710.366 39.358C709.831 39.358 709.398 39.5433 709.069 39.9139C708.76 40.2639 708.606 40.686 708.606 41.1801C708.606 41.489 708.668 41.7978 708.791 42.1067C708.935 42.3949 709.172 42.6832 709.501 42.9714L712.652 45.8746C713.084 46.2658 713.486 46.6879 713.856 47.1408C714.247 47.5938 714.566 48.1085 714.814 48.685C715.061 49.2616 715.184 49.9307 715.184 50.6925C715.184 51.7014 714.978 52.5456 714.566 53.225C714.155 53.9045 713.578 54.4192 712.837 54.7693C712.096 55.0987 711.231 55.2634 710.243 55.2634Z" fill="white"/>
<path d="M698.684 55.2634C698.045 55.2634 697.469 55.109 696.954 54.8002C696.46 54.4707 696.028 54.1104 695.657 53.7192V55.0164H692.352V30H695.657V38.5859C696.048 38.1329 696.511 37.7417 697.047 37.4123C697.603 37.0828 698.262 36.9181 699.023 36.9181C699.95 36.9181 700.681 37.1652 701.216 37.6593C701.772 38.1329 702.184 38.7403 702.452 39.4815C702.719 40.2021 702.894 40.9434 702.977 41.7052C703.059 42.4464 703.1 43.0847 703.1 43.62V47.9438C703.1 49.1998 702.977 50.394 702.73 51.5264C702.482 52.6383 702.04 53.5442 701.401 54.2442C700.763 54.9237 699.857 55.2634 698.684 55.2634ZM698.004 52.6691C698.581 52.6691 698.993 52.4632 699.24 52.0515C699.487 51.6191 699.641 51.0426 699.703 50.3219C699.765 49.6013 699.796 48.8086 699.796 47.9438V43.62C699.796 42.8788 699.754 42.1993 699.672 41.5816C699.59 40.9434 699.415 40.4389 699.147 40.0683C698.879 39.6977 698.457 39.5124 697.881 39.5124C697.448 39.5124 697.037 39.605 696.645 39.7904C696.275 39.9757 695.945 40.1816 695.657 40.408V51.8661C695.945 52.0926 696.285 52.2882 696.676 52.453C697.088 52.5971 697.531 52.6691 698.004 52.6691Z" fill="white"/>
<path d="M684.233 55.2634C682.833 55.2634 681.752 54.9958 680.99 54.4604C680.228 53.9045 679.693 53.1015 679.384 52.0514C679.096 50.9808 678.952 49.6733 678.952 48.1291V44.0524C678.952 42.467 679.106 41.1493 679.415 40.0992C679.724 39.0491 680.259 38.2564 681.021 37.7211C681.803 37.1858 682.874 36.9181 684.233 36.9181C685.736 36.9181 686.837 37.2269 687.538 37.8446C688.258 38.4623 688.732 39.358 688.958 40.5316C689.185 41.6846 689.298 43.0744 689.298 44.701V46.1525H682.256V49.7351C682.256 50.4557 682.318 51.0426 682.442 51.4955C682.586 51.9485 682.802 52.2882 683.09 52.5147C683.399 52.7206 683.79 52.8236 684.264 52.8236C684.758 52.8236 685.129 52.7103 685.376 52.4838C685.643 52.2367 685.818 51.897 685.901 51.4646C686.004 51.0117 686.055 50.4866 686.055 49.8895V48.8086H689.267V49.488C689.267 51.2793 688.886 52.6897 688.124 53.7192C687.363 54.7487 686.065 55.2634 684.233 55.2634ZM682.256 44.3612H686.055V42.7552C686.055 42.014 686.014 41.3963 685.932 40.9022C685.849 40.3874 685.674 40.0065 685.406 39.7595C685.159 39.4918 684.758 39.358 684.202 39.358C683.667 39.358 683.255 39.4815 682.967 39.7286C682.699 39.9756 682.514 40.3977 682.411 40.9948C682.308 41.5713 682.256 42.3743 682.256 43.4038V44.3612Z" fill="white"/>
<path d="M663.204 55.0164L660.332 37.1652H663.05L664.903 50.3219L667.281 37.1652H669.813L672.191 50.2602L674.044 37.1652H676.762L673.797 55.0164H671.018L668.578 42.4155L666.169 55.0164H663.204Z" fill="white"/>
<path d="M649.333 55.2634C648.406 55.2634 647.655 55.0884 647.078 54.7384C646.522 54.3884 646.111 53.8942 645.843 53.2559C645.596 52.6177 645.472 51.8661 645.472 51.0014V39.358H643.588V37.1652H645.472V31.9457H648.777V37.1652H651.649V39.358H648.777V50.7852C648.777 51.4852 648.89 51.9897 649.117 52.2985C649.343 52.5868 649.776 52.7309 650.414 52.7309C650.579 52.7309 650.764 52.7206 650.97 52.7C651.196 52.6794 651.412 52.6588 651.618 52.6383V55.0781C651.207 55.1399 650.826 55.1811 650.476 55.2017C650.126 55.2428 649.745 55.2634 649.333 55.2634Z" fill="white"/>
<path d="M637.828 55.0164V30H641.133V55.0164H637.828Z" fill="white"/>
<path d="M630.678 55.0164V37.1652H633.982V55.0164H630.678ZM630.678 34.5091V31.0501H633.982V34.5091H630.678Z" fill="white"/>
<path d="M619.423 55.2634C618.723 55.2634 618.177 55.0781 617.786 54.7075C617.394 54.3369 617.116 53.8736 616.952 53.3177C616.808 52.7618 616.736 52.1956 616.736 51.6191V37.1652H620.04V50.6308C620.04 51.2691 620.133 51.7735 620.318 52.1441C620.503 52.4941 620.884 52.6692 621.461 52.6692C621.832 52.6692 622.212 52.5662 622.604 52.3603C623.015 52.1338 623.407 51.8662 623.777 51.5573V37.1652H627.082V55.0164H623.777V53.256C623.201 53.8119 622.542 54.2854 621.801 54.6766C621.08 55.0678 620.287 55.2634 619.423 55.2634Z" fill="white"/>
<path d="M609.439 55.2634C608.8 55.2634 608.224 55.109 607.709 54.8002C607.215 54.4707 606.783 54.1104 606.412 53.7192V55.0164H603.107V30H606.412V38.5859C606.803 38.1329 607.267 37.7417 607.802 37.4123C608.358 37.0828 609.017 36.9181 609.778 36.9181C610.705 36.9181 611.436 37.1652 611.971 37.6593C612.527 38.1329 612.939 38.7403 613.207 39.4815C613.474 40.2021 613.649 40.9434 613.732 41.7052C613.814 42.4464 613.855 43.0847 613.855 43.62V47.9438C613.855 49.1998 613.732 50.394 613.485 51.5264C613.238 52.6383 612.795 53.5442 612.157 54.2442C611.518 54.9237 610.612 55.2634 609.439 55.2634ZM608.759 52.6691C609.336 52.6691 609.748 52.4632 609.995 52.0515C610.242 51.6191 610.396 51.0426 610.458 50.3219C610.52 49.6013 610.551 48.8086 610.551 47.9438V43.62C610.551 42.8788 610.509 42.1993 610.427 41.5816C610.345 40.9434 610.17 40.4389 609.902 40.0683C609.634 39.6977 609.212 39.5124 608.636 39.5124C608.203 39.5124 607.792 39.605 607.4 39.7904C607.03 39.9757 606.7 40.1816 606.412 40.408V51.8661C606.7 52.0926 607.04 52.2882 607.431 52.453C607.843 52.5971 608.286 52.6691 608.759 52.6691Z" fill="white"/>
<path d="M586.464 55.2634C584.961 55.2634 583.839 54.7178 583.097 53.6266C582.356 52.5147 581.986 50.6411 581.986 48.0056V44.5465C581.986 43.1876 582.099 41.9317 582.325 40.7787C582.552 39.605 582.974 38.6682 583.592 37.9682C584.23 37.2681 585.156 36.9181 586.371 36.9181C586.968 36.9181 587.514 37.0519 588.008 37.3196C588.502 37.5873 588.945 37.9167 589.336 38.3079V30H592.641V55.0164H589.336V53.8736C588.945 54.2854 588.513 54.6252 588.039 54.8928C587.586 55.1399 587.061 55.2634 586.464 55.2634ZM587.298 52.6691C587.607 52.6691 587.936 52.6177 588.286 52.5147C588.636 52.3912 588.986 52.2162 589.336 51.9897V40.2845C589.048 40.0786 588.729 39.9036 588.379 39.7595C588.029 39.5948 587.648 39.5124 587.236 39.5124C586.474 39.5124 585.959 39.883 585.692 40.6242C585.424 41.3449 585.29 42.2199 585.29 43.2494V48.2836C585.29 49.1071 585.331 49.8587 585.414 50.5381C585.517 51.197 585.712 51.722 586.001 52.1132C586.289 52.4838 586.721 52.6691 587.298 52.6691Z" fill="white"/>
<path d="M568.753 55.0163V37.1652H572.058V38.9256C572.655 38.3697 573.314 37.8961 574.034 37.5049C574.755 37.1137 575.548 36.9181 576.412 36.9181C577.133 36.9181 577.679 37.1034 578.049 37.474C578.44 37.8446 578.708 38.3079 578.852 38.8638C579.017 39.4197 579.099 39.9859 579.099 40.5624V55.0163H575.795V41.5199C575.795 40.8816 575.702 40.3874 575.517 40.0374C575.331 39.6874 574.951 39.5124 574.374 39.5124C574.003 39.5124 573.612 39.6256 573.2 39.8521C572.809 40.058 572.428 40.3154 572.058 40.6242V55.0163H568.753Z" fill="white"/>
<path d="M558.803 55.2634C558.103 55.2634 557.485 55.0678 556.95 54.6766C556.414 54.2648 555.992 53.7501 555.684 53.1324C555.375 52.4941 555.22 51.825 555.22 51.1249C555.22 50.0131 555.406 49.0762 555.776 48.3144C556.147 47.5526 556.651 46.9143 557.289 46.3996C557.948 45.8643 558.7 45.401 559.544 45.0098C560.409 44.6186 561.315 44.2377 562.262 43.8671V42.6008C562.262 41.8802 562.221 41.2831 562.138 40.8095C562.056 40.336 561.881 39.9859 561.613 39.7595C561.366 39.5124 560.985 39.3888 560.471 39.3888C560.018 39.3888 559.647 39.4918 559.359 39.6977C559.091 39.9036 558.895 40.2021 558.772 40.5933C558.648 40.9639 558.587 41.4066 558.587 41.9214V42.817L555.313 42.6935C555.354 40.7169 555.807 39.2653 556.672 38.3388C557.537 37.3917 558.875 36.9181 560.687 36.9181C562.457 36.9181 563.713 37.4019 564.455 38.3697C565.196 39.3374 565.566 40.7375 565.566 42.5699V50.7234C565.566 51.2793 565.577 51.8147 565.597 52.3294C565.639 52.8441 565.68 53.328 565.721 53.781C565.783 54.2133 565.834 54.6251 565.875 55.0163H562.849C562.787 54.6869 562.705 54.2751 562.602 53.781C562.519 53.2662 562.457 52.803 562.416 52.3912C562.21 53.0912 561.809 53.7501 561.212 54.3678C560.635 54.9649 559.832 55.2634 558.803 55.2634ZM560.1 52.4221C560.429 52.4221 560.738 52.3294 561.026 52.1441C561.315 51.9588 561.572 51.7529 561.799 51.5264C562.025 51.2793 562.18 51.0837 562.262 50.9396V45.8746C561.747 46.1628 561.263 46.4511 560.81 46.7393C560.357 47.0276 559.956 47.3364 559.606 47.6659C559.276 47.9747 559.009 48.335 558.803 48.7468C558.618 49.138 558.525 49.591 558.525 50.1057C558.525 50.8264 558.659 51.3926 558.926 51.8044C559.194 52.2162 559.585 52.4221 560.1 52.4221Z" fill="white"/>
<path d="M539.534 55.2634C538.031 55.2634 536.909 54.7178 536.168 53.6266C535.426 52.5147 535.056 50.6411 535.056 48.0056V44.5465C535.056 43.1876 535.169 41.9317 535.396 40.7787C535.622 39.605 536.044 38.6682 536.662 37.9682C537.3 37.2681 538.227 36.9181 539.441 36.9181C540.038 36.9181 540.584 37.0519 541.078 37.3196C541.572 37.5873 542.015 37.9167 542.406 38.3079V30H545.711V55.0164H542.406V53.8736C542.015 54.2854 541.583 54.6252 541.109 54.8928C540.656 55.1399 540.131 55.2634 539.534 55.2634ZM540.368 52.6691C540.677 52.6691 541.006 52.6177 541.356 52.5147C541.706 52.3912 542.056 52.2162 542.406 51.9897V40.2845C542.118 40.0786 541.799 39.9036 541.449 39.7595C541.099 39.5948 540.718 39.5124 540.306 39.5124C539.544 39.5124 539.03 39.883 538.762 40.6242C538.494 41.3449 538.36 42.2199 538.36 43.2494V48.2836C538.36 49.1071 538.402 49.8587 538.484 50.5381C538.587 51.197 538.782 51.722 539.071 52.1132C539.359 52.4838 539.791 52.6691 540.368 52.6691Z" fill="white"/>
<path d="M527.338 55.2634C525.938 55.2634 524.857 54.9958 524.095 54.4604C523.333 53.9045 522.798 53.1015 522.489 52.0514C522.201 50.9808 522.057 49.6733 522.057 48.1291V44.0524C522.057 42.467 522.211 41.1493 522.52 40.0992C522.829 39.0491 523.364 38.2564 524.126 37.7211C524.908 37.1858 525.979 36.9181 527.338 36.9181C528.841 36.9181 529.942 37.2269 530.642 37.8446C531.363 38.4623 531.837 39.358 532.063 40.5316C532.29 41.6846 532.403 43.0744 532.403 44.701V46.1525H525.361V49.7351C525.361 50.4557 525.423 51.0426 525.547 51.4955C525.691 51.9485 525.907 52.2882 526.195 52.5147C526.504 52.7206 526.895 52.8236 527.369 52.8236C527.863 52.8236 528.234 52.7103 528.481 52.4838C528.748 52.2367 528.923 51.897 529.006 51.4646C529.109 51.0117 529.16 50.4866 529.16 49.8895V48.8086H532.372V49.488C532.372 51.2793 531.991 52.6897 531.229 53.7192C530.467 54.7487 529.17 55.2634 527.338 55.2634ZM525.361 44.3612H529.16V42.7552C529.16 42.014 529.119 41.3963 529.036 40.9022C528.954 40.3874 528.779 40.0065 528.511 39.7595C528.264 39.4918 527.863 39.358 527.307 39.358C526.772 39.358 526.36 39.4815 526.072 39.7286C525.804 39.9756 525.619 40.3977 525.516 40.9948C525.413 41.5713 525.361 42.3743 525.361 43.4038V44.3612Z" fill="white"/>
<path d="M508.824 55.0163V37.1652H512.129V38.9256C512.726 38.3697 513.385 37.8961 514.105 37.5049C514.826 37.1137 515.619 36.9181 516.483 36.9181C517.204 36.9181 517.75 37.1034 518.12 37.474C518.512 37.8446 518.779 38.3079 518.923 38.8638C519.088 39.4197 519.17 39.9859 519.17 40.5624V55.0163H515.866V41.5199C515.866 40.8816 515.773 40.3874 515.588 40.0374C515.402 39.6874 515.022 39.5124 514.445 39.5124C514.074 39.5124 513.683 39.6256 513.271 39.8521C512.88 40.058 512.499 40.3154 512.129 40.6242V55.0163H508.824Z" fill="white"/>
<path d="M499.917 60.6064C498.826 60.6064 497.837 60.4829 496.952 60.2358C496.087 60.0093 495.397 59.649 494.883 59.1549C494.389 58.6607 494.141 58.0121 494.141 57.2091C494.141 56.5914 494.286 56.0458 494.574 55.5723C494.862 55.1193 495.233 54.7281 495.686 54.3987C496.139 54.0692 496.612 53.8119 497.106 53.6265L498.651 53.8427C498.383 54.0898 498.126 54.3472 497.879 54.6148C497.631 54.8619 497.426 55.1193 497.261 55.387C497.096 55.6752 497.014 55.9841 497.014 56.3135C497.014 56.8488 497.24 57.2503 497.693 57.518C498.167 57.7856 499.001 57.9195 500.195 57.9195C501.368 57.9195 502.233 57.7754 502.789 57.4871C503.366 57.2194 503.654 56.7871 503.654 56.19C503.654 55.8193 503.582 55.5105 503.438 55.2634C503.294 55.0369 503.046 54.8516 502.696 54.7075C502.346 54.5634 501.842 54.4604 501.183 54.3987L497.292 53.9045C496.489 53.8016 495.892 53.5442 495.5 53.1324C495.109 52.7206 494.914 52.2676 494.914 51.7735C494.914 51.0323 495.119 50.4043 495.531 49.8895C495.964 49.3748 496.54 48.7983 497.261 48.16L498.373 49.0248C498.249 49.1895 498.095 49.4263 497.909 49.7351C497.724 50.0234 497.631 50.3116 497.631 50.5999C497.631 50.8264 497.745 51.0117 497.971 51.1558C498.218 51.2999 498.599 51.3926 499.114 51.4338L502.11 51.7117C503.51 51.8353 504.55 52.2573 505.229 52.978C505.908 53.6986 506.248 54.7281 506.248 56.0664C506.248 57.0547 506.011 57.8886 505.538 58.5681C505.085 59.2475 504.395 59.752 503.469 60.0814C502.542 60.4314 501.358 60.6064 499.917 60.6064ZM500.04 49.5189C498.826 49.5189 497.837 49.2513 497.076 48.7159C496.314 48.1806 495.747 47.4394 495.377 46.4923C495.027 45.5451 494.852 44.4642 494.852 43.2494C494.852 41.8699 495.047 40.7169 495.439 39.7903C495.83 38.8432 496.406 38.1329 497.168 37.6593C497.951 37.1652 498.908 36.9181 500.04 36.9181C501.214 36.9181 502.171 37.2166 502.913 37.8137C503.654 38.3902 504.2 39.1624 504.55 40.1301C504.9 41.0978 505.075 42.1684 505.075 43.342C505.075 44.5568 504.91 45.6378 504.58 46.5849C504.272 47.5114 503.747 48.2321 503.005 48.7468C502.285 49.2616 501.296 49.5189 500.04 49.5189ZM500.04 47.1408C500.493 47.1408 500.854 47.0585 501.121 46.8938C501.389 46.7084 501.585 46.4511 501.708 46.1216C501.852 45.7922 501.945 45.3907 501.986 44.9172C502.048 44.423 502.079 43.8671 502.079 43.2494C502.079 42.6317 502.058 42.0758 502.017 41.5816C501.976 41.0875 501.883 40.6757 501.739 40.3463C501.595 39.9962 501.389 39.7286 501.121 39.5433C500.854 39.358 500.504 39.2653 500.071 39.2653C499.618 39.2653 499.248 39.358 498.959 39.5433C498.692 39.708 498.476 39.9654 498.311 40.3154C498.167 40.6448 498.064 41.0566 498.002 41.5508C497.961 42.0449 497.94 42.6111 497.94 43.2494C497.94 43.8053 497.961 44.3201 498.002 44.7936C498.064 45.2672 498.167 45.679 498.311 46.029C498.455 46.379 498.661 46.657 498.929 46.8629C499.217 47.0482 499.587 47.1408 500.04 47.1408ZM504.457 40.161L503.685 38.9256C503.849 38.6373 504.22 38.277 504.797 37.8446C505.373 37.4122 505.991 37.0519 506.65 36.7637L507.514 38.9256C507.226 38.9873 506.835 39.1006 506.341 39.2653C505.867 39.43 505.435 39.605 505.044 39.7903C504.652 39.9551 504.457 40.0786 504.457 40.161Z" fill="white"/>
<path d="M488.35 55.0164V37.1652H491.655V55.0164H488.35ZM488.35 34.5091V31.0501H491.655V34.5091H488.35Z" fill="white"/>
<path d="M480.721 55.2634C479.259 55.2634 478.085 54.8104 477.2 53.9045C476.315 52.978 475.81 51.7632 475.687 50.2601L478.435 49.4263C478.6 50.5587 478.878 51.4132 479.269 51.9897C479.661 52.5456 480.237 52.8236 480.999 52.8236C481.596 52.8236 482.049 52.6588 482.358 52.3294C482.667 51.9794 482.821 51.5161 482.821 50.9396C482.821 50.4249 482.708 49.9616 482.481 49.5498C482.255 49.138 481.884 48.7159 481.37 48.2835L478.312 45.6584C477.694 45.123 477.169 44.5259 476.737 43.8671C476.325 43.2082 476.119 42.3537 476.119 41.3037C476.119 40.3566 476.304 39.5639 476.675 38.9256C477.066 38.2667 477.602 37.7726 478.281 37.4431C478.981 37.0931 479.794 36.9181 480.721 36.9181C482.203 36.9181 483.336 37.3814 484.118 38.3079C484.901 39.2138 485.354 40.3154 485.477 41.6125L483.13 42.4464C483.048 41.8287 482.924 41.2934 482.759 40.8404C482.595 40.3668 482.358 40.0065 482.049 39.7595C481.74 39.4918 481.339 39.358 480.844 39.358C480.309 39.358 479.877 39.5433 479.547 39.9139C479.238 40.2639 479.084 40.686 479.084 41.1801C479.084 41.489 479.146 41.7978 479.269 42.1067C479.414 42.3949 479.65 42.6832 479.98 42.9714L483.13 45.8746C483.562 46.2658 483.964 46.6879 484.334 47.1408C484.726 47.5938 485.045 48.1085 485.292 48.685C485.539 49.2616 485.662 49.9307 485.662 50.6925C485.662 51.7014 485.457 52.5456 485.045 53.225C484.633 53.9045 484.056 54.4192 483.315 54.7693C482.574 55.0987 481.709 55.2634 480.721 55.2634Z" fill="white"/>
<path d="M468.525 55.2634C467.125 55.2634 466.044 54.9958 465.282 54.4604C464.52 53.9045 463.985 53.1015 463.676 52.0514C463.388 50.9808 463.244 49.6733 463.244 48.1291V44.0524C463.244 42.467 463.398 41.1493 463.707 40.0992C464.016 39.0491 464.551 38.2564 465.313 37.7211C466.095 37.1858 467.166 36.9181 468.525 36.9181C470.028 36.9181 471.129 37.2269 471.829 37.8446C472.55 38.4623 473.024 39.358 473.25 40.5316C473.477 41.6846 473.59 43.0744 473.59 44.701V46.1525H466.548V49.7351C466.548 50.4557 466.61 51.0426 466.734 51.4955C466.878 51.9485 467.094 52.2882 467.382 52.5147C467.691 52.7206 468.082 52.8236 468.556 52.8236C469.05 52.8236 469.421 52.7103 469.668 52.4838C469.935 52.2367 470.11 51.897 470.193 51.4646C470.296 51.0117 470.347 50.4866 470.347 49.8895V48.8086H473.559V49.488C473.559 51.2793 473.178 52.6897 472.416 53.7192C471.655 54.7487 470.357 55.2634 468.525 55.2634ZM466.548 44.3612H470.347V42.7552C470.347 42.014 470.306 41.3963 470.224 40.9022C470.141 40.3874 469.966 40.0065 469.698 39.7595C469.451 39.4918 469.05 39.358 468.494 39.358C467.959 39.358 467.547 39.4815 467.259 39.7286C466.991 39.9756 466.806 40.3977 466.703 40.9948C466.6 41.5713 466.548 42.3743 466.548 43.4038V44.3612Z" fill="white"/>
<path d="M454.059 55.2634C452.556 55.2634 451.434 54.7178 450.693 53.6266C449.951 52.5147 449.581 50.6411 449.581 48.0056V44.5465C449.581 43.1876 449.694 41.9317 449.921 40.7787C450.147 39.605 450.569 38.6682 451.187 37.9682C451.825 37.2681 452.752 36.9181 453.966 36.9181C454.563 36.9181 455.109 37.0519 455.603 37.3196C456.097 37.5873 456.54 37.9167 456.931 38.3079V30H460.236V55.0164H456.931V53.8736C456.54 54.2854 456.108 54.6252 455.634 54.8928C455.181 55.1399 454.656 55.2634 454.059 55.2634ZM454.893 52.6691C455.202 52.6691 455.531 52.6177 455.881 52.5147C456.231 52.3912 456.581 52.2162 456.931 51.9897V40.2845C456.643 40.0786 456.324 39.9036 455.974 39.7595C455.624 39.5948 455.243 39.5124 454.831 39.5124C454.069 39.5124 453.555 39.883 453.287 40.6242C453.019 41.3449 452.885 42.2199 452.885 43.2494V48.2836C452.885 49.1071 452.927 49.8587 453.009 50.5381C453.112 51.197 453.308 51.722 453.596 52.1132C453.884 52.4838 454.316 52.6691 454.893 52.6691Z" fill="white"/>
<path d="M437.195 59.0622L436.67 57.6415C437.226 57.4562 437.658 57.1268 437.967 56.6532C438.297 56.2003 438.461 55.6546 438.461 55.0164H436.701V51.4647H440.098V54.9546C440.098 56.0458 439.861 56.9106 439.388 57.5489C438.914 58.2078 438.183 58.7122 437.195 59.0622Z" fill="white"/>
<path d="M429.689 55.2634C428.228 55.2634 427.054 54.8104 426.169 53.9045C425.283 52.978 424.779 51.7632 424.655 50.2601L427.404 49.4263C427.569 50.5587 427.847 51.4132 428.238 51.9897C428.629 52.5456 429.206 52.8236 429.967 52.8236C430.565 52.8236 431.017 52.6588 431.326 52.3294C431.635 51.9794 431.79 51.5161 431.79 50.9396C431.79 50.4249 431.676 49.9616 431.45 49.5498C431.223 49.138 430.853 48.7159 430.338 48.2835L427.28 45.6584C426.663 45.123 426.138 44.5259 425.705 43.8671C425.294 43.2082 425.088 42.3537 425.088 41.3037C425.088 40.3566 425.273 39.5639 425.644 38.9256C426.035 38.2667 426.57 37.7726 427.25 37.4431C427.95 37.0931 428.763 36.9181 429.689 36.9181C431.172 36.9181 432.304 37.3814 433.087 38.3079C433.869 39.2138 434.322 40.3154 434.446 41.6125L432.098 42.4464C432.016 41.8287 431.893 41.2934 431.728 40.8404C431.563 40.3668 431.326 40.0065 431.017 39.7595C430.709 39.4918 430.307 39.358 429.813 39.358C429.278 39.358 428.845 39.5433 428.516 39.9139C428.207 40.2639 428.053 40.686 428.053 41.1801C428.053 41.489 428.114 41.7978 428.238 42.1067C428.382 42.3949 428.619 42.6832 428.948 42.9714L432.098 45.8746C432.531 46.2658 432.932 46.6879 433.303 47.1408C433.694 47.5938 434.013 48.1085 434.26 48.685C434.507 49.2616 434.631 49.9307 434.631 50.6925C434.631 51.7014 434.425 52.5456 434.013 53.225C433.601 53.9045 433.025 54.4192 432.284 54.7693C431.542 55.0987 430.678 55.2634 429.689 55.2634Z" fill="white"/>
<path d="M404.559 55.0163V37.1652H407.617V38.8638C408.214 38.1844 408.873 37.6799 409.593 37.3505C410.314 37.021 411.055 36.8563 411.817 36.8563C412.476 36.8563 413.063 37.021 413.577 37.3505C414.113 37.6799 414.494 38.2667 414.72 39.1109C415.358 38.3285 416.048 37.7623 416.789 37.4122C417.551 37.0416 418.344 36.8563 419.167 36.8563C419.744 36.8563 420.269 37.0005 420.742 37.2887C421.216 37.5564 421.597 37.999 421.885 38.6167C422.173 39.2138 422.318 40.0065 422.318 40.9948V55.0163H419.291V41.211C419.291 40.3463 419.147 39.7698 418.859 39.4815C418.591 39.1727 418.22 39.0182 417.747 39.0182C417.294 39.0182 416.82 39.1521 416.326 39.4197C415.832 39.6668 415.379 40.0168 414.967 40.4698C414.967 40.5522 414.967 40.6345 414.967 40.7169C414.967 40.7992 414.967 40.8919 414.967 40.9948V55.0163H411.94V41.211C411.94 40.3463 411.796 39.7698 411.508 39.4815C411.24 39.1727 410.87 39.0182 410.396 39.0182C409.943 39.0182 409.47 39.1521 408.976 39.4197C408.502 39.6668 408.049 40.0168 407.617 40.4698V55.0163H404.559Z" fill="white"/>
<path d="M394.609 55.2634C393.909 55.2634 393.291 55.0678 392.756 54.6766C392.22 54.2648 391.798 53.7501 391.49 53.1324C391.181 52.4941 391.026 51.825 391.026 51.1249C391.026 50.0131 391.212 49.0762 391.582 48.3144C391.953 47.5526 392.457 46.9143 393.096 46.3996C393.754 45.8643 394.506 45.401 395.35 45.0098C396.215 44.6186 397.121 44.2377 398.068 43.8671V42.6008C398.068 41.8802 398.027 41.2831 397.944 40.8095C397.862 40.336 397.687 39.9859 397.419 39.7595C397.172 39.5124 396.791 39.3888 396.277 39.3888C395.824 39.3888 395.453 39.4918 395.165 39.6977C394.897 39.9036 394.701 40.2021 394.578 40.5933C394.454 40.9639 394.393 41.4066 394.393 41.9214V42.817L391.119 42.6935C391.16 40.7169 391.613 39.2653 392.478 38.3388C393.343 37.3917 394.681 36.9181 396.493 36.9181C398.263 36.9181 399.519 37.4019 400.261 38.3697C401.002 39.3374 401.373 40.7375 401.373 42.5699V50.7234C401.373 51.2793 401.383 51.8147 401.403 52.3294C401.445 52.8441 401.486 53.328 401.527 53.781C401.589 54.2133 401.64 54.6251 401.681 55.0163H398.655C398.593 54.6869 398.511 54.2751 398.408 53.781C398.325 53.2662 398.263 52.803 398.222 52.3912C398.016 53.0912 397.615 53.7501 397.018 54.3678C396.441 54.9649 395.638 55.2634 394.609 55.2634ZM395.906 52.4221C396.235 52.4221 396.544 52.3294 396.833 52.1441C397.121 51.9588 397.378 51.7529 397.605 51.5264C397.831 51.2793 397.986 51.0837 398.068 50.9396V45.8746C397.553 46.1628 397.069 46.4511 396.616 46.7393C396.163 47.0276 395.762 47.3364 395.412 47.6659C395.082 47.9747 394.815 48.335 394.609 48.7468C394.424 49.138 394.331 49.591 394.331 50.1057C394.331 50.8264 394.465 51.3926 394.732 51.8044C395 52.2162 395.391 52.4221 395.906 52.4221Z" fill="white"/>
<path d="M383.864 55.2634C382.464 55.2634 381.383 54.9958 380.621 54.4604C379.86 53.9045 379.324 53.1015 379.015 52.0514C378.727 50.9808 378.583 49.6733 378.583 48.1291V44.0524C378.583 42.467 378.737 41.1493 379.046 40.0992C379.355 39.0491 379.89 38.2564 380.652 37.7211C381.435 37.1858 382.505 36.9181 383.864 36.9181C385.367 36.9181 386.469 37.2269 387.169 37.8446C387.89 38.4623 388.363 39.358 388.59 40.5316C388.816 41.6846 388.929 43.0744 388.929 44.701V46.1525H381.888V49.7351C381.888 50.4557 381.949 51.0426 382.073 51.4955C382.217 51.9485 382.433 52.2882 382.722 52.5147C383.03 52.7206 383.422 52.8236 383.895 52.8236C384.389 52.8236 384.76 52.7103 385.007 52.4838C385.275 52.2367 385.45 51.897 385.532 51.4646C385.635 51.0117 385.686 50.4866 385.686 49.8895V48.8086H388.898V49.488C388.898 51.2793 388.517 52.6897 387.756 53.7192C386.994 54.7487 385.697 55.2634 383.864 55.2634ZM381.888 44.3612H385.686V42.7552C385.686 42.014 385.645 41.3963 385.563 40.9022C385.481 40.3874 385.306 40.0065 385.038 39.7595C384.791 39.4918 384.389 39.358 383.833 39.358C383.298 39.358 382.886 39.4815 382.598 39.7286C382.33 39.9756 382.145 40.3977 382.042 40.9948C381.939 41.5713 381.888 42.3743 381.888 43.4038V44.3612Z" fill="white"/>
<path d="M374.178 55.2634C373.252 55.2634 372.5 55.0884 371.924 54.7384C371.368 54.3884 370.956 53.8942 370.688 53.2559C370.441 52.6177 370.318 51.8661 370.318 51.0014V39.358H368.434V37.1652H370.318V31.9457H373.622V37.1652H376.495V39.358H373.622V50.7852C373.622 51.4852 373.736 51.9897 373.962 52.2985C374.189 52.5868 374.621 52.7309 375.259 52.7309C375.424 52.7309 375.609 52.7206 375.815 52.7C376.042 52.6794 376.258 52.6588 376.464 52.6383V55.0781C376.052 55.1399 375.671 55.1811 375.321 55.2017C374.971 55.2428 374.59 55.2634 374.178 55.2634Z" fill="white"/>
<path d="M352.84 55.2634C351.337 55.2634 350.215 54.7178 349.474 53.6266C348.733 52.5147 348.362 50.6411 348.362 48.0056V44.5465C348.362 43.1876 348.475 41.9317 348.702 40.7787C348.928 39.605 349.35 38.6682 349.968 37.9682C350.606 37.2681 351.533 36.9181 352.748 36.9181C353.345 36.9181 353.89 37.0519 354.385 37.3196C354.879 37.5873 355.321 37.9167 355.713 38.3079V30H359.017V55.0164H355.713V53.8736C355.321 54.2854 354.889 54.6252 354.415 54.8928C353.962 55.1399 353.437 55.2634 352.84 55.2634ZM353.674 52.6691C353.983 52.6691 354.312 52.6177 354.662 52.5147C355.012 52.3912 355.363 52.2162 355.713 51.9897V40.2845C355.424 40.0786 355.105 39.9036 354.755 39.7595C354.405 39.5948 354.024 39.5124 353.612 39.5124C352.851 39.5124 352.336 39.883 352.068 40.6242C351.801 41.3449 351.667 42.2199 351.667 43.2494V48.2836C351.667 49.1071 351.708 49.8587 351.79 50.5381C351.893 51.197 352.089 51.722 352.377 52.1132C352.665 52.4838 353.098 52.6691 353.674 52.6691Z" fill="white"/>
<path d="M340.644 55.2634C339.244 55.2634 338.163 54.9958 337.401 54.4604C336.639 53.9045 336.104 53.1015 335.795 52.0514C335.507 50.9808 335.363 49.6733 335.363 48.1291V44.0524C335.363 42.467 335.517 41.1493 335.826 40.0992C336.135 39.0491 336.67 38.2564 337.432 37.7211C338.215 37.1858 339.285 36.9181 340.644 36.9181C342.147 36.9181 343.249 37.2269 343.949 37.8446C344.669 38.4623 345.143 39.358 345.369 40.5316C345.596 41.6846 345.709 43.0744 345.709 44.701V46.1525H338.668V49.7351C338.668 50.4557 338.729 51.0426 338.853 51.4955C338.997 51.9485 339.213 52.2882 339.501 52.5147C339.81 52.7206 340.201 52.8236 340.675 52.8236C341.169 52.8236 341.54 52.7103 341.787 52.4838C342.055 52.2367 342.23 51.897 342.312 51.4646C342.415 51.0117 342.466 50.4866 342.466 49.8895V48.8086H345.678V49.488C345.678 51.2793 345.297 52.6897 344.536 53.7192C343.774 54.7487 342.477 55.2634 340.644 55.2634ZM338.668 44.3612H342.466V42.7552C342.466 42.014 342.425 41.3963 342.343 40.9022C342.26 40.3874 342.085 40.0065 341.818 39.7595C341.571 39.4918 341.169 39.358 340.613 39.358C340.078 39.358 339.666 39.4815 339.378 39.7286C339.11 39.9756 338.925 40.3977 338.822 40.9948C338.719 41.5713 338.668 42.3743 338.668 43.4038V44.3612Z" fill="white"/>
<path d="M328.954 55.0164V30H332.258V55.0164H328.954Z" fill="white"/>
<path d="M312.063 55.2634C310.56 55.2634 309.438 54.7178 308.697 53.6266C307.956 52.5147 307.585 50.6411 307.585 48.0056V44.5465C307.585 43.1876 307.698 41.9317 307.925 40.7787C308.151 39.605 308.573 38.6682 309.191 37.9682C309.829 37.2681 310.756 36.9181 311.971 36.9181C312.568 36.9181 313.113 37.0519 313.608 37.3196C314.102 37.5873 314.544 37.9167 314.936 38.3079V30H318.24V55.0164H314.936V53.8736C314.544 54.2854 314.112 54.6252 313.638 54.8928C313.185 55.1399 312.66 55.2634 312.063 55.2634ZM312.897 52.6691C313.206 52.6691 313.535 52.6177 313.885 52.5147C314.236 52.3912 314.586 52.2162 314.936 51.9897V40.2845C314.647 40.0786 314.328 39.9036 313.978 39.7595C313.628 39.5948 313.247 39.5124 312.835 39.5124C312.074 39.5124 311.559 39.883 311.291 40.6242C311.024 41.3449 310.89 42.2199 310.89 43.2494V48.2836C310.89 49.1071 310.931 49.8587 311.013 50.5381C311.116 51.197 311.312 51.722 311.6 52.1132C311.888 52.4838 312.321 52.6691 312.897 52.6691Z" fill="white"/>
<path d="M294.353 55.0163V37.1652H297.657V38.9256C298.254 38.3697 298.913 37.8961 299.634 37.5049C300.354 37.1137 301.147 36.9181 302.012 36.9181C302.733 36.9181 303.278 37.1034 303.649 37.474C304.04 37.8446 304.308 38.3079 304.452 38.8638C304.616 39.4197 304.699 39.9859 304.699 40.5624V55.0163H301.394V41.5199C301.394 40.8816 301.302 40.3874 301.116 40.0374C300.931 39.6874 300.55 39.5124 299.973 39.5124C299.603 39.5124 299.212 39.6256 298.8 39.8521C298.409 40.058 298.028 40.3154 297.657 40.6242V55.0163H294.353Z" fill="white"/>
<path d="M284.402 55.2634C283.702 55.2634 283.084 55.0678 282.549 54.6766C282.014 54.2648 281.592 53.7501 281.283 53.1324C280.974 52.4941 280.82 51.825 280.82 51.1249C280.82 50.0131 281.005 49.0762 281.376 48.3144C281.746 47.5526 282.251 46.9143 282.889 46.3996C283.548 45.8643 284.299 45.401 285.143 45.0098C286.008 44.6186 286.914 44.2377 287.861 43.8671V42.6008C287.861 41.8802 287.82 41.2831 287.738 40.8095C287.655 40.336 287.48 39.9859 287.213 39.7595C286.966 39.5124 286.585 39.3888 286.07 39.3888C285.617 39.3888 285.246 39.4918 284.958 39.6977C284.69 39.9036 284.495 40.2021 284.371 40.5933C284.248 40.9639 284.186 41.4066 284.186 41.9214V42.817L280.912 42.6935C280.953 40.7169 281.406 39.2653 282.271 38.3388C283.136 37.3917 284.474 36.9181 286.286 36.9181C288.057 36.9181 289.313 37.4019 290.054 38.3697C290.795 39.3374 291.166 40.7375 291.166 42.5699V50.7234C291.166 51.2793 291.176 51.8147 291.197 52.3294C291.238 52.8441 291.279 53.328 291.32 53.781C291.382 54.2133 291.434 54.6251 291.475 55.0163H288.448C288.386 54.6869 288.304 54.2751 288.201 53.781C288.119 53.2662 288.057 52.803 288.016 52.3912C287.81 53.0912 287.408 53.7501 286.811 54.3678C286.235 54.9649 285.432 55.2634 284.402 55.2634ZM285.699 52.4221C286.029 52.4221 286.338 52.3294 286.626 52.1441C286.914 51.9588 287.171 51.7529 287.398 51.5264C287.624 51.2793 287.779 51.0837 287.861 50.9396V45.8746C287.346 46.1628 286.863 46.4511 286.41 46.7393C285.957 47.0276 285.555 47.3364 285.205 47.6659C284.876 47.9747 284.608 48.335 284.402 48.7468C284.217 49.138 284.124 49.591 284.124 50.1057C284.124 50.8264 284.258 51.3926 284.526 51.8044C284.793 52.2162 285.185 52.4221 285.699 52.4221Z" fill="white"/>
<path d="M269.913 55.2634C268.987 55.2634 268.235 55.0884 267.659 54.7384C267.103 54.3884 266.691 53.8942 266.423 53.2559C266.176 52.6177 266.053 51.8661 266.053 51.0014V39.358H264.169V37.1652H266.053V31.9457H269.357V37.1652H272.23V39.358H269.357V50.7852C269.357 51.4852 269.471 51.9897 269.697 52.2985C269.924 52.5868 270.356 52.7309 270.994 52.7309C271.159 52.7309 271.344 52.7206 271.55 52.7C271.777 52.6794 271.993 52.6588 272.199 52.6383V55.0781C271.787 55.1399 271.406 55.1811 271.056 55.2017C270.706 55.2428 270.325 55.2634 269.913 55.2634Z" fill="white"/>
<path d="M258.408 55.0164V30H261.713V55.0164H258.408Z" fill="white"/>
<path d="M251.258 55.0164V37.1652H254.563V55.0164H251.258ZM251.258 34.5091V31.0501H254.563V34.5091H251.258Z" fill="white"/>
<path d="M240.003 55.2634C239.303 55.2634 238.757 55.0781 238.366 54.7075C237.975 54.3369 237.697 53.8736 237.532 53.3177C237.388 52.7618 237.316 52.1956 237.316 51.6191V37.1652H240.621V50.6308C240.621 51.2691 240.713 51.7735 240.899 52.1441C241.084 52.4941 241.465 52.6692 242.041 52.6692C242.412 52.6692 242.793 52.5662 243.184 52.3603C243.596 52.1338 243.987 51.8662 244.358 51.5573V37.1652H247.662V55.0164H244.358V53.256C243.781 53.8119 243.122 54.2854 242.381 54.6766C241.66 55.0678 240.868 55.2634 240.003 55.2634Z" fill="white"/>
<path d="M230.019 55.2634C229.381 55.2634 228.804 55.109 228.29 54.8002C227.795 54.4707 227.363 54.1104 226.993 53.7192V55.0164H223.688V30H226.993V38.5859C227.384 38.1329 227.847 37.7417 228.382 37.4123C228.938 37.0828 229.597 36.9181 230.359 36.9181C231.285 36.9181 232.016 37.1652 232.552 37.6593C233.108 38.1329 233.519 38.7403 233.787 39.4815C234.055 40.2021 234.23 40.9434 234.312 41.7052C234.394 42.4464 234.436 43.0847 234.436 43.62V47.9438C234.436 49.1998 234.312 50.394 234.065 51.5264C233.818 52.6383 233.375 53.5442 232.737 54.2442C232.099 54.9237 231.193 55.2634 230.019 55.2634ZM229.34 52.6691C229.916 52.6691 230.328 52.4632 230.575 52.0515C230.822 51.6191 230.977 51.0426 231.038 50.3219C231.1 49.6013 231.131 48.8086 231.131 47.9438V43.62C231.131 42.8788 231.09 42.1993 231.007 41.5816C230.925 40.9434 230.75 40.4389 230.482 40.0683C230.215 39.6977 229.793 39.5124 229.216 39.5124C228.784 39.5124 228.372 39.605 227.981 39.7904C227.61 39.9757 227.281 40.1816 226.993 40.408V51.8661C227.281 52.0926 227.62 52.2882 228.012 52.453C228.423 52.5971 228.866 52.6691 229.34 52.6691Z" fill="white"/>
<path d="M208.511 55.2634C207.111 55.2634 206.03 54.9958 205.268 54.4604C204.506 53.9045 203.971 53.1015 203.662 52.0514C203.374 50.9808 203.23 49.6733 203.23 48.1291V44.0524C203.23 42.467 203.384 41.1493 203.693 40.0992C204.002 39.0491 204.537 38.2564 205.299 37.7211C206.081 37.1858 207.152 36.9181 208.511 36.9181C210.014 36.9181 211.115 37.2269 211.815 37.8446C212.536 38.4623 213.01 39.358 213.236 40.5316C213.463 41.6846 213.576 43.0744 213.576 44.701V46.1525H206.534V49.7351C206.534 50.4557 206.596 51.0426 206.72 51.4955C206.864 51.9485 207.08 52.2882 207.368 52.5147C207.677 52.7206 208.068 52.8236 208.542 52.8236C209.036 52.8236 209.406 52.7103 209.654 52.4838C209.921 52.2367 210.096 51.897 210.179 51.4646C210.282 51.0117 210.333 50.4866 210.333 49.8895V48.8086H213.545V49.488C213.545 51.2793 213.164 52.6897 212.402 53.7192C211.64 54.7487 210.343 55.2634 208.511 55.2634ZM206.534 44.3612H210.333V42.7552C210.333 42.014 210.292 41.3963 210.209 40.9022C210.127 40.3874 209.952 40.0065 209.684 39.7595C209.437 39.4918 209.036 39.358 208.48 39.358C207.945 39.358 207.533 39.4815 207.245 39.7286C206.977 39.9756 206.792 40.3977 206.689 40.9948C206.586 41.5713 206.534 42.3743 206.534 43.4038V44.3612Z" fill="white"/>
<path d="M194.002 55.0164L190.482 37.1652H193.817L196.01 51.5264L198.234 37.1652H201.446L198.048 55.0164H194.002Z" fill="white"/>
<path d="M181.826 55.2634C181.126 55.2634 180.509 55.0678 179.973 54.6766C179.438 54.2648 179.016 53.7501 178.707 53.1324C178.398 52.4941 178.244 51.825 178.244 51.1249C178.244 50.0131 178.429 49.0762 178.8 48.3144C179.17 47.5526 179.675 46.9143 180.313 46.3996C180.972 45.8643 181.723 45.401 182.567 45.0098C183.432 44.6186 184.338 44.2377 185.285 43.8671V42.6008C185.285 41.8802 185.244 41.2831 185.162 40.8095C185.079 40.336 184.904 39.9859 184.637 39.7595C184.39 39.5124 184.009 39.3888 183.494 39.3888C183.041 39.3888 182.67 39.4918 182.382 39.6977C182.114 39.9036 181.919 40.2021 181.795 40.5933C181.672 40.9639 181.61 41.4066 181.61 41.9214V42.817L178.336 42.6935C178.377 40.7169 178.83 39.2653 179.695 38.3388C180.56 37.3917 181.898 36.9181 183.71 36.9181C185.481 36.9181 186.737 37.4019 187.478 38.3697C188.219 39.3374 188.59 40.7375 188.59 42.5699V50.7234C188.59 51.2793 188.6 51.8147 188.621 52.3294C188.662 52.8441 188.703 53.328 188.744 53.781C188.806 54.2133 188.858 54.6251 188.899 55.0163H185.872C185.81 54.6869 185.728 54.2751 185.625 53.781C185.543 53.2662 185.481 52.803 185.44 52.3912C185.234 53.0912 184.832 53.7501 184.235 54.3678C183.659 54.9649 182.856 55.2634 181.826 55.2634ZM183.123 52.4221C183.453 52.4221 183.762 52.3294 184.05 52.1441C184.338 51.9588 184.596 51.7529 184.822 51.5264C185.049 51.2793 185.203 51.0837 185.285 50.9396V45.8746C184.771 46.1628 184.287 46.4511 183.834 46.7393C183.381 47.0276 182.979 47.3364 182.629 47.6659C182.3 47.9747 182.032 48.335 181.826 48.7468C181.641 49.138 181.548 49.591 181.548 50.1057C181.548 50.8264 181.682 51.3926 181.95 51.8044C182.217 52.2162 182.609 52.4221 183.123 52.4221Z" fill="white"/>
<path d="M165.479 55.0164V30H168.783V39.0182C169.38 38.4417 170.05 37.9476 170.791 37.5358C171.532 37.124 172.356 36.9181 173.262 36.9181C173.962 36.9181 174.497 37.1034 174.868 37.474C175.259 37.8446 175.526 38.3079 175.671 38.8638C175.835 39.4197 175.918 39.986 175.918 40.5625V55.0164H172.613V41.5199C172.613 40.8816 172.52 40.3874 172.335 40.0374C172.15 39.6874 171.769 39.5124 171.192 39.5124C170.801 39.5124 170.389 39.6256 169.957 39.8521C169.545 40.0786 169.154 40.3566 168.783 40.686V55.0164H165.479Z" fill="white"/>
<path d="M151.131 55.0164V30H154.559V55.0164H151.131Z" fill="white"/>
<circle cx="1064.5" cy="38.5" r="22.5" fill="#AC524D"/>
<circle cx="1202.5" cy="38.5" r="22.5" fill="#AC524D"/>
<circle cx="1340.5" cy="38.5" r="22.5" fill="#AC524D"/>
<circle cx="1133.5" cy="38.5" r="22.5" fill="#AC524D"/>
<circle cx="1271.5" cy="38.5" r="22.5" fill="#AC524D"/>
<circle cx="1409.5" cy="38.5" r="22.5" fill="#AC524D"/>
<circle cx="1064.5" cy="97.5" r="22.5" fill="#AC524D"/>
<circle cx="1202.5" cy="97.5" r="22.5" fill="#AC524D"/>
<circle cx="1340.5" cy="97.5" r="22.5" fill="#AC524D"/>
<circle cx="1133.5" cy="97.5" r="22.5" fill="#AC524D"/>
<circle cx="1271.5" cy="97.5" r="22.5" fill="#AC524D"/>
<circle cx="1409.5" cy="97.5" r="22.5" fill="#AC524D"/>
</svg>
