<svg width="1440" height="368" viewBox="0 0 1440 368" fill="none" xmlns="http://www.w3.org/2000/svg">
<rect width="1440" height="368" fill="#3D3D3D"/>
<path d="M206.952 109.016L212.264 84H215.631L220.974 109.016H217.669L216.526 102.716H211.43L210.226 109.016H206.952ZM211.894 100.214H216.063L213.963 88.9415L211.894 100.214Z" fill="white"/>
<path d="M180.803 109.016L181.266 84H184.695L189.111 104.291L193.558 84H196.956L197.419 109.016H194.608L194.33 90.8563L190.099 109.016H188.123L183.922 90.8563L183.644 109.016H180.803Z" fill="white"/>
<path d="M164.305 109.016L169.617 84H172.984L178.327 109.016H175.022L173.879 102.716H168.783L167.579 109.016H164.305ZM169.247 100.214H173.416L171.316 88.9415L169.247 100.214Z" fill="white"/>
<path d="M151.131 109.016V84H154.559V109.016H151.131Z" fill="white"/>
<path d="M694.656 162.535H685.546V158.787H694.656C698.161 158.787 701.302 158.197 704.078 157.017C706.889 155.802 709.267 154.241 711.21 152.332C713.188 150.389 714.698 148.22 715.739 145.825C716.78 143.43 717.301 141.036 717.301 138.641H725.63V158.787H742.392V162.535H725.63V194.602C725.63 198.316 725.821 201.352 726.202 203.712C726.619 206.037 727.191 207.859 727.92 209.178C728.684 210.497 729.569 211.399 730.575 211.885C731.616 212.336 732.761 212.562 734.011 212.562C735.226 212.562 736.406 212.302 737.551 211.781C738.696 211.226 739.702 210.358 740.57 209.178C741.438 207.964 742.132 206.402 742.652 204.493C743.173 202.55 743.433 200.172 743.433 197.361C743.433 196.702 743.416 196.025 743.381 195.331C743.346 194.602 743.294 193.856 743.225 193.093H747.598C747.702 194.828 747.754 196.407 747.754 197.83C747.754 202.168 747.147 205.708 745.932 208.449C744.752 211.156 743.051 213.273 740.83 214.8C738.609 216.327 735.902 217.368 732.709 217.924C729.551 218.479 725.994 218.757 722.038 218.757C717.596 218.757 713.674 218.323 710.273 217.455C706.872 216.588 704.009 215.217 701.684 213.343C699.358 211.434 697.606 208.987 696.426 206.003C695.246 203.018 694.656 199.391 694.656 195.123V162.535Z" fill="#F6DF53"/>
<path d="M606.211 187.21C606.211 182.664 607.131 178.517 608.97 174.769C610.809 171.02 613.343 167.828 616.57 165.19C619.833 162.518 623.685 160.453 628.127 158.995C632.569 157.538 637.41 156.809 642.651 156.809C649.245 156.809 654.902 157.347 659.621 158.423C664.341 159.464 668.211 160.835 671.23 162.535C674.284 164.236 676.523 166.144 677.945 168.261C679.368 170.378 680.08 172.478 680.08 174.56C680.08 176.087 679.698 177.528 678.934 178.881C678.206 180.235 677.182 181.414 675.863 182.421C674.579 183.427 673.069 184.226 671.334 184.816C669.599 185.406 667.725 185.701 665.712 185.701C663.699 185.701 661.808 185.423 660.038 184.868C658.268 184.278 656.724 183.497 655.405 182.525C654.121 181.519 653.097 180.356 652.333 179.037C651.57 177.718 651.188 176.296 651.188 174.769C651.188 173.346 651.518 172.01 652.177 170.76C652.871 169.476 653.808 168.348 654.988 167.376C656.203 166.405 657.609 165.607 659.205 164.982C660.836 164.357 662.589 163.993 664.463 163.889C662.485 163.16 660.524 162.605 658.58 162.223C656.671 161.806 654.902 161.598 653.27 161.598C650.598 161.598 648.29 161.963 646.347 162.691C644.403 163.385 642.79 164.704 641.506 166.648C640.256 168.556 639.319 171.211 638.694 174.612C638.07 178.013 637.757 182.404 637.757 187.783C637.757 193.093 637.983 197.413 638.434 200.745C638.92 204.077 639.666 206.697 640.673 208.606C641.714 210.48 643.033 211.764 644.629 212.458C646.26 213.152 648.221 213.499 650.511 213.499C653.427 213.499 656.168 213.135 658.736 212.406C661.305 211.677 663.595 210.653 665.608 209.334C667.656 207.981 669.356 206.367 670.71 204.493C672.063 202.584 672.983 200.45 673.469 198.09H678.362C678.015 201.318 677.026 204.215 675.395 206.784C673.764 209.317 671.594 211.469 668.887 213.239C666.215 215.009 663.057 216.362 659.413 217.299C655.804 218.236 651.848 218.705 647.544 218.705C640.777 218.705 634.808 218.011 629.637 216.622C624.5 215.199 620.197 213.152 616.726 210.48C613.256 207.773 610.636 204.476 608.866 200.589C607.096 196.667 606.211 192.208 606.211 187.21Z" fill="#F6DF53"/>
<path d="M512.977 162.535H503.867V158.787H543.951V192.468C543.951 196.042 544.055 198.975 544.263 201.266C544.472 203.521 544.836 205.309 545.356 206.627C545.877 207.911 546.571 208.814 547.439 209.334C548.306 209.82 549.4 210.063 550.718 210.063C552.037 210.063 553.2 209.786 554.206 209.23C555.213 208.675 556.045 207.894 556.705 206.888C557.399 205.881 557.902 204.684 558.215 203.296C558.562 201.908 558.735 200.398 558.735 198.767V162.535H551.083V158.787H589.709V212.978H598.767V216.726H558.735V210.063C557.625 211.417 556.271 212.631 554.675 213.707C553.113 214.783 551.378 215.703 549.469 216.466C547.595 217.195 545.565 217.75 543.378 218.132C541.227 218.514 539.006 218.705 536.715 218.705C531.96 218.705 528.039 218.08 524.95 216.831C521.896 215.616 519.484 213.881 517.714 211.625C515.944 209.334 514.712 206.575 514.018 203.348C513.324 200.12 512.977 196.494 512.977 192.468V162.535Z" fill="#F6DF53"/>
<path d="M410.165 187.783C410.165 183.653 410.824 179.714 412.143 175.966C413.496 172.218 415.526 168.938 418.233 166.127C420.975 163.281 424.411 161.026 428.541 159.36C432.67 157.659 437.529 156.809 443.117 156.809C446.934 156.809 450.162 157.295 452.799 158.267C455.437 159.204 457.623 160.401 459.358 161.858V141.764H450.3V138.016H490.384V212.978H499.494V216.726H459.358V212.562C457.935 214.471 455.94 215.963 453.372 217.039C450.804 218.149 447.385 218.705 443.117 218.705C437.529 218.705 432.67 217.872 428.541 216.206C424.411 214.54 420.975 212.284 418.233 209.438C415.526 206.593 413.496 203.313 412.143 199.6C410.824 195.852 410.165 191.913 410.165 187.783ZM451.029 212.718C452.313 212.718 453.493 212.458 454.569 211.937C455.645 211.382 456.565 210.514 457.328 209.334C458.126 208.12 458.751 206.575 459.202 204.701C459.653 202.827 459.879 200.537 459.879 197.83V175.133C459.879 173.779 459.688 172.357 459.306 170.864C458.925 169.372 458.335 168.001 457.536 166.752C456.738 165.502 455.732 164.479 454.517 163.68C453.337 162.848 451.949 162.431 450.353 162.431C448.895 162.431 447.646 162.882 446.604 163.785C445.563 164.652 444.713 166.092 444.054 168.105C443.394 170.118 442.908 172.738 442.596 175.966C442.284 179.159 442.128 183.098 442.128 187.783C442.128 192.503 442.266 196.459 442.544 199.652C442.856 202.845 443.36 205.413 444.054 207.356C444.748 209.265 445.667 210.636 446.813 211.469C447.958 212.302 449.363 212.718 451.029 212.718Z" fill="#F6DF53"/>
<path d="M322.188 187.783C322.188 183.306 323.004 179.176 324.635 175.393C326.266 171.61 328.713 168.348 331.975 165.607C335.237 162.83 339.332 160.678 344.26 159.151C349.189 157.59 354.95 156.809 361.543 156.809C368.137 156.809 373.881 157.59 378.774 159.151C383.702 160.678 387.797 162.83 391.06 165.607C394.322 168.348 396.769 171.61 398.4 175.393C400.031 179.176 400.846 183.306 400.846 187.783C400.846 192.26 400.031 196.39 398.4 200.172C396.769 203.92 394.322 207.183 391.06 209.959C387.797 212.701 383.702 214.852 378.774 216.414C373.881 217.941 368.137 218.705 361.543 218.705C354.95 218.705 349.189 217.941 344.26 216.414C339.332 214.852 335.237 212.701 331.975 209.959C328.713 207.183 326.266 203.92 324.635 200.172C323.004 196.39 322.188 192.26 322.188 187.783ZM361.543 215.477C362.862 215.477 363.99 215.043 364.927 214.176C365.864 213.308 366.628 211.816 367.218 209.699C367.808 207.582 368.224 204.753 368.467 201.213C368.745 197.639 368.883 193.162 368.883 187.783C368.883 182.369 368.745 177.892 368.467 174.352C368.224 170.778 367.808 167.932 367.218 165.815C366.628 163.698 365.864 162.205 364.927 161.338C363.99 160.47 362.862 160.036 361.543 160.036C360.19 160.036 359.045 160.47 358.108 161.338C357.171 162.205 356.407 163.698 355.817 165.815C355.227 167.932 354.793 170.778 354.516 174.352C354.273 177.892 354.151 182.369 354.151 187.783C354.151 193.162 354.273 197.639 354.516 201.213C354.793 204.753 355.227 207.582 355.817 209.699C356.407 211.816 357.171 213.308 358.108 214.176C359.045 215.043 360.19 215.477 361.543 215.477Z" fill="#F6DF53"/>
<path d="M239.262 212.978H248.372V162.535H239.262V158.787H279.346V165.45C280.456 164.097 281.775 162.9 283.302 161.858C284.829 160.783 286.512 159.88 288.351 159.151C290.225 158.388 292.221 157.815 294.338 157.434C296.49 157.017 298.711 156.809 301.001 156.809C303.396 156.809 305.548 157.104 307.456 157.694C309.365 158.284 310.996 159.099 312.35 160.141C313.703 161.147 314.727 162.362 315.421 163.785C316.15 165.173 316.514 166.682 316.514 168.313C316.514 169.875 316.115 171.35 315.317 172.738C314.553 174.127 313.478 175.341 312.089 176.382C310.736 177.423 309.139 178.256 307.3 178.881C305.461 179.471 303.5 179.766 301.418 179.766C299.335 179.766 297.375 179.471 295.535 178.881C293.696 178.256 292.082 177.423 290.694 176.382C289.34 175.341 288.265 174.127 287.466 172.738C286.668 171.35 286.269 169.875 286.269 168.313C286.269 167.515 286.373 166.734 286.581 165.971C286.824 165.173 287.137 164.427 287.518 163.732C286.79 164.08 285.939 164.617 284.968 165.346C284.031 166.04 283.146 166.908 282.313 167.949C281.48 168.99 280.768 170.205 280.178 171.593C279.623 172.947 279.346 174.422 279.346 176.018V212.978H289.445V216.726H239.262V212.978Z" fill="#F6DF53"/>
<path d="M144.154 212.614H153.264V147.022H144.154V142.962H204.175C209.277 142.962 213.684 143.586 217.398 144.836C221.111 146.05 224.183 147.734 226.612 149.885C229.041 152.037 230.828 154.605 231.974 157.59C233.154 160.54 233.744 163.75 233.744 167.22C233.744 170.725 233.067 173.936 231.713 176.851C230.395 179.731 228.434 182.213 225.831 184.295C223.263 186.343 220.07 187.939 216.253 189.084C212.47 190.195 208.114 190.75 203.186 190.75H189.183V212.614H198.241V216.726H144.154V212.614ZM189.183 187.002C191.196 187.002 192.914 186.551 194.337 185.648C195.759 184.711 196.905 183.41 197.772 181.744C198.675 180.078 199.317 178.083 199.698 175.758C200.115 173.432 200.323 170.847 200.323 168.001C200.323 164.357 200.115 161.199 199.698 158.527C199.282 155.82 198.623 153.599 197.72 151.863C196.853 150.128 195.707 148.844 194.285 148.011C192.896 147.144 191.196 146.71 189.183 146.71V187.002Z" fill="#F6DF53"/>
<path d="M396.377 282.37V273.946C397.71 273.946 398.663 273.772 399.238 273.424C399.814 273.061 400.101 272.387 400.101 271.403V259.914C400.101 258.915 399.814 258.241 399.238 257.893C398.663 257.53 397.71 257.348 396.377 257.348V248.925H420.423C422.648 248.925 424.517 249.144 426.031 249.583C427.56 250.022 428.778 250.65 429.687 251.468C430.61 252.285 431.261 253.261 431.639 254.397C432.033 255.532 432.23 256.796 432.23 258.188C432.23 260.731 431.617 262.767 430.39 264.296C429.164 265.81 427.204 266.627 424.51 266.748V267.021C425.811 267.112 426.886 267.354 427.734 267.748C428.597 268.141 429.27 268.656 429.755 269.291C430.254 269.912 430.602 270.669 430.799 271.562C431.011 272.44 431.117 273.439 431.117 274.559V275.763C431.117 276.141 431.215 276.474 431.412 276.762C431.609 277.034 431.912 277.17 432.32 277.17C432.759 277.17 433.07 277.034 433.251 276.762C433.433 276.474 433.524 276.141 433.524 275.763V269.995H436.135V275.763C436.135 276.852 435.968 277.859 435.635 278.782C435.318 279.691 434.788 280.485 434.046 281.167C433.304 281.848 432.328 282.37 431.117 282.733C429.906 283.112 428.415 283.301 426.644 283.301C424.873 283.301 423.42 283.104 422.285 282.71C421.164 282.332 420.286 281.802 419.651 281.121C419.015 280.44 418.568 279.653 418.311 278.76C418.069 277.852 417.948 276.898 417.948 275.899V274.15C417.948 272.94 417.88 271.963 417.743 271.221C417.607 270.465 417.38 269.882 417.062 269.473C416.759 269.049 416.358 268.769 415.859 268.633C415.359 268.497 414.754 268.429 414.042 268.429H413.497V271.676C413.497 272.478 413.717 273.061 414.156 273.424C414.61 273.772 415.412 273.946 416.563 273.946V282.37H396.377ZM413.497 264.41H415.496C416.767 264.41 417.637 264.107 418.107 263.502C418.591 262.881 418.833 262.026 418.833 260.936C418.833 259.664 418.591 258.749 418.107 258.188C417.637 257.628 416.767 257.348 415.496 257.348H413.497V264.41Z" fill="white"/>
<path d="M383.344 273.946C383.965 273.946 384.48 273.893 384.888 273.787C385.312 273.681 385.645 273.484 385.887 273.197C386.145 272.894 386.319 272.485 386.41 271.971C386.5 271.456 386.546 270.798 386.546 269.995H394.493V282.37H362.137V273.946C363.469 273.946 364.423 273.772 364.998 273.424C365.573 273.061 365.861 272.387 365.861 271.403V259.914C365.861 258.915 365.573 258.241 364.998 257.893C364.423 257.53 363.469 257.348 362.137 257.348V248.925H394.493V261.299H386.546C386.546 260.497 386.5 259.838 386.41 259.324C386.319 258.809 386.145 258.408 385.887 258.12C385.645 257.833 385.312 257.636 384.888 257.53C384.48 257.409 383.965 257.348 383.344 257.348H379.257V263.388H386.5V267.407H379.257V273.946H383.344Z" fill="white"/>
<path d="M349.581 282.37L348.832 280.099C347.878 280.962 346.561 281.719 344.881 282.37C343.216 283.021 341.294 283.346 339.114 283.346C336.662 283.346 334.346 283.013 332.166 282.347C329.986 281.681 328.079 280.637 326.444 279.214C324.825 277.791 323.538 275.967 322.584 273.742C321.646 271.502 321.177 268.815 321.177 265.681C321.177 262.548 321.676 259.869 322.675 257.644C323.689 255.403 325.014 253.572 326.649 252.149C328.298 250.726 330.16 249.681 332.234 249.015C334.308 248.349 336.435 248.016 338.614 248.016C339.886 248.016 341.029 248.115 342.043 248.312C343.072 248.508 343.973 248.758 344.745 249.061C345.517 249.348 346.168 249.659 346.698 249.992C347.227 250.31 347.659 250.575 347.992 250.786V248.925H355.485V261.299H347.538C347.477 259.695 346.993 258.4 346.085 257.416C345.191 256.417 343.943 255.918 342.338 255.918C341.521 255.918 340.756 256.069 340.045 256.372C339.333 256.66 338.705 257.174 338.16 257.916C337.615 258.658 337.184 259.657 336.866 260.913C336.563 262.17 336.412 263.759 336.412 265.681C336.412 267.513 336.51 269.049 336.707 270.291C336.919 271.517 337.237 272.516 337.661 273.288C338.1 274.045 338.652 274.597 339.318 274.945C339.984 275.278 340.787 275.445 341.725 275.445C341.937 275.445 342.202 275.422 342.52 275.377C342.853 275.331 343.163 275.255 343.451 275.15C343.753 275.028 344.011 274.877 344.223 274.695C344.45 274.514 344.563 274.264 344.563 273.946V272.697C344.563 271.986 344.321 271.449 343.837 271.085C343.352 270.707 342.444 270.518 341.112 270.518V263.025H360.276V270.518C358.943 270.518 357.99 270.699 357.415 271.063C356.839 271.411 356.552 272.077 356.552 273.061V282.37H349.581Z" fill="white"/>
<path d="M302.081 270.699H294.906L294.588 271.676C294.346 272.326 294.361 272.871 294.634 273.31C294.906 273.734 295.481 273.946 296.359 273.946H297.654V282.37H283.508V273.946H284.439C285.529 273.946 286.255 273.734 286.619 273.31C286.997 272.871 287.36 272.236 287.708 271.403L292.363 259.914C292.696 259.036 292.749 258.393 292.522 257.984C292.31 257.56 291.652 257.348 290.547 257.348H290.07V248.925H313.411V257.348H312.957C311.837 257.348 311.163 257.568 310.936 258.007C310.724 258.446 310.792 259.082 311.141 259.914L315.795 271.403C315.977 271.827 316.136 272.198 316.272 272.516C316.423 272.818 316.605 273.083 316.817 273.31C317.029 273.522 317.309 273.681 317.657 273.787C318.02 273.893 318.482 273.946 319.042 273.946H319.973V282.37H299.334V273.946H300.583C301.445 273.946 302.021 273.734 302.308 273.31C302.611 272.871 302.641 272.326 302.399 271.676L302.081 270.699ZM296.064 267.157H300.9L298.63 260.187H298.448L296.064 267.157Z" fill="white"/>
<path d="M282.577 248.925V257.348C281.245 257.348 280.367 257.568 279.943 258.007C279.534 258.446 279.33 259.082 279.33 259.914V282.37H265.684L253.832 263.819V271.676C253.832 272.659 254.119 273.288 254.695 273.56C255.27 273.817 256.223 273.946 257.555 273.946V282.37H241.934V273.946C243.266 273.946 244.22 273.772 244.795 273.424C245.37 273.061 245.658 272.387 245.658 271.403V259.914C245.658 258.915 245.37 258.241 244.795 257.893C244.22 257.53 243.266 257.348 241.934 257.348V248.925H259.781L271.133 266.703V259.914C271.133 258.915 270.921 258.241 270.498 257.893C270.089 257.53 269.219 257.348 267.886 257.348V248.925H282.577Z" fill="white"/>
<path d="M222.611 270.699H215.437L215.119 271.676C214.876 272.326 214.892 272.871 215.164 273.31C215.437 273.734 216.012 273.946 216.89 273.946H218.184V282.37H204.038V273.946H204.969C206.059 273.946 206.786 273.734 207.149 273.31C207.527 272.871 207.891 272.236 208.239 271.403L212.894 259.914C213.227 259.036 213.28 258.393 213.052 257.984C212.841 257.56 212.182 257.348 211.077 257.348H210.6V248.925H233.942V257.348H233.487C232.367 257.348 231.694 257.568 231.467 258.007C231.255 258.446 231.323 259.082 231.671 259.914L236.326 271.403C236.507 271.827 236.666 272.198 236.803 272.516C236.954 272.818 237.136 273.083 237.347 273.31C237.559 273.522 237.839 273.681 238.188 273.787C238.551 273.893 239.013 273.946 239.573 273.946H240.504V282.37H219.864V273.946H221.113C221.976 273.946 222.551 273.734 222.839 273.31C223.141 272.871 223.172 272.326 222.929 271.676L222.611 270.699ZM216.595 267.157H221.431L219.16 260.187H218.979L216.595 267.157Z" fill="white"/>
<path d="M182.536 282.37V273.946C183.868 273.946 184.739 273.772 185.147 273.424C185.571 273.061 185.783 272.387 185.783 271.403V258.37L178.018 282.37H169.276L161.375 259.642V271.676C161.375 272.175 161.42 272.576 161.511 272.879C161.602 273.167 161.761 273.394 161.988 273.56C162.23 273.727 162.563 273.833 162.987 273.878C163.426 273.923 163.971 273.946 164.621 273.946V282.37H149.931V273.946C151.263 273.946 152.217 273.772 152.792 273.424C153.367 273.061 153.655 272.387 153.655 271.403V259.914C153.655 258.915 153.367 258.241 152.792 257.893C152.217 257.53 151.263 257.348 149.931 257.348V248.925H171.547L176.769 264.614L181.31 248.925H202.653V257.348C201.321 257.348 200.368 257.53 199.792 257.893C199.232 258.241 198.952 258.915 198.952 259.914V271.403C198.952 272.387 199.232 273.061 199.792 273.424C200.368 273.772 201.321 273.946 202.653 273.946V282.37H182.536Z" fill="white"/>
<path d="M748.305 282.37V273.946C749.637 273.946 750.591 273.772 751.166 273.424C751.742 273.061 752.029 272.387 752.029 271.403V259.914C752.029 258.915 751.742 258.241 751.166 257.893C750.591 257.53 749.637 257.348 748.305 257.348V248.925H772.351C774.576 248.925 776.445 249.144 777.959 249.583C779.488 250.022 780.706 250.65 781.615 251.468C782.538 252.285 783.189 253.261 783.567 254.397C783.961 255.532 784.158 256.796 784.158 258.188C784.158 260.731 783.544 262.767 782.318 264.296C781.092 265.81 779.132 266.627 776.438 266.748V267.021C777.739 267.112 778.814 267.354 779.662 267.748C780.525 268.141 781.198 268.656 781.683 269.291C782.182 269.912 782.53 270.669 782.727 271.562C782.939 272.44 783.045 273.439 783.045 274.559V275.763C783.045 276.141 783.143 276.474 783.34 276.762C783.537 277.034 783.84 277.17 784.248 277.17C784.687 277.17 784.998 277.034 785.179 276.762C785.361 276.474 785.452 276.141 785.452 275.763V269.995H788.063V275.763C788.063 276.852 787.896 277.859 787.563 278.782C787.246 279.691 786.716 280.485 785.974 281.167C785.232 281.848 784.256 282.37 783.045 282.733C781.834 283.112 780.343 283.301 778.572 283.301C776.801 283.301 775.348 283.104 774.212 282.71C773.092 282.332 772.214 281.802 771.579 281.121C770.943 280.44 770.496 279.653 770.239 278.76C769.997 277.852 769.876 276.898 769.876 275.899V274.15C769.876 272.94 769.808 271.963 769.671 271.221C769.535 270.465 769.308 269.882 768.99 269.473C768.687 269.049 768.286 268.769 767.787 268.633C767.287 268.497 766.682 268.429 765.97 268.429H765.425V271.676C765.425 272.478 765.645 273.061 766.084 273.424C766.538 273.772 767.34 273.946 768.491 273.946V282.37H748.305ZM765.425 264.41H767.424C768.695 264.41 769.565 264.107 770.035 263.502C770.519 262.881 770.761 262.026 770.761 260.936C770.761 259.664 770.519 258.749 770.035 258.188C769.565 257.628 768.695 257.348 767.424 257.348H765.425V264.41Z" fill="white"/>
<path d="M735.272 273.946C735.893 273.946 736.408 273.893 736.816 273.787C737.24 273.681 737.573 273.484 737.815 273.197C738.073 272.894 738.247 272.485 738.338 271.971C738.429 271.456 738.474 270.798 738.474 269.995H746.421V282.37H714.065V273.946C715.397 273.946 716.351 273.772 716.926 273.424C717.502 273.061 717.789 272.387 717.789 271.403V259.914C717.789 258.915 717.502 258.241 716.926 257.893C716.351 257.53 715.397 257.348 714.065 257.348V248.925H746.421V261.299H738.474C738.474 260.497 738.429 259.838 738.338 259.324C738.247 258.809 738.073 258.408 737.815 258.12C737.573 257.833 737.24 257.636 736.816 257.53C736.408 257.409 735.893 257.348 735.272 257.348H731.185V263.388H738.429V267.407H731.185V273.946H735.272Z" fill="white"/>
<path d="M712.658 248.925V257.348C711.326 257.348 710.448 257.568 710.024 258.007C709.615 258.446 709.411 259.082 709.411 259.914V282.37H695.765L683.912 263.819V271.676C683.912 272.659 684.2 273.288 684.775 273.56C685.35 273.817 686.304 273.946 687.636 273.946V282.37H672.015V273.946C673.347 273.946 674.3 273.772 674.876 273.424C675.451 273.061 675.738 272.387 675.738 271.403V259.914C675.738 258.915 675.451 258.241 674.876 257.893C674.3 257.53 673.347 257.348 672.015 257.348V248.925H689.861L701.214 266.703V259.914C701.214 258.915 701.002 258.241 700.578 257.893C700.17 257.53 699.299 257.348 697.967 257.348V248.925H712.658Z" fill="white"/>
<path d="M659.459 282.37L658.709 280.099C657.756 280.962 656.439 281.719 654.758 282.37C653.093 283.021 651.171 283.346 648.991 283.346C646.539 283.346 644.223 283.013 642.043 282.347C639.864 281.681 637.956 280.637 636.322 279.214C634.702 277.791 633.415 275.967 632.462 273.742C631.523 271.502 631.054 268.815 631.054 265.681C631.054 262.548 631.553 259.869 632.552 257.644C633.567 255.403 634.891 253.572 636.526 252.149C638.176 250.726 640.038 249.681 642.111 249.015C644.185 248.349 646.312 248.016 648.492 248.016C649.763 248.016 650.906 248.115 651.92 248.312C652.95 248.508 653.85 248.758 654.622 249.061C655.394 249.348 656.045 249.659 656.575 249.992C657.105 250.31 657.536 250.575 657.869 250.786V248.925H665.362V261.299H657.415C657.354 259.695 656.87 258.4 655.962 257.416C655.069 256.417 653.82 255.918 652.215 255.918C651.398 255.918 650.634 256.069 649.922 256.372C649.211 256.66 648.583 257.174 648.038 257.916C647.493 258.658 647.061 259.657 646.743 260.913C646.441 262.17 646.289 263.759 646.289 265.681C646.289 267.513 646.388 269.049 646.584 270.291C646.796 271.517 647.114 272.516 647.538 273.288C647.977 274.045 648.53 274.597 649.196 274.945C649.862 275.278 650.664 275.445 651.602 275.445C651.814 275.445 652.079 275.422 652.397 275.377C652.73 275.331 653.04 275.255 653.328 275.15C653.631 275.028 653.888 274.877 654.1 274.695C654.327 274.514 654.441 274.264 654.441 273.946V272.697C654.441 271.986 654.198 271.449 653.714 271.085C653.23 270.707 652.321 270.518 650.989 270.518V263.025H670.153V270.518C668.821 270.518 667.867 270.699 667.292 271.063C666.717 271.411 666.429 272.077 666.429 273.061V282.37H659.459Z" fill="white"/>
<path d="M608.575 282.37V273.946C609.907 273.946 610.861 273.772 611.436 273.424C612.011 273.061 612.299 272.387 612.299 271.403V259.914C612.299 258.915 612.011 258.241 611.436 257.893C610.861 257.53 609.907 257.348 608.575 257.348V248.925H629.396V257.348C628.064 257.348 627.111 257.53 626.535 257.893C625.975 258.241 625.695 258.915 625.695 259.914V271.403C625.695 272.387 625.975 273.061 626.535 273.424C627.111 273.772 628.064 273.946 629.396 273.946V282.37H608.575Z" fill="white"/>
<path d="M605.396 261.072H597.904C597.783 260.3 597.51 259.581 597.086 258.915C596.678 258.249 596.17 257.674 595.565 257.189C594.959 256.705 594.286 256.334 593.544 256.077C592.802 255.804 592.038 255.668 591.251 255.668C590.297 255.668 589.525 255.85 588.935 256.213C588.345 256.576 588.049 257.083 588.049 257.734C588.049 258.355 588.314 258.862 588.844 259.256C589.374 259.634 590.07 259.967 590.933 260.255C591.796 260.527 592.78 260.792 593.885 261.049C594.99 261.307 596.11 261.625 597.245 262.003C598.396 262.381 599.523 262.843 600.628 263.388C601.733 263.918 602.717 264.607 603.58 265.454C604.443 266.287 605.139 267.309 605.669 268.52C606.199 269.73 606.464 271.184 606.464 272.879C606.464 274.68 606.078 276.217 605.306 277.488C604.534 278.76 603.497 279.804 602.195 280.622C600.893 281.439 599.395 282.037 597.699 282.415C596.004 282.794 594.248 282.983 592.432 282.983C590.661 282.983 588.965 282.779 587.346 282.37C585.741 281.961 584.099 281.295 582.418 280.372V282.37H574.926V269.995H582.418C582.857 271.766 583.735 273.167 585.052 274.196C586.369 275.21 587.853 275.717 589.503 275.717C590.608 275.717 591.433 275.513 591.977 275.104C592.522 274.68 592.795 274.203 592.795 273.674C592.795 272.841 592.341 272.198 591.433 271.744C590.539 271.29 589.427 270.888 588.095 270.54C586.763 270.177 585.302 269.776 583.713 269.337C582.138 268.883 580.685 268.239 579.353 267.407C578.021 266.559 576.901 265.447 575.993 264.069C575.1 262.692 574.653 260.89 574.653 258.665C574.653 257.015 575.009 255.555 575.72 254.283C576.432 253.012 577.385 251.944 578.581 251.082C579.777 250.204 581.154 249.545 582.714 249.106C584.288 248.652 585.945 248.425 587.686 248.425C590.093 248.425 592.159 248.705 593.885 249.265C595.61 249.825 596.95 250.416 597.904 251.036V248.925H605.396V261.072Z" fill="white"/>
<path d="M561.393 273.946C562.014 273.946 562.528 273.893 562.937 273.787C563.361 273.681 563.694 273.484 563.936 273.197C564.193 272.894 564.367 272.485 564.458 271.971C564.549 271.456 564.595 270.798 564.595 269.995H572.542V282.37H540.186V273.946C541.518 273.946 542.472 273.772 543.047 273.424C543.622 273.061 543.91 272.387 543.91 271.403V259.914C543.91 258.915 543.622 258.241 543.047 257.893C542.472 257.53 541.518 257.348 540.186 257.348V248.925H572.542V261.299H564.595C564.595 260.497 564.549 259.838 564.458 259.324C564.367 258.809 564.193 258.408 563.936 258.12C563.694 257.833 563.361 257.636 562.937 257.53C562.528 257.409 562.014 257.348 561.393 257.348H557.306V263.388H564.549V267.407H557.306V273.946H561.393Z" fill="white"/>
<path d="M516.254 273.946C517.087 273.946 517.897 273.855 518.684 273.674C519.486 273.492 520.182 273.114 520.773 272.538C521.378 271.963 521.87 271.138 522.249 270.063C522.627 268.974 522.816 267.513 522.816 265.681C522.816 263.88 522.635 262.434 522.271 261.345C521.908 260.24 521.431 259.392 520.841 258.802C520.266 258.211 519.569 257.825 518.752 257.644C517.95 257.447 517.117 257.348 516.254 257.348H514.12V273.946H516.254ZM497 282.37V273.946C498.332 273.946 499.286 273.772 499.861 273.424C500.436 273.061 500.724 272.387 500.724 271.403V259.914C500.724 258.915 500.436 258.241 499.861 257.893C499.286 257.53 498.332 257.348 497 257.348V248.925H521.091C523.255 248.925 525.352 249.212 527.38 249.787C529.408 250.363 531.21 251.301 532.784 252.603C534.373 253.905 535.645 255.63 536.599 257.78C537.567 259.914 538.052 262.548 538.052 265.681C538.052 268.815 537.575 271.449 536.621 273.583C535.683 275.717 534.396 277.435 532.761 278.737C531.142 280.039 529.242 280.977 527.062 281.553C524.882 282.128 522.566 282.415 520.114 282.415L497 282.37Z" fill="white"/>
<path d="M1204.46 248.925V262.23H1196.99C1196.99 261.216 1196.96 260.338 1196.89 259.596C1196.85 258.839 1196.74 258.234 1196.55 257.78C1196.37 257.311 1196.09 256.97 1195.71 256.758C1195.35 256.531 1194.86 256.417 1194.24 256.417H1192.83V271.403C1192.83 272.387 1193.12 273.061 1193.69 273.424C1194.27 273.772 1195.22 273.946 1196.55 273.946V282.37H1175.73V273.946C1177.07 273.946 1178.01 273.772 1178.57 273.424C1179.15 273.061 1179.43 272.387 1179.43 271.403V256.417H1178.05C1177.43 256.417 1176.93 256.531 1176.55 256.758C1176.19 256.97 1175.91 257.311 1175.71 257.78C1175.53 258.234 1175.42 258.839 1175.37 259.596C1175.32 260.338 1175.3 261.216 1175.3 262.23H1167.81V248.925H1204.46Z" fill="white"/>
<path d="M1165.11 261.072H1157.61C1157.49 260.3 1157.22 259.581 1156.8 258.915C1156.39 258.249 1155.88 257.674 1155.28 257.189C1154.67 256.705 1154 256.334 1153.25 256.077C1152.51 255.804 1151.75 255.668 1150.96 255.668C1150.01 255.668 1149.24 255.85 1148.65 256.213C1148.06 256.576 1147.76 257.083 1147.76 257.734C1147.76 258.355 1148.02 258.862 1148.55 259.256C1149.08 259.634 1149.78 259.967 1150.64 260.255C1151.51 260.527 1152.49 260.792 1153.6 261.049C1154.7 261.307 1155.82 261.625 1156.96 262.003C1158.11 262.381 1159.23 262.843 1160.34 263.388C1161.44 263.918 1162.43 264.607 1163.29 265.454C1164.15 266.287 1164.85 267.309 1165.38 268.52C1165.91 269.73 1166.17 271.184 1166.17 272.879C1166.17 274.68 1165.79 276.217 1165.02 277.488C1164.24 278.76 1163.21 279.804 1161.91 280.622C1160.6 281.439 1159.11 282.037 1157.41 282.415C1155.71 282.794 1153.96 282.983 1152.14 282.983C1150.37 282.983 1148.68 282.779 1147.06 282.37C1145.45 281.961 1143.81 281.295 1142.13 280.372V282.37H1134.64V269.995H1142.13C1142.57 271.766 1143.45 273.167 1144.76 274.196C1146.08 275.21 1147.56 275.717 1149.21 275.717C1150.32 275.717 1151.14 275.513 1151.69 275.104C1152.23 274.68 1152.51 274.203 1152.51 273.674C1152.51 272.841 1152.05 272.198 1151.14 271.744C1150.25 271.29 1149.14 270.888 1147.81 270.54C1146.47 270.177 1145.01 269.776 1143.42 269.337C1141.85 268.883 1140.4 268.239 1139.06 267.407C1137.73 266.559 1136.61 265.447 1135.7 264.069C1134.81 262.692 1134.36 260.89 1134.36 258.665C1134.36 257.015 1134.72 255.555 1135.43 254.283C1136.14 253.012 1137.1 251.944 1138.29 251.082C1139.49 250.204 1140.87 249.545 1142.42 249.106C1144 248.652 1145.66 248.425 1147.4 248.425C1149.8 248.425 1151.87 248.705 1153.6 249.265C1155.32 249.825 1156.66 250.416 1157.61 251.036V248.925H1165.11V261.072Z" fill="white"/>
<path d="M1111.43 282.37V273.946C1112.76 273.946 1113.72 273.772 1114.29 273.424C1114.87 273.061 1115.15 272.387 1115.15 271.403V259.914C1115.15 258.915 1114.87 258.241 1114.29 257.893C1113.72 257.53 1112.76 257.348 1111.43 257.348V248.925H1132.25V257.348C1130.92 257.348 1129.97 257.53 1129.39 257.893C1128.83 258.241 1128.55 258.915 1128.55 259.914V271.403C1128.55 272.387 1128.83 273.061 1129.39 273.424C1129.97 273.772 1130.92 273.946 1132.25 273.946V282.37H1111.43Z" fill="white"/>
<path d="M1098.87 282.37L1098.13 280.099C1097.17 280.962 1095.86 281.719 1094.17 282.37C1092.51 283.021 1090.59 283.346 1088.41 283.346C1085.96 283.346 1083.64 283.013 1081.46 282.347C1079.28 281.681 1077.37 280.637 1075.74 279.214C1074.12 277.791 1072.83 275.967 1071.88 273.742C1070.94 271.502 1070.47 268.815 1070.47 265.681C1070.47 262.548 1070.97 259.869 1071.97 257.644C1072.98 255.403 1074.31 253.572 1075.94 252.149C1077.59 250.726 1079.45 249.681 1081.53 249.015C1083.6 248.349 1085.73 248.016 1087.91 248.016C1089.18 248.016 1090.32 248.115 1091.34 248.312C1092.37 248.508 1093.27 248.758 1094.04 249.061C1094.81 249.348 1095.46 249.659 1095.99 249.992C1096.52 250.31 1096.95 250.575 1097.29 250.786V248.925H1104.78V261.299H1096.83C1096.77 259.695 1096.29 258.4 1095.38 257.416C1094.49 256.417 1093.24 255.918 1091.63 255.918C1090.81 255.918 1090.05 256.069 1089.34 256.372C1088.63 256.66 1088 257.174 1087.45 257.916C1086.91 258.658 1086.48 259.657 1086.16 260.913C1085.86 262.17 1085.71 263.759 1085.71 265.681C1085.71 267.513 1085.8 269.049 1086 270.291C1086.21 271.517 1086.53 272.516 1086.95 273.288C1087.39 274.045 1087.95 274.597 1088.61 274.945C1089.28 275.278 1090.08 275.445 1091.02 275.445C1091.23 275.445 1091.5 275.422 1091.81 275.377C1092.15 275.331 1092.46 275.255 1092.74 275.15C1093.05 275.028 1093.3 274.877 1093.52 274.695C1093.74 274.514 1093.86 274.264 1093.86 273.946V272.697C1093.86 271.986 1093.61 271.449 1093.13 271.085C1092.65 270.707 1091.74 270.518 1090.41 270.518V263.025H1109.57V270.518C1108.24 270.518 1107.28 270.699 1106.71 271.063C1106.13 271.411 1105.85 272.077 1105.85 273.061V282.37H1098.87Z" fill="white"/>
<path d="M1057.66 273.946C1058.29 273.946 1058.8 273.893 1059.21 273.787C1059.63 273.681 1059.97 273.484 1060.21 273.197C1060.46 272.894 1060.64 272.485 1060.73 271.971C1060.82 271.456 1060.87 270.798 1060.87 269.995H1068.81V282.37H1036.46V273.946C1037.79 273.946 1038.74 273.772 1039.32 273.424C1039.89 273.061 1040.18 272.387 1040.18 271.403V259.914C1040.18 258.915 1039.89 258.241 1039.32 257.893C1038.74 257.53 1037.79 257.348 1036.46 257.348V248.925H1068.81V261.299H1060.87C1060.87 260.497 1060.82 259.838 1060.73 259.324C1060.64 258.809 1060.46 258.408 1060.21 258.12C1059.97 257.833 1059.63 257.636 1059.21 257.53C1058.8 257.409 1058.29 257.348 1057.66 257.348H1053.58V263.388H1060.82V267.407H1053.58V273.946H1057.66Z" fill="white"/>
<path d="M1035.03 248.925V262.23H1027.56C1027.56 261.216 1027.53 260.338 1027.47 259.596C1027.42 258.839 1027.31 258.234 1027.13 257.78C1026.94 257.311 1026.66 256.97 1026.29 256.758C1025.92 256.531 1025.43 256.417 1024.81 256.417H1023.4V271.403C1023.4 272.387 1023.69 273.061 1024.26 273.424C1024.84 273.772 1025.79 273.946 1027.13 273.946V282.37H1006.3V273.946C1007.64 273.946 1008.58 273.772 1009.14 273.424C1009.72 273.061 1010.01 272.387 1010.01 271.403V256.417H1008.62C1008 256.417 1007.5 256.531 1007.12 256.758C1006.76 256.97 1006.48 257.311 1006.28 257.78C1006.1 258.234 1005.99 258.839 1005.94 259.596C1005.9 260.338 1005.87 261.216 1005.87 262.23H998.38V248.925H1035.03Z" fill="white"/>
<path d="M979.535 270.699H972.36L972.042 271.676C971.8 272.326 971.815 272.871 972.087 273.31C972.36 273.734 972.935 273.946 973.813 273.946H975.107V282.37H960.961V273.946H961.892C962.982 273.946 963.709 273.734 964.072 273.31C964.451 272.871 964.814 272.236 965.162 271.403L969.817 259.914C970.15 259.036 970.203 258.393 969.976 257.984C969.764 257.56 969.105 257.348 968 257.348H967.523V248.925H990.865V257.348H990.411C989.29 257.348 988.617 257.568 988.39 258.007C988.178 258.446 988.246 259.082 988.594 259.914L993.249 271.403C993.43 271.827 993.589 272.198 993.726 272.516C993.877 272.818 994.059 273.083 994.271 273.31C994.482 273.522 994.762 273.681 995.111 273.787C995.474 273.893 995.936 273.946 996.496 273.946H997.427V282.37H976.787V273.946H978.036C978.899 273.946 979.474 273.734 979.762 273.31C980.064 272.871 980.095 272.326 979.852 271.676L979.535 270.699ZM973.518 267.157H978.354L976.083 260.187H975.902L973.518 267.157Z" fill="white"/>
<path d="M920.523 282.37V273.946C921.855 273.946 922.808 273.772 923.384 273.424C923.959 273.061 924.246 272.387 924.246 271.403V259.914C924.246 258.915 923.959 258.241 923.384 257.893C922.808 257.53 921.855 257.348 920.523 257.348V248.925H944.568C946.793 248.925 948.663 249.144 950.176 249.583C951.705 250.022 952.924 250.65 953.832 251.468C954.755 252.285 955.406 253.261 955.784 254.397C956.178 255.532 956.375 256.796 956.375 258.188C956.375 260.731 955.762 262.767 954.536 264.296C953.31 265.81 951.349 266.627 948.655 266.748V267.021C949.957 267.112 951.031 267.354 951.879 267.748C952.742 268.141 953.416 268.656 953.9 269.291C954.399 269.912 954.748 270.669 954.944 271.562C955.156 272.44 955.262 273.439 955.262 274.559V275.763C955.262 276.141 955.361 276.474 955.557 276.762C955.754 277.034 956.057 277.17 956.466 277.17C956.905 277.17 957.215 277.034 957.397 276.762C957.578 276.474 957.669 276.141 957.669 275.763V269.995H960.28V275.763C960.28 276.852 960.114 277.859 959.781 278.782C959.463 279.691 958.933 280.485 958.191 281.167C957.45 281.848 956.473 282.37 955.262 282.733C954.051 283.112 952.56 283.301 950.789 283.301C949.018 283.301 947.565 283.104 946.43 282.71C945.31 282.332 944.432 281.802 943.796 281.121C943.16 280.44 942.714 279.653 942.456 278.76C942.214 277.852 942.093 276.898 942.093 275.899V274.15C942.093 272.94 942.025 271.963 941.889 271.221C941.752 270.465 941.525 269.882 941.207 269.473C940.905 269.049 940.504 268.769 940.004 268.633C939.505 268.497 938.899 268.429 938.188 268.429H937.643V271.676C937.643 272.478 937.862 273.061 938.301 273.424C938.755 273.772 939.558 273.946 940.708 273.946V282.37H920.523ZM937.643 264.41H939.641C940.912 264.41 941.783 264.107 942.252 263.502C942.736 262.881 942.979 262.026 942.979 260.936C942.979 259.664 942.736 258.749 942.252 258.188C941.783 257.628 940.912 257.348 939.641 257.348H937.643V264.41Z" fill="white"/>
<path d="M919.092 248.925V262.23H911.622C911.622 261.216 911.592 260.338 911.531 259.596C911.486 258.839 911.372 258.234 911.191 257.78C911.009 257.311 910.729 256.97 910.35 256.758C909.987 256.531 909.495 256.417 908.875 256.417H907.467V271.403C907.467 272.387 907.754 273.061 908.33 273.424C908.905 273.772 909.859 273.946 911.191 273.946V282.37H890.37V273.946C891.702 273.946 892.648 273.772 893.208 273.424C893.783 273.061 894.071 272.387 894.071 271.403V256.417H892.686C892.065 256.417 891.565 256.531 891.187 256.758C890.824 256.97 890.544 257.311 890.347 257.78C890.165 258.234 890.052 258.839 890.006 259.596C889.961 260.338 889.938 261.216 889.938 262.23H882.445V248.925H919.092Z" fill="white"/>
<path d="M879.743 261.072H872.251C872.129 260.3 871.857 259.581 871.433 258.915C871.024 258.249 870.517 257.674 869.912 257.189C869.306 256.705 868.633 256.334 867.891 256.077C867.149 255.804 866.385 255.668 865.598 255.668C864.644 255.668 863.872 255.85 863.282 256.213C862.691 256.576 862.396 257.083 862.396 257.734C862.396 258.355 862.661 258.862 863.191 259.256C863.721 259.634 864.417 259.967 865.28 260.255C866.143 260.527 867.127 260.792 868.232 261.049C869.337 261.307 870.457 261.625 871.592 262.003C872.742 262.381 873.87 262.843 874.975 263.388C876.08 263.918 877.064 264.607 877.927 265.454C878.79 266.287 879.486 267.309 880.016 268.52C880.546 269.73 880.811 271.184 880.811 272.879C880.811 274.68 880.425 276.217 879.653 277.488C878.881 278.76 877.844 279.804 876.542 280.622C875.24 281.439 873.742 282.037 872.046 282.415C870.351 282.794 868.595 282.983 866.778 282.983C865.007 282.983 863.312 282.779 861.692 282.37C860.088 281.961 858.446 281.295 856.765 280.372V282.37H849.272V269.995H856.765C857.204 271.766 858.082 273.167 859.399 274.196C860.716 275.21 862.2 275.717 863.849 275.717C864.954 275.717 865.779 275.513 866.324 275.104C866.869 274.68 867.142 274.203 867.142 273.674C867.142 272.841 866.688 272.198 865.779 271.744C864.886 271.29 863.774 270.888 862.442 270.54C861.11 270.177 859.649 269.776 858.06 269.337C856.485 268.883 855.032 268.239 853.7 267.407C852.368 266.559 851.248 265.447 850.34 264.069C849.447 262.692 849 260.89 849 258.665C849 257.015 849.356 255.555 850.067 254.283C850.779 253.012 851.732 251.944 852.928 251.082C854.124 250.204 855.501 249.545 857.06 249.106C858.635 248.652 860.292 248.425 862.033 248.425C864.44 248.425 866.506 248.705 868.232 249.265C869.957 249.825 871.297 250.416 872.251 251.036V248.925H879.743V261.072Z" fill="white"/>
<path d="M466.5 257.016L468.408 262.89L474.584 262.89L469.588 266.52L471.496 272.393L466.5 268.763L461.504 272.393L463.412 266.52L458.416 262.89L464.592 262.89L466.5 257.016Z" fill="#76A780"/>
<path d="M818.5 257.016L820.408 262.89L826.584 262.89L821.588 266.52L823.496 272.393L818.5 268.763L813.504 272.393L815.412 266.52L810.416 262.89L816.592 262.89L818.5 257.016Z" fill="#76A780"/>
</svg>
