<svg width="86" height="86" viewBox="0 0 86 86" fill="none" xmlns="http://www.w3.org/2000/svg">
<rect width="86" height="86" fill="#EFCB68"/>
<path d="M17.4057 51.244C14.8477 51.244 12.9034 50.5047 11.5727 49.0261C10.242 47.5328 9.57664 45.4923 9.57664 42.9048C9.57664 41.1601 9.9315 39.6446 10.6412 38.3582C11.3509 37.0571 12.3268 36.0665 13.5688 35.3863C14.8108 34.6914 16.2154 34.3439 17.7827 34.3439C18.4037 34.3439 19.0025 34.3809 19.5792 34.4548C20.1558 34.514 20.8507 34.6027 21.6639 34.721C22.2997 34.8245 22.7359 34.8836 22.9725 34.8984L22.7063 39.8442H20.3332L19.5792 36.4509C19.2539 36.096 18.5737 35.9186 17.5387 35.9186C16.4002 35.9186 15.4983 36.4878 14.833 37.6263C14.1824 38.7501 13.8571 40.4061 13.8571 42.5943C13.8571 44.7235 14.175 46.4312 14.8108 47.7176C15.4613 49.0039 16.4002 49.6471 17.6274 49.6471C18.2337 49.6471 18.692 49.588 19.0025 49.4697C19.3278 49.3514 19.6013 49.1814 19.8231 48.9596L20.8212 46.5865L22.9947 46.7861L22.5954 50.4012C22.1667 50.4308 21.6418 50.5416 21.0208 50.7339C20.4293 50.8965 19.8675 51.0222 19.3352 51.1109C18.8177 51.1996 18.1745 51.244 17.4057 51.244ZM24.6826 44.9009C24.6826 43.4815 24.9636 42.2838 25.5254 41.308C26.0873 40.3173 26.8414 39.5781 27.7876 39.0901C28.7487 38.6022 29.7985 38.3582 30.937 38.3582C32.8 38.3582 34.2564 38.9201 35.3062 40.0438C36.3707 41.1527 36.903 42.7052 36.903 44.7013C36.903 46.1651 36.6221 47.3849 36.0602 48.3608C35.4984 49.3366 34.7443 50.0611 33.798 50.5343C32.8517 51.0074 31.7946 51.244 30.6265 51.244C28.7783 51.244 27.3219 50.6895 26.2573 49.5806C25.2075 48.4569 24.6826 46.897 24.6826 44.9009ZM30.8483 49.6915C31.558 49.6915 32.0829 49.3144 32.423 48.5604C32.7778 47.7915 32.9552 46.5939 32.9552 44.9674C32.9552 43.2375 32.7852 41.9659 32.4451 41.1527C32.1198 40.3247 31.5654 39.9107 30.7817 39.9107C29.3327 39.9107 28.6082 41.4854 28.6082 44.6348C28.6082 46.3499 28.7857 47.6215 29.1405 48.4495C29.4954 49.2775 30.0646 49.6915 30.8483 49.6915ZM38.6019 44.9231C38.6019 43.6072 38.8681 42.4539 39.4004 41.4632C39.9326 40.4726 40.6793 39.7111 41.6404 39.1788C42.6015 38.6318 43.7104 38.3582 44.9672 38.3582C45.5882 38.3582 46.1204 38.4026 46.564 38.4913C47.0224 38.5652 47.4881 38.6761 47.9613 38.824C48.39 38.9423 48.6562 39.0088 48.7597 39.0236L48.6044 43.0379H46.3644L45.7878 40.4874C45.7434 40.2952 45.6177 40.1621 45.4107 40.0882C45.2185 39.9994 44.9819 39.9551 44.701 39.9551C44.0061 39.9551 43.459 40.2952 43.0598 40.9753C42.6754 41.6554 42.4832 42.7866 42.4832 44.3686C42.4832 45.8768 42.7271 47.0374 43.2151 47.8506C43.7178 48.6491 44.3905 49.0483 45.2333 49.0483C46.3274 49.0483 47.3329 48.7674 48.2496 48.2055L48.8484 49.514C48.4935 49.9133 47.9095 50.3051 47.0963 50.6895C46.2831 51.0591 45.3812 51.244 44.3905 51.244C42.4536 51.244 41.0046 50.6747 40.0435 49.5362C39.0825 48.3829 38.6019 46.8452 38.6019 44.9231ZM50.5215 44.9009C50.5215 43.4815 50.8024 42.2838 51.3643 41.308C51.9261 40.3173 52.6802 39.5781 53.6265 39.0901C54.5876 38.6022 55.6373 38.3582 56.7758 38.3582C58.6388 38.3582 60.0952 38.9201 61.145 40.0438C62.2096 41.1527 62.7419 42.7052 62.7419 44.7013C62.7419 46.1651 62.4609 47.3849 61.8991 48.3608C61.3372 49.3366 60.5832 50.0611 59.6369 50.5343C58.6906 51.0074 57.6334 51.244 56.4653 51.244C54.6171 51.244 53.1607 50.6895 52.0962 49.5806C51.0464 48.4569 50.5215 46.897 50.5215 44.9009ZM56.6871 49.6915C57.3968 49.6915 57.9217 49.3144 58.2618 48.5604C58.6167 47.7915 58.7941 46.5939 58.7941 44.9674C58.7941 43.2375 58.6241 41.9659 58.284 41.1527C57.9587 40.3247 57.4042 39.9107 56.6206 39.9107C55.1716 39.9107 54.4471 41.4854 54.4471 44.6348C54.4471 46.3499 54.6245 47.6215 54.9794 48.4495C55.3342 49.2775 55.9035 49.6915 56.6871 49.6915ZM64.3742 47.4514C64.3742 46.1503 65.0322 45.1523 66.3481 44.4573C67.6788 43.7624 69.4236 43.4076 71.5823 43.3928V42.9492C71.5823 42.4169 71.5231 41.9955 71.4048 41.685C71.2865 41.3745 71.0722 41.1453 70.7617 40.9975C70.4512 40.8348 69.9928 40.7535 69.3866 40.7535C68.6621 40.7535 68.0115 40.8422 67.4349 41.0197C66.873 41.1823 66.2816 41.4041 65.6606 41.685L64.9065 40.0882C65.1431 39.896 65.5275 39.6668 66.0598 39.4006C66.5921 39.1197 67.2279 38.8831 67.9672 38.6909C68.7212 38.4839 69.5049 38.3804 70.3181 38.3804C71.5009 38.3804 72.425 38.5357 73.0904 38.8462C73.7705 39.1567 74.2511 39.6372 74.532 40.2878C74.8277 40.9383 74.9756 41.8255 74.9756 42.9492V49.5362H76.1289V50.9335C75.7888 51.0074 75.3156 51.0813 74.7094 51.1552C74.1032 51.2292 73.5857 51.2661 73.1569 51.2661C72.5951 51.2661 72.218 51.1848 72.0258 51.0222C71.8484 50.8595 71.7597 50.5343 71.7597 50.0463V49.5362C71.39 49.9798 70.8947 50.379 70.2737 50.7339C69.6527 51.0739 68.9356 51.244 68.1224 51.244C67.4275 51.244 66.7917 51.0961 66.2151 50.8004C65.6532 50.4899 65.2022 50.0537 64.8622 49.4919C64.5369 48.9152 64.3742 48.2351 64.3742 47.4514ZM69.8523 49.2035C70.1185 49.2035 70.4142 49.1296 70.7395 48.9818C71.0648 48.8191 71.3457 48.6269 71.5823 48.4051V44.8787C70.429 44.8787 69.5714 45.0857 69.0096 45.4997C68.4625 45.9137 68.1889 46.446 68.1889 47.0966C68.1889 47.7619 68.3368 48.2794 68.6325 48.6491C68.9282 49.0187 69.3348 49.2035 69.8523 49.2035Z" fill="#121212"/>
</svg>
