<svg width="449" height="136" viewBox="0 0 449 136" fill="none" xmlns="http://www.w3.org/2000/svg">
<g clip-path="url(#clip0_278_16421)">
<path fill-rule="evenodd" clip-rule="evenodd" d="M143.284 45.6274L148.941 39.9706L143.284 34.3137L131.971 23L126.314 28.6569L137.628 39.9706L126.314 51.2843L131.971 56.9411L143.284 45.6274Z" fill="#B1B1B1"/>
<path fill-rule="evenodd" clip-rule="evenodd" d="M327.284 45.6274L332.941 39.9706L327.284 34.3137L315.971 23L310.314 28.6569L321.628 39.9706L310.314 51.2843L315.971 56.9411L327.284 45.6274Z" fill="#B1B1B1"/>
<path d="M349.918 110.545H353.114L358.67 124.114H358.875L364.432 110.545H367.628V128H365.122V115.369H364.96L359.812 127.974H357.733L352.585 115.361H352.423V128H349.918V110.545ZM376.046 128.264C374.819 128.264 373.748 127.983 372.833 127.42C371.918 126.858 371.208 126.071 370.703 125.06C370.197 124.048 369.944 122.866 369.944 121.514C369.944 120.156 370.197 118.969 370.703 117.952C371.208 116.935 371.918 116.145 372.833 115.582C373.748 115.02 374.819 114.739 376.046 114.739C377.274 114.739 378.345 115.02 379.259 115.582C380.174 116.145 380.884 116.935 381.39 117.952C381.896 118.969 382.149 120.156 382.149 121.514C382.149 122.866 381.896 124.048 381.39 125.06C380.884 126.071 380.174 126.858 379.259 127.42C378.345 127.983 377.274 128.264 376.046 128.264ZM376.055 126.125C376.85 126.125 377.509 125.915 378.032 125.494C378.555 125.074 378.941 124.514 379.191 123.815C379.447 123.116 379.575 122.347 379.575 121.506C379.575 120.67 379.447 119.903 379.191 119.205C378.941 118.5 378.555 117.935 378.032 117.509C377.509 117.082 376.85 116.869 376.055 116.869C375.254 116.869 374.589 117.082 374.061 117.509C373.538 117.935 373.149 118.5 372.893 119.205C372.643 119.903 372.518 120.67 372.518 121.506C372.518 122.347 372.643 123.116 372.893 123.815C373.149 124.514 373.538 125.074 374.061 125.494C374.589 125.915 375.254 126.125 376.055 126.125ZM389.787 128.264C388.52 128.264 387.429 127.977 386.515 127.403C385.605 126.824 384.907 126.026 384.418 125.009C383.929 123.991 383.685 122.827 383.685 121.514C383.685 120.185 383.935 119.011 384.435 117.994C384.935 116.972 385.64 116.173 386.549 115.599C387.458 115.026 388.529 114.739 389.762 114.739C390.756 114.739 391.642 114.923 392.421 115.293C393.199 115.656 393.827 116.168 394.304 116.827C394.787 117.486 395.074 118.256 395.165 119.136H392.685C392.549 118.523 392.236 117.994 391.748 117.551C391.265 117.108 390.617 116.886 389.804 116.886C389.094 116.886 388.472 117.074 387.938 117.449C387.409 117.818 386.998 118.347 386.702 119.034C386.407 119.716 386.259 120.523 386.259 121.455C386.259 122.409 386.404 123.233 386.694 123.926C386.983 124.619 387.392 125.156 387.921 125.537C388.455 125.918 389.083 126.108 389.804 126.108C390.287 126.108 390.725 126.02 391.117 125.844C391.515 125.662 391.847 125.403 392.114 125.068C392.387 124.733 392.577 124.33 392.685 123.858H395.165C395.074 124.705 394.799 125.46 394.338 126.125C393.878 126.79 393.262 127.312 392.489 127.693C391.722 128.074 390.821 128.264 389.787 128.264ZM399.514 123.56L399.497 120.449H399.94L405.156 114.909H408.207L402.258 121.216H401.858L399.514 123.56ZM397.17 128V110.545H399.719V128H397.17ZM405.437 128L400.75 121.778L402.505 119.997L408.565 128H405.437ZM418.102 122.571V114.909H420.659V128H418.153V125.733H418.017C417.716 126.432 417.233 127.014 416.568 127.48C415.909 127.94 415.088 128.17 414.105 128.17C413.264 128.17 412.52 127.986 411.872 127.616C411.23 127.241 410.724 126.688 410.355 125.955C409.991 125.222 409.81 124.315 409.81 123.236V114.909H412.358V122.929C412.358 123.821 412.605 124.531 413.099 125.06C413.594 125.588 414.236 125.852 415.026 125.852C415.503 125.852 415.977 125.733 416.449 125.494C416.926 125.256 417.321 124.895 417.633 124.412C417.952 123.929 418.108 123.315 418.102 122.571ZM423.363 132.909V114.909H425.852V117.031H426.065C426.213 116.759 426.426 116.443 426.704 116.085C426.982 115.727 427.369 115.415 427.863 115.148C428.357 114.875 429.011 114.739 429.823 114.739C430.88 114.739 431.823 115.006 432.653 115.54C433.482 116.074 434.133 116.844 434.605 117.849C435.082 118.855 435.32 120.065 435.32 121.48C435.32 122.895 435.085 124.108 434.613 125.119C434.141 126.125 433.494 126.901 432.67 127.446C431.846 127.986 430.906 128.256 429.849 128.256C429.053 128.256 428.403 128.122 427.897 127.855C427.397 127.588 427.005 127.276 426.721 126.918C426.437 126.56 426.218 126.241 426.065 125.963H425.911V132.909H423.363ZM425.86 121.455C425.86 122.375 425.994 123.182 426.261 123.875C426.528 124.568 426.914 125.111 427.42 125.503C427.926 125.889 428.545 126.082 429.278 126.082C430.039 126.082 430.676 125.881 431.187 125.477C431.698 125.068 432.085 124.514 432.346 123.815C432.613 123.116 432.747 122.33 432.747 121.455C432.747 120.591 432.616 119.815 432.355 119.128C432.099 118.44 431.713 117.898 431.195 117.5C430.684 117.102 430.045 116.903 429.278 116.903C428.539 116.903 427.914 117.094 427.403 117.474C426.897 117.855 426.514 118.386 426.252 119.068C425.991 119.75 425.86 120.545 425.86 121.455ZM447.265 118.105L444.956 118.514C444.859 118.219 444.706 117.937 444.495 117.67C444.291 117.403 444.012 117.185 443.66 117.014C443.308 116.844 442.868 116.759 442.339 116.759C441.618 116.759 441.015 116.92 440.532 117.244C440.049 117.562 439.808 117.974 439.808 118.48C439.808 118.918 439.97 119.27 440.294 119.537C440.618 119.804 441.14 120.023 441.862 120.193L443.941 120.67C445.146 120.949 446.044 121.378 446.635 121.957C447.225 122.537 447.521 123.29 447.521 124.216C447.521 125 447.294 125.699 446.839 126.312C446.39 126.92 445.762 127.398 444.956 127.744C444.154 128.091 443.225 128.264 442.169 128.264C440.703 128.264 439.507 127.952 438.581 127.327C437.654 126.696 437.086 125.801 436.876 124.642L439.339 124.267C439.493 124.909 439.808 125.395 440.285 125.724C440.762 126.048 441.385 126.21 442.152 126.21C442.987 126.21 443.654 126.037 444.154 125.69C444.654 125.338 444.904 124.909 444.904 124.403C444.904 123.994 444.751 123.651 444.444 123.372C444.143 123.094 443.68 122.884 443.055 122.741L440.839 122.256C439.618 121.977 438.714 121.534 438.129 120.926C437.549 120.318 437.26 119.548 437.26 118.616C437.26 117.844 437.475 117.168 437.907 116.588C438.339 116.009 438.936 115.557 439.697 115.233C440.458 114.903 441.331 114.739 442.314 114.739C443.728 114.739 444.842 115.045 445.654 115.659C446.467 116.267 447.004 117.082 447.265 118.105Z" fill="black"/>
<path fill-rule="evenodd" clip-rule="evenodd" d="M395 16V72L355 72V16L395 16ZM387 24L387 64H363L363 24L387 24ZM443 24V72L403 72V24L443 24ZM435 32V64H411V32H435Z" fill="#387152"/>
<path fill-rule="evenodd" clip-rule="evenodd" d="M379 32H371V40H379V32ZM395 80V88L355 88V80L395 80ZM443 80V88L403 88V80L443 80ZM371 48H379V56H371V48ZM427 40H419V48H427V40Z" fill="#63DB9A"/>
<path d="M1.91761 128V110.545H8.1392C9.49716 110.545 10.6222 110.793 11.5142 111.287C12.4063 111.781 13.0739 112.457 13.517 113.315C13.9602 114.168 14.1818 115.128 14.1818 116.196C14.1818 117.27 13.9574 118.236 13.5085 119.094C13.0653 119.946 12.3949 120.622 11.4972 121.122C10.6051 121.616 9.48295 121.864 8.13068 121.864H3.85227V119.631H7.89205C8.75 119.631 9.44602 119.483 9.98011 119.188C10.5142 118.886 10.9062 118.477 11.1562 117.96C11.4062 117.443 11.5312 116.855 11.5312 116.196C11.5312 115.537 11.4062 114.952 11.1562 114.44C10.9062 113.929 10.5114 113.528 9.97159 113.239C9.4375 112.949 8.73295 112.804 7.85795 112.804H4.55114V128H1.91761ZM21.8226 128.264C20.5328 128.264 19.422 127.989 18.4902 127.438C17.5641 126.881 16.8482 126.099 16.3425 125.094C15.8425 124.082 15.5925 122.898 15.5925 121.54C15.5925 120.199 15.8425 119.017 16.3425 117.994C16.8482 116.972 17.5527 116.173 18.4561 115.599C19.3652 115.026 20.4277 114.739 21.6436 114.739C22.3823 114.739 23.0982 114.861 23.7914 115.105C24.4845 115.349 25.1067 115.733 25.6578 116.256C26.209 116.778 26.6436 117.457 26.9618 118.293C27.28 119.122 27.4391 120.131 27.4391 121.318V122.222H17.0328V120.312H24.9419C24.9419 119.642 24.8056 119.048 24.5328 118.531C24.2601 118.009 23.8766 117.597 23.3823 117.295C22.8936 116.994 22.3198 116.844 21.6607 116.844C20.9448 116.844 20.3198 117.02 19.7857 117.372C19.2573 117.719 18.8482 118.173 18.5584 118.736C18.2743 119.293 18.1323 119.898 18.1323 120.551V122.043C18.1323 122.918 18.2857 123.662 18.5925 124.276C18.905 124.889 19.3397 125.358 19.8965 125.682C20.4533 126 21.1039 126.159 21.8482 126.159C22.3311 126.159 22.7715 126.091 23.1692 125.955C23.5669 125.812 23.9107 125.602 24.2005 125.324C24.4902 125.045 24.7118 124.702 24.8652 124.293L27.2772 124.727C27.084 125.437 26.7374 126.06 26.2374 126.594C25.7431 127.122 25.1209 127.534 24.3709 127.83C23.6266 128.119 22.7772 128.264 21.8226 128.264ZM29.5465 128V114.909H32.0096V116.989H32.1459C32.3846 116.284 32.805 115.73 33.4073 115.327C34.0153 114.918 34.7028 114.713 35.4698 114.713C35.6289 114.713 35.8164 114.719 36.0323 114.73C36.2539 114.741 36.4272 114.756 36.5522 114.773V117.21C36.4499 117.182 36.2681 117.151 36.0067 117.116C35.7454 117.077 35.484 117.057 35.2226 117.057C34.6204 117.057 34.0834 117.185 33.6118 117.44C33.1459 117.69 32.7766 118.04 32.5039 118.489C32.2312 118.932 32.0948 119.437 32.0948 120.006V128H29.5465ZM47.8471 118.105L45.5374 118.514C45.4409 118.219 45.2874 117.937 45.0772 117.67C44.8727 117.403 44.5943 117.185 44.242 117.014C43.8897 116.844 43.4494 116.759 42.921 116.759C42.1994 116.759 41.5971 116.92 41.1141 117.244C40.6312 117.562 40.3897 117.974 40.3897 118.48C40.3897 118.918 40.5516 119.27 40.8755 119.537C41.1994 119.804 41.7221 120.023 42.4437 120.193L44.5232 120.67C45.7278 120.949 46.6255 121.378 47.2164 121.957C47.8073 122.537 48.1028 123.29 48.1028 124.216C48.1028 125 47.8755 125.699 47.421 126.312C46.9721 126.92 46.3443 127.398 45.5374 127.744C44.7363 128.091 43.8073 128.264 42.7505 128.264C41.2846 128.264 40.0886 127.952 39.1624 127.327C38.2363 126.696 37.6681 125.801 37.4579 124.642L39.921 124.267C40.0744 124.909 40.3897 125.395 40.867 125.724C41.3443 126.048 41.9664 126.21 42.7335 126.21C43.5687 126.21 44.2363 126.037 44.7363 125.69C45.2363 125.338 45.4863 124.909 45.4863 124.403C45.4863 123.994 45.3329 123.651 45.0261 123.372C44.7249 123.094 44.2619 122.884 43.6369 122.741L41.421 122.256C40.1994 121.977 39.296 121.534 38.7107 120.926C38.1312 120.318 37.8414 119.548 37.8414 118.616C37.8414 117.844 38.0573 117.168 38.4891 116.588C38.921 116.009 39.5176 115.557 40.2789 115.233C41.0403 114.903 41.9124 114.739 42.8954 114.739C44.3102 114.739 45.4238 115.045 46.2363 115.659C47.0488 116.267 47.5857 117.082 47.8471 118.105ZM55.6988 128.264C54.4716 128.264 53.4005 127.983 52.4858 127.42C51.571 126.858 50.8608 126.071 50.3551 125.06C49.8494 124.048 49.5966 122.866 49.5966 121.514C49.5966 120.156 49.8494 118.969 50.3551 117.952C50.8608 116.935 51.571 116.145 52.4858 115.582C53.4005 115.02 54.4716 114.739 55.6988 114.739C56.9261 114.739 57.9971 115.02 58.9119 115.582C59.8267 116.145 60.5369 116.935 61.0426 117.952C61.5483 118.969 61.8011 120.156 61.8011 121.514C61.8011 122.866 61.5483 124.048 61.0426 125.06C60.5369 126.071 59.8267 126.858 58.9119 127.42C57.9971 127.983 56.9261 128.264 55.6988 128.264ZM55.7074 126.125C56.5028 126.125 57.1619 125.915 57.6846 125.494C58.2074 125.074 58.5937 124.514 58.8437 123.815C59.0994 123.116 59.2272 122.347 59.2272 121.506C59.2272 120.67 59.0994 119.903 58.8437 119.205C58.5937 118.5 58.2074 117.935 57.6846 117.509C57.1619 117.082 56.5028 116.869 55.7074 116.869C54.9062 116.869 54.2414 117.082 53.713 117.509C53.1903 117.935 52.8011 118.5 52.5454 119.205C52.2954 119.903 52.1704 120.67 52.1704 121.506C52.1704 122.347 52.2954 123.116 52.5454 123.815C52.8011 124.514 53.1903 125.074 53.713 125.494C54.2414 125.915 54.9062 126.125 55.7074 126.125ZM66.4739 120.227V128H63.9256V114.909H66.3716V117.04H66.5335C66.8347 116.347 67.3063 115.79 67.9483 115.369C68.596 114.949 69.4114 114.739 70.3943 114.739C71.2864 114.739 72.0676 114.926 72.7381 115.301C73.4085 115.67 73.9284 116.222 74.2977 116.955C74.667 117.687 74.8517 118.594 74.8517 119.673V128H72.3034V119.98C72.3034 119.031 72.0563 118.29 71.5619 117.756C71.0676 117.216 70.3886 116.946 69.525 116.946C68.9341 116.946 68.4085 117.074 67.9483 117.33C67.4938 117.585 67.133 117.96 66.8659 118.455C66.6045 118.943 66.4739 119.534 66.4739 120.227ZM81.359 128.29C80.5294 128.29 79.7794 128.136 79.109 127.83C78.4385 127.517 77.9073 127.065 77.5152 126.474C77.1289 125.884 76.9357 125.159 76.9357 124.301C76.9357 123.562 77.0777 122.955 77.3618 122.477C77.6459 122 78.0294 121.622 78.5124 121.344C78.9953 121.065 79.5351 120.855 80.1317 120.713C80.7283 120.571 81.3363 120.463 81.9556 120.389C82.7397 120.298 83.376 120.224 83.8647 120.168C84.3533 120.105 84.7084 120.006 84.93 119.869C85.1516 119.733 85.2624 119.511 85.2624 119.205V119.145C85.2624 118.401 85.0522 117.824 84.6317 117.415C84.2169 117.006 83.5976 116.801 82.7738 116.801C81.9158 116.801 81.2397 116.991 80.7453 117.372C80.2567 117.747 79.9186 118.165 79.7311 118.625L77.3363 118.08C77.6203 117.284 78.0351 116.642 78.5806 116.153C79.1317 115.659 79.7652 115.301 80.4811 115.08C81.197 114.852 81.9499 114.739 82.7397 114.739C83.2624 114.739 83.8164 114.801 84.4016 114.926C84.9925 115.045 85.5436 115.267 86.055 115.591C86.572 115.915 86.9953 116.378 87.3249 116.98C87.6544 117.577 87.8192 118.352 87.8192 119.307V128H85.3306V126.21H85.2283C85.0635 126.54 84.8164 126.864 84.4868 127.182C84.1573 127.5 83.734 127.764 83.2169 127.974C82.6999 128.185 82.0806 128.29 81.359 128.29ZM81.913 126.244C82.6175 126.244 83.2198 126.105 83.7198 125.827C84.2255 125.548 84.609 125.185 84.8703 124.736C85.1374 124.281 85.2709 123.795 85.2709 123.278V121.591C85.18 121.682 85.0039 121.767 84.7425 121.847C84.4868 121.92 84.1942 121.986 83.8647 122.043C83.5351 122.094 83.2141 122.142 82.9016 122.188C82.5891 122.227 82.3277 122.261 82.1175 122.29C81.6232 122.352 81.1715 122.457 80.7624 122.605C80.359 122.753 80.0351 122.966 79.7908 123.244C79.5522 123.517 79.4328 123.881 79.4328 124.335C79.4328 124.966 79.6658 125.443 80.1317 125.767C80.5976 126.085 81.1914 126.244 81.913 126.244ZM100.303 118.105L97.9934 118.514C97.8968 118.219 97.7434 117.937 97.5332 117.67C97.3286 117.403 97.0502 117.185 96.6979 117.014C96.3457 116.844 95.9053 116.759 95.3769 116.759C94.6553 116.759 94.053 116.92 93.5701 117.244C93.0871 117.562 92.8457 117.974 92.8457 118.48C92.8457 118.918 93.0076 119.27 93.3314 119.537C93.6553 119.804 94.178 120.023 94.8996 120.193L96.9792 120.67C98.1837 120.949 99.0814 121.378 99.6724 121.957C100.263 122.537 100.559 123.29 100.559 124.216C100.559 125 100.331 125.699 99.8769 126.312C99.428 126.92 98.8002 127.398 97.9934 127.744C97.1922 128.091 96.2633 128.264 95.2064 128.264C93.7405 128.264 92.5445 127.952 91.6184 127.327C90.6922 126.696 90.1241 125.801 89.9138 124.642L92.3769 124.267C92.5303 124.909 92.8457 125.395 93.3229 125.724C93.8002 126.048 94.4224 126.21 95.1894 126.21C96.0246 126.21 96.6922 126.037 97.1922 125.69C97.6922 125.338 97.9422 124.909 97.9422 124.403C97.9422 123.994 97.7888 123.651 97.482 123.372C97.1809 123.094 96.7178 122.884 96.0928 122.741L93.8769 122.256C92.6553 121.977 91.7519 121.534 91.1667 120.926C90.5871 120.318 90.2974 119.548 90.2974 118.616C90.2974 117.844 90.5133 117.168 90.9451 116.588C91.3769 116.009 91.9735 115.557 92.7349 115.233C93.4962 114.903 94.3684 114.739 95.3513 114.739C96.7661 114.739 97.8797 115.045 98.6922 115.659C99.5047 116.267 100.042 117.082 100.303 118.105Z" fill="black"/>
<path fill-rule="evenodd" clip-rule="evenodd" d="M58 16V56H34V16H58ZM26 32V56H2V32L26 32ZM90 56V24L66 24V56H90Z" fill="#B98E01"/>
<path fill-rule="evenodd" clip-rule="evenodd" d="M42 0H50V8H42V0ZM18 16H10V24H18V16ZM26 64V72H2V64H26ZM26 80V88H2V80H26ZM58 72V64H34V72H58ZM58 80V88H34V80H58ZM90 72V64H66V72H90ZM90 80V88H66V80H90ZM82 8H74V16H82V8Z" fill="#E6C867"/>
<path d="M168.142 110.545H170.784V122.026C170.784 123.247 170.497 124.33 169.923 125.273C169.349 126.21 168.543 126.949 167.503 127.489C166.463 128.023 165.244 128.29 163.847 128.29C162.455 128.29 161.239 128.023 160.199 127.489C159.159 126.949 158.352 126.21 157.778 125.273C157.205 124.33 156.918 123.247 156.918 122.026V110.545H159.551V121.812C159.551 122.602 159.724 123.304 160.071 123.918C160.423 124.531 160.92 125.014 161.562 125.366C162.205 125.713 162.966 125.886 163.847 125.886C164.733 125.886 165.497 125.713 166.139 125.366C166.787 125.014 167.281 124.531 167.622 123.918C167.969 123.304 168.142 122.602 168.142 121.812V110.545ZM183.498 118.105L181.188 118.514C181.092 118.219 180.938 117.937 180.728 117.67C180.524 117.403 180.245 117.185 179.893 117.014C179.541 116.844 179.1 116.759 178.572 116.759C177.85 116.759 177.248 116.92 176.765 117.244C176.282 117.562 176.041 117.974 176.041 118.48C176.041 118.918 176.203 119.27 176.526 119.537C176.85 119.804 177.373 120.023 178.095 120.193L180.174 120.67C181.379 120.949 182.276 121.378 182.867 121.957C183.458 122.537 183.754 123.29 183.754 124.216C183.754 125 183.526 125.699 183.072 126.312C182.623 126.92 181.995 127.398 181.188 127.744C180.387 128.091 179.458 128.264 178.401 128.264C176.936 128.264 175.74 127.952 174.813 127.327C173.887 126.696 173.319 125.801 173.109 124.642L175.572 124.267C175.725 124.909 176.041 125.395 176.518 125.724C176.995 126.048 177.617 126.21 178.384 126.21C179.22 126.21 179.887 126.037 180.387 125.69C180.887 125.338 181.137 124.909 181.137 124.403C181.137 123.994 180.984 123.651 180.677 123.372C180.376 123.094 179.913 122.884 179.288 122.741L177.072 122.256C175.85 121.977 174.947 121.534 174.362 120.926C173.782 120.318 173.492 119.548 173.492 118.616C173.492 117.844 173.708 117.168 174.14 116.588C174.572 116.009 175.168 115.557 175.93 115.233C176.691 114.903 177.563 114.739 178.546 114.739C179.961 114.739 181.075 115.045 181.887 115.659C182.7 116.267 183.237 117.082 183.498 118.105ZM191.478 128.264C190.188 128.264 189.077 127.989 188.145 127.438C187.219 126.881 186.503 126.099 185.997 125.094C185.497 124.082 185.247 122.898 185.247 121.54C185.247 120.199 185.497 119.017 185.997 117.994C186.503 116.972 187.208 116.173 188.111 115.599C189.02 115.026 190.083 114.739 191.299 114.739C192.037 114.739 192.753 114.861 193.446 115.105C194.14 115.349 194.762 115.733 195.313 116.256C195.864 116.778 196.299 117.457 196.617 118.293C196.935 119.122 197.094 120.131 197.094 121.318V122.222H186.688V120.312H194.597C194.597 119.642 194.461 119.048 194.188 118.531C193.915 118.009 193.532 117.597 193.037 117.295C192.549 116.994 191.975 116.844 191.316 116.844C190.6 116.844 189.975 117.02 189.441 117.372C188.912 117.719 188.503 118.173 188.213 118.736C187.929 119.293 187.787 119.898 187.787 120.551V122.043C187.787 122.918 187.941 123.662 188.247 124.276C188.56 124.889 188.995 125.358 189.551 125.682C190.108 126 190.759 126.159 191.503 126.159C191.986 126.159 192.426 126.091 192.824 125.955C193.222 125.812 193.566 125.602 193.855 125.324C194.145 125.045 194.367 124.702 194.52 124.293L196.932 124.727C196.739 125.437 196.392 126.06 195.892 126.594C195.398 127.122 194.776 127.534 194.026 127.83C193.282 128.119 192.432 128.264 191.478 128.264ZM199.202 128V114.909H201.665V116.989H201.801C202.04 116.284 202.46 115.73 203.062 115.327C203.67 114.918 204.358 114.713 205.125 114.713C205.284 114.713 205.471 114.719 205.687 114.73C205.909 114.741 206.082 114.756 206.207 114.773V117.21C206.105 117.182 205.923 117.151 205.662 117.116C205.4 117.077 205.139 117.057 204.878 117.057C204.275 117.057 203.738 117.185 203.267 117.44C202.801 117.69 202.432 118.04 202.159 118.489C201.886 118.932 201.75 119.437 201.75 120.006V128H199.202ZM213.529 128V110.545H224.352V112.812H216.162V118.131H223.577V120.389H216.162V128H213.529ZM229.215 110.545V128H226.667V110.545H229.215ZM237.437 128.264C236.21 128.264 235.139 127.983 234.224 127.42C233.309 126.858 232.599 126.071 232.094 125.06C231.588 124.048 231.335 122.866 231.335 121.514C231.335 120.156 231.588 118.969 232.094 117.952C232.599 116.935 233.309 116.145 234.224 115.582C235.139 115.02 236.21 114.739 237.437 114.739C238.665 114.739 239.736 115.02 240.65 115.582C241.565 116.145 242.275 116.935 242.781 117.952C243.287 118.969 243.54 120.156 243.54 121.514C243.54 122.866 243.287 124.048 242.781 125.06C242.275 126.071 241.565 126.858 240.65 127.42C239.736 127.983 238.665 128.264 237.437 128.264ZM237.446 126.125C238.241 126.125 238.9 125.915 239.423 125.494C239.946 125.074 240.332 124.514 240.582 123.815C240.838 123.116 240.966 122.347 240.966 121.506C240.966 120.67 240.838 119.903 240.582 119.205C240.332 118.5 239.946 117.935 239.423 117.509C238.9 117.082 238.241 116.869 237.446 116.869C236.645 116.869 235.98 117.082 235.451 117.509C234.929 117.935 234.54 118.5 234.284 119.205C234.034 119.903 233.909 120.67 233.909 121.506C233.909 122.347 234.034 123.116 234.284 123.815C234.54 124.514 234.929 125.074 235.451 125.494C235.98 125.915 236.645 126.125 237.446 126.125ZM248.104 128L244.251 114.909H246.885L249.45 124.523H249.578L252.152 114.909H254.785L257.342 124.48H257.47L260.018 114.909H262.652L258.808 128H256.209L253.55 118.548H253.354L250.695 128H248.104ZM274.16 118.105L271.85 118.514C271.754 118.219 271.6 117.937 271.39 117.67C271.185 117.403 270.907 117.185 270.555 117.014C270.203 116.844 269.762 116.759 269.234 116.759C268.512 116.759 267.91 116.92 267.427 117.244C266.944 117.562 266.703 117.974 266.703 118.48C266.703 118.918 266.864 119.27 267.188 119.537C267.512 119.804 268.035 120.023 268.757 120.193L270.836 120.67C272.041 120.949 272.938 121.378 273.529 121.957C274.12 122.537 274.416 123.29 274.416 124.216C274.416 125 274.188 125.699 273.734 126.312C273.285 126.92 272.657 127.398 271.85 127.744C271.049 128.091 270.12 128.264 269.063 128.264C267.597 128.264 266.401 127.952 265.475 127.327C264.549 126.696 263.981 125.801 263.771 124.642L266.234 124.267C266.387 124.909 266.703 125.395 267.18 125.724C267.657 126.048 268.279 126.21 269.046 126.21C269.882 126.21 270.549 126.037 271.049 125.69C271.549 125.338 271.799 124.909 271.799 124.403C271.799 123.994 271.646 123.651 271.339 123.372C271.038 123.094 270.575 122.884 269.95 122.741L267.734 122.256C266.512 121.977 265.609 121.534 265.024 120.926C264.444 120.318 264.154 119.548 264.154 118.616C264.154 117.844 264.37 117.168 264.802 116.588C265.234 116.009 265.83 115.557 266.592 115.233C267.353 114.903 268.225 114.739 269.208 114.739C270.623 114.739 271.737 115.045 272.549 115.659C273.362 116.267 273.899 117.082 274.16 118.105Z" fill="black"/>
<path fill-rule="evenodd" clip-rule="evenodd" d="M248 24V16L208 16V24L208 32L176 32V40L208 40H216L248 40V32L216 32L216 24L248 24ZM248 80V88L176 88V80L248 80ZM264 56V48H232H224L192 48V56H224L224 64L192 64V72H224L232 72V64L232 56H264Z" fill="#D034F5"/>
</g>
<defs>
<clipPath id="clip0_278_16421">
<rect width="449" height="136" fill="white"/>
</clipPath>
</defs>
</svg>
