<svg width="86" height="86" viewBox="0 0 86 86" fill="none" xmlns="http://www.w3.org/2000/svg">
<rect width="86" height="86" fill="#0074C8"/>
<path d="M16.4447 45.6342C16.4447 46.2356 16.2931 46.8067 15.9899 47.3474C15.6867 47.8831 15.2142 48.3178 14.5723 48.6513C13.9356 48.9848 13.1118 49.1516 12.1011 49.1516C11.5957 49.1516 11.151 49.1289 10.7669 49.0834C10.3879 49.0379 10.0341 48.9646 9.70562 48.8636C9.37713 48.7574 9.03601 48.621 8.68225 48.4542V45.7858C9.28364 46.0891 9.89008 46.3215 10.5016 46.4833C11.1131 46.6399 11.6665 46.7183 12.1617 46.7183C12.4599 46.7183 12.7025 46.6829 12.8895 46.6121C13.0815 46.5414 13.223 46.4454 13.314 46.3241C13.4049 46.1977 13.4504 46.0537 13.4504 45.892C13.4504 45.6999 13.3822 45.5382 13.2457 45.4068C13.1143 45.2704 12.9021 45.1289 12.609 44.9823C12.3159 44.8358 11.9293 44.6538 11.4492 44.4365C11.0398 44.2445 10.6684 44.0474 10.3348 43.8452C10.0063 43.6431 9.72331 43.4131 9.48579 43.1554C9.25332 42.8926 9.07391 42.5869 8.94757 42.2381C8.82123 41.8894 8.75806 41.4776 8.75806 41.0025C8.75806 40.2899 8.93241 39.6936 9.28111 39.2135C9.63487 38.7284 10.1251 38.3645 10.7517 38.1219C11.3835 37.8793 12.1112 37.758 12.9349 37.758C13.6576 37.758 14.307 37.8389 14.8831 38.0006C15.4643 38.1623 15.9848 38.3468 16.4447 38.554L15.5275 40.8661C15.0524 40.6488 14.585 40.4769 14.1251 40.3506C13.6652 40.2192 13.2382 40.1535 12.844 40.1535C12.5862 40.1535 12.374 40.1863 12.2072 40.252C12.0455 40.3127 11.9242 40.3961 11.8433 40.5022C11.7675 40.6083 11.7296 40.7296 11.7296 40.8661C11.7296 41.0379 11.7953 41.192 11.9267 41.3285C12.0632 41.4649 12.2881 41.614 12.6014 41.7757C12.9198 41.9324 13.3519 42.1371 13.8977 42.3898C14.4384 42.6323 14.8983 42.8951 15.2773 43.1781C15.6564 43.4561 15.9444 43.7922 16.1415 44.1863C16.3437 44.5755 16.4447 45.0581 16.4447 45.6342ZM24.7379 49H18.1579V37.9172H24.7379V40.3203H21.1523V42.0638H24.4725V44.4668H21.1523V46.5591H24.7379V49ZM31.6134 40.2141C31.2597 40.2141 30.9438 40.2899 30.6658 40.4416C30.3879 40.5881 30.1504 40.8029 29.9533 41.0859C29.7562 41.3689 29.6046 41.7151 29.4984 42.1244C29.3974 42.5287 29.3468 42.9886 29.3468 43.5041C29.3468 44.2015 29.4353 44.7877 29.6122 45.2628C29.789 45.7378 30.0569 46.0966 30.4157 46.3392C30.7796 46.5818 31.2344 46.7031 31.7802 46.7031C32.2755 46.7031 32.7505 46.6349 33.2053 46.4984C33.6652 46.362 34.1276 46.1977 34.5926 46.0057V48.5376C34.1024 48.7549 33.5995 48.9116 33.084 49.0076C32.5736 49.1036 32.0303 49.1516 31.4542 49.1516C30.2514 49.1516 29.266 48.9141 28.4978 48.439C27.7347 47.9589 27.1712 47.2944 26.8073 46.4454C26.4485 45.5963 26.2691 44.6109 26.2691 43.4889C26.2691 42.65 26.3854 41.8819 26.6178 41.1845C26.8554 40.487 27.2015 39.8831 27.6564 39.3727C28.1112 38.8572 28.6722 38.4605 29.3393 38.1826C30.0114 37.8995 30.7796 37.758 31.6437 37.758C32.1794 37.758 32.7429 37.8212 33.3342 37.9476C33.9305 38.0688 34.5117 38.2659 35.0777 38.5388L34.1605 40.8964C33.7562 40.7044 33.3468 40.5426 32.9324 40.4112C32.518 40.2798 32.0784 40.2141 31.6134 40.2141ZM46.1832 37.9172V44.5881C46.1832 45.518 46.0064 46.3266 45.6526 47.0139C45.2988 47.6961 44.7682 48.2243 44.0607 48.5982C43.3532 48.9672 42.4662 49.1516 41.3999 49.1516C39.8737 49.1516 38.7088 48.7599 37.9053 47.9766C37.1017 47.1933 36.7 46.0865 36.7 44.6563V37.9172H39.7094V44.4213C39.7094 45.2047 39.856 45.7732 40.1491 46.127C40.4422 46.4807 40.8743 46.6576 41.4454 46.6576C41.8547 46.6576 42.1883 46.5818 42.446 46.4302C42.7038 46.2735 42.8908 46.0284 43.007 45.6949C43.1283 45.3613 43.1889 44.9318 43.1889 44.4062V37.9172H46.1832ZM52.1415 37.9172C53.1472 37.9172 53.9836 38.041 54.6507 38.2887C55.3178 38.5313 55.8181 38.8951 56.1517 39.3803C56.4903 39.8654 56.6596 40.4694 56.6596 41.192C56.6596 41.6418 56.5838 42.0512 56.4321 42.4201C56.2805 42.789 56.0632 43.12 55.7802 43.4131C55.5023 43.7012 55.1687 43.9539 54.7796 44.1712L58.0089 49H54.6128L52.2628 44.9671H51.5048V49H48.5105V37.9172H52.1415ZM52.0961 40.1838H51.5048V42.7157H52.0657C52.5256 42.7157 52.9021 42.6146 53.1952 42.4125C53.4884 42.2104 53.6349 41.849 53.6349 41.3285C53.6349 40.9697 53.5136 40.6892 53.271 40.487C53.0285 40.2849 52.6368 40.1838 52.0961 40.1838ZM68.4397 37.9172V44.5881C68.4397 45.518 68.2629 46.3266 67.9091 47.0139C67.5553 47.6961 67.0247 48.2243 66.3172 48.5982C65.6097 48.9672 64.7227 49.1516 63.6564 49.1516C62.1302 49.1516 60.9653 48.7599 60.1618 47.9766C59.3582 47.1933 58.9565 46.0865 58.9565 44.6563V37.9172H61.9659V44.4213C61.9659 45.2047 62.1125 45.7732 62.4056 46.127C62.6987 46.4807 63.1308 46.6576 63.7019 46.6576C64.1112 46.6576 64.4448 46.5818 64.7025 46.4302C64.9603 46.2735 65.1472 46.0284 65.2635 45.6949C65.3848 45.3613 65.4454 44.9318 65.4454 44.4062V37.9172H68.4397ZM78.014 45.6342C78.014 46.2356 77.8624 46.8067 77.5591 47.3474C77.2559 47.8831 76.7834 48.3178 76.1416 48.6513C75.5048 48.9848 74.6811 49.1516 73.6703 49.1516C73.1649 49.1516 72.7202 49.1289 72.3361 49.0834C71.9571 49.0379 71.6034 48.9646 71.2749 48.8636C70.9464 48.7574 70.6052 48.621 70.2515 48.4542V45.7858C70.8529 46.0891 71.4593 46.3215 72.0708 46.4833C72.6823 46.6399 73.2357 46.7183 73.731 46.7183C74.0291 46.7183 74.2717 46.6829 74.4587 46.6121C74.6507 46.5414 74.7922 46.4454 74.8832 46.3241C74.9742 46.1977 75.0197 46.0537 75.0197 45.892C75.0197 45.6999 74.9514 45.5382 74.815 45.4068C74.6836 45.2704 74.4713 45.1289 74.1782 44.9823C73.8851 44.8358 73.4985 44.6538 73.0184 44.4365C72.609 44.2445 72.2376 44.0474 71.904 43.8452C71.5756 43.6431 71.2925 43.4131 71.055 43.1554C70.8226 42.8926 70.6431 42.5869 70.5168 42.2381C70.3905 41.8894 70.3273 41.4776 70.3273 41.0025C70.3273 40.2899 70.5016 39.6936 70.8503 39.2135C71.2041 38.7284 71.6943 38.3645 72.321 38.1219C72.9527 37.8793 73.6804 37.758 74.5042 37.758C75.2269 37.758 75.8763 37.8389 76.4524 38.0006C77.0336 38.1623 77.5541 38.3468 78.014 38.554L77.0967 40.8661C76.6217 40.6488 76.1542 40.4769 75.6943 40.3506C75.2344 40.2192 74.8074 40.1535 74.4132 40.1535C74.1555 40.1535 73.9432 40.1863 73.7764 40.252C73.6147 40.3127 73.4934 40.3961 73.4126 40.5022C73.3368 40.6083 73.2989 40.7296 73.2989 40.8661C73.2989 41.0379 73.3646 41.192 73.496 41.3285C73.6324 41.4649 73.8573 41.614 74.1706 41.7757C74.489 41.9324 74.9211 42.1371 75.4669 42.3898C76.0077 42.6323 76.4675 42.8951 76.8466 43.1781C77.2256 43.4561 77.5137 43.7922 77.7107 44.1863C77.9129 44.5755 78.014 45.0581 78.014 45.6342Z" fill="white"/>
</svg>
