<?xml version="1.0" encoding="UTF-8" standalone="no"?>
<!DOCTYPE svg PUBLIC "-//W3C//DTD SVG 1.1//EN" "http://www.w3.org/Graphics/SVG/1.1/DTD/svg11.dtd">
<svg width="100%" height="100%" viewBox="0 0 554 704" version="1.1" xmlns="http://www.w3.org/2000/svg" xmlns:xlink="http://www.w3.org/1999/xlink" xml:space="preserve" xmlns:serif="http://www.serif.com/" style="fill-rule:evenodd;clip-rule:evenodd;stroke-linejoin:round;stroke-miterlimit:2;">
    <g id="Artboard1" transform="matrix(0.90404,0,0,0.888889,0,0)">
        <rect x="0" y="0" width="612" height="792" style="fill:white;"/>
        <clipPath id="_clip1">
            <rect x="0" y="0" width="612" height="792"/>
        </clipPath>
        <g clip-path="url(#_clip1)">
            <g transform="matrix(1.10615,0,0,1.125,-32.4804,-42.75)">
                <clipPath id="_clip2">
                    <rect x="48" y="48" width="516" height="695.96" clip-rule="nonzero"/>
                </clipPath>
                <g clip-path="url(#_clip2)">
                    <g transform="matrix(1,0,0,1,0,169.65)">
                        <rect x="47.96" y="-121.65" width="527.29" height="865.65" style="fill:white;"/>
                    </g>
                    <g transform="matrix(1,0,0,1,0,342.15)">
                        <rect x="406.61" y="224.55" width="79.24" height="0.75" style="fill:rgb(221,221,221);"/>
                    </g>
                    <g transform="matrix(-1,0,0,1,970.95,379.73)">
                        <rect x="485.1" y="186.97" width="0.75" height="38.33" style="fill:rgb(221,221,221);"/>
                    </g>
                    <g transform="matrix(-1,0,0,1,892.46,417.31)">
                        <rect x="406.61" y="186.97" width="79.24" height="0.75" style="fill:rgb(221,221,221);"/>
                    </g>
                    <g transform="matrix(1,0,0,1,0,379.73)">
                        <rect x="406.61" y="186.97" width="0.75" height="38.33" style="fill:rgb(221,221,221);"/>
                    </g>
                    <g transform="matrix(1,0,0,1,0,342.15)">
                        <rect x="485.1" y="224.55" width="79.28" height="0.75" style="fill:rgb(221,221,221);"/>
                    </g>
                    <g transform="matrix(-1,0,0,1,1128.01,379.73)">
                        <rect x="563.63" y="186.97" width="0.75" height="38.33" style="fill:rgb(221,221,221);"/>
                    </g>
                    <g transform="matrix(-1,0,0,1,1049.48,417.31)">
                        <rect x="485.1" y="186.97" width="79.28" height="0.75" style="fill:rgb(221,221,221);"/>
                    </g>
                    <g transform="matrix(1,0,0,1,0,379.73)">
                        <rect x="485.1" y="186.97" width="0.75" height="38.33" style="fill:rgb(221,221,221);"/>
                    </g>
                    <g transform="matrix(1,0,0,1,0,417.31)">
                        <rect x="406.61" y="186.97" width="79.24" height="0.75" style="fill:rgb(221,221,221);"/>
                    </g>
                    <g transform="matrix(-1,0,0,1,970.95,445.28)">
                        <rect x="485.1" y="159" width="0.75" height="28.72" style="fill:rgb(221,221,221);"/>
                    </g>
                    <g transform="matrix(-1,0,0,1,892.46,473.25)">
                        <rect x="406.61" y="159" width="79.24" height="0.75" style="fill:rgb(221,221,221);"/>
                    </g>
                    <g transform="matrix(1,0,0,1,0,445.28)">
                        <rect x="406.61" y="159" width="0.75" height="28.72" style="fill:rgb(221,221,221);"/>
                    </g>
                    <g transform="matrix(1,0,0,1,0,417.31)">
                        <rect x="485.1" y="186.97" width="79.28" height="0.75" style="fill:rgb(221,221,221);"/>
                    </g>
                    <g transform="matrix(-1,0,0,1,1128.01,445.28)">
                        <rect x="563.63" y="159" width="0.75" height="28.72" style="fill:rgb(221,221,221);"/>
                    </g>
                    <g transform="matrix(-1,0,0,1,1049.48,473.25)">
                        <rect x="485.1" y="159" width="79.28" height="0.75" style="fill:rgb(221,221,221);"/>
                    </g>
                    <g transform="matrix(1,0,0,1,0,445.28)">
                        <rect x="485.1" y="159" width="0.75" height="28.72" style="fill:rgb(221,221,221);"/>
                    </g>
                    <g transform="matrix(1,0,0,1,0,473.25)">
                        <rect x="406.61" y="159" width="79.24" height="0.75" style="fill:rgb(221,221,221);"/>
                    </g>
                    <g transform="matrix(-1,0,0,1,970.95,520.42)">
                        <rect x="485.1" y="111.83" width="0.75" height="47.92" style="fill:rgb(221,221,221);"/>
                    </g>
                    <g transform="matrix(-1,0,0,1,892.46,567.59)">
                        <rect x="406.61" y="111.83" width="79.24" height="0.75" style="fill:rgb(221,221,221);"/>
                    </g>
                    <g transform="matrix(1,0,0,1,0,520.42)">
                        <rect x="406.61" y="111.83" width="0.75" height="47.92" style="fill:rgb(221,221,221);"/>
                    </g>
                    <g transform="matrix(1,0,0,1,0,473.25)">
                        <rect x="485.1" y="159" width="79.28" height="0.75" style="fill:rgb(221,221,221);"/>
                    </g>
                    <g transform="matrix(-1,0,0,1,1128.01,520.42)">
                        <rect x="563.63" y="111.83" width="0.75" height="47.92" style="fill:rgb(221,221,221);"/>
                    </g>
                    <g transform="matrix(-1,0,0,1,1049.48,567.59)">
                        <rect x="485.1" y="111.83" width="79.28" height="0.75" style="fill:rgb(221,221,221);"/>
                    </g>
                    <g transform="matrix(1,0,0,1,0,520.42)">
                        <rect x="485.1" y="111.83" width="0.75" height="47.92" style="fill:rgb(221,221,221);"/>
                    </g>
                    <g transform="matrix(0,-1,-1,0,660.565,272.065)">
                        <ellipse cx="70.315" cy="590.25" rx="1.54" ry="1.535"/>
                    </g>
                    <g transform="matrix(0,-1,-1,0,631.765,300.865)">
                        <ellipse cx="70.315" cy="561.45" rx="1.54" ry="1.535"/>
                    </g>
                    <g transform="matrix(0,-1,-1,0,602.965,329.665)">
                        <ellipse cx="70.315" cy="532.65" rx="1.54" ry="1.535"/>
                    </g>
                    <g transform="matrix(0,-1,-1,0,503.255,429.375)">
                        <ellipse cx="70.315" cy="432.94" rx="1.54" ry="1.535"/>
                    </g>
                    <g transform="matrix(0,-1,-1,0,493.655,438.975)">
                        <ellipse cx="70.315" cy="423.34" rx="1.54" ry="1.535"/>
                    </g>
                    <g transform="matrix(0,-1,-1,0,484.05,448.58)">
                        <circle cx="70.315" cy="413.735" r="1.535"/>
                    </g>
                    <g transform="matrix(0,-1,-1,0,464.85,467.78)">
                        <circle cx="70.315" cy="394.535" r="1.535"/>
                    </g>
                    <g transform="matrix(0,-1,-1,0,445.655,486.975)">
                        <ellipse cx="70.315" cy="375.34" rx="1.54" ry="1.535"/>
                    </g>
                    <g transform="matrix(0,-1,-1,0,376.915,555.715)">
                        <ellipse cx="70.315" cy="306.6" rx="1.54" ry="1.535"/>
                    </g>
                    <g transform="matrix(0,-1,-1,0,367.315,565.315)">
                        <ellipse cx="70.315" cy="297" rx="1.54" ry="1.535"/>
                    </g>
                    <g transform="matrix(0,-1,-1,0,298.575,634.055)">
                        <ellipse cx="70.315" cy="228.26" rx="1.54" ry="1.535"/>
                    </g>
                    <g transform="matrix(0,-1,-1,0,279.375,653.255)">
                        <ellipse cx="70.315" cy="209.06" rx="1.54" ry="1.535"/>
                    </g>
                    <g transform="matrix(0,-1,-1,0,202.575,730.055)">
                        <ellipse cx="70.315" cy="132.26" rx="1.54" ry="1.535"/>
                    </g>
                    <g transform="matrix(0,-1,-1,0,943.725,347.855)">
                        <ellipse cx="249.79" cy="693.935" rx="1.535" ry="1.54"/>
                    </g>
                    <g transform="matrix(0,-1,-1,0,914.925,376.655)">
                        <ellipse cx="249.79" cy="665.135" rx="1.535" ry="1.54"/>
                    </g>
                    <g transform="matrix(0,-1,-1,0,876.53,415.05)">
                        <circle cx="249.79" cy="626.74" r="1.54"/>
                    </g>
                    <g transform="matrix(0,-1,-1,0,725.365,566.215)">
                        <ellipse cx="249.79" cy="475.575" rx="1.535" ry="1.54"/>
                    </g>
                    <g transform="matrix(0,-1,-1,0,706.165,585.415)">
                        <ellipse cx="249.79" cy="456.375" rx="1.535" ry="1.54"/>
                    </g>
                    <g transform="matrix(0,-1,-1,0,696.565,595.015)">
                        <ellipse cx="249.79" cy="446.775" rx="1.535" ry="1.54"/>
                    </g>
                    <g transform="matrix(0,-1,-1,0,658.165,633.415)">
                        <ellipse cx="249.79" cy="408.375" rx="1.535" ry="1.54"/>
                    </g>
                    <g transform="matrix(0,-1,-1,0,530.29,761.29)">
                        <circle cx="249.79" cy="280.5" r="1.54"/>
                    </g>
                    <g transform="matrix(0,-1,-1,0,511.09,780.49)">
                        <circle cx="249.79" cy="261.3" r="1.54"/>
                    </g>
                    <g transform="matrix(0,-1,-1,0,482.29,809.29)">
                        <circle cx="249.79" cy="232.5" r="1.54"/>
                    </g>
                    <g transform="matrix(0,-1,-1,0,413.55,878.03)">
                        <circle cx="249.79" cy="163.76" r="1.54"/>
                    </g>
                    <g transform="matrix(0,-1,-1,0,384.75,906.83)">
                        <circle cx="249.79" cy="134.96" r="1.54"/>
                    </g>
                    <g transform="matrix(0,-1,-1,0,365.55,926.03)">
                        <circle cx="249.79" cy="115.76" r="1.54"/>
                    </g>
                    <g transform="matrix(0,-1,-1,0,1123.23,527.365)">
                        <ellipse cx="429.3" cy="693.935" rx="1.535" ry="1.54"/>
                    </g>
                    <g transform="matrix(0,-1,-1,0,1104.04,546.56)">
                        <circle cx="429.3" cy="674.74" r="1.54"/>
                    </g>
                    <g transform="matrix(0,-1,-1,0,1035.3,615.3)">
                        <circle cx="429.3" cy="606" r="1.54"/>
                    </g>
                    <g transform="matrix(0,-1,-1,0,1025.7,624.9)">
                        <circle cx="429.3" cy="596.4" r="1.54"/>
                    </g>
                    <g transform="matrix(0,-1,-1,0,1006.5,644.1)">
                        <circle cx="429.3" cy="577.2" r="1.54"/>
                    </g>
                    <g transform="matrix(0,-1,-1,0,1017.3,693.3)">
                        <circle cx="459.3" cy="558" r="1.54"/>
                    </g>
                    <g transform="matrix(0,-1,-1,0,998.1,712.5)">
                        <circle cx="459.3" cy="538.8" r="1.54"/>
                    </g>
                    <g transform="matrix(0,-1,-1,0,978.9,731.7)">
                        <circle cx="459.3" cy="519.6" r="1.54"/>
                    </g>
                    <g transform="matrix(0,-1,-1,0,900.9,749.7)">
                        <circle cx="429.3" cy="471.6" r="1.54"/>
                    </g>
                    <g transform="matrix(0,-1,-1,0,824.66,825.94)">
                        <circle cx="429.3" cy="395.36" r="1.54"/>
                    </g>
                    <g transform="matrix(0,-1,-1,0,795.86,854.74)">
                        <circle cx="429.3" cy="366.56" r="1.54"/>
                    </g>
                    <g transform="matrix(0,-1,-1,0,767.06,883.54)">
                        <circle cx="429.3" cy="337.76" r="1.54"/>
                    </g>
                    <g transform="matrix(0,-1,-1,0,787.465,923.135)">
                        <ellipse cx="459.3" cy="328.165" rx="1.535" ry="1.54"/>
                    </g>
                    <g transform="matrix(0,-1,-1,0,768.26,942.34)">
                        <circle cx="459.3" cy="308.96" r="1.54"/>
                    </g>
                    <g transform="matrix(0,-1,-1,0,749.06,961.54)">
                        <circle cx="459.3" cy="289.76" r="1.54"/>
                    </g>
                    <g>
                        <text x="49.5px" y="62.33px" style="font-family:'Helvetica';font-size:13.69px;fill:rgb(51,51,51);">Client Center &gt; User Interviews &gt; J &amp; C (S)</text>
                        <text x="49.5px" y="82.54px" style="font-family:'Helvetica-Bold', 'Helvetica';font-weight:700;font-size:11.44px;fill:rgb(51,51,51);">What do you currently like</text>
                        <text x="49.5px" y="96.26px" style="font-family:'Helvetica-Bold', 'Helvetica';font-weight:700;font-size:11.44px;fill:rgb(51,51,51);">about Client Center?</text>
                        <text x="48px" y="115.54px" style="font-family:'Helvetica';font-size:7.99px;">J: &quot;One of the best features we have.&quot;</text>
                        <text x="48px" y="132.64px" style="font-family:'Helvetica';font-size:7.99px;">Instead of just emailing him.•<tspan x="149.25px " y="132.64px "> </tspan>E.g. request</text>
                        <text x="48px" y="142.24px" style="font-family:'Helvetica';font-size:7.99px;">for a cert, just used Client Center.</text>
                        <text x="49.5px" y="171.67px" style="font-family:'Helvetica-Bold', 'Helvetica';font-weight:700;font-size:9.11px;fill:rgb(51,51,51);">Sends customers URL <tspan x="149.231px " y="171.67px ">t</tspan>o Client</text>
                        <text x="49.5px" y="185.36px" style="font-family:'Helvetica-Bold', 'Helvetica';font-weight:700;font-size:9.11px;fill:rgb(51,51,51);">Center</text>
                        <text x="78px" y="205.46px" style="font-family:'Helvetica';font-size:7.99px;">It&apos;<tspan x="84.216px " y="205.46px ">s</tspan> not about selling the quote, we</text>
                        <text x="78px" y="215.06px" style="font-family:'Helvetica';font-size:7.99px;">won&apos;<tspan x="94.427px " y="215.06px ">t</tspan> email you the quote, we&apos;<tspan x="185.025px " y="215.06px ">l</tspan>l</text>
                        <text x="78px" y="224.66px" style="font-family:'Helvetica';font-size:7.99px;">email you a link to Client Center.</text>
                        <text x="78px" y="234.26px" style="font-family:'Helvetica';font-size:7.99px;">Yo<tspan x="87.771px " y="234.26px ">u</tspan> can download your documents</text>
                        <text x="78px" y="243.86px" style="font-family:'Helvetica';font-size:7.99px;">here, you can download your</text>
                        <g transform="matrix(7.99,0,0,7.99,93.0932,253.46)">
                        </g>
                        <g transform="matrix(7.99,0,0,7.99,95.313,253.46)">
                        </g>
                        <text x="78px" y="253.46px" style="font-family:'Helvetica';font-size:7.99px;">certiﬁcates here, etc.</text>
                        <text x="78px" y="263.06px" style="font-family:'Helvetica';font-size:7.99px;">People see things instead of a</text>
                        <text x="78px" y="272.66px" style="font-family:'Helvetica';font-size:7.99px;">simple PDF,<tspan x="121.503px " y="272.66px "> </tspan>see a portal tailored</text>
                        <text x="78px" y="282.26px" style="font-family:'Helvetica';font-size:7.99px;">for them.</text>
                        <text x="49.5px" y="319.31px" style="font-family:'Helvetica-Bold', 'Helvetica';font-weight:700;font-size:11.44px;fill:rgb(51,51,51);">What could be improved</text>
                        <text x="49.5px" y="342.68px" style="font-family:'Helvetica-Bold', 'Helvetica';font-weight:700;font-size:9.11px;fill:rgb(51,51,51);">Branding &amp; Personalization</text>
                        <text x="78px" y="362.77px" style="font-family:'Helvetica';font-size:7.99px;">Make it more branded.</text>
                        <text x="78px" y="372.37px" style="font-family:'Helvetica';font-size:7.99px;">Spice up the page</text>
                        <text x="78px" y="381.98px" style="font-family:'Helvetica';font-size:7.99px;">Thanks for being a customer since</text>
                        <text x="78px" y="391.58px" style="font-family:'Helvetica';font-size:7.99px;">2010,etc.</text>
                        <text x="78px" y="401.18px" style="font-family:'Helvetica';font-size:7.99px;">Push for referrals, push for</text>
                        <text x="78px" y="410.78px" style="font-family:'Helvetica';font-size:7.99px;">additional LOBs.</text>
                        <text x="78px" y="420.37px" style="font-family:'Helvetica';font-size:7.99px;">Show agent&apos;<tspan x="121.968px " y="420.37px ">s</tspan> face to make the</text>
                        <text x="78px" y="429.98px" style="font-family:'Helvetica';font-size:7.99px;">Client Center experience feel</text>
                        <text x="78px" y="439.58px" style="font-family:'Helvetica';font-size:7.99px;">personal.</text>
                        <text x="49.5px" y="469.01px" style="font-family:'Helvetica-Bold', 'Helvetica';font-weight:700;font-size:9.11px;fill:rgb(51,51,51);">Secure storage</text>
                        <text x="78px" y="489.11px" style="font-family:'Helvetica';font-size:7.99px;">Add more secure storage.</text>
                        <text x="78px" y="498.71px" style="font-family:'Helvetica';font-size:7.99px;">So users can upload documents</text>
                        <text x="78px" y="508.31px" style="font-family:'Helvetica';font-size:7.99px;">like appraisal for a piece of jewelry,</text>
                        <text x="78px" y="517.91px" style="font-family:'Helvetica';font-size:7.99px;">appraisal report, etc.</text>
                        <text x="49.5px" y="547.35px" style="font-family:'Helvetica-Bold', 'Helvetica';font-weight:700;font-size:9.11px;fill:rgb(51,51,51);">Simpler forms for users</text>
                        <text x="78px" y="567.45px" style="font-family:'Helvetica';font-size:7.99px;">Can we create a form inside client</text>
                        <text x="78px" y="577.05px" style="font-family:'Helvetica';font-size:7.99px;">center for (APE stuff<tspan x="149.942px " y="577.05px ">)</tspan></text>
                        <g transform="matrix(7.99,0,0,7.99,114.407,586.65)">
                        </g>
                        <g transform="matrix(7.99,0,0,7.99,116.627,586.65)">
                        </g>
                        <text x="78px" y="586.65px" style="font-family:'Helvetica';font-size:7.99px;">APE form ﬁelds -- bit of a blend.</text>
                        <text x="78px" y="596.25px" style="font-family:'Helvetica';font-size:7.99px;">Personally prefer being on the</text>
                        <text x="78px" y="605.85px" style="font-family:'Helvetica';font-size:7.99px;">phone with the customer,<tspan x="167.261px " y="605.85px "> </tspan>because</text>
                        <text x="78px" y="615.45px" style="font-family:'Helvetica';font-size:7.99px;">insurance is complicated. Example,</text>
                        <text x="78px" y="625.05px" style="font-family:'Helvetica';font-size:7.99px;">can convey and talk the value of</text>
                        <text x="78px" y="634.65px" style="font-family:'Helvetica';font-size:7.99px;">certain things that are missing. If</text>
                        <text x="78px" y="644.25px" style="font-family:'Helvetica';font-size:7.99px;">customer misses something, might</text>
                        <text x="78px" y="653.85px" style="font-family:'Helvetica';font-size:7.99px;">still have to do a phone call.</text>
                        <text x="78px" y="663.45px" style="font-family:'Helvetica';font-size:7.99px;">At 8pm, customer just wants that</text>
                        <text x="78px" y="673.05px" style="font-family:'Helvetica';font-size:7.99px;">off<tspan x="86.882px " y="673.05px "> </tspan>their plate, so they can let</text>
                        <text x="78px" y="682.65px" style="font-family:'Helvetica';font-size:7.99px;">someone else worry about it.</text>
                        <text x="78px" y="692.25px" style="font-family:'Helvetica';font-size:7.99px;">Something that the CSR can do.</text>
                        <text x="78px" y="701.85px" style="font-family:'Helvetica';font-size:7.99px;">And then customer will be calling if</text>
                        <text x="78px" y="711.45px" style="font-family:'Helvetica';font-size:7.99px;">have to email instead of just going</text>
                        <g transform="matrix(7.99,0,0,7.99,170.373,721.05)">
                        </g>
                        <text x="78px" y="721.05px" style="font-family:'Helvetica';font-size:7.99px;">to put it into Client Center.</text>
                    </g>
                    <g>
                        <text x="228.98px" y="81.67px" style="font-family:'Helvetica-Bold', 'Helvetica';font-weight:700;font-size:9.11px;fill:rgb(51,51,51);">Magic links (no password required)</text>
                        <text x="257.48px" y="101.78px" style="font-family:'Helvetica';font-size:7.99px;">Magic Link to login automatically</text>
                        <text x="257.48px" y="111.37px" style="font-family:'Helvetica';font-size:7.99px;">instead of 2FA<tspan x="309.001px 311.222px " y="111.37px 111.37px "> a</tspan>ll the time. If too</text>
                        <g transform="matrix(7.99,0,0,7.99,265.917,120.97)">
                        </g>
                        <g transform="matrix(7.99,0,0,7.99,268.136,120.97)">
                        </g>
                        <text x="257.48px" y="120.97px" style="font-family:'Helvetica';font-size:7.99px;">difﬁcult, will email instead.</text>
                        <text x="257.48px" y="130.58px" style="font-family:'Helvetica';font-size:7.99px;">When moving someone through</text>
                        <text x="257.48px" y="140.17px" style="font-family:'Helvetica';font-size:7.99px;">Client Center using drip campaign,</text>
                        <text x="257.48px" y="149.78px" style="font-family:'Helvetica';font-size:7.99px;">will use Client Center to share a</text>
                        <text x="257.48px" y="159.37px" style="font-family:'Helvetica';font-size:7.99px;">quote with a prospect.</text>
                        <text x="257.48px" y="168.97px" style="font-family:'Helvetica';font-size:7.99px;">Or do you want to do a new quote</text>
                        <text x="257.48px" y="178.58px" style="font-family:'Helvetica';font-size:7.99px;">via Client Center instead of calling.</text>
                        <text x="228.98px" y="208.01px" style="font-family:'Helvetica-Bold', 'Helvetica';font-weight:700;font-size:9.11px;fill:rgb(51,51,51);">Bug</text>
                        <text x="227.48px" y="228.11px" style="font-family:'Helvetica';font-size:7.99px;">When it runs in iframes (esp Safari), when</text>
                        <text x="227.48px" y="237.71px" style="font-family:'Helvetica';font-size:7.99px;">try to put email in, kicks back out. Can we</text>
                        <text x="227.48px" y="247.31px" style="font-family:'Helvetica';font-size:7.99px;">have a full screen view instead of running in</text>
                        <text x="227.48px" y="256.91px" style="font-family:'Helvetica';font-size:7.99px;">iframes.</text>
                        <text x="228.98px" y="286.35px" style="font-family:'Helvetica-Bold', 'Helvetica';font-weight:700;font-size:9.11px;fill:rgb(51,51,51);">Chat or other ways to</text>
                        <text x="228.98px" y="300.04px" style="font-family:'Helvetica-Bold', 'Helvetica';font-weight:700;font-size:9.11px;fill:rgb(51,51,51);">communicate</text>
                        <text x="257.48px" y="320.14px" style="font-family:'Helvetica';font-size:7.99px;">Having the ability to have chat</text>
                        <text x="257.48px" y="329.74px" style="font-family:'Helvetica';font-size:7.99px;">inside Client Center.</text>
                        <text x="257.48px" y="339.34px" style="font-family:'Helvetica';font-size:7.99px;">Secure messaging center.</text>
                        <text x="257.48px" y="348.94px" style="font-family:'Helvetica';font-size:7.99px;">Can we text via Client Center (e,g,</text>
                        <text x="257.48px" y="358.54px" style="font-family:'Helvetica';font-size:7.99px;">Smooch -- can text, message via</text>
                        <text x="257.48px" y="368.14px" style="font-family:'Helvetica';font-size:7.99px;">Facebook, ) but it all ties back via</text>
                        <text x="257.48px" y="377.74px" style="font-family:'Helvetica';font-size:7.99px;">EZLy<tspan x="276.128px " y="377.74px ">n</tspan>x.</text>
                        <text x="257.48px" y="387.34px" style="font-family:'Helvetica';font-size:7.99px;">Te<tspan x="266.803px " y="387.34px ">x</tspan>ting is killer.<tspan x="312.526px " y="387.34px "> </tspan>Wo<tspan x="326.731px " y="387.34px ">u</tspan>ld allow an</text>
                        <text x="257.48px" y="396.94px" style="font-family:'Helvetica';font-size:7.99px;">independent insurance agency to</text>
                        <text x="257.48px" y="406.54px" style="font-family:'Helvetica';font-size:7.99px;">compete with Hippo</text>
                        <text x="228.98px" y="435.98px" style="font-family:'Helvetica-Bold', 'Helvetica';font-weight:700;font-size:9.11px;fill:rgb(51,51,51);">Payments</text>
                        <text x="227.48px" y="456.08px" style="font-family:'Helvetica';font-size:7.99px;">Ta<tspan x="236.803px " y="456.08px ">k</tspan>ing payment information when binding a</text>
                        <text x="227.48px" y="465.68px" style="font-family:'Helvetica';font-size:7.99px;">policy.<tspan x="250.123px " y="465.68px "> </tspan>E.g. someone esigns a document.</text>
                        <text x="228.98px" y="495.11px" style="font-family:'Helvetica-Bold', 'Helvetica';font-weight:700;font-size:9.11px;fill:rgb(51,51,51);">Tr<tspan x="238.091px " y="495.11px ">a</tspan>ining for A<tspan x="288.706px " y="495.11px ">g</tspan>ent&apos;<tspan x="310.47px " y="495.11px ">s</tspan> Customers</text>
                        <text x="257.48px" y="515.21px" style="font-family:'Helvetica';font-size:7.99px;">Tr<tspan x="265.02px " y="515.21px ">a</tspan>ining for Client Center on how to</text>
                        <text x="257.48px" y="524.81px" style="font-family:'Helvetica';font-size:7.99px;">use it.</text>
                        <text x="257.48px" y="534.41px" style="font-family:'Helvetica';font-size:7.99px;">Example: <tspan x="292.862px 297.742px " y="534.41px 534.41px ">Th</tspan>ree main things you</text>
                        <text x="257.48px" y="544.01px" style="font-family:'Helvetica';font-size:7.99px;">want to do, Change my policy,</text>
                        <text x="257.48px" y="553.61px" style="font-family:'Helvetica';font-size:7.99px;">update contact info, …<tspan x="331.659px 331.659px " y="553.61px 553.61px "> ?</tspan></text>
                        <text x="257.48px" y="563.21px" style="font-family:'Helvetica';font-size:7.99px;">Directions on how to use them (for</text>
                        <text x="257.48px" y="572.81px" style="font-family:'Helvetica';font-size:7.99px;">agents!)•<tspan x="288.569px " y="572.81px "> </tspan>Client Center&apos;<tspan x="339.186px " y="572.81px ">s</tspan> customers</text>
                        <text x="257.48px" y="582.41px" style="font-family:'Helvetica';font-size:7.99px;">need help</text>
                        <text x="228.98px" y="611.85px" style="font-family:'Helvetica-Bold', 'Helvetica';font-weight:700;font-size:9.11px;fill:rgb(51,51,51);">Scheduling appointments</text>
                        <text x="257.48px" y="631.95px" style="font-family:'Helvetica';font-size:7.99px;">Scheduling renewals -- some</text>
                        <text x="257.48px" y="641.55px" style="font-family:'Helvetica';font-size:7.99px;">customers bought into Client</text>
                        <text x="257.48px" y="651.15px" style="font-family:'Helvetica';font-size:7.99px;">Center.</text>
                        <text x="257.48px" y="660.75px" style="font-family:'Helvetica';font-size:7.99px;">Scheduling appointments (a la</text>
                        <text x="257.48px" y="670.35px" style="font-family:'Helvetica';font-size:7.99px;">Calendly). Will free them up.</text>
                        <text x="257.48px" y="679.95px" style="font-family:'Helvetica';font-size:7.99px;">Wa<tspan x="269.464px " y="679.95px ">s</tspan>te a lot of time chasing down</text>
                        <g transform="matrix(7.99,0,0,7.99,291.668,689.55)">
                        </g>
                        <text x="257.48px" y="689.55px" style="font-family:'Helvetica';font-size:7.99px;">renewals.</text>
                    </g>
                    <g>
                        <text x="408.49px" y="81.67px" style="font-family:'Helvetica-Bold', 'Helvetica';font-weight:700;font-size:9.11px;fill:rgb(51,51,51);">3rd Party Integrations</text>
                        <text x="436.99px" y="101.78px" style="font-family:'Helvetica';font-size:7.99px;">What about Zapier integration with</text>
                        <text x="436.99px" y="111.37px" style="font-family:'Helvetica';font-size:7.99px;">…<tspan x="439.211px 439.211px " y="111.37px 111.37px "> ?</tspan> Calendly?</text>
                        <text x="436.99px" y="120.97px" style="font-family:'Helvetica';font-size:7.99px;">Ta<tspan x="446.313px " y="120.97px ">k</tspan>e a step outside EZLy<tspan x="527.583px " y="120.97px ">n</tspan>x box,</text>
                        <text x="436.99px" y="130.58px" style="font-family:'Helvetica';font-size:7.99px;">what else are we comfortable</text>
                        <text x="436.99px" y="140.17px" style="font-family:'Helvetica';font-size:7.99px;">integrating with.</text>
                        <text x="408.49px" y="169.61px" style="font-family:'Helvetica-Bold', 'Helvetica';font-weight:700;font-size:9.11px;fill:rgb(51,51,51);">Spanish Ve<tspan x="457.603px " y="169.61px ">r</tspan>sion</text>
                        <text x="436.99px" y="189.71px" style="font-family:'Helvetica';font-size:7.99px;">Spanish version.</text>
                        <text x="436.99px" y="199.31px" style="font-family:'Helvetica';font-size:7.99px;">StreetSmart has maybe 5-10% of</text>
                        <text x="436.99px" y="208.91px" style="font-family:'Helvetica';font-size:7.99px;">Spanish clients.</text>
                        <text x="436.99px" y="218.51px" style="font-family:'Helvetica';font-size:7.99px;">Use Client Center but have an</text>
                        <text x="436.99px" y="228.11px" style="font-family:'Helvetica';font-size:7.99px;">English friend.</text>
                        <text x="466.99px" y="237.71px" style="font-family:'Helvetica';font-size:7.99px;">Will be a challenge in the</text>
                        <text x="466.99px" y="247.31px" style="font-family:'Helvetica';font-size:7.99px;">future.</text>
                        <text x="466.99px" y="256.91px" style="font-family:'Helvetica';font-size:7.99px;">Don&apos;<tspan x="483.417px " y="256.91px ">t</tspan> see a lot in New</text>
                        <text x="466.99px" y="266.51px" style="font-family:'Helvetica';font-size:7.99px;">Jersey.</text>
                        <text x="466.99px" y="276.11px" style="font-family:'Helvetica';font-size:7.99px;">If speak Spanish, will</text>
                        <text x="466.99px" y="285.71px" style="font-family:'Helvetica';font-size:7.99px;">sometimes go into the</text>
                        <g transform="matrix(7.99,0,0,7.99,473.653,295.31)">
                        </g>
                        <g transform="matrix(7.99,0,0,7.99,475.873,295.31)">
                        </g>
                        <text x="466.99px" y="295.31px" style="font-family:'Helvetica';font-size:7.99px;">ofﬁce or text their ID</text>
                        <text x="466.99px" y="304.91px" style="font-family:'Helvetica';font-size:7.99px;">because they need a</text>
                        <g transform="matrix(7.99,0,0,7.99,482.083,314.51)">
                        </g>
                        <g transform="matrix(7.99,0,0,7.99,484.303,314.51)">
                        </g>
                        <text x="466.99px" y="314.51px" style="font-family:'Helvetica';font-size:7.99px;">certiﬁcate.</text>
                        <g transform="matrix(7.99,0,0,7.99,516.04,324.11)">
                        </g>
                        <g transform="matrix(7.99,0,0,7.99,518.259,324.11)">
                        </g>
                        <text x="436.99px" y="324.11px" style="font-family:'Helvetica';font-size:7.99px;">Can it be a reportable ﬁeld.</text>
                        <text x="408.49px" y="353.55px" style="font-family:'Helvetica-Bold', 'Helvetica';font-weight:700;font-size:9.11px;fill:rgb(51,51,51);">Custom URLs</text>
                        <text x="406.99px" y="373.65px" style="font-family:'Helvetica';font-size:7.99px;">Getting them comfortable doing business</text>
                        <text x="406.99px" y="383.25px" style="font-family:'Helvetica';font-size:7.99px;">with an agency.</text>
                        <text x="436.99px" y="400.35px" style="font-family:'Helvetica';font-size:7.99px;">Have the quote open up in Client</text>
                        <text x="436.99px" y="409.95px" style="font-family:'Helvetica';font-size:7.99px;">Center in a familiar interface. Who&apos;<tspan x="559.539px " y="409.95px ">s</tspan></text>
                        <text x="436.99px" y="419.55px" style="font-family:'Helvetica';font-size:7.99px;">the agent, who to call</text>
                        <g transform="matrix(7.99,0,0,7.99,524.476,429.15)">
                        </g>
                        <g transform="matrix(7.99,0,0,7.99,526.696,429.15)">
                        </g>
                        <text x="436.99px" y="429.15px" style="font-family:'Helvetica';font-size:7.99px;">If customer needs a certiﬁcate, text</text>
                        <g transform="matrix(7.99,0,0,7.99,466.743,438.75)">
                        </g>
                        <g transform="matrix(7.99,0,0,7.99,468.963,438.75)">
                        </g>
                        <text x="436.99px" y="438.75px" style="font-family:'Helvetica';font-size:7.99px;">a link to ﬁll in the details for the</text>
                        <g transform="matrix(7.99,0,0,7.99,452.083,448.35)">
                        </g>
                        <g transform="matrix(7.99,0,0,7.99,454.303,448.35)">
                        </g>
                        <text x="436.99px" y="448.35px" style="font-family:'Helvetica';font-size:7.99px;">certiﬁcate.</text>
                        <g transform="matrix(7.99,0,0,7.99,486.272,457.95)">
                        </g>
                        <g transform="matrix(7.99,0,0,7.99,488.492,457.95)">
                        </g>
                        <text x="436.99px" y="457.95px" style="font-family:'Helvetica';font-size:7.99px;">Can CQ form ﬁll</text>
                        <g transform="matrix(7.99,0,0,7.99,525.165,467.55)">
                        </g>
                        <g transform="matrix(7.99,0,0,7.99,527.385,467.55)">
                        </g>
                        <text x="466.99px" y="467.55px" style="font-family:'Helvetica';font-size:7.99px;">When someone ﬁlls the</text>
                        <text x="466.99px" y="477.15px" style="font-family:'Helvetica';font-size:7.99px;">CQ form,</text>
                        <text x="466.99px" y="486.75px" style="font-family:'Helvetica';font-size:7.99px;">To<tspan x="476.313px " y="486.75px ">o</tspan> many things in</text>
                        <text x="466.99px" y="496.35px" style="font-family:'Helvetica';font-size:7.99px;">IFRAMEs</text>
                        <text x="466.99px" y="505.95px" style="font-family:'Helvetica';font-size:7.99px;">Wo<tspan x="478.973px " y="505.95px ">u</tspan>ld be cool if it</text>
                        <text x="466.99px" y="515.55px" style="font-family:'Helvetica';font-size:7.99px;">automatically opens up</text>
                        <text x="466.99px" y="525.15px" style="font-family:'Helvetica';font-size:7.99px;">Client Center.</text>
                        <text x="408.49px" y="554.59px" style="font-family:'Helvetica-Bold', 'Helvetica';font-weight:700;font-size:9.11px;fill:rgb(51,51,51);">Competitive Research</text>
                        <g transform="matrix(7.99,0,0,7.99,430.027,579.08)">
                        </g>
                        <text x="411.38px" y="579.08px" style="font-family:'Helvetica';font-size:7.99px;">Ta<tspan x="420.705px " y="579.08px ">r</tspan>ot</text>
                    </g>
                    <g>
                        <text x="489.86px" y="579.08px" style="font-family:'Helvetica';font-size:7.99px;">use it to push</text>
                        <text x="489.86px" y="588.68px" style="font-family:'Helvetica';font-size:7.99px;">referrals into Client</text>
                        <g transform="matrix(7.99,0,0,7.99,516.058,598.28)">
                        </g>
                        <text x="489.86px" y="598.28px" style="font-family:'Helvetica';font-size:7.99px;">Center.</text>
                    </g>
                    <g transform="matrix(7.99,0,0,7.99,454.884,616.65)">
                    </g>
                    <text x="411.38px" y="616.65px" style="font-family:'Helvetica';font-size:7.99px;">CoverWa<tspan x="444.674px " y="616.65px ">l</tspan>let</text>
                    <g>
                        <text x="489.86px" y="616.65px" style="font-family:'Helvetica';font-size:7.99px;">•<tspan x="492.081px " y="616.65px ">c</tspan>an see face of</text>
                        <g transform="matrix(7.99,0,0,7.99,512.071,626.25)">
                        </g>
                        <text x="489.86px" y="626.25px" style="font-family:'Helvetica';font-size:7.99px;">agent.</text>
                    </g>
                    <g transform="matrix(7.99,0,0,7.99,453.57,644.63)">
                    </g>
                    <text x="411.38px" y="644.63px" style="font-family:'Helvetica';font-size:7.99px;">Agent T<tspan x="439.362px 443.805px " y="644.63px 644.63px ">er</tspan>ro</text>
                    <g>
                        <text x="489.86px" y="644.63px" style="font-family:'Helvetica';font-size:7.99px;">has an app. Scan</text>
                        <text x="489.86px" y="654.23px" style="font-family:'Helvetica';font-size:7.99px;">copy of auto /</text>
                        <text x="489.86px" y="663.83px" style="font-family:'Helvetica';font-size:7.99px;">home dec page</text>
                        <g transform="matrix(7.99,0,0,7.99,508.068,673.43)">
                        </g>
                        <text x="489.86px" y="673.43px" style="font-family:'Helvetica';font-size:7.99px;">here.</text>
                    </g>
                </g>
            </g>
        </g>
    </g>
</svg>
