<svg width="1073" height="152" viewBox="0 0 1073 152" fill="none" xmlns="http://www.w3.org/2000/svg">
<g clip-path="url(#clip0_272_13519)">
<path fill-rule="evenodd" clip-rule="evenodd" d="M143.284 45.6274L148.941 39.9706L143.284 34.3137L131.971 23L126.314 28.6569L137.628 39.9706L126.314 51.2843L131.971 56.9411L143.284 45.6274Z" fill="#B1B1B1"/>
<path fill-rule="evenodd" clip-rule="evenodd" d="M327.284 45.6274L332.941 39.9706L327.284 34.3137L315.971 23L310.314 28.6569L321.628 39.9706L310.314 51.2843L315.971 56.9411L327.284 45.6274Z" fill="#B1B1B1"/>
<path fill-rule="evenodd" clip-rule="evenodd" d="M503.284 45.6274L508.941 39.9706L503.284 34.3137L491.971 23L486.314 28.6569L497.628 39.9706L486.314 51.2843L491.971 56.9411L503.284 45.6274Z" fill="#B1B1B1"/>
<path d="M913.918 110.545H917.114L922.67 124.114H922.875L928.432 110.545H931.628V128H929.122V115.369H928.96L923.812 127.974H921.733L916.585 115.361H916.423V128H913.918V110.545ZM940.046 128.264C938.819 128.264 937.748 127.983 936.833 127.42C935.918 126.858 935.208 126.071 934.703 125.06C934.197 124.048 933.944 122.866 933.944 121.514C933.944 120.156 934.197 118.969 934.703 117.952C935.208 116.935 935.918 116.145 936.833 115.582C937.748 115.02 938.819 114.739 940.046 114.739C941.274 114.739 942.345 115.02 943.259 115.582C944.174 116.145 944.884 116.935 945.39 117.952C945.896 118.969 946.149 120.156 946.149 121.514C946.149 122.866 945.896 124.048 945.39 125.06C944.884 126.071 944.174 126.858 943.259 127.42C942.345 127.983 941.274 128.264 940.046 128.264ZM940.055 126.125C940.85 126.125 941.509 125.915 942.032 125.494C942.555 125.074 942.941 124.514 943.191 123.815C943.447 123.116 943.575 122.347 943.575 121.506C943.575 120.67 943.447 119.903 943.191 119.205C942.941 118.5 942.555 117.935 942.032 117.509C941.509 117.082 940.85 116.869 940.055 116.869C939.254 116.869 938.589 117.082 938.061 117.509C937.538 117.935 937.149 118.5 936.893 119.205C936.643 119.903 936.518 120.67 936.518 121.506C936.518 122.347 936.643 123.116 936.893 123.815C937.149 124.514 937.538 125.074 938.061 125.494C938.589 125.915 939.254 126.125 940.055 126.125ZM953.787 128.264C952.52 128.264 951.429 127.977 950.515 127.403C949.605 126.824 948.907 126.026 948.418 125.009C947.929 123.991 947.685 122.827 947.685 121.514C947.685 120.185 947.935 119.011 948.435 117.994C948.935 116.972 949.64 116.173 950.549 115.599C951.458 115.026 952.529 114.739 953.762 114.739C954.756 114.739 955.642 114.923 956.421 115.293C957.199 115.656 957.827 116.168 958.304 116.827C958.787 117.486 959.074 118.256 959.165 119.136H956.685C956.549 118.523 956.236 117.994 955.748 117.551C955.265 117.108 954.617 116.886 953.804 116.886C953.094 116.886 952.472 117.074 951.938 117.449C951.409 117.818 950.998 118.347 950.702 119.034C950.407 119.716 950.259 120.523 950.259 121.455C950.259 122.409 950.404 123.233 950.694 123.926C950.983 124.619 951.392 125.156 951.921 125.537C952.455 125.918 953.083 126.108 953.804 126.108C954.287 126.108 954.725 126.02 955.117 125.844C955.515 125.662 955.847 125.403 956.114 125.068C956.387 124.733 956.577 124.33 956.685 123.858H959.165C959.074 124.705 958.799 125.46 958.338 126.125C957.878 126.79 957.262 127.312 956.489 127.693C955.722 128.074 954.821 128.264 953.787 128.264ZM963.514 123.56L963.497 120.449H963.94L969.156 114.909H972.207L966.258 121.216H965.858L963.514 123.56ZM961.17 128V110.545H963.719V128H961.17ZM969.437 128L964.75 121.778L966.505 119.997L972.565 128H969.437ZM982.102 122.571V114.909H984.659V128H982.153V125.733H982.017C981.716 126.432 981.233 127.014 980.568 127.48C979.909 127.94 979.088 128.17 978.105 128.17C977.264 128.17 976.52 127.986 975.872 127.616C975.23 127.241 974.724 126.688 974.355 125.955C973.991 125.222 973.81 124.315 973.81 123.236V114.909H976.358V122.929C976.358 123.821 976.605 124.531 977.099 125.06C977.594 125.588 978.236 125.852 979.026 125.852C979.503 125.852 979.977 125.733 980.449 125.494C980.926 125.256 981.321 124.895 981.633 124.412C981.952 123.929 982.108 123.315 982.102 122.571ZM987.363 132.909V114.909H989.852V117.031H990.065C990.213 116.759 990.426 116.443 990.704 116.085C990.982 115.727 991.369 115.415 991.863 115.148C992.357 114.875 993.011 114.739 993.823 114.739C994.88 114.739 995.823 115.006 996.653 115.54C997.482 116.074 998.133 116.844 998.605 117.849C999.082 118.855 999.32 120.065 999.32 121.48C999.32 122.895 999.085 124.108 998.613 125.119C998.141 126.125 997.494 126.901 996.67 127.446C995.846 127.986 994.906 128.256 993.849 128.256C993.053 128.256 992.403 128.122 991.897 127.855C991.397 127.588 991.005 127.276 990.721 126.918C990.437 126.56 990.218 126.241 990.065 125.963H989.911V132.909H987.363ZM989.86 121.455C989.86 122.375 989.994 123.182 990.261 123.875C990.528 124.568 990.914 125.111 991.42 125.503C991.926 125.889 992.545 126.082 993.278 126.082C994.039 126.082 994.676 125.881 995.187 125.477C995.698 125.068 996.085 124.514 996.346 123.815C996.613 123.116 996.747 122.33 996.747 121.455C996.747 120.591 996.616 119.815 996.355 119.128C996.099 118.44 995.713 117.898 995.195 117.5C994.684 117.102 994.045 116.903 993.278 116.903C992.539 116.903 991.914 117.094 991.403 117.474C990.897 117.855 990.514 118.386 990.252 119.068C989.991 119.75 989.86 120.545 989.86 121.455ZM1011.27 118.105L1008.96 118.514C1008.86 118.219 1008.71 117.937 1008.5 117.67C1008.29 117.403 1008.01 117.185 1007.66 117.014C1007.31 116.844 1006.87 116.759 1006.34 116.759C1005.62 116.759 1005.02 116.92 1004.53 117.244C1004.05 117.562 1003.81 117.974 1003.81 118.48C1003.81 118.918 1003.97 119.27 1004.29 119.537C1004.62 119.804 1005.14 120.023 1005.86 120.193L1007.94 120.67C1009.15 120.949 1010.04 121.378 1010.63 121.957C1011.23 122.537 1011.52 123.29 1011.52 124.216C1011.52 125 1011.29 125.699 1010.84 126.312C1010.39 126.92 1009.76 127.398 1008.96 127.744C1008.15 128.091 1007.23 128.264 1006.17 128.264C1004.7 128.264 1003.51 127.952 1002.58 127.327C1001.65 126.696 1001.09 125.801 1000.88 124.642L1003.34 124.267C1003.49 124.909 1003.81 125.395 1004.29 125.724C1004.76 126.048 1005.38 126.21 1006.15 126.21C1006.99 126.21 1007.65 126.037 1008.15 125.69C1008.65 125.338 1008.9 124.909 1008.9 124.403C1008.9 123.994 1008.75 123.651 1008.44 123.372C1008.14 123.094 1007.68 122.884 1007.06 122.741L1004.84 122.256C1003.62 121.977 1002.71 121.534 1002.13 120.926C1001.55 120.318 1001.26 119.548 1001.26 118.616C1001.26 117.844 1001.48 117.168 1001.91 116.588C1002.34 116.009 1002.94 115.557 1003.7 115.233C1004.46 114.903 1005.33 114.739 1006.31 114.739C1007.73 114.739 1008.84 115.045 1009.65 115.659C1010.47 116.267 1011 117.082 1011.27 118.105Z" fill="black"/>
<path fill-rule="evenodd" clip-rule="evenodd" d="M959 16V72L919 72V16L959 16ZM951 24L951 64H927L927 24L951 24ZM1007 24V72L967 72V24L1007 24ZM999 32V64H975V32H999Z" fill="#387152"/>
<path fill-rule="evenodd" clip-rule="evenodd" d="M943 32H935V40H943V32ZM959 80V88L919 88V80L959 80ZM1007 80V88L967 88V80L1007 80ZM935 48H943V56H935V48ZM991 40H983V48H991V40Z" fill="#63DB9A"/>
<path fill-rule="evenodd" clip-rule="evenodd" d="M695.284 45.6274L700.941 39.9706L695.284 34.3137L683.971 23L678.314 28.6569L689.628 39.9706L678.314 51.2843L683.971 56.9411L695.284 45.6274Z" fill="#B1B1B1"/>
<path d="M1.91761 128V110.545H8.1392C9.49148 110.545 10.6136 110.778 11.5057 111.244C12.4034 111.71 13.0739 112.355 13.517 113.179C13.9602 113.997 14.1818 114.943 14.1818 116.017C14.1818 117.085 13.9574 118.026 13.5085 118.838C13.0653 119.645 12.3949 120.273 11.4972 120.722C10.6051 121.17 9.48295 121.395 8.13068 121.395H3.41761V119.128H7.89205C8.74432 119.128 9.4375 119.006 9.97159 118.761C10.5114 118.517 10.9062 118.162 11.1562 117.696C11.4062 117.23 11.5312 116.67 11.5312 116.017C11.5312 115.358 11.4034 114.787 11.1477 114.304C10.8977 113.821 10.5028 113.452 9.96307 113.196C9.42898 112.935 8.72727 112.804 7.85795 112.804H4.55114V128H1.91761ZM10.5341 120.125L14.8466 128H11.8466L7.61932 120.125H10.5341ZM21.9398 128.264C20.65 128.264 19.5392 127.989 18.6074 127.438C17.6813 126.881 16.9654 126.099 16.4597 125.094C15.9597 124.082 15.7097 122.898 15.7097 121.54C15.7097 120.199 15.9597 119.017 16.4597 117.994C16.9654 116.972 17.6699 116.173 18.5733 115.599C19.4824 115.026 20.5449 114.739 21.7608 114.739C22.4995 114.739 23.2154 114.861 23.9086 115.105C24.6017 115.349 25.2239 115.733 25.775 116.256C26.3262 116.778 26.7608 117.457 27.079 118.293C27.3972 119.122 27.5563 120.131 27.5563 121.318V122.222H17.15V120.312H25.0591C25.0591 119.642 24.9228 119.048 24.65 118.531C24.3773 118.009 23.9938 117.597 23.4995 117.295C23.0108 116.994 22.437 116.844 21.7779 116.844C21.062 116.844 20.437 117.02 19.9029 117.372C19.3745 117.719 18.9654 118.173 18.6756 118.736C18.3915 119.293 18.2495 119.898 18.2495 120.551V122.043C18.2495 122.918 18.4029 123.662 18.7097 124.276C19.0222 124.889 19.4568 125.358 20.0137 125.682C20.5705 126 21.2211 126.159 21.9654 126.159C22.4483 126.159 22.8887 126.091 23.2864 125.955C23.6841 125.812 24.0279 125.602 24.3176 125.324C24.6074 125.045 24.829 124.702 24.9824 124.293L27.3943 124.727C27.2012 125.437 26.8546 126.06 26.3546 126.594C25.8603 127.122 25.2381 127.534 24.4881 127.83C23.7438 128.119 22.8943 128.264 21.9398 128.264ZM39.4734 118.105L37.1637 118.514C37.0671 118.219 36.9137 117.937 36.7035 117.67C36.4989 117.403 36.2205 117.185 35.8682 117.014C35.516 116.844 35.0756 116.759 34.5472 116.759C33.8256 116.759 33.2234 116.92 32.7404 117.244C32.2574 117.562 32.016 117.974 32.016 118.48C32.016 118.918 32.1779 119.27 32.5018 119.537C32.8256 119.804 33.3484 120.023 34.0699 120.193L36.1495 120.67C37.354 120.949 38.2518 121.378 38.8427 121.957C39.4336 122.537 39.729 123.29 39.729 124.216C39.729 125 39.5018 125.699 39.0472 126.312C38.5984 126.92 37.9705 127.398 37.1637 127.744C36.3626 128.091 35.4336 128.264 34.3768 128.264C32.9109 128.264 31.7148 127.952 30.7887 127.327C29.8626 126.696 29.2944 125.801 29.0841 124.642L31.5472 124.267C31.7006 124.909 32.016 125.395 32.4932 125.724C32.9705 126.048 33.5927 126.21 34.3597 126.21C35.1949 126.21 35.8626 126.037 36.3626 125.69C36.8626 125.338 37.1126 124.909 37.1126 124.403C37.1126 123.994 36.9591 123.651 36.6523 123.372C36.3512 123.094 35.8881 122.884 35.2631 122.741L33.0472 122.256C31.8256 121.977 30.9222 121.534 30.337 120.926C29.7574 120.318 29.4677 119.548 29.4677 118.616C29.4677 117.844 29.6836 117.168 30.1154 116.588C30.5472 116.009 31.1438 115.557 31.9052 115.233C32.6665 114.903 33.5387 114.739 34.5216 114.739C35.9364 114.739 37.0501 115.045 37.8626 115.659C38.6751 116.267 39.212 117.082 39.4734 118.105ZM47.4529 128.264C46.1632 128.264 45.0524 127.989 44.1205 127.438C43.1944 126.881 42.4785 126.099 41.9728 125.094C41.4728 124.082 41.2228 122.898 41.2228 121.54C41.2228 120.199 41.4728 119.017 41.9728 117.994C42.4785 116.972 43.183 116.173 44.0864 115.599C44.9955 115.026 46.058 114.739 47.2739 114.739C48.0126 114.739 48.7285 114.861 49.4217 115.105C50.1149 115.349 50.737 115.733 51.2882 116.256C51.8393 116.778 52.2739 117.457 52.5921 118.293C52.9103 119.122 53.0694 120.131 53.0694 121.318V122.222H42.6632V120.312H50.5722C50.5722 119.642 50.4359 119.048 50.1632 118.531C49.8904 118.009 49.5069 117.597 49.0126 117.295C48.5239 116.994 47.9501 116.844 47.291 116.844C46.5751 116.844 45.9501 117.02 45.416 117.372C44.8876 117.719 44.4785 118.173 44.1887 118.736C43.9046 119.293 43.7626 119.898 43.7626 120.551V122.043C43.7626 122.918 43.916 123.662 44.2228 124.276C44.5353 124.889 44.97 125.358 45.5268 125.682C46.0836 126 46.7342 126.159 47.4785 126.159C47.9614 126.159 48.4018 126.091 48.7995 125.955C49.1972 125.812 49.541 125.602 49.8308 125.324C50.1205 125.045 50.3421 124.702 50.4955 124.293L52.9075 124.727C52.7143 125.437 52.3677 126.06 51.8677 126.594C51.3734 127.122 50.7512 127.534 50.0012 127.83C49.2569 128.119 48.4075 128.264 47.4529 128.264ZM58.9865 128.29C58.1569 128.29 57.4069 128.136 56.7365 127.83C56.066 127.517 55.5348 127.065 55.1427 126.474C54.7564 125.884 54.5632 125.159 54.5632 124.301C54.5632 123.562 54.7052 122.955 54.9893 122.477C55.2734 122 55.6569 121.622 56.1399 121.344C56.6228 121.065 57.1626 120.855 57.7592 120.713C58.3558 120.571 58.9637 120.463 59.5831 120.389C60.3672 120.298 61.0035 120.224 61.4922 120.168C61.9808 120.105 62.3359 120.006 62.5575 119.869C62.7791 119.733 62.8899 119.511 62.8899 119.205V119.145C62.8899 118.401 62.6797 117.824 62.2592 117.415C61.8444 117.006 61.2251 116.801 60.4012 116.801C59.5433 116.801 58.8672 116.991 58.3728 117.372C57.8842 117.747 57.5461 118.165 57.3586 118.625L54.9637 118.08C55.2478 117.284 55.6626 116.642 56.2081 116.153C56.7592 115.659 57.3927 115.301 58.1086 115.08C58.8245 114.852 59.5774 114.739 60.3672 114.739C60.8899 114.739 61.4439 114.801 62.0291 114.926C62.62 115.045 63.1711 115.267 63.6825 115.591C64.1995 115.915 64.6228 116.378 64.9524 116.98C65.2819 117.577 65.4467 118.352 65.4467 119.307V128H62.9581V126.21H62.8558C62.691 126.54 62.4439 126.864 62.1143 127.182C61.7848 127.5 61.3615 127.764 60.8444 127.974C60.3274 128.185 59.7081 128.29 58.9865 128.29ZM59.5405 126.244C60.245 126.244 60.8473 126.105 61.3473 125.827C61.853 125.548 62.2365 125.185 62.4978 124.736C62.7649 124.281 62.8984 123.795 62.8984 123.278V121.591C62.8075 121.682 62.6314 121.767 62.37 121.847C62.1143 121.92 61.8217 121.986 61.4922 122.043C61.1626 122.094 60.8416 122.142 60.5291 122.188C60.2166 122.227 59.9552 122.261 59.745 122.29C59.2507 122.352 58.799 122.457 58.3899 122.605C57.9865 122.753 57.6626 122.966 57.4183 123.244C57.1797 123.517 57.0603 123.881 57.0603 124.335C57.0603 124.966 57.2933 125.443 57.7592 125.767C58.2251 126.085 58.8189 126.244 59.5405 126.244ZM68.1209 128V114.909H70.584V116.989H70.7203C70.959 116.284 71.3794 115.73 71.9817 115.327C72.5896 114.918 73.2771 114.713 74.0442 114.713C74.2033 114.713 74.3908 114.719 74.6067 114.73C74.8283 114.741 75.0016 114.756 75.1266 114.773V117.21C75.0243 117.182 74.8425 117.151 74.5811 117.116C74.3197 117.077 74.0584 117.057 73.797 117.057C73.1947 117.057 72.6578 117.185 72.1862 117.44C71.7203 117.69 71.351 118.04 71.0783 118.489C70.8055 118.932 70.6692 119.437 70.6692 120.006V128H68.1209ZM81.6573 128.264C80.3902 128.264 79.2993 127.977 78.3845 127.403C77.4755 126.824 76.7766 126.026 76.288 125.009C75.7993 123.991 75.555 122.827 75.555 121.514C75.555 120.185 75.805 119.011 76.305 117.994C76.805 116.972 77.5095 116.173 78.4186 115.599C79.3277 115.026 80.3988 114.739 81.6317 114.739C82.626 114.739 83.5124 114.923 84.2908 115.293C85.0692 115.656 85.697 116.168 86.1743 116.827C86.6573 117.486 86.9442 118.256 87.0351 119.136H84.555C84.4186 118.523 84.1061 117.994 83.6175 117.551C83.1345 117.108 82.4868 116.886 81.6743 116.886C80.9641 116.886 80.3419 117.074 79.8078 117.449C79.2794 117.818 78.8675 118.347 78.572 119.034C78.2766 119.716 78.1289 120.523 78.1289 121.455C78.1289 122.409 78.2738 123.233 78.5635 123.926C78.8533 124.619 79.2624 125.156 79.7908 125.537C80.3249 125.918 80.9527 126.108 81.6743 126.108C82.1573 126.108 82.5948 126.02 82.9868 125.844C83.3845 125.662 83.7169 125.403 83.984 125.068C84.2567 124.733 84.447 124.33 84.555 123.858H87.0351C86.9442 124.705 86.6686 125.46 86.2084 126.125C85.7482 126.79 85.1317 127.312 84.359 127.693C83.5919 128.074 82.6914 128.264 81.6573 128.264ZM91.5886 120.227V128H89.0403V110.545H91.5545V117.04H91.7164C92.0232 116.335 92.492 115.776 93.1226 115.361C93.7533 114.946 94.5772 114.739 95.5942 114.739C96.492 114.739 97.2761 114.923 97.9465 115.293C98.6226 115.662 99.1454 116.213 99.5147 116.946C99.8897 117.673 100.077 118.582 100.077 119.673V128H97.5289V119.98C97.5289 119.02 97.2817 118.276 96.7874 117.747C96.2931 117.213 95.6056 116.946 94.7249 116.946C94.1226 116.946 93.5829 117.074 93.1056 117.33C92.634 117.585 92.2618 117.96 91.9891 118.455C91.7221 118.943 91.5886 119.534 91.5886 120.227Z" fill="black"/>
<path fill-rule="evenodd" clip-rule="evenodd" d="M47 0V24L71 24V48L95 48V72H71H47V48H23V72H-1V48V24L23 24V0H47Z" fill="#854EFF"/>
<path fill-rule="evenodd" clip-rule="evenodd" d="M7 8H15V16H7V8ZM95 80V88L-1 88V80L95 80ZM63 8H55V16H63V8ZM79 32H87V40H79V32ZM39 56H31V64H39V56Z" fill="#C4A9FF"/>
<path d="M175.918 128V110.545H182.139C183.497 110.545 184.622 110.793 185.514 111.287C186.406 111.781 187.074 112.457 187.517 113.315C187.96 114.168 188.182 115.128 188.182 116.196C188.182 117.27 187.957 118.236 187.509 119.094C187.065 119.946 186.395 120.622 185.497 121.122C184.605 121.616 183.483 121.864 182.131 121.864H177.852V119.631H181.892C182.75 119.631 183.446 119.483 183.98 119.188C184.514 118.886 184.906 118.477 185.156 117.96C185.406 117.443 185.531 116.855 185.531 116.196C185.531 115.537 185.406 114.952 185.156 114.44C184.906 113.929 184.511 113.528 183.972 113.239C183.438 112.949 182.733 112.804 181.858 112.804H178.551V128H175.918ZM195.823 128.264C194.533 128.264 193.422 127.989 192.49 127.438C191.564 126.881 190.848 126.099 190.342 125.094C189.842 124.082 189.592 122.898 189.592 121.54C189.592 120.199 189.842 119.017 190.342 117.994C190.848 116.972 191.553 116.173 192.456 115.599C193.365 115.026 194.428 114.739 195.644 114.739C196.382 114.739 197.098 114.861 197.791 115.105C198.485 115.349 199.107 115.733 199.658 116.256C200.209 116.778 200.644 117.457 200.962 118.293C201.28 119.122 201.439 120.131 201.439 121.318V122.222H191.033V120.312H198.942C198.942 119.642 198.806 119.048 198.533 118.531C198.26 118.009 197.877 117.597 197.382 117.295C196.894 116.994 196.32 116.844 195.661 116.844C194.945 116.844 194.32 117.02 193.786 117.372C193.257 117.719 192.848 118.173 192.558 118.736C192.274 119.293 192.132 119.898 192.132 120.551V122.043C192.132 122.918 192.286 123.662 192.592 124.276C192.905 124.889 193.34 125.358 193.896 125.682C194.453 126 195.104 126.159 195.848 126.159C196.331 126.159 196.771 126.091 197.169 125.955C197.567 125.812 197.911 125.602 198.2 125.324C198.49 125.045 198.712 124.702 198.865 124.293L201.277 124.727C201.084 125.437 200.737 126.06 200.237 126.594C199.743 127.122 199.121 127.534 198.371 127.83C197.627 128.119 196.777 128.264 195.823 128.264ZM203.547 128V114.909H206.01V116.989H206.146C206.385 116.284 206.805 115.73 207.407 115.327C208.015 114.918 208.703 114.713 209.47 114.713C209.629 114.713 209.816 114.719 210.032 114.73C210.254 114.741 210.427 114.756 210.552 114.773V117.21C210.45 117.182 210.268 117.151 210.007 117.116C209.745 117.077 209.484 117.057 209.223 117.057C208.62 117.057 208.083 117.185 207.612 117.44C207.146 117.69 206.777 118.04 206.504 118.489C206.231 118.932 206.095 119.437 206.095 120.006V128H203.547ZM221.847 118.105L219.537 118.514C219.441 118.219 219.287 117.937 219.077 117.67C218.873 117.403 218.594 117.185 218.242 117.014C217.89 116.844 217.449 116.759 216.921 116.759C216.199 116.759 215.597 116.92 215.114 117.244C214.631 117.562 214.39 117.974 214.39 118.48C214.39 118.918 214.552 119.27 214.876 119.537C215.199 119.804 215.722 120.023 216.444 120.193L218.523 120.67C219.728 120.949 220.626 121.378 221.216 121.957C221.807 122.537 222.103 123.29 222.103 124.216C222.103 125 221.876 125.699 221.421 126.312C220.972 126.92 220.344 127.398 219.537 127.744C218.736 128.091 217.807 128.264 216.751 128.264C215.285 128.264 214.089 127.952 213.162 127.327C212.236 126.696 211.668 125.801 211.458 124.642L213.921 124.267C214.074 124.909 214.39 125.395 214.867 125.724C215.344 126.048 215.966 126.21 216.733 126.21C217.569 126.21 218.236 126.037 218.736 125.69C219.236 125.338 219.486 124.909 219.486 124.403C219.486 123.994 219.333 123.651 219.026 123.372C218.725 123.094 218.262 122.884 217.637 122.741L215.421 122.256C214.199 121.977 213.296 121.534 212.711 120.926C212.131 120.318 211.841 119.548 211.841 118.616C211.841 117.844 212.057 117.168 212.489 116.588C212.921 116.009 213.518 115.557 214.279 115.233C215.04 114.903 215.912 114.739 216.895 114.739C218.31 114.739 219.424 115.045 220.236 115.659C221.049 116.267 221.586 117.082 221.847 118.105ZM229.699 128.264C228.472 128.264 227.401 127.983 226.486 127.42C225.571 126.858 224.861 126.071 224.355 125.06C223.849 124.048 223.597 122.866 223.597 121.514C223.597 120.156 223.849 118.969 224.355 117.952C224.861 116.935 225.571 116.145 226.486 115.582C227.401 115.02 228.472 114.739 229.699 114.739C230.926 114.739 231.997 115.02 232.912 115.582C233.827 116.145 234.537 116.935 235.043 117.952C235.548 118.969 235.801 120.156 235.801 121.514C235.801 122.866 235.548 124.048 235.043 125.06C234.537 126.071 233.827 126.858 232.912 127.42C231.997 127.983 230.926 128.264 229.699 128.264ZM229.707 126.125C230.503 126.125 231.162 125.915 231.685 125.494C232.207 125.074 232.594 124.514 232.844 123.815C233.099 123.116 233.227 122.347 233.227 121.506C233.227 120.67 233.099 119.903 232.844 119.205C232.594 118.5 232.207 117.935 231.685 117.509C231.162 117.082 230.503 116.869 229.707 116.869C228.906 116.869 228.241 117.082 227.713 117.509C227.19 117.935 226.801 118.5 226.545 119.205C226.295 119.903 226.17 120.67 226.17 121.506C226.17 122.347 226.295 123.116 226.545 123.815C226.801 124.514 227.19 125.074 227.713 125.494C228.241 125.915 228.906 126.125 229.707 126.125ZM240.474 120.227V128H237.926V114.909H240.372V117.04H240.534C240.835 116.347 241.306 115.79 241.948 115.369C242.596 114.949 243.411 114.739 244.394 114.739C245.286 114.739 246.068 114.926 246.738 115.301C247.409 115.67 247.928 116.222 248.298 116.955C248.667 117.687 248.852 118.594 248.852 119.673V128H246.303V119.98C246.303 119.031 246.056 118.29 245.562 117.756C245.068 117.216 244.389 116.946 243.525 116.946C242.934 116.946 242.409 117.074 241.948 117.33C241.494 117.585 241.133 117.96 240.866 118.455C240.605 118.943 240.474 119.534 240.474 120.227ZM255.359 128.29C254.529 128.29 253.779 128.136 253.109 127.83C252.439 127.517 251.907 127.065 251.515 126.474C251.129 125.884 250.936 125.159 250.936 124.301C250.936 123.562 251.078 122.955 251.362 122.477C251.646 122 252.029 121.622 252.512 121.344C252.995 121.065 253.535 120.855 254.132 120.713C254.728 120.571 255.336 120.463 255.956 120.389C256.74 120.298 257.376 120.224 257.865 120.168C258.353 120.105 258.708 120.006 258.93 119.869C259.152 119.733 259.262 119.511 259.262 119.205V119.145C259.262 118.401 259.052 117.824 258.632 117.415C258.217 117.006 257.598 116.801 256.774 116.801C255.916 116.801 255.24 116.991 254.745 117.372C254.257 117.747 253.919 118.165 253.731 118.625L251.336 118.08C251.62 117.284 252.035 116.642 252.581 116.153C253.132 115.659 253.765 115.301 254.481 115.08C255.197 114.852 255.95 114.739 256.74 114.739C257.262 114.739 257.816 114.801 258.402 114.926C258.993 115.045 259.544 115.267 260.055 115.591C260.572 115.915 260.995 116.378 261.325 116.98C261.654 117.577 261.819 118.352 261.819 119.307V128H259.331V126.21H259.228C259.064 126.54 258.816 126.864 258.487 127.182C258.157 127.5 257.734 127.764 257.217 127.974C256.7 128.185 256.081 128.29 255.359 128.29ZM255.913 126.244C256.618 126.244 257.22 126.105 257.72 125.827C258.225 125.548 258.609 125.185 258.87 124.736C259.137 124.281 259.271 123.795 259.271 123.278V121.591C259.18 121.682 259.004 121.767 258.743 121.847C258.487 121.92 258.194 121.986 257.865 122.043C257.535 122.094 257.214 122.142 256.902 122.188C256.589 122.227 256.328 122.261 256.118 122.29C255.623 122.352 255.171 122.457 254.762 122.605C254.359 122.753 254.035 122.966 253.791 123.244C253.552 123.517 253.433 123.881 253.433 124.335C253.433 124.966 253.666 125.443 254.132 125.767C254.598 126.085 255.191 126.244 255.913 126.244ZM274.303 118.105L271.993 118.514C271.897 118.219 271.743 117.937 271.533 117.67C271.329 117.403 271.05 117.185 270.698 117.014C270.346 116.844 269.905 116.759 269.377 116.759C268.655 116.759 268.053 116.92 267.57 117.244C267.087 117.562 266.846 117.974 266.846 118.48C266.846 118.918 267.008 119.27 267.331 119.537C267.655 119.804 268.178 120.023 268.9 120.193L270.979 120.67C272.184 120.949 273.081 121.378 273.672 121.957C274.263 122.537 274.559 123.29 274.559 124.216C274.559 125 274.331 125.699 273.877 126.312C273.428 126.92 272.8 127.398 271.993 127.744C271.192 128.091 270.263 128.264 269.206 128.264C267.741 128.264 266.545 127.952 265.618 127.327C264.692 126.696 264.124 125.801 263.914 124.642L266.377 124.267C266.53 124.909 266.846 125.395 267.323 125.724C267.8 126.048 268.422 126.21 269.189 126.21C270.025 126.21 270.692 126.037 271.192 125.69C271.692 125.338 271.942 124.909 271.942 124.403C271.942 123.994 271.789 123.651 271.482 123.372C271.181 123.094 270.718 122.884 270.093 122.741L267.877 122.256C266.655 121.977 265.752 121.534 265.167 120.926C264.587 120.318 264.297 119.548 264.297 118.616C264.297 117.844 264.513 117.168 264.945 116.588C265.377 116.009 265.973 115.557 266.735 115.233C267.496 114.903 268.368 114.739 269.351 114.739C270.766 114.739 271.88 115.045 272.692 115.659C273.505 116.267 274.042 117.082 274.303 118.105Z" fill="black"/>
<path fill-rule="evenodd" clip-rule="evenodd" d="M232 16V56H208V16H232ZM200 32V56H176V32L200 32ZM264 56V24L240 24V56H264Z" fill="#B98E01"/>
<path fill-rule="evenodd" clip-rule="evenodd" d="M216 0H224V8H216V0ZM192 16H184V24H192V16ZM200 64V72H176V64H200ZM200 80V88H176V80H200ZM232 72V64H208V72H232ZM232 80V88H208V80H232ZM264 72V64H240V72H264ZM264 80V88H240V80H264ZM256 8H248V16H256V8Z" fill="#E6C867"/>
<path d="M354.142 110.545H356.784V122.026C356.784 123.247 356.497 124.33 355.923 125.273C355.349 126.21 354.543 126.949 353.503 127.489C352.463 128.023 351.244 128.29 349.847 128.29C348.455 128.29 347.239 128.023 346.199 127.489C345.159 126.949 344.352 126.21 343.778 125.273C343.205 124.33 342.918 123.247 342.918 122.026V110.545H345.551V121.812C345.551 122.602 345.724 123.304 346.071 123.918C346.423 124.531 346.92 125.014 347.562 125.366C348.205 125.713 348.966 125.886 349.847 125.886C350.733 125.886 351.497 125.713 352.139 125.366C352.787 125.014 353.281 124.531 353.622 123.918C353.969 123.304 354.142 122.602 354.142 121.812V110.545ZM369.498 118.105L367.188 118.514C367.092 118.219 366.938 117.937 366.728 117.67C366.524 117.403 366.245 117.185 365.893 117.014C365.541 116.844 365.1 116.759 364.572 116.759C363.85 116.759 363.248 116.92 362.765 117.244C362.282 117.562 362.041 117.974 362.041 118.48C362.041 118.918 362.203 119.27 362.526 119.537C362.85 119.804 363.373 120.023 364.095 120.193L366.174 120.67C367.379 120.949 368.276 121.378 368.867 121.957C369.458 122.537 369.754 123.29 369.754 124.216C369.754 125 369.526 125.699 369.072 126.312C368.623 126.92 367.995 127.398 367.188 127.744C366.387 128.091 365.458 128.264 364.401 128.264C362.936 128.264 361.74 127.952 360.813 127.327C359.887 126.696 359.319 125.801 359.109 124.642L361.572 124.267C361.725 124.909 362.041 125.395 362.518 125.724C362.995 126.048 363.617 126.21 364.384 126.21C365.22 126.21 365.887 126.037 366.387 125.69C366.887 125.338 367.137 124.909 367.137 124.403C367.137 123.994 366.984 123.651 366.677 123.372C366.376 123.094 365.913 122.884 365.288 122.741L363.072 122.256C361.85 121.977 360.947 121.534 360.362 120.926C359.782 120.318 359.492 119.548 359.492 118.616C359.492 117.844 359.708 117.168 360.14 116.588C360.572 116.009 361.168 115.557 361.93 115.233C362.691 114.903 363.563 114.739 364.546 114.739C365.961 114.739 367.075 115.045 367.887 115.659C368.7 116.267 369.237 117.082 369.498 118.105ZM377.478 128.264C376.188 128.264 375.077 127.989 374.145 127.438C373.219 126.881 372.503 126.099 371.997 125.094C371.497 124.082 371.247 122.898 371.247 121.54C371.247 120.199 371.497 119.017 371.997 117.994C372.503 116.972 373.208 116.173 374.111 115.599C375.02 115.026 376.083 114.739 377.299 114.739C378.037 114.739 378.753 114.861 379.446 115.105C380.14 115.349 380.762 115.733 381.313 116.256C381.864 116.778 382.299 117.457 382.617 118.293C382.935 119.122 383.094 120.131 383.094 121.318V122.222H372.688V120.312H380.597C380.597 119.642 380.461 119.048 380.188 118.531C379.915 118.009 379.532 117.597 379.037 117.295C378.549 116.994 377.975 116.844 377.316 116.844C376.6 116.844 375.975 117.02 375.441 117.372C374.912 117.719 374.503 118.173 374.213 118.736C373.929 119.293 373.787 119.898 373.787 120.551V122.043C373.787 122.918 373.941 123.662 374.247 124.276C374.56 124.889 374.995 125.358 375.551 125.682C376.108 126 376.759 126.159 377.503 126.159C377.986 126.159 378.426 126.091 378.824 125.955C379.222 125.812 379.566 125.602 379.855 125.324C380.145 125.045 380.367 124.702 380.52 124.293L382.932 124.727C382.739 125.437 382.392 126.06 381.892 126.594C381.398 127.122 380.776 127.534 380.026 127.83C379.282 128.119 378.432 128.264 377.478 128.264ZM385.202 128V114.909H387.665V116.989H387.801C388.04 116.284 388.46 115.73 389.062 115.327C389.67 114.918 390.358 114.713 391.125 114.713C391.284 114.713 391.471 114.719 391.687 114.73C391.909 114.741 392.082 114.756 392.207 114.773V117.21C392.105 117.182 391.923 117.151 391.662 117.116C391.4 117.077 391.139 117.057 390.878 117.057C390.275 117.057 389.738 117.185 389.267 117.44C388.801 117.69 388.432 118.04 388.159 118.489C387.886 118.932 387.75 119.437 387.75 120.006V128H385.202ZM399.529 128V110.545H410.352V112.812H402.162V118.131H409.577V120.389H402.162V128H399.529ZM415.215 110.545V128H412.667V110.545H415.215ZM423.437 128.264C422.21 128.264 421.139 127.983 420.224 127.42C419.309 126.858 418.599 126.071 418.094 125.06C417.588 124.048 417.335 122.866 417.335 121.514C417.335 120.156 417.588 118.969 418.094 117.952C418.599 116.935 419.309 116.145 420.224 115.582C421.139 115.02 422.21 114.739 423.437 114.739C424.665 114.739 425.736 115.02 426.65 115.582C427.565 116.145 428.275 116.935 428.781 117.952C429.287 118.969 429.54 120.156 429.54 121.514C429.54 122.866 429.287 124.048 428.781 125.06C428.275 126.071 427.565 126.858 426.65 127.42C425.736 127.983 424.665 128.264 423.437 128.264ZM423.446 126.125C424.241 126.125 424.9 125.915 425.423 125.494C425.946 125.074 426.332 124.514 426.582 123.815C426.838 123.116 426.966 122.347 426.966 121.506C426.966 120.67 426.838 119.903 426.582 119.205C426.332 118.5 425.946 117.935 425.423 117.509C424.9 117.082 424.241 116.869 423.446 116.869C422.645 116.869 421.98 117.082 421.451 117.509C420.929 117.935 420.54 118.5 420.284 119.205C420.034 119.903 419.909 120.67 419.909 121.506C419.909 122.347 420.034 123.116 420.284 123.815C420.54 124.514 420.929 125.074 421.451 125.494C421.98 125.915 422.645 126.125 423.446 126.125ZM434.104 128L430.251 114.909H432.885L435.45 124.523H435.578L438.152 114.909H440.785L443.342 124.48H443.47L446.018 114.909H448.652L444.808 128H442.209L439.55 118.548H439.354L436.695 128H434.104ZM460.16 118.105L457.85 118.514C457.754 118.219 457.6 117.937 457.39 117.67C457.185 117.403 456.907 117.185 456.555 117.014C456.203 116.844 455.762 116.759 455.234 116.759C454.512 116.759 453.91 116.92 453.427 117.244C452.944 117.562 452.703 117.974 452.703 118.48C452.703 118.918 452.864 119.27 453.188 119.537C453.512 119.804 454.035 120.023 454.757 120.193L456.836 120.67C458.041 120.949 458.938 121.378 459.529 121.957C460.12 122.537 460.416 123.29 460.416 124.216C460.416 125 460.188 125.699 459.734 126.312C459.285 126.92 458.657 127.398 457.85 127.744C457.049 128.091 456.12 128.264 455.063 128.264C453.597 128.264 452.401 127.952 451.475 127.327C450.549 126.696 449.981 125.801 449.771 124.642L452.234 124.267C452.387 124.909 452.703 125.395 453.18 125.724C453.657 126.048 454.279 126.21 455.046 126.21C455.882 126.21 456.549 126.037 457.049 125.69C457.549 125.338 457.799 124.909 457.799 124.403C457.799 123.994 457.646 123.651 457.339 123.372C457.038 123.094 456.575 122.884 455.95 122.741L453.734 122.256C452.512 121.977 451.609 121.534 451.024 120.926C450.444 120.318 450.154 119.548 450.154 118.616C450.154 117.844 450.37 117.168 450.802 116.588C451.234 116.009 451.83 115.557 452.592 115.233C453.353 114.903 454.225 114.739 455.208 114.739C456.623 114.739 457.737 115.045 458.549 115.659C459.362 116.267 459.899 117.082 460.16 118.105Z" fill="black"/>
<path fill-rule="evenodd" clip-rule="evenodd" d="M434 24V16L394 16V24L394 32L362 32V40L394 40H402L434 40V32L402 32L402 24L434 24ZM434 80V88L362 88V80L434 80ZM450 56V48H418H410L378 48V56H410L410 64L378 64V72H410L418 72V64L418 56H450Z" fill="#D034F5"/>
<path d="M545.918 128V110.545H552.139C553.497 110.545 554.622 110.793 555.514 111.287C556.406 111.781 557.074 112.457 557.517 113.315C557.96 114.168 558.182 115.128 558.182 116.196C558.182 117.27 557.957 118.236 557.509 119.094C557.065 119.946 556.395 120.622 555.497 121.122C554.605 121.616 553.483 121.864 552.131 121.864H547.852V119.631H551.892C552.75 119.631 553.446 119.483 553.98 119.188C554.514 118.886 554.906 118.477 555.156 117.96C555.406 117.443 555.531 116.855 555.531 116.196C555.531 115.537 555.406 114.952 555.156 114.44C554.906 113.929 554.511 113.528 553.972 113.239C553.438 112.949 552.733 112.804 551.858 112.804H548.551V128H545.918ZM560.345 128V114.909H562.808V116.989H562.944C563.183 116.284 563.603 115.73 564.205 115.327C564.813 114.918 565.501 114.713 566.268 114.713C566.427 114.713 566.615 114.719 566.83 114.73C567.052 114.741 567.225 114.756 567.35 114.773V117.21C567.248 117.182 567.066 117.151 566.805 117.116C566.543 117.077 566.282 117.057 566.021 117.057C565.418 117.057 564.882 117.185 564.41 117.44C563.944 117.69 563.575 118.04 563.302 118.489C563.029 118.932 562.893 119.437 562.893 120.006V128H560.345ZM568.836 128V114.909H571.384V128H568.836ZM570.122 112.889C569.679 112.889 569.299 112.741 568.98 112.446C568.668 112.145 568.512 111.787 568.512 111.372C568.512 110.952 568.668 110.594 568.98 110.298C569.299 109.997 569.679 109.847 570.122 109.847C570.566 109.847 570.944 109.997 571.256 110.298C571.574 110.594 571.733 110.952 571.733 111.372C571.733 111.787 571.574 112.145 571.256 112.446C570.944 112.741 570.566 112.889 570.122 112.889ZM579.606 128.264C578.379 128.264 577.308 127.983 576.393 127.42C575.478 126.858 574.768 126.071 574.263 125.06C573.757 124.048 573.504 122.866 573.504 121.514C573.504 120.156 573.757 118.969 574.263 117.952C574.768 116.935 575.478 116.145 576.393 115.582C577.308 115.02 578.379 114.739 579.606 114.739C580.834 114.739 581.905 115.02 582.819 115.582C583.734 116.145 584.444 116.935 584.95 117.952C585.456 118.969 585.709 120.156 585.709 121.514C585.709 122.866 585.456 124.048 584.95 125.06C584.444 126.071 583.734 126.858 582.819 127.42C581.905 127.983 580.834 128.264 579.606 128.264ZM579.615 126.125C580.41 126.125 581.069 125.915 581.592 125.494C582.115 125.074 582.501 124.514 582.751 123.815C583.007 123.116 583.135 122.347 583.135 121.506C583.135 120.67 583.007 119.903 582.751 119.205C582.501 118.5 582.115 117.935 581.592 117.509C581.069 117.082 580.41 116.869 579.615 116.869C578.814 116.869 578.149 117.082 577.621 117.509C577.098 117.935 576.709 118.5 576.453 119.205C576.203 119.903 576.078 120.67 576.078 121.506C576.078 122.347 576.203 123.116 576.453 123.815C576.709 124.514 577.098 125.074 577.621 125.494C578.149 125.915 578.814 126.125 579.615 126.125ZM587.833 128V114.909H590.296V116.989H590.432C590.671 116.284 591.092 115.73 591.694 115.327C592.302 114.918 592.989 114.713 593.756 114.713C593.915 114.713 594.103 114.719 594.319 114.73C594.54 114.741 594.714 114.756 594.839 114.773V117.21C594.736 117.182 594.555 117.151 594.293 117.116C594.032 117.077 593.771 117.057 593.509 117.057C592.907 117.057 592.37 117.185 591.898 117.44C591.432 117.69 591.063 118.04 590.79 118.489C590.518 118.932 590.381 119.437 590.381 120.006V128H587.833ZM596.324 128V114.909H598.872V128H596.324ZM597.611 112.889C597.168 112.889 596.787 112.741 596.469 112.446C596.156 112.145 596 111.787 596 111.372C596 110.952 596.156 110.594 596.469 110.298C596.787 109.997 597.168 109.847 597.611 109.847C598.054 109.847 598.432 109.997 598.744 110.298C599.063 110.594 599.222 110.952 599.222 111.372C599.222 111.787 599.063 112.145 598.744 112.446C598.432 112.741 598.054 112.889 597.611 112.889ZM607.691 114.909V116.955H600.541V114.909H607.691ZM602.458 111.773H605.007V124.156C605.007 124.651 605.081 125.023 605.228 125.273C605.376 125.517 605.566 125.685 605.799 125.776C606.038 125.861 606.296 125.903 606.575 125.903C606.779 125.903 606.958 125.889 607.112 125.861C607.265 125.832 607.385 125.81 607.47 125.793L607.93 127.898C607.782 127.955 607.572 128.011 607.299 128.068C607.027 128.131 606.686 128.165 606.277 128.17C605.606 128.182 604.981 128.062 604.402 127.812C603.822 127.562 603.353 127.176 602.995 126.653C602.637 126.131 602.458 125.474 602.458 124.685V111.773ZM609.79 128V114.909H612.339V128H609.79ZM611.077 112.889C610.634 112.889 610.253 112.741 609.935 112.446C609.623 112.145 609.466 111.787 609.466 111.372C609.466 110.952 609.623 110.594 609.935 110.298C610.253 109.997 610.634 109.847 611.077 109.847C611.52 109.847 611.898 109.997 612.211 110.298C612.529 110.594 612.688 110.952 612.688 111.372C612.688 111.787 612.529 112.145 612.211 112.446C611.898 112.741 611.52 112.889 611.077 112.889ZM614.774 128V126.253L621.865 117.244V117.125H615.004V114.909H625.044V116.767L618.226 125.665V125.784H625.283V128H614.774ZM632.836 128.264C631.546 128.264 630.435 127.989 629.504 127.438C628.578 126.881 627.862 126.099 627.356 125.094C626.856 124.082 626.606 122.898 626.606 121.54C626.606 120.199 626.856 119.017 627.356 117.994C627.862 116.972 628.566 116.173 629.47 115.599C630.379 115.026 631.441 114.739 632.657 114.739C633.396 114.739 634.112 114.861 634.805 115.105C635.498 115.349 636.12 115.733 636.671 116.256C637.222 116.778 637.657 117.457 637.975 118.293C638.293 119.122 638.453 120.131 638.453 121.318V122.222H628.046V120.312H635.955C635.955 119.642 635.819 119.048 635.546 118.531C635.274 118.009 634.89 117.597 634.396 117.295C633.907 116.994 633.333 116.844 632.674 116.844C631.958 116.844 631.333 117.02 630.799 117.372C630.271 117.719 629.862 118.173 629.572 118.736C629.288 119.293 629.146 119.898 629.146 120.551V122.043C629.146 122.918 629.299 123.662 629.606 124.276C629.918 124.889 630.353 125.358 630.91 125.682C631.467 126 632.117 126.159 632.862 126.159C633.345 126.159 633.785 126.091 634.183 125.955C634.58 125.812 634.924 125.602 635.214 125.324C635.504 125.045 635.725 124.702 635.879 124.293L638.291 124.727C638.097 125.437 637.751 126.06 637.251 126.594C636.757 127.122 636.134 127.534 635.384 127.83C634.64 128.119 633.791 128.264 632.836 128.264Z" fill="black"/>
<path fill-rule="evenodd" clip-rule="evenodd" d="M768 16H744V40H768V16ZM760 24H752V32H760V24Z" fill="#FF7338"/>
<path d="M755.142 110.545H757.784V122.026C757.784 123.247 757.497 124.33 756.923 125.273C756.349 126.21 755.543 126.949 754.503 127.489C753.463 128.023 752.244 128.29 750.847 128.29C749.455 128.29 748.239 128.023 747.199 127.489C746.159 126.949 745.352 126.21 744.778 125.273C744.205 124.33 743.918 123.247 743.918 122.026V110.545H746.551V121.812C746.551 122.602 746.724 123.304 747.071 123.918C747.423 124.531 747.92 125.014 748.562 125.366C749.205 125.713 749.966 125.886 750.847 125.886C751.733 125.886 752.497 125.713 753.139 125.366C753.787 125.014 754.281 124.531 754.622 123.918C754.969 123.304 755.142 122.602 755.142 121.812V110.545ZM770.498 118.105L768.188 118.514C768.092 118.219 767.938 117.937 767.728 117.67C767.524 117.403 767.245 117.185 766.893 117.014C766.541 116.844 766.1 116.759 765.572 116.759C764.85 116.759 764.248 116.92 763.765 117.244C763.282 117.562 763.041 117.974 763.041 118.48C763.041 118.918 763.203 119.27 763.526 119.537C763.85 119.804 764.373 120.023 765.095 120.193L767.174 120.67C768.379 120.949 769.276 121.378 769.867 121.957C770.458 122.537 770.754 123.29 770.754 124.216C770.754 125 770.526 125.699 770.072 126.312C769.623 126.92 768.995 127.398 768.188 127.744C767.387 128.091 766.458 128.264 765.401 128.264C763.936 128.264 762.74 127.952 761.813 127.327C760.887 126.696 760.319 125.801 760.109 124.642L762.572 124.267C762.725 124.909 763.041 125.395 763.518 125.724C763.995 126.048 764.617 126.21 765.384 126.21C766.22 126.21 766.887 126.037 767.387 125.69C767.887 125.338 768.137 124.909 768.137 124.403C768.137 123.994 767.984 123.651 767.677 123.372C767.376 123.094 766.913 122.884 766.288 122.741L764.072 122.256C762.85 121.977 761.947 121.534 761.362 120.926C760.782 120.318 760.492 119.548 760.492 118.616C760.492 117.844 760.708 117.168 761.14 116.588C761.572 116.009 762.168 115.557 762.93 115.233C763.691 114.903 764.563 114.739 765.546 114.739C766.961 114.739 768.075 115.045 768.887 115.659C769.7 116.267 770.237 117.082 770.498 118.105ZM778.478 128.264C777.188 128.264 776.077 127.989 775.145 127.438C774.219 126.881 773.503 126.099 772.997 125.094C772.497 124.082 772.247 122.898 772.247 121.54C772.247 120.199 772.497 119.017 772.997 117.994C773.503 116.972 774.208 116.173 775.111 115.599C776.02 115.026 777.083 114.739 778.299 114.739C779.037 114.739 779.753 114.861 780.446 115.105C781.14 115.349 781.762 115.733 782.313 116.256C782.864 116.778 783.299 117.457 783.617 118.293C783.935 119.122 784.094 120.131 784.094 121.318V122.222H773.688V120.312H781.597C781.597 119.642 781.461 119.048 781.188 118.531C780.915 118.009 780.532 117.597 780.037 117.295C779.549 116.994 778.975 116.844 778.316 116.844C777.6 116.844 776.975 117.02 776.441 117.372C775.912 117.719 775.503 118.173 775.213 118.736C774.929 119.293 774.787 119.898 774.787 120.551V122.043C774.787 122.918 774.941 123.662 775.247 124.276C775.56 124.889 775.995 125.358 776.551 125.682C777.108 126 777.759 126.159 778.503 126.159C778.986 126.159 779.426 126.091 779.824 125.955C780.222 125.812 780.566 125.602 780.855 125.324C781.145 125.045 781.367 124.702 781.52 124.293L783.932 124.727C783.739 125.437 783.392 126.06 782.892 126.594C782.398 127.122 781.776 127.534 781.026 127.83C780.282 128.119 779.432 128.264 778.478 128.264ZM786.202 128V114.909H788.665V116.989H788.801C789.04 116.284 789.46 115.73 790.062 115.327C790.67 114.918 791.358 114.713 792.125 114.713C792.284 114.713 792.471 114.719 792.687 114.73C792.909 114.741 793.082 114.756 793.207 114.773V117.21C793.105 117.182 792.923 117.151 792.662 117.116C792.4 117.077 792.139 117.057 791.878 117.057C791.275 117.057 790.738 117.185 790.267 117.44C789.801 117.69 789.432 118.04 789.159 118.489C788.886 118.932 788.75 119.437 788.75 120.006V128H786.202ZM810.048 115.131C809.958 114.324 809.583 113.699 808.923 113.256C808.264 112.807 807.435 112.582 806.435 112.582C805.719 112.582 805.1 112.696 804.577 112.923C804.054 113.145 803.648 113.452 803.358 113.844C803.074 114.23 802.932 114.67 802.932 115.165C802.932 115.58 803.029 115.937 803.222 116.239C803.421 116.54 803.679 116.793 803.997 116.997C804.321 117.196 804.668 117.364 805.037 117.5C805.406 117.631 805.762 117.739 806.102 117.824L807.807 118.267C808.364 118.403 808.935 118.588 809.52 118.821C810.105 119.054 810.648 119.361 811.148 119.741C811.648 120.122 812.051 120.594 812.358 121.156C812.671 121.719 812.827 122.392 812.827 123.176C812.827 124.165 812.571 125.043 812.06 125.81C811.554 126.577 810.818 127.182 809.852 127.625C808.892 128.068 807.73 128.29 806.367 128.29C805.06 128.29 803.929 128.082 802.975 127.668C802.02 127.253 801.273 126.665 800.733 125.903C800.193 125.136 799.895 124.227 799.838 123.176H802.48C802.531 123.807 802.736 124.332 803.094 124.753C803.458 125.168 803.921 125.477 804.483 125.682C805.051 125.881 805.673 125.98 806.35 125.98C807.094 125.98 807.756 125.864 808.335 125.631C808.921 125.392 809.381 125.062 809.716 124.642C810.051 124.216 810.219 123.719 810.219 123.151C810.219 122.634 810.071 122.21 809.776 121.881C809.486 121.551 809.091 121.278 808.591 121.062C808.097 120.847 807.537 120.656 806.912 120.491L804.85 119.929C803.452 119.548 802.344 118.989 801.526 118.25C800.713 117.511 800.307 116.534 800.307 115.318C800.307 114.312 800.58 113.435 801.125 112.685C801.671 111.935 802.409 111.352 803.341 110.938C804.273 110.517 805.324 110.307 806.494 110.307C807.676 110.307 808.719 110.514 809.622 110.929C810.531 111.344 811.247 111.915 811.77 112.642C812.293 113.364 812.565 114.193 812.588 115.131H810.048ZM821.16 114.909V116.955H814.01V114.909H821.16ZM815.927 111.773H818.475V124.156C818.475 124.651 818.549 125.023 818.697 125.273C818.845 125.517 819.035 125.685 819.268 125.776C819.507 125.861 819.765 125.903 820.044 125.903C820.248 125.903 820.427 125.889 820.581 125.861C820.734 125.832 820.853 125.81 820.939 125.793L821.399 127.898C821.251 127.955 821.041 128.011 820.768 128.068C820.495 128.131 820.154 128.165 819.745 128.17C819.075 128.182 818.45 128.062 817.87 127.812C817.291 127.562 816.822 127.176 816.464 126.653C816.106 126.131 815.927 125.474 815.927 124.685V111.773ZM828.633 128.264C827.405 128.264 826.334 127.983 825.42 127.42C824.505 126.858 823.795 126.071 823.289 125.06C822.783 124.048 822.53 122.866 822.53 121.514C822.53 120.156 822.783 118.969 823.289 117.952C823.795 116.935 824.505 116.145 825.42 115.582C826.334 115.02 827.405 114.739 828.633 114.739C829.86 114.739 830.931 115.02 831.846 115.582C832.76 116.145 833.471 116.935 833.976 117.952C834.482 118.969 834.735 120.156 834.735 121.514C834.735 122.866 834.482 124.048 833.976 125.06C833.471 126.071 832.76 126.858 831.846 127.42C830.931 127.983 829.86 128.264 828.633 128.264ZM828.641 126.125C829.437 126.125 830.096 125.915 830.618 125.494C831.141 125.074 831.527 124.514 831.777 123.815C832.033 123.116 832.161 122.347 832.161 121.506C832.161 120.67 832.033 119.903 831.777 119.205C831.527 118.5 831.141 117.935 830.618 117.509C830.096 117.082 829.437 116.869 828.641 116.869C827.84 116.869 827.175 117.082 826.647 117.509C826.124 117.935 825.735 118.5 825.479 119.205C825.229 119.903 825.104 120.67 825.104 121.506C825.104 122.347 825.229 123.116 825.479 123.815C825.735 124.514 826.124 125.074 826.647 125.494C827.175 125.915 827.84 126.125 828.641 126.125ZM836.859 128V114.909H839.322V116.989H839.459C839.697 116.284 840.118 115.73 840.72 115.327C841.328 114.918 842.016 114.713 842.783 114.713C842.942 114.713 843.129 114.719 843.345 114.73C843.567 114.741 843.74 114.756 843.865 114.773V117.21C843.763 117.182 843.581 117.151 843.32 117.116C843.058 117.077 842.797 117.057 842.535 117.057C841.933 117.057 841.396 117.185 840.925 117.44C840.459 117.69 840.089 118.04 839.817 118.489C839.544 118.932 839.408 119.437 839.408 120.006V128H836.859ZM845.35 128V114.909H847.899V128H845.35ZM846.637 112.889C846.194 112.889 845.813 112.741 845.495 112.446C845.183 112.145 845.026 111.787 845.026 111.372C845.026 110.952 845.183 110.594 845.495 110.298C845.813 109.997 846.194 109.847 846.637 109.847C847.08 109.847 847.458 109.997 847.771 110.298C848.089 110.594 848.248 110.952 848.248 111.372C848.248 111.787 848.089 112.145 847.771 112.446C847.458 112.741 847.08 112.889 846.637 112.889ZM856.249 128.264C854.959 128.264 853.848 127.989 852.916 127.438C851.99 126.881 851.274 126.099 850.769 125.094C850.269 124.082 850.019 122.898 850.019 121.54C850.019 120.199 850.269 119.017 850.769 117.994C851.274 116.972 851.979 116.173 852.882 115.599C853.791 115.026 854.854 114.739 856.07 114.739C856.809 114.739 857.524 114.861 858.218 115.105C858.911 115.349 859.533 115.733 860.084 116.256C860.635 116.778 861.07 117.457 861.388 118.293C861.706 119.122 861.865 120.131 861.865 121.318V122.222H851.459V120.312H859.368C859.368 119.642 859.232 119.048 858.959 118.531C858.686 118.009 858.303 117.597 857.809 117.295C857.32 116.994 856.746 116.844 856.087 116.844C855.371 116.844 854.746 117.02 854.212 117.372C853.684 117.719 853.274 118.173 852.985 118.736C852.701 119.293 852.559 119.898 852.559 120.551V122.043C852.559 122.918 852.712 123.662 853.019 124.276C853.331 124.889 853.766 125.358 854.323 125.682C854.88 126 855.53 126.159 856.274 126.159C856.757 126.159 857.198 126.091 857.595 125.955C857.993 125.812 858.337 125.602 858.627 125.324C858.916 125.045 859.138 124.702 859.291 124.293L861.703 124.727C861.51 125.437 861.164 126.06 860.664 126.594C860.169 127.122 859.547 127.534 858.797 127.83C858.053 128.119 857.203 128.264 856.249 128.264ZM873.782 118.105L871.473 118.514C871.376 118.219 871.223 117.937 871.013 117.67C870.808 117.403 870.53 117.185 870.177 117.014C869.825 116.844 869.385 116.759 868.856 116.759C868.135 116.759 867.532 116.92 867.049 117.244C866.567 117.562 866.325 117.974 866.325 118.48C866.325 118.918 866.487 119.27 866.811 119.537C867.135 119.804 867.657 120.023 868.379 120.193L870.459 120.67C871.663 120.949 872.561 121.378 873.152 121.957C873.743 122.537 874.038 123.29 874.038 124.216C874.038 125 873.811 125.699 873.356 126.312C872.907 126.92 872.28 127.398 871.473 127.744C870.672 128.091 869.743 128.264 868.686 128.264C867.22 128.264 866.024 127.952 865.098 127.327C864.172 126.696 863.603 125.801 863.393 124.642L865.856 124.267C866.01 124.909 866.325 125.395 866.802 125.724C867.28 126.048 867.902 126.21 868.669 126.21C869.504 126.21 870.172 126.037 870.672 125.69C871.172 125.338 871.422 124.909 871.422 124.403C871.422 123.994 871.268 123.651 870.961 123.372C870.66 123.094 870.197 122.884 869.572 122.741L867.356 122.256C866.135 121.977 865.231 121.534 864.646 120.926C864.067 120.318 863.777 119.548 863.777 118.616C863.777 117.844 863.993 117.168 864.424 116.588C864.856 116.009 865.453 115.557 866.214 115.233C866.976 114.903 867.848 114.739 868.831 114.739C870.245 114.739 871.359 115.045 872.172 115.659C872.984 116.267 873.521 117.082 873.782 118.105Z" fill="black"/>
<path fill-rule="evenodd" clip-rule="evenodd" d="M768 48H744V72H768V48ZM760 56H752V64H760V56Z" fill="#FF7338"/>
<rect x="792" y="32" width="8" height="8" fill="#FCB191"/>
<rect x="792" y="64" width="8" height="8" fill="#FCB191"/>
<rect x="784" y="24" width="8" height="8" fill="#FCB191"/>
<rect x="784" y="56" width="8" height="8" fill="#FCB191"/>
<rect x="776" y="16" width="8" height="8" fill="#FCB191"/>
<rect x="776" y="48" width="8" height="8" fill="#FCB191"/>
<rect x="744" y="80" width="8" height="8" fill="#FCB191"/>
<rect x="800" y="24" width="16" height="8" fill="#FCB191"/>
<rect x="800" y="56" width="16" height="8" fill="#FCB191"/>
<rect x="760" y="80" width="24" height="8" fill="#FCB191"/>
<rect x="792" y="80" width="40" height="8" fill="#FCB191"/>
<path fill-rule="evenodd" clip-rule="evenodd" d="M592 48V8H584V48H544V56H584V96H592V56H632V48H592Z" fill="#07ABAB"/>
<rect x="816" y="16" width="16" height="8" fill="#FCB191"/>
<rect x="816" y="48" width="16" height="8" fill="#FCB191"/>
<path fill-rule="evenodd" clip-rule="evenodd" d="M560 8H544V24H560V8Z" fill="#31DEDE"/>
<path fill-rule="evenodd" clip-rule="evenodd" d="M584 24H568V40H584V24Z" fill="#31DEDE"/>
<path fill-rule="evenodd" clip-rule="evenodd" d="M616 8H600V24H616V8Z" fill="#31DEDE"/>
<path fill-rule="evenodd" clip-rule="evenodd" d="M632 32H616V48H632V32Z" fill="#31DEDE"/>
<path fill-rule="evenodd" clip-rule="evenodd" d="M568 71H552V87H568V71Z" fill="#31DEDE"/>
<path fill-rule="evenodd" clip-rule="evenodd" d="M624 79H608V95H624V79Z" fill="#31DEDE"/>
</g>
<defs>
<clipPath id="clip0_272_13519">
<rect width="1073" height="152" fill="white"/>
</clipPath>
</defs>
</svg>
