<svg width="516" height="219" viewBox="0 0 516 219" fill="none" xmlns="http://www.w3.org/2000/svg">
<rect width="516" height="219" fill="white"/>
<path d="M143.533 21.384C141.262 21.384 139.428 20.7656 138.031 19.5288C136.677 18.2479 136 16.6577 136 14.7583C136 12.8147 136.677 11.2025 138.031 9.92148C139.428 8.64049 141.262 8 143.533 8C145.76 8 147.55 8.64049 148.904 9.92148C150.301 11.2025 151 12.8147 151 14.7583C151 16.6577 150.301 18.2479 148.904 19.5288C147.55 20.7656 145.76 21.384 143.533 21.384ZM149.886 24.8294V62H137.048V24.8294H149.886Z" fill="#852CDC"/>
<path d="M105.761 29.8581C106.76 28.1089 108.17 26.7532 109.993 25.7912C111.816 24.7854 113.965 24.2825 116.439 24.2825C119.347 24.2825 121.973 25.0477 124.317 26.5783C126.705 28.1089 128.571 30.2954 129.917 33.1379C131.306 35.9804 132 39.3039 132 43.1084C132 46.913 131.306 50.2584 129.917 53.1446C128.571 55.9871 126.705 58.1736 124.317 59.7042C121.973 61.2347 119.347 62 116.439 62C113.965 62 111.816 61.519 109.993 60.5569C108.17 59.5511 106.76 58.1736 105.761 56.4244V61.5408H93V13H105.761V29.8581ZM119.043 43.1084C119.043 40.7033 118.392 38.8447 117.09 37.5328C115.831 36.1772 114.269 35.4993 112.402 35.4993C110.536 35.4993 108.952 36.1772 107.649 37.5328C106.391 38.8884 105.761 40.747 105.761 43.1084C105.761 45.5136 106.391 47.394 107.649 48.7497C108.952 50.1053 110.536 50.7831 112.402 50.7831C114.269 50.7831 115.831 50.1053 117.09 48.7497C118.392 47.3503 119.043 45.4699 119.043 43.1084Z" fill="#852CDC"/>
<path d="M68.9354 62C65.3163 62 62.0635 61.229 59.1769 59.687C56.3333 58.1449 54.093 55.942 52.4558 53.0783C50.8186 50.2145 50 46.8441 50 42.967C50 39.1339 50.8186 35.7855 52.4558 32.9217C54.1361 30.058 56.398 27.8551 59.2415 26.313C62.1281 24.771 65.381 24 69 24C72.619 24 75.8503 24.771 78.6939 26.313C81.5805 27.8551 83.8424 30.058 85.4796 32.9217C87.1599 35.7855 88 39.1339 88 42.967C88 46.8 87.1599 50.1704 85.4796 53.0783C83.8424 55.942 81.5805 58.1449 78.6939 59.687C75.8073 61.229 72.5544 62 68.9354 62ZM68.9354 50.7652C70.7018 50.7652 72.1667 50.1043 73.3299 48.7826C74.5363 47.4168 75.1395 45.4783 75.1395 42.967C75.1395 40.4557 74.5363 38.5391 73.3299 37.2174C72.1667 35.8957 70.7234 35.2348 69 35.2348C67.2766 35.2348 65.8333 35.8957 64.6701 37.2174C63.5068 38.5391 62.9252 40.4557 62.9252 42.967C62.9252 45.5223 63.4853 47.4609 64.6054 48.7826C65.7256 50.1043 67.1689 50.7652 68.9354 50.7652Z" fill="#852CDC"/>
<path d="M54 16L37.5382 47.3844V62H24.4618V47.3844L8 16H22.8687L31.0996 33.7475L39.3304 16H54Z" fill="#852CDC"/>
<circle cx="208" cy="38" r="24" fill="#852CDC"/>
<circle cx="291" cy="38" r="24" fill="#F2E9FA"/>
<circle cx="384" cy="38" r="23.5" fill="#F0F5FB" stroke="#3D3C40"/>
<circle cx="472" cy="38" r="24" fill="#3D3C40"/>
<path d="M191.164 70.2882C191.164 70.7762 191.052 71.2242 190.828 71.6322C190.604 72.0322 190.26 72.3562 189.796 72.6042C189.332 72.8522 188.756 72.9762 188.068 72.9762H186.796V76.0002H184.744V67.5762H188.068C188.74 67.5762 189.308 67.6922 189.772 67.9242C190.236 68.1562 190.584 68.4762 190.816 68.8842C191.048 69.2922 191.164 69.7602 191.164 70.2882ZM187.912 71.3442C188.304 71.3442 188.596 71.2522 188.788 71.0682C188.98 70.8842 189.076 70.6242 189.076 70.2882C189.076 69.9522 188.98 69.6922 188.788 69.5082C188.596 69.3242 188.304 69.2322 187.912 69.2322H186.796V71.3442H187.912Z" fill="black"/>
<path d="M194.285 70.4202C194.525 70.0522 194.825 69.7642 195.185 69.5562C195.545 69.3402 195.945 69.2322 196.385 69.2322V71.4042H195.821C195.309 71.4042 194.925 71.5162 194.669 71.7402C194.413 71.9562 194.285 72.3402 194.285 72.8922V76.0002H192.233V69.3042H194.285V70.4202Z" fill="black"/>
<path d="M198.398 68.6082C198.038 68.6082 197.742 68.5042 197.51 68.2962C197.286 68.0802 197.174 67.8162 197.174 67.5042C197.174 67.1842 197.286 66.9202 197.51 66.7122C197.742 66.4962 198.038 66.3882 198.398 66.3882C198.75 66.3882 199.038 66.4962 199.262 66.7122C199.494 66.9202 199.61 67.1842 199.61 67.5042C199.61 67.8162 199.494 68.0802 199.262 68.2962C199.038 68.5042 198.75 68.6082 198.398 68.6082ZM199.418 69.3042V76.0002H197.366V69.3042H199.418Z" fill="black"/>
<path d="M209.449 69.2322C210.281 69.2322 210.941 69.4842 211.429 69.9882C211.925 70.4922 212.173 71.1922 212.173 72.0882V76.0002H210.133V72.3642C210.133 71.9322 210.017 71.6002 209.785 71.3682C209.561 71.1282 209.249 71.0082 208.849 71.0082C208.449 71.0082 208.133 71.1282 207.901 71.3682C207.677 71.6002 207.565 71.9322 207.565 72.3642V76.0002H205.525V72.3642C205.525 71.9322 205.409 71.6002 205.177 71.3682C204.953 71.1282 204.641 71.0082 204.241 71.0082C203.841 71.0082 203.525 71.1282 203.293 71.3682C203.069 71.6002 202.957 71.9322 202.957 72.3642V76.0002H200.905V69.3042H202.957V70.1442C203.165 69.8642 203.437 69.6442 203.773 69.4842C204.109 69.3162 204.489 69.2322 204.913 69.2322C205.417 69.2322 205.865 69.3402 206.257 69.5562C206.657 69.7722 206.969 70.0802 207.193 70.4802C207.425 70.1122 207.741 69.8122 208.141 69.5802C208.541 69.3482 208.977 69.2322 209.449 69.2322Z" fill="black"/>
<path d="M213.2 72.6402C213.2 71.9522 213.328 71.3482 213.584 70.8282C213.848 70.3082 214.204 69.9082 214.652 69.6282C215.1 69.3482 215.6 69.2082 216.152 69.2082C216.624 69.2082 217.036 69.3042 217.388 69.4962C217.748 69.6882 218.024 69.9402 218.216 70.2522V69.3042H220.268V76.0002H218.216V75.0522C218.016 75.3642 217.736 75.6162 217.376 75.8082C217.024 76.0002 216.612 76.0962 216.14 76.0962C215.596 76.0962 215.1 75.9562 214.652 75.6762C214.204 75.3882 213.848 74.9842 213.584 74.4642C213.328 73.9362 213.2 73.3282 213.2 72.6402ZM218.216 72.6522C218.216 72.1402 218.072 71.7362 217.784 71.4402C217.504 71.1442 217.16 70.9962 216.752 70.9962C216.344 70.9962 215.996 71.1442 215.708 71.4402C215.428 71.7282 215.288 72.1282 215.288 72.6402C215.288 73.1522 215.428 73.5602 215.708 73.8642C215.996 74.1602 216.344 74.3082 216.752 74.3082C217.16 74.3082 217.504 74.1602 217.784 73.8642C218.072 73.5682 218.216 73.1642 218.216 72.6522Z" fill="black"/>
<path d="M223.804 70.4202C224.044 70.0522 224.344 69.7642 224.704 69.5562C225.064 69.3402 225.464 69.2322 225.904 69.2322V71.4042H225.34C224.828 71.4042 224.444 71.5162 224.188 71.7402C223.932 71.9562 223.804 72.3402 223.804 72.8922V76.0002H221.752V69.3042H223.804V70.4202Z" fill="black"/>
<path d="M233.725 69.3042L229.525 79.1802H227.317L228.853 75.7722L226.129 69.3042H228.421L229.969 73.4922L231.505 69.3042H233.725Z" fill="black"/>
<path d="M190.516 89.0842C190.516 89.7802 190.276 90.3602 189.796 90.8242C189.324 91.2802 188.6 91.5082 187.624 91.5082H186.016V95.0002H184.924V86.6362H187.624C188.568 86.6362 189.284 86.8642 189.772 87.3202C190.268 87.7762 190.516 88.3642 190.516 89.0842ZM187.624 90.6082C188.232 90.6082 188.68 90.4762 188.968 90.2122C189.256 89.9482 189.4 89.5722 189.4 89.0842C189.4 88.0522 188.808 87.5362 187.624 87.5362H186.016V90.6082H187.624Z" fill="black"/>
<path d="M197.706 88.4242V95.0002H196.614V94.0282C196.406 94.3642 196.114 94.6282 195.738 94.8202C195.37 95.0042 194.962 95.0962 194.514 95.0962C194.002 95.0962 193.542 94.9922 193.134 94.7842C192.726 94.5682 192.402 94.2482 192.162 93.8242C191.93 93.4002 191.814 92.8842 191.814 92.2762V88.4242H192.894V92.1322C192.894 92.7802 193.058 93.2802 193.386 93.6322C193.714 93.9762 194.162 94.1482 194.73 94.1482C195.314 94.1482 195.774 93.9682 196.11 93.6082C196.446 93.2482 196.614 92.7242 196.614 92.0362V88.4242H197.706Z" fill="black"/>
<path d="M200.641 89.4922C200.833 89.1162 201.105 88.8242 201.457 88.6162C201.817 88.4082 202.253 88.3042 202.765 88.3042V89.4322H202.477C201.253 89.4322 200.641 90.0962 200.641 91.4242V95.0002H199.549V88.4242H200.641V89.4922Z" fill="black"/>
<path d="M205.118 89.6362C205.334 89.2602 205.654 88.9482 206.078 88.7002C206.51 88.4442 207.01 88.3162 207.578 88.3162C208.162 88.3162 208.69 88.4562 209.162 88.7362C209.642 89.0162 210.018 89.4122 210.29 89.9242C210.562 90.4282 210.698 91.0162 210.698 91.6882C210.698 92.3522 210.562 92.9442 210.29 93.4642C210.018 93.9842 209.642 94.3882 209.162 94.6762C208.69 94.9642 208.162 95.1082 207.578 95.1082C207.018 95.1082 206.522 94.9842 206.09 94.7362C205.666 94.4802 205.342 94.1642 205.118 93.7882V98.1202H204.026V88.4242H205.118V89.6362ZM209.582 91.6882C209.582 91.1922 209.482 90.7602 209.282 90.3922C209.082 90.0242 208.81 89.7442 208.466 89.5522C208.13 89.3602 207.758 89.2642 207.35 89.2642C206.95 89.2642 206.578 89.3642 206.234 89.5642C205.898 89.7562 205.626 90.0402 205.418 90.4162C205.218 90.7842 205.118 91.2122 205.118 91.7002C205.118 92.1962 205.218 92.6322 205.418 93.0082C205.626 93.3762 205.898 93.6602 206.234 93.8602C206.578 94.0522 206.95 94.1482 207.35 94.1482C207.758 94.1482 208.13 94.0522 208.466 93.8602C208.81 93.6602 209.082 93.3762 209.282 93.0082C209.482 92.6322 209.582 92.1922 209.582 91.6882Z" fill="black"/>
<path d="M213.227 86.1202V95.0002H212.135V86.1202H213.227Z" fill="black"/>
<path d="M221.089 91.4602C221.089 91.6682 221.077 91.8882 221.053 92.1202H215.797C215.837 92.7682 216.057 93.2762 216.457 93.6442C216.865 94.0042 217.357 94.1842 217.933 94.1842C218.405 94.1842 218.797 94.0762 219.109 93.8602C219.429 93.6362 219.653 93.3402 219.781 92.9722H220.957C220.781 93.6042 220.429 94.1202 219.901 94.5202C219.373 94.9122 218.717 95.1082 217.933 95.1082C217.309 95.1082 216.749 94.9682 216.253 94.6882C215.765 94.4082 215.381 94.0122 215.101 93.5002C214.821 92.9802 214.681 92.3802 214.681 91.7002C214.681 91.0202 214.817 90.4242 215.089 89.9122C215.361 89.4002 215.741 89.0082 216.229 88.7362C216.725 88.4562 217.293 88.3162 217.933 88.3162C218.557 88.3162 219.109 88.4522 219.589 88.7242C220.069 88.9962 220.437 89.3722 220.693 89.8522C220.957 90.3242 221.089 90.8602 221.089 91.4602ZM219.961 91.2322C219.961 90.8162 219.869 90.4602 219.685 90.1642C219.501 89.8602 219.249 89.6322 218.929 89.4802C218.617 89.3202 218.269 89.2402 217.885 89.2402C217.333 89.2402 216.861 89.4162 216.469 89.7682C216.085 90.1202 215.865 90.6082 215.809 91.2322H219.961Z" fill="black"/>
<path d="M191.548 108.48L191.092 110.64H192.748V111.6H190.888L190.372 114H189.328L189.844 111.6H187.324L186.808 114H185.764L186.28 111.6H184.396V110.64H186.484L186.94 108.48H185.08V107.52H187.144L187.66 105.12H188.704L188.188 107.52H190.708L191.224 105.12H192.268L191.752 107.52H193.42V108.48H191.548ZM190.504 108.48H187.984L187.528 110.64H190.048L190.504 108.48Z" fill="black"/>
<path d="M196.407 109.488C195.959 109.312 195.615 109.056 195.375 108.72C195.135 108.384 195.015 107.976 195.015 107.496C195.015 107.064 195.123 106.676 195.339 106.332C195.555 105.98 195.875 105.704 196.299 105.504C196.731 105.296 197.251 105.192 197.859 105.192C198.467 105.192 198.983 105.296 199.407 105.504C199.839 105.704 200.163 105.98 200.379 106.332C200.603 106.676 200.715 107.064 200.715 107.496C200.715 107.96 200.591 108.368 200.343 108.72C200.095 109.064 199.755 109.32 199.323 109.488C199.819 109.64 200.211 109.908 200.499 110.292C200.795 110.668 200.943 111.124 200.943 111.66C200.943 112.18 200.815 112.636 200.559 113.028C200.303 113.412 199.939 113.712 199.467 113.928C199.003 114.136 198.467 114.24 197.859 114.24C197.251 114.24 196.715 114.136 196.251 113.928C195.795 113.712 195.439 113.412 195.183 113.028C194.927 112.636 194.799 112.18 194.799 111.66C194.799 111.124 194.943 110.664 195.231 110.28C195.519 109.896 195.911 109.632 196.407 109.488ZM199.659 107.628C199.659 107.14 199.499 106.764 199.179 106.5C198.859 106.236 198.419 106.104 197.859 106.104C197.307 106.104 196.871 106.236 196.551 106.5C196.231 106.764 196.071 107.144 196.071 107.64C196.071 108.088 196.235 108.448 196.563 108.72C196.899 108.992 197.331 109.128 197.859 109.128C198.395 109.128 198.827 108.992 199.155 108.72C199.491 108.44 199.659 108.076 199.659 107.628ZM197.859 109.968C197.267 109.968 196.783 110.108 196.407 110.388C196.031 110.66 195.843 111.072 195.843 111.624C195.843 112.136 196.023 112.548 196.383 112.86C196.751 113.172 197.243 113.328 197.859 113.328C198.475 113.328 198.963 113.172 199.323 112.86C199.683 112.548 199.863 112.136 199.863 111.624C199.863 111.088 199.679 110.68 199.311 110.4C198.943 110.112 198.459 109.968 197.859 109.968Z" fill="black"/>
<path d="M207.925 106.272H203.713V109.008C203.897 108.752 204.169 108.544 204.529 108.384C204.889 108.216 205.277 108.132 205.693 108.132C206.357 108.132 206.897 108.272 207.313 108.552C207.729 108.824 208.025 109.18 208.201 109.62C208.385 110.052 208.477 110.512 208.477 111C208.477 111.576 208.369 112.092 208.153 112.548C207.937 113.004 207.605 113.364 207.157 113.628C206.717 113.892 206.169 114.024 205.513 114.024C204.673 114.024 203.993 113.808 203.473 113.376C202.953 112.944 202.637 112.368 202.525 111.648H203.593C203.697 112.104 203.917 112.46 204.253 112.716C204.589 112.972 205.013 113.1 205.525 113.1C206.157 113.1 206.633 112.912 206.953 112.536C207.273 112.152 207.433 111.648 207.433 111.024C207.433 110.4 207.273 109.92 206.953 109.584C206.633 109.24 206.161 109.068 205.537 109.068C205.113 109.068 204.741 109.172 204.421 109.38C204.109 109.58 203.881 109.856 203.737 110.208H202.705V105.312H207.925V106.272Z" fill="black"/>
<path d="M209.796 113.124C210.812 112.308 211.608 111.64 212.184 111.12C212.76 110.592 213.244 110.044 213.636 109.476C214.036 108.9 214.236 108.336 214.236 107.784C214.236 107.264 214.108 106.856 213.852 106.56C213.604 106.256 213.2 106.104 212.64 106.104C212.096 106.104 211.672 106.276 211.368 106.62C211.072 106.956 210.912 107.408 210.888 107.976H209.832C209.864 107.08 210.136 106.388 210.648 105.9C211.16 105.412 211.82 105.168 212.628 105.168C213.452 105.168 214.104 105.396 214.584 105.852C215.072 106.308 215.316 106.936 215.316 107.736C215.316 108.4 215.116 109.048 214.716 109.68C214.324 110.304 213.876 110.856 213.372 111.336C212.868 111.808 212.224 112.36 211.44 112.992H215.568V113.904H209.796V113.124Z" fill="black"/>
<path d="M216.602 109.812C216.602 108.996 216.786 108.264 217.154 107.616C217.522 106.96 218.022 106.448 218.654 106.08C219.294 105.712 220.002 105.528 220.778 105.528C221.69 105.528 222.486 105.748 223.166 106.188C223.846 106.628 224.342 107.252 224.654 108.06H223.346C223.114 107.556 222.778 107.168 222.338 106.896C221.906 106.624 221.386 106.488 220.778 106.488C220.194 106.488 219.67 106.624 219.206 106.896C218.742 107.168 218.378 107.556 218.114 108.06C217.85 108.556 217.718 109.14 217.718 109.812C217.718 110.476 217.85 111.06 218.114 111.564C218.378 112.06 218.742 112.444 219.206 112.716C219.67 112.988 220.194 113.124 220.778 113.124C221.386 113.124 221.906 112.992 222.338 112.728C222.778 112.456 223.114 112.068 223.346 111.564H224.654C224.342 112.364 223.846 112.984 223.166 113.424C222.486 113.856 221.69 114.072 220.778 114.072C220.002 114.072 219.294 113.892 218.654 113.532C218.022 113.164 217.522 112.656 217.154 112.008C216.786 111.36 216.602 110.628 216.602 109.812Z" fill="black"/>
<path d="M228.884 105.636C229.796 105.636 230.584 105.808 231.248 106.152C231.92 106.488 232.432 106.972 232.784 107.604C233.144 108.236 233.324 108.98 233.324 109.836C233.324 110.692 233.144 111.436 232.784 112.068C232.432 112.692 231.92 113.172 231.248 113.508C230.584 113.836 229.796 114 228.884 114H226.28V105.636H228.884ZM228.884 113.1C229.964 113.1 230.788 112.816 231.356 112.248C231.924 111.672 232.208 110.868 232.208 109.836C232.208 108.796 231.92 107.984 231.344 107.4C230.776 106.816 229.956 106.524 228.884 106.524H227.372V113.1H228.884Z" fill="black"/>
<path d="M234.356 109.812C234.356 108.996 234.54 108.264 234.908 107.616C235.276 106.96 235.776 106.448 236.408 106.08C237.048 105.712 237.756 105.528 238.532 105.528C239.444 105.528 240.24 105.748 240.92 106.188C241.6 106.628 242.096 107.252 242.408 108.06H241.1C240.868 107.556 240.532 107.168 240.092 106.896C239.66 106.624 239.14 106.488 238.532 106.488C237.948 106.488 237.424 106.624 236.96 106.896C236.496 107.168 236.132 107.556 235.868 108.06C235.604 108.556 235.472 109.14 235.472 109.812C235.472 110.476 235.604 111.06 235.868 111.564C236.132 112.06 236.496 112.444 236.96 112.716C237.424 112.988 237.948 113.124 238.532 113.124C239.14 113.124 239.66 112.992 240.092 112.728C240.532 112.456 240.868 112.068 241.1 111.564H242.408C242.096 112.364 241.6 112.984 240.92 113.424C240.24 113.856 239.444 114.072 238.532 114.072C237.756 114.072 237.048 113.892 236.408 113.532C235.776 113.164 235.276 112.656 234.908 112.008C234.54 111.36 234.356 110.628 234.356 109.812Z" fill="black"/>
<path d="M275.04 67.5762V76.0002H272.988V72.5322H269.796V76.0002H267.744V67.5762H269.796V70.8762H272.988V67.5762H275.04Z" fill="black"/>
<path d="M277.554 68.6082C277.194 68.6082 276.898 68.5042 276.666 68.2962C276.442 68.0802 276.33 67.8162 276.33 67.5042C276.33 67.1842 276.442 66.9202 276.666 66.7122C276.898 66.4962 277.194 66.3882 277.554 66.3882C277.906 66.3882 278.194 66.4962 278.418 66.7122C278.65 66.9202 278.766 67.1842 278.766 67.5042C278.766 67.8162 278.65 68.0802 278.418 68.2962C278.194 68.5042 277.906 68.6082 277.554 68.6082ZM278.574 69.3042V76.0002H276.522V69.3042H278.574Z" fill="black"/>
<path d="M282.605 69.2082C283.077 69.2082 283.489 69.3042 283.841 69.4962C284.201 69.6882 284.477 69.9402 284.669 70.2522V69.3042H286.721V75.9882C286.721 76.6042 286.597 77.1602 286.349 77.6562C286.109 78.1602 285.737 78.5602 285.233 78.8562C284.737 79.1522 284.117 79.3002 283.373 79.3002C282.381 79.3002 281.577 79.0642 280.961 78.5922C280.345 78.1282 279.993 77.4962 279.905 76.6962H281.933C281.997 76.9522 282.149 77.1522 282.389 77.2962C282.629 77.4482 282.925 77.5242 283.277 77.5242C283.701 77.5242 284.037 77.4002 284.285 77.1522C284.541 76.9122 284.669 76.5242 284.669 75.9882V75.0402C284.469 75.3522 284.193 75.6082 283.841 75.8082C283.489 76.0002 283.077 76.0962 282.605 76.0962C282.053 76.0962 281.553 75.9562 281.105 75.6762C280.657 75.3882 280.301 74.9842 280.037 74.4642C279.781 73.9362 279.653 73.3282 279.653 72.6402C279.653 71.9522 279.781 71.3482 280.037 70.8282C280.301 70.3082 280.657 69.9082 281.105 69.6282C281.553 69.3482 282.053 69.2082 282.605 69.2082ZM284.669 72.6522C284.669 72.1402 284.525 71.7362 284.237 71.4402C283.957 71.1442 283.613 70.9962 283.205 70.9962C282.797 70.9962 282.449 71.1442 282.161 71.4402C281.881 71.7282 281.741 72.1282 281.741 72.6402C281.741 73.1522 281.881 73.5602 282.161 73.8642C282.449 74.1602 282.797 74.3082 283.205 74.3082C283.613 74.3082 283.957 74.1602 284.237 73.8642C284.525 73.5682 284.669 73.1642 284.669 72.6522Z" fill="black"/>
<path d="M292.321 69.2322C293.089 69.2322 293.705 69.4882 294.169 70.0002C294.633 70.5042 294.865 71.2002 294.865 72.0882V76.0002H292.825V72.3642C292.825 71.9162 292.709 71.5682 292.477 71.3202C292.245 71.0722 291.933 70.9482 291.541 70.9482C291.149 70.9482 290.837 71.0722 290.605 71.3202C290.373 71.5682 290.257 71.9162 290.257 72.3642V76.0002H288.205V67.1202H290.257V70.2042C290.465 69.9082 290.749 69.6722 291.109 69.4962C291.469 69.3202 291.873 69.2322 292.321 69.2322Z" fill="black"/>
<path d="M298.343 67.1202V76.0002H296.291V67.1202H298.343Z" fill="black"/>
<path d="M300.862 68.6082C300.502 68.6082 300.206 68.5042 299.974 68.2962C299.75 68.0802 299.638 67.8162 299.638 67.5042C299.638 67.1842 299.75 66.9202 299.974 66.7122C300.206 66.4962 300.502 66.3882 300.862 66.3882C301.214 66.3882 301.502 66.4962 301.726 66.7122C301.958 66.9202 302.074 67.1842 302.074 67.5042C302.074 67.8162 301.958 68.0802 301.726 68.2962C301.502 68.5042 301.214 68.6082 300.862 68.6082ZM301.882 69.3042V76.0002H299.83V69.3042H301.882Z" fill="black"/>
<path d="M305.913 69.2082C306.385 69.2082 306.797 69.3042 307.149 69.4962C307.509 69.6882 307.785 69.9402 307.977 70.2522V69.3042H310.029V75.9882C310.029 76.6042 309.905 77.1602 309.657 77.6562C309.417 78.1602 309.045 78.5602 308.541 78.8562C308.045 79.1522 307.425 79.3002 306.681 79.3002C305.689 79.3002 304.885 79.0642 304.269 78.5922C303.653 78.1282 303.301 77.4962 303.213 76.6962H305.241C305.305 76.9522 305.457 77.1522 305.697 77.2962C305.937 77.4482 306.233 77.5242 306.585 77.5242C307.009 77.5242 307.345 77.4002 307.593 77.1522C307.849 76.9122 307.977 76.5242 307.977 75.9882V75.0402C307.777 75.3522 307.501 75.6082 307.149 75.8082C306.797 76.0002 306.385 76.0962 305.913 76.0962C305.361 76.0962 304.861 75.9562 304.413 75.6762C303.965 75.3882 303.609 74.9842 303.345 74.4642C303.089 73.9362 302.961 73.3282 302.961 72.6402C302.961 71.9522 303.089 71.3482 303.345 70.8282C303.609 70.3082 303.965 69.9082 304.413 69.6282C304.861 69.3482 305.361 69.2082 305.913 69.2082ZM307.977 72.6522C307.977 72.1402 307.833 71.7362 307.545 71.4402C307.265 71.1442 306.921 70.9962 306.513 70.9962C306.105 70.9962 305.757 71.1442 305.469 71.4402C305.189 71.7282 305.049 72.1282 305.049 72.6402C305.049 73.1522 305.189 73.5602 305.469 73.8642C305.757 74.1602 306.105 74.3082 306.513 74.3082C306.921 74.3082 307.265 74.1602 307.545 73.8642C307.833 73.5682 307.977 73.1642 307.977 72.6522Z" fill="black"/>
<path d="M315.63 69.2322C316.398 69.2322 317.014 69.4882 317.478 70.0002C317.942 70.5042 318.174 71.2002 318.174 72.0882V76.0002H316.134V72.3642C316.134 71.9162 316.018 71.5682 315.786 71.3202C315.554 71.0722 315.242 70.9482 314.85 70.9482C314.458 70.9482 314.146 71.0722 313.914 71.3202C313.682 71.5682 313.566 71.9162 313.566 72.3642V76.0002H311.514V67.1202H313.566V70.2042C313.774 69.9082 314.058 69.6722 314.418 69.4962C314.778 69.3202 315.182 69.2322 315.63 69.2322Z" fill="black"/>
<path d="M323.332 74.2602V76.0002H322.288C321.544 76.0002 320.964 75.8202 320.548 75.4602C320.132 75.0922 319.924 74.4962 319.924 73.6722V71.0082H319.108V69.3042H319.924V67.6722H321.976V69.3042H323.32V71.0082H321.976V73.6962C321.976 73.8962 322.024 74.0402 322.12 74.1282C322.216 74.2162 322.376 74.2602 322.6 74.2602H323.332Z" fill="black"/>
<path d="M269.016 94.1122H271.944V95.0002H267.924V86.6362H269.016V94.1122Z" fill="black"/>
<path d="M273.668 87.3562C273.46 87.3562 273.284 87.2842 273.14 87.1402C272.996 86.9962 272.924 86.8202 272.924 86.6122C272.924 86.4042 272.996 86.2282 273.14 86.0842C273.284 85.9402 273.46 85.8682 273.668 85.8682C273.868 85.8682 274.036 85.9402 274.172 86.0842C274.316 86.2282 274.388 86.4042 274.388 86.6122C274.388 86.8202 274.316 86.9962 274.172 87.1402C274.036 87.2842 273.868 87.3562 273.668 87.3562ZM274.196 88.4242V95.0002H273.104V88.4242H274.196Z" fill="black"/>
<path d="M278.769 88.3162C279.337 88.3162 279.833 88.4402 280.257 88.6882C280.689 88.9362 281.009 89.2482 281.217 89.6242V88.4242H282.321V95.1442C282.321 95.7442 282.193 96.2762 281.937 96.7402C281.681 97.2122 281.313 97.5802 280.833 97.8442C280.361 98.1082 279.809 98.2402 279.177 98.2402C278.313 98.2402 277.593 98.0362 277.017 97.6282C276.441 97.2202 276.101 96.6642 275.997 95.9602H277.077C277.197 96.3602 277.445 96.6802 277.821 96.9202C278.197 97.1682 278.649 97.2922 279.177 97.2922C279.777 97.2922 280.265 97.1042 280.641 96.7282C281.025 96.3522 281.217 95.8242 281.217 95.1442V93.7642C281.001 94.1482 280.681 94.4682 280.257 94.7242C279.833 94.9802 279.337 95.1082 278.769 95.1082C278.185 95.1082 277.653 94.9642 277.173 94.6762C276.701 94.3882 276.329 93.9842 276.057 93.4642C275.785 92.9442 275.649 92.3522 275.649 91.6882C275.649 91.0162 275.785 90.4282 276.057 89.9242C276.329 89.4122 276.701 89.0162 277.173 88.7362C277.653 88.4562 278.185 88.3162 278.769 88.3162ZM281.217 91.7002C281.217 91.2042 281.117 90.7722 280.917 90.4042C280.717 90.0362 280.445 89.7562 280.101 89.5642C279.765 89.3642 279.393 89.2642 278.985 89.2642C278.577 89.2642 278.205 89.3602 277.869 89.5522C277.533 89.7442 277.265 90.0242 277.065 90.3922C276.865 90.7602 276.765 91.1922 276.765 91.6882C276.765 92.1922 276.865 92.6322 277.065 93.0082C277.265 93.3762 277.533 93.6602 277.869 93.8602C278.205 94.0522 278.577 94.1482 278.985 94.1482C279.393 94.1482 279.765 94.0522 280.101 93.8602C280.445 93.6602 280.717 93.3762 280.917 93.0082C281.117 92.6322 281.217 92.1962 281.217 91.7002Z" fill="black"/>
<path d="M287.431 88.3042C287.927 88.3042 288.375 88.4122 288.775 88.6282C289.175 88.8362 289.487 89.1522 289.711 89.5762C289.943 90.0002 290.059 90.5162 290.059 91.1242V95.0002H288.979V91.2802C288.979 90.6242 288.815 90.1242 288.487 89.7802C288.159 89.4282 287.711 89.2522 287.143 89.2522C286.567 89.2522 286.107 89.4322 285.763 89.7922C285.427 90.1522 285.259 90.6762 285.259 91.3642V95.0002H284.167V86.1202H285.259V89.3602C285.475 89.0242 285.771 88.7642 286.147 88.5802C286.531 88.3962 286.959 88.3042 287.431 88.3042Z" fill="black"/>
<path d="M293.174 89.3242V93.2002C293.174 93.5202 293.242 93.7482 293.378 93.8842C293.514 94.0122 293.75 94.0762 294.086 94.0762H294.89V95.0002H293.906C293.298 95.0002 292.842 94.8602 292.538 94.5802C292.234 94.3002 292.082 93.8402 292.082 93.2002V89.3242H291.23V88.4242H292.082V86.7682H293.174V88.4242H294.89V89.3242H293.174Z" fill="black"/>
<path d="M305.005 89.0842C305.005 89.7802 304.765 90.3602 304.285 90.8242C303.813 91.2802 303.089 91.5082 302.113 91.5082H300.505V95.0002H299.413V86.6362H302.113C303.057 86.6362 303.773 86.8642 304.261 87.3202C304.757 87.7762 305.005 88.3642 305.005 89.0842ZM302.113 90.6082C302.721 90.6082 303.169 90.4762 303.457 90.2122C303.745 89.9482 303.889 89.5722 303.889 89.0842C303.889 88.0522 303.297 87.5362 302.113 87.5362H300.505V90.6082H302.113Z" fill="black"/>
<path d="M312.194 88.4242V95.0002H311.102V94.0282C310.894 94.3642 310.602 94.6282 310.226 94.8202C309.858 95.0042 309.45 95.0962 309.002 95.0962C308.49 95.0962 308.03 94.9922 307.622 94.7842C307.214 94.5682 306.89 94.2482 306.65 93.8242C306.418 93.4002 306.302 92.8842 306.302 92.2762V88.4242H307.382V92.1322C307.382 92.7802 307.546 93.2802 307.874 93.6322C308.202 93.9762 308.65 94.1482 309.218 94.1482C309.802 94.1482 310.262 93.9682 310.598 93.6082C310.934 93.2482 311.102 92.7242 311.102 92.0362V88.4242H312.194Z" fill="black"/>
<path d="M315.13 89.4922C315.322 89.1162 315.594 88.8242 315.946 88.6162C316.306 88.4082 316.742 88.3042 317.254 88.3042V89.4322H316.966C315.742 89.4322 315.13 90.0962 315.13 91.4242V95.0002H314.038V88.4242H315.13V89.4922Z" fill="black"/>
<path d="M319.606 89.6362C319.822 89.2602 320.142 88.9482 320.566 88.7002C320.998 88.4442 321.498 88.3162 322.066 88.3162C322.65 88.3162 323.178 88.4562 323.65 88.7362C324.13 89.0162 324.506 89.4122 324.778 89.9242C325.05 90.4282 325.186 91.0162 325.186 91.6882C325.186 92.3522 325.05 92.9442 324.778 93.4642C324.506 93.9842 324.13 94.3882 323.65 94.6762C323.178 94.9642 322.65 95.1082 322.066 95.1082C321.506 95.1082 321.01 94.9842 320.578 94.7362C320.154 94.4802 319.83 94.1642 319.606 93.7882V98.1202H318.514V88.4242H319.606V89.6362ZM324.07 91.6882C324.07 91.1922 323.97 90.7602 323.77 90.3922C323.57 90.0242 323.298 89.7442 322.954 89.5522C322.618 89.3602 322.246 89.2642 321.838 89.2642C321.438 89.2642 321.066 89.3642 320.722 89.5642C320.386 89.7562 320.114 90.0402 319.906 90.4162C319.706 90.7842 319.606 91.2122 319.606 91.7002C319.606 92.1962 319.706 92.6322 319.906 93.0082C320.114 93.3762 320.386 93.6602 320.722 93.8602C321.066 94.0522 321.438 94.1482 321.838 94.1482C322.246 94.1482 322.618 94.0522 322.954 93.8602C323.298 93.6602 323.57 93.3762 323.77 93.0082C323.97 92.6322 324.07 92.1922 324.07 91.6882Z" fill="black"/>
<path d="M327.716 86.1202V95.0002H326.624V86.1202H327.716Z" fill="black"/>
<path d="M335.577 91.4602C335.577 91.6682 335.565 91.8882 335.541 92.1202H330.285C330.325 92.7682 330.545 93.2762 330.945 93.6442C331.353 94.0042 331.845 94.1842 332.421 94.1842C332.893 94.1842 333.285 94.0762 333.597 93.8602C333.917 93.6362 334.141 93.3402 334.269 92.9722H335.445C335.269 93.6042 334.917 94.1202 334.389 94.5202C333.861 94.9122 333.205 95.1082 332.421 95.1082C331.797 95.1082 331.237 94.9682 330.741 94.6882C330.253 94.4082 329.869 94.0122 329.589 93.5002C329.309 92.9802 329.169 92.3802 329.169 91.7002C329.169 91.0202 329.305 90.4242 329.577 89.9122C329.849 89.4002 330.229 89.0082 330.717 88.7362C331.213 88.4562 331.781 88.3162 332.421 88.3162C333.045 88.3162 333.597 88.4522 334.077 88.7242C334.557 88.9962 334.925 89.3722 335.181 89.8522C335.445 90.3242 335.577 90.8602 335.577 91.4602ZM334.449 91.2322C334.449 90.8162 334.357 90.4602 334.173 90.1642C333.989 89.8602 333.737 89.6322 333.417 89.4802C333.105 89.3202 332.757 89.2402 332.373 89.2402C331.821 89.2402 331.349 89.4162 330.957 89.7682C330.573 90.1202 330.353 90.6082 330.297 91.2322H334.449Z" fill="black"/>
<path d="M274.548 108.48L274.092 110.64H275.748V111.6H273.888L273.372 114H272.328L272.844 111.6H270.324L269.808 114H268.764L269.28 111.6H267.396V110.64H269.484L269.94 108.48H268.08V107.52H270.144L270.66 105.12H271.704L271.188 107.52H273.708L274.224 105.12H275.268L274.752 107.52H276.42V108.48H274.548ZM273.504 108.48H270.984L270.528 110.64H273.048L273.504 108.48Z" fill="black"/>
<path d="M279.407 109.488C278.959 109.312 278.615 109.056 278.375 108.72C278.135 108.384 278.015 107.976 278.015 107.496C278.015 107.064 278.123 106.676 278.339 106.332C278.555 105.98 278.875 105.704 279.299 105.504C279.731 105.296 280.251 105.192 280.859 105.192C281.467 105.192 281.983 105.296 282.407 105.504C282.839 105.704 283.163 105.98 283.379 106.332C283.603 106.676 283.715 107.064 283.715 107.496C283.715 107.96 283.591 108.368 283.343 108.72C283.095 109.064 282.755 109.32 282.323 109.488C282.819 109.64 283.211 109.908 283.499 110.292C283.795 110.668 283.943 111.124 283.943 111.66C283.943 112.18 283.815 112.636 283.559 113.028C283.303 113.412 282.939 113.712 282.467 113.928C282.003 114.136 281.467 114.24 280.859 114.24C280.251 114.24 279.715 114.136 279.251 113.928C278.795 113.712 278.439 113.412 278.183 113.028C277.927 112.636 277.799 112.18 277.799 111.66C277.799 111.124 277.943 110.664 278.231 110.28C278.519 109.896 278.911 109.632 279.407 109.488ZM282.659 107.628C282.659 107.14 282.499 106.764 282.179 106.5C281.859 106.236 281.419 106.104 280.859 106.104C280.307 106.104 279.871 106.236 279.551 106.5C279.231 106.764 279.071 107.144 279.071 107.64C279.071 108.088 279.235 108.448 279.563 108.72C279.899 108.992 280.331 109.128 280.859 109.128C281.395 109.128 281.827 108.992 282.155 108.72C282.491 108.44 282.659 108.076 282.659 107.628ZM280.859 109.968C280.267 109.968 279.783 110.108 279.407 110.388C279.031 110.66 278.843 111.072 278.843 111.624C278.843 112.136 279.023 112.548 279.383 112.86C279.751 113.172 280.243 113.328 280.859 113.328C281.475 113.328 281.963 113.172 282.323 112.86C282.683 112.548 282.863 112.136 282.863 111.624C282.863 111.088 282.679 110.68 282.311 110.4C281.943 110.112 281.459 109.968 280.859 109.968Z" fill="black"/>
<path d="M290.925 106.272H286.713V109.008C286.897 108.752 287.169 108.544 287.529 108.384C287.889 108.216 288.277 108.132 288.693 108.132C289.357 108.132 289.897 108.272 290.313 108.552C290.729 108.824 291.025 109.18 291.201 109.62C291.385 110.052 291.477 110.512 291.477 111C291.477 111.576 291.369 112.092 291.153 112.548C290.937 113.004 290.605 113.364 290.157 113.628C289.717 113.892 289.169 114.024 288.513 114.024C287.673 114.024 286.993 113.808 286.473 113.376C285.953 112.944 285.637 112.368 285.525 111.648H286.593C286.697 112.104 286.917 112.46 287.253 112.716C287.589 112.972 288.013 113.1 288.525 113.1C289.157 113.1 289.633 112.912 289.953 112.536C290.273 112.152 290.433 111.648 290.433 111.024C290.433 110.4 290.273 109.92 289.953 109.584C289.633 109.24 289.161 109.068 288.537 109.068C288.113 109.068 287.741 109.172 287.421 109.38C287.109 109.58 286.881 109.856 286.737 110.208H285.705V105.312H290.925V106.272Z" fill="black"/>
<path d="M292.796 113.124C293.812 112.308 294.608 111.64 295.184 111.12C295.76 110.592 296.244 110.044 296.636 109.476C297.036 108.9 297.236 108.336 297.236 107.784C297.236 107.264 297.108 106.856 296.852 106.56C296.604 106.256 296.2 106.104 295.64 106.104C295.096 106.104 294.672 106.276 294.368 106.62C294.072 106.956 293.912 107.408 293.888 107.976H292.832C292.864 107.08 293.136 106.388 293.648 105.9C294.16 105.412 294.82 105.168 295.628 105.168C296.452 105.168 297.104 105.396 297.584 105.852C298.072 106.308 298.316 106.936 298.316 107.736C298.316 108.4 298.116 109.048 297.716 109.68C297.324 110.304 296.876 110.856 296.372 111.336C295.868 111.808 295.224 112.36 294.44 112.992H298.568V113.904H292.796V113.124Z" fill="black"/>
<path d="M299.602 109.812C299.602 108.996 299.786 108.264 300.154 107.616C300.522 106.96 301.022 106.448 301.654 106.08C302.294 105.712 303.002 105.528 303.778 105.528C304.69 105.528 305.486 105.748 306.166 106.188C306.846 106.628 307.342 107.252 307.654 108.06H306.346C306.114 107.556 305.778 107.168 305.338 106.896C304.906 106.624 304.386 106.488 303.778 106.488C303.194 106.488 302.67 106.624 302.206 106.896C301.742 107.168 301.378 107.556 301.114 108.06C300.85 108.556 300.718 109.14 300.718 109.812C300.718 110.476 300.85 111.06 301.114 111.564C301.378 112.06 301.742 112.444 302.206 112.716C302.67 112.988 303.194 113.124 303.778 113.124C304.386 113.124 304.906 112.992 305.338 112.728C305.778 112.456 306.114 112.068 306.346 111.564H307.654C307.342 112.364 306.846 112.984 306.166 113.424C305.486 113.856 304.69 114.072 303.778 114.072C303.002 114.072 302.294 113.892 301.654 113.532C301.022 113.164 300.522 112.656 300.154 112.008C299.786 111.36 299.602 110.628 299.602 109.812Z" fill="black"/>
<path d="M311.884 105.636C312.796 105.636 313.584 105.808 314.248 106.152C314.92 106.488 315.432 106.972 315.784 107.604C316.144 108.236 316.324 108.98 316.324 109.836C316.324 110.692 316.144 111.436 315.784 112.068C315.432 112.692 314.92 113.172 314.248 113.508C313.584 113.836 312.796 114 311.884 114H309.28V105.636H311.884ZM311.884 113.1C312.964 113.1 313.788 112.816 314.356 112.248C314.924 111.672 315.208 110.868 315.208 109.836C315.208 108.796 314.92 107.984 314.344 107.4C313.776 106.816 312.956 106.524 311.884 106.524H310.372V113.1H311.884Z" fill="black"/>
<path d="M317.356 109.812C317.356 108.996 317.54 108.264 317.908 107.616C318.276 106.96 318.776 106.448 319.408 106.08C320.048 105.712 320.756 105.528 321.532 105.528C322.444 105.528 323.24 105.748 323.92 106.188C324.6 106.628 325.096 107.252 325.408 108.06H324.1C323.868 107.556 323.532 107.168 323.092 106.896C322.66 106.624 322.14 106.488 321.532 106.488C320.948 106.488 320.424 106.624 319.96 106.896C319.496 107.168 319.132 107.556 318.868 108.06C318.604 108.556 318.472 109.14 318.472 109.812C318.472 110.476 318.604 111.06 318.868 111.564C319.132 112.06 319.496 112.444 319.96 112.716C320.424 112.988 320.948 113.124 321.532 113.124C322.14 113.124 322.66 112.992 323.092 112.728C323.532 112.456 323.868 112.068 324.1 111.564H325.408C325.096 112.364 324.6 112.984 323.92 113.424C323.24 113.856 322.444 114.072 321.532 114.072C320.756 114.072 320.048 113.892 319.408 113.532C318.776 113.164 318.276 112.656 317.908 112.008C317.54 111.36 317.356 110.628 317.356 109.812Z" fill="black"/>
<path d="M363.792 76.0842C363.176 76.0842 362.624 75.9842 362.136 75.7842C361.648 75.5842 361.256 75.2882 360.96 74.8962C360.672 74.5042 360.52 74.0322 360.504 73.4802H362.688C362.72 73.7922 362.828 74.0322 363.012 74.2002C363.196 74.3602 363.436 74.4402 363.732 74.4402C364.036 74.4402 364.276 74.3722 364.452 74.2362C364.628 74.0922 364.716 73.8962 364.716 73.6482C364.716 73.4402 364.644 73.2682 364.5 73.1322C364.364 72.9962 364.192 72.8842 363.984 72.7962C363.784 72.7082 363.496 72.6082 363.12 72.4962C362.576 72.3282 362.132 72.1602 361.788 71.9922C361.444 71.8242 361.148 71.5762 360.9 71.2482C360.652 70.9202 360.528 70.4922 360.528 69.9642C360.528 69.1802 360.812 68.5682 361.38 68.1282C361.948 67.6802 362.688 67.4562 363.6 67.4562C364.528 67.4562 365.276 67.6802 365.844 68.1282C366.412 68.5682 366.716 69.1842 366.756 69.9762H364.536C364.52 69.7042 364.42 69.4922 364.236 69.3402C364.052 69.1802 363.816 69.1002 363.528 69.1002C363.28 69.1002 363.08 69.1682 362.928 69.3042C362.776 69.4322 362.7 69.6202 362.7 69.8682C362.7 70.1402 362.828 70.3522 363.084 70.5042C363.34 70.6562 363.74 70.8202 364.284 70.9962C364.828 71.1802 365.268 71.3562 365.604 71.5242C365.948 71.6922 366.244 71.9362 366.492 72.2562C366.74 72.5762 366.864 72.9882 366.864 73.4922C366.864 73.9722 366.74 74.4082 366.492 74.8002C366.252 75.1922 365.9 75.5042 365.436 75.7362C364.972 75.9682 364.424 76.0842 363.792 76.0842Z" fill="black"/>
<path d="M374.439 72.5442C374.439 72.7362 374.427 72.9362 374.403 73.1442H369.759C369.791 73.5602 369.923 73.8802 370.155 74.1042C370.395 74.3202 370.687 74.4282 371.031 74.4282C371.543 74.4282 371.899 74.2122 372.099 73.7802H374.283C374.171 74.2202 373.967 74.6162 373.671 74.9682C373.383 75.3202 373.019 75.5962 372.579 75.7962C372.139 75.9962 371.647 76.0962 371.103 76.0962C370.447 76.0962 369.863 75.9562 369.351 75.6762C368.839 75.3962 368.439 74.9962 368.151 74.4762C367.863 73.9562 367.719 73.3482 367.719 72.6522C367.719 71.9562 367.859 71.3482 368.139 70.8282C368.427 70.3082 368.827 69.9082 369.339 69.6282C369.851 69.3482 370.439 69.2082 371.103 69.2082C371.751 69.2082 372.327 69.3442 372.831 69.6162C373.335 69.8882 373.727 70.2762 374.007 70.7802C374.295 71.2842 374.439 71.8722 374.439 72.5442ZM372.339 72.0042C372.339 71.6522 372.219 71.3722 371.979 71.1642C371.739 70.9562 371.439 70.8522 371.079 70.8522C370.735 70.8522 370.443 70.9522 370.203 71.1522C369.971 71.3522 369.827 71.6362 369.771 72.0042H372.339Z" fill="black"/>
<path d="M375.114 72.6522C375.114 71.9562 375.254 71.3482 375.534 70.8282C375.822 70.3082 376.218 69.9082 376.722 69.6282C377.234 69.3482 377.818 69.2082 378.474 69.2082C379.314 69.2082 380.014 69.4282 380.574 69.8682C381.142 70.3082 381.514 70.9282 381.69 71.7282H379.506C379.322 71.2162 378.966 70.9602 378.438 70.9602C378.062 70.9602 377.762 71.1082 377.538 71.4042C377.314 71.6922 377.202 72.1082 377.202 72.6522C377.202 73.1962 377.314 73.6162 377.538 73.9122C377.762 74.2002 378.062 74.3442 378.438 74.3442C378.966 74.3442 379.322 74.0882 379.506 73.5762H381.69C381.514 74.3602 381.142 74.9762 380.574 75.4242C380.006 75.8722 379.306 76.0962 378.474 76.0962C377.818 76.0962 377.234 75.9562 376.722 75.6762C376.218 75.3962 375.822 74.9962 375.534 74.4762C375.254 73.9562 375.114 73.3482 375.114 72.6522Z" fill="black"/>
<path d="M385.835 76.0962C385.179 76.0962 384.587 75.9562 384.059 75.6762C383.539 75.3962 383.127 74.9962 382.823 74.4762C382.527 73.9562 382.379 73.3482 382.379 72.6522C382.379 71.9642 382.531 71.3602 382.835 70.8402C383.139 70.3122 383.555 69.9082 384.083 69.6282C384.611 69.3482 385.203 69.2082 385.859 69.2082C386.515 69.2082 387.107 69.3482 387.635 69.6282C388.163 69.9082 388.579 70.3122 388.883 70.8402C389.187 71.3602 389.339 71.9642 389.339 72.6522C389.339 73.3402 389.183 73.9482 388.871 74.4762C388.567 74.9962 388.147 75.3962 387.611 75.6762C387.083 75.9562 386.491 76.0962 385.835 76.0962ZM385.835 74.3202C386.227 74.3202 386.559 74.1762 386.831 73.8882C387.111 73.6002 387.251 73.1882 387.251 72.6522C387.251 72.1162 387.115 71.7042 386.843 71.4162C386.579 71.1282 386.251 70.9842 385.859 70.9842C385.459 70.9842 385.127 71.1282 384.863 71.4162C384.599 71.6962 384.467 72.1082 384.467 72.6522C384.467 73.1882 384.595 73.6002 384.851 73.8882C385.115 74.1762 385.443 74.3202 385.835 74.3202Z" fill="black"/>
<path d="M394.508 69.2322C395.292 69.2322 395.916 69.4882 396.38 70.0002C396.852 70.5042 397.088 71.2002 397.088 72.0882V76.0002H395.048V72.3642C395.048 71.9162 394.932 71.5682 394.7 71.3202C394.468 71.0722 394.156 70.9482 393.764 70.9482C393.372 70.9482 393.06 71.0722 392.828 71.3202C392.596 71.5682 392.48 71.9162 392.48 72.3642V76.0002H390.428V69.3042H392.48V70.1922C392.688 69.8962 392.968 69.6642 393.32 69.4962C393.672 69.3202 394.068 69.2322 394.508 69.2322Z" fill="black"/>
<path d="M398.106 72.6402C398.106 71.9522 398.234 71.3482 398.49 70.8282C398.754 70.3082 399.11 69.9082 399.558 69.6282C400.006 69.3482 400.506 69.2082 401.058 69.2082C401.498 69.2082 401.898 69.3002 402.258 69.4842C402.626 69.6682 402.914 69.9162 403.122 70.2282V67.1202H405.174V76.0002H403.122V75.0402C402.93 75.3602 402.654 75.6162 402.294 75.8082C401.942 76.0002 401.53 76.0962 401.058 76.0962C400.506 76.0962 400.006 75.9562 399.558 75.6762C399.11 75.3882 398.754 74.9842 398.49 74.4642C398.234 73.9362 398.106 73.3282 398.106 72.6402ZM403.122 72.6522C403.122 72.1402 402.978 71.7362 402.69 71.4402C402.41 71.1442 402.066 70.9962 401.658 70.9962C401.25 70.9962 400.902 71.1442 400.614 71.4402C400.334 71.7282 400.194 72.1282 400.194 72.6402C400.194 73.1522 400.334 73.5602 400.614 73.8642C400.902 74.1602 401.25 74.3082 401.658 74.3082C402.066 74.3082 402.41 74.1602 402.69 73.8642C402.978 73.5682 403.122 73.1642 403.122 72.6522Z" fill="black"/>
<path d="M406.251 72.6402C406.251 71.9522 406.379 71.3482 406.635 70.8282C406.899 70.3082 407.255 69.9082 407.703 69.6282C408.151 69.3482 408.651 69.2082 409.203 69.2082C409.675 69.2082 410.087 69.3042 410.439 69.4962C410.799 69.6882 411.075 69.9402 411.267 70.2522V69.3042H413.319V76.0002H411.267V75.0522C411.067 75.3642 410.787 75.6162 410.427 75.8082C410.075 76.0002 409.663 76.0962 409.191 76.0962C408.647 76.0962 408.151 75.9562 407.703 75.6762C407.255 75.3882 406.899 74.9842 406.635 74.4642C406.379 73.9362 406.251 73.3282 406.251 72.6402ZM411.267 72.6522C411.267 72.1402 411.123 71.7362 410.835 71.4402C410.555 71.1442 410.211 70.9962 409.803 70.9962C409.395 70.9962 409.047 71.1442 408.759 71.4402C408.479 71.7282 408.339 72.1282 408.339 72.6402C408.339 73.1522 408.479 73.5602 408.759 73.8642C409.047 74.1602 409.395 74.3082 409.803 74.3082C410.211 74.3082 410.555 74.1602 410.835 73.8642C411.123 73.5682 411.267 73.1642 411.267 72.6522Z" fill="black"/>
<path d="M416.855 70.4202C417.095 70.0522 417.395 69.7642 417.755 69.5562C418.115 69.3402 418.515 69.2322 418.955 69.2322V71.4042H418.391C417.879 71.4042 417.495 71.5162 417.239 71.7402C416.983 71.9562 416.855 72.3402 416.855 72.8922V76.0002H414.803V69.3042H416.855V70.4202Z" fill="black"/>
<path d="M426.776 69.3042L422.576 79.1802H420.368L421.904 75.7722L419.18 69.3042H421.472L423.02 73.4922L424.556 69.3042H426.776Z" fill="black"/>
<path d="M363.576 95.0842C363.024 95.0842 362.528 94.9882 362.088 94.7962C361.656 94.5962 361.316 94.3242 361.068 93.9802C360.82 93.6282 360.692 93.2242 360.684 92.7682H361.848C361.888 93.1602 362.048 93.4922 362.328 93.7642C362.616 94.0282 363.032 94.1602 363.576 94.1602C364.096 94.1602 364.504 94.0322 364.8 93.7762C365.104 93.5122 365.256 93.1762 365.256 92.7682C365.256 92.4482 365.168 92.1882 364.992 91.9882C364.816 91.7882 364.596 91.6362 364.332 91.5322C364.068 91.4282 363.712 91.3162 363.264 91.1962C362.712 91.0522 362.268 90.9082 361.932 90.7642C361.604 90.6202 361.32 90.3962 361.08 90.0922C360.848 89.7802 360.732 89.3642 360.732 88.8442C360.732 88.3882 360.848 87.9842 361.08 87.6322C361.312 87.2802 361.636 87.0082 362.052 86.8162C362.476 86.6242 362.96 86.5282 363.504 86.5282C364.288 86.5282 364.928 86.7242 365.424 87.1162C365.928 87.5082 366.212 88.0282 366.276 88.6762H365.076C365.036 88.3562 364.868 88.0762 364.572 87.8362C364.276 87.5882 363.884 87.4642 363.396 87.4642C362.94 87.4642 362.568 87.5842 362.28 87.8242C361.992 88.0562 361.848 88.3842 361.848 88.8082C361.848 89.1122 361.932 89.3602 362.1 89.5522C362.276 89.7442 362.488 89.8922 362.736 89.9962C362.992 90.0922 363.348 90.2042 363.804 90.3322C364.356 90.4842 364.8 90.6362 365.136 90.7882C365.472 90.9322 365.76 91.1602 366 91.4722C366.24 91.7762 366.36 92.1922 366.36 92.7202C366.36 93.1282 366.252 93.5122 366.036 93.8722C365.82 94.2322 365.5 94.5242 365.076 94.7482C364.652 94.9722 364.152 95.0842 363.576 95.0842Z" fill="black"/>
<path d="M371.639 95.0002L369.059 92.0962V95.0002H367.967V86.1202H369.059V91.3402L371.591 88.4242H373.115L370.019 91.7002L373.127 95.0002H371.639Z" fill="black"/>
<path d="M379.807 88.4242L375.847 98.0962H374.719L376.015 94.9282L373.363 88.4242H374.575L376.639 93.7522L378.679 88.4242H379.807Z" fill="black"/>
<path d="M388.292 90.6922C388.596 90.7402 388.872 90.8642 389.12 91.0642C389.376 91.2642 389.576 91.5122 389.72 91.8082C389.872 92.1042 389.948 92.4202 389.948 92.7562C389.948 93.1802 389.84 93.5642 389.624 93.9082C389.408 94.2442 389.092 94.5122 388.676 94.7122C388.268 94.9042 387.784 95.0002 387.224 95.0002H384.104V86.6362H387.104C387.672 86.6362 388.156 86.7322 388.556 86.9242C388.956 87.1082 389.256 87.3602 389.456 87.6802C389.656 88.0002 389.756 88.3602 389.756 88.7602C389.756 89.2562 389.62 89.6682 389.348 89.9962C389.084 90.3162 388.732 90.5482 388.292 90.6922ZM385.196 90.2482H387.032C387.544 90.2482 387.94 90.1282 388.22 89.8882C388.5 89.6482 388.64 89.3162 388.64 88.8922C388.64 88.4682 388.5 88.1362 388.22 87.8962C387.94 87.6562 387.536 87.5362 387.008 87.5362H385.196V90.2482ZM387.128 94.1002C387.672 94.1002 388.096 93.9722 388.4 93.7162C388.704 93.4602 388.856 93.1042 388.856 92.6482C388.856 92.1842 388.696 91.8202 388.376 91.5562C388.056 91.2842 387.628 91.1482 387.092 91.1482H385.196V94.1002H387.128Z" fill="black"/>
<path d="M392.556 86.1202V95.0002H391.464V86.1202H392.556Z" fill="black"/>
<path d="M400.249 88.4242V95.0002H399.157V94.0282C398.949 94.3642 398.657 94.6282 398.281 94.8202C397.913 95.0042 397.505 95.0962 397.057 95.0962C396.545 95.0962 396.085 94.9922 395.677 94.7842C395.269 94.5682 394.945 94.2482 394.705 93.8242C394.473 93.4002 394.357 92.8842 394.357 92.2762V88.4242H395.437V92.1322C395.437 92.7802 395.601 93.2802 395.929 93.6322C396.257 93.9762 396.705 94.1482 397.273 94.1482C397.857 94.1482 398.317 93.9682 398.653 93.6082C398.989 93.2482 399.157 92.7242 399.157 92.0362V88.4242H400.249Z" fill="black"/>
<path d="M408.092 91.4602C408.092 91.6682 408.08 91.8882 408.056 92.1202H402.8C402.84 92.7682 403.06 93.2762 403.46 93.6442C403.868 94.0042 404.36 94.1842 404.936 94.1842C405.408 94.1842 405.8 94.0762 406.112 93.8602C406.432 93.6362 406.656 93.3402 406.784 92.9722H407.96C407.784 93.6042 407.432 94.1202 406.904 94.5202C406.376 94.9122 405.72 95.1082 404.936 95.1082C404.312 95.1082 403.752 94.9682 403.256 94.6882C402.768 94.4082 402.384 94.0122 402.104 93.5002C401.824 92.9802 401.684 92.3802 401.684 91.7002C401.684 91.0202 401.82 90.4242 402.092 89.9122C402.364 89.4002 402.744 89.0082 403.232 88.7362C403.728 88.4562 404.296 88.3162 404.936 88.3162C405.56 88.3162 406.112 88.4522 406.592 88.7242C407.072 88.9962 407.44 89.3722 407.696 89.8522C407.96 90.3242 408.092 90.8602 408.092 91.4602ZM406.964 91.2322C406.964 90.8162 406.872 90.4602 406.688 90.1642C406.504 89.8602 406.252 89.6322 405.932 89.4802C405.62 89.3202 405.272 89.2402 404.888 89.2402C404.336 89.2402 403.864 89.4162 403.472 89.7682C403.088 90.1202 402.868 90.6082 402.812 91.2322H406.964Z" fill="black"/>
<path d="M367.548 108.48L367.092 110.64H368.748V111.6H366.888L366.372 114H365.328L365.844 111.6H363.324L362.808 114H361.764L362.28 111.6H360.396V110.64H362.484L362.94 108.48H361.08V107.52H363.144L363.66 105.12H364.704L364.188 107.52H366.708L367.224 105.12H368.268L367.752 107.52H369.42V108.48H367.548ZM366.504 108.48H363.984L363.528 110.64H366.048L366.504 108.48Z" fill="black"/>
<path d="M375.731 105.636V106.524H372.095V109.344H375.047V110.232H372.095V114H371.003V105.636H375.731Z" fill="black"/>
<path d="M376.869 109.572C376.869 108.196 377.093 107.124 377.541 106.356C377.989 105.58 378.773 105.192 379.893 105.192C381.005 105.192 381.785 105.58 382.233 106.356C382.681 107.124 382.905 108.196 382.905 109.572C382.905 110.972 382.681 112.06 382.233 112.836C381.785 113.612 381.005 114 379.893 114C378.773 114 377.989 113.612 377.541 112.836C377.093 112.06 376.869 110.972 376.869 109.572ZM381.825 109.572C381.825 108.876 381.777 108.288 381.681 107.808C381.593 107.32 381.405 106.928 381.117 106.632C380.837 106.336 380.429 106.188 379.893 106.188C379.349 106.188 378.933 106.336 378.645 106.632C378.365 106.928 378.177 107.32 378.081 107.808C377.993 108.288 377.949 108.876 377.949 109.572C377.949 110.292 377.993 110.896 378.081 111.384C378.177 111.872 378.365 112.264 378.645 112.56C378.933 112.856 379.349 113.004 379.893 113.004C380.429 113.004 380.837 112.856 381.117 112.56C381.405 112.264 381.593 111.872 381.681 111.384C381.777 110.896 381.825 110.292 381.825 109.572Z" fill="black"/>
<path d="M389.313 105.636V106.524H385.677V109.344H388.629V110.232H385.677V114H384.585V105.636H389.313Z" fill="black"/>
<path d="M395.984 106.272H391.772V109.008C391.956 108.752 392.228 108.544 392.588 108.384C392.948 108.216 393.336 108.132 393.752 108.132C394.416 108.132 394.956 108.272 395.372 108.552C395.788 108.824 396.084 109.18 396.26 109.62C396.444 110.052 396.536 110.512 396.536 111C396.536 111.576 396.428 112.092 396.212 112.548C395.996 113.004 395.664 113.364 395.216 113.628C394.776 113.892 394.228 114.024 393.572 114.024C392.732 114.024 392.052 113.808 391.532 113.376C391.012 112.944 390.696 112.368 390.584 111.648H391.652C391.756 112.104 391.976 112.46 392.312 112.716C392.648 112.972 393.072 113.1 393.584 113.1C394.216 113.1 394.692 112.912 395.012 112.536C395.332 112.152 395.492 111.648 395.492 111.024C395.492 110.4 395.332 109.92 395.012 109.584C394.692 109.24 394.22 109.068 393.596 109.068C393.172 109.068 392.8 109.172 392.48 109.38C392.168 109.58 391.94 109.856 391.796 110.208H390.764V105.312H395.984V106.272Z" fill="black"/>
<path d="M402.895 105.636V106.524H399.259V109.344H402.211V110.232H399.259V114H398.167V105.636H402.895Z" fill="black"/>
<path d="M408.402 109.692C408.706 109.74 408.982 109.864 409.23 110.064C409.486 110.264 409.686 110.512 409.83 110.808C409.982 111.104 410.058 111.42 410.058 111.756C410.058 112.18 409.95 112.564 409.734 112.908C409.518 113.244 409.202 113.512 408.786 113.712C408.378 113.904 407.894 114 407.334 114H404.214V105.636H407.214C407.782 105.636 408.266 105.732 408.666 105.924C409.066 106.108 409.366 106.36 409.566 106.68C409.766 107 409.866 107.36 409.866 107.76C409.866 108.256 409.73 108.668 409.458 108.996C409.194 109.316 408.842 109.548 408.402 109.692ZM405.306 109.248H407.142C407.654 109.248 408.05 109.128 408.33 108.888C408.61 108.648 408.75 108.316 408.75 107.892C408.75 107.468 408.61 107.136 408.33 106.896C408.05 106.656 407.646 106.536 407.118 106.536H405.306V109.248ZM407.238 113.1C407.782 113.1 408.206 112.972 408.51 112.716C408.814 112.46 408.966 112.104 408.966 111.648C408.966 111.184 408.806 110.82 408.486 110.556C408.166 110.284 407.738 110.148 407.202 110.148H405.306V113.1H407.238Z" fill="black"/>
<path d="M454.804 67.5762V69.2202H452.572V76.0002H450.52V69.2202H448.288V67.5762H454.804Z" fill="black"/>
<path d="M462.146 72.5442C462.146 72.7362 462.134 72.9362 462.11 73.1442H457.466C457.498 73.5602 457.63 73.8802 457.862 74.1042C458.102 74.3202 458.394 74.4282 458.738 74.4282C459.25 74.4282 459.606 74.2122 459.806 73.7802H461.99C461.878 74.2202 461.674 74.6162 461.378 74.9682C461.09 75.3202 460.726 75.5962 460.286 75.7962C459.846 75.9962 459.354 76.0962 458.81 76.0962C458.154 76.0962 457.57 75.9562 457.058 75.6762C456.546 75.3962 456.146 74.9962 455.858 74.4762C455.57 73.9562 455.426 73.3482 455.426 72.6522C455.426 71.9562 455.566 71.3482 455.846 70.8282C456.134 70.3082 456.534 69.9082 457.046 69.6282C457.558 69.3482 458.146 69.2082 458.81 69.2082C459.458 69.2082 460.034 69.3442 460.538 69.6162C461.042 69.8882 461.434 70.2762 461.714 70.7802C462.002 71.2842 462.146 71.8722 462.146 72.5442ZM460.046 72.0042C460.046 71.6522 459.926 71.3722 459.686 71.1642C459.446 70.9562 459.146 70.8522 458.786 70.8522C458.442 70.8522 458.15 70.9522 457.91 71.1522C457.678 71.3522 457.534 71.6362 457.478 72.0042H460.046Z" fill="black"/>
<path d="M467.189 76.0002L465.905 74.1402L464.825 76.0002H462.605L464.813 72.5802L462.545 69.3042H464.849L466.133 71.1522L467.213 69.3042H469.433L467.189 72.6762L469.493 76.0002H467.189Z" fill="black"/>
<path d="M474.016 74.2602V76.0002H472.972C472.228 76.0002 471.648 75.8202 471.232 75.4602C470.816 75.0922 470.608 74.4962 470.608 73.6722V71.0082H469.792V69.3042H470.608V67.6722H472.66V69.3042H474.004V71.0082H472.66V73.6962C472.66 73.8962 472.708 74.0402 472.804 74.1282C472.9 74.2162 473.06 74.2602 473.284 74.2602H474.016Z" fill="black"/>
<path d="M451.528 86.6362C452.44 86.6362 453.228 86.8082 453.892 87.1522C454.564 87.4882 455.076 87.9722 455.428 88.6042C455.788 89.2362 455.968 89.9802 455.968 90.8362C455.968 91.6922 455.788 92.4362 455.428 93.0682C455.076 93.6922 454.564 94.1722 453.892 94.5082C453.228 94.8362 452.44 95.0002 451.528 95.0002H448.924V86.6362H451.528ZM451.528 94.1002C452.608 94.1002 453.432 93.8162 454 93.2482C454.568 92.6722 454.852 91.8682 454.852 90.8362C454.852 89.7962 454.564 88.9842 453.988 88.4002C453.42 87.8162 452.6 87.5242 451.528 87.5242H450.016V94.1002H451.528Z" fill="black"/>
<path d="M457.001 91.6882C457.001 91.0162 457.137 90.4282 457.409 89.9242C457.681 89.4122 458.053 89.0162 458.525 88.7362C459.005 88.4562 459.537 88.3162 460.121 88.3162C460.697 88.3162 461.197 88.4402 461.621 88.6882C462.045 88.9362 462.361 89.2482 462.569 89.6242V88.4242H463.673V95.0002H462.569V93.7762C462.353 94.1602 462.029 94.4802 461.597 94.7362C461.173 94.9842 460.677 95.1082 460.109 95.1082C459.525 95.1082 458.997 94.9642 458.525 94.6762C458.053 94.3882 457.681 93.9842 457.409 93.4642C457.137 92.9442 457.001 92.3522 457.001 91.6882ZM462.569 91.7002C462.569 91.2042 462.469 90.7722 462.269 90.4042C462.069 90.0362 461.797 89.7562 461.453 89.5642C461.117 89.3642 460.745 89.2642 460.337 89.2642C459.929 89.2642 459.557 89.3602 459.221 89.5522C458.885 89.7442 458.617 90.0242 458.417 90.3922C458.217 90.7602 458.117 91.1922 458.117 91.6882C458.117 92.1922 458.217 92.6322 458.417 93.0082C458.617 93.3762 458.885 93.6602 459.221 93.8602C459.557 94.0522 459.929 94.1482 460.337 94.1482C460.745 94.1482 461.117 94.0522 461.453 93.8602C461.797 93.6602 462.069 93.3762 462.269 93.0082C462.469 92.6322 462.569 92.1962 462.569 91.7002Z" fill="black"/>
<path d="M466.61 89.4922C466.802 89.1162 467.074 88.8242 467.426 88.6162C467.786 88.4082 468.222 88.3042 468.734 88.3042V89.4322H468.446C467.222 89.4322 466.61 90.0962 466.61 91.4242V95.0002H465.518V88.4242H466.61V89.4922Z" fill="black"/>
<path d="M473.667 95.0002L471.087 92.0962V95.0002H469.995V86.1202H471.087V91.3402L473.619 88.4242H475.143L472.047 91.7002L475.155 95.0002H473.667Z" fill="black"/>
<path d="M485.706 89.0602C485.474 88.5722 485.138 88.1962 484.698 87.9322C484.258 87.6602 483.746 87.5242 483.162 87.5242C482.578 87.5242 482.05 87.6602 481.578 87.9322C481.114 88.1962 480.746 88.5802 480.474 89.0842C480.21 89.5802 480.078 90.1562 480.078 90.8122C480.078 91.4682 480.21 92.0442 480.474 92.5402C480.746 93.0362 481.114 93.4202 481.578 93.6922C482.05 93.9562 482.578 94.0882 483.162 94.0882C483.978 94.0882 484.65 93.8442 485.178 93.3562C485.706 92.8682 486.014 92.2082 486.102 91.3762H482.766V90.4882H487.266V91.3282C487.202 92.0162 486.986 92.6482 486.618 93.2242C486.25 93.7922 485.766 94.2442 485.166 94.5802C484.566 94.9082 483.898 95.0722 483.162 95.0722C482.386 95.0722 481.678 94.8922 481.038 94.5322C480.398 94.1642 479.89 93.6562 479.514 93.0082C479.146 92.3602 478.962 91.6282 478.962 90.8122C478.962 89.9962 479.146 89.2642 479.514 88.6162C479.89 87.9602 480.398 87.4522 481.038 87.0922C481.678 86.7242 482.386 86.5402 483.162 86.5402C484.05 86.5402 484.834 86.7602 485.514 87.2002C486.202 87.6402 486.702 88.2602 487.014 89.0602H485.706Z" fill="black"/>
<path d="M489.802 89.4922C489.994 89.1162 490.266 88.8242 490.618 88.6162C490.978 88.4082 491.414 88.3042 491.926 88.3042V89.4322H491.638C490.414 89.4322 489.802 90.0962 489.802 91.4242V95.0002H488.71V88.4242H489.802V89.4922Z" fill="black"/>
<path d="M492.778 91.6882C492.778 91.0162 492.914 90.4282 493.186 89.9242C493.458 89.4122 493.83 89.0162 494.302 88.7362C494.782 88.4562 495.314 88.3162 495.898 88.3162C496.474 88.3162 496.974 88.4402 497.398 88.6882C497.822 88.9362 498.138 89.2482 498.346 89.6242V88.4242H499.45V95.0002H498.346V93.7762C498.13 94.1602 497.806 94.4802 497.374 94.7362C496.95 94.9842 496.454 95.1082 495.886 95.1082C495.302 95.1082 494.774 94.9642 494.302 94.6762C493.83 94.3882 493.458 93.9842 493.186 93.4642C492.914 92.9442 492.778 92.3522 492.778 91.6882ZM498.346 91.7002C498.346 91.2042 498.246 90.7722 498.046 90.4042C497.846 90.0362 497.574 89.7562 497.23 89.5642C496.894 89.3642 496.522 89.2642 496.114 89.2642C495.706 89.2642 495.334 89.3602 494.998 89.5522C494.662 89.7442 494.394 90.0242 494.194 90.3922C493.994 90.7602 493.894 91.1922 493.894 91.6882C493.894 92.1922 493.994 92.6322 494.194 93.0082C494.394 93.3762 494.662 93.6602 494.998 93.8602C495.334 94.0522 495.706 94.1482 496.114 94.1482C496.522 94.1482 496.894 94.0522 497.23 93.8602C497.574 93.6602 497.846 93.3762 498.046 93.0082C498.246 92.6322 498.346 92.1962 498.346 91.7002Z" fill="black"/>
<path d="M506.96 88.4242L503 98.0962H501.872L503.168 94.9282L500.516 88.4242H501.728L503.792 93.7522L505.832 88.4242H506.96Z" fill="black"/>
<path d="M455.548 108.48L455.092 110.64H456.748V111.6H454.888L454.372 114H453.328L453.844 111.6H451.324L450.808 114H449.764L450.28 111.6H448.396V110.64H450.484L450.94 108.48H449.08V107.52H451.144L451.66 105.12H452.704L452.188 107.52H454.708L455.224 105.12H456.268L455.752 107.52H457.42V108.48H455.548ZM454.504 108.48H451.984L451.528 110.64H454.048L454.504 108.48Z" fill="black"/>
<path d="M458.799 107.508C458.855 106.772 459.139 106.196 459.651 105.78C460.163 105.364 460.827 105.156 461.643 105.156C462.187 105.156 462.655 105.256 463.047 105.456C463.447 105.648 463.747 105.912 463.947 106.248C464.155 106.584 464.259 106.964 464.259 107.388C464.259 107.884 464.115 108.312 463.827 108.672C463.547 109.032 463.179 109.264 462.723 109.368V109.428C463.243 109.556 463.655 109.808 463.959 110.184C464.263 110.56 464.415 111.052 464.415 111.66C464.415 112.116 464.311 112.528 464.103 112.896C463.895 113.256 463.583 113.54 463.167 113.748C462.751 113.956 462.251 114.06 461.667 114.06C460.819 114.06 460.123 113.84 459.579 113.4C459.035 112.952 458.731 112.32 458.667 111.504H459.723C459.779 111.984 459.975 112.376 460.311 112.68C460.647 112.984 461.095 113.136 461.655 113.136C462.215 113.136 462.639 112.992 462.927 112.704C463.223 112.408 463.371 112.028 463.371 111.564C463.371 110.964 463.171 110.532 462.771 110.268C462.371 110.004 461.767 109.872 460.959 109.872H460.683V108.96H460.971C461.707 108.952 462.263 108.832 462.639 108.6C463.015 108.36 463.203 107.992 463.203 107.496C463.203 107.072 463.063 106.732 462.783 106.476C462.511 106.22 462.119 106.092 461.607 106.092C461.111 106.092 460.711 106.22 460.407 106.476C460.103 106.732 459.923 107.076 459.867 107.508H458.799Z" fill="black"/>
<path d="M468.673 105.636C469.585 105.636 470.373 105.808 471.037 106.152C471.709 106.488 472.221 106.972 472.573 107.604C472.933 108.236 473.113 108.98 473.113 109.836C473.113 110.692 472.933 111.436 472.573 112.068C472.221 112.692 471.709 113.172 471.037 113.508C470.373 113.836 469.585 114 468.673 114H466.069V105.636H468.673ZM468.673 113.1C469.753 113.1 470.577 112.816 471.145 112.248C471.713 111.672 471.997 110.868 471.997 109.836C471.997 108.796 471.709 107.984 471.133 107.4C470.565 106.816 469.745 106.524 468.673 106.524H467.161V113.1H468.673Z" fill="black"/>
<path d="M474.349 107.508C474.405 106.772 474.689 106.196 475.201 105.78C475.713 105.364 476.377 105.156 477.193 105.156C477.737 105.156 478.205 105.256 478.597 105.456C478.997 105.648 479.297 105.912 479.497 106.248C479.705 106.584 479.809 106.964 479.809 107.388C479.809 107.884 479.665 108.312 479.377 108.672C479.097 109.032 478.729 109.264 478.273 109.368V109.428C478.793 109.556 479.205 109.808 479.509 110.184C479.813 110.56 479.965 111.052 479.965 111.66C479.965 112.116 479.861 112.528 479.653 112.896C479.445 113.256 479.133 113.54 478.717 113.748C478.301 113.956 477.801 114.06 477.217 114.06C476.369 114.06 475.673 113.84 475.129 113.4C474.585 112.952 474.281 112.32 474.217 111.504H475.273C475.329 111.984 475.525 112.376 475.861 112.68C476.197 112.984 476.645 113.136 477.205 113.136C477.765 113.136 478.189 112.992 478.477 112.704C478.773 112.408 478.921 112.028 478.921 111.564C478.921 110.964 478.721 110.532 478.321 110.268C477.921 110.004 477.317 109.872 476.509 109.872H476.233V108.96H476.521C477.257 108.952 477.813 108.832 478.189 108.6C478.565 108.36 478.753 107.992 478.753 107.496C478.753 107.072 478.613 106.732 478.333 106.476C478.061 106.22 477.669 106.092 477.157 106.092C476.661 106.092 476.261 106.22 475.957 106.476C475.653 106.732 475.473 107.076 475.417 107.508H474.349Z" fill="black"/>
<path d="M481.212 109.812C481.212 108.996 481.396 108.264 481.764 107.616C482.132 106.96 482.632 106.448 483.264 106.08C483.904 105.712 484.612 105.528 485.388 105.528C486.3 105.528 487.096 105.748 487.776 106.188C488.456 106.628 488.952 107.252 489.264 108.06H487.956C487.724 107.556 487.388 107.168 486.948 106.896C486.516 106.624 485.996 106.488 485.388 106.488C484.804 106.488 484.28 106.624 483.816 106.896C483.352 107.168 482.988 107.556 482.724 108.06C482.46 108.556 482.328 109.14 482.328 109.812C482.328 110.476 482.46 111.06 482.724 111.564C482.988 112.06 483.352 112.444 483.816 112.716C484.28 112.988 484.804 113.124 485.388 113.124C485.996 113.124 486.516 112.992 486.948 112.728C487.388 112.456 487.724 112.068 487.956 111.564H489.264C488.952 112.364 488.456 112.984 487.776 113.424C487.096 113.856 486.3 114.072 485.388 114.072C484.612 114.072 483.904 113.892 483.264 113.532C482.632 113.164 482.132 112.656 481.764 112.008C481.396 111.36 481.212 110.628 481.212 109.812Z" fill="black"/>
<path d="M490.445 112.068V111.24L494.657 105.408H495.965V111.12H497.165V112.068H495.965V114H494.885V112.068H490.445ZM494.933 106.548L491.705 111.12H494.933V106.548Z" fill="black"/>
<path d="M498.256 109.572C498.256 108.196 498.48 107.124 498.928 106.356C499.376 105.58 500.16 105.192 501.28 105.192C502.392 105.192 503.172 105.58 503.62 106.356C504.068 107.124 504.292 108.196 504.292 109.572C504.292 110.972 504.068 112.06 503.62 112.836C503.172 113.612 502.392 114 501.28 114C500.16 114 499.376 113.612 498.928 112.836C498.48 112.06 498.256 110.972 498.256 109.572ZM503.212 109.572C503.212 108.876 503.164 108.288 503.068 107.808C502.98 107.32 502.792 106.928 502.504 106.632C502.224 106.336 501.816 106.188 501.28 106.188C500.736 106.188 500.32 106.336 500.032 106.632C499.752 106.928 499.564 107.32 499.468 107.808C499.38 108.288 499.336 108.876 499.336 109.572C499.336 110.292 499.38 110.896 499.468 111.384C499.564 111.872 499.752 112.264 500.032 112.56C500.32 112.856 500.736 113.004 501.28 113.004C501.816 113.004 502.224 112.856 502.504 112.56C502.792 112.264 502.98 111.872 503.068 111.384C503.164 110.896 503.212 110.292 503.212 109.572Z" fill="black"/>
<path d="M432.058 194.512C428.944 194.512 426.17 193.979 423.738 192.912C421.306 191.845 419.386 190.395 417.978 188.56C416.57 186.683 415.781 184.592 415.61 182.288H426.426C426.554 183.525 427.13 184.528 428.154 185.296C429.178 186.064 430.437 186.448 431.93 186.448C433.296 186.448 434.341 186.192 435.066 185.68C435.834 185.125 436.218 184.421 436.218 183.568C436.218 182.544 435.685 181.797 434.618 181.328C433.552 180.816 431.824 180.261 429.434 179.664C426.874 179.067 424.741 178.448 423.034 177.808C421.328 177.125 419.856 176.08 418.618 174.672C417.381 173.221 416.762 171.28 416.762 168.848C416.762 166.8 417.317 164.944 418.426 163.28C419.578 161.573 421.242 160.229 423.418 159.248C425.637 158.267 428.261 157.776 431.29 157.776C435.77 157.776 439.29 158.885 441.85 161.104C444.453 163.323 445.946 166.267 446.33 169.936H436.218C436.048 168.699 435.493 167.717 434.554 166.992C433.658 166.267 432.464 165.904 430.97 165.904C429.69 165.904 428.709 166.16 428.026 166.672C427.344 167.141 427.002 167.803 427.002 168.656C427.002 169.68 427.536 170.448 428.602 170.96C429.712 171.472 431.418 171.984 433.722 172.496C436.368 173.179 438.522 173.861 440.186 174.544C441.85 175.184 443.301 176.251 444.538 177.744C445.818 179.195 446.48 181.157 446.522 183.632C446.522 185.723 445.925 187.6 444.73 189.264C443.578 190.885 441.893 192.165 439.674 193.104C437.498 194.043 434.96 194.512 432.058 194.512Z" fill="black"/>
<path d="M396.165 157.904C400.347 157.904 403.675 159.269 406.149 162C408.667 164.688 409.925 168.4 409.925 173.136V194H399.045V174.608C399.045 172.219 398.427 170.363 397.189 169.04C395.952 167.717 394.288 167.056 392.197 167.056C390.107 167.056 388.443 167.717 387.205 169.04C385.968 170.363 385.349 172.219 385.349 174.608V194H374.405V158.288H385.349V163.024C386.459 161.445 387.952 160.208 389.829 159.312C391.707 158.373 393.819 157.904 396.165 157.904Z" fill="black"/>
<path d="M361.034 154.576C359.114 154.576 357.536 154.021 356.298 152.912C355.104 151.76 354.506 150.352 354.506 148.688C354.506 146.981 355.104 145.573 356.298 144.464C357.536 143.312 359.114 142.736 361.034 142.736C362.912 142.736 364.448 143.312 365.642 144.464C366.88 145.573 367.498 146.981 367.498 148.688C367.498 150.352 366.88 151.76 365.642 152.912C364.448 154.021 362.912 154.576 361.034 154.576ZM366.474 158.288V194H355.53V158.288H366.474Z" fill="black"/>
<path d="M323.037 163.344C324.103 161.68 325.575 160.336 327.453 159.312C329.33 158.288 331.527 157.776 334.045 157.776C336.989 157.776 339.655 158.523 342.045 160.016C344.434 161.509 346.311 163.643 347.677 166.416C349.085 169.189 349.789 172.411 349.789 176.08C349.789 179.749 349.085 182.992 347.677 185.808C346.311 188.581 344.434 190.736 342.045 192.272C339.655 193.765 336.989 194.512 334.045 194.512C331.57 194.512 329.373 194 327.453 192.976C325.575 191.952 324.103 190.629 323.037 189.008V211.024H312.093V158.288H323.037V163.344ZM338.653 176.08C338.653 173.349 337.885 171.216 336.349 169.68C334.855 168.101 332.999 167.312 330.781 167.312C328.605 167.312 326.749 168.101 325.213 169.68C323.719 171.259 322.973 173.413 322.973 176.144C322.973 178.875 323.719 181.029 325.213 182.608C326.749 184.187 328.605 184.976 330.781 184.976C332.957 184.976 334.813 184.187 336.349 182.608C337.885 180.987 338.653 178.811 338.653 176.08Z" fill="black"/>
<path d="M279.599 163.344C280.666 161.68 282.138 160.336 284.015 159.312C285.893 158.288 288.09 157.776 290.607 157.776C293.551 157.776 296.218 158.523 298.607 160.016C300.997 161.509 302.874 163.643 304.239 166.416C305.647 169.189 306.351 172.411 306.351 176.08C306.351 179.749 305.647 182.992 304.239 185.808C302.874 188.581 300.997 190.736 298.607 192.272C296.218 193.765 293.551 194.512 290.607 194.512C288.133 194.512 285.935 194 284.015 192.976C282.138 191.952 280.666 190.629 279.599 189.008V211.024H268.655V158.288H279.599V163.344ZM295.215 176.08C295.215 173.349 294.447 171.216 292.911 169.68C291.418 168.101 289.562 167.312 287.343 167.312C285.167 167.312 283.311 168.101 281.775 169.68C280.282 171.259 279.535 173.413 279.535 176.144C279.535 178.875 280.282 181.029 281.775 182.608C283.311 184.187 285.167 184.976 287.343 184.976C289.519 184.976 291.375 184.187 292.911 182.608C294.447 180.987 295.215 178.811 295.215 176.08Z" fill="black"/>
<path d="M244.161 194.512C240.663 194.512 237.505 193.765 234.689 192.272C231.916 190.779 229.719 188.645 228.097 185.872C226.519 183.099 225.729 179.856 225.729 176.144C225.729 172.475 226.54 169.253 228.161 166.48C229.783 163.664 232.001 161.509 234.817 160.016C237.633 158.523 240.791 157.776 244.289 157.776C247.788 157.776 250.945 158.523 253.761 160.016C256.577 161.509 258.796 163.664 260.417 166.48C262.039 169.253 262.849 172.475 262.849 176.144C262.849 179.813 262.017 183.056 260.353 185.872C258.732 188.645 256.492 190.779 253.633 192.272C250.817 193.765 247.66 194.512 244.161 194.512ZM244.161 185.04C246.252 185.04 248.023 184.272 249.473 182.736C250.967 181.2 251.713 179.003 251.713 176.144C251.713 173.285 250.988 171.088 249.537 169.552C248.129 168.016 246.38 167.248 244.289 167.248C242.156 167.248 240.385 168.016 238.977 169.552C237.569 171.045 236.865 173.243 236.865 176.144C236.865 179.003 237.548 181.2 238.913 182.736C240.321 184.272 242.071 185.04 244.161 185.04Z" fill="black"/>
<path d="M222.208 163.536C222.208 166.139 221.61 168.528 220.416 170.704C219.221 172.837 217.386 174.565 214.912 175.888C212.437 177.211 209.365 177.872 205.696 177.872H198.912V194H187.968V149.072H205.696C209.28 149.072 212.309 149.691 214.784 150.928C217.258 152.165 219.114 153.872 220.352 156.048C221.589 158.224 222.208 160.72 222.208 163.536ZM204.864 169.168C206.954 169.168 208.512 168.677 209.536 167.696C210.56 166.715 211.072 165.328 211.072 163.536C211.072 161.744 210.56 160.357 209.536 159.376C208.512 158.395 206.954 157.904 204.864 157.904H198.912V169.168H204.864Z" fill="black"/>
</svg>
