<svg width="842" height="148" viewBox="0 0 842 148" fill="none" xmlns="http://www.w3.org/2000/svg">
<g clip-path="url(#clip0_247_265)">
<rect x="544" y="64" width="24" height="24" fill="#FF7338"/>
<path d="M2.91761 128V110.545H9.1392C10.4915 110.545 11.6136 110.778 12.5057 111.244C13.4034 111.71 14.0739 112.355 14.517 113.179C14.9602 113.997 15.1818 114.943 15.1818 116.017C15.1818 117.085 14.9574 118.026 14.5085 118.838C14.0653 119.645 13.3949 120.273 12.4972 120.722C11.6051 121.17 10.483 121.395 9.13068 121.395H4.41761V119.128H8.89205C9.74432 119.128 10.4375 119.006 10.9716 118.761C11.5114 118.517 11.9062 118.162 12.1562 117.696C12.4062 117.23 12.5312 116.67 12.5312 116.017C12.5312 115.358 12.4034 114.787 12.1477 114.304C11.8977 113.821 11.5028 113.452 10.9631 113.196C10.429 112.935 9.72727 112.804 8.85795 112.804H5.55114V128H2.91761ZM11.5341 120.125L15.8466 128H12.8466L8.61932 120.125H11.5341ZM22.9398 128.264C21.65 128.264 20.5392 127.989 19.6074 127.438C18.6813 126.881 17.9654 126.099 17.4597 125.094C16.9597 124.082 16.7097 122.898 16.7097 121.54C16.7097 120.199 16.9597 119.017 17.4597 117.994C17.9654 116.972 18.6699 116.173 19.5733 115.599C20.4824 115.026 21.5449 114.739 22.7608 114.739C23.4995 114.739 24.2154 114.861 24.9086 115.105C25.6017 115.349 26.2239 115.733 26.775 116.256C27.3262 116.778 27.7608 117.457 28.079 118.293C28.3972 119.122 28.5563 120.131 28.5563 121.318V122.222H18.15V120.312H26.0591C26.0591 119.642 25.9228 119.048 25.65 118.531C25.3773 118.009 24.9938 117.597 24.4995 117.295C24.0108 116.994 23.437 116.844 22.7779 116.844C22.062 116.844 21.437 117.02 20.9029 117.372C20.3745 117.719 19.9654 118.173 19.6756 118.736C19.3915 119.293 19.2495 119.898 19.2495 120.551V122.043C19.2495 122.918 19.4029 123.662 19.7097 124.276C20.0222 124.889 20.4568 125.358 21.0137 125.682C21.5705 126 22.2211 126.159 22.9654 126.159C23.4483 126.159 23.8887 126.091 24.2864 125.955C24.6841 125.812 25.0279 125.602 25.3176 125.324C25.6074 125.045 25.829 124.702 25.9824 124.293L28.3943 124.727C28.2012 125.437 27.8546 126.06 27.3546 126.594C26.8603 127.122 26.2381 127.534 25.4881 127.83C24.7438 128.119 23.8943 128.264 22.9398 128.264ZM40.4734 118.105L38.1637 118.514C38.0671 118.219 37.9137 117.937 37.7035 117.67C37.4989 117.403 37.2205 117.185 36.8682 117.014C36.516 116.844 36.0756 116.759 35.5472 116.759C34.8256 116.759 34.2234 116.92 33.7404 117.244C33.2574 117.562 33.016 117.974 33.016 118.48C33.016 118.918 33.1779 119.27 33.5018 119.537C33.8256 119.804 34.3484 120.023 35.0699 120.193L37.1495 120.67C38.354 120.949 39.2518 121.378 39.8427 121.957C40.4336 122.537 40.729 123.29 40.729 124.216C40.729 125 40.5018 125.699 40.0472 126.312C39.5984 126.92 38.9705 127.398 38.1637 127.744C37.3626 128.091 36.4336 128.264 35.3768 128.264C33.9109 128.264 32.7148 127.952 31.7887 127.327C30.8626 126.696 30.2944 125.801 30.0841 124.642L32.5472 124.267C32.7006 124.909 33.016 125.395 33.4932 125.724C33.9705 126.048 34.5927 126.21 35.3597 126.21C36.1949 126.21 36.8626 126.037 37.3626 125.69C37.8626 125.338 38.1126 124.909 38.1126 124.403C38.1126 123.994 37.9591 123.651 37.6523 123.372C37.3512 123.094 36.8881 122.884 36.2631 122.741L34.0472 122.256C32.8256 121.977 31.9222 121.534 31.337 120.926C30.7574 120.318 30.4677 119.548 30.4677 118.616C30.4677 117.844 30.6836 117.168 31.1154 116.588C31.5472 116.009 32.1438 115.557 32.9052 115.233C33.6665 114.903 34.5387 114.739 35.5216 114.739C36.9364 114.739 38.0501 115.045 38.8626 115.659C39.6751 116.267 40.212 117.082 40.4734 118.105ZM48.4529 128.264C47.1632 128.264 46.0524 127.989 45.1205 127.438C44.1944 126.881 43.4785 126.099 42.9728 125.094C42.4728 124.082 42.2228 122.898 42.2228 121.54C42.2228 120.199 42.4728 119.017 42.9728 117.994C43.4785 116.972 44.183 116.173 45.0864 115.599C45.9955 115.026 47.058 114.739 48.2739 114.739C49.0126 114.739 49.7285 114.861 50.4217 115.105C51.1149 115.349 51.737 115.733 52.2882 116.256C52.8393 116.778 53.2739 117.457 53.5921 118.293C53.9103 119.122 54.0694 120.131 54.0694 121.318V122.222H43.6632V120.312H51.5722C51.5722 119.642 51.4359 119.048 51.1632 118.531C50.8904 118.009 50.5069 117.597 50.0126 117.295C49.5239 116.994 48.9501 116.844 48.291 116.844C47.5751 116.844 46.9501 117.02 46.416 117.372C45.8876 117.719 45.4785 118.173 45.1887 118.736C44.9046 119.293 44.7626 119.898 44.7626 120.551V122.043C44.7626 122.918 44.916 123.662 45.2228 124.276C45.5353 124.889 45.97 125.358 46.5268 125.682C47.0836 126 47.7342 126.159 48.4785 126.159C48.9614 126.159 49.4018 126.091 49.7995 125.955C50.1972 125.812 50.541 125.602 50.8308 125.324C51.1205 125.045 51.3421 124.702 51.4955 124.293L53.9075 124.727C53.7143 125.437 53.3677 126.06 52.8677 126.594C52.3734 127.122 51.7512 127.534 51.0012 127.83C50.2569 128.119 49.4075 128.264 48.4529 128.264ZM59.9865 128.29C59.1569 128.29 58.4069 128.136 57.7365 127.83C57.066 127.517 56.5348 127.065 56.1427 126.474C55.7564 125.884 55.5632 125.159 55.5632 124.301C55.5632 123.562 55.7052 122.955 55.9893 122.477C56.2734 122 56.6569 121.622 57.1399 121.344C57.6228 121.065 58.1626 120.855 58.7592 120.713C59.3558 120.571 59.9637 120.463 60.5831 120.389C61.3672 120.298 62.0035 120.224 62.4922 120.168C62.9808 120.105 63.3359 120.006 63.5575 119.869C63.7791 119.733 63.8899 119.511 63.8899 119.205V119.145C63.8899 118.401 63.6797 117.824 63.2592 117.415C62.8444 117.006 62.2251 116.801 61.4012 116.801C60.5433 116.801 59.8672 116.991 59.3728 117.372C58.8842 117.747 58.5461 118.165 58.3586 118.625L55.9637 118.08C56.2478 117.284 56.6626 116.642 57.2081 116.153C57.7592 115.659 58.3927 115.301 59.1086 115.08C59.8245 114.852 60.5774 114.739 61.3672 114.739C61.8899 114.739 62.4439 114.801 63.0291 114.926C63.62 115.045 64.1711 115.267 64.6825 115.591C65.1995 115.915 65.6228 116.378 65.9524 116.98C66.2819 117.577 66.4467 118.352 66.4467 119.307V128H63.9581V126.21H63.8558C63.691 126.54 63.4439 126.864 63.1143 127.182C62.7848 127.5 62.3615 127.764 61.8444 127.974C61.3274 128.185 60.7081 128.29 59.9865 128.29ZM60.5405 126.244C61.245 126.244 61.8473 126.105 62.3473 125.827C62.853 125.548 63.2365 125.185 63.4978 124.736C63.7649 124.281 63.8984 123.795 63.8984 123.278V121.591C63.8075 121.682 63.6314 121.767 63.37 121.847C63.1143 121.92 62.8217 121.986 62.4922 122.043C62.1626 122.094 61.8416 122.142 61.5291 122.188C61.2166 122.227 60.9552 122.261 60.745 122.29C60.2507 122.352 59.799 122.457 59.3899 122.605C58.9865 122.753 58.6626 122.966 58.4183 123.244C58.1797 123.517 58.0603 123.881 58.0603 124.335C58.0603 124.966 58.2933 125.443 58.7592 125.767C59.2251 126.085 59.8189 126.244 60.5405 126.244ZM69.1209 128V114.909H71.584V116.989H71.7203C71.959 116.284 72.3794 115.73 72.9817 115.327C73.5896 114.918 74.2771 114.713 75.0442 114.713C75.2033 114.713 75.3908 114.719 75.6067 114.73C75.8283 114.741 76.0016 114.756 76.1266 114.773V117.21C76.0243 117.182 75.8425 117.151 75.5811 117.116C75.3197 117.077 75.0584 117.057 74.797 117.057C74.1947 117.057 73.6578 117.185 73.1862 117.44C72.7203 117.69 72.351 118.04 72.0783 118.489C71.8055 118.932 71.6692 119.437 71.6692 120.006V128H69.1209ZM82.6573 128.264C81.3902 128.264 80.2993 127.977 79.3845 127.403C78.4755 126.824 77.7766 126.026 77.288 125.009C76.7993 123.991 76.555 122.827 76.555 121.514C76.555 120.185 76.805 119.011 77.305 117.994C77.805 116.972 78.5095 116.173 79.4186 115.599C80.3277 115.026 81.3988 114.739 82.6317 114.739C83.626 114.739 84.5124 114.923 85.2908 115.293C86.0692 115.656 86.697 116.168 87.1743 116.827C87.6573 117.486 87.9442 118.256 88.0351 119.136H85.555C85.4186 118.523 85.1061 117.994 84.6175 117.551C84.1345 117.108 83.4868 116.886 82.6743 116.886C81.9641 116.886 81.3419 117.074 80.8078 117.449C80.2794 117.818 79.8675 118.347 79.572 119.034C79.2766 119.716 79.1289 120.523 79.1289 121.455C79.1289 122.409 79.2738 123.233 79.5635 123.926C79.8533 124.619 80.2624 125.156 80.7908 125.537C81.3249 125.918 81.9527 126.108 82.6743 126.108C83.1573 126.108 83.5948 126.02 83.9868 125.844C84.3845 125.662 84.7169 125.403 84.984 125.068C85.2567 124.733 85.447 124.33 85.555 123.858H88.0351C87.9442 124.705 87.6686 125.46 87.2084 126.125C86.7482 126.79 86.1317 127.312 85.359 127.693C84.5919 128.074 83.6914 128.264 82.6573 128.264ZM92.5886 120.227V128H90.0403V110.545H92.5545V117.04H92.7164C93.0232 116.335 93.492 115.776 94.1226 115.361C94.7533 114.946 95.5772 114.739 96.5942 114.739C97.492 114.739 98.2761 114.923 98.9465 115.293C99.6226 115.662 100.145 116.213 100.515 116.946C100.89 117.673 101.077 118.582 101.077 119.673V128H98.5289V119.98C98.5289 119.02 98.2817 118.276 97.7874 117.747C97.2931 117.213 96.6056 116.946 95.7249 116.946C95.1226 116.946 94.5829 117.074 94.1056 117.33C93.634 117.585 93.2618 117.96 92.9891 118.455C92.7221 118.943 92.5886 119.534 92.5886 120.227Z" fill="black"/>
<path d="M174.918 128V110.545H181.139C182.497 110.545 183.622 110.793 184.514 111.287C185.406 111.781 186.074 112.457 186.517 113.315C186.96 114.168 187.182 115.128 187.182 116.196C187.182 117.27 186.957 118.236 186.509 119.094C186.065 119.946 185.395 120.622 184.497 121.122C183.605 121.616 182.483 121.864 181.131 121.864H176.852V119.631H180.892C181.75 119.631 182.446 119.483 182.98 119.188C183.514 118.886 183.906 118.477 184.156 117.96C184.406 117.443 184.531 116.855 184.531 116.196C184.531 115.537 184.406 114.952 184.156 114.44C183.906 113.929 183.511 113.528 182.972 113.239C182.438 112.949 181.733 112.804 180.858 112.804H177.551V128H174.918ZM194.823 128.264C193.533 128.264 192.422 127.989 191.49 127.438C190.564 126.881 189.848 126.099 189.342 125.094C188.842 124.082 188.592 122.898 188.592 121.54C188.592 120.199 188.842 119.017 189.342 117.994C189.848 116.972 190.553 116.173 191.456 115.599C192.365 115.026 193.428 114.739 194.644 114.739C195.382 114.739 196.098 114.861 196.791 115.105C197.485 115.349 198.107 115.733 198.658 116.256C199.209 116.778 199.644 117.457 199.962 118.293C200.28 119.122 200.439 120.131 200.439 121.318V122.222H190.033V120.312H197.942C197.942 119.642 197.806 119.048 197.533 118.531C197.26 118.009 196.877 117.597 196.382 117.295C195.894 116.994 195.32 116.844 194.661 116.844C193.945 116.844 193.32 117.02 192.786 117.372C192.257 117.719 191.848 118.173 191.558 118.736C191.274 119.293 191.132 119.898 191.132 120.551V122.043C191.132 122.918 191.286 123.662 191.592 124.276C191.905 124.889 192.34 125.358 192.896 125.682C193.453 126 194.104 126.159 194.848 126.159C195.331 126.159 195.771 126.091 196.169 125.955C196.567 125.812 196.911 125.602 197.2 125.324C197.49 125.045 197.712 124.702 197.865 124.293L200.277 124.727C200.084 125.437 199.737 126.06 199.237 126.594C198.743 127.122 198.121 127.534 197.371 127.83C196.627 128.119 195.777 128.264 194.823 128.264ZM202.547 128V114.909H205.01V116.989H205.146C205.385 116.284 205.805 115.73 206.407 115.327C207.015 114.918 207.703 114.713 208.47 114.713C208.629 114.713 208.816 114.719 209.032 114.73C209.254 114.741 209.427 114.756 209.552 114.773V117.21C209.45 117.182 209.268 117.151 209.007 117.116C208.745 117.077 208.484 117.057 208.223 117.057C207.62 117.057 207.083 117.185 206.612 117.44C206.146 117.69 205.777 118.04 205.504 118.489C205.231 118.932 205.095 119.437 205.095 120.006V128H202.547ZM220.847 118.105L218.537 118.514C218.441 118.219 218.287 117.937 218.077 117.67C217.873 117.403 217.594 117.185 217.242 117.014C216.89 116.844 216.449 116.759 215.921 116.759C215.199 116.759 214.597 116.92 214.114 117.244C213.631 117.562 213.39 117.974 213.39 118.48C213.39 118.918 213.552 119.27 213.876 119.537C214.199 119.804 214.722 120.023 215.444 120.193L217.523 120.67C218.728 120.949 219.626 121.378 220.216 121.957C220.807 122.537 221.103 123.29 221.103 124.216C221.103 125 220.876 125.699 220.421 126.312C219.972 126.92 219.344 127.398 218.537 127.744C217.736 128.091 216.807 128.264 215.751 128.264C214.285 128.264 213.089 127.952 212.162 127.327C211.236 126.696 210.668 125.801 210.458 124.642L212.921 124.267C213.074 124.909 213.39 125.395 213.867 125.724C214.344 126.048 214.966 126.21 215.733 126.21C216.569 126.21 217.236 126.037 217.736 125.69C218.236 125.338 218.486 124.909 218.486 124.403C218.486 123.994 218.333 123.651 218.026 123.372C217.725 123.094 217.262 122.884 216.637 122.741L214.421 122.256C213.199 121.977 212.296 121.534 211.711 120.926C211.131 120.318 210.841 119.548 210.841 118.616C210.841 117.844 211.057 117.168 211.489 116.588C211.921 116.009 212.518 115.557 213.279 115.233C214.04 114.903 214.912 114.739 215.895 114.739C217.31 114.739 218.424 115.045 219.236 115.659C220.049 116.267 220.586 117.082 220.847 118.105ZM228.699 128.264C227.472 128.264 226.401 127.983 225.486 127.42C224.571 126.858 223.861 126.071 223.355 125.06C222.849 124.048 222.597 122.866 222.597 121.514C222.597 120.156 222.849 118.969 223.355 117.952C223.861 116.935 224.571 116.145 225.486 115.582C226.401 115.02 227.472 114.739 228.699 114.739C229.926 114.739 230.997 115.02 231.912 115.582C232.827 116.145 233.537 116.935 234.043 117.952C234.548 118.969 234.801 120.156 234.801 121.514C234.801 122.866 234.548 124.048 234.043 125.06C233.537 126.071 232.827 126.858 231.912 127.42C230.997 127.983 229.926 128.264 228.699 128.264ZM228.707 126.125C229.503 126.125 230.162 125.915 230.685 125.494C231.207 125.074 231.594 124.514 231.844 123.815C232.099 123.116 232.227 122.347 232.227 121.506C232.227 120.67 232.099 119.903 231.844 119.205C231.594 118.5 231.207 117.935 230.685 117.509C230.162 117.082 229.503 116.869 228.707 116.869C227.906 116.869 227.241 117.082 226.713 117.509C226.19 117.935 225.801 118.5 225.545 119.205C225.295 119.903 225.17 120.67 225.17 121.506C225.17 122.347 225.295 123.116 225.545 123.815C225.801 124.514 226.19 125.074 226.713 125.494C227.241 125.915 227.906 126.125 228.707 126.125ZM239.474 120.227V128H236.926V114.909H239.372V117.04H239.534C239.835 116.347 240.306 115.79 240.948 115.369C241.596 114.949 242.411 114.739 243.394 114.739C244.286 114.739 245.068 114.926 245.738 115.301C246.409 115.67 246.928 116.222 247.298 116.955C247.667 117.687 247.852 118.594 247.852 119.673V128H245.303V119.98C245.303 119.031 245.056 118.29 244.562 117.756C244.068 117.216 243.389 116.946 242.525 116.946C241.934 116.946 241.409 117.074 240.948 117.33C240.494 117.585 240.133 117.96 239.866 118.455C239.605 118.943 239.474 119.534 239.474 120.227ZM254.359 128.29C253.529 128.29 252.779 128.136 252.109 127.83C251.439 127.517 250.907 127.065 250.515 126.474C250.129 125.884 249.936 125.159 249.936 124.301C249.936 123.562 250.078 122.955 250.362 122.477C250.646 122 251.029 121.622 251.512 121.344C251.995 121.065 252.535 120.855 253.132 120.713C253.728 120.571 254.336 120.463 254.956 120.389C255.74 120.298 256.376 120.224 256.865 120.168C257.353 120.105 257.708 120.006 257.93 119.869C258.152 119.733 258.262 119.511 258.262 119.205V119.145C258.262 118.401 258.052 117.824 257.632 117.415C257.217 117.006 256.598 116.801 255.774 116.801C254.916 116.801 254.24 116.991 253.745 117.372C253.257 117.747 252.919 118.165 252.731 118.625L250.336 118.08C250.62 117.284 251.035 116.642 251.581 116.153C252.132 115.659 252.765 115.301 253.481 115.08C254.197 114.852 254.95 114.739 255.74 114.739C256.262 114.739 256.816 114.801 257.402 114.926C257.993 115.045 258.544 115.267 259.055 115.591C259.572 115.915 259.995 116.378 260.325 116.98C260.654 117.577 260.819 118.352 260.819 119.307V128H258.331V126.21H258.228C258.064 126.54 257.816 126.864 257.487 127.182C257.157 127.5 256.734 127.764 256.217 127.974C255.7 128.185 255.081 128.29 254.359 128.29ZM254.913 126.244C255.618 126.244 256.22 126.105 256.72 125.827C257.225 125.548 257.609 125.185 257.87 124.736C258.137 124.281 258.271 123.795 258.271 123.278V121.591C258.18 121.682 258.004 121.767 257.743 121.847C257.487 121.92 257.194 121.986 256.865 122.043C256.535 122.094 256.214 122.142 255.902 122.188C255.589 122.227 255.328 122.261 255.118 122.29C254.623 122.352 254.171 122.457 253.762 122.605C253.359 122.753 253.035 122.966 252.791 123.244C252.552 123.517 252.433 123.881 252.433 124.335C252.433 124.966 252.666 125.443 253.132 125.767C253.598 126.085 254.191 126.244 254.913 126.244ZM273.303 118.105L270.993 118.514C270.897 118.219 270.743 117.937 270.533 117.67C270.329 117.403 270.05 117.185 269.698 117.014C269.346 116.844 268.905 116.759 268.377 116.759C267.655 116.759 267.053 116.92 266.57 117.244C266.087 117.562 265.846 117.974 265.846 118.48C265.846 118.918 266.008 119.27 266.331 119.537C266.655 119.804 267.178 120.023 267.9 120.193L269.979 120.67C271.184 120.949 272.081 121.378 272.672 121.957C273.263 122.537 273.559 123.29 273.559 124.216C273.559 125 273.331 125.699 272.877 126.312C272.428 126.92 271.8 127.398 270.993 127.744C270.192 128.091 269.263 128.264 268.206 128.264C266.741 128.264 265.545 127.952 264.618 127.327C263.692 126.696 263.124 125.801 262.914 124.642L265.377 124.267C265.53 124.909 265.846 125.395 266.323 125.724C266.8 126.048 267.422 126.21 268.189 126.21C269.025 126.21 269.692 126.037 270.192 125.69C270.692 125.338 270.942 124.909 270.942 124.403C270.942 123.994 270.789 123.651 270.482 123.372C270.181 123.094 269.718 122.884 269.093 122.741L266.877 122.256C265.655 121.977 264.752 121.534 264.167 120.926C263.587 120.318 263.297 119.548 263.297 118.616C263.297 117.844 263.513 117.168 263.945 116.588C264.377 116.009 264.973 115.557 265.735 115.233C266.496 114.903 267.368 114.739 268.351 114.739C269.766 114.739 270.88 115.045 271.692 115.659C272.505 116.267 273.042 117.082 273.303 118.105Z" fill="black"/>
<path d="M545.918 128V110.545H552.31C553.548 110.545 554.574 110.75 555.386 111.159C556.199 111.562 556.807 112.111 557.21 112.804C557.614 113.491 557.815 114.267 557.815 115.131C557.815 115.858 557.682 116.472 557.415 116.972C557.148 117.466 556.79 117.864 556.341 118.165C555.898 118.46 555.409 118.676 554.875 118.812V118.983C555.455 119.011 556.02 119.199 556.571 119.545C557.128 119.886 557.588 120.372 557.952 121.003C558.315 121.634 558.497 122.401 558.497 123.304C558.497 124.196 558.287 124.997 557.866 125.707C557.452 126.412 556.81 126.972 555.94 127.386C555.071 127.795 553.96 128 552.608 128H545.918ZM548.551 125.741H552.352C553.614 125.741 554.517 125.497 555.062 125.009C555.608 124.52 555.881 123.909 555.881 123.176C555.881 122.625 555.741 122.119 555.463 121.659C555.185 121.199 554.787 120.832 554.27 120.56C553.759 120.287 553.151 120.151 552.446 120.151H548.551V125.741ZM548.551 118.097H552.08C552.67 118.097 553.202 117.983 553.673 117.756C554.151 117.528 554.528 117.21 554.807 116.801C555.091 116.386 555.233 115.898 555.233 115.335C555.233 114.614 554.98 114.009 554.474 113.52C553.969 113.031 553.193 112.787 552.148 112.787H548.551V118.097ZM560.696 128V114.909H563.159V116.989H563.296C563.534 116.284 563.955 115.73 564.557 115.327C565.165 114.918 565.852 114.713 566.619 114.713C566.779 114.713 566.966 114.719 567.182 114.73C567.404 114.741 567.577 114.756 567.702 114.773V117.21C567.6 117.182 567.418 117.151 567.156 117.116C566.895 117.077 566.634 117.057 566.372 117.057C565.77 117.057 565.233 117.185 564.762 117.44C564.296 117.69 563.926 118.04 563.654 118.489C563.381 118.932 563.244 119.437 563.244 120.006V128H560.696ZM572.88 128.29C572.05 128.29 571.3 128.136 570.63 127.83C569.959 127.517 569.428 127.065 569.036 126.474C568.649 125.884 568.456 125.159 568.456 124.301C568.456 123.562 568.598 122.955 568.882 122.477C569.167 122 569.55 121.622 570.033 121.344C570.516 121.065 571.056 120.855 571.652 120.713C572.249 120.571 572.857 120.463 573.476 120.389C574.26 120.298 574.897 120.224 575.385 120.168C575.874 120.105 576.229 120.006 576.451 119.869C576.672 119.733 576.783 119.511 576.783 119.205V119.145C576.783 118.401 576.573 117.824 576.152 117.415C575.738 117.006 575.118 116.801 574.294 116.801C573.436 116.801 572.76 116.991 572.266 117.372C571.777 117.747 571.439 118.165 571.252 118.625L568.857 118.08C569.141 117.284 569.556 116.642 570.101 116.153C570.652 115.659 571.286 115.301 572.002 115.08C572.718 114.852 573.471 114.739 574.26 114.739C574.783 114.739 575.337 114.801 575.922 114.926C576.513 115.045 577.064 115.267 577.576 115.591C578.093 115.915 578.516 116.378 578.846 116.98C579.175 117.577 579.34 118.352 579.34 119.307V128H576.851V126.21H576.749C576.584 126.54 576.337 126.864 576.007 127.182C575.678 127.5 575.255 127.764 574.738 127.974C574.221 128.185 573.601 128.29 572.88 128.29ZM573.434 126.244C574.138 126.244 574.74 126.105 575.24 125.827C575.746 125.548 576.13 125.185 576.391 124.736C576.658 124.281 576.792 123.795 576.792 123.278V121.591C576.701 121.682 576.524 121.767 576.263 121.847C576.007 121.92 575.715 121.986 575.385 122.043C575.056 122.094 574.735 122.142 574.422 122.188C574.11 122.227 573.848 122.261 573.638 122.29C573.144 122.352 572.692 122.457 572.283 122.605C571.88 122.753 571.556 122.966 571.311 123.244C571.073 123.517 570.953 123.881 570.953 124.335C570.953 124.966 571.186 125.443 571.652 125.767C572.118 126.085 572.712 126.244 573.434 126.244ZM584.562 120.227V128H582.014V114.909H584.46V117.04H584.622C584.923 116.347 585.395 115.79 586.037 115.369C586.684 114.949 587.5 114.739 588.483 114.739C589.375 114.739 590.156 114.926 590.827 115.301C591.497 115.67 592.017 116.222 592.386 116.955C592.755 117.687 592.94 118.594 592.94 119.673V128H590.392V119.98C590.392 119.031 590.145 118.29 589.65 117.756C589.156 117.216 588.477 116.946 587.613 116.946C587.023 116.946 586.497 117.074 586.037 117.33C585.582 117.585 585.221 117.96 584.954 118.455C584.693 118.943 584.562 119.534 584.562 120.227ZM600.538 128.256C599.482 128.256 598.538 127.986 597.709 127.446C596.885 126.901 596.237 126.125 595.766 125.119C595.3 124.108 595.067 122.895 595.067 121.48C595.067 120.065 595.303 118.855 595.774 117.849C596.251 116.844 596.905 116.074 597.734 115.54C598.564 115.006 599.504 114.739 600.555 114.739C601.368 114.739 602.021 114.875 602.516 115.148C603.016 115.415 603.402 115.727 603.675 116.085C603.953 116.443 604.169 116.759 604.322 117.031H604.476V110.545H607.024V128H604.535V125.963H604.322C604.169 126.241 603.947 126.56 603.658 126.918C603.374 127.276 602.982 127.588 602.482 127.855C601.982 128.122 601.334 128.256 600.538 128.256ZM601.101 126.082C601.834 126.082 602.453 125.889 602.959 125.503C603.47 125.111 603.857 124.568 604.118 123.875C604.385 123.182 604.518 122.375 604.518 121.455C604.518 120.545 604.388 119.75 604.126 119.068C603.865 118.386 603.482 117.855 602.976 117.474C602.47 117.094 601.845 116.903 601.101 116.903C600.334 116.903 599.695 117.102 599.183 117.5C598.672 117.898 598.285 118.44 598.024 119.128C597.768 119.815 597.641 120.591 597.641 121.455C597.641 122.33 597.771 123.116 598.033 123.815C598.294 124.514 598.68 125.068 599.192 125.477C599.709 125.881 600.345 126.082 601.101 126.082ZM609.941 128V114.909H612.489V128H609.941ZM611.228 112.889C610.785 112.889 610.404 112.741 610.086 112.446C609.774 112.145 609.617 111.787 609.617 111.372C609.617 110.952 609.774 110.594 610.086 110.298C610.404 109.997 610.785 109.847 611.228 109.847C611.671 109.847 612.049 109.997 612.362 110.298C612.68 110.594 612.839 110.952 612.839 111.372C612.839 111.787 612.68 112.145 612.362 112.446C612.049 112.741 611.671 112.889 611.228 112.889ZM617.746 120.227V128H615.198V114.909H617.644V117.04H617.806C618.107 116.347 618.578 115.79 619.22 115.369C619.868 114.949 620.684 114.739 621.667 114.739C622.559 114.739 623.34 114.926 624.01 115.301C624.681 115.67 625.201 116.222 625.57 116.955C625.939 117.687 626.124 118.594 626.124 119.673V128H623.576V119.98C623.576 119.031 623.328 118.29 622.834 117.756C622.34 117.216 621.661 116.946 620.797 116.946C620.206 116.946 619.681 117.074 619.22 117.33C618.766 117.585 618.405 117.96 618.138 118.455C617.877 118.943 617.746 119.534 617.746 120.227ZM634.31 133.182C633.27 133.182 632.375 133.045 631.625 132.773C630.881 132.5 630.273 132.139 629.802 131.69C629.33 131.241 628.978 130.75 628.745 130.216L630.935 129.312C631.089 129.562 631.293 129.827 631.549 130.105C631.81 130.389 632.162 130.631 632.606 130.83C633.054 131.028 633.631 131.128 634.336 131.128C635.302 131.128 636.1 130.892 636.731 130.42C637.361 129.955 637.677 129.21 637.677 128.188V125.614H637.515C637.361 125.892 637.14 126.202 636.85 126.543C636.566 126.884 636.174 127.179 635.674 127.429C635.174 127.679 634.523 127.804 633.722 127.804C632.688 127.804 631.756 127.562 630.927 127.08C630.103 126.591 629.449 125.872 628.966 124.923C628.489 123.969 628.25 122.795 628.25 121.403C628.25 120.011 628.486 118.818 628.958 117.824C629.435 116.83 630.089 116.068 630.918 115.54C631.748 115.006 632.688 114.739 633.739 114.739C634.552 114.739 635.208 114.875 635.708 115.148C636.208 115.415 636.597 115.727 636.875 116.085C637.16 116.443 637.378 116.759 637.532 117.031H637.719V114.909H640.216V128.29C640.216 129.415 639.955 130.338 639.432 131.06C638.91 131.781 638.202 132.315 637.31 132.662C636.424 133.009 635.424 133.182 634.31 133.182ZM634.285 125.69C635.018 125.69 635.637 125.52 636.143 125.179C636.654 124.832 637.04 124.338 637.302 123.696C637.569 123.048 637.702 122.273 637.702 121.369C637.702 120.489 637.572 119.713 637.31 119.043C637.049 118.372 636.665 117.849 636.16 117.474C635.654 117.094 635.029 116.903 634.285 116.903C633.518 116.903 632.878 117.102 632.367 117.5C631.856 117.892 631.469 118.426 631.208 119.102C630.952 119.778 630.824 120.534 630.824 121.369C630.824 122.227 630.955 122.98 631.216 123.628C631.478 124.276 631.864 124.781 632.375 125.145C632.893 125.509 633.529 125.69 634.285 125.69Z" fill="black"/>
<path d="M726.918 128V110.545H733.139C734.497 110.545 735.622 110.793 736.514 111.287C737.406 111.781 738.074 112.457 738.517 113.315C738.96 114.168 739.182 115.128 739.182 116.196C739.182 117.27 738.957 118.236 738.509 119.094C738.065 119.946 737.395 120.622 736.497 121.122C735.605 121.616 734.483 121.864 733.131 121.864H728.852V119.631H732.892C733.75 119.631 734.446 119.483 734.98 119.188C735.514 118.886 735.906 118.477 736.156 117.96C736.406 117.443 736.531 116.855 736.531 116.196C736.531 115.537 736.406 114.952 736.156 114.44C735.906 113.929 735.511 113.528 734.972 113.239C734.438 112.949 733.733 112.804 732.858 112.804H729.551V128H726.918ZM741.345 128V114.909H743.893V128H741.345ZM742.632 112.889C742.188 112.889 741.808 112.741 741.49 112.446C741.177 112.145 741.021 111.787 741.021 111.372C741.021 110.952 741.177 110.594 741.49 110.298C741.808 109.997 742.188 109.847 742.632 109.847C743.075 109.847 743.453 109.997 743.765 110.298C744.083 110.594 744.242 110.952 744.242 111.372C744.242 111.787 744.083 112.145 743.765 112.446C743.453 112.741 743.075 112.889 742.632 112.889ZM752.712 114.909V116.955H745.561V114.909H752.712ZM747.479 111.773H750.027V124.156C750.027 124.651 750.101 125.023 750.249 125.273C750.397 125.517 750.587 125.685 750.82 125.776C751.059 125.861 751.317 125.903 751.596 125.903C751.8 125.903 751.979 125.889 752.132 125.861C752.286 125.832 752.405 125.81 752.49 125.793L752.951 127.898C752.803 127.955 752.593 128.011 752.32 128.068C752.047 128.131 751.706 128.165 751.297 128.17C750.627 128.182 750.002 128.062 749.422 127.812C748.843 127.562 748.374 127.176 748.016 126.653C747.658 126.131 747.479 125.474 747.479 124.685V111.773ZM760.184 128.264C758.917 128.264 757.827 127.977 756.912 127.403C756.003 126.824 755.304 126.026 754.815 125.009C754.327 123.991 754.082 122.827 754.082 121.514C754.082 120.185 754.332 119.011 754.832 117.994C755.332 116.972 756.037 116.173 756.946 115.599C757.855 115.026 758.926 114.739 760.159 114.739C761.153 114.739 762.04 114.923 762.818 115.293C763.596 115.656 764.224 116.168 764.702 116.827C765.184 117.486 765.471 118.256 765.562 119.136H763.082C762.946 118.523 762.633 117.994 762.145 117.551C761.662 117.108 761.014 116.886 760.202 116.886C759.491 116.886 758.869 117.074 758.335 117.449C757.807 117.818 757.395 118.347 757.099 119.034C756.804 119.716 756.656 120.523 756.656 121.455C756.656 122.409 756.801 123.233 757.091 123.926C757.38 124.619 757.79 125.156 758.318 125.537C758.852 125.918 759.48 126.108 760.202 126.108C760.684 126.108 761.122 126.02 761.514 125.844C761.912 125.662 762.244 125.403 762.511 125.068C762.784 124.733 762.974 124.33 763.082 123.858H765.562C765.471 124.705 765.196 125.46 764.736 126.125C764.275 126.79 763.659 127.312 762.886 127.693C762.119 128.074 761.219 128.264 760.184 128.264ZM770.116 120.227V128H767.567V110.545H770.082V117.04H770.244C770.55 116.335 771.019 115.776 771.65 115.361C772.281 114.946 773.104 114.739 774.121 114.739C775.019 114.739 775.803 114.923 776.474 115.293C777.15 115.662 777.673 116.213 778.042 116.946C778.417 117.673 778.604 118.582 778.604 119.673V128H776.056V119.98C776.056 119.02 775.809 118.276 775.315 117.747C774.82 117.213 774.133 116.946 773.252 116.946C772.65 116.946 772.11 117.074 771.633 117.33C771.161 117.585 770.789 117.96 770.516 118.455C770.249 118.943 770.116 119.534 770.116 120.227ZM792.772 128H787.121V110.545H792.951C794.661 110.545 796.13 110.895 797.357 111.594C798.584 112.287 799.524 113.284 800.178 114.585C800.837 115.881 801.167 117.435 801.167 119.247C801.167 121.065 800.834 122.628 800.169 123.935C799.51 125.241 798.556 126.247 797.306 126.952C796.056 127.651 794.544 128 792.772 128ZM789.755 125.699H792.627C793.956 125.699 795.061 125.449 795.942 124.949C796.823 124.443 797.482 123.713 797.919 122.759C798.357 121.798 798.576 120.628 798.576 119.247C798.576 117.878 798.357 116.716 797.919 115.761C797.488 114.807 796.843 114.082 795.985 113.588C795.127 113.094 794.061 112.847 792.789 112.847H789.755V125.699ZM809.159 128.264C807.869 128.264 806.758 127.989 805.826 127.438C804.9 126.881 804.184 126.099 803.679 125.094C803.179 124.082 802.929 122.898 802.929 121.54C802.929 120.199 803.179 119.017 803.679 117.994C804.184 116.972 804.889 116.173 805.792 115.599C806.701 115.026 807.764 114.739 808.98 114.739C809.719 114.739 810.434 114.861 811.128 115.105C811.821 115.349 812.443 115.733 812.994 116.256C813.545 116.778 813.98 117.457 814.298 118.293C814.616 119.122 814.775 120.131 814.775 121.318V122.222H804.369V120.312H812.278C812.278 119.642 812.142 119.048 811.869 118.531C811.596 118.009 811.213 117.597 810.719 117.295C810.23 116.994 809.656 116.844 808.997 116.844C808.281 116.844 807.656 117.02 807.122 117.372C806.594 117.719 806.184 118.173 805.895 118.736C805.611 119.293 805.469 119.898 805.469 120.551V122.043C805.469 122.918 805.622 123.662 805.929 124.276C806.241 124.889 806.676 125.358 807.233 125.682C807.79 126 808.44 126.159 809.184 126.159C809.667 126.159 810.108 126.091 810.505 125.955C810.903 125.812 811.247 125.602 811.537 125.324C811.826 125.045 812.048 124.702 812.201 124.293L814.613 124.727C814.42 125.437 814.074 126.06 813.574 126.594C813.079 127.122 812.457 127.534 811.707 127.83C810.963 128.119 810.113 128.264 809.159 128.264ZM822.397 128.264C821.13 128.264 820.039 127.977 819.124 127.403C818.215 126.824 817.516 126.026 817.028 125.009C816.539 123.991 816.295 122.827 816.295 121.514C816.295 120.185 816.545 119.011 817.045 117.994C817.545 116.972 818.249 116.173 819.158 115.599C820.067 115.026 821.138 114.739 822.371 114.739C823.366 114.739 824.252 114.923 825.03 115.293C825.809 115.656 826.437 116.168 826.914 116.827C827.397 117.486 827.684 118.256 827.775 119.136H825.295C825.158 118.523 824.846 117.994 824.357 117.551C823.874 117.108 823.227 116.886 822.414 116.886C821.704 116.886 821.082 117.074 820.548 117.449C820.019 117.818 819.607 118.347 819.312 119.034C819.016 119.716 818.869 120.523 818.869 121.455C818.869 122.409 819.013 123.233 819.303 123.926C819.593 124.619 820.002 125.156 820.53 125.537C821.065 125.918 821.692 126.108 822.414 126.108C822.897 126.108 823.334 126.02 823.727 125.844C824.124 125.662 824.457 125.403 824.724 125.068C824.996 124.733 825.187 124.33 825.295 123.858H827.775C827.684 124.705 827.408 125.46 826.948 126.125C826.488 126.79 825.871 127.312 825.099 127.693C824.332 128.074 823.431 128.264 822.397 128.264ZM832.124 123.56L832.107 120.449H832.55L837.766 114.909H840.817L834.868 121.216H834.467L832.124 123.56ZM829.78 128V110.545H832.328V128H829.78ZM838.047 128L833.359 121.778L835.115 119.997L841.175 128H838.047Z" fill="black"/>
<path d="M351.918 110.545H355.114L360.67 124.114H360.875L366.432 110.545H369.628V128H367.122V115.369H366.96L361.812 127.974H359.733L354.585 115.361H354.423V128H351.918V110.545ZM378.046 128.264C376.819 128.264 375.748 127.983 374.833 127.42C373.918 126.858 373.208 126.071 372.703 125.06C372.197 124.048 371.944 122.866 371.944 121.514C371.944 120.156 372.197 118.969 372.703 117.952C373.208 116.935 373.918 116.145 374.833 115.582C375.748 115.02 376.819 114.739 378.046 114.739C379.274 114.739 380.345 115.02 381.259 115.582C382.174 116.145 382.884 116.935 383.39 117.952C383.896 118.969 384.149 120.156 384.149 121.514C384.149 122.866 383.896 124.048 383.39 125.06C382.884 126.071 382.174 126.858 381.259 127.42C380.345 127.983 379.274 128.264 378.046 128.264ZM378.055 126.125C378.85 126.125 379.509 125.915 380.032 125.494C380.555 125.074 380.941 124.514 381.191 123.815C381.447 123.116 381.575 122.347 381.575 121.506C381.575 120.67 381.447 119.903 381.191 119.205C380.941 118.5 380.555 117.935 380.032 117.509C379.509 117.082 378.85 116.869 378.055 116.869C377.254 116.869 376.589 117.082 376.061 117.509C375.538 117.935 375.149 118.5 374.893 119.205C374.643 119.903 374.518 120.67 374.518 121.506C374.518 122.347 374.643 123.116 374.893 123.815C375.149 124.514 375.538 125.074 376.061 125.494C376.589 125.915 377.254 126.125 378.055 126.125ZM391.787 128.264C390.52 128.264 389.429 127.977 388.515 127.403C387.605 126.824 386.907 126.026 386.418 125.009C385.929 123.991 385.685 122.827 385.685 121.514C385.685 120.185 385.935 119.011 386.435 117.994C386.935 116.972 387.64 116.173 388.549 115.599C389.458 115.026 390.529 114.739 391.762 114.739C392.756 114.739 393.642 114.923 394.421 115.293C395.199 115.656 395.827 116.168 396.304 116.827C396.787 117.486 397.074 118.256 397.165 119.136H394.685C394.549 118.523 394.236 117.994 393.748 117.551C393.265 117.108 392.617 116.886 391.804 116.886C391.094 116.886 390.472 117.074 389.938 117.449C389.409 117.818 388.998 118.347 388.702 119.034C388.407 119.716 388.259 120.523 388.259 121.455C388.259 122.409 388.404 123.233 388.694 123.926C388.983 124.619 389.392 125.156 389.921 125.537C390.455 125.918 391.083 126.108 391.804 126.108C392.287 126.108 392.725 126.02 393.117 125.844C393.515 125.662 393.847 125.403 394.114 125.068C394.387 124.733 394.577 124.33 394.685 123.858H397.165C397.074 124.705 396.799 125.46 396.338 126.125C395.878 126.79 395.262 127.312 394.489 127.693C393.722 128.074 392.821 128.264 391.787 128.264ZM401.514 123.56L401.497 120.449H401.94L407.156 114.909H410.207L404.258 121.216H403.858L401.514 123.56ZM399.17 128V110.545H401.719V128H399.17ZM407.437 128L402.75 121.778L404.505 119.997L410.565 128H407.437ZM420.102 122.571V114.909H422.659V128H420.153V125.733H420.017C419.716 126.432 419.233 127.014 418.568 127.48C417.909 127.94 417.088 128.17 416.105 128.17C415.264 128.17 414.52 127.986 413.872 127.616C413.23 127.241 412.724 126.688 412.355 125.955C411.991 125.222 411.81 124.315 411.81 123.236V114.909H414.358V122.929C414.358 123.821 414.605 124.531 415.099 125.06C415.594 125.588 416.236 125.852 417.026 125.852C417.503 125.852 417.977 125.733 418.449 125.494C418.926 125.256 419.321 124.895 419.633 124.412C419.952 123.929 420.108 123.315 420.102 122.571ZM425.363 132.909V114.909H427.852V117.031H428.065C428.213 116.759 428.426 116.443 428.704 116.085C428.982 115.727 429.369 115.415 429.863 115.148C430.357 114.875 431.011 114.739 431.823 114.739C432.88 114.739 433.823 115.006 434.653 115.54C435.482 116.074 436.133 116.844 436.605 117.849C437.082 118.855 437.32 120.065 437.32 121.48C437.32 122.895 437.085 124.108 436.613 125.119C436.141 126.125 435.494 126.901 434.67 127.446C433.846 127.986 432.906 128.256 431.849 128.256C431.053 128.256 430.403 128.122 429.897 127.855C429.397 127.588 429.005 127.276 428.721 126.918C428.437 126.56 428.218 126.241 428.065 125.963H427.911V132.909H425.363ZM427.86 121.455C427.86 122.375 427.994 123.182 428.261 123.875C428.528 124.568 428.914 125.111 429.42 125.503C429.926 125.889 430.545 126.082 431.278 126.082C432.039 126.082 432.676 125.881 433.187 125.477C433.698 125.068 434.085 124.514 434.346 123.815C434.613 123.116 434.747 122.33 434.747 121.455C434.747 120.591 434.616 119.815 434.355 119.128C434.099 118.44 433.713 117.898 433.195 117.5C432.684 117.102 432.045 116.903 431.278 116.903C430.539 116.903 429.914 117.094 429.403 117.474C428.897 117.855 428.514 118.386 428.252 119.068C427.991 119.75 427.86 120.545 427.86 121.455ZM449.265 118.105L446.956 118.514C446.859 118.219 446.706 117.937 446.495 117.67C446.291 117.403 446.012 117.185 445.66 117.014C445.308 116.844 444.868 116.759 444.339 116.759C443.618 116.759 443.015 116.92 442.532 117.244C442.049 117.562 441.808 117.974 441.808 118.48C441.808 118.918 441.97 119.27 442.294 119.537C442.618 119.804 443.14 120.023 443.862 120.193L445.941 120.67C447.146 120.949 448.044 121.378 448.635 121.957C449.225 122.537 449.521 123.29 449.521 124.216C449.521 125 449.294 125.699 448.839 126.312C448.39 126.92 447.762 127.398 446.956 127.744C446.154 128.091 445.225 128.264 444.169 128.264C442.703 128.264 441.507 127.952 440.581 127.327C439.654 126.696 439.086 125.801 438.876 124.642L441.339 124.267C441.493 124.909 441.808 125.395 442.285 125.724C442.762 126.048 443.385 126.21 444.152 126.21C444.987 126.21 445.654 126.037 446.154 125.69C446.654 125.338 446.904 124.909 446.904 124.403C446.904 123.994 446.751 123.651 446.444 123.372C446.143 123.094 445.68 122.884 445.055 122.741L442.839 122.256C441.618 121.977 440.714 121.534 440.129 120.926C439.549 120.318 439.26 119.548 439.26 118.616C439.26 117.844 439.475 117.168 439.907 116.588C440.339 116.009 440.936 115.557 441.697 115.233C442.458 114.903 443.331 114.739 444.314 114.739C445.728 114.739 446.842 115.045 447.654 115.659C448.467 116.267 449.004 117.082 449.265 118.105Z" fill="black"/>
<path d="M29.4148 144H28.3068L31.5114 135.273H32.6023L35.8068 144H34.6989L32.0909 136.653H32.0227L29.4148 144ZM29.8239 140.591H34.2898V141.528H29.8239V140.591ZM37.6755 140.062V144H36.6698V135.273H37.6755V138.477H37.7607C37.9141 138.139 38.1443 137.871 38.4511 137.672C38.7607 137.47 39.1727 137.369 39.6869 137.369C40.1329 137.369 40.5235 137.459 40.8587 137.638C41.194 137.814 41.4539 138.085 41.6386 138.452C41.8261 138.815 41.9198 139.278 41.9198 139.841V144H40.9141V139.909C40.9141 139.389 40.7792 138.987 40.5093 138.703C40.2423 138.416 39.8715 138.273 39.3971 138.273C39.0676 138.273 38.7721 138.342 38.5107 138.482C38.2522 138.621 38.0477 138.824 37.8971 139.091C37.7494 139.358 37.6755 139.682 37.6755 140.062ZM43.3997 144V137.455H44.3713V138.477H44.4565C44.5929 138.128 44.813 137.857 45.117 137.663C45.421 137.467 45.786 137.369 46.2122 137.369C46.644 137.369 47.0034 137.467 47.2903 137.663C47.5801 137.857 47.8059 138.128 47.9679 138.477H48.036C48.2037 138.139 48.4551 137.871 48.7903 137.672C49.1255 137.47 49.5275 137.369 49.9963 137.369C50.5815 137.369 51.0602 137.553 51.4323 137.919C51.8045 138.283 51.9906 138.849 51.9906 139.619V144H50.9849V139.619C50.9849 139.136 50.8528 138.791 50.5886 138.584C50.3244 138.376 50.0133 138.273 49.6554 138.273C49.1951 138.273 48.8386 138.412 48.5858 138.69C48.3329 138.966 48.2065 139.315 48.2065 139.739V144H47.1838V139.517C47.1838 139.145 47.063 138.845 46.8215 138.618C46.5801 138.388 46.269 138.273 45.8883 138.273C45.6269 138.273 45.3826 138.342 45.1554 138.482C44.9309 138.621 44.7491 138.814 44.6099 139.061C44.4735 139.305 44.4054 139.588 44.4054 139.909V144H43.3997ZM56.2137 144.136C55.583 144.136 55.039 143.997 54.5816 143.719C54.127 143.438 53.7762 143.045 53.529 142.543C53.2847 142.037 53.1625 141.449 53.1625 140.778C53.1625 140.108 53.2847 139.517 53.529 139.006C53.7762 138.491 54.1199 138.091 54.5603 137.804C55.0035 137.514 55.5205 137.369 56.1114 137.369C56.4523 137.369 56.789 137.426 57.1213 137.54C57.4537 137.653 57.7563 137.838 58.029 138.094C58.3017 138.347 58.5191 138.682 58.681 139.099C58.8429 139.517 58.9239 140.031 58.9239 140.642V141.068H53.8785V140.199H57.9012C57.9012 139.83 57.8273 139.5 57.6796 139.21C57.5347 138.92 57.3273 138.692 57.0574 138.524C56.7904 138.357 56.475 138.273 56.1114 138.273C55.7108 138.273 55.3642 138.372 55.0716 138.571C54.7819 138.767 54.5588 139.023 54.4026 139.338C54.2463 139.653 54.1682 139.991 54.1682 140.352V140.932C54.1682 141.426 54.2535 141.845 54.4239 142.189C54.5972 142.53 54.8373 142.79 55.1441 142.969C55.4509 143.145 55.8074 143.233 56.2137 143.233C56.4779 143.233 56.7165 143.196 56.9296 143.122C57.1455 143.045 57.3316 142.932 57.4878 142.781C57.6441 142.628 57.7648 142.437 57.85 142.21L58.8216 142.483C58.7194 142.812 58.5475 143.102 58.306 143.352C58.0645 143.599 57.7662 143.793 57.4111 143.932C57.056 144.068 56.6569 144.136 56.2137 144.136ZM62.5653 144.136C62.0199 144.136 61.5383 143.999 61.1207 143.723C60.7031 143.445 60.3764 143.053 60.1406 142.547C59.9048 142.038 59.7869 141.438 59.7869 140.744C59.7869 140.057 59.9048 139.46 60.1406 138.955C60.3764 138.449 60.7045 138.058 61.125 137.783C61.5454 137.507 62.0312 137.369 62.5824 137.369C63.0085 137.369 63.3452 137.44 63.5923 137.582C63.8423 137.722 64.0327 137.881 64.1633 138.06C64.2969 138.236 64.4006 138.381 64.4744 138.494H64.5596V135.273H65.5653V144H64.5937V142.994H64.4744C64.4006 143.114 64.2954 143.264 64.1591 143.446C64.0227 143.625 63.8281 143.786 63.5753 143.928C63.3224 144.067 62.9858 144.136 62.5653 144.136ZM62.7017 143.233C63.1051 143.233 63.446 143.128 63.7244 142.918C64.0028 142.705 64.2145 142.411 64.3594 142.036C64.5042 141.658 64.5767 141.222 64.5767 140.727C64.5767 140.239 64.5057 139.811 64.3636 139.445C64.2216 139.075 64.0113 138.788 63.7329 138.584C63.4545 138.376 63.1108 138.273 62.7017 138.273C62.2756 138.273 61.9204 138.382 61.6363 138.601C61.3551 138.817 61.1435 139.111 61.0014 139.483C60.8622 139.852 60.7926 140.267 60.7926 140.727C60.7926 141.193 60.8636 141.616 61.0057 141.997C61.1506 142.375 61.3636 142.676 61.6449 142.901C61.929 143.122 62.2812 143.233 62.7017 143.233Z" fill="#7C7C7C"/>
<path d="M200.415 144H199.307L202.511 135.273H203.602L206.807 144H205.699L203.091 136.653H203.023L200.415 144ZM200.824 140.591H205.29V141.528H200.824V140.591ZM208.676 140.062V144H207.67V135.273H208.676V138.477H208.761C208.914 138.139 209.144 137.871 209.451 137.672C209.761 137.47 210.173 137.369 210.687 137.369C211.133 137.369 211.524 137.459 211.859 137.638C212.194 137.814 212.454 138.085 212.639 138.452C212.826 138.815 212.92 139.278 212.92 139.841V144H211.914V139.909C211.914 139.389 211.779 138.987 211.509 138.703C211.242 138.416 210.872 138.273 210.397 138.273C210.068 138.273 209.772 138.342 209.511 138.482C209.252 138.621 209.048 138.824 208.897 139.091C208.749 139.358 208.676 139.682 208.676 140.062ZM214.4 144V137.455H215.371V138.477H215.456C215.593 138.128 215.813 137.857 216.117 137.663C216.421 137.467 216.786 137.369 217.212 137.369C217.644 137.369 218.003 137.467 218.29 137.663C218.58 137.857 218.806 138.128 218.968 138.477H219.036C219.204 138.139 219.455 137.871 219.79 137.672C220.126 137.47 220.528 137.369 220.996 137.369C221.581 137.369 222.06 137.553 222.432 137.919C222.805 138.283 222.991 138.849 222.991 139.619V144H221.985V139.619C221.985 139.136 221.853 138.791 221.589 138.584C221.324 138.376 221.013 138.273 220.655 138.273C220.195 138.273 219.839 138.412 219.586 138.69C219.333 138.966 219.206 139.315 219.206 139.739V144H218.184V139.517C218.184 139.145 218.063 138.845 217.822 138.618C217.58 138.388 217.269 138.273 216.888 138.273C216.627 138.273 216.383 138.342 216.155 138.482C215.931 138.621 215.749 138.814 215.61 139.061C215.474 139.305 215.405 139.588 215.405 139.909V144H214.4ZM227.214 144.136C226.583 144.136 226.039 143.997 225.582 143.719C225.127 143.438 224.776 143.045 224.529 142.543C224.285 142.037 224.163 141.449 224.163 140.778C224.163 140.108 224.285 139.517 224.529 139.006C224.776 138.491 225.12 138.091 225.56 137.804C226.003 137.514 226.52 137.369 227.111 137.369C227.452 137.369 227.789 137.426 228.121 137.54C228.454 137.653 228.756 137.838 229.029 138.094C229.302 138.347 229.519 138.682 229.681 139.099C229.843 139.517 229.924 140.031 229.924 140.642V141.068H224.878V140.199H228.901C228.901 139.83 228.827 139.5 228.68 139.21C228.535 138.92 228.327 138.692 228.057 138.524C227.79 138.357 227.475 138.273 227.111 138.273C226.711 138.273 226.364 138.372 226.072 138.571C225.782 138.767 225.559 139.023 225.403 139.338C225.246 139.653 225.168 139.991 225.168 140.352V140.932C225.168 141.426 225.253 141.845 225.424 142.189C225.597 142.53 225.837 142.79 226.144 142.969C226.451 143.145 226.807 143.233 227.214 143.233C227.478 143.233 227.717 143.196 227.93 143.122C228.145 143.045 228.332 142.932 228.488 142.781C228.644 142.628 228.765 142.437 228.85 142.21L229.822 142.483C229.719 142.812 229.547 143.102 229.306 143.352C229.065 143.599 228.766 143.793 228.411 143.932C228.056 144.068 227.657 144.136 227.214 144.136ZM233.565 144.136C233.02 144.136 232.538 143.999 232.121 143.723C231.703 143.445 231.376 143.053 231.141 142.547C230.905 142.038 230.787 141.438 230.787 140.744C230.787 140.057 230.905 139.46 231.141 138.955C231.376 138.449 231.705 138.058 232.125 137.783C232.545 137.507 233.031 137.369 233.582 137.369C234.009 137.369 234.345 137.44 234.592 137.582C234.842 137.722 235.033 137.881 235.163 138.06C235.297 138.236 235.401 138.381 235.474 138.494H235.56V135.273H236.565V144H235.594V142.994H235.474C235.401 143.114 235.295 143.264 235.159 143.446C235.023 143.625 234.828 143.786 234.575 143.928C234.322 144.067 233.986 144.136 233.565 144.136ZM233.702 143.233C234.105 143.233 234.446 143.128 234.724 142.918C235.003 142.705 235.214 142.411 235.359 142.036C235.504 141.658 235.577 141.222 235.577 140.727C235.577 140.239 235.506 139.811 235.364 139.445C235.222 139.075 235.011 138.788 234.733 138.584C234.455 138.376 234.111 138.273 233.702 138.273C233.276 138.273 232.92 138.382 232.636 138.601C232.355 138.817 232.143 139.111 232.001 139.483C231.862 139.852 231.793 140.267 231.793 140.727C231.793 141.193 231.864 141.616 232.006 141.997C232.151 142.375 232.364 142.676 232.645 142.901C232.929 143.122 233.281 143.233 233.702 143.233Z" fill="#7C7C7C"/>
<path d="M384.83 137.455C384.778 137.023 384.571 136.688 384.207 136.449C383.844 136.21 383.398 136.091 382.869 136.091C382.483 136.091 382.145 136.153 381.855 136.278C381.568 136.403 381.344 136.575 381.182 136.794C381.023 137.013 380.943 137.261 380.943 137.54C380.943 137.773 380.999 137.973 381.109 138.141C381.223 138.305 381.368 138.443 381.544 138.554C381.72 138.662 381.905 138.751 382.098 138.822C382.291 138.891 382.469 138.946 382.631 138.989L383.517 139.227C383.744 139.287 383.997 139.369 384.276 139.474C384.557 139.58 384.825 139.723 385.081 139.905C385.339 140.084 385.553 140.314 385.72 140.595C385.888 140.876 385.972 141.222 385.972 141.631C385.972 142.102 385.848 142.528 385.601 142.909C385.357 143.29 384.999 143.592 384.527 143.817C384.058 144.041 383.489 144.153 382.818 144.153C382.193 144.153 381.652 144.053 381.195 143.851C380.74 143.649 380.382 143.368 380.121 143.007C379.862 142.646 379.716 142.227 379.682 141.75H380.773C380.801 142.08 380.912 142.352 381.105 142.568C381.301 142.781 381.548 142.94 381.847 143.045C382.148 143.148 382.472 143.199 382.818 143.199C383.222 143.199 383.584 143.134 383.905 143.003C384.226 142.869 384.48 142.685 384.668 142.449C384.855 142.21 384.949 141.932 384.949 141.614C384.949 141.324 384.868 141.088 384.706 140.906C384.544 140.724 384.331 140.577 384.067 140.463C383.803 140.349 383.517 140.25 383.21 140.165L382.136 139.858C381.455 139.662 380.915 139.382 380.517 139.018C380.119 138.655 379.92 138.179 379.92 137.591C379.92 137.102 380.053 136.676 380.317 136.312C380.584 135.946 380.942 135.662 381.391 135.46C381.842 135.256 382.347 135.153 382.903 135.153C383.466 135.153 383.966 135.254 384.403 135.456C384.841 135.655 385.188 135.928 385.443 136.274C385.702 136.621 385.838 137.014 385.852 137.455H384.83ZM388.218 140.062V144H387.213V135.273H388.218V138.477H388.304C388.457 138.139 388.687 137.871 388.994 137.672C389.304 137.47 389.716 137.369 390.23 137.369C390.676 137.369 391.066 137.459 391.402 137.638C391.737 137.814 391.997 138.085 392.182 138.452C392.369 138.815 392.463 139.278 392.463 139.841V144H391.457V139.909C391.457 139.389 391.322 138.987 391.052 138.703C390.785 138.416 390.415 138.273 389.94 138.273C389.611 138.273 389.315 138.342 389.054 138.482C388.795 138.621 388.591 138.824 388.44 139.091C388.292 139.358 388.218 139.682 388.218 140.062ZM396.687 144.136C396.056 144.136 395.512 143.997 395.055 143.719C394.6 143.438 394.249 143.045 394.002 142.543C393.758 142.037 393.636 141.449 393.636 140.778C393.636 140.108 393.758 139.517 394.002 139.006C394.249 138.491 394.593 138.091 395.034 137.804C395.477 137.514 395.994 137.369 396.585 137.369C396.926 137.369 397.262 137.426 397.595 137.54C397.927 137.653 398.23 137.838 398.502 138.094C398.775 138.347 398.992 138.682 399.154 139.099C399.316 139.517 399.397 140.031 399.397 140.642V141.068H394.352V140.199H398.374C398.374 139.83 398.301 139.5 398.153 139.21C398.008 138.92 397.801 138.692 397.531 138.524C397.264 138.357 396.948 138.273 396.585 138.273C396.184 138.273 395.838 138.372 395.545 138.571C395.255 138.767 395.032 139.023 394.876 139.338C394.72 139.653 394.642 139.991 394.642 140.352V140.932C394.642 141.426 394.727 141.845 394.897 142.189C395.07 142.53 395.311 142.79 395.617 142.969C395.924 143.145 396.281 143.233 396.687 143.233C396.951 143.233 397.19 143.196 397.403 143.122C397.619 143.045 397.805 142.932 397.961 142.781C398.117 142.628 398.238 142.437 398.323 142.21L399.295 142.483C399.193 142.812 399.021 143.102 398.779 143.352C398.538 143.599 398.24 143.793 397.884 143.932C397.529 144.068 397.13 144.136 396.687 144.136ZM400.567 144V137.455H401.539V138.443H401.607C401.726 138.119 401.942 137.857 402.255 137.655C402.567 137.453 402.919 137.352 403.311 137.352C403.385 137.352 403.478 137.354 403.588 137.357C403.699 137.359 403.783 137.364 403.84 137.369V138.392C403.806 138.384 403.728 138.371 403.605 138.354C403.486 138.334 403.36 138.324 403.226 138.324C402.908 138.324 402.624 138.391 402.374 138.524C402.127 138.655 401.931 138.837 401.786 139.07C401.644 139.3 401.573 139.562 401.573 139.858V144H400.567ZM404.672 144V137.455H405.678V144H404.672ZM405.183 136.364C404.987 136.364 404.818 136.297 404.676 136.163C404.537 136.03 404.467 135.869 404.467 135.682C404.467 135.494 404.537 135.334 404.676 135.2C404.818 135.067 404.987 135 405.183 135C405.379 135 405.547 135.067 405.686 135.2C405.828 135.334 405.899 135.494 405.899 135.682C405.899 135.869 405.828 136.03 405.686 136.163C405.547 136.297 405.379 136.364 405.183 136.364ZM410.074 137.455V138.307H406.546V137.455H410.074ZM407.603 144V136.551C407.603 136.176 407.691 135.864 407.867 135.614C408.043 135.364 408.272 135.176 408.553 135.051C408.834 134.926 409.131 134.864 409.444 134.864C409.691 134.864 409.892 134.884 410.049 134.923C410.205 134.963 410.321 135 410.398 135.034L410.108 135.903C410.057 135.886 409.986 135.865 409.895 135.839C409.807 135.814 409.691 135.801 409.546 135.801C409.213 135.801 408.973 135.885 408.826 136.053C408.681 136.22 408.608 136.466 408.608 136.79V144H407.603Z" fill="#7C7C7C"/>
<path d="M577.83 137.455C577.778 137.023 577.571 136.688 577.207 136.449C576.844 136.21 576.398 136.091 575.869 136.091C575.483 136.091 575.145 136.153 574.855 136.278C574.568 136.403 574.344 136.575 574.182 136.794C574.023 137.013 573.943 137.261 573.943 137.54C573.943 137.773 573.999 137.973 574.109 138.141C574.223 138.305 574.368 138.443 574.544 138.554C574.72 138.662 574.905 138.751 575.098 138.822C575.291 138.891 575.469 138.946 575.631 138.989L576.517 139.227C576.744 139.287 576.997 139.369 577.276 139.474C577.557 139.58 577.825 139.723 578.081 139.905C578.339 140.084 578.553 140.314 578.72 140.595C578.888 140.876 578.972 141.222 578.972 141.631C578.972 142.102 578.848 142.528 578.601 142.909C578.357 143.29 577.999 143.592 577.527 143.817C577.058 144.041 576.489 144.153 575.818 144.153C575.193 144.153 574.652 144.053 574.195 143.851C573.74 143.649 573.382 143.368 573.121 143.007C572.862 142.646 572.716 142.227 572.682 141.75H573.773C573.801 142.08 573.912 142.352 574.105 142.568C574.301 142.781 574.548 142.94 574.847 143.045C575.148 143.148 575.472 143.199 575.818 143.199C576.222 143.199 576.584 143.134 576.905 143.003C577.226 142.869 577.48 142.685 577.668 142.449C577.855 142.21 577.949 141.932 577.949 141.614C577.949 141.324 577.868 141.088 577.706 140.906C577.544 140.724 577.331 140.577 577.067 140.463C576.803 140.349 576.517 140.25 576.21 140.165L575.136 139.858C574.455 139.662 573.915 139.382 573.517 139.018C573.119 138.655 572.92 138.179 572.92 137.591C572.92 137.102 573.053 136.676 573.317 136.312C573.584 135.946 573.942 135.662 574.391 135.46C574.842 135.256 575.347 135.153 575.903 135.153C576.466 135.153 576.966 135.254 577.403 135.456C577.841 135.655 578.188 135.928 578.443 136.274C578.702 136.621 578.838 137.014 578.852 137.455H577.83ZM581.218 140.062V144H580.213V135.273H581.218V138.477H581.304C581.457 138.139 581.687 137.871 581.994 137.672C582.304 137.47 582.716 137.369 583.23 137.369C583.676 137.369 584.066 137.459 584.402 137.638C584.737 137.814 584.997 138.085 585.182 138.452C585.369 138.815 585.463 139.278 585.463 139.841V144H584.457V139.909C584.457 139.389 584.322 138.987 584.052 138.703C583.785 138.416 583.415 138.273 582.94 138.273C582.611 138.273 582.315 138.342 582.054 138.482C581.795 138.621 581.591 138.824 581.44 139.091C581.292 139.358 581.218 139.682 581.218 140.062ZM589.687 144.136C589.056 144.136 588.512 143.997 588.055 143.719C587.6 143.438 587.249 143.045 587.002 142.543C586.758 142.037 586.636 141.449 586.636 140.778C586.636 140.108 586.758 139.517 587.002 139.006C587.249 138.491 587.593 138.091 588.034 137.804C588.477 137.514 588.994 137.369 589.585 137.369C589.926 137.369 590.262 137.426 590.595 137.54C590.927 137.653 591.23 137.838 591.502 138.094C591.775 138.347 591.992 138.682 592.154 139.099C592.316 139.517 592.397 140.031 592.397 140.642V141.068H587.352V140.199H591.374C591.374 139.83 591.301 139.5 591.153 139.21C591.008 138.92 590.801 138.692 590.531 138.524C590.264 138.357 589.948 138.273 589.585 138.273C589.184 138.273 588.838 138.372 588.545 138.571C588.255 138.767 588.032 139.023 587.876 139.338C587.72 139.653 587.642 139.991 587.642 140.352V140.932C587.642 141.426 587.727 141.845 587.897 142.189C588.07 142.53 588.311 142.79 588.617 142.969C588.924 143.145 589.281 143.233 589.687 143.233C589.951 143.233 590.19 143.196 590.403 143.122C590.619 143.045 590.805 142.932 590.961 142.781C591.117 142.628 591.238 142.437 591.323 142.21L592.295 142.483C592.193 142.812 592.021 143.102 591.779 143.352C591.538 143.599 591.24 143.793 590.884 143.932C590.529 144.068 590.13 144.136 589.687 144.136ZM593.567 144V137.455H594.539V138.443H594.607C594.726 138.119 594.942 137.857 595.255 137.655C595.567 137.453 595.919 137.352 596.311 137.352C596.385 137.352 596.478 137.354 596.588 137.357C596.699 137.359 596.783 137.364 596.84 137.369V138.392C596.806 138.384 596.728 138.371 596.605 138.354C596.486 138.334 596.36 138.324 596.226 138.324C595.908 138.324 595.624 138.391 595.374 138.524C595.127 138.655 594.931 138.837 594.786 139.07C594.644 139.3 594.573 139.562 594.573 139.858V144H593.567ZM597.672 144V137.455H598.678V144H597.672ZM598.183 136.364C597.987 136.364 597.818 136.297 597.676 136.163C597.537 136.03 597.467 135.869 597.467 135.682C597.467 135.494 597.537 135.334 597.676 135.2C597.818 135.067 597.987 135 598.183 135C598.379 135 598.547 135.067 598.686 135.2C598.828 135.334 598.899 135.494 598.899 135.682C598.899 135.869 598.828 136.03 598.686 136.163C598.547 136.297 598.379 136.364 598.183 136.364ZM603.074 137.455V138.307H599.546V137.455H603.074ZM600.603 144V136.551C600.603 136.176 600.691 135.864 600.867 135.614C601.043 135.364 601.272 135.176 601.553 135.051C601.834 134.926 602.131 134.864 602.444 134.864C602.691 134.864 602.892 134.884 603.049 134.923C603.205 134.963 603.321 135 603.398 135.034L603.108 135.903C603.057 135.886 602.986 135.865 602.895 135.839C602.807 135.814 602.691 135.801 602.546 135.801C602.213 135.801 601.973 135.885 601.826 136.053C601.681 136.22 601.608 136.466 601.608 136.79V144H600.603Z" fill="#7C7C7C"/>
<path d="M745.415 144H744.307L747.511 135.273H748.602L751.807 144H750.699L748.091 136.653H748.023L745.415 144ZM745.824 140.591H750.29V141.528H745.824V140.591ZM753.676 140.062V144H752.67V135.273H753.676V138.477H753.761C753.914 138.139 754.144 137.871 754.451 137.672C754.761 137.47 755.173 137.369 755.687 137.369C756.133 137.369 756.524 137.459 756.859 137.638C757.194 137.814 757.454 138.085 757.639 138.452C757.826 138.815 757.92 139.278 757.92 139.841V144H756.914V139.909C756.914 139.389 756.779 138.987 756.509 138.703C756.242 138.416 755.872 138.273 755.397 138.273C755.068 138.273 754.772 138.342 754.511 138.482C754.252 138.621 754.048 138.824 753.897 139.091C753.749 139.358 753.676 139.682 753.676 140.062ZM759.4 144V137.455H760.371V138.477H760.456C760.593 138.128 760.813 137.857 761.117 137.663C761.421 137.467 761.786 137.369 762.212 137.369C762.644 137.369 763.003 137.467 763.29 137.663C763.58 137.857 763.806 138.128 763.968 138.477H764.036C764.204 138.139 764.455 137.871 764.79 137.672C765.126 137.47 765.528 137.369 765.996 137.369C766.581 137.369 767.06 137.553 767.432 137.919C767.805 138.283 767.991 138.849 767.991 139.619V144H766.985V139.619C766.985 139.136 766.853 138.791 766.589 138.584C766.324 138.376 766.013 138.273 765.655 138.273C765.195 138.273 764.839 138.412 764.586 138.69C764.333 138.966 764.206 139.315 764.206 139.739V144H763.184V139.517C763.184 139.145 763.063 138.845 762.822 138.618C762.58 138.388 762.269 138.273 761.888 138.273C761.627 138.273 761.383 138.342 761.155 138.482C760.931 138.621 760.749 138.814 760.61 139.061C760.474 139.305 760.405 139.588 760.405 139.909V144H759.4ZM772.214 144.136C771.583 144.136 771.039 143.997 770.582 143.719C770.127 143.438 769.776 143.045 769.529 142.543C769.285 142.037 769.163 141.449 769.163 140.778C769.163 140.108 769.285 139.517 769.529 139.006C769.776 138.491 770.12 138.091 770.56 137.804C771.003 137.514 771.52 137.369 772.111 137.369C772.452 137.369 772.789 137.426 773.121 137.54C773.454 137.653 773.756 137.838 774.029 138.094C774.302 138.347 774.519 138.682 774.681 139.099C774.843 139.517 774.924 140.031 774.924 140.642V141.068H769.878V140.199H773.901C773.901 139.83 773.827 139.5 773.68 139.21C773.535 138.92 773.327 138.692 773.057 138.524C772.79 138.357 772.475 138.273 772.111 138.273C771.711 138.273 771.364 138.372 771.072 138.571C770.782 138.767 770.559 139.023 770.403 139.338C770.246 139.653 770.168 139.991 770.168 140.352V140.932C770.168 141.426 770.253 141.845 770.424 142.189C770.597 142.53 770.837 142.79 771.144 142.969C771.451 143.145 771.807 143.233 772.214 143.233C772.478 143.233 772.717 143.196 772.93 143.122C773.145 143.045 773.332 142.932 773.488 142.781C773.644 142.628 773.765 142.437 773.85 142.21L774.822 142.483C774.719 142.812 774.547 143.102 774.306 143.352C774.065 143.599 773.766 143.793 773.411 143.932C773.056 144.068 772.657 144.136 772.214 144.136ZM778.565 144.136C778.02 144.136 777.538 143.999 777.121 143.723C776.703 143.445 776.376 143.053 776.141 142.547C775.905 142.038 775.787 141.438 775.787 140.744C775.787 140.057 775.905 139.46 776.141 138.955C776.376 138.449 776.705 138.058 777.125 137.783C777.545 137.507 778.031 137.369 778.582 137.369C779.009 137.369 779.345 137.44 779.592 137.582C779.842 137.722 780.033 137.881 780.163 138.06C780.297 138.236 780.401 138.381 780.474 138.494H780.56V135.273H781.565V144H780.594V142.994H780.474C780.401 143.114 780.295 143.264 780.159 143.446C780.023 143.625 779.828 143.786 779.575 143.928C779.322 144.067 778.986 144.136 778.565 144.136ZM778.702 143.233C779.105 143.233 779.446 143.128 779.724 142.918C780.003 142.705 780.214 142.411 780.359 142.036C780.504 141.658 780.577 141.222 780.577 140.727C780.577 140.239 780.506 139.811 780.364 139.445C780.222 139.075 780.011 138.788 779.733 138.584C779.455 138.376 779.111 138.273 778.702 138.273C778.276 138.273 777.92 138.382 777.636 138.601C777.355 138.817 777.143 139.111 777.001 139.483C776.862 139.852 776.793 140.267 776.793 140.727C776.793 141.193 776.864 141.616 777.006 141.997C777.151 142.375 777.364 142.676 777.645 142.901C777.929 143.122 778.281 143.233 778.702 143.233ZM788.759 142.466V136.841H789.713V142.466H788.759ZM786.423 140.131V139.176H792.048V140.131H786.423ZM801.676 137.455C801.625 137.023 801.418 136.688 801.054 136.449C800.69 136.21 800.244 136.091 799.716 136.091C799.33 136.091 798.991 136.153 798.702 136.278C798.415 136.403 798.19 136.575 798.028 136.794C797.869 137.013 797.79 137.261 797.79 137.54C797.79 137.773 797.845 137.973 797.956 138.141C798.07 138.305 798.214 138.443 798.391 138.554C798.567 138.662 798.751 138.751 798.945 138.822C799.138 138.891 799.315 138.946 799.477 138.989L800.364 139.227C800.591 139.287 800.844 139.369 801.122 139.474C801.403 139.58 801.672 139.723 801.928 139.905C802.186 140.084 802.399 140.314 802.567 140.595C802.734 140.876 802.818 141.222 802.818 141.631C802.818 142.102 802.695 142.528 802.447 142.909C802.203 143.29 801.845 143.592 801.374 143.817C800.905 144.041 800.335 144.153 799.665 144.153C799.04 144.153 798.499 144.053 798.041 143.851C797.587 143.649 797.229 143.368 796.967 143.007C796.709 142.646 796.562 142.227 796.528 141.75H797.619C797.648 142.08 797.758 142.352 797.952 142.568C798.148 142.781 798.395 142.94 798.693 143.045C798.994 143.148 799.318 143.199 799.665 143.199C800.068 143.199 800.43 143.134 800.751 143.003C801.072 142.869 801.327 142.685 801.514 142.449C801.702 142.21 801.795 141.932 801.795 141.614C801.795 141.324 801.714 141.088 801.553 140.906C801.391 140.724 801.178 140.577 800.913 140.463C800.649 140.349 800.364 140.25 800.057 140.165L798.983 139.858C798.301 139.662 797.761 139.382 797.364 139.018C796.966 138.655 796.767 138.179 796.767 137.591C796.767 137.102 796.899 136.676 797.163 136.312C797.43 135.946 797.788 135.662 798.237 135.46C798.689 135.256 799.193 135.153 799.75 135.153C800.312 135.153 800.812 135.254 801.25 135.456C801.687 135.655 802.034 135.928 802.29 136.274C802.548 136.621 802.685 137.014 802.699 137.455H801.676ZM805.065 140.062V144H804.059V135.273H805.065V138.477H805.15C805.304 138.139 805.534 137.871 805.841 137.672C806.15 137.47 806.562 137.369 807.076 137.369C807.522 137.369 807.913 137.459 808.248 137.638C808.584 137.814 808.843 138.085 809.028 138.452C809.216 138.815 809.309 139.278 809.309 139.841V144H808.304V139.909C808.304 139.389 808.169 138.987 807.899 138.703C807.632 138.416 807.261 138.273 806.787 138.273C806.457 138.273 806.162 138.342 805.9 138.482C805.642 138.621 805.437 138.824 805.287 139.091C805.139 139.358 805.065 139.682 805.065 140.062ZM813.534 144.136C812.903 144.136 812.359 143.997 811.901 143.719C811.447 143.438 811.096 143.045 810.849 142.543C810.605 142.037 810.482 141.449 810.482 140.778C810.482 140.108 810.605 139.517 810.849 139.006C811.096 138.491 811.44 138.091 811.88 137.804C812.323 137.514 812.84 137.369 813.431 137.369C813.772 137.369 814.109 137.426 814.441 137.54C814.774 137.653 815.076 137.838 815.349 138.094C815.622 138.347 815.839 138.682 816.001 139.099C816.163 139.517 816.244 140.031 816.244 140.642V141.068H811.198V140.199H815.221C815.221 139.83 815.147 139.5 814.999 139.21C814.855 138.92 814.647 138.692 814.377 138.524C814.11 138.357 813.795 138.273 813.431 138.273C813.031 138.273 812.684 138.372 812.391 138.571C812.102 138.767 811.879 139.023 811.722 139.338C811.566 139.653 811.488 139.991 811.488 140.352V140.932C811.488 141.426 811.573 141.845 811.744 142.189C811.917 142.53 812.157 142.79 812.464 142.969C812.771 143.145 813.127 143.233 813.534 143.233C813.798 143.233 814.036 143.196 814.249 143.122C814.465 143.045 814.651 142.932 814.808 142.781C814.964 142.628 815.085 142.437 815.17 142.21L816.141 142.483C816.039 142.812 815.867 143.102 815.626 143.352C815.384 143.599 815.086 143.793 814.731 143.932C814.376 144.068 813.977 144.136 813.534 144.136ZM817.414 144V137.455H818.385V138.443H818.453C818.573 138.119 818.789 137.857 819.101 137.655C819.414 137.453 819.766 137.352 820.158 137.352C820.232 137.352 820.324 137.354 820.435 137.357C820.546 137.359 820.629 137.364 820.686 137.369V138.392C820.652 138.384 820.574 138.371 820.452 138.354C820.333 138.334 820.206 138.324 820.073 138.324C819.754 138.324 819.47 138.391 819.22 138.524C818.973 138.655 818.777 138.837 818.632 139.07C818.49 139.3 818.419 139.562 818.419 139.858V144H817.414ZM821.518 144V137.455H822.524V144H821.518ZM822.03 136.364C821.834 136.364 821.665 136.297 821.523 136.163C821.383 136.03 821.314 135.869 821.314 135.682C821.314 135.494 821.383 135.334 821.523 135.2C821.665 135.067 821.834 135 822.03 135C822.226 135 822.393 135.067 822.533 135.2C822.675 135.334 822.746 135.494 822.746 135.682C822.746 135.869 822.675 136.03 822.533 136.163C822.393 136.297 822.226 136.364 822.03 136.364ZM826.921 137.455V138.307H823.392V137.455H826.921ZM824.449 144V136.551C824.449 136.176 824.537 135.864 824.713 135.614C824.89 135.364 825.118 135.176 825.4 135.051C825.681 134.926 825.978 134.864 826.29 134.864C826.537 134.864 826.739 134.884 826.895 134.923C827.052 134.963 827.168 135 827.245 135.034L826.955 135.903C826.904 135.886 826.833 135.865 826.742 135.839C826.654 135.814 826.537 135.801 826.392 135.801C826.06 135.801 825.82 135.885 825.672 136.053C825.527 136.22 825.455 136.466 825.455 136.79V144H824.449Z" fill="#7C7C7C"/>
<path fill-rule="evenodd" clip-rule="evenodd" d="M138.284 45.6274L143.941 39.9706L138.284 34.3137L126.971 23L121.314 28.6569L132.628 39.9706L121.314 51.2843L126.971 56.9411L138.284 45.6274Z" fill="#B1B1B1"/>
<path fill-rule="evenodd" clip-rule="evenodd" d="M322.284 45.6274L327.941 39.9706L322.284 34.3137L310.971 23L305.314 28.6569L316.628 39.9706L305.314 51.2843L310.971 56.9411L322.284 45.6274Z" fill="#B1B1B1"/>
<path fill-rule="evenodd" clip-rule="evenodd" d="M498.284 45.6274L503.941 39.9706L498.284 34.3137L486.971 23L481.314 28.6569L492.628 39.9706L481.314 51.2843L486.971 56.9411L498.284 45.6274Z" fill="#B1B1B1"/>
<path fill-rule="evenodd" clip-rule="evenodd" d="M690.284 45.6274L695.941 39.9706L690.284 34.3137L678.971 23L673.314 28.6569L684.628 39.9706L673.314 51.2843L678.971 56.9411L690.284 45.6274Z" fill="#B1B1B1"/>
<path fill-rule="evenodd" clip-rule="evenodd" d="M231 16V56H207V16H231ZM199 32V56H175V32L199 32ZM263 56V24L239 24V56H263Z" fill="#B98E01"/>
<path fill-rule="evenodd" clip-rule="evenodd" d="M215 0H223V8H215V0ZM191 16H183V24H191V16ZM199 64V72H175V64H199ZM199 80V88H175V80H199ZM231 72V64H207V72H231ZM231 80V88H207V80H231ZM263 72V64H239V72H263ZM263 80V88H239V80H263ZM255 8H247V16H255V8Z" fill="#E6C867"/>
<path fill-rule="evenodd" clip-rule="evenodd" d="M397 16V72L357 72V16L397 16ZM389 24L389 64H365L365 24L389 24ZM445 24V72L405 72V24L445 24ZM437 32V64H413V32H437Z" fill="#387152"/>
<path fill-rule="evenodd" clip-rule="evenodd" d="M381 32H373V40H381V32ZM397 80V88L357 88V80L397 80ZM445 80V88L405 88V80L445 80ZM373 48H381V56H373V48ZM429 40H421V48H429V40Z" fill="#63DB9A"/>
<path fill-rule="evenodd" clip-rule="evenodd" d="M48 0V24L72 24V48L96 48V72H72H48V48H24V72H0V48V24L24 24V0H48Z" fill="#854EFF"/>
<path fill-rule="evenodd" clip-rule="evenodd" d="M8 8H16V16H8V8ZM96 80V88L0 88V80L96 80ZM64 8H56V16H64V8ZM80 32H88V40H80V32ZM40 56H32V64H40V56Z" fill="#C4A9FF"/>
<path fill-rule="evenodd" clip-rule="evenodd" d="M824 16L744 16L744 72L824 72L824 16ZM816 24L752 24L752 64L816 64L816 24Z" fill="#00B6FF"/>
<rect x="760" y="32" width="8" height="8" fill="#92D2EB"/>
<rect x="760" y="48" width="8" height="8" fill="#92D2EB"/>
<rect x="776" y="32" width="32" height="8" fill="#92D2EB"/>
<rect x="776" y="48" width="32" height="8" fill="#92D2EB"/>
<rect x="744" y="80" width="32" height="8" fill="#92D2EB"/>
<rect x="784" y="80" width="40" height="8" fill="#92D2EB"/>
<path d="M544 16L584 16L584 56L544 56L544 16Z" fill="#FF7338"/>
<rect x="560" y="32" width="8" height="8" fill="#FFB899"/>
<rect x="552" y="72" width="8" height="8" fill="#FFB899"/>
<rect x="589" y="40" width="32" height="8" fill="#FFB899"/>
<rect x="572" y="72" width="32" height="8" fill="#FFB899"/>
<rect x="588" y="16" width="32" height="16" fill="#FFB899"/>
</g>
<defs>
<clipPath id="clip0_247_265">
<rect width="842" height="148" fill="white"/>
</clipPath>
</defs>
</svg>
