<svg width="847" height="148" viewBox="0 0 847 148" fill="none" xmlns="http://www.w3.org/2000/svg">
<g clip-path="url(#clip0_247_146)">
<path d="M9.55114 110.545V128H6.91761V110.545H9.55114ZM15.0101 120.227V128H12.4618V114.909H14.9078V117.04H15.0698C15.3709 116.347 15.8425 115.79 16.4845 115.369C17.1323 114.949 17.9476 114.739 18.9306 114.739C19.8226 114.739 20.6039 114.926 21.2743 115.301C21.9448 115.67 22.4647 116.222 22.834 116.955C23.2033 117.687 23.388 118.594 23.388 119.673V128H20.8397V119.98C20.8397 119.031 20.5925 118.29 20.0982 117.756C19.6039 117.216 18.9249 116.946 18.0612 116.946C17.4703 116.946 16.9448 117.074 16.4845 117.33C16.03 117.585 15.6692 117.96 15.4022 118.455C15.1408 118.943 15.0101 119.534 15.0101 120.227ZM32.1964 114.909V116.955H25.0458V114.909H32.1964ZM26.9634 111.773H29.5117V124.156C29.5117 124.651 29.5856 125.023 29.7333 125.273C29.881 125.517 30.0714 125.685 30.3043 125.776C30.543 125.861 30.8015 125.903 31.0799 125.903C31.2844 125.903 31.4634 125.889 31.6168 125.861C31.7702 125.832 31.8895 125.81 31.9748 125.793L32.435 127.898C32.2873 127.955 32.077 128.011 31.8043 128.068C31.5316 128.131 31.1907 128.165 30.7816 128.17C30.1111 128.182 29.4861 128.062 28.9066 127.812C28.327 127.562 27.8583 127.176 27.5003 126.653C27.1424 126.131 26.9634 125.474 26.9634 124.685V111.773ZM39.7967 128.264C38.5069 128.264 37.3961 127.989 36.4643 127.438C35.5382 126.881 34.8222 126.099 34.3166 125.094C33.8166 124.082 33.5666 122.898 33.5666 121.54C33.5666 120.199 33.8166 119.017 34.3166 117.994C34.8222 116.972 35.5268 116.173 36.4302 115.599C37.3393 115.026 38.4018 114.739 39.6177 114.739C40.3563 114.739 41.0722 114.861 41.7654 115.105C42.4586 115.349 43.0808 115.733 43.6319 116.256C44.183 116.778 44.6177 117.457 44.9359 118.293C45.2541 119.122 45.4132 120.131 45.4132 121.318V122.222H35.0069V120.312H42.916C42.916 119.642 42.7796 119.048 42.5069 118.531C42.2342 118.009 41.8507 117.597 41.3563 117.295C40.8677 116.994 40.2938 116.844 39.6347 116.844C38.9188 116.844 38.2938 117.02 37.7597 117.372C37.2313 117.719 36.8222 118.173 36.5325 118.736C36.2484 119.293 36.1063 119.898 36.1063 120.551V122.043C36.1063 122.918 36.2597 123.662 36.5666 124.276C36.8791 124.889 37.3137 125.358 37.8705 125.682C38.4274 126 39.0779 126.159 39.8222 126.159C40.3052 126.159 40.7455 126.091 41.1433 125.955C41.541 125.812 41.8847 125.602 42.1745 125.324C42.4643 125.045 42.6859 124.702 42.8393 124.293L45.2512 124.727C45.058 125.437 44.7114 126.06 44.2114 126.594C43.7171 127.122 43.095 127.534 42.345 127.83C41.6007 128.119 40.7512 128.264 39.7967 128.264ZM47.5206 128V114.909H49.9836V116.989H50.12C50.3586 116.284 50.7791 115.73 51.3814 115.327C51.9893 114.918 52.6768 114.713 53.4439 114.713C53.603 114.713 53.7905 114.719 54.0064 114.73C54.228 114.741 54.4012 114.756 54.5262 114.773V117.21C54.424 117.182 54.2422 117.151 53.9808 117.116C53.7194 117.077 53.4581 117.057 53.1967 117.057C52.5944 117.057 52.0575 117.185 51.5859 117.44C51.12 117.69 50.7507 118.04 50.478 118.489C50.2052 118.932 50.0689 119.437 50.0689 120.006V128H47.5206ZM67.6088 114.909L62.8616 128H60.1344L55.3787 114.909H58.1145L61.4298 124.983H61.5662L64.873 114.909H67.6088ZM69.2837 128V114.909H71.832V128H69.2837ZM70.5706 112.889C70.1274 112.889 69.7468 112.741 69.4286 112.446C69.1161 112.145 68.9598 111.787 68.9598 111.372C68.9598 110.952 69.1161 110.594 69.4286 110.298C69.7468 109.997 70.1274 109.847 70.5706 109.847C71.0138 109.847 71.3916 109.997 71.7041 110.298C72.0223 110.594 72.1814 110.952 72.1814 111.372C72.1814 111.787 72.0223 112.145 71.7041 112.446C71.3916 112.741 71.0138 112.889 70.5706 112.889ZM80.1823 128.264C78.8925 128.264 77.7817 127.989 76.8499 127.438C75.9238 126.881 75.2079 126.099 74.7022 125.094C74.2022 124.082 73.9522 122.898 73.9522 121.54C73.9522 120.199 74.2022 119.017 74.7022 117.994C75.2079 116.972 75.9124 116.173 76.8158 115.599C77.7249 115.026 78.7874 114.739 80.0033 114.739C80.742 114.739 81.4579 114.861 82.1511 115.105C82.8442 115.349 83.4664 115.733 84.0175 116.256C84.5687 116.778 85.0033 117.457 85.3215 118.293C85.6397 119.122 85.7988 120.131 85.7988 121.318V122.222H75.3925V120.312H83.3016C83.3016 119.642 83.1653 119.048 82.8925 118.531C82.6198 118.009 82.2363 117.597 81.742 117.295C81.2533 116.994 80.6795 116.844 80.0204 116.844C79.3045 116.844 78.6795 117.02 78.1454 117.372C77.617 117.719 77.2079 118.173 76.9181 118.736C76.634 119.293 76.492 119.898 76.492 120.551V122.043C76.492 122.918 76.6454 123.662 76.9522 124.276C77.2647 124.889 77.6993 125.358 78.2562 125.682C78.813 126 79.4636 126.159 80.2079 126.159C80.6908 126.159 81.1312 126.091 81.5289 125.955C81.9266 125.812 82.2704 125.602 82.5601 125.324C82.8499 125.045 83.0715 124.702 83.2249 124.293L85.6368 124.727C85.4437 125.437 85.0971 126.06 84.5971 126.594C84.1028 127.122 83.4806 127.534 82.7306 127.83C81.9863 128.119 81.1368 128.264 80.1823 128.264ZM90.7208 128L86.8685 114.909H89.5021L92.0674 124.523H92.1953L94.7691 114.909H97.4026L99.9595 124.48H100.087L102.636 114.909H105.269L101.425 128H98.8259L96.1668 118.548H95.9708L93.3117 128H90.7208ZM116.777 118.105L114.467 118.514C114.371 118.219 114.217 117.937 114.007 117.67C113.803 117.403 113.524 117.185 113.172 117.014C112.82 116.844 112.379 116.759 111.851 116.759C111.129 116.759 110.527 116.92 110.044 117.244C109.561 117.562 109.32 117.974 109.32 118.48C109.32 118.918 109.482 119.27 109.806 119.537C110.129 119.804 110.652 120.023 111.374 120.193L113.453 120.67C114.658 120.949 115.556 121.378 116.146 121.957C116.737 122.537 117.033 123.29 117.033 124.216C117.033 125 116.806 125.699 116.351 126.312C115.902 126.92 115.274 127.398 114.467 127.744C113.666 128.091 112.737 128.264 111.681 128.264C110.215 128.264 109.019 127.952 108.092 127.327C107.166 126.696 106.598 125.801 106.388 124.642L108.851 124.267C109.004 124.909 109.32 125.395 109.797 125.724C110.274 126.048 110.896 126.21 111.663 126.21C112.499 126.21 113.166 126.037 113.666 125.69C114.166 125.338 114.416 124.909 114.416 124.403C114.416 123.994 114.263 123.651 113.956 123.372C113.655 123.094 113.192 122.884 112.567 122.741L110.351 122.256C109.129 121.977 108.226 121.534 107.641 120.926C107.061 120.318 106.771 119.548 106.771 118.616C106.771 117.844 106.987 117.168 107.419 116.588C107.851 116.009 108.448 115.557 109.209 115.233C109.97 114.903 110.842 114.739 111.825 114.739C113.24 114.739 114.354 115.045 115.166 115.659C115.979 116.267 116.516 117.082 116.777 118.105Z" fill="black"/>
<path d="M191.918 128V110.545H198.139C199.491 110.545 200.614 110.778 201.506 111.244C202.403 111.71 203.074 112.355 203.517 113.179C203.96 113.997 204.182 114.943 204.182 116.017C204.182 117.085 203.957 118.026 203.509 118.838C203.065 119.645 202.395 120.273 201.497 120.722C200.605 121.17 199.483 121.395 198.131 121.395H193.418V119.128H197.892C198.744 119.128 199.438 119.006 199.972 118.761C200.511 118.517 200.906 118.162 201.156 117.696C201.406 117.23 201.531 116.67 201.531 116.017C201.531 115.358 201.403 114.787 201.148 114.304C200.898 113.821 200.503 113.452 199.963 113.196C199.429 112.935 198.727 112.804 197.858 112.804H194.551V128H191.918ZM200.534 120.125L204.847 128H201.847L197.619 120.125H200.534ZM211.94 128.264C210.65 128.264 209.539 127.989 208.607 127.438C207.681 126.881 206.965 126.099 206.46 125.094C205.96 124.082 205.71 122.898 205.71 121.54C205.71 120.199 205.96 119.017 206.46 117.994C206.965 116.972 207.67 116.173 208.573 115.599C209.482 115.026 210.545 114.739 211.761 114.739C212.499 114.739 213.215 114.861 213.909 115.105C214.602 115.349 215.224 115.733 215.775 116.256C216.326 116.778 216.761 117.457 217.079 118.293C217.397 119.122 217.556 120.131 217.556 121.318V122.222H207.15V120.312H215.059C215.059 119.642 214.923 119.048 214.65 118.531C214.377 118.009 213.994 117.597 213.499 117.295C213.011 116.994 212.437 116.844 211.778 116.844C211.062 116.844 210.437 117.02 209.903 117.372C209.374 117.719 208.965 118.173 208.676 118.736C208.392 119.293 208.249 119.898 208.249 120.551V122.043C208.249 122.918 208.403 123.662 208.71 124.276C209.022 124.889 209.457 125.358 210.014 125.682C210.57 126 211.221 126.159 211.965 126.159C212.448 126.159 212.889 126.091 213.286 125.955C213.684 125.812 214.028 125.602 214.318 125.324C214.607 125.045 214.829 124.702 214.982 124.293L217.394 124.727C217.201 125.437 216.855 126.06 216.355 126.594C215.86 127.122 215.238 127.534 214.488 127.83C213.744 128.119 212.894 128.264 211.94 128.264ZM229.473 118.105L227.164 118.514C227.067 118.219 226.914 117.937 226.703 117.67C226.499 117.403 226.221 117.185 225.868 117.014C225.516 116.844 225.076 116.759 224.547 116.759C223.826 116.759 223.223 116.92 222.74 117.244C222.257 117.562 222.016 117.974 222.016 118.48C222.016 118.918 222.178 119.27 222.502 119.537C222.826 119.804 223.348 120.023 224.07 120.193L226.149 120.67C227.354 120.949 228.252 121.378 228.843 121.957C229.434 122.537 229.729 123.29 229.729 124.216C229.729 125 229.502 125.699 229.047 126.312C228.598 126.92 227.971 127.398 227.164 127.744C226.363 128.091 225.434 128.264 224.377 128.264C222.911 128.264 221.715 127.952 220.789 127.327C219.863 126.696 219.294 125.801 219.084 124.642L221.547 124.267C221.701 124.909 222.016 125.395 222.493 125.724C222.971 126.048 223.593 126.21 224.36 126.21C225.195 126.21 225.863 126.037 226.363 125.69C226.863 125.338 227.113 124.909 227.113 124.403C227.113 123.994 226.959 123.651 226.652 123.372C226.351 123.094 225.888 122.884 225.263 122.741L223.047 122.256C221.826 121.977 220.922 121.534 220.337 120.926C219.757 120.318 219.468 119.548 219.468 118.616C219.468 117.844 219.684 117.168 220.115 116.588C220.547 116.009 221.144 115.557 221.905 115.233C222.667 114.903 223.539 114.739 224.522 114.739C225.936 114.739 227.05 115.045 227.863 115.659C228.675 116.267 229.212 117.082 229.473 118.105ZM237.453 128.264C236.163 128.264 235.052 127.989 234.121 127.438C233.194 126.881 232.478 126.099 231.973 125.094C231.473 124.082 231.223 122.898 231.223 121.54C231.223 120.199 231.473 119.017 231.973 117.994C232.478 116.972 233.183 116.173 234.086 115.599C234.996 115.026 236.058 114.739 237.274 114.739C238.013 114.739 238.728 114.861 239.422 115.105C240.115 115.349 240.737 115.733 241.288 116.256C241.839 116.778 242.274 117.457 242.592 118.293C242.91 119.122 243.069 120.131 243.069 121.318V122.222H232.663V120.312H240.572C240.572 119.642 240.436 119.048 240.163 118.531C239.89 118.009 239.507 117.597 239.013 117.295C238.524 116.994 237.95 116.844 237.291 116.844C236.575 116.844 235.95 117.02 235.416 117.372C234.888 117.719 234.478 118.173 234.189 118.736C233.905 119.293 233.763 119.898 233.763 120.551V122.043C233.763 122.918 233.916 123.662 234.223 124.276C234.535 124.889 234.97 125.358 235.527 125.682C236.084 126 236.734 126.159 237.478 126.159C237.961 126.159 238.402 126.091 238.8 125.955C239.197 125.812 239.541 125.602 239.831 125.324C240.121 125.045 240.342 124.702 240.496 124.293L242.907 124.727C242.714 125.437 242.368 126.06 241.868 126.594C241.373 127.122 240.751 127.534 240.001 127.83C239.257 128.119 238.407 128.264 237.453 128.264ZM248.986 128.29C248.157 128.29 247.407 128.136 246.736 127.83C246.066 127.517 245.535 127.065 245.143 126.474C244.756 125.884 244.563 125.159 244.563 124.301C244.563 123.562 244.705 122.955 244.989 122.477C245.273 122 245.657 121.622 246.14 121.344C246.623 121.065 247.163 120.855 247.759 120.713C248.356 120.571 248.964 120.463 249.583 120.389C250.367 120.298 251.004 120.224 251.492 120.168C251.981 120.105 252.336 120.006 252.557 119.869C252.779 119.733 252.89 119.511 252.89 119.205V119.145C252.89 118.401 252.68 117.824 252.259 117.415C251.844 117.006 251.225 116.801 250.401 116.801C249.543 116.801 248.867 116.991 248.373 117.372C247.884 117.747 247.546 118.165 247.359 118.625L244.964 118.08C245.248 117.284 245.663 116.642 246.208 116.153C246.759 115.659 247.393 115.301 248.109 115.08C248.825 114.852 249.577 114.739 250.367 114.739C250.89 114.739 251.444 114.801 252.029 114.926C252.62 115.045 253.171 115.267 253.682 115.591C254.2 115.915 254.623 116.378 254.952 116.98C255.282 117.577 255.447 118.352 255.447 119.307V128H252.958V126.21H252.856C252.691 126.54 252.444 126.864 252.114 127.182C251.785 127.5 251.361 127.764 250.844 127.974C250.327 128.185 249.708 128.29 248.986 128.29ZM249.54 126.244C250.245 126.244 250.847 126.105 251.347 125.827C251.853 125.548 252.236 125.185 252.498 124.736C252.765 124.281 252.898 123.795 252.898 123.278V121.591C252.807 121.682 252.631 121.767 252.37 121.847C252.114 121.92 251.822 121.986 251.492 122.043C251.163 122.094 250.842 122.142 250.529 122.188C250.217 122.227 249.955 122.261 249.745 122.29C249.251 122.352 248.799 122.457 248.39 122.605C247.986 122.753 247.663 122.966 247.418 123.244C247.18 123.517 247.06 123.881 247.06 124.335C247.06 124.966 247.293 125.443 247.759 125.767C248.225 126.085 248.819 126.244 249.54 126.244ZM258.121 128V114.909H260.584V116.989H260.72C260.959 116.284 261.379 115.73 261.982 115.327C262.59 114.918 263.277 114.713 264.044 114.713C264.203 114.713 264.391 114.719 264.607 114.73C264.828 114.741 265.002 114.756 265.127 114.773V117.21C265.024 117.182 264.842 117.151 264.581 117.116C264.32 117.077 264.058 117.057 263.797 117.057C263.195 117.057 262.658 117.185 262.186 117.44C261.72 117.69 261.351 118.04 261.078 118.489C260.806 118.932 260.669 119.437 260.669 120.006V128H258.121ZM271.657 128.264C270.39 128.264 269.299 127.977 268.385 127.403C267.475 126.824 266.777 126.026 266.288 125.009C265.799 123.991 265.555 122.827 265.555 121.514C265.555 120.185 265.805 119.011 266.305 117.994C266.805 116.972 267.51 116.173 268.419 115.599C269.328 115.026 270.399 114.739 271.632 114.739C272.626 114.739 273.512 114.923 274.291 115.293C275.069 115.656 275.697 116.168 276.174 116.827C276.657 117.486 276.944 118.256 277.035 119.136H274.555C274.419 118.523 274.106 117.994 273.618 117.551C273.135 117.108 272.487 116.886 271.674 116.886C270.964 116.886 270.342 117.074 269.808 117.449C269.279 117.818 268.868 118.347 268.572 119.034C268.277 119.716 268.129 120.523 268.129 121.455C268.129 122.409 268.274 123.233 268.564 123.926C268.853 124.619 269.262 125.156 269.791 125.537C270.325 125.918 270.953 126.108 271.674 126.108C272.157 126.108 272.595 126.02 272.987 125.844C273.385 125.662 273.717 125.403 273.984 125.068C274.257 124.733 274.447 124.33 274.555 123.858H277.035C276.944 124.705 276.669 125.46 276.208 126.125C275.748 126.79 275.132 127.312 274.359 127.693C273.592 128.074 272.691 128.264 271.657 128.264ZM281.589 120.227V128H279.04V110.545H281.554V117.04H281.716C282.023 116.335 282.492 115.776 283.123 115.361C283.753 114.946 284.577 114.739 285.594 114.739C286.492 114.739 287.276 114.923 287.947 115.293C288.623 115.662 289.145 116.213 289.515 116.946C289.89 117.673 290.077 118.582 290.077 119.673V128H287.529V119.98C287.529 119.02 287.282 118.276 286.787 117.747C286.293 117.213 285.606 116.946 284.725 116.946C284.123 116.946 283.583 117.074 283.106 117.33C282.634 117.585 282.262 117.96 281.989 118.455C281.722 118.943 281.589 119.534 281.589 120.227Z" fill="black"/>
<path d="M364.918 128V110.545H371.139C372.497 110.545 373.622 110.793 374.514 111.287C375.406 111.781 376.074 112.457 376.517 113.315C376.96 114.168 377.182 115.128 377.182 116.196C377.182 117.27 376.957 118.236 376.509 119.094C376.065 119.946 375.395 120.622 374.497 121.122C373.605 121.616 372.483 121.864 371.131 121.864H366.852V119.631H370.892C371.75 119.631 372.446 119.483 372.98 119.188C373.514 118.886 373.906 118.477 374.156 117.96C374.406 117.443 374.531 116.855 374.531 116.196C374.531 115.537 374.406 114.952 374.156 114.44C373.906 113.929 373.511 113.528 372.972 113.239C372.438 112.949 371.733 112.804 370.858 112.804H367.551V128H364.918ZM384.823 128.264C383.533 128.264 382.422 127.989 381.49 127.438C380.564 126.881 379.848 126.099 379.342 125.094C378.842 124.082 378.592 122.898 378.592 121.54C378.592 120.199 378.842 119.017 379.342 117.994C379.848 116.972 380.553 116.173 381.456 115.599C382.365 115.026 383.428 114.739 384.644 114.739C385.382 114.739 386.098 114.861 386.791 115.105C387.485 115.349 388.107 115.733 388.658 116.256C389.209 116.778 389.644 117.457 389.962 118.293C390.28 119.122 390.439 120.131 390.439 121.318V122.222H380.033V120.312H387.942C387.942 119.642 387.806 119.048 387.533 118.531C387.26 118.009 386.877 117.597 386.382 117.295C385.894 116.994 385.32 116.844 384.661 116.844C383.945 116.844 383.32 117.02 382.786 117.372C382.257 117.719 381.848 118.173 381.558 118.736C381.274 119.293 381.132 119.898 381.132 120.551V122.043C381.132 122.918 381.286 123.662 381.592 124.276C381.905 124.889 382.34 125.358 382.896 125.682C383.453 126 384.104 126.159 384.848 126.159C385.331 126.159 385.771 126.091 386.169 125.955C386.567 125.812 386.911 125.602 387.2 125.324C387.49 125.045 387.712 124.702 387.865 124.293L390.277 124.727C390.084 125.437 389.737 126.06 389.237 126.594C388.743 127.122 388.121 127.534 387.371 127.83C386.627 128.119 385.777 128.264 384.823 128.264ZM392.547 128V114.909H395.01V116.989H395.146C395.385 116.284 395.805 115.73 396.407 115.327C397.015 114.918 397.703 114.713 398.47 114.713C398.629 114.713 398.816 114.719 399.032 114.73C399.254 114.741 399.427 114.756 399.552 114.773V117.21C399.45 117.182 399.268 117.151 399.007 117.116C398.745 117.077 398.484 117.057 398.223 117.057C397.62 117.057 397.083 117.185 396.612 117.44C396.146 117.69 395.777 118.04 395.504 118.489C395.231 118.932 395.095 119.437 395.095 120.006V128H392.547ZM410.847 118.105L408.537 118.514C408.441 118.219 408.287 117.937 408.077 117.67C407.873 117.403 407.594 117.185 407.242 117.014C406.89 116.844 406.449 116.759 405.921 116.759C405.199 116.759 404.597 116.92 404.114 117.244C403.631 117.562 403.39 117.974 403.39 118.48C403.39 118.918 403.552 119.27 403.876 119.537C404.199 119.804 404.722 120.023 405.444 120.193L407.523 120.67C408.728 120.949 409.626 121.378 410.216 121.957C410.807 122.537 411.103 123.29 411.103 124.216C411.103 125 410.876 125.699 410.421 126.312C409.972 126.92 409.344 127.398 408.537 127.744C407.736 128.091 406.807 128.264 405.751 128.264C404.285 128.264 403.089 127.952 402.162 127.327C401.236 126.696 400.668 125.801 400.458 124.642L402.921 124.267C403.074 124.909 403.39 125.395 403.867 125.724C404.344 126.048 404.966 126.21 405.733 126.21C406.569 126.21 407.236 126.037 407.736 125.69C408.236 125.338 408.486 124.909 408.486 124.403C408.486 123.994 408.333 123.651 408.026 123.372C407.725 123.094 407.262 122.884 406.637 122.741L404.421 122.256C403.199 121.977 402.296 121.534 401.711 120.926C401.131 120.318 400.841 119.548 400.841 118.616C400.841 117.844 401.057 117.168 401.489 116.588C401.921 116.009 402.518 115.557 403.279 115.233C404.04 114.903 404.912 114.739 405.895 114.739C407.31 114.739 408.424 115.045 409.236 115.659C410.049 116.267 410.586 117.082 410.847 118.105ZM418.699 128.264C417.472 128.264 416.401 127.983 415.486 127.42C414.571 126.858 413.861 126.071 413.355 125.06C412.849 124.048 412.597 122.866 412.597 121.514C412.597 120.156 412.849 118.969 413.355 117.952C413.861 116.935 414.571 116.145 415.486 115.582C416.401 115.02 417.472 114.739 418.699 114.739C419.926 114.739 420.997 115.02 421.912 115.582C422.827 116.145 423.537 116.935 424.043 117.952C424.548 118.969 424.801 120.156 424.801 121.514C424.801 122.866 424.548 124.048 424.043 125.06C423.537 126.071 422.827 126.858 421.912 127.42C420.997 127.983 419.926 128.264 418.699 128.264ZM418.707 126.125C419.503 126.125 420.162 125.915 420.685 125.494C421.207 125.074 421.594 124.514 421.844 123.815C422.099 123.116 422.227 122.347 422.227 121.506C422.227 120.67 422.099 119.903 421.844 119.205C421.594 118.5 421.207 117.935 420.685 117.509C420.162 117.082 419.503 116.869 418.707 116.869C417.906 116.869 417.241 117.082 416.713 117.509C416.19 117.935 415.801 118.5 415.545 119.205C415.295 119.903 415.17 120.67 415.17 121.506C415.17 122.347 415.295 123.116 415.545 123.815C415.801 124.514 416.19 125.074 416.713 125.494C417.241 125.915 417.906 126.125 418.707 126.125ZM429.474 120.227V128H426.926V114.909H429.372V117.04H429.534C429.835 116.347 430.306 115.79 430.948 115.369C431.596 114.949 432.411 114.739 433.394 114.739C434.286 114.739 435.068 114.926 435.738 115.301C436.409 115.67 436.928 116.222 437.298 116.955C437.667 117.687 437.852 118.594 437.852 119.673V128H435.303V119.98C435.303 119.031 435.056 118.29 434.562 117.756C434.068 117.216 433.389 116.946 432.525 116.946C431.934 116.946 431.409 117.074 430.948 117.33C430.494 117.585 430.133 117.96 429.866 118.455C429.605 118.943 429.474 119.534 429.474 120.227ZM444.359 128.29C443.529 128.29 442.779 128.136 442.109 127.83C441.439 127.517 440.907 127.065 440.515 126.474C440.129 125.884 439.936 125.159 439.936 124.301C439.936 123.562 440.078 122.955 440.362 122.477C440.646 122 441.029 121.622 441.512 121.344C441.995 121.065 442.535 120.855 443.132 120.713C443.728 120.571 444.336 120.463 444.956 120.389C445.74 120.298 446.376 120.224 446.865 120.168C447.353 120.105 447.708 120.006 447.93 119.869C448.152 119.733 448.262 119.511 448.262 119.205V119.145C448.262 118.401 448.052 117.824 447.632 117.415C447.217 117.006 446.598 116.801 445.774 116.801C444.916 116.801 444.24 116.991 443.745 117.372C443.257 117.747 442.919 118.165 442.731 118.625L440.336 118.08C440.62 117.284 441.035 116.642 441.581 116.153C442.132 115.659 442.765 115.301 443.481 115.08C444.197 114.852 444.95 114.739 445.74 114.739C446.262 114.739 446.816 114.801 447.402 114.926C447.993 115.045 448.544 115.267 449.055 115.591C449.572 115.915 449.995 116.378 450.325 116.98C450.654 117.577 450.819 118.352 450.819 119.307V128H448.331V126.21H448.228C448.064 126.54 447.816 126.864 447.487 127.182C447.157 127.5 446.734 127.764 446.217 127.974C445.7 128.185 445.081 128.29 444.359 128.29ZM444.913 126.244C445.618 126.244 446.22 126.105 446.72 125.827C447.225 125.548 447.609 125.185 447.87 124.736C448.137 124.281 448.271 123.795 448.271 123.278V121.591C448.18 121.682 448.004 121.767 447.743 121.847C447.487 121.92 447.194 121.986 446.865 122.043C446.535 122.094 446.214 122.142 445.902 122.188C445.589 122.227 445.328 122.261 445.118 122.29C444.623 122.352 444.171 122.457 443.762 122.605C443.359 122.753 443.035 122.966 442.791 123.244C442.552 123.517 442.433 123.881 442.433 124.335C442.433 124.966 442.666 125.443 443.132 125.767C443.598 126.085 444.191 126.244 444.913 126.244ZM463.303 118.105L460.993 118.514C460.897 118.219 460.743 117.937 460.533 117.67C460.329 117.403 460.05 117.185 459.698 117.014C459.346 116.844 458.905 116.759 458.377 116.759C457.655 116.759 457.053 116.92 456.57 117.244C456.087 117.562 455.846 117.974 455.846 118.48C455.846 118.918 456.008 119.27 456.331 119.537C456.655 119.804 457.178 120.023 457.9 120.193L459.979 120.67C461.184 120.949 462.081 121.378 462.672 121.957C463.263 122.537 463.559 123.29 463.559 124.216C463.559 125 463.331 125.699 462.877 126.312C462.428 126.92 461.8 127.398 460.993 127.744C460.192 128.091 459.263 128.264 458.206 128.264C456.741 128.264 455.545 127.952 454.618 127.327C453.692 126.696 453.124 125.801 452.914 124.642L455.377 124.267C455.53 124.909 455.846 125.395 456.323 125.724C456.8 126.048 457.422 126.21 458.189 126.21C459.025 126.21 459.692 126.037 460.192 125.69C460.692 125.338 460.942 124.909 460.942 124.403C460.942 123.994 460.789 123.651 460.482 123.372C460.181 123.094 459.718 122.884 459.093 122.741L456.877 122.256C455.655 121.977 454.752 121.534 454.167 120.926C453.587 120.318 453.297 119.548 453.297 118.616C453.297 117.844 453.513 117.168 453.945 116.588C454.377 116.009 454.973 115.557 455.735 115.233C456.496 114.903 457.368 114.739 458.351 114.739C459.766 114.739 460.88 115.045 461.692 115.659C462.505 116.267 463.042 117.082 463.303 118.105Z" fill="black"/>
<path d="M537.918 128V110.545H548.741V112.812H540.551V118.131H547.966V120.389H540.551V128H537.918ZM558.528 122.571V114.909H561.085V128H558.579V125.733H558.443C558.142 126.432 557.659 127.014 556.994 127.48C556.335 127.94 555.514 128.17 554.531 128.17C553.69 128.17 552.945 127.986 552.298 127.616C551.656 127.241 551.15 126.688 550.781 125.955C550.417 125.222 550.235 124.315 550.235 123.236V114.909H552.784V122.929C552.784 123.821 553.031 124.531 553.525 125.06C554.019 125.588 554.661 125.852 555.451 125.852C555.928 125.852 556.403 125.733 556.874 125.494C557.352 125.256 557.747 124.895 558.059 124.412C558.377 123.929 558.534 123.315 558.528 122.571ZM569.899 114.909V116.955H562.749V114.909H569.899ZM564.667 111.773H567.215V124.156C567.215 124.651 567.289 125.023 567.436 125.273C567.584 125.517 567.774 125.685 568.007 125.776C568.246 125.861 568.505 125.903 568.783 125.903C568.988 125.903 569.167 125.889 569.32 125.861C569.473 125.832 569.593 125.81 569.678 125.793L570.138 127.898C569.99 127.955 569.78 128.011 569.507 128.068C569.235 128.131 568.894 128.165 568.485 128.17C567.814 128.182 567.189 128.062 566.61 127.812C566.03 127.562 565.561 127.176 565.203 126.653C564.846 126.131 564.667 125.474 564.667 124.685V111.773ZM580.291 122.571V114.909H582.848V128H580.342V125.733H580.206C579.905 126.432 579.422 127.014 578.757 127.48C578.098 127.94 577.277 128.17 576.294 128.17C575.453 128.17 574.709 127.986 574.061 127.616C573.419 127.241 572.913 126.688 572.544 125.955C572.18 125.222 571.998 124.315 571.998 123.236V114.909H574.547V122.929C574.547 123.821 574.794 124.531 575.288 125.06C575.782 125.588 576.425 125.852 577.214 125.852C577.692 125.852 578.166 125.733 578.638 125.494C579.115 125.256 579.51 124.895 579.822 124.412C580.14 123.929 580.297 123.315 580.291 122.571ZM585.552 128V114.909H588.015V116.989H588.151C588.39 116.284 588.81 115.73 589.413 115.327C590.021 114.918 590.708 114.713 591.475 114.713C591.634 114.713 591.822 114.719 592.038 114.73C592.259 114.741 592.432 114.756 592.557 114.773V117.21C592.455 117.182 592.273 117.151 592.012 117.116C591.751 117.077 591.489 117.057 591.228 117.057C590.626 117.057 590.089 117.185 589.617 117.44C589.151 117.69 588.782 118.04 588.509 118.489C588.236 118.932 588.1 119.437 588.1 120.006V128H585.552ZM599.216 128.264C597.926 128.264 596.815 127.989 595.884 127.438C594.958 126.881 594.242 126.099 593.736 125.094C593.236 124.082 592.986 122.898 592.986 121.54C592.986 120.199 593.236 119.017 593.736 117.994C594.242 116.972 594.946 116.173 595.85 115.599C596.759 115.026 597.821 114.739 599.037 114.739C599.776 114.739 600.492 114.861 601.185 115.105C601.878 115.349 602.5 115.733 603.051 116.256C603.602 116.778 604.037 117.457 604.355 118.293C604.673 119.122 604.833 120.131 604.833 121.318V122.222H594.426V120.312H602.335C602.335 119.642 602.199 119.048 601.926 118.531C601.654 118.009 601.27 117.597 600.776 117.295C600.287 116.994 599.713 116.844 599.054 116.844C598.338 116.844 597.713 117.02 597.179 117.372C596.651 117.719 596.242 118.173 595.952 118.736C595.668 119.293 595.526 119.898 595.526 120.551V122.043C595.526 122.918 595.679 123.662 595.986 124.276C596.298 124.889 596.733 125.358 597.29 125.682C597.847 126 598.497 126.159 599.242 126.159C599.725 126.159 600.165 126.091 600.563 125.955C600.96 125.812 601.304 125.602 601.594 125.324C601.884 125.045 602.105 124.702 602.259 124.293L604.671 124.727C604.477 125.437 604.131 126.06 603.631 126.594C603.137 127.122 602.514 127.534 601.764 127.83C601.02 128.119 600.171 128.264 599.216 128.264ZM612.776 128V110.545H623.6V112.812H615.41V118.131H622.824V120.389H615.41V128H612.776ZM628.462 110.545V128H625.914V110.545H628.462ZM636.685 128.264C635.457 128.264 634.386 127.983 633.472 127.42C632.557 126.858 631.847 126.071 631.341 125.06C630.835 124.048 630.582 122.866 630.582 121.514C630.582 120.156 630.835 118.969 631.341 117.952C631.847 116.935 632.557 116.145 633.472 115.582C634.386 115.02 635.457 114.739 636.685 114.739C637.912 114.739 638.983 115.02 639.898 115.582C640.813 116.145 641.523 116.935 642.029 117.952C642.534 118.969 642.787 120.156 642.787 121.514C642.787 122.866 642.534 124.048 642.029 125.06C641.523 126.071 640.813 126.858 639.898 127.42C638.983 127.983 637.912 128.264 636.685 128.264ZM636.693 126.125C637.489 126.125 638.148 125.915 638.671 125.494C639.193 125.074 639.58 124.514 639.83 123.815C640.085 123.116 640.213 122.347 640.213 121.506C640.213 120.67 640.085 119.903 639.83 119.205C639.58 118.5 639.193 117.935 638.671 117.509C638.148 117.082 637.489 116.869 636.693 116.869C635.892 116.869 635.227 117.082 634.699 117.509C634.176 117.935 633.787 118.5 633.531 119.205C633.281 119.903 633.156 120.67 633.156 121.506C633.156 122.347 633.281 123.116 633.531 123.815C633.787 124.514 634.176 125.074 634.699 125.494C635.227 125.915 635.892 126.125 636.693 126.125ZM647.351 128L643.499 114.909H646.132L648.698 124.523H648.826L651.399 114.909H654.033L656.59 124.48H656.718L659.266 114.909H661.899L658.056 128H655.456L652.797 118.548H652.601L649.942 128H647.351ZM673.407 118.105L671.098 118.514C671.001 118.219 670.848 117.937 670.638 117.67C670.433 117.403 670.155 117.185 669.802 117.014C669.45 116.844 669.01 116.759 668.481 116.759C667.76 116.759 667.157 116.92 666.674 117.244C666.192 117.562 665.95 117.974 665.95 118.48C665.95 118.918 666.112 119.27 666.436 119.537C666.76 119.804 667.282 120.023 668.004 120.193L670.084 120.67C671.288 120.949 672.186 121.378 672.777 121.957C673.368 122.537 673.663 123.29 673.663 124.216C673.663 125 673.436 125.699 672.981 126.312C672.532 126.92 671.905 127.398 671.098 127.744C670.297 128.091 669.368 128.264 668.311 128.264C666.845 128.264 665.649 127.952 664.723 127.327C663.797 126.696 663.228 125.801 663.018 124.642L665.481 124.267C665.635 124.909 665.95 125.395 666.427 125.724C666.905 126.048 667.527 126.21 668.294 126.21C669.129 126.21 669.797 126.037 670.297 125.69C670.797 125.338 671.047 124.909 671.047 124.403C671.047 123.994 670.893 123.651 670.586 123.372C670.285 123.094 669.822 122.884 669.197 122.741L666.981 122.256C665.76 121.977 664.856 121.534 664.271 120.926C663.692 120.318 663.402 119.548 663.402 118.616C663.402 117.844 663.618 117.168 664.049 116.588C664.481 116.009 665.078 115.557 665.839 115.233C666.601 114.903 667.473 114.739 668.456 114.739C669.87 114.739 670.984 115.045 671.797 115.659C672.609 116.267 673.146 117.082 673.407 118.105Z" fill="black"/>
<path d="M747.918 110.545H751.114L756.67 124.114H756.875L762.432 110.545H765.628V128H763.122V115.369H762.96L757.812 127.974H755.733L750.585 115.361H750.423V128H747.918V110.545ZM774.046 128.264C772.819 128.264 771.748 127.983 770.833 127.42C769.918 126.858 769.208 126.071 768.703 125.06C768.197 124.048 767.944 122.866 767.944 121.514C767.944 120.156 768.197 118.969 768.703 117.952C769.208 116.935 769.918 116.145 770.833 115.582C771.748 115.02 772.819 114.739 774.046 114.739C775.274 114.739 776.345 115.02 777.259 115.582C778.174 116.145 778.884 116.935 779.39 117.952C779.896 118.969 780.149 120.156 780.149 121.514C780.149 122.866 779.896 124.048 779.39 125.06C778.884 126.071 778.174 126.858 777.259 127.42C776.345 127.983 775.274 128.264 774.046 128.264ZM774.055 126.125C774.85 126.125 775.509 125.915 776.032 125.494C776.555 125.074 776.941 124.514 777.191 123.815C777.447 123.116 777.575 122.347 777.575 121.506C777.575 120.67 777.447 119.903 777.191 119.205C776.941 118.5 776.555 117.935 776.032 117.509C775.509 117.082 774.85 116.869 774.055 116.869C773.254 116.869 772.589 117.082 772.061 117.509C771.538 117.935 771.149 118.5 770.893 119.205C770.643 119.903 770.518 120.67 770.518 121.506C770.518 122.347 770.643 123.116 770.893 123.815C771.149 124.514 771.538 125.074 772.061 125.494C772.589 125.915 773.254 126.125 774.055 126.125ZM787.787 128.264C786.52 128.264 785.429 127.977 784.515 127.403C783.605 126.824 782.907 126.026 782.418 125.009C781.929 123.991 781.685 122.827 781.685 121.514C781.685 120.185 781.935 119.011 782.435 117.994C782.935 116.972 783.64 116.173 784.549 115.599C785.458 115.026 786.529 114.739 787.762 114.739C788.756 114.739 789.642 114.923 790.421 115.293C791.199 115.656 791.827 116.168 792.304 116.827C792.787 117.486 793.074 118.256 793.165 119.136H790.685C790.549 118.523 790.236 117.994 789.748 117.551C789.265 117.108 788.617 116.886 787.804 116.886C787.094 116.886 786.472 117.074 785.938 117.449C785.409 117.818 784.998 118.347 784.702 119.034C784.407 119.716 784.259 120.523 784.259 121.455C784.259 122.409 784.404 123.233 784.694 123.926C784.983 124.619 785.392 125.156 785.921 125.537C786.455 125.918 787.083 126.108 787.804 126.108C788.287 126.108 788.725 126.02 789.117 125.844C789.515 125.662 789.847 125.403 790.114 125.068C790.387 124.733 790.577 124.33 790.685 123.858H793.165C793.074 124.705 792.799 125.46 792.338 126.125C791.878 126.79 791.262 127.312 790.489 127.693C789.722 128.074 788.821 128.264 787.787 128.264ZM797.514 123.56L797.497 120.449H797.94L803.156 114.909H806.207L800.258 121.216H799.858L797.514 123.56ZM795.17 128V110.545H797.719V128H795.17ZM803.437 128L798.75 121.778L800.505 119.997L806.565 128H803.437ZM816.102 122.571V114.909H818.659V128H816.153V125.733H816.017C815.716 126.432 815.233 127.014 814.568 127.48C813.909 127.94 813.088 128.17 812.105 128.17C811.264 128.17 810.52 127.986 809.872 127.616C809.23 127.241 808.724 126.688 808.355 125.955C807.991 125.222 807.81 124.315 807.81 123.236V114.909H810.358V122.929C810.358 123.821 810.605 124.531 811.099 125.06C811.594 125.588 812.236 125.852 813.026 125.852C813.503 125.852 813.977 125.733 814.449 125.494C814.926 125.256 815.321 124.895 815.633 124.412C815.952 123.929 816.108 123.315 816.102 122.571ZM821.363 132.909V114.909H823.852V117.031H824.065C824.213 116.759 824.426 116.443 824.704 116.085C824.982 115.727 825.369 115.415 825.863 115.148C826.357 114.875 827.011 114.739 827.823 114.739C828.88 114.739 829.823 115.006 830.653 115.54C831.482 116.074 832.133 116.844 832.605 117.849C833.082 118.855 833.32 120.065 833.32 121.48C833.32 122.895 833.085 124.108 832.613 125.119C832.141 126.125 831.494 126.901 830.67 127.446C829.846 127.986 828.906 128.256 827.849 128.256C827.053 128.256 826.403 128.122 825.897 127.855C825.397 127.588 825.005 127.276 824.721 126.918C824.437 126.56 824.218 126.241 824.065 125.963H823.911V132.909H821.363ZM823.86 121.455C823.86 122.375 823.994 123.182 824.261 123.875C824.528 124.568 824.914 125.111 825.42 125.503C825.926 125.889 826.545 126.082 827.278 126.082C828.039 126.082 828.676 125.881 829.187 125.477C829.698 125.068 830.085 124.514 830.346 123.815C830.613 123.116 830.747 122.33 830.747 121.455C830.747 120.591 830.616 119.815 830.355 119.128C830.099 118.44 829.713 117.898 829.195 117.5C828.684 117.102 828.045 116.903 827.278 116.903C826.539 116.903 825.914 117.094 825.403 117.474C824.897 117.855 824.514 118.386 824.252 119.068C823.991 119.75 823.86 120.545 823.86 121.455ZM845.265 118.105L842.956 118.514C842.859 118.219 842.706 117.937 842.495 117.67C842.291 117.403 842.012 117.185 841.66 117.014C841.308 116.844 840.868 116.759 840.339 116.759C839.618 116.759 839.015 116.92 838.532 117.244C838.049 117.562 837.808 117.974 837.808 118.48C837.808 118.918 837.97 119.27 838.294 119.537C838.618 119.804 839.14 120.023 839.862 120.193L841.941 120.67C843.146 120.949 844.044 121.378 844.635 121.957C845.225 122.537 845.521 123.29 845.521 124.216C845.521 125 845.294 125.699 844.839 126.312C844.39 126.92 843.762 127.398 842.956 127.744C842.154 128.091 841.225 128.264 840.169 128.264C838.703 128.264 837.507 127.952 836.581 127.327C835.654 126.696 835.086 125.801 834.876 124.642L837.339 124.267C837.493 124.909 837.808 125.395 838.285 125.724C838.762 126.048 839.385 126.21 840.152 126.21C840.987 126.21 841.654 126.037 842.154 125.69C842.654 125.338 842.904 124.909 842.904 124.403C842.904 123.994 842.751 123.651 842.444 123.372C842.143 123.094 841.68 122.884 841.055 122.741L838.839 122.256C837.618 121.977 836.714 121.534 836.129 120.926C835.549 120.318 835.26 119.548 835.26 118.616C835.26 117.844 835.475 117.168 835.907 116.588C836.339 116.009 836.936 115.557 837.697 115.233C838.458 114.903 839.331 114.739 840.314 114.739C841.728 114.739 842.842 115.045 843.654 115.659C844.467 116.267 845.004 117.082 845.265 118.105Z" fill="black"/>
<path d="M210.403 144L208.409 137.455H209.466L210.881 142.466H210.949L212.347 137.455H213.42L214.801 142.449H214.869L216.284 137.455H217.341L215.347 144H214.358L212.926 138.972H212.824L211.392 144H210.403ZM220.237 144.153C219.822 144.153 219.445 144.075 219.107 143.919C218.769 143.76 218.501 143.531 218.302 143.233C218.103 142.932 218.004 142.568 218.004 142.142C218.004 141.767 218.078 141.463 218.225 141.23C218.373 140.994 218.57 140.81 218.818 140.676C219.065 140.543 219.337 140.443 219.636 140.378C219.937 140.31 220.239 140.256 220.543 140.216C220.941 140.165 221.264 140.126 221.511 140.101C221.761 140.072 221.943 140.026 222.056 139.96C222.173 139.895 222.231 139.781 222.231 139.619V139.585C222.231 139.165 222.116 138.838 221.886 138.605C221.658 138.372 221.313 138.256 220.85 138.256C220.37 138.256 219.994 138.361 219.721 138.571C219.448 138.781 219.256 139.006 219.146 139.244L218.191 138.903C218.362 138.506 218.589 138.196 218.873 137.974C219.16 137.75 219.472 137.594 219.81 137.506C220.151 137.415 220.487 137.369 220.816 137.369C221.026 137.369 221.268 137.395 221.541 137.446C221.816 137.494 222.082 137.595 222.337 137.749C222.596 137.902 222.81 138.134 222.981 138.443C223.151 138.753 223.237 139.168 223.237 139.688V144H222.231V143.114H222.18C222.112 143.256 221.998 143.408 221.839 143.57C221.68 143.732 221.468 143.869 221.204 143.983C220.94 144.097 220.617 144.153 220.237 144.153ZM220.39 143.25C220.788 143.25 221.123 143.172 221.396 143.016C221.671 142.859 221.879 142.658 222.018 142.411C222.16 142.163 222.231 141.903 222.231 141.631V140.71C222.188 140.761 222.095 140.808 221.95 140.851C221.808 140.891 221.643 140.926 221.455 140.957C221.271 140.986 221.09 141.011 220.914 141.034C220.741 141.054 220.6 141.071 220.492 141.085C220.231 141.119 219.987 141.175 219.759 141.251C219.535 141.325 219.353 141.437 219.214 141.588C219.078 141.736 219.009 141.937 219.009 142.193C219.009 142.543 219.139 142.807 219.397 142.986C219.658 143.162 219.989 143.25 220.39 143.25ZM224.712 144V137.455H225.684V138.443H225.752C225.871 138.119 226.087 137.857 226.4 137.655C226.712 137.453 227.064 137.352 227.456 137.352C227.53 137.352 227.623 137.354 227.733 137.357C227.844 137.359 227.928 137.364 227.985 137.369V138.392C227.951 138.384 227.873 138.371 227.751 138.354C227.631 138.334 227.505 138.324 227.371 138.324C227.053 138.324 226.769 138.391 226.519 138.524C226.272 138.655 226.076 138.837 225.931 139.07C225.789 139.3 225.718 139.562 225.718 139.858V144H224.712ZM231.362 144.136C230.731 144.136 230.187 143.997 229.73 143.719C229.275 143.438 228.925 143.045 228.677 142.543C228.433 142.037 228.311 141.449 228.311 140.778C228.311 140.108 228.433 139.517 228.677 139.006C228.925 138.491 229.268 138.091 229.709 137.804C230.152 137.514 230.669 137.369 231.26 137.369C231.601 137.369 231.937 137.426 232.27 137.54C232.602 137.653 232.905 137.838 233.177 138.094C233.45 138.347 233.668 138.682 233.829 139.099C233.991 139.517 234.072 140.031 234.072 140.642V141.068H229.027V140.199H233.05C233.05 139.83 232.976 139.5 232.828 139.21C232.683 138.92 232.476 138.692 232.206 138.524C231.939 138.357 231.623 138.273 231.26 138.273C230.859 138.273 230.513 138.372 230.22 138.571C229.93 138.767 229.707 139.023 229.551 139.338C229.395 139.653 229.317 139.991 229.317 140.352V140.932C229.317 141.426 229.402 141.845 229.572 142.189C229.746 142.53 229.986 142.79 230.293 142.969C230.599 143.145 230.956 143.233 231.362 143.233C231.626 143.233 231.865 143.196 232.078 143.122C232.294 143.045 232.48 142.932 232.636 142.781C232.793 142.628 232.913 142.437 232.998 142.21L233.97 142.483C233.868 142.812 233.696 143.102 233.454 143.352C233.213 143.599 232.915 143.793 232.56 143.932C232.204 144.068 231.805 144.136 231.362 144.136ZM236.248 140.062V144H235.242V135.273H236.248V138.477H236.333C236.486 138.139 236.717 137.871 237.023 137.672C237.333 137.47 237.745 137.369 238.259 137.369C238.705 137.369 239.096 137.459 239.431 137.638C239.766 137.814 240.026 138.085 240.211 138.452C240.398 138.815 240.492 139.278 240.492 139.841V144H239.486V139.909C239.486 139.389 239.352 138.987 239.082 138.703C238.815 138.416 238.444 138.273 237.969 138.273C237.64 138.273 237.344 138.342 237.083 138.482C236.825 138.621 236.62 138.824 236.469 139.091C236.322 139.358 236.248 139.682 236.248 140.062ZM244.631 144.136C244.04 144.136 243.522 143.996 243.076 143.714C242.633 143.433 242.286 143.04 242.036 142.534C241.789 142.028 241.665 141.437 241.665 140.761C241.665 140.08 241.789 139.484 242.036 138.976C242.286 138.467 242.633 138.072 243.076 137.791C243.522 137.51 244.04 137.369 244.631 137.369C245.222 137.369 245.739 137.51 246.182 137.791C246.628 138.072 246.975 138.467 247.222 138.976C247.472 139.484 247.597 140.08 247.597 140.761C247.597 141.437 247.472 142.028 247.222 142.534C246.975 143.04 246.628 143.433 246.182 143.714C245.739 143.996 245.222 144.136 244.631 144.136ZM244.631 143.233C245.08 143.233 245.449 143.118 245.739 142.888C246.029 142.658 246.243 142.355 246.383 141.98C246.522 141.605 246.591 141.199 246.591 140.761C246.591 140.324 246.522 139.916 246.383 139.538C246.243 139.161 246.029 138.855 245.739 138.622C245.449 138.389 245.08 138.273 244.631 138.273C244.182 138.273 243.813 138.389 243.523 138.622C243.233 138.855 243.019 139.161 242.88 139.538C242.74 139.916 242.671 140.324 242.671 140.761C242.671 141.199 242.74 141.605 242.88 141.98C243.019 142.355 243.233 142.658 243.523 142.888C243.813 143.118 244.182 143.233 244.631 143.233ZM252.897 141.324V137.455H253.903V144H252.897V142.892H252.829C252.676 143.224 252.437 143.507 252.113 143.74C251.789 143.97 251.38 144.085 250.886 144.085C250.477 144.085 250.113 143.996 249.795 143.817C249.477 143.635 249.227 143.362 249.045 142.999C248.863 142.632 248.772 142.17 248.772 141.614V137.455H249.778V141.545C249.778 142.023 249.911 142.403 250.178 142.688C250.448 142.972 250.792 143.114 251.21 143.114C251.46 143.114 251.714 143.05 251.972 142.922C252.234 142.794 252.453 142.598 252.629 142.334C252.808 142.07 252.897 141.733 252.897 141.324ZM260.021 138.92L259.118 139.176C259.061 139.026 258.977 138.879 258.866 138.737C258.758 138.592 258.611 138.473 258.423 138.379C258.236 138.286 257.996 138.239 257.703 138.239C257.302 138.239 256.969 138.331 256.702 138.516C256.437 138.697 256.305 138.929 256.305 139.21C256.305 139.46 256.396 139.658 256.578 139.803C256.76 139.947 257.044 140.068 257.43 140.165L258.402 140.403C258.987 140.545 259.423 140.763 259.71 141.055C259.997 141.345 260.141 141.719 260.141 142.176C260.141 142.551 260.033 142.886 259.817 143.182C259.604 143.477 259.305 143.71 258.922 143.881C258.538 144.051 258.092 144.136 257.584 144.136C256.916 144.136 256.364 143.991 255.926 143.702C255.489 143.412 255.212 142.989 255.095 142.432L256.05 142.193C256.141 142.545 256.312 142.81 256.565 142.986C256.821 143.162 257.155 143.25 257.567 143.25C258.035 143.25 258.408 143.151 258.683 142.952C258.962 142.75 259.101 142.509 259.101 142.227C259.101 142 259.021 141.81 258.862 141.656C258.703 141.5 258.459 141.384 258.129 141.307L257.038 141.051C256.439 140.909 255.998 140.689 255.717 140.391C255.439 140.089 255.3 139.713 255.3 139.261C255.3 138.892 255.403 138.565 255.611 138.281C255.821 137.997 256.106 137.774 256.467 137.612C256.831 137.45 257.243 137.369 257.703 137.369C258.351 137.369 258.859 137.511 259.229 137.795C259.601 138.08 259.865 138.455 260.021 138.92ZM264.039 144.136C263.408 144.136 262.864 143.997 262.407 143.719C261.952 143.438 261.601 143.045 261.354 142.543C261.11 142.037 260.988 141.449 260.988 140.778C260.988 140.108 261.11 139.517 261.354 139.006C261.601 138.491 261.945 138.091 262.385 137.804C262.828 137.514 263.345 137.369 263.936 137.369C264.277 137.369 264.614 137.426 264.946 137.54C265.279 137.653 265.581 137.838 265.854 138.094C266.127 138.347 266.344 138.682 266.506 139.099C266.668 139.517 266.749 140.031 266.749 140.642V141.068H261.703V140.199H265.726C265.726 139.83 265.652 139.5 265.505 139.21C265.36 138.92 265.152 138.692 264.882 138.524C264.615 138.357 264.3 138.273 263.936 138.273C263.536 138.273 263.189 138.372 262.897 138.571C262.607 138.767 262.384 139.023 262.228 139.338C262.071 139.653 261.993 139.991 261.993 140.352V140.932C261.993 141.426 262.078 141.845 262.249 142.189C262.422 142.53 262.662 142.79 262.969 142.969C263.276 143.145 263.632 143.233 264.039 143.233C264.303 143.233 264.542 143.196 264.755 143.122C264.97 143.045 265.157 142.932 265.313 142.781C265.469 142.628 265.59 142.437 265.675 142.21L266.647 142.483C266.544 142.812 266.372 143.102 266.131 143.352C265.89 143.599 265.591 143.793 265.236 143.932C264.881 144.068 264.482 144.136 264.039 144.136ZM272.555 138.92L271.652 139.176C271.595 139.026 271.511 138.879 271.4 138.737C271.292 138.592 271.145 138.473 270.957 138.379C270.77 138.286 270.53 138.239 270.237 138.239C269.836 138.239 269.503 138.331 269.235 138.516C268.971 138.697 268.839 138.929 268.839 139.21C268.839 139.46 268.93 139.658 269.112 139.803C269.294 139.947 269.578 140.068 269.964 140.165L270.936 140.403C271.521 140.545 271.957 140.763 272.244 141.055C272.531 141.345 272.674 141.719 272.674 142.176C272.674 142.551 272.566 142.886 272.351 143.182C272.137 143.477 271.839 143.71 271.456 143.881C271.072 144.051 270.626 144.136 270.118 144.136C269.45 144.136 268.897 143.991 268.46 143.702C268.022 143.412 267.745 142.989 267.629 142.432L268.584 142.193C268.674 142.545 268.846 142.81 269.099 142.986C269.355 143.162 269.689 143.25 270.101 143.25C270.569 143.25 270.941 143.151 271.217 142.952C271.495 142.75 271.635 142.509 271.635 142.227C271.635 142 271.555 141.81 271.396 141.656C271.237 141.5 270.993 141.384 270.663 141.307L269.572 141.051C268.973 140.909 268.532 140.689 268.251 140.391C267.973 140.089 267.834 139.713 267.834 139.261C267.834 138.892 267.937 138.565 268.145 138.281C268.355 137.997 268.64 137.774 269.001 137.612C269.365 137.45 269.777 137.369 270.237 137.369C270.885 137.369 271.393 137.511 271.762 137.795C272.135 138.08 272.399 138.455 272.555 138.92Z" fill="#7C7C7C"/>
<path d="M5.55682 138.92L4.65341 139.176C4.59659 139.026 4.51278 138.879 4.40199 138.737C4.29403 138.592 4.14631 138.473 3.95881 138.379C3.77131 138.286 3.53125 138.239 3.23864 138.239C2.83807 138.239 2.50426 138.331 2.23722 138.516C1.97301 138.697 1.84091 138.929 1.84091 139.21C1.84091 139.46 1.93182 139.658 2.11364 139.803C2.29545 139.947 2.57955 140.068 2.96591 140.165L3.9375 140.403C4.52273 140.545 4.95881 140.763 5.24574 141.055C5.53267 141.345 5.67614 141.719 5.67614 142.176C5.67614 142.551 5.56818 142.886 5.35227 143.182C5.1392 143.477 4.84091 143.71 4.45739 143.881C4.07386 144.051 3.62784 144.136 3.11932 144.136C2.4517 144.136 1.89915 143.991 1.46165 143.702C1.02415 143.412 0.747159 142.989 0.630682 142.432L1.58523 142.193C1.67614 142.545 1.84801 142.81 2.10085 142.986C2.35653 143.162 2.69034 143.25 3.10227 143.25C3.57102 143.25 3.94318 143.151 4.21875 142.952C4.49716 142.75 4.63636 142.509 4.63636 142.227C4.63636 142 4.55682 141.81 4.39773 141.656C4.23864 141.5 3.99432 141.384 3.66477 141.307L2.57386 141.051C1.97443 140.909 1.53409 140.689 1.25284 140.391C0.974432 140.089 0.835227 139.713 0.835227 139.261C0.835227 138.892 0.93892 138.565 1.14631 138.281C1.35653 137.997 1.64205 137.774 2.00284 137.612C2.36648 137.45 2.77841 137.369 3.23864 137.369C3.88636 137.369 4.39489 137.511 4.7642 137.795C5.13636 138.08 5.40057 138.455 5.55682 138.92ZM10.955 141.324V137.455H11.9607V144H10.955V142.892H10.8868C10.7334 143.224 10.4948 143.507 10.1709 143.74C9.84703 143.97 9.43794 144.085 8.94362 144.085C8.53453 144.085 8.17089 143.996 7.85271 143.817C7.53453 143.635 7.28453 143.362 7.10271 142.999C6.92089 142.632 6.82999 142.17 6.82999 141.614V137.455H7.83567V141.545C7.83567 142.023 7.96919 142.403 8.23624 142.688C8.50612 142.972 8.84987 143.114 9.26749 143.114C9.51749 143.114 9.77175 143.05 10.0303 142.922C10.2916 142.794 10.5104 142.598 10.6865 142.334C10.8655 142.07 10.955 141.733 10.955 141.324ZM13.579 144V135.273H14.5847V138.494H14.6699C14.7438 138.381 14.8461 138.236 14.9767 138.06C15.1103 137.881 15.3006 137.722 15.5478 137.582C15.7978 137.44 16.1358 137.369 16.562 137.369C17.1131 137.369 17.5989 137.507 18.0193 137.783C18.4398 138.058 18.7679 138.449 19.0037 138.955C19.2395 139.46 19.3574 140.057 19.3574 140.744C19.3574 141.438 19.2395 142.038 19.0037 142.547C18.7679 143.053 18.4412 143.445 18.0236 143.723C17.606 143.999 17.1245 144.136 16.579 144.136C16.1586 144.136 15.8219 144.067 15.5691 143.928C15.3162 143.786 15.1216 143.625 14.9853 143.446C14.8489 143.264 14.7438 143.114 14.6699 142.994H14.5506V144H13.579ZM14.5676 140.727C14.5676 141.222 14.6401 141.658 14.785 142.036C14.9299 142.411 15.1415 142.705 15.4199 142.918C15.6983 143.128 16.0392 143.233 16.4426 143.233C16.8631 143.233 17.2139 143.122 17.4952 142.901C17.7793 142.676 17.9924 142.375 18.1344 141.997C18.2793 141.616 18.3517 141.193 18.3517 140.727C18.3517 140.267 18.2807 139.852 18.1387 139.483C17.9995 139.111 17.7878 138.817 17.5037 138.601C17.2225 138.382 16.8688 138.273 16.4426 138.273C16.0336 138.273 15.6898 138.376 15.4114 138.584C15.133 138.788 14.9228 139.075 14.7807 139.445C14.6387 139.811 14.5676 140.239 14.5676 140.727ZM20.5358 137.455H21.5414V144.477C21.5414 144.881 21.4718 145.23 21.3326 145.526C21.1963 145.821 20.9889 146.05 20.7105 146.212C20.4349 146.374 20.0869 146.455 19.6664 146.455C19.6324 146.455 19.5983 146.455 19.5642 146.455C19.5301 146.455 19.496 146.455 19.4619 146.455V145.517C19.496 145.517 19.5272 145.517 19.5557 145.517C19.5841 145.517 19.6153 145.517 19.6494 145.517C19.9562 145.517 20.1807 145.426 20.3227 145.244C20.4647 145.065 20.5358 144.81 20.5358 144.477V137.455ZM21.0301 136.364C20.8341 136.364 20.665 136.297 20.523 136.163C20.3838 136.03 20.3142 135.869 20.3142 135.682C20.3142 135.494 20.3838 135.334 20.523 135.2C20.665 135.067 20.8341 135 21.0301 135C21.2261 135 21.3937 135.067 21.5329 135.2C21.675 135.334 21.746 135.494 21.746 135.682C21.746 135.869 21.675 136.03 21.5329 136.163C21.3937 136.297 21.2261 136.364 21.0301 136.364ZM25.7677 144.136C25.1371 144.136 24.593 143.997 24.1356 143.719C23.6811 143.438 23.3302 143.045 23.0831 142.543C22.8388 142.037 22.7166 141.449 22.7166 140.778C22.7166 140.108 22.8388 139.517 23.0831 139.006C23.3302 138.491 23.674 138.091 24.1143 137.804C24.5575 137.514 25.0746 137.369 25.6655 137.369C26.0064 137.369 26.343 137.426 26.6754 137.54C27.0078 137.653 27.3104 137.838 27.5831 138.094C27.8558 138.347 28.0731 138.682 28.2351 139.099C28.397 139.517 28.478 140.031 28.478 140.642V141.068H23.4325V140.199H27.4552C27.4552 139.83 27.3814 139.5 27.2337 139.21C27.0888 138.92 26.8814 138.692 26.6115 138.524C26.3444 138.357 26.0291 138.273 25.6655 138.273C25.2649 138.273 24.9183 138.372 24.6257 138.571C24.3359 138.767 24.1129 139.023 23.9567 139.338C23.8004 139.653 23.7223 139.991 23.7223 140.352V140.932C23.7223 141.426 23.8075 141.845 23.978 142.189C24.1513 142.53 24.3913 142.79 24.6981 142.969C25.005 143.145 25.3615 143.233 25.7677 143.233C26.0319 143.233 26.2706 143.196 26.4837 143.122C26.6996 143.045 26.8856 142.932 27.0419 142.781C27.1981 142.628 27.3189 142.437 27.4041 142.21L28.3757 142.483C28.2734 142.812 28.1015 143.102 27.8601 143.352C27.6186 143.599 27.3203 143.793 26.9652 143.932C26.6101 144.068 26.2109 144.136 25.7677 144.136ZM32.3069 144.136C31.6933 144.136 31.1648 143.991 30.7217 143.702C30.2785 143.412 29.9376 143.013 29.6989 142.504C29.4603 141.996 29.341 141.415 29.341 140.761C29.341 140.097 29.4631 139.51 29.7075 139.001C29.9546 138.49 30.2984 138.091 30.7387 137.804C31.1819 137.514 31.6989 137.369 32.2898 137.369C32.7501 137.369 33.1648 137.455 33.5342 137.625C33.9035 137.795 34.206 138.034 34.4418 138.341C34.6776 138.648 34.8239 139.006 34.8808 139.415H33.8751C33.7984 139.116 33.6279 138.852 33.3637 138.622C33.1023 138.389 32.7501 138.273 32.3069 138.273C31.9148 138.273 31.5711 138.375 31.2756 138.58C30.983 138.781 30.7543 139.067 30.5896 139.436C30.4276 139.803 30.3467 140.233 30.3467 140.727C30.3467 141.233 30.4262 141.673 30.5853 142.048C30.7472 142.423 30.9745 142.714 31.2671 142.922C31.5626 143.129 31.9092 143.233 32.3069 143.233C32.5683 143.233 32.8055 143.188 33.0185 143.097C33.2316 143.006 33.412 142.875 33.5597 142.705C33.7075 142.534 33.8126 142.33 33.8751 142.091H34.8808C34.8239 142.477 34.6833 142.825 34.4589 143.135C34.2373 143.442 33.9433 143.686 33.5768 143.868C33.2131 144.047 32.7898 144.136 32.3069 144.136ZM38.8375 137.455V138.307H35.4455V137.455H38.8375ZM36.4341 135.886H37.4398V142.125C37.4398 142.409 37.481 142.622 37.5634 142.764C37.6486 142.903 37.7565 142.997 37.8872 143.045C38.0208 143.091 38.1614 143.114 38.3091 143.114C38.4199 143.114 38.5108 143.108 38.5818 143.097C38.6529 143.082 38.7097 143.071 38.7523 143.062L38.9568 143.966C38.8887 143.991 38.7935 144.017 38.6713 144.043C38.5492 144.071 38.3943 144.085 38.2068 144.085C37.9227 144.085 37.6443 144.024 37.3716 143.902C37.1017 143.78 36.8773 143.594 36.6983 143.344C36.5222 143.094 36.4341 142.778 36.4341 142.398V135.886ZM43.0053 144V137.455H43.9769V138.477H44.0621C44.1985 138.128 44.4186 137.857 44.7226 137.663C45.0266 137.467 45.3917 137.369 45.8178 137.369C46.2496 137.369 46.609 137.467 46.8959 137.663C47.1857 137.857 47.4115 138.128 47.5735 138.477H47.6417C47.8093 138.139 48.0607 137.871 48.3959 137.672C48.7311 137.47 49.1331 137.369 49.6019 137.369C50.1871 137.369 50.6658 137.553 51.038 137.919C51.4101 138.283 51.5962 138.849 51.5962 139.619V144H50.5905V139.619C50.5905 139.136 50.4584 138.791 50.1942 138.584C49.93 138.376 49.6189 138.273 49.261 138.273C48.8008 138.273 48.4442 138.412 48.1914 138.69C47.9385 138.966 47.8121 139.315 47.8121 139.739V144H46.7894V139.517C46.7894 139.145 46.6686 138.845 46.4272 138.618C46.1857 138.388 45.8746 138.273 45.4939 138.273C45.2326 138.273 44.9883 138.342 44.761 138.482C44.5365 138.621 44.3547 138.814 44.2155 139.061C44.0792 139.305 44.011 139.588 44.011 139.909V144H43.0053ZM55.0011 144.153C54.5863 144.153 54.2099 144.075 53.8719 143.919C53.5338 143.76 53.2653 143.531 53.0665 143.233C52.8676 142.932 52.7682 142.568 52.7682 142.142C52.7682 141.767 52.842 141.463 52.9898 141.23C53.1375 140.994 53.3349 140.81 53.5821 140.676C53.8292 140.543 54.102 140.443 54.4003 140.378C54.7014 140.31 55.004 140.256 55.3079 140.216C55.7057 140.165 56.0281 140.126 56.2753 140.101C56.5253 140.072 56.7071 140.026 56.8207 139.96C56.9372 139.895 56.9954 139.781 56.9954 139.619V139.585C56.9954 139.165 56.8804 138.838 56.6503 138.605C56.423 138.372 56.0778 138.256 55.6148 138.256C55.1346 138.256 54.7582 138.361 54.4855 138.571C54.2128 138.781 54.021 139.006 53.9102 139.244L52.9557 138.903C53.1261 138.506 53.3534 138.196 53.6375 137.974C53.9244 137.75 54.2369 137.594 54.575 137.506C54.9159 137.415 55.2511 137.369 55.5807 137.369C55.7909 137.369 56.0324 137.395 56.3051 137.446C56.5807 137.494 56.8463 137.595 57.102 137.749C57.3605 137.902 57.575 138.134 57.7454 138.443C57.9159 138.753 58.0011 139.168 58.0011 139.688V144H56.9954V143.114H56.9443C56.8761 143.256 56.7625 143.408 56.6034 143.57C56.4443 143.732 56.2327 143.869 55.9685 143.983C55.7042 144.097 55.3818 144.153 55.0011 144.153ZM55.1545 143.25C55.5523 143.25 55.8875 143.172 56.1602 143.016C56.4358 142.859 56.6432 142.658 56.7824 142.411C56.9244 142.163 56.9954 141.903 56.9954 141.631V140.71C56.9528 140.761 56.8591 140.808 56.7142 140.851C56.5721 140.891 56.4074 140.926 56.2199 140.957C56.0352 140.986 55.8548 141.011 55.6787 141.034C55.5054 141.054 55.3648 141.071 55.2568 141.085C54.9954 141.119 54.7511 141.175 54.5238 141.251C54.2994 141.325 54.1176 141.437 53.9784 141.588C53.842 141.736 53.7738 141.937 53.7738 142.193C53.7738 142.543 53.9031 142.807 54.1616 142.986C54.423 143.162 54.754 143.25 55.1545 143.25ZM62.3233 137.455V138.307H58.9313V137.455H62.3233ZM59.9199 135.886H60.9256V142.125C60.9256 142.409 60.9668 142.622 61.0491 142.764C61.1344 142.903 61.2423 142.997 61.373 143.045C61.5065 143.091 61.6472 143.114 61.7949 143.114C61.9057 143.114 61.9966 143.108 62.0676 143.097C62.1386 143.082 62.1955 143.071 62.2381 143.062L62.4426 143.966C62.3744 143.991 62.2793 144.017 62.1571 144.043C62.0349 144.071 61.8801 144.085 61.6926 144.085C61.4085 144.085 61.1301 144.024 60.8574 143.902C60.5875 143.78 60.3631 143.594 60.1841 143.344C60.008 143.094 59.9199 142.778 59.9199 142.398V135.886ZM66.3227 137.455V138.307H62.9306V137.455H66.3227ZM63.9193 135.886H64.9249V142.125C64.9249 142.409 64.9661 142.622 65.0485 142.764C65.1338 142.903 65.2417 142.997 65.3724 143.045C65.5059 143.091 65.6465 143.114 65.7943 143.114C65.9051 143.114 65.996 143.108 66.067 143.097C66.138 143.082 66.1948 143.071 66.2374 143.062L66.442 143.966C66.3738 143.991 66.2786 144.017 66.1565 144.043C66.0343 144.071 65.8795 144.085 65.692 144.085C65.4079 144.085 65.1295 144.024 64.8568 143.902C64.5869 143.78 64.3624 143.594 64.1835 143.344C64.0073 143.094 63.9193 142.778 63.9193 142.398V135.886ZM70.1495 144.136C69.5188 144.136 68.9747 143.997 68.5174 143.719C68.0628 143.438 67.712 143.045 67.4648 142.543C67.2205 142.037 67.0983 141.449 67.0983 140.778C67.0983 140.108 67.2205 139.517 67.4648 139.006C67.712 138.491 68.0557 138.091 68.4961 137.804C68.9392 137.514 69.4563 137.369 70.0472 137.369C70.3881 137.369 70.7247 137.426 71.0571 137.54C71.3895 137.653 71.6921 137.838 71.9648 138.094C72.2375 138.347 72.4549 138.682 72.6168 139.099C72.7787 139.517 72.8597 140.031 72.8597 140.642V141.068H67.8142V140.199H71.837C71.837 139.83 71.7631 139.5 71.6154 139.21C71.4705 138.92 71.2631 138.692 70.9932 138.524C70.7262 138.357 70.4108 138.273 70.0472 138.273C69.6466 138.273 69.3 138.372 69.0074 138.571C68.7176 138.767 68.4946 139.023 68.3384 139.338C68.1821 139.653 68.104 139.991 68.104 140.352V140.932C68.104 141.426 68.1892 141.845 68.3597 142.189C68.533 142.53 68.773 142.79 69.0799 142.969C69.3867 143.145 69.7432 143.233 70.1495 143.233C70.4137 143.233 70.6523 143.196 70.8654 143.122C71.0813 143.045 71.2674 142.932 71.4236 142.781C71.5799 142.628 71.7006 142.437 71.7858 142.21L72.7574 142.483C72.6551 142.812 72.4833 143.102 72.2418 143.352C72.0003 143.599 71.702 143.793 71.3469 143.932C70.9918 144.068 70.5926 144.136 70.1495 144.136ZM74.0295 144V137.455H75.0011V138.443H75.0693C75.1886 138.119 75.4045 137.857 75.717 137.655C76.0295 137.453 76.3818 137.352 76.7738 137.352C76.8477 137.352 76.94 137.354 77.0508 137.357C77.1616 137.359 77.2454 137.364 77.3022 137.369V138.392C77.2682 138.384 77.19 138.371 77.0679 138.354C76.9486 138.334 76.8221 138.324 76.6886 138.324C76.3704 138.324 76.0863 138.391 75.8363 138.524C75.5892 138.655 75.3932 138.837 75.2483 139.07C75.1062 139.3 75.0352 139.562 75.0352 139.858V144H74.0295ZM83.8937 144.136C83.263 144.136 82.719 143.997 82.2616 143.719C81.807 143.438 81.4562 143.045 81.209 142.543C80.9647 142.037 80.8425 141.449 80.8425 140.778C80.8425 140.108 80.9647 139.517 81.209 139.006C81.4562 138.491 81.7999 138.091 82.2403 137.804C82.6835 137.514 83.2005 137.369 83.7914 137.369C84.1323 137.369 84.469 137.426 84.8013 137.54C85.1337 137.653 85.4363 137.838 85.709 138.094C85.9817 138.347 86.1991 138.682 86.361 139.099C86.5229 139.517 86.6039 140.031 86.6039 140.642V141.068H81.5585V140.199H85.5812C85.5812 139.83 85.5073 139.5 85.3596 139.21C85.2147 138.92 85.0073 138.692 84.7374 138.524C84.4704 138.357 84.155 138.273 83.7914 138.273C83.3908 138.273 83.0442 138.372 82.7516 138.571C82.4619 138.767 82.2388 139.023 82.0826 139.338C81.9263 139.653 81.8482 139.991 81.8482 140.352V140.932C81.8482 141.426 81.9335 141.845 82.1039 142.189C82.2772 142.53 82.5173 142.79 82.8241 142.969C83.1309 143.145 83.4874 143.233 83.8937 143.233C84.1579 143.233 84.3965 143.196 84.6096 143.122C84.8255 143.045 85.0116 142.932 85.1678 142.781C85.3241 142.628 85.4448 142.437 85.53 142.21L86.5016 142.483C86.3994 142.812 86.2275 143.102 85.986 143.352C85.7445 143.599 85.4462 143.793 85.0911 143.932C84.736 144.068 84.3369 144.136 83.8937 144.136ZM88.348 137.455L89.9161 140.131L91.4843 137.455H92.6434L90.5298 140.727L92.6434 144H91.4843L89.9161 141.46L88.348 144H87.1889L89.2684 140.727L87.1889 137.455H88.348ZM93.7184 146.455V137.455H94.69V138.494H94.8093C94.8832 138.381 94.9855 138.236 95.1161 138.06C95.2497 137.881 95.44 137.722 95.6872 137.582C95.9372 137.44 96.2752 137.369 96.7014 137.369C97.2525 137.369 97.7383 137.507 98.1588 137.783C98.5792 138.058 98.9073 138.449 99.1431 138.955C99.3789 139.46 99.4968 140.057 99.4968 140.744C99.4968 141.438 99.3789 142.038 99.1431 142.547C98.9073 143.053 98.5806 143.445 98.163 143.723C97.7454 143.999 97.2639 144.136 96.7184 144.136C96.298 144.136 95.9613 144.067 95.7085 143.928C95.4556 143.786 95.261 143.625 95.1247 143.446C94.9883 143.264 94.8832 143.114 94.8093 142.994H94.7241V146.455H93.7184ZM94.7071 140.727C94.7071 141.222 94.7795 141.658 94.9244 142.036C95.0693 142.411 95.2809 142.705 95.5593 142.918C95.8377 143.128 96.1786 143.233 96.5821 143.233C97.0025 143.233 97.3534 143.122 97.6346 142.901C97.9187 142.676 98.1318 142.375 98.2738 141.997C98.4187 141.616 98.4911 141.193 98.4911 140.727C98.4911 140.267 98.4201 139.852 98.2781 139.483C98.1389 139.111 97.9272 138.817 97.6431 138.601C97.3619 138.382 97.0082 138.273 96.5821 138.273C96.173 138.273 95.8292 138.376 95.5508 138.584C95.2724 138.788 95.0622 139.075 94.9201 139.445C94.7781 139.811 94.7071 140.239 94.7071 140.727ZM103.415 144.136C102.785 144.136 102.241 143.997 101.783 143.719C101.329 143.438 100.978 143.045 100.731 142.543C100.486 142.037 100.364 141.449 100.364 140.778C100.364 140.108 100.486 139.517 100.731 139.006C100.978 138.491 101.321 138.091 101.762 137.804C102.205 137.514 102.722 137.369 103.313 137.369C103.654 137.369 103.991 137.426 104.323 137.54C104.655 137.653 104.958 137.838 105.231 138.094C105.503 138.347 105.721 138.682 105.883 139.099C106.044 139.517 106.125 140.031 106.125 140.642V141.068H101.08V140.199H105.103C105.103 139.83 105.029 139.5 104.881 139.21C104.736 138.92 104.529 138.692 104.259 138.524C103.992 138.357 103.677 138.273 103.313 138.273C102.912 138.273 102.566 138.372 102.273 138.571C101.983 138.767 101.76 139.023 101.604 139.338C101.448 139.653 101.37 139.991 101.37 140.352V140.932C101.37 141.426 101.455 141.845 101.625 142.189C101.799 142.53 102.039 142.79 102.346 142.969C102.652 143.145 103.009 143.233 103.415 143.233C103.679 143.233 103.918 143.196 104.131 143.122C104.347 143.045 104.533 142.932 104.689 142.781C104.846 142.628 104.966 142.437 105.052 142.21L106.023 142.483C105.921 142.812 105.749 143.102 105.508 143.352C105.266 143.599 104.968 143.793 104.613 143.932C104.258 144.068 103.858 144.136 103.415 144.136ZM107.295 144V137.455H108.267V138.443H108.335C108.454 138.119 108.67 137.857 108.983 137.655C109.295 137.453 109.648 137.352 110.04 137.352C110.113 137.352 110.206 137.354 110.317 137.357C110.427 137.359 110.511 137.364 110.568 137.369V138.392C110.534 138.384 110.456 138.371 110.334 138.354C110.214 138.334 110.088 138.324 109.954 138.324C109.636 138.324 109.352 138.391 109.102 138.524C108.855 138.655 108.659 138.837 108.514 139.07C108.372 139.3 108.301 139.562 108.301 139.858V144H107.295ZM114.657 137.455V138.307H111.265V137.455H114.657ZM112.253 135.886H113.259V142.125C113.259 142.409 113.3 142.622 113.383 142.764C113.468 142.903 113.576 142.997 113.707 143.045C113.84 143.091 113.981 143.114 114.128 143.114C114.239 143.114 114.33 143.108 114.401 143.097C114.472 143.082 114.529 143.071 114.572 143.062L114.776 143.966C114.708 143.991 114.613 144.017 114.491 144.043C114.369 144.071 114.214 144.085 114.026 144.085C113.742 144.085 113.464 144.024 113.191 143.902C112.921 143.78 112.697 143.594 112.518 143.344C112.342 143.094 112.253 142.778 112.253 142.398V135.886ZM120.329 138.92L119.425 139.176C119.369 139.026 119.285 138.879 119.174 138.737C119.066 138.592 118.918 138.473 118.731 138.379C118.543 138.286 118.303 138.239 118.011 138.239C117.61 138.239 117.276 138.331 117.009 138.516C116.745 138.697 116.613 138.929 116.613 139.21C116.613 139.46 116.704 139.658 116.886 139.803C117.067 139.947 117.352 140.068 117.738 140.165L118.71 140.403C119.295 140.545 119.731 140.763 120.018 141.055C120.305 141.345 120.448 141.719 120.448 142.176C120.448 142.551 120.34 142.886 120.124 143.182C119.911 143.477 119.613 143.71 119.229 143.881C118.846 144.051 118.4 144.136 117.891 144.136C117.224 144.136 116.671 143.991 116.234 143.702C115.796 143.412 115.519 142.989 115.403 142.432L116.357 142.193C116.448 142.545 116.62 142.81 116.873 142.986C117.129 143.162 117.462 143.25 117.874 143.25C118.343 143.25 118.715 143.151 118.991 142.952C119.269 142.75 119.408 142.509 119.408 142.227C119.408 142 119.329 141.81 119.17 141.656C119.011 141.5 118.766 141.384 118.437 141.307L117.346 141.051C116.746 140.909 116.306 140.689 116.025 140.391C115.746 140.089 115.607 139.713 115.607 139.261C115.607 138.892 115.711 138.565 115.918 138.281C116.129 137.997 116.414 137.774 116.775 137.612C117.139 137.45 117.55 137.369 118.011 137.369C118.658 137.369 119.167 137.511 119.536 137.795C119.908 138.08 120.173 138.455 120.329 138.92Z" fill="#7C7C7C"/>
<path fill-rule="evenodd" clip-rule="evenodd" d="M421 16V56H397V16H421ZM389 32V56H365V32H389ZM453 56V24H429V56H453Z" fill="#B98E01"/>
<path fill-rule="evenodd" clip-rule="evenodd" d="M781 16V72H741V16H781ZM773 24V64H749V24H773ZM829 24V72L789 72V24L829 24ZM821 32V64H797V32H821Z" fill="#387152"/>
<path fill-rule="evenodd" clip-rule="evenodd" d="M151.284 45.6274L156.941 39.9706L151.284 34.3137L139.971 23L134.314 28.6569L145.628 39.9706L134.314 51.2843L139.971 56.9411L151.284 45.6274Z" fill="#B1B1B1"/>
<path fill-rule="evenodd" clip-rule="evenodd" d="M335.284 45.6274L340.941 39.9706L335.284 34.3137L323.971 23L318.314 28.6569L329.628 39.9706L318.314 51.2843L323.971 56.9411L335.284 45.6274Z" fill="#B1B1B1"/>
<path fill-rule="evenodd" clip-rule="evenodd" d="M511.284 45.6274L516.941 39.9706L511.284 34.3137L499.971 23L494.314 28.6569L505.628 39.9706L494.314 51.2843L499.971 56.9411L511.284 45.6274Z" fill="#B1B1B1"/>
<path fill-rule="evenodd" clip-rule="evenodd" d="M703.284 45.6274L708.941 39.9706L703.284 34.3137L691.971 23L686.314 28.6569L697.628 39.9706L686.314 51.2843L691.971 56.9411L703.284 45.6274Z" fill="#B1B1B1"/>
<path fill-rule="evenodd" clip-rule="evenodd" d="M629 24V16L589 16V24L589 32L557 32V40L589 40H597L629 40V32L597 32L597 24L629 24ZM629 80V88L557 88V80L629 80ZM645 56V48H613H605L573 48V56H605L605 64L573 64V72H605L613 72V64L613 56H645Z" fill="#D034F5"/>
<path fill-rule="evenodd" clip-rule="evenodd" d="M237 0V24H261V48H285V72H261H237V48H213V72H189V48V24L213 24V0H237Z" fill="#854EFF"/>
<path fill-rule="evenodd" clip-rule="evenodd" d="M45 0H37V24H13V32H37V56H13V64H37V88H45V64H69V88H77V64H101V56H77V32H101V24H77V0H69V24H45V0ZM69 32H45V56H69V32Z" fill="#FF7338"/>
<path fill-rule="evenodd" clip-rule="evenodd" d="M405 0H413V8H405V0ZM381 16H373V24H381V16ZM389 64V72H365V64H389ZM389 80V88H365V80H389ZM421 72V64H397V72H421ZM421 80V88H397V80H421ZM453 72V64H429V72H453ZM453 80V88H429V80H453ZM445 8H437V16H445V8Z" fill="#E6C867"/>
<path fill-rule="evenodd" clip-rule="evenodd" d="M765 32H757V40H765V32ZM781 80V88L741 88V80L781 80ZM829 80V88L789 88V80L829 80ZM757 48H765V56H757V48ZM813 40H805V48H813V40Z" fill="#63DB9A"/>
<path fill-rule="evenodd" clip-rule="evenodd" d="M637 16H645V24H637V16ZM637 80H645V88H637V80ZM565 64H557V72H565V64ZM557 48H565V56H557V48ZM645 32H637V40H645V32Z" fill="#E48BF9"/>
<path fill-rule="evenodd" clip-rule="evenodd" d="M197 8H205V16H197V8ZM285 80V88H189V80H285ZM253 8H245V16H253V8ZM269 32H277V40H269V32ZM229 56H221V64H229V56Z" fill="#C4A9FF"/>
<rect x="53" y="8" width="8" height="8" fill="#FFB89B"/>
<rect x="53" y="40" width="8" height="8" fill="#FFB89B"/>
<rect x="53" y="72" width="8" height="8" fill="#FFB89B"/>
<rect x="21" y="8" width="8" height="8" fill="#FFB89B"/>
<rect x="21" y="40" width="8" height="8" fill="#FFB89B"/>
<rect x="21" y="72" width="8" height="8" fill="#FFB89B"/>
<rect x="85" y="8" width="8" height="8" fill="#FFB89B"/>
<rect x="85" y="40" width="8" height="8" fill="#FFB89B"/>
<rect x="85" y="72" width="8" height="8" fill="#FFB89B"/>
</g>
<defs>
<clipPath id="clip0_247_146">
<rect width="847" height="148" fill="white"/>
</clipPath>
</defs>
</svg>
