<svg width="665" height="384" viewBox="0 0 665 384" fill="none" xmlns="http://www.w3.org/2000/svg">
<rect x="143" y="28" width="12" height="59" fill="#F89999"/>
<rect x="134" y="305" width="12" height="59" fill="#F89999"/>
<rect x="132" y="316" width="12" height="59" fill="#F89999"/>
<rect x="100" y="-39" width="10" height="79" fill="#F89999"/>
<rect x="132" y="92" width="8" height="40" fill="#F89999"/>
<rect x="124" y="138" width="4" height="40" fill="#F89999"/>
<rect x="124" y="52" width="4" height="40" fill="#F89999"/>
<rect x="118" y="183" width="6" height="40" fill="#F89999"/>
<rect x="130" y="223" width="10" height="40" fill="#F89999"/>
<rect x="120" y="269" width="4" height="63" fill="#F89999"/>
<rect x="104" y="199" width="4" height="63" fill="#F89999"/>
<rect x="120" y="12" width="1" height="40" fill="#F89999"/>
<rect x="88" y="125" width="12" height="59" fill="#F89999"/>
<rect x="45" y="58" width="10" height="79" fill="#F89999"/>
<rect x="77" y="189" width="8" height="40" fill="#F89999"/>
<rect x="69" y="235" width="4" height="40" fill="#F89999"/>
<rect x="69" y="149" width="4" height="40" fill="#F89999"/>
<rect x="63" y="280" width="6" height="40" fill="#F89999"/>
<rect x="75" y="320" width="10" height="40" fill="#F89999"/>
<rect x="65" y="366" width="4" height="63" fill="#F89999"/>
<rect x="49" y="296" width="4" height="63" fill="#F89999"/>
<rect x="65" y="109" width="1" height="40" fill="#F89999"/>
<rect x="43" y="9" width="12" height="59" fill="#F89999"/>
<rect x="34" y="286" width="12" height="59" fill="#F89999"/>
<rect x="32" y="297" width="12" height="59" fill="#F89999"/>
<rect y="-58" width="10" height="79" fill="#F89999"/>
<rect x="32" y="73" width="8" height="40" fill="#F89999"/>
<rect x="24" y="119" width="4" height="40" fill="#F89999"/>
<rect x="24" y="33" width="4" height="40" fill="#F89999"/>
<rect x="18" y="164" width="6" height="40" fill="#F89999"/>
<rect x="30" y="204" width="10" height="40" fill="#F89999"/>
<rect x="20" y="250" width="4" height="63" fill="#F89999"/>
<rect x="4" y="180" width="4" height="63" fill="#F89999"/>
<rect x="20" y="-7" width="1" height="40" fill="#F89999"/>
<rect x="584" y="43" width="12" height="59" fill="#F89999"/>
<rect x="575" y="320" width="12" height="59" fill="#F89999"/>
<rect x="573" y="331" width="12" height="59" fill="#F89999"/>
<rect x="541" y="-24" width="10" height="79" fill="#F89999"/>
<rect x="573" y="107" width="8" height="40" fill="#F89999"/>
<rect x="565" y="153" width="4" height="40" fill="#F89999"/>
<rect x="565" y="67" width="4" height="40" fill="#F89999"/>
<rect x="559" y="198" width="6" height="40" fill="#F89999"/>
<rect x="571" y="238" width="10" height="40" fill="#F89999"/>
<rect x="561" y="284" width="4" height="63" fill="#F89999"/>
<rect x="545" y="214" width="4" height="63" fill="#F89999"/>
<rect x="561" y="27" width="1" height="40" fill="#F89999"/>
<rect x="627" y="-21" width="12" height="59" fill="#F89999"/>
<rect x="618" y="256" width="12" height="59" fill="#F89999"/>
<rect x="616" y="267" width="12" height="59" fill="#F89999"/>
<rect x="616" y="43" width="8" height="40" fill="#F89999"/>
<rect x="608" y="89" width="4" height="40" fill="#F89999"/>
<rect x="608" y="3" width="4" height="40" fill="#F89999"/>
<rect x="602" y="134" width="6" height="40" fill="#F89999"/>
<rect x="614" y="174" width="10" height="40" fill="#F89999"/>
<rect x="604" y="220" width="4" height="63" fill="#F89999"/>
<rect x="588" y="150" width="4" height="63" fill="#F89999"/>
<rect x="604" y="-37" width="1" height="40" fill="#F89999"/>
<rect x="653" y="90" width="12" height="59" fill="#F89999"/>
<rect x="644" y="367" width="12" height="59" fill="#F89999"/>
<rect x="642" y="378" width="12" height="59" fill="#F89999"/>
<rect x="610" y="23" width="10" height="79" fill="#F89999"/>
<rect x="642" y="154" width="8" height="40" fill="#F89999"/>
<rect x="634" y="200" width="4" height="40" fill="#F89999"/>
<rect x="634" y="114" width="4" height="40" fill="#F89999"/>
<rect x="628" y="245" width="6" height="40" fill="#F89999"/>
<rect x="640" y="285" width="10" height="40" fill="#F89999"/>
<rect x="630" y="331" width="4" height="63" fill="#F89999"/>
<rect x="614" y="261" width="4" height="63" fill="#F89999"/>
<rect x="630" y="74" width="1" height="40" fill="#F89999"/>
</svg>
