<svg width="1194" height="248" viewBox="0 0 1194 248" fill="none" xmlns="http://www.w3.org/2000/svg">
<rect x="276" y="59" width="135" height="32" fill="#085A31"/>
<path d="M343 102L335.206 88.5L350.794 88.5L343 102Z" fill="#085A31"/>
<path d="M305.066 72.6562H301.333C301.265 72.1733 301.126 71.7443 300.915 71.3693C300.705 70.9886 300.435 70.6648 300.106 70.3977C299.776 70.1307 299.396 69.9261 298.964 69.7841C298.538 69.642 298.075 69.571 297.575 69.571C296.671 69.571 295.884 69.7955 295.214 70.2443C294.543 70.6875 294.023 71.3352 293.654 72.1875C293.285 73.0341 293.1 74.0625 293.1 75.2727C293.1 76.517 293.285 77.5625 293.654 78.4091C294.029 79.2557 294.552 79.8949 295.222 80.3267C295.893 80.7585 296.668 80.9744 297.549 80.9744C298.043 80.9744 298.501 80.9091 298.921 80.7784C299.347 80.6477 299.725 80.4574 300.055 80.2074C300.384 79.9517 300.657 79.642 300.873 79.2784C301.094 78.9148 301.248 78.5 301.333 78.0341L305.066 78.0511C304.969 78.8523 304.728 79.625 304.342 80.3693C303.961 81.108 303.447 81.7699 302.799 82.3551C302.157 82.9347 301.39 83.3949 300.498 83.7358C299.612 84.071 298.609 84.2386 297.489 84.2386C295.933 84.2386 294.54 83.8864 293.313 83.1818C292.092 82.4773 291.126 81.4574 290.415 80.1222C289.711 78.7869 289.359 77.1705 289.359 75.2727C289.359 73.3693 289.717 71.75 290.433 70.4148C291.148 69.0795 292.12 68.0625 293.347 67.3636C294.575 66.6591 295.955 66.3068 297.489 66.3068C298.501 66.3068 299.438 66.4489 300.302 66.733C301.171 67.017 301.941 67.4318 302.612 67.9773C303.282 68.517 303.827 69.179 304.248 69.9631C304.674 70.7472 304.947 71.6449 305.066 72.6562ZM311.393 84H307.438L313.464 66.5455H318.219L324.237 84H320.282L315.91 70.5341H315.773L311.393 84ZM311.146 77.1392H320.487V80.0199H311.146V77.1392ZM341.937 66.5455V84H338.749L331.156 73.0142H331.028V84H327.337V66.5455H330.576L338.11 77.5227H338.263V66.5455H341.937ZM348.994 84H345.04L351.065 66.5455H355.821L361.838 84H357.884L353.511 70.5341H353.375L348.994 84ZM348.747 77.1392H358.088V80.0199H348.747V77.1392ZM371.126 84H364.939V66.5455H371.178C372.933 66.5455 374.445 66.8949 375.712 67.5938C376.979 68.2869 377.953 69.2841 378.635 70.5852C379.322 71.8864 379.666 73.4432 379.666 75.2557C379.666 77.0739 379.322 78.6364 378.635 79.9432C377.953 81.25 376.973 82.2528 375.695 82.9517C374.422 83.6506 372.899 84 371.126 84ZM368.629 80.8381H370.973C372.064 80.8381 372.982 80.6449 373.726 80.2585C374.476 79.8665 375.038 79.2614 375.413 78.4432C375.794 77.6193 375.984 76.5568 375.984 75.2557C375.984 73.9659 375.794 72.9119 375.413 72.0938C375.038 71.2756 374.479 70.6733 373.734 70.2869C372.99 69.9006 372.072 69.7074 370.982 69.7074H368.629V80.8381ZM385.424 84H381.469L387.495 66.5455H392.251L398.268 84H394.313L389.941 70.5341H389.805L385.424 84ZM385.177 77.1392H394.518V80.0199H385.177V77.1392Z" fill="#FBFD5E"/>
</svg>
