<svg width="382" height="384" viewBox="0 0 382 384" fill="none" xmlns="http://www.w3.org/2000/svg">
<circle cx="192" cy="191" r="9.5" stroke="#31DEDE" stroke-opacity="0.5"/>
<circle cx="195" cy="191" r="18" stroke="#31DEDE" stroke-opacity="0.5" stroke-width="2"/>
<circle cx="188" cy="191" r="26.5" stroke="#31DEDE" stroke-opacity="0.5"/>
<circle cx="190" cy="191" r="34" stroke="#31DEDE" stroke-opacity="0.5" stroke-width="4"/>
<circle cx="185" cy="191" r="45" stroke="#31DEDE" stroke-opacity="0.5" stroke-width="2"/>
<circle cx="192" cy="191" r="55.5" stroke="#31DEDE" stroke-opacity="0.5"/>
<circle cx="187" cy="191" r="66.5" stroke="#31DEDE" stroke-opacity="0.5" stroke-width="3"/>
<circle cx="189" cy="196" r="77.5" stroke="#31DEDE" stroke-opacity="0.5" stroke-width="5"/>
<circle cx="190" cy="196" r="89.5" stroke="#31DEDE" stroke-opacity="0.5" stroke-width="7"/>
<circle cx="192" cy="191" r="104.5" stroke="#31DEDE" stroke-opacity="0.5" stroke-width="3"/>
<circle cx="192" cy="191" r="118.5" stroke="#31DEDE" stroke-opacity="0.5"/>
<circle cx="192" cy="191" r="123.5" stroke="#31DEDE" stroke-opacity="0.5"/>
<circle cx="192" cy="191" r="157.5" stroke="#31DEDE" stroke-opacity="0.5"/>
<circle cx="192" cy="191" r="194.5" stroke="#31DEDE" stroke-opacity="0.5"/>
<circle cx="192" cy="191" r="132" stroke="#31DEDE" stroke-opacity="0.5" stroke-width="6"/>
<circle cx="192" cy="191" r="146" stroke="#31DEDE" stroke-opacity="0.5" stroke-width="14"/>
<circle cx="192" cy="191" r="167" stroke="#31DEDE" stroke-opacity="0.5" stroke-width="6"/>
<circle cx="192" cy="191" r="181.5" stroke="#31DEDE" stroke-opacity="0.5" stroke-width="13"/>
<circle cx="192" cy="191" r="203" stroke="#31DEDE" stroke-opacity="0.5" stroke-width="6"/>
<circle cx="192" cy="191" r="217" stroke="#31DEDE" stroke-opacity="0.5" stroke-width="12"/>
<circle cx="191.5" cy="191.5" r="227" stroke="#31DEDE" stroke-opacity="0.5" stroke-width="9"/>
<circle cx="191.5" cy="191.5" r="237" stroke="#31DEDE" stroke-opacity="0.5" stroke-width="5"/>
<circle cx="191.5" cy="191.5" r="248.5" stroke="#31DEDE" stroke-opacity="0.5" stroke-width="2"/>
<circle cx="191.5" cy="191.5" r="256.5" stroke="#31DEDE" stroke-opacity="0.5" stroke-width="2"/>
<circle cx="191.5" cy="191.5" r="263.5" stroke="#31DEDE" stroke-opacity="0.5" stroke-width="2"/>
</svg>
