<svg width="363" height="366" viewBox="0 0 363 366" fill="none" xmlns="http://www.w3.org/2000/svg">
<path fill-rule="evenodd" clip-rule="evenodd" d="M24.2718 196.689C23.0432 197.06 21.7401 197.26 20.3904 197.26C12.9951 197.26 7 191.265 7 183.869C7 176.474 12.9951 170.479 20.3904 170.479C21.74 170.479 23.0431 170.679 24.2715 171.05C18.769 172.714 14.7626 177.824 14.7626 183.869C14.7626 189.915 18.7691 195.025 24.2718 196.689Z" fill="#FADBA2" fill-opacity="0.3"/>
<path fill-rule="evenodd" clip-rule="evenodd" d="M104.272 196.689C103.043 197.06 101.74 197.26 100.39 197.26C92.9951 197.26 87 191.265 87 183.869C87 176.474 92.9951 170.479 100.39 170.479C101.74 170.479 103.043 170.679 104.272 171.05C98.769 172.714 94.7626 177.824 94.7626 183.869C94.7626 189.915 98.7691 195.025 104.272 196.689Z" fill="#FADBA2" fill-opacity="0.3"/>
<path fill-rule="evenodd" clip-rule="evenodd" d="M339 194.254C340.229 194.625 341.532 194.825 342.882 194.825C350.277 194.825 356.272 188.83 356.272 181.435C356.272 174.039 350.277 168.044 342.882 168.044C341.532 168.044 340.229 168.244 339 168.616C344.503 170.279 348.509 175.389 348.509 181.435C348.509 187.48 344.503 192.59 339 194.254Z" fill="#FADBA2" fill-opacity="0.3"/>
<path fill-rule="evenodd" clip-rule="evenodd" d="M261 194.254C262.229 194.625 263.532 194.825 264.882 194.825C272.277 194.825 278.272 188.83 278.272 181.435C278.272 174.039 272.277 168.044 264.882 168.044C263.532 168.044 262.229 168.244 261 168.616C266.503 170.279 270.509 175.389 270.509 181.435C270.509 187.48 266.503 192.59 261 194.254Z" fill="#FADBA2" fill-opacity="0.3"/>
<path fill-rule="evenodd" clip-rule="evenodd" d="M195.21 22.662C195.581 21.4335 195.781 20.1304 195.781 18.7807C195.781 11.3854 189.786 5.39038 182.39 5.39038C174.995 5.39038 169 11.3854 169 18.7807C169 20.1304 169.2 21.4335 169.571 22.662C171.235 17.1594 176.345 13.1529 182.39 13.1529C188.436 13.1529 193.546 17.1594 195.21 22.662Z" fill="#FADBA2" fill-opacity="0.3"/>
<path fill-rule="evenodd" clip-rule="evenodd" d="M195.21 343.076C195.581 344.305 195.781 345.608 195.781 346.958C195.781 354.353 189.786 360.348 182.39 360.348C174.995 360.348 169 354.353 169 346.958C169 345.608 169.2 344.305 169.571 343.076C171.235 348.579 176.345 352.585 182.39 352.585C188.436 352.585 193.546 348.579 195.21 343.076Z" fill="#FADBA2" fill-opacity="0.3"/>
<path fill-rule="evenodd" clip-rule="evenodd" d="M113.21 22.662C113.581 21.4335 113.781 20.1304 113.781 18.7807C113.781 11.3854 107.786 5.39038 100.39 5.39038C92.9951 5.39038 87 11.3854 87 18.7807C87 20.1304 87.1997 21.4335 87.5711 22.662C89.235 17.1594 94.3448 13.1529 100.39 13.1529C106.436 13.1529 111.546 17.1594 113.21 22.662Z" fill="#FADBA2" fill-opacity="0.3"/>
<path fill-rule="evenodd" clip-rule="evenodd" d="M113.21 343.076C113.581 344.305 113.781 345.608 113.781 346.958C113.781 354.353 107.786 360.348 100.39 360.348C92.9951 360.348 87 354.353 87 346.958C87 345.608 87.1997 344.305 87.5711 343.076C89.235 348.579 94.3448 352.585 100.39 352.585C106.436 352.585 111.546 348.579 113.21 343.076Z" fill="#FADBA2" fill-opacity="0.3"/>
<path fill-rule="evenodd" clip-rule="evenodd" d="M277.21 22.662C277.581 21.4335 277.781 20.1304 277.781 18.7807C277.781 11.3854 271.786 5.39038 264.39 5.39038C256.995 5.39038 251 11.3854 251 18.7807C251 20.1304 251.2 21.4335 251.571 22.662C253.235 17.1594 258.345 13.1529 264.39 13.1529C270.436 13.1529 275.546 17.1594 277.21 22.662Z" fill="#FADBA2" fill-opacity="0.3"/>
<path fill-rule="evenodd" clip-rule="evenodd" d="M277.21 343.076C277.581 344.305 277.781 345.608 277.781 346.958C277.781 354.353 271.786 360.348 264.39 360.348C256.995 360.348 251 354.353 251 346.958C251 345.608 251.2 344.305 251.571 343.076C253.235 348.579 258.345 352.585 264.39 352.585C270.436 352.585 275.546 348.579 277.21 343.076Z" fill="#FADBA2" fill-opacity="0.3"/>
<path fill-rule="evenodd" clip-rule="evenodd" d="M357.846 25.857C358.523 24.7665 359.053 23.5595 359.402 22.2558C361.317 15.1125 357.077 7.7701 349.934 5.85606C342.791 3.94202 335.448 8.18117 333.534 15.3245C333.185 16.6282 333.041 17.9385 333.081 19.2213C336.113 14.3368 342.085 11.7893 347.925 13.354C353.765 14.9188 357.663 20.1112 357.846 25.857Z" fill="#FADBA2" fill-opacity="0.3"/>
<path fill-rule="evenodd" clip-rule="evenodd" d="M357.846 339.881C358.523 340.972 359.053 342.179 359.402 343.483C361.317 350.626 357.077 357.968 349.934 359.882C342.791 361.796 335.448 357.557 333.534 350.414C333.185 349.11 333.041 347.8 333.081 346.517C336.113 351.402 342.085 353.949 347.925 352.384C353.765 350.82 357.663 345.627 357.846 339.881Z" fill="#FADBA2" fill-opacity="0.3"/>
<path fill-rule="evenodd" clip-rule="evenodd" d="M31.334 15.2433C31.0414 13.9937 30.5628 12.7653 29.8879 11.5964C26.1903 5.19191 18.0009 2.99756 11.5964 6.6952C5.19188 10.3928 2.99753 18.5823 6.69518 24.9868C7.37001 26.1556 8.19445 27.1842 9.13035 28.0624C7.81996 22.4651 10.242 16.4405 15.4776 13.4177C20.7132 10.3949 27.1418 11.3097 31.334 15.2433Z" fill="#FADBA2" fill-opacity="0.3"/>
<path fill-rule="evenodd" clip-rule="evenodd" d="M31.334 350.495C31.0414 351.745 30.5628 352.973 29.8879 354.142C26.1903 360.546 18.0009 362.741 11.5964 359.043C5.19188 355.346 2.99753 347.156 6.69518 340.752C7.37001 339.583 8.19445 338.554 9.13035 337.676C7.81996 343.273 10.242 349.298 15.4776 352.321C20.7132 355.343 27.1418 354.429 31.334 350.495Z" fill="#FADBA2" fill-opacity="0.3"/>
<path fill-rule="evenodd" clip-rule="evenodd" d="M193.587 93.662C193.958 92.4335 194.158 91.1305 194.158 89.7807C194.158 82.3854 188.163 76.3904 180.768 76.3904C173.373 76.3904 167.377 82.3854 167.377 89.7807C167.377 91.1305 167.577 92.4335 167.949 93.662C169.612 88.1594 174.722 84.153 180.768 84.153C186.813 84.153 191.923 88.1594 193.587 93.662Z" fill="#FADBA2" fill-opacity="0.3"/>
<path fill-rule="evenodd" clip-rule="evenodd" d="M193.587 262.388C193.958 263.617 194.158 264.92 194.158 266.269C194.158 273.665 188.163 279.66 180.768 279.66C173.373 279.66 167.377 273.665 167.377 266.269C167.377 264.92 167.577 263.617 167.949 262.388C169.612 267.891 174.722 271.897 180.768 271.897C186.813 271.897 191.923 267.891 193.587 262.388Z" fill="#FADBA2" fill-opacity="0.3"/>
<path fill-rule="evenodd" clip-rule="evenodd" d="M273.775 98.0888C274.629 97.1308 275.359 96.0328 275.927 94.8085C279.039 88.1002 276.124 80.1387 269.416 77.0262C262.708 73.9136 254.746 76.8286 251.634 83.537C251.066 84.7614 250.698 86.0275 250.518 87.2983C254.343 83.0069 260.665 81.5232 266.149 84.0677C271.633 86.6122 274.582 92.397 273.775 98.0888Z" fill="#FADBA2" fill-opacity="0.3"/>
<path fill-rule="evenodd" clip-rule="evenodd" d="M273.775 257.961C274.629 258.919 275.359 260.017 275.927 261.242C279.039 267.95 276.124 275.911 269.416 279.024C262.708 282.137 254.746 279.222 251.634 272.513C251.066 271.289 250.698 270.023 250.518 268.752C254.343 273.043 260.665 274.527 266.149 271.982C271.633 269.438 274.582 263.653 273.775 257.961Z" fill="#FADBA2" fill-opacity="0.3"/>
<path fill-rule="evenodd" clip-rule="evenodd" d="M91.7879 98.0896C90.9336 97.1314 90.2038 96.0332 89.6356 94.8085C86.523 88.1002 89.438 80.1387 96.1464 77.0262C102.855 73.9136 110.816 76.8286 113.929 83.537C114.497 84.7611 114.864 86.0269 115.044 87.2974C111.219 83.0067 104.898 81.5233 99.414 84.0677C93.9298 86.6123 90.9808 92.3976 91.7879 98.0896Z" fill="#FADBA2" fill-opacity="0.3"/>
<path fill-rule="evenodd" clip-rule="evenodd" d="M91.7879 257.961C90.9336 258.919 90.2038 260.017 89.6356 261.242C86.523 267.95 89.438 275.911 96.1464 279.024C102.855 282.137 110.816 279.222 113.929 272.513C114.497 271.289 114.864 270.023 115.044 268.753C111.219 273.043 104.898 274.527 99.414 271.982C93.9298 269.438 90.9808 263.653 91.7879 257.961Z" fill="#FADBA2" fill-opacity="0.3"/>
<path fill-rule="evenodd" clip-rule="evenodd" d="M31.6985 76.8847C30.7405 76.0306 29.6425 75.3011 28.4181 74.733C21.7098 71.6204 13.7483 74.5354 10.6358 81.2438C7.52322 87.9522 10.4382 95.9136 17.1466 99.0262C18.3708 99.5942 19.6368 99.9615 20.9074 100.142C16.6162 96.3164 15.1325 89.9949 17.677 84.5109C20.2215 79.0267 26.0066 76.0778 31.6985 76.8847Z" fill="#FADBA2" fill-opacity="0.3"/>
<path fill-rule="evenodd" clip-rule="evenodd" d="M31.6985 279.166C30.7405 280.02 29.6425 280.749 28.4181 281.317C21.7098 284.43 13.7483 281.515 10.6358 274.806C7.52322 268.098 10.4382 260.137 17.1466 257.024C18.3708 256.456 19.6368 256.089 20.9074 255.909C16.6162 259.734 15.1325 266.055 17.677 271.539C20.2215 277.023 26.0066 279.972 31.6985 279.166Z" fill="#FADBA2" fill-opacity="0.3"/>
<path fill-rule="evenodd" clip-rule="evenodd" d="M330.241 76.8846C331.199 76.0306 332.297 75.301 333.521 74.733C340.229 71.6204 348.191 74.5354 351.303 81.2438C354.416 87.9522 351.501 95.9136 344.792 99.0262C343.568 99.5942 342.302 99.9615 341.031 100.142C345.323 96.3164 346.806 89.9949 344.262 84.5108C341.717 79.0268 335.932 76.0779 330.241 76.8846Z" fill="#FADBA2" fill-opacity="0.3"/>
<path fill-rule="evenodd" clip-rule="evenodd" d="M330.241 279.166C331.199 280.02 332.297 280.749 333.521 281.317C340.229 284.43 348.191 281.515 351.303 274.806C354.416 268.098 351.501 260.137 344.792 257.024C343.568 256.456 342.302 256.089 341.031 255.909C345.323 259.734 346.806 266.055 344.262 271.539C341.717 277.023 335.932 279.972 330.241 279.166Z" fill="#FADBA2" fill-opacity="0.3"/>
</svg>
