<svg width="686" height="319" viewBox="0 0 686 319" fill="none" xmlns="http://www.w3.org/2000/svg">
<rect x="25" y="113" width="170" height="179" rx="3" fill="#FADBA2" stroke="#6E6E6E" stroke-width="2"/>
<line x1="57.5" y1="114" x2="57.5" y2="293" stroke="#6E6E6E"/>
<line x1="30" y1="126" x2="51" y2="126" stroke="#6E6E6E" stroke-width="4"/>
<line x1="30" y1="145" x2="46" y2="145" stroke="#6E6E6E" stroke-width="4"/>
<line x1="30" y1="164" x2="51" y2="164" stroke="#6E6E6E" stroke-width="4"/>
<line x1="30" y1="183" x2="43" y2="183" stroke="#6E6E6E" stroke-width="4"/>
<line x1="30" y1="220" x2="43" y2="220" stroke="#6E6E6E" stroke-width="4"/>
<line x1="30" y1="256" x2="51" y2="256" stroke="#6E6E6E" stroke-width="4"/>
<line x1="30" y1="201" x2="51" y2="201" stroke="#6E6E6E" stroke-width="4"/>
<line x1="75" y1="132" x2="114" y2="132" stroke="#6E6E6E" stroke-width="4"/>
<line x1="75" y1="164" x2="114" y2="164" stroke="#6E6E6E" stroke-width="4"/>
<line x1="75" y1="201" x2="114" y2="201" stroke="#6E6E6E" stroke-width="4"/>
<line x1="75" y1="240" x2="114" y2="240" stroke="#6E6E6E" stroke-width="4"/>
<line x1="30" y1="238" x2="51" y2="238" stroke="#6E6E6E" stroke-width="4"/>
<line x1="30" y1="274" x2="46" y2="274" stroke="#6E6E6E" stroke-width="4"/>
<rect x="75.5" y="139.5" width="42" height="11" rx="3.5" stroke="#6E6E6E"/>
<rect x="75.5" y="169.5" width="54" height="15" rx="3.5" stroke="#6E6E6E"/>
<rect x="75.5" y="206.5" width="78" height="20" rx="3.5" stroke="#6E6E6E"/>
<rect x="75.5" y="245.5" width="34" height="10" rx="5" stroke="#6E6E6E"/>
<rect x="114.5" y="245.5" width="34" height="10" rx="5" stroke="#6E6E6E"/>
<rect x="153.5" y="245.5" width="34" height="10" rx="5" stroke="#6E6E6E"/>
</svg>
