<svg width="328" height="229" viewBox="0 0 328 229" fill="none" xmlns="http://www.w3.org/2000/svg">
<rect x="25" y="25" width="170" height="179" rx="3" fill="#FADBA2" stroke="#6E6E6E" stroke-width="2"/>
<line x1="57.5" y1="26" x2="57.5" y2="205" stroke="#6E6E6E"/>
<line x1="30" y1="38" x2="51" y2="38" stroke="#6E6E6E" stroke-width="4"/>
<line x1="30" y1="57" x2="46" y2="57" stroke="#6E6E6E" stroke-width="4"/>
<line x1="30" y1="76" x2="51" y2="76" stroke="#6E6E6E" stroke-width="4"/>
<line x1="30" y1="95" x2="43" y2="95" stroke="#6E6E6E" stroke-width="4"/>
<line x1="30" y1="132" x2="43" y2="132" stroke="#6E6E6E" stroke-width="4"/>
<line x1="30" y1="168" x2="51" y2="168" stroke="#6E6E6E" stroke-width="4"/>
<line x1="30" y1="113" x2="51" y2="113" stroke="#6E6E6E" stroke-width="4"/>
<line x1="75" y1="44" x2="114" y2="44" stroke="#6E6E6E" stroke-width="4"/>
<line x1="75" y1="76" x2="114" y2="76" stroke="#6E6E6E" stroke-width="4"/>
<line x1="75" y1="113" x2="114" y2="113" stroke="#6E6E6E" stroke-width="4"/>
<line x1="75" y1="152" x2="114" y2="152" stroke="#6E6E6E" stroke-width="4"/>
<line x1="30" y1="150" x2="51" y2="150" stroke="#6E6E6E" stroke-width="4"/>
<line x1="30" y1="186" x2="46" y2="186" stroke="#6E6E6E" stroke-width="4"/>
<rect x="75.5" y="51.5" width="42" height="11" rx="3.5" stroke="#6E6E6E"/>
<rect x="75.5" y="81.5" width="54" height="15" rx="3.5" stroke="#6E6E6E"/>
<rect x="75.5" y="118.5" width="78" height="20" rx="3.5" stroke="#6E6E6E"/>
<rect x="75.5" y="157.5" width="34" height="10" rx="5" stroke="#6E6E6E"/>
<rect x="114.5" y="157.5" width="34" height="10" rx="5" stroke="#6E6E6E"/>
<rect x="153.5" y="157.5" width="34" height="10" rx="5" stroke="#6E6E6E"/>
<rect x="229.785" y="100" width="8.78825" height="32.2236" transform="rotate(45 229.785 100)" fill="#6E6E6E"/>
<rect x="236" y="122.786" width="8.78825" height="32.2236" transform="rotate(135 236 122.786)" fill="#6E6E6E"/>
<path d="M246.636 150V136.364L272.682 114.818C274.409 113.386 275.886 112.045 277.114 110.795C278.364 109.523 279.318 108.216 279.977 106.875C280.659 105.534 281 104.045 281 102.409C281 100.614 280.614 99.0795 279.841 97.8068C279.091 96.5341 278.045 95.5568 276.705 94.875C275.364 94.1705 273.818 93.8182 272.068 93.8182C270.318 93.8182 268.773 94.1705 267.432 94.875C266.114 95.5795 265.091 96.6136 264.364 97.9773C263.636 99.3409 263.273 101 263.273 102.955H245.273C245.273 98.0455 246.375 93.8182 248.58 90.2727C250.784 86.7273 253.898 84 257.92 82.0909C261.943 80.1818 266.659 79.2273 272.068 79.2273C277.659 79.2273 282.5 80.125 286.591 81.9205C290.705 83.6932 293.875 86.1932 296.102 89.4205C298.352 92.6477 299.477 96.4318 299.477 100.773C299.477 103.455 298.92 106.125 297.807 108.784C296.693 111.42 294.693 114.341 291.807 117.545C288.92 120.75 284.818 124.568 279.5 129L272.955 134.455V134.864H300.227V150H246.636Z" fill="#6E6E6E"/>
</svg>
