<svg width="989" height="417" viewBox="0 0 989 417" fill="none" xmlns="http://www.w3.org/2000/svg">
<path fill-rule="evenodd" clip-rule="evenodd" d="M398.038 109.965C396.663 103.17 395.94 96.4994 395.94 90.1361C395.94 40.3553 440.194 0 494.783 0C549.373 0 593.627 40.3553 593.627 90.1362C593.627 96.4991 592.904 103.169 591.528 109.964C601.945 104.749 612.613 99.8171 623.278 95.3178C706.715 60.1175 805.646 44.7835 844.246 61.0683C882.847 77.3532 846.5 119.09 763.063 154.291C752.229 158.861 740.335 163.434 727.756 167.895C744.067 167.303 760.08 166.992 775.347 166.992C893.344 166.992 989 185.575 989 208.499C989 231.423 893.344 250.006 775.347 250.006C760.078 250.006 744.063 249.695 727.751 249.103C740.332 253.565 752.227 258.138 763.063 262.709C846.5 297.91 882.847 339.647 844.246 355.932C805.646 372.217 706.715 356.882 623.278 321.682C612.613 317.183 601.945 312.251 591.528 307.036C592.904 313.831 593.627 320.501 593.627 326.864C593.627 376.645 549.373 417 494.783 417C440.194 417 395.94 376.645 395.94 326.864C395.94 320.501 396.663 313.83 398.038 307.035C387.622 312.25 376.953 317.183 366.288 321.682C282.851 356.882 183.92 372.216 145.319 355.932C106.718 339.647 143.065 297.91 226.502 262.709C237.338 258.138 249.233 253.565 261.814 249.104C245.502 249.695 229.488 250.006 214.22 250.006C96.2223 250.006 0.566408 231.423 0.566406 208.499C0.566404 185.575 96.2223 166.992 214.22 166.992C229.486 166.992 245.499 167.303 261.809 167.895C249.23 163.434 237.336 158.861 226.502 154.291C143.065 119.09 106.718 77.3533 145.319 61.0684C183.92 44.7835 282.851 60.1176 366.288 95.3179C376.953 99.8174 387.622 104.75 398.038 109.965Z" fill="#FFFA7F"/>
</svg>
