<svg width="1194" height="248" viewBox="0 0 1194 248" fill="none" xmlns="http://www.w3.org/2000/svg">
<rect x="545" y="109" width="139" height="32" fill="#085A31"/>
<path d="M613.914 96L605.179 109.5L622.649 109.5L613.914 96Z" fill="#085A31"/>
<path d="M562.263 122.188C562.143 121.773 561.976 121.406 561.76 121.088C561.544 120.764 561.28 120.491 560.967 120.27C560.661 120.043 560.308 119.869 559.911 119.75C559.518 119.631 559.084 119.571 558.607 119.571C557.714 119.571 556.93 119.793 556.254 120.236C555.584 120.679 555.061 121.324 554.686 122.17C554.311 123.011 554.124 124.04 554.124 125.256C554.124 126.472 554.308 127.506 554.678 128.358C555.047 129.21 555.57 129.861 556.246 130.31C556.922 130.753 557.72 130.974 558.641 130.974C559.476 130.974 560.189 130.827 560.78 130.531C561.376 130.23 561.831 129.807 562.143 129.261C562.462 128.716 562.621 128.071 562.621 127.327L563.371 127.438H558.871V124.659H566.175V126.858C566.175 128.392 565.851 129.71 565.203 130.812C564.555 131.909 563.663 132.756 562.527 133.352C561.391 133.943 560.089 134.239 558.624 134.239C556.987 134.239 555.55 133.878 554.311 133.156C553.072 132.429 552.107 131.398 551.413 130.062C550.726 128.722 550.382 127.131 550.382 125.29C550.382 123.875 550.587 122.614 550.996 121.506C551.411 120.392 551.99 119.449 552.734 118.676C553.479 117.903 554.345 117.315 555.334 116.912C556.322 116.509 557.393 116.307 558.547 116.307C559.536 116.307 560.456 116.452 561.308 116.741C562.161 117.026 562.916 117.429 563.575 117.952C564.24 118.474 564.783 119.097 565.203 119.818C565.624 120.534 565.893 121.324 566.013 122.188H562.263ZM569.947 134V116.545H581.708V119.588H573.637V123.747H581.103V126.79H573.637V130.957H581.742V134H569.947ZM585.642 134V116.545H592.528C593.847 116.545 594.972 116.781 595.903 117.253C596.841 117.719 597.554 118.381 598.043 119.239C598.537 120.091 598.784 121.094 598.784 122.247C598.784 123.406 598.534 124.403 598.034 125.239C597.534 126.068 596.81 126.705 595.861 127.148C594.918 127.591 593.776 127.812 592.435 127.812H587.824V124.847H591.838C592.543 124.847 593.128 124.75 593.594 124.557C594.06 124.364 594.406 124.074 594.634 123.688C594.866 123.301 594.983 122.821 594.983 122.247C594.983 121.668 594.866 121.179 594.634 120.781C594.406 120.384 594.057 120.082 593.585 119.878C593.119 119.668 592.531 119.562 591.821 119.562H589.332V134H585.642ZM595.068 126.057L599.406 134H595.332L591.088 126.057H595.068ZM602.392 116.545H606.943L611.75 128.273H611.955L616.761 116.545H621.312V134H617.733V122.639H617.588L613.071 133.915H610.634L606.116 122.597H605.972V134H602.392V116.545ZM628.362 134H624.407L630.433 116.545H635.188L641.205 134H637.251L632.879 120.534H632.742L628.362 134ZM628.114 127.139H637.455V130.02H628.114V127.139ZM658.906 116.545V134H655.718L648.124 123.014H647.996V134H644.306V116.545H647.545L655.079 127.523H655.232V116.545H658.906ZM661.932 116.545H666.065L670.045 124.062H670.216L674.196 116.545H678.33L671.963 127.83V134H668.298V127.83L661.932 116.545Z" fill="#FBFD5E"/>
</svg>
