<svg width="1194" height="248" viewBox="0 0 1194 248" fill="none" xmlns="http://www.w3.org/2000/svg">
<rect x="854" y="154" width="85" height="32" fill="#085A31"/>
<path d="M896.499 197L890.788 183.5L902.21 183.5L896.499 197Z" fill="#085A31"/>
<path d="M866.815 161.545V179H863.125V161.545H866.815ZM885.451 161.545V179H882.263L874.67 168.014H874.542V179H870.852V161.545H874.09L881.624 172.523H881.778V161.545H885.451ZM895.687 179H889.5V161.545H895.739C897.494 161.545 899.006 161.895 900.273 162.594C901.54 163.287 902.514 164.284 903.196 165.585C903.883 166.886 904.227 168.443 904.227 170.256C904.227 172.074 903.883 173.636 903.196 174.943C902.514 176.25 901.534 177.253 900.256 177.952C898.983 178.651 897.46 179 895.687 179ZM893.19 175.838H895.534C896.625 175.838 897.543 175.645 898.287 175.259C899.037 174.866 899.599 174.261 899.974 173.443C900.355 172.619 900.545 171.557 900.545 170.256C900.545 168.966 900.355 167.912 899.974 167.094C899.599 166.276 899.04 165.673 898.295 165.287C897.551 164.901 896.633 164.707 895.543 164.707H893.19V175.838ZM911.651 161.545V179H907.961V161.545H911.651ZM918.696 179H914.741L920.767 161.545H925.523L931.54 179H927.585L923.213 165.534H923.077L918.696 179ZM918.449 172.139H927.79V175.02H918.449V172.139Z" fill="#FBFD5E"/>
</svg>
