<svg width="1194" height="521" viewBox="0 0 1194 521" fill="none" xmlns="http://www.w3.org/2000/svg">
<g clip-path="url(#clip0_227_576)">
<g clip-path="url(#clip1_227_576)">
<path fill-rule="evenodd" clip-rule="evenodd" d="M368.205 425.902C361.7 432.139 346.522 422.784 337.849 419.665C342.186 419.665 350.859 425.902 353.027 422.784C353.027 421.225 353.027 418.106 357.363 419.665C359.532 422.784 381.214 429.02 366.036 425.902H368.205ZM157.887 76.6487C153.55 70.412 162.223 65.7345 149.214 65.7345C138.373 56.3795 121.027 61.057 108.017 64.1753C110.186 61.057 129.7 56.3795 114.522 59.4978C95.008 67.2937 73.3257 73.5303 51.6434 78.2078C34.2976 78.2078 84.1668 71.9712 90.6715 65.7345C84.1668 65.7345 81.9986 65.7345 79.8304 65.7345C84.1668 61.057 68.9892 68.8528 75.4939 64.1753C81.9986 61.057 71.1575 64.1753 71.1575 61.057C79.8304 51.702 97.1762 54.8203 105.849 48.5836C84.1668 51.702 86.3351 43.9061 105.849 43.9061H103.681C112.354 47.0245 112.354 40.7878 108.017 39.2286C125.363 36.1103 147.045 29.8736 162.223 32.992C166.559 36.1103 188.242 32.992 196.915 37.6695C212.092 32.992 225.102 36.1103 235.943 34.5511C225.102 37.6695 272.803 36.1103 253.289 40.7878C268.466 43.9061 272.803 37.6695 283.644 39.2286C287.98 45.4653 313.999 34.5511 305.326 42.347C320.504 37.6695 311.831 37.6695 316.167 31.4328C322.672 26.7553 333.513 31.4328 322.672 36.1103C327.008 36.1103 327.008 36.1103 322.672 39.2286C337.849 32.992 322.672 47.0245 333.513 39.2286C337.849 32.992 359.532 32.992 346.522 39.2286C344.354 45.4653 324.84 43.9061 316.167 50.1428C300.99 50.1428 272.803 67.2936 290.148 70.412C324.84 82.8853 303.158 70.412 311.831 89.122C316.167 89.122 322.672 82.8853 318.335 78.2078C322.672 78.2078 329.176 75.0895 333.513 71.9711C333.513 67.2936 337.849 51.702 348.691 54.8203C357.363 53.2611 357.363 57.9386 363.868 57.9386C359.532 61.057 359.532 64.1753 363.868 65.7345C368.205 65.7345 372.541 61.057 376.877 59.4978C376.877 62.6162 383.382 68.8528 376.877 71.9711C422.41 93.7995 342.186 86.0037 329.176 101.595C374.709 79.767 333.513 117.187 366.036 101.595C370.373 109.391 324.84 115.628 350.859 106.273C344.354 106.273 318.335 110.95 327.008 117.187C329.176 117.187 316.167 118.746 311.831 120.305C322.672 118.746 311.831 121.865 311.831 120.305C311.831 120.305 307.494 128.101 305.326 124.983C305.326 126.542 296.653 134.338 300.99 129.66C300.99 142.134 279.307 142.134 270.634 153.048C270.634 159.285 277.139 167.08 270.634 171.758C261.961 168.64 268.466 160.844 264.13 156.166C259.793 156.166 240.279 149.93 242.447 157.725C216.429 153.048 205.588 162.403 203.419 181.113C203.419 192.027 216.429 195.145 229.438 188.909C229.438 182.672 238.111 179.554 246.784 182.672C242.447 190.468 238.111 193.586 235.943 201.382C272.803 196.705 244.616 210.737 257.625 221.651C261.961 227.888 270.634 216.974 277.139 224.77C283.644 224.77 283.644 218.533 287.98 216.974C292.317 216.974 298.821 210.737 303.158 213.855C303.158 215.415 296.653 223.21 303.158 223.21C303.158 216.974 303.158 218.533 307.494 213.855C309.662 212.296 313.999 218.533 318.335 218.533C327.008 218.533 331.345 218.533 340.018 218.533C331.345 218.533 355.195 229.447 357.363 234.125C374.709 232.565 387.719 243.48 383.382 252.835C392.055 252.835 389.887 255.953 398.56 255.953C407.233 255.953 405.064 262.19 411.569 260.63C424.578 262.19 444.092 266.867 446.261 276.222C446.261 282.459 437.588 290.255 431.083 294.932C431.083 304.287 431.083 318.32 422.41 324.556C418.074 329.234 396.392 327.675 398.56 338.589C398.56 347.944 387.719 358.858 381.214 365.095C350.859 357.299 396.392 376.009 361.7 377.568C353.027 377.568 368.205 386.923 350.859 383.805C350.859 385.364 355.195 390.041 357.363 386.923C361.7 390.041 350.859 390.041 355.195 394.719C350.859 397.837 346.522 402.515 357.363 404.074C357.363 410.31 344.354 414.988 357.363 419.665C353.027 419.665 348.691 419.665 350.859 424.343C344.354 424.343 335.681 421.225 333.513 418.106C329.176 413.429 318.335 391.6 329.176 396.278C318.335 385.364 318.335 351.062 318.335 322.997C318.335 312.083 307.494 308.965 296.653 302.728C290.148 298.05 285.812 287.136 279.307 280.9C272.803 274.663 264.13 269.985 274.971 262.19C266.298 262.19 272.803 257.512 274.971 251.275C281.475 248.157 285.812 243.48 285.812 238.802C285.812 234.125 285.812 221.651 274.971 227.888C277.139 235.684 268.466 227.888 264.13 227.888C261.961 227.888 257.625 220.092 255.457 223.21C253.289 223.21 253.289 220.092 255.457 218.533C255.457 216.974 246.784 212.296 248.952 212.296C246.784 212.296 238.111 210.737 233.774 209.178C227.27 206.06 222.933 199.823 214.26 202.941C203.419 199.823 190.41 196.705 181.737 188.909C186.073 182.672 179.569 174.876 170.896 170.199C170.896 167.08 166.559 163.962 164.391 160.844C164.391 157.725 164.391 151.489 160.055 153.048C147.045 153.048 173.064 177.995 166.559 181.113C162.223 177.995 160.055 173.317 157.887 170.199C151.382 167.08 149.214 167.08 155.718 162.403C149.214 157.725 151.382 151.489 149.214 146.811C144.877 145.252 140.541 143.693 140.541 139.015C134.036 123.424 153.55 114.069 157.887 101.595C164.391 98.477 160.055 109.391 164.391 101.595C166.559 98.477 160.055 93.7995 155.718 93.7995C160.055 89.122 155.718 86.0037 157.887 81.3262V76.6487ZM309.662 193.586C300.99 193.586 294.485 193.586 309.662 192.027C309.662 190.468 303.158 187.35 309.662 188.909C313.999 188.909 331.345 193.586 322.672 193.586C318.335 193.586 311.831 196.705 311.831 193.586H309.662ZM567.681 79.767C569.85 84.4445 559.009 87.5628 554.672 86.0037C554.672 81.3262 569.85 68.8528 567.681 79.767ZM1077.21 280.9C1068.54 287.136 1070.71 280.9 1077.21 277.781C1088.06 274.663 1085.89 277.781 1077.21 280.9ZM1140.09 280.9C1137.93 274.663 1122.75 280.9 1129.25 276.222C1140.09 266.867 1107.57 265.308 1109.74 262.19C1101.07 259.071 1114.07 262.19 1114.07 259.071C1109.74 259.071 1107.57 257.512 1103.23 255.953C1103.23 251.275 1120.58 251.275 1116.24 260.63C1120.58 265.308 1122.75 257.512 1129.25 257.512C1140.09 259.071 1153.1 262.19 1161.78 266.867C1161.78 269.985 1170.45 269.985 1168.28 273.104C1159.61 273.104 1176.95 284.018 1179.12 285.577C1170.45 291.814 1155.27 268.426 1150.93 280.9C1148.77 282.459 1144.43 280.9 1142.26 280.9H1140.09ZM1051.2 238.802C1046.86 241.92 1051.2 246.598 1055.53 249.716C1046.86 249.716 1046.86 260.63 1044.69 265.308C1038.19 265.308 1029.51 262.19 1020.84 262.19C1014.34 248.157 1012.17 249.716 1031.68 243.48C1036.02 238.802 1042.52 234.125 1046.86 231.006C1051.2 235.684 1057.7 235.684 1051.2 240.361V238.802ZM522.149 207.619C515.644 201.382 530.822 190.468 522.149 184.231C526.485 171.758 537.326 163.962 552.504 156.166C548.167 148.37 561.177 145.252 565.513 139.015C565.513 134.338 574.186 139.015 578.523 139.015C591.532 132.779 608.878 134.338 624.055 132.779C628.392 132.779 626.224 132.779 630.56 132.779C630.56 134.338 630.56 139.015 628.392 142.134C637.065 145.252 647.906 148.37 658.747 151.489C676.093 156.166 647.906 137.456 693.439 149.93C699.943 153.048 704.28 148.37 708.616 149.93C719.457 156.166 721.626 142.134 723.794 135.897C721.626 129.66 710.784 135.897 702.112 132.779C695.607 137.456 678.261 124.983 689.102 120.305C695.607 120.305 702.112 117.187 710.784 115.628C717.289 115.628 743.308 124.983 738.971 114.069C732.467 109.391 715.121 107.832 723.794 103.154C717.289 103.154 732.467 100.036 723.794 100.036C712.953 100.036 710.784 103.154 719.457 106.273C712.953 109.391 699.943 106.273 708.616 103.154C697.775 96.9178 689.102 107.832 691.27 115.628C697.775 120.305 691.27 115.628 686.934 121.865C678.261 114.069 680.429 126.542 673.925 121.865C673.925 124.983 673.925 126.542 678.261 128.101C682.597 131.22 678.261 131.22 676.093 131.22C680.429 139.015 669.588 131.22 667.42 126.542C663.083 123.424 660.915 120.305 660.915 117.187C656.579 114.069 645.738 112.509 645.738 109.391C645.738 109.391 641.401 104.714 641.401 109.391C639.233 107.832 641.401 106.273 639.233 106.273C630.56 112.509 652.242 118.746 656.579 121.865C663.083 124.983 658.747 124.983 654.411 121.865C654.411 123.424 654.411 124.983 654.411 124.983C654.411 124.983 650.074 131.22 650.074 128.101C654.411 121.865 641.401 118.746 637.065 117.187C630.56 115.628 628.392 104.714 621.887 110.95C617.551 114.069 611.046 110.95 604.541 112.509C604.541 118.746 598.037 117.187 593.7 121.865C593.7 131.22 582.859 132.779 572.018 134.338C569.85 129.66 565.513 131.22 561.177 131.22C561.177 128.101 561.177 126.542 561.177 124.983C561.177 121.865 565.513 118.746 563.345 115.628C559.009 101.595 585.027 115.628 591.532 107.832C600.205 100.036 572.018 93.7995 585.027 92.2403C589.364 92.2403 591.532 92.2403 589.364 89.122C591.532 92.2403 602.373 89.122 602.373 86.0037C611.046 86.0037 613.214 76.6487 624.055 76.6487C630.56 76.6487 617.551 65.7345 632.728 64.1753C632.728 67.2936 632.728 67.2937 632.728 68.8528C626.224 68.8528 632.728 73.5303 632.728 75.0895C637.065 71.9712 641.401 75.0895 645.738 75.0895C654.411 71.9712 658.747 75.0895 667.42 71.9711C660.915 59.4978 676.093 70.412 676.093 64.1753C663.083 54.8203 684.766 62.6161 689.102 57.9386C682.597 54.8203 676.093 57.9386 669.588 57.9386C658.747 53.2611 663.083 45.4653 673.925 42.347C667.42 34.5511 654.411 48.5836 652.242 53.2611C656.579 56.3795 660.915 59.4978 652.242 61.057C652.242 64.1753 652.242 70.412 645.738 68.8528C641.401 76.6487 637.065 64.1753 632.728 61.057C628.392 56.3795 615.382 68.8528 615.382 57.9386C608.878 48.5836 621.887 48.5836 630.56 43.9061C643.569 31.4328 665.252 22.0778 686.934 28.3145C678.261 31.4328 717.289 29.8736 719.457 37.6695C717.289 42.347 686.934 34.5511 702.112 40.7878C702.112 45.4653 715.121 48.5836 708.616 43.9061C708.616 40.7878 717.289 45.4653 719.457 43.9061C712.953 40.7878 723.794 37.6695 728.13 40.7878C728.13 37.6695 725.962 36.1103 723.794 34.5511C732.467 34.5511 734.635 34.5511 732.467 39.2286C738.971 42.347 745.476 34.5511 754.149 34.5511C754.149 36.1103 760.654 36.1103 769.327 34.5511C777.999 37.6695 773.663 34.5511 771.495 31.4328C777.999 31.4328 795.345 37.6695 799.682 34.5511C786.672 34.5511 782.336 20.5186 799.682 23.637C801.85 28.3145 810.523 32.992 814.859 37.6695C808.355 43.9061 819.196 42.347 819.196 37.6695C814.859 34.5511 801.85 28.3145 808.355 26.7553C804.018 22.0778 812.691 29.8736 814.859 29.8736C806.186 25.1961 823.532 26.7553 827.869 28.3145C812.691 22.0778 827.869 23.637 836.542 22.0778C819.196 18.9595 873.401 12.7228 873.401 14.282H871.233C877.738 15.8411 914.598 14.282 895.084 22.0778C910.261 22.0778 923.271 23.637 938.448 25.1961H934.112C944.953 22.0778 953.626 25.1961 962.299 29.8736C968.803 29.8736 975.308 28.3145 988.317 29.8736C968.803 20.5186 1051.2 34.5511 1059.87 34.5511C1090.22 37.6695 1077.21 31.4328 1107.57 34.5511C1107.57 34.5511 1148.77 50.1428 1131.42 48.5836C1142.26 53.2611 1157.44 53.2611 1137.93 56.3795C1135.76 56.3795 1131.42 61.057 1133.59 62.6161C1129.25 61.057 1120.58 62.6161 1116.24 62.6161C1103.23 62.6161 1122.75 70.412 1127.08 73.5303C1120.58 73.5303 1127.08 76.6487 1129.25 78.2078C1124.92 78.2078 1129.25 81.3262 1129.25 82.8853C1122.75 87.5628 1131.42 92.2403 1116.24 82.8853C1101.07 75.0895 1096.73 70.412 1105.4 59.4978C1098.9 53.2611 1101.07 56.3795 1096.73 61.057C1088.06 54.8203 1072.88 61.057 1088.06 65.7345C1075.05 65.7345 1062.04 64.1753 1046.86 65.7345C1038.19 76.6487 1042.52 82.8853 1059.87 79.767C1077.21 84.4445 1090.22 107.832 1072.88 115.628C1062.04 110.95 1068.54 123.424 1062.04 124.983C1068.54 128.101 1090.22 145.252 1068.54 140.575C1066.37 135.897 1068.54 134.338 1062.04 131.22C1062.04 131.22 1053.36 131.22 1055.53 128.101C1051.2 118.746 1040.35 131.22 1038.19 124.983C1042.52 115.628 1016.5 131.22 1033.85 131.22C1036.02 135.897 1040.35 129.66 1044.69 131.22C1055.53 132.779 1029.51 135.897 1049.03 143.693C1068.54 151.489 1059.87 177.995 1036.02 177.995C1033.85 182.672 1023.01 179.554 1025.18 185.79C1020.84 185.79 1025.18 181.113 1016.5 181.113C990.486 190.468 1038.19 202.941 1023.01 215.415C1007.83 224.77 1016.5 221.651 1003.5 215.415C999.159 210.737 992.654 207.619 988.317 206.06C990.486 209.178 981.813 218.533 988.317 220.092C988.317 226.329 994.822 227.888 1001.33 232.565C1003.5 237.243 1001.33 241.92 1007.83 245.039C994.822 251.275 990.486 220.092 983.981 224.77C983.981 216.974 983.981 188.909 968.803 199.823C962.299 199.823 966.635 195.145 962.299 192.027C960.13 188.909 955.794 185.79 951.458 182.672C951.458 177.995 944.953 174.876 944.953 181.113C944.953 181.113 938.448 181.113 940.616 181.113C929.775 181.113 923.271 195.145 912.429 199.823C908.093 202.941 912.429 212.296 912.429 216.974C901.588 227.888 901.588 224.77 895.084 212.296C890.747 204.5 884.243 196.705 882.074 188.909C882.074 181.113 882.074 182.672 871.233 184.231C860.392 168.64 843.046 171.758 819.196 168.64C819.196 159.285 806.186 168.64 799.682 162.403C791.009 157.725 775.831 146.811 786.672 162.403C791.009 165.521 799.682 167.08 797.513 171.758C801.85 176.435 810.523 171.758 814.859 167.08C814.859 174.876 834.373 173.317 830.037 182.672C827.869 185.79 823.532 187.35 825.7 190.468C821.364 190.468 821.364 192.027 821.364 193.586C821.364 193.586 817.028 193.586 817.028 195.145C804.018 198.264 791.009 207.619 775.831 209.178C769.327 210.737 769.327 201.382 769.327 198.264C769.327 193.586 762.822 188.909 758.485 184.231C751.981 182.672 754.149 174.876 749.812 171.758C745.476 167.08 736.803 160.844 736.803 154.607C732.467 163.962 732.467 157.725 725.962 154.607C736.803 168.64 745.476 182.672 756.317 196.705C758.485 204.5 775.831 207.619 773.663 213.855C780.168 221.651 795.345 213.855 804.018 212.296C804.018 235.684 771.495 246.598 760.654 265.308C749.812 282.459 782.336 298.05 743.308 312.083C732.467 318.32 749.813 329.234 730.298 332.352C728.13 343.266 710.784 361.976 691.27 358.858C684.766 358.858 676.093 365.095 671.756 358.858C671.756 351.062 663.083 341.707 660.915 333.911C660.915 322.997 652.242 313.642 647.906 304.287C656.579 287.136 658.747 271.545 639.233 257.512C634.897 251.275 647.906 231.006 628.392 237.243C621.887 237.243 619.719 227.888 608.878 231.006C600.205 234.125 593.7 235.684 582.859 234.125C574.186 234.125 567.681 238.802 561.177 234.125C552.504 231.006 550.336 224.77 543.831 218.533C543.831 213.855 532.99 213.855 535.158 207.619H522.149ZM1111.91 382.245C1129.25 382.245 1116.24 390.041 1105.4 391.6C1105.4 388.482 1105.4 382.245 1111.91 382.245ZM1146.6 294.932C1153.1 298.05 1153.1 304.287 1153.1 312.083C1161.78 315.201 1174.78 332.352 1168.28 338.589C1172.62 347.944 1116.24 385.364 1116.24 372.89C1111.91 376.009 1096.73 376.009 1101.07 368.213C1101.07 363.535 1096.73 366.654 1101.07 360.417C1101.07 360.417 1096.73 363.535 1094.56 363.535C1098.9 361.976 1101.07 358.858 1103.23 355.74C1083.72 369.772 1098.9 344.825 1068.54 352.621C1062.04 352.621 1027.35 361.976 1020.84 361.976C1012.17 358.858 1020.84 357.299 1020.84 352.621C1020.84 346.385 1020.84 340.148 1020.84 332.352C1020.84 327.675 1020.84 322.997 1025.18 318.32V321.438C1031.68 313.642 1049.03 316.76 1055.53 308.965C1062.04 304.287 1057.7 301.169 1066.37 304.287C1066.37 301.169 1079.38 288.695 1085.89 296.491C1092.39 296.491 1092.39 291.814 1096.73 288.695C1098.9 288.695 1109.74 288.695 1101.07 284.018C1105.4 282.459 1107.57 287.136 1111.91 285.577C1114.07 287.136 1118.41 284.018 1120.58 285.577C1120.58 288.695 1109.74 293.373 1116.24 296.491C1122.75 296.491 1129.25 307.405 1133.59 301.169C1137.93 294.932 1142.26 268.426 1146.6 291.814V294.932ZM363.868 103.154C363.868 103.154 368.205 103.154 370.373 103.154C366.036 107.832 359.532 100.036 363.868 103.154ZM374.709 95.3587C372.541 95.3587 368.205 95.3587 366.036 92.2403C366.036 92.2403 374.709 92.2403 374.709 95.3587ZM162.223 96.9178C157.887 96.9178 151.382 92.2403 151.382 90.6812C155.718 89.122 162.223 93.7995 162.223 96.9178ZM396.392 89.122L392.055 92.2403C396.392 90.6812 411.569 98.477 398.56 101.595C394.223 100.036 398.56 96.9178 392.055 101.595C389.887 101.595 394.223 98.477 385.55 100.036C363.868 103.154 405.064 81.3262 394.223 90.6812L396.392 89.122ZM344.354 54.8203C344.354 54.8203 340.018 57.9386 340.018 54.8203C340.018 54.8203 344.354 53.2611 344.354 54.8203ZM335.681 53.2611C335.681 53.2611 329.176 54.8203 329.176 53.2611C329.176 51.702 337.849 50.1428 335.681 53.2611ZM333.513 45.4653C333.513 47.0245 342.186 48.5836 344.354 51.702C335.681 51.702 329.176 51.702 322.672 51.702C327.008 51.702 329.176 45.4653 335.681 45.4653H333.513ZM366.036 40.7878C355.195 40.7878 372.541 34.5511 370.373 40.7878C370.373 40.7878 368.205 40.7878 366.036 40.7878ZM313.999 36.1103C311.831 36.1103 305.326 36.1103 303.158 36.1103C307.494 36.1103 311.831 32.992 313.999 36.1103ZM277.139 25.1961H272.803C277.139 25.1961 292.317 25.1961 285.812 28.3145C290.148 28.3145 290.148 22.0778 296.653 25.1961C298.821 25.1961 296.653 29.8736 296.653 29.8736C307.494 34.5511 296.653 31.4328 296.653 34.5511C283.644 37.6695 233.774 34.5511 272.803 31.4328C266.298 31.4328 248.952 31.4328 266.298 28.3145C248.952 28.3145 272.803 22.0778 279.307 23.637L277.139 25.1961ZM305.326 25.1961C303.158 25.1961 298.821 28.3145 298.821 25.1961C298.821 25.1961 303.158 25.1961 305.326 25.1961ZM379.046 25.1961C379.046 25.1961 370.373 25.1961 368.205 25.1961C363.868 22.0778 376.877 22.0778 379.046 25.1961ZM353.027 25.1961C353.027 28.3145 374.709 18.9595 366.036 28.3145C376.877 25.1961 383.382 28.3145 389.887 31.4328C409.401 34.5511 381.214 37.6695 407.233 42.347C400.728 50.1428 394.223 45.4653 387.719 43.9061C387.719 48.5836 398.56 57.9386 379.046 51.702C392.055 61.057 366.036 53.2611 366.036 51.702C363.868 48.5836 355.195 53.2611 350.859 51.702C357.363 50.1428 387.719 43.9061 366.036 39.2286C376.877 32.992 324.84 39.2286 340.018 32.992C329.176 32.992 350.859 25.1961 355.195 26.7553H350.859L353.027 25.1961ZM316.167 23.637C320.504 23.637 329.176 23.637 318.335 25.1961C324.84 26.7553 313.999 29.8736 311.831 29.8736C300.99 26.7553 309.662 25.1961 316.167 23.637ZM333.513 26.7553C316.167 32.992 333.513 18.9595 344.354 23.637C342.186 23.637 335.681 26.7553 333.513 26.7553ZM253.289 29.8736C229.438 34.5511 253.289 18.9595 266.298 22.0778C287.98 22.0778 257.625 25.1961 253.289 29.8736ZM340.018 20.5186C340.018 20.5186 335.681 20.5186 333.513 20.5186C327.008 20.5186 342.186 15.8411 340.018 20.5186ZM333.513 15.8411C329.176 23.637 320.504 18.9595 318.335 18.9595C322.672 15.8411 329.176 17.4003 333.513 15.8411ZM344.354 15.8411C353.027 20.5186 361.7 17.4003 376.877 20.5186C372.541 23.637 337.849 25.1961 344.354 20.5186C337.849 18.9595 333.513 17.4003 344.354 17.4003V15.8411ZM348.691 14.282C348.691 14.282 344.354 14.282 342.186 14.282C342.186 14.282 350.859 14.282 348.691 14.282ZM344.354 12.7228C342.186 12.7228 335.681 12.7228 340.018 11.1636C340.018 11.1636 348.691 11.1636 344.354 12.7228ZM372.541 9.60447C379.046 12.7228 342.186 14.282 357.363 9.60447C340.018 9.60447 374.709 1.80863 372.541 9.60447ZM428.915 3.3678C448.429 3.3678 441.924 4.92697 426.747 6.48614H431.083C420.242 8.0453 409.401 11.1636 396.392 11.1636H398.56C383.382 17.4003 379.046 18.9595 353.027 17.4003C355.195 14.282 374.709 14.282 363.868 12.7228C374.709 11.1636 374.709 8.0453 385.55 8.0453C337.849 6.48614 409.401 1.80863 424.578 3.3678H428.915ZM1014.34 192.027C1014.34 192.027 1010 193.586 1007.83 192.027C1003.5 185.79 1020.84 184.231 1014.34 192.027ZM281.475 177.995C290.148 181.113 313.999 188.909 287.98 187.35C294.485 185.79 283.644 182.672 279.307 181.113C272.803 177.995 270.634 177.995 261.961 181.113C259.793 177.995 277.139 174.876 281.475 177.995ZM628.392 75.0895C628.392 78.2078 624.055 76.6487 621.887 75.0895C621.887 75.0895 628.392 73.5303 628.392 75.0895ZM578.523 65.7345C569.85 71.9712 589.364 65.7345 578.523 73.5303C585.027 73.5303 587.195 79.767 589.364 82.8853C598.037 82.8853 589.364 86.0037 593.7 87.5628C587.196 90.6812 556.84 93.7995 576.354 87.5628C567.681 87.5628 574.186 86.0037 572.018 81.3262H578.523C569.85 78.2078 561.177 67.2937 578.523 67.2937V65.7345ZM673.925 137.456C673.925 139.015 680.429 137.456 682.597 139.015C689.102 139.015 671.756 140.575 673.925 137.456ZM524.317 1.80863H537.326C530.822 4.92697 517.812 3.3678 511.308 4.92697C515.644 4.92697 539.495 4.92697 530.822 6.48614C548.167 3.3678 567.681 6.48614 537.326 8.0453H543.831C532.99 11.1636 543.831 15.8411 530.822 15.8411C537.326 15.8411 535.158 22.0778 530.822 22.0778C537.326 23.637 526.485 25.1961 524.317 25.1961C530.822 29.8736 524.317 25.1961 519.98 28.3145C528.653 28.3145 528.653 36.1103 519.98 31.4328C515.644 28.3145 519.98 31.4328 513.476 32.992C515.644 32.992 522.149 32.992 524.317 32.992C504.803 37.6695 485.289 40.7878 465.775 47.0245C461.438 51.702 454.934 54.8203 450.597 61.057C446.261 61.057 441.924 57.9386 435.42 59.4978C413.737 39.2286 448.429 36.1103 437.588 34.5511C424.578 37.6695 433.251 28.3145 441.924 31.4328C439.756 29.8736 435.42 29.8736 431.083 28.3145C437.588 28.3145 435.42 22.0778 431.083 18.9595C431.083 14.282 385.55 15.8411 415.906 12.7228C379.046 11.1636 437.588 8.0453 420.242 6.48614C439.756 1.80863 459.27 0.249467 480.952 3.3678C470.111 -1.3097 515.644 0.249467 524.317 0.249467V1.80863ZM1059.87 284.018L1053.36 282.459C1055.53 282.459 1062.04 282.459 1059.87 284.018ZM1049.03 277.781C1057.7 279.34 1049.03 280.9 1044.69 280.9C1044.69 279.34 1049.03 280.9 1049.03 277.781ZM1068.54 277.781C1068.54 282.459 1049.03 280.9 1059.87 277.781C1062.04 279.34 1066.37 277.781 1068.54 277.781ZM1014.34 273.104C1023.01 269.985 1053.36 280.9 1033.85 277.781C1025.18 277.781 1012.17 277.781 1005.66 273.104C994.822 273.104 1014.34 266.867 1014.34 273.104ZM1116.24 271.545H1114.07C1114.07 271.545 1116.24 266.867 1116.24 271.545ZM1088.06 262.19C1088.06 263.749 1083.72 262.19 1083.72 262.19H1088.06ZM1101.07 262.19C1105.4 266.867 1094.56 262.19 1090.22 262.19C1090.22 259.071 1096.73 260.63 1101.07 262.19ZM1079.38 246.598C1075.05 252.835 1066.37 248.157 1059.87 249.716C1059.87 251.275 1062.04 257.512 1064.21 252.835C1075.05 251.275 1070.71 252.835 1064.21 255.953C1066.37 259.071 1070.71 263.749 1070.71 266.867C1066.37 268.426 1066.37 266.867 1070.71 263.749C1066.37 266.867 1064.21 260.63 1064.21 257.512C1057.7 257.512 1064.21 269.985 1057.7 266.867C1057.7 260.63 1053.36 251.275 1064.21 245.039C1070.71 248.157 1077.21 245.039 1081.55 245.039L1079.38 246.598ZM1003.5 269.985C986.149 266.867 981.813 249.716 970.972 240.361C949.289 223.21 990.486 243.48 994.822 249.716C999.159 257.512 1007.83 259.071 1005.66 269.985H1003.5ZM543.831 43.9061C548.167 51.702 528.653 53.2611 517.812 50.1428C524.317 48.5836 517.812 50.1428 515.644 47.0245C530.822 47.0245 509.139 47.0245 515.644 43.9061C524.317 43.9061 532.99 43.9061 541.663 43.9061H543.831ZM643.569 129.66C643.569 132.779 643.569 135.897 637.065 132.779C626.224 129.66 637.065 129.66 643.569 129.66ZM619.719 120.305C624.055 123.424 621.887 126.542 619.719 128.101C617.551 124.983 617.551 121.865 619.719 120.305ZM1088.06 142.134C1088.06 142.134 1088.06 146.811 1088.06 143.693C1085.89 143.693 1088.06 146.811 1083.72 145.252C1081.55 142.134 1085.89 140.575 1090.22 142.134H1088.06ZM1105.4 132.779C1111.91 142.134 1096.73 137.456 1094.56 145.252C1088.06 140.575 1083.72 143.693 1075.05 145.252C1094.56 159.285 1059.87 153.048 1077.21 140.575C1088.06 140.575 1103.23 132.779 1092.39 124.983C1096.73 117.187 1103.23 132.779 1105.4 135.897V132.779ZM1096.73 110.95C1107.57 110.95 1103.23 112.509 1101.07 117.187C1090.22 112.509 1098.9 118.746 1090.22 117.187C1090.22 115.628 1083.72 110.95 1090.22 110.95C1083.72 101.595 1088.06 106.273 1096.73 107.832V110.95ZM905.925 231.006C897.252 234.125 899.42 223.21 901.588 220.092C905.925 221.651 912.43 229.447 905.925 231.006ZM782.336 294.932C782.336 304.287 775.831 310.524 771.495 322.997C769.327 335.47 751.981 335.47 754.149 322.997C760.654 318.32 756.317 312.083 760.654 305.846C760.654 301.169 773.663 302.728 775.831 296.491C775.831 294.932 782.336 285.577 784.504 294.932H782.336ZM1083.72 224.77C1083.72 226.329 1083.72 229.447 1083.72 231.006C1077.21 223.21 1083.72 237.243 1075.05 231.006C1075.05 220.092 1064.21 231.006 1066.37 224.77C1070.71 221.651 1070.71 224.77 1075.05 224.77C1077.21 221.651 1081.55 218.533 1081.55 224.77H1083.72ZM1072.88 218.533C1072.88 218.533 1072.88 220.092 1070.71 221.651C1064.21 224.77 1070.71 210.737 1070.71 218.533V215.415C1072.88 215.415 1072.88 218.533 1072.88 218.533ZM1051.2 221.651L1046.86 224.77C1046.86 221.651 1053.36 218.533 1055.53 215.415C1057.7 218.533 1055.53 220.092 1053.36 221.651H1051.2ZM1064.21 213.855C1068.54 213.855 1070.71 216.974 1064.21 218.533C1064.21 218.533 1064.21 215.415 1064.21 213.855ZM1077.21 212.296C1077.21 213.855 1081.55 216.974 1077.21 215.415C1077.21 215.415 1079.38 218.533 1077.21 218.533C1077.21 215.415 1072.88 207.619 1077.21 212.296ZM1062.04 209.178C1062.04 213.855 1059.87 209.178 1057.7 209.178H1062.04ZM1057.7 192.027C1068.54 192.027 1057.7 199.823 1062.04 206.06C1064.21 206.06 1072.88 206.06 1070.71 209.178C1075.05 213.855 1062.04 206.06 1057.7 207.619C1057.7 202.941 1057.7 207.619 1053.36 202.941C1053.36 202.941 1051.2 193.586 1055.53 193.586L1057.7 192.027ZM1183.46 268.426C1179.12 269.985 1170.45 273.104 1170.45 268.426C1174.78 269.985 1176.95 265.308 1176.95 268.426C1181.29 268.426 1187.79 259.071 1183.46 268.426ZM1189.96 265.308C1189.96 265.308 1185.63 259.071 1181.29 259.071C1183.46 257.512 1189.96 262.19 1189.96 265.308ZM1053.36 177.995C1053.36 184.231 1046.86 174.876 1049.03 171.758C1053.36 165.521 1053.36 174.876 1053.36 177.995ZM1211.64 382.245C1211.64 385.364 1213.81 382.245 1215.98 382.245C1215.98 386.923 1207.31 388.482 1202.97 390.041C1194.3 393.16 1183.46 402.515 1172.62 399.396C1181.29 393.16 1207.31 383.805 1213.81 382.245H1211.64ZM1231.16 366.654V369.772C1235.5 365.095 1228.99 374.45 1242 369.772C1235.5 372.89 1222.49 383.805 1215.98 380.686C1218.15 380.686 1224.65 376.009 1218.15 374.45C1220.32 372.89 1226.82 371.331 1226.82 368.213C1226.82 365.095 1226.82 361.976 1226.82 358.858C1228.99 358.858 1231.16 361.976 1228.99 363.535L1231.16 366.654ZM1075.05 89.122L1083.72 95.3587C1068.54 92.2403 1083.72 101.595 1088.06 104.714C1079.38 104.714 1068.54 90.6812 1057.7 82.8853C1055.53 75.0895 1066.37 87.5628 1072.88 90.6812L1075.05 89.122ZM977.476 25.1961C975.308 25.1961 968.803 25.1961 966.635 25.1961C966.635 22.0778 975.308 25.1961 977.476 25.1961ZM621.887 117.187C621.887 120.305 619.719 120.305 617.551 117.187C617.551 114.069 621.887 114.069 621.887 117.187ZM92.8397 70.412C84.1668 73.5303 88.5033 68.8528 92.8397 68.8528C99.3444 68.8528 97.1762 68.8528 92.8397 70.412ZM348.691 216.974C348.691 218.533 348.691 220.092 344.354 220.092C346.522 220.092 344.354 216.974 348.691 216.974Z" fill="#E7FF99"/>
</g>
<rect x="854" y="154" width="85" height="32" fill="#085A31"/>
<path d="M896.5 197L890.789 183.5L902.211 183.5L896.5 197Z" fill="#085A31"/>
<path d="M866.817 161.545V179H863.126V161.545H866.817ZM885.452 161.545V179H882.265L874.671 168.014H874.543V179H870.853V161.545H874.091L881.625 172.523H881.779V161.545H885.452ZM895.689 179H889.501V161.545H895.74C897.495 161.545 899.007 161.895 900.274 162.594C901.541 163.287 902.515 164.284 903.197 165.585C903.885 166.886 904.228 168.443 904.228 170.256C904.228 172.074 903.885 173.636 903.197 174.943C902.515 176.25 901.535 177.253 900.257 177.952C898.984 178.651 897.461 179 895.689 179ZM893.192 175.838H895.535C896.626 175.838 897.544 175.645 898.288 175.259C899.038 174.866 899.601 174.261 899.976 173.443C900.356 172.619 900.547 171.557 900.547 170.256C900.547 168.966 900.356 167.912 899.976 167.094C899.601 166.276 899.041 165.673 898.297 165.287C897.552 164.901 896.635 164.707 895.544 164.707H893.192V175.838ZM911.652 161.545V179H907.962V161.545H911.652ZM918.697 179H914.743L920.768 161.545H925.524L931.541 179H927.586L923.214 165.534H923.078L918.697 179ZM918.45 172.139H927.791V175.02H918.45V172.139Z" fill="#FBFD5E"/>
<rect x="580" y="56" width="130" height="32" fill="#085A31"/>
<path d="M645 99L636.265 85.5L653.735 85.5L645 99Z" fill="#085A31"/>
<path d="M601.445 63.5455H605.135V74.8807C605.135 76.1534 604.831 77.267 604.223 78.2216C603.621 79.1761 602.777 79.9205 601.692 80.4545C600.607 80.983 599.342 81.2472 597.899 81.2472C596.45 81.2472 595.183 80.983 594.098 80.4545C593.013 79.9205 592.169 79.1761 591.567 78.2216C590.965 77.267 590.663 76.1534 590.663 74.8807V63.5455H594.354V74.5653C594.354 75.2301 594.499 75.821 594.788 76.3381C595.084 76.8551 595.499 77.2614 596.033 77.5568C596.567 77.8523 597.189 78 597.899 78C598.615 78 599.237 77.8523 599.766 77.5568C600.3 77.2614 600.712 76.8551 601.001 76.3381C601.297 75.821 601.445 75.2301 601.445 74.5653V63.5455ZM609.171 81V63.5455H612.862V71.2415H613.092L619.373 63.5455H623.796L617.319 71.3608L623.873 81H619.458L614.677 73.8239L612.862 76.0398V81H609.171ZM626.718 81V63.5455H633.604C634.923 63.5455 636.048 63.7812 636.979 64.2528C637.917 64.7187 638.63 65.3807 639.119 66.2386C639.613 67.0909 639.86 68.0937 639.86 69.2472C639.86 70.4062 639.61 71.4034 639.11 72.2386C638.61 73.0682 637.886 73.7045 636.937 74.1477C635.994 74.5909 634.852 74.8125 633.511 74.8125H628.9V71.8466H632.914C633.619 71.8466 634.204 71.75 634.67 71.5568C635.136 71.3636 635.482 71.0739 635.71 70.6875C635.943 70.3011 636.059 69.821 636.059 69.2472C636.059 68.6676 635.943 68.179 635.71 67.7812C635.482 67.3835 635.133 67.0824 634.661 66.8778C634.195 66.6676 633.607 66.5625 632.897 66.5625H630.408V81H626.718ZM636.144 73.0568L640.482 81H636.408L632.164 73.0568H636.144ZM646.477 81H642.522L648.548 63.5455H653.303L659.32 81H655.366L650.994 67.5341H650.857L646.477 81ZM646.229 74.1392H655.57V77.0199H646.229V74.1392ZM666.112 63.5455V81H662.421V63.5455H666.112ZM684.747 63.5455V81H681.56L673.966 70.0142H673.838V81H670.148V63.5455H673.386L680.921 74.5227H681.074V63.5455H684.747ZM688.796 81V63.5455H700.558V66.5881H692.487V70.7472H699.952V73.7898H692.487V77.9574H700.592V81H688.796Z" fill="#FBFD5E"/>
<rect x="545" y="109" width="139" height="32" fill="#085A31"/>
<path d="M613.914 96L605.179 109.5L622.649 109.5L613.914 96Z" fill="#085A31"/>
<path d="M562.263 122.188C562.143 121.773 561.976 121.406 561.76 121.088C561.544 120.764 561.28 120.491 560.967 120.27C560.661 120.043 560.308 119.869 559.911 119.75C559.518 119.631 559.084 119.571 558.607 119.571C557.714 119.571 556.93 119.793 556.254 120.236C555.584 120.679 555.061 121.324 554.686 122.17C554.311 123.011 554.124 124.04 554.124 125.256C554.124 126.472 554.308 127.506 554.678 128.358C555.047 129.21 555.57 129.861 556.246 130.31C556.922 130.753 557.72 130.974 558.641 130.974C559.476 130.974 560.189 130.827 560.78 130.531C561.376 130.23 561.831 129.807 562.143 129.261C562.462 128.716 562.621 128.071 562.621 127.327L563.371 127.438H558.871V124.659H566.175V126.858C566.175 128.392 565.851 129.71 565.203 130.812C564.555 131.909 563.663 132.756 562.527 133.352C561.391 133.943 560.089 134.239 558.624 134.239C556.987 134.239 555.55 133.878 554.311 133.156C553.072 132.429 552.107 131.398 551.413 130.062C550.726 128.722 550.382 127.131 550.382 125.29C550.382 123.875 550.587 122.614 550.996 121.506C551.411 120.392 551.99 119.449 552.734 118.676C553.479 117.903 554.345 117.315 555.334 116.912C556.322 116.509 557.393 116.307 558.547 116.307C559.536 116.307 560.456 116.452 561.308 116.741C562.161 117.026 562.916 117.429 563.575 117.952C564.24 118.474 564.783 119.097 565.203 119.818C565.624 120.534 565.893 121.324 566.013 122.188H562.263ZM569.947 134V116.545H581.708V119.588H573.637V123.747H581.103V126.79H573.637V130.957H581.742V134H569.947ZM585.642 134V116.545H592.528C593.847 116.545 594.972 116.781 595.903 117.253C596.841 117.719 597.554 118.381 598.043 119.239C598.537 120.091 598.784 121.094 598.784 122.247C598.784 123.406 598.534 124.403 598.034 125.239C597.534 126.068 596.81 126.705 595.861 127.148C594.918 127.591 593.776 127.812 592.435 127.812H587.824V124.847H591.838C592.543 124.847 593.128 124.75 593.594 124.557C594.06 124.364 594.406 124.074 594.634 123.688C594.866 123.301 594.983 122.821 594.983 122.247C594.983 121.668 594.866 121.179 594.634 120.781C594.406 120.384 594.057 120.082 593.585 119.878C593.119 119.668 592.531 119.562 591.821 119.562H589.332V134H585.642ZM595.068 126.057L599.406 134H595.332L591.088 126.057H595.068ZM602.392 116.545H606.943L611.75 128.273H611.955L616.761 116.545H621.312V134H617.733V122.639H617.588L613.071 133.915H610.634L606.116 122.597H605.972V134H602.392V116.545ZM628.362 134H624.407L630.433 116.545H635.188L641.205 134H637.251L632.879 120.534H632.742L628.362 134ZM628.114 127.139H637.455V130.02H628.114V127.139ZM658.906 116.545V134H655.718L648.124 123.014H647.996V134H644.306V116.545H647.545L655.079 127.523H655.232V116.545H658.906ZM661.932 116.545H666.065L670.045 124.062H670.216L674.196 116.545H678.33L671.963 127.83V134H668.298V127.83L661.932 116.545Z" fill="#FBFD5E"/>
<rect x="134" y="120" width="116" height="32" fill="#085A31"/>
<path d="M192 163L184.206 149.5L199.794 149.5L192 163Z" fill="#085A31"/>
<path d="M142.837 127.545H147.388L152.195 139.273H152.4L157.207 127.545H161.758V145H158.178V133.639H158.033L153.516 144.915H151.079L146.562 133.597H146.417V145H142.837V127.545ZM165.798 145V127.545H177.56V130.588H169.489V134.747H176.955V137.79H169.489V141.957H177.594V145H165.798ZM184.954 127.545L188.474 133.494H188.61L192.147 127.545H196.315L190.988 136.273L196.434 145H192.19L188.61 139.043H188.474L184.894 145H180.667L186.13 136.273L180.769 127.545H184.954ZM203.34 127.545V145H199.65V127.545H203.34ZM222.777 133.656H219.044C218.976 133.173 218.837 132.744 218.626 132.369C218.416 131.989 218.146 131.665 217.817 131.398C217.487 131.131 217.107 130.926 216.675 130.784C216.249 130.642 215.786 130.571 215.286 130.571C214.382 130.571 213.595 130.795 212.925 131.244C212.254 131.687 211.734 132.335 211.365 133.188C210.996 134.034 210.811 135.062 210.811 136.273C210.811 137.517 210.996 138.562 211.365 139.409C211.74 140.256 212.263 140.895 212.933 141.327C213.604 141.759 214.379 141.974 215.26 141.974C215.754 141.974 216.212 141.909 216.632 141.778C217.058 141.648 217.436 141.457 217.766 141.207C218.095 140.952 218.368 140.642 218.584 140.278C218.805 139.915 218.959 139.5 219.044 139.034L222.777 139.051C222.68 139.852 222.439 140.625 222.053 141.369C221.672 142.108 221.158 142.77 220.51 143.355C219.868 143.935 219.101 144.395 218.209 144.736C217.322 145.071 216.32 145.239 215.2 145.239C213.643 145.239 212.251 144.886 211.024 144.182C209.803 143.477 208.837 142.457 208.126 141.122C207.422 139.787 207.07 138.17 207.07 136.273C207.07 134.369 207.428 132.75 208.143 131.415C208.859 130.08 209.831 129.062 211.058 128.364C212.286 127.659 213.666 127.307 215.2 127.307C216.212 127.307 217.149 127.449 218.013 127.733C218.882 128.017 219.652 128.432 220.322 128.977C220.993 129.517 221.538 130.179 221.959 130.963C222.385 131.747 222.658 132.645 222.777 133.656ZM242.463 136.273C242.463 138.176 242.102 139.795 241.381 141.131C240.665 142.466 239.688 143.486 238.449 144.19C237.216 144.889 235.83 145.239 234.29 145.239C232.739 145.239 231.347 144.886 230.114 144.182C228.881 143.477 227.906 142.457 227.19 141.122C226.474 139.787 226.116 138.17 226.116 136.273C226.116 134.369 226.474 132.75 227.19 131.415C227.906 130.08 228.881 129.062 230.114 128.364C231.347 127.659 232.739 127.307 234.29 127.307C235.83 127.307 237.216 127.659 238.449 128.364C239.688 129.062 240.665 130.08 241.381 131.415C242.102 132.75 242.463 134.369 242.463 136.273ZM238.722 136.273C238.722 135.04 238.537 134 238.168 133.153C237.804 132.307 237.29 131.665 236.625 131.227C235.96 130.79 235.182 130.571 234.29 130.571C233.398 130.571 232.619 130.79 231.955 131.227C231.29 131.665 230.773 132.307 230.403 133.153C230.04 134 229.858 135.04 229.858 136.273C229.858 137.506 230.04 138.545 230.403 139.392C230.773 140.239 231.29 140.881 231.955 141.318C232.619 141.756 233.398 141.974 234.29 141.974C235.182 141.974 235.96 141.756 236.625 141.318C237.29 140.881 237.804 140.239 238.168 139.392C238.537 138.545 238.722 137.506 238.722 136.273Z" fill="#FBFD5E"/>
<rect x="199" y="73" width="66" height="32" fill="#085A31"/>
<path d="M232 116L224.206 102.5L239.794 102.5L232 116Z" fill="#085A31"/>
<path d="M217.404 80.5455H221.094V91.8807C221.094 93.1534 220.79 94.267 220.182 95.2216C219.58 96.1761 218.736 96.9205 217.651 97.4545C216.566 97.983 215.301 98.2472 213.858 98.2472C212.409 98.2472 211.142 97.983 210.057 97.4545C208.972 96.9205 208.128 96.1761 207.526 95.2216C206.924 94.267 206.623 93.1534 206.623 91.8807V80.5455H210.313V91.5653C210.313 92.2301 210.458 92.821 210.748 93.3381C211.043 93.8551 211.458 94.2614 211.992 94.5568C212.526 94.8523 213.148 95 213.858 95C214.574 95 215.196 94.8523 215.725 94.5568C216.259 94.2614 216.671 93.8551 216.961 93.3381C217.256 92.821 217.404 92.2301 217.404 91.5653V80.5455ZM234.599 85.5653C234.531 84.8778 234.238 84.3437 233.721 83.9631C233.204 83.5824 232.502 83.392 231.616 83.392C231.014 83.392 230.505 83.4773 230.091 83.6477C229.676 83.8125 229.358 84.0426 229.136 84.3381C228.92 84.6335 228.812 84.9688 228.812 85.3438C228.801 85.6562 228.866 85.929 229.008 86.1619C229.156 86.3949 229.358 86.5966 229.613 86.767C229.869 86.9318 230.164 87.0767 230.5 87.2017C230.835 87.321 231.193 87.4233 231.574 87.5085L233.142 87.8835C233.903 88.054 234.602 88.2812 235.238 88.5653C235.875 88.8494 236.426 89.1989 236.892 89.6136C237.358 90.0284 237.718 90.517 237.974 91.0795C238.235 91.642 238.369 92.2869 238.375 93.0142C238.369 94.0824 238.096 95.0085 237.556 95.7926C237.022 96.571 236.25 97.1761 235.238 97.608C234.233 98.0341 233.02 98.2472 231.599 98.2472C230.19 98.2472 228.963 98.0312 227.917 97.5994C226.877 97.1676 226.065 96.5284 225.48 95.6818C224.9 94.8295 224.596 93.7756 224.568 92.5199H228.139C228.179 93.1051 228.346 93.5937 228.642 93.9858C228.943 94.3722 229.343 94.6648 229.843 94.8636C230.349 95.0568 230.92 95.1534 231.556 95.1534C232.181 95.1534 232.724 95.0625 233.184 94.8807C233.65 94.6989 234.011 94.446 234.267 94.1222C234.522 93.7983 234.65 93.4261 234.65 93.0057C234.65 92.6136 234.534 92.2841 234.301 92.017C234.074 91.75 233.738 91.5227 233.295 91.3352C232.858 91.1477 232.321 90.9773 231.684 90.8239L229.784 90.3466C228.312 89.9886 227.15 89.429 226.298 88.6676C225.446 87.9062 225.022 86.8807 225.028 85.5909C225.022 84.5341 225.304 83.6108 225.872 82.821C226.446 82.0312 227.233 81.4148 228.233 80.9716C229.233 80.5284 230.369 80.3068 231.642 80.3068C232.937 80.3068 234.068 80.5284 235.034 80.9716C236.005 81.4148 236.761 82.0312 237.301 82.821C237.841 83.6108 238.119 84.5256 238.136 85.5653H234.599ZM244.467 98H240.512L246.538 80.5455H251.294L257.311 98H253.356L248.984 84.5341H248.848L244.467 98ZM244.22 91.1392H253.561V94.0199H244.22V91.1392Z" fill="#FBFD5E"/>
<rect x="300" y="59" width="135" height="32" fill="#085A31"/>
<path d="M367 102L359.206 88.5L374.794 88.5L367 102Z" fill="#085A31"/>
<path d="M329.066 72.6562H325.333C325.265 72.1733 325.126 71.7443 324.915 71.3693C324.705 70.9886 324.435 70.6648 324.106 70.3977C323.776 70.1307 323.396 69.9261 322.964 69.7841C322.538 69.642 322.075 69.571 321.575 69.571C320.671 69.571 319.884 69.7955 319.214 70.2443C318.543 70.6875 318.023 71.3352 317.654 72.1875C317.285 73.0341 317.1 74.0625 317.1 75.2727C317.1 76.517 317.285 77.5625 317.654 78.4091C318.029 79.2557 318.552 79.8949 319.222 80.3267C319.893 80.7585 320.668 80.9744 321.549 80.9744C322.043 80.9744 322.501 80.9091 322.921 80.7784C323.347 80.6477 323.725 80.4574 324.055 80.2074C324.384 79.9517 324.657 79.642 324.873 79.2784C325.094 78.9148 325.248 78.5 325.333 78.0341L329.066 78.0511C328.969 78.8523 328.728 79.625 328.342 80.3693C327.961 81.108 327.447 81.7699 326.799 82.3551C326.157 82.9347 325.39 83.3949 324.498 83.7358C323.612 84.071 322.609 84.2386 321.489 84.2386C319.933 84.2386 318.54 83.8864 317.313 83.1818C316.092 82.4773 315.126 81.4574 314.415 80.1222C313.711 78.7869 313.359 77.1705 313.359 75.2727C313.359 73.3693 313.717 71.75 314.433 70.4148C315.148 69.0795 316.12 68.0625 317.347 67.3636C318.575 66.6591 319.955 66.3068 321.489 66.3068C322.501 66.3068 323.438 66.4489 324.302 66.733C325.171 67.017 325.941 67.4318 326.612 67.9773C327.282 68.517 327.827 69.179 328.248 69.9631C328.674 70.7472 328.947 71.6449 329.066 72.6562ZM335.393 84H331.438L337.464 66.5455H342.219L348.237 84H344.282L339.91 70.5341H339.773L335.393 84ZM335.146 77.1392H344.487V80.0199H335.146V77.1392ZM365.937 66.5455V84H362.749L355.156 73.0142H355.028V84H351.337V66.5455H354.576L362.11 77.5227H362.263V66.5455H365.937ZM372.994 84H369.04L375.065 66.5455H379.821L385.838 84H381.884L377.511 70.5341H377.375L372.994 84ZM372.747 77.1392H382.088V80.0199H372.747V77.1392ZM395.126 84H388.939V66.5455H395.178C396.933 66.5455 398.445 66.8949 399.712 67.5938C400.979 68.2869 401.953 69.2841 402.635 70.5852C403.322 71.8864 403.666 73.4432 403.666 75.2557C403.666 77.0739 403.322 78.6364 402.635 79.9432C401.953 81.25 400.973 82.2528 399.695 82.9517C398.422 83.6506 396.899 84 395.126 84ZM392.629 80.8381H394.973C396.064 80.8381 396.982 80.6449 397.726 80.2585C398.476 79.8665 399.038 79.2614 399.413 78.4432C399.794 77.6193 399.984 76.5568 399.984 75.2557C399.984 73.9659 399.794 72.9119 399.413 72.0938C399.038 71.2756 398.479 70.6733 397.734 70.2869C396.99 69.9006 396.072 69.7074 394.982 69.7074H392.629V80.8381ZM409.424 84H405.469L411.495 66.5455H416.251L422.268 84H418.313L413.941 70.5341H413.805L409.424 84ZM409.177 77.1392H418.518V80.0199H409.177V77.1392Z" fill="#FBFD5E"/>
</g>
<defs>
<clipPath id="clip0_227_576">
<rect width="1194" height="521" fill="white"/>
</clipPath>
<clipPath id="clip1_227_576">
<rect width="1194" height="428" fill="white" transform="translate(48)"/>
</clipPath>
</defs>
</svg>
