<svg width="97" height="65" viewBox="0 0 97 65" fill="none" xmlns="http://www.w3.org/2000/svg">
<rect x="40.1177" y="16.8223" width="8" height="8" fill="#2C2C2C"/>
<rect x="40.1177" y="32.8223" width="8" height="8" fill="#2C2C2C"/>
<rect x="40.1177" y="40.8223" width="8" height="8" fill="#2C2C2C"/>
<rect x="48.1177" y="16.8223" width="8" height="8" fill="#2C2C2C"/>
<rect x="48.1177" y="32.8223" width="8" height="8" fill="#2C2C2C"/>
<rect x="48.1177" y="40.8223" width="8" height="8" fill="#2C2C2C"/>
<rect x="56.1177" y="16.8223" width="8" height="8" fill="#2C2C2C"/>
<rect x="56.1177" y="24.8223" width="8" height="8" fill="#2C2C2C"/>
<rect x="64.1177" y="8.82227" width="8" height="8" fill="#2C2C2C"/>
<rect x="64.1177" y="16.8223" width="8" height="8" fill="#2C2C2C"/>
<rect x="56.1177" y="32.8223" width="8" height="8" fill="#2C2C2C"/>
<rect x="56.1177" y="40.8223" width="8" height="8" fill="#2C2C2C"/>
<rect x="56.1177" y="56.8223" width="8" height="8" fill="#2C2C2C"/>
<rect x="64.1177" y="56.8223" width="8" height="8" fill="#2C2C2C"/>
<rect x="72.1177" y="0.822266" width="8" height="8" fill="#2C2C2C"/>
<rect x="72.1177" y="16.8223" width="8" height="8" fill="#2C2C2C"/>
<rect x="72.1177" y="24.8223" width="8" height="8" fill="#2C2C2C"/>
<rect x="72.1177" y="32.8223" width="8" height="8" fill="#2C2C2C"/>
<rect x="72.1177" y="40.8223" width="8" height="8" fill="#2C2C2C"/>
<rect x="72.1177" y="48.8223" width="8" height="8" fill="#2C2C2C"/>
<rect x="64.1177" y="40.8223" width="8" height="8" fill="#2C2C2C"/>
<rect x="80.1177" y="24.8223" width="8" height="8" fill="#2C2C2C"/>
<rect x="80.1177" y="32.8223" width="8" height="8" fill="#2C2C2C"/>
<rect x="88.1177" y="32.8223" width="8" height="8" fill="#2C2C2C"/>
<rect x="88.1177" y="40.8223" width="8" height="8" fill="#2C2C2C"/>
<rect x="88.1177" y="48.8223" width="8" height="8" fill="#2C2C2C"/>
<rect x="16.1177" y="0.822266" width="8" height="8" fill="#2C2C2C"/>
<rect x="40.1177" y="24.8223" width="8" height="8" fill="#2C2C2C"/>
<rect x="48.1177" y="24.8223" width="8" height="8" fill="#2C2C2C"/>
<rect x="64.1177" y="32.8223" width="8" height="8" fill="#2C2C2C"/>
<rect x="24.1177" y="32.8223" width="8" height="8" fill="#2C2C2C"/>
<rect x="16.1177" y="48.8223" width="8" height="8" fill="#2C2C2C"/>
<rect x="32.1177" y="16.8223" width="8" height="8" fill="#2C2C2C"/>
<rect x="32.1177" y="24.8223" width="8" height="8" fill="#2C2C2C"/>
<rect x="32.1177" y="40.8223" width="8" height="8" fill="#2C2C2C"/>
<rect x="32.1177" y="56.8223" width="8" height="8" fill="#2C2C2C"/>
<rect x="24.1177" y="56.8223" width="8" height="8" fill="#2C2C2C"/>
<rect x="32.1177" y="32.8223" width="8" height="8" fill="#2C2C2C"/>
<rect x="24.1177" y="16.8223" width="8" height="8" fill="#2C2C2C"/>
<rect x="24.1177" y="8.82227" width="8" height="8" fill="#2C2C2C"/>
<rect x="24.1177" y="40.8223" width="8" height="8" fill="#2C2C2C"/>
<rect x="16.1177" y="40.8223" width="8" height="8" fill="#2C2C2C"/>
<rect x="16.1177" y="32.8223" width="8" height="8" fill="#2C2C2C"/>
<rect x="16.1177" y="24.8223" width="8" height="8" fill="#2C2C2C"/>
<rect x="16.1177" y="16.8223" width="8" height="8" fill="#2C2C2C"/>
<rect x="8.11768" y="32.8223" width="8" height="8" fill="#2C2C2C"/>
<rect x="8.11768" y="24.8223" width="8" height="8" fill="#2C2C2C"/>
<rect x="0.117676" y="48.8223" width="8" height="8" fill="#2C2C2C"/>
<rect x="0.117676" y="40.8223" width="8" height="8" fill="#2C2C2C"/>
<rect x="0.117676" y="32.8223" width="8" height="8" fill="#2C2C2C"/>
</svg>
