<svg width="326" height="151" viewBox="0 0 326 151" fill="none" xmlns="http://www.w3.org/2000/svg">
<path fill-rule="evenodd" clip-rule="evenodd" d="M94.8712 111.05C112.762 109.371 126.762 94.3117 126.762 75.9821C126.762 57.6524 112.762 42.5928 94.8712 40.9139V111.05Z" fill="#FFC8C1"/>
<path fill-rule="evenodd" clip-rule="evenodd" d="M126.956 107.479C138.484 101.691 146.395 89.7603 146.395 75.9821C146.395 62.2038 138.484 50.2733 126.956 44.4848V107.479Z" fill="#FFC8C1"/>
<mask id="mask0_267_1113" style="mask-type:alpha" maskUnits="userSpaceOnUse" x="0" y="0" width="152" height="151">
<circle cx="65.6086" cy="87.5165" r="2.44125" transform="rotate(-60 65.6086 87.5165)" fill="#00B6FF"/>
<circle cx="82.3486" cy="58.522" r="2.44125" transform="rotate(-60 82.3486 58.522)" fill="#00B6FF"/>
<circle cx="73.9786" cy="73.0192" r="2.44125" transform="rotate(-60 73.9786 73.0192)" fill="#00B6FF"/>
<circle cx="57.2386" cy="102.014" r="2.44125" transform="rotate(-60 57.2386 102.014)" fill="#00B6FF"/>
<circle cx="90.7187" cy="44.0247" r="2.44125" transform="rotate(-60 90.7187 44.0247)" fill="#00B6FF"/>
<circle cx="69.7937" cy="80.2678" r="2.44125" transform="rotate(-60 69.7937 80.2678)" fill="#00B6FF"/>
<circle cx="86.5337" cy="51.2733" r="2.44125" transform="rotate(-60 86.5337 51.2733)" fill="#00B6FF"/>
<circle cx="78.1637" cy="65.7706" r="2.44125" transform="rotate(-60 78.1637 65.7706)" fill="#00B6FF"/>
<circle cx="61.4237" cy="94.7651" r="2.44125" transform="rotate(-60 61.4237 94.7651)" fill="#00B6FF"/>
<circle cx="49.2993" cy="78.1002" r="2.44125" transform="rotate(-60 49.2993 78.1002)" fill="#00B6FF"/>
<circle cx="66.0393" cy="49.1057" r="2.44125" transform="rotate(-60 66.0393 49.1057)" fill="#00B6FF"/>
<circle cx="57.6693" cy="63.603" r="2.44125" transform="rotate(-60 57.6693 63.603)" fill="#00B6FF"/>
<circle cx="40.9293" cy="92.5975" r="2.44125" transform="rotate(-60 40.9293 92.5975)" fill="#00B6FF"/>
<circle cx="53.4842" cy="70.8516" r="2.44125" transform="rotate(-60 53.4842 70.8516)" fill="#00B6FF"/>
<circle cx="70.2242" cy="41.8571" r="2.44125" transform="rotate(-60 70.2242 41.8571)" fill="#00B6FF"/>
<circle cx="61.8542" cy="56.3543" r="2.44125" transform="rotate(-60 61.8542 56.3543)" fill="#00B6FF"/>
<circle cx="45.1142" cy="85.3489" r="2.44125" transform="rotate(-60 45.1142 85.3489)" fill="#00B6FF"/>
<circle cx="81.9181" cy="96.9327" r="2.44125" transform="rotate(-60 81.9181 96.9327)" fill="#00B6FF"/>
<circle cx="98.6581" cy="67.9382" r="2.44125" transform="rotate(-60 98.6581 67.9382)" fill="#00B6FF"/>
<circle cx="90.2881" cy="82.4355" r="2.44125" transform="rotate(-60 90.2881 82.4355)" fill="#00B6FF"/>
<circle cx="73.5481" cy="111.43" r="2.44125" transform="rotate(-60 73.5481 111.43)" fill="#00B6FF"/>
<circle cx="107.028" cy="53.4409" r="2.44125" transform="rotate(-60 107.028 53.4409)" fill="#00B6FF"/>
<circle cx="86.1031" cy="89.6841" r="2.44125" transform="rotate(-60 86.1031 89.6841)" fill="#00B6FF"/>
<circle cx="102.843" cy="60.6896" r="2.44125" transform="rotate(-60 102.843 60.6896)" fill="#00B6FF"/>
<circle cx="94.4731" cy="75.1868" r="2.44125" transform="rotate(-60 94.4731 75.1868)" fill="#00B6FF"/>
<circle cx="77.7331" cy="104.181" r="2.44125" transform="rotate(-60 77.7331 104.181)" fill="#00B6FF"/>
<circle cx="41.1445" cy="73.3921" r="2.44125" transform="rotate(-60 41.1445 73.3921)" fill="#00B6FF"/>
<circle cx="57.8845" cy="44.3976" r="2.44125" transform="rotate(-60 57.8845 44.3976)" fill="#00B6FF"/>
<circle cx="49.5145" cy="58.8949" r="2.44125" transform="rotate(-60 49.5145 58.8949)" fill="#00B6FF"/>
<circle cx="45.3296" cy="66.1435" r="2.44125" transform="rotate(-60 45.3296 66.1435)" fill="#00B6FF"/>
<circle cx="53.6996" cy="51.6462" r="2.44125" transform="rotate(-60 53.6996 51.6462)" fill="#00B6FF"/>
<circle cx="36.9596" cy="80.6407" r="2.44125" transform="rotate(-60 36.9596 80.6407)" fill="#00B6FF"/>
<circle cx="73.7634" cy="92.2246" r="2.44125" transform="rotate(-60 73.7634 92.2246)" fill="#00B6FF"/>
<circle cx="90.5034" cy="63.2301" r="2.44125" transform="rotate(-60 90.5034 63.2301)" fill="#00B6FF"/>
<circle cx="82.1334" cy="77.7273" r="2.44125" transform="rotate(-60 82.1334 77.7273)" fill="#00B6FF"/>
<circle cx="65.3934" cy="106.722" r="2.44125" transform="rotate(-60 65.3934 106.722)" fill="#00B6FF"/>
<circle cx="98.8734" cy="48.7328" r="2.44125" transform="rotate(-60 98.8734 48.7328)" fill="#00B6FF"/>
<circle cx="77.9483" cy="84.976" r="2.44125" transform="rotate(-60 77.9483 84.976)" fill="#00B6FF"/>
<circle cx="94.6883" cy="55.9814" r="2.44125" transform="rotate(-60 94.6883 55.9814)" fill="#00B6FF"/>
<circle cx="86.3183" cy="70.4787" r="2.44125" transform="rotate(-60 86.3183 70.4787)" fill="#00B6FF"/>
<circle cx="69.5783" cy="99.4732" r="2.44125" transform="rotate(-60 69.5783 99.4732)" fill="#00B6FF"/>
<circle cx="57.4539" cy="82.8084" r="2.44125" transform="rotate(-60 57.4539 82.8084)" fill="#00B6FF"/>
<circle cx="74.1939" cy="53.8138" r="2.44125" transform="rotate(-60 74.1939 53.8138)" fill="#00B6FF"/>
<circle cx="65.8239" cy="68.3111" r="2.44125" transform="rotate(-60 65.8239 68.3111)" fill="#00B6FF"/>
<circle cx="49.084" cy="97.3056" r="2.44125" transform="rotate(-60 49.084 97.3056)" fill="#00B6FF"/>
<circle cx="82.5639" cy="39.3166" r="2.44125" transform="rotate(-60 82.5639 39.3166)" fill="#00B6FF"/>
<circle cx="61.639" cy="75.5597" r="2.44125" transform="rotate(-60 61.639 75.5597)" fill="#00B6FF"/>
<circle cx="78.379" cy="46.5652" r="2.44125" transform="rotate(-60 78.379 46.5652)" fill="#00B6FF"/>
<circle cx="70.009" cy="61.0625" r="2.44125" transform="rotate(-60 70.009 61.0625)" fill="#00B6FF"/>
<circle cx="53.2689" cy="90.057" r="2.44125" transform="rotate(-60 53.2689 90.057)" fill="#00B6FF"/>
<circle cx="90.0728" cy="101.641" r="2.44125" transform="rotate(-60 90.0728 101.641)" fill="#00B6FF"/>
<circle cx="106.813" cy="72.6463" r="2.44125" transform="rotate(-60 106.813 72.6463)" fill="#00B6FF"/>
<circle cx="98.4428" cy="87.1436" r="2.44125" transform="rotate(-60 98.4428 87.1436)" fill="#00B6FF"/>
<circle cx="115.183" cy="58.1491" r="2.44125" transform="rotate(-60 115.183 58.1491)" fill="#00B6FF"/>
<circle cx="94.2578" cy="94.3922" r="2.44125" transform="rotate(-60 94.2578 94.3922)" fill="#00B6FF"/>
<circle cx="110.998" cy="65.3977" r="2.44125" transform="rotate(-60 110.998 65.3977)" fill="#00B6FF"/>
<circle cx="102.628" cy="79.895" r="2.44125" transform="rotate(-60 102.628 79.895)" fill="#00B6FF"/>
<circle cx="85.8878" cy="108.889" r="2.44125" transform="rotate(-60 85.8878 108.889)" fill="#00B6FF"/>
</mask>
<g mask="url(#mask0_267_1113)">
<path fill-rule="evenodd" clip-rule="evenodd" d="M94.8713 47.1483C89.1471 43.1262 82.1712 40.765 74.6438 40.765C55.1903 40.765 39.42 56.5352 39.42 75.9887C39.42 95.4423 55.1903 111.212 74.6438 111.212C82.1712 111.212 89.1471 108.851 94.8713 104.829V47.1483Z" fill="#FFC8C1"/>
</g>
<line x1="95.9176" y1="114.711" x2="95.9176" y2="120.64" stroke="black" stroke-width="2.0925"/>
<line x1="95.9176" y1="103.551" x2="95.9176" y2="109.48" stroke="black" stroke-width="2.0925"/>
<line x1="95.9176" y1="92.3913" x2="95.9176" y2="98.32" stroke="black" stroke-width="2.0925"/>
<line x1="95.9176" y1="53.3313" x2="95.9176" y2="59.26" stroke="black" stroke-width="2.0925"/>
<line x1="95.9176" y1="42.1713" x2="95.9176" y2="48.1" stroke="black" stroke-width="2.0925"/>
<line x1="95.9176" y1="31.0113" x2="95.9176" y2="36.94" stroke="black" stroke-width="2.0925"/>
<line x1="95.9176" y1="76" x2="95.9176" y2="81.9287" stroke="black" stroke-width="2.0925"/>
<rect x="73.2488" y="51.2387" width="44.64" height="44.64" rx="5.58" fill="black"/>
<path d="M180.103 54.2876C180.016 53.2081 179.611 52.366 178.888 51.7615C178.176 51.1569 177.091 50.8546 175.633 50.8546C174.705 50.8546 173.944 50.968 173.35 51.1947C172.767 51.4106 172.335 51.7075 172.054 52.0853C171.774 52.4632 171.628 52.895 171.617 53.3808C171.596 53.7802 171.666 54.1419 171.828 54.4658C172 54.7788 172.27 55.0649 172.637 55.324C173.004 55.5723 173.474 55.799 174.046 56.0041C174.618 56.2092 175.299 56.3928 176.087 56.5547L178.807 57.1377C180.642 57.5263 182.213 58.0391 183.519 58.676C184.826 59.313 185.894 60.0633 186.726 60.9269C187.557 61.7798 188.167 62.7406 188.556 63.8094C188.955 64.8781 189.16 66.0441 189.171 67.3071C189.16 69.4879 188.615 71.3339 187.535 72.8453C186.456 74.3567 184.912 75.5064 182.904 76.2945C180.907 77.0826 178.505 77.4766 175.698 77.4766C172.816 77.4766 170.3 77.0502 168.152 76.1973C166.014 75.3445 164.352 74.0328 163.164 72.2623C161.988 70.4811 161.394 68.2032 161.383 65.4287H169.933C169.987 66.4435 170.241 67.2964 170.694 67.9873C171.148 68.6782 171.785 69.2018 172.605 69.558C173.436 69.9143 174.424 70.0924 175.568 70.0924C176.529 70.0924 177.334 69.9737 177.981 69.7362C178.629 69.4987 179.12 69.1694 179.455 68.7484C179.79 68.3273 179.962 67.8469 179.973 67.3071C179.962 66.7998 179.795 66.3571 179.471 65.9793C179.158 65.5906 178.64 65.2452 177.916 64.9429C177.193 64.6298 176.216 64.3384 174.985 64.0685L171.682 63.356C168.746 62.719 166.43 61.6556 164.735 60.1658C163.051 58.6653 162.214 56.6195 162.225 54.0285C162.214 51.9234 162.776 50.0827 163.909 48.5066C165.054 46.9196 166.635 45.6835 168.654 44.7983C170.683 43.913 173.01 43.4704 175.633 43.4704C178.311 43.4704 180.626 43.9184 182.58 44.8145C184.534 45.7105 186.04 46.9736 187.098 48.6037C188.167 50.2231 188.707 52.1177 188.718 54.2876H180.103ZM192.14 77.088V43.9238H201.143V56.8786H213.062V43.9238H222.065V77.088H213.062V64.1332H201.143V77.088H192.14ZM225.884 77.088V43.9238H249.786V51.1785H234.888V56.8786H248.555V64.1332H234.888V69.8333H249.721V77.088H225.884ZM253.795 77.088V43.9238H268.11C270.572 43.9238 272.725 44.3718 274.571 45.2679C276.417 46.1639 277.853 47.454 278.879 49.1381C279.904 50.8222 280.417 52.841 280.417 55.1945C280.417 57.5695 279.888 59.5721 278.83 61.2022C277.783 62.8324 276.309 64.0631 274.409 64.8943C272.52 65.7256 270.312 66.1412 267.786 66.1412H259.236V59.1457H265.973C267.031 59.1457 267.932 59.0161 268.677 58.757C269.433 58.4871 270.01 58.0607 270.41 57.4777C270.82 56.8948 271.025 56.1337 271.025 55.1945C271.025 54.2444 270.82 53.4726 270.41 52.8788C270.01 52.2742 269.433 51.8316 268.677 51.5509C267.932 51.2595 267.031 51.1137 265.973 51.1137H262.799V77.088H253.795ZM273.227 61.8662L281.518 77.088H271.738L263.641 61.8662H273.227ZM292.803 43.9238V77.088H283.799V43.9238H292.803ZM296.614 77.088V43.9238H319.932V51.1785H305.617V56.8786H318.507V64.1332H305.617V77.088H296.614Z" fill="black"/>
<path d="M182.552 83.2333V87.4638H170.323V83.2333H182.552ZM173.1 78.3681H178.732V97.2999C178.732 97.8199 178.811 98.2254 178.97 98.5162C179.128 98.7983 179.349 98.9966 179.631 99.1111C179.922 99.2257 180.257 99.283 180.636 99.283C180.9 99.283 181.164 99.261 181.429 99.2169C181.693 99.164 181.896 99.1244 182.037 99.0979L182.923 103.289C182.641 103.377 182.244 103.478 181.733 103.593C181.222 103.716 180.6 103.791 179.869 103.818C178.511 103.871 177.322 103.69 176.299 103.276C175.286 102.861 174.497 102.218 173.933 101.345C173.369 100.473 173.091 99.3711 173.1 98.0403V78.3681Z" fill="black"/>
<path d="M191.64 103.923C190.344 103.923 189.189 103.699 188.176 103.249C187.162 102.791 186.36 102.117 185.77 101.226C185.188 100.327 184.897 99.2081 184.897 97.8684C184.897 96.7403 185.104 95.7928 185.518 95.026C185.933 94.2592 186.497 93.6422 187.211 93.1751C187.925 92.708 188.735 92.3554 189.643 92.1175C190.56 91.8795 191.521 91.712 192.525 91.6151C193.706 91.4917 194.658 91.3771 195.381 91.2714C196.104 91.1568 196.628 90.9893 196.954 90.769C197.28 90.5486 197.443 90.2225 197.443 89.7907V89.7113C197.443 88.874 197.179 88.2262 196.65 87.7679C196.13 87.3096 195.39 87.0804 194.429 87.0804C193.415 87.0804 192.609 87.3052 192.01 87.7547C191.41 88.1954 191.014 88.7506 190.82 89.4205L185.611 88.9974C185.875 87.7635 186.395 86.697 187.171 85.7981C187.947 84.8902 188.947 84.194 190.172 83.7092C191.406 83.2156 192.834 82.9689 194.455 82.9689C195.584 82.9689 196.663 83.1011 197.695 83.3655C198.735 83.6299 199.656 84.0397 200.458 84.595C201.268 85.1502 201.907 85.8642 202.375 86.7367C202.842 87.6005 203.075 88.6361 203.075 89.8435V103.54H197.734V100.724H197.576C197.249 101.359 196.813 101.918 196.267 102.403C195.72 102.879 195.064 103.254 194.297 103.527C193.53 103.791 192.644 103.923 191.64 103.923ZM193.252 100.037C194.081 100.037 194.812 99.8735 195.447 99.5474C196.082 99.2125 196.58 98.763 196.941 98.1989C197.302 97.6348 197.483 96.9959 197.483 96.2819V94.127C197.307 94.2416 197.064 94.3473 196.756 94.4443C196.456 94.5324 196.117 94.6162 195.738 94.6955C195.359 94.766 194.98 94.8321 194.601 94.8938C194.222 94.9467 193.878 94.9951 193.57 95.0392C192.909 95.1362 192.331 95.2904 191.838 95.5019C191.344 95.7135 190.961 95.9999 190.688 96.3613C190.414 96.7138 190.278 97.1545 190.278 97.6833C190.278 98.4501 190.555 99.0362 191.111 99.4417C191.675 99.8383 192.389 100.037 193.252 100.037Z" fill="black"/>
<path d="M207.072 103.54V83.2333H212.532V86.7764H212.744C213.114 85.516 213.736 84.5641 214.608 83.9207C215.481 83.2685 216.485 82.9424 217.622 82.9424C217.904 82.9424 218.208 82.96 218.535 82.9953C218.861 83.0305 219.147 83.079 219.394 83.1407V88.1381C219.13 88.0588 218.764 87.9883 218.297 87.9266C217.829 87.8649 217.402 87.834 217.014 87.834C216.186 87.834 215.445 88.0147 214.793 88.3761C214.15 88.7286 213.639 89.2222 213.26 89.8568C212.889 90.4913 212.704 91.2229 212.704 92.0514V103.54H207.072Z" fill="black"/>
<path d="M221.933 103.54V83.2333H227.565V103.54H221.933Z" fill="black"/>
<path d="M245.123 108.016V100.288H244.952C244.687 100.852 244.313 101.412 243.828 101.967C243.352 102.513 242.731 102.967 241.964 103.328C241.206 103.69 240.28 103.871 239.187 103.871C237.645 103.871 236.248 103.474 234.997 102.681C233.754 101.879 232.767 100.702 232.035 99.1508C231.312 97.5908 230.951 95.6782 230.951 93.4131C230.951 91.0863 231.326 89.1517 232.075 87.6093C232.824 86.0581 233.82 84.8991 235.063 84.1323C236.314 83.3567 237.685 82.9689 239.174 82.9689C240.311 82.9689 241.259 83.1628 242.017 83.5506C242.783 83.9295 243.4 84.4055 243.868 84.9784C244.343 85.5425 244.705 86.0977 244.952 86.6442H245.19V83.2333H250.742V108.016H245.123ZM240.972 99.3888C241.88 99.3888 242.647 99.142 243.273 98.6484C243.907 98.146 244.392 97.4454 244.727 96.5464C245.071 95.6474 245.242 94.5941 245.242 93.3866C245.242 92.1792 245.075 91.1303 244.74 90.2402C244.405 89.35 243.92 88.6625 243.286 88.1777C242.651 87.693 241.88 87.4506 240.972 87.4506C240.047 87.4506 239.267 87.7018 238.632 88.2042C237.998 88.7066 237.517 89.4029 237.191 90.293C236.865 91.1832 236.702 92.2144 236.702 93.3866C236.702 94.5677 236.865 95.6121 237.191 96.5199C237.526 97.4189 238.006 98.124 238.632 98.6352C239.267 99.1376 240.047 99.3888 240.972 99.3888Z" fill="black"/>
<path d="M92.7312 67.1624C92.6255 66.096 92.1716 65.2675 91.3695 64.677C90.5675 64.0865 89.479 63.7912 88.104 63.7912C87.1698 63.7912 86.381 63.9234 85.7376 64.1878C85.0942 64.4434 84.6006 64.8004 84.2569 65.2587C83.9219 65.717 83.7545 66.237 83.7545 66.8187C83.7369 67.3035 83.8382 67.7265 84.0586 68.0879C84.2877 68.4492 84.6006 68.7621 84.9972 69.0265C85.3938 69.2821 85.8521 69.5069 86.3722 69.7008C86.8922 69.8859 87.4474 70.0445 88.0379 70.1767L90.4705 70.7584C91.6516 71.0228 92.7356 71.3754 93.7228 71.8161C94.7099 72.2568 95.5648 72.7988 96.2876 73.4422C97.0103 74.0856 97.57 74.8436 97.9666 75.7161C98.372 76.5887 98.5791 77.5891 98.5879 78.7172C98.5791 80.3742 98.1561 81.8108 97.3188 83.0271C96.4903 84.2346 95.2916 85.1732 93.7228 85.8431C92.1628 86.5041 90.281 86.8346 88.0776 86.8346C85.8918 86.8346 83.9881 86.4997 82.3663 85.8299C80.7534 85.16 79.4931 84.1685 78.5853 82.8552C77.6863 81.5332 77.2147 79.8982 77.1707 77.9504H82.7101C82.7718 78.8582 83.0318 79.6162 83.4901 80.2244C83.9572 80.8237 84.5786 81.2776 85.3542 81.5861C86.1386 81.8857 87.0244 82.0356 88.0115 82.0356C88.981 82.0356 89.8227 81.8945 90.5366 81.6125C91.2594 81.3305 91.819 80.9383 92.2156 80.4359C92.6123 79.9335 92.8106 79.3562 92.8106 78.704C92.8106 78.0958 92.6299 77.5846 92.2685 77.1704C91.916 76.7562 91.396 76.4036 90.7085 76.1128C90.0298 75.8219 89.1969 75.5575 88.2098 75.3195L85.2616 74.5792C82.9789 74.0239 81.1765 73.1558 79.8544 71.9747C78.5324 70.7937 77.8758 69.2028 77.8846 67.2021C77.8758 65.5628 78.312 64.1305 79.1934 62.9054C80.0836 61.6803 81.3043 60.724 82.8555 60.0366C84.4067 59.3491 86.1694 59.0054 88.1437 59.0054C90.1532 59.0054 91.9072 59.3491 93.4055 60.0366C94.9126 60.724 96.0849 61.6803 96.9222 62.9054C97.7595 64.1305 98.1913 65.5495 98.2178 67.1624H92.7312Z" fill="white"/>
<path d="M112.762 66.1445V70.375H100.533V66.1445H112.762ZM103.309 61.2793H108.941V80.2111C108.941 80.7311 109.02 81.1366 109.179 81.4274C109.337 81.7095 109.558 81.9078 109.84 82.0223C110.131 82.1369 110.466 82.1942 110.845 82.1942C111.109 82.1942 111.373 82.1722 111.638 82.1281C111.902 82.0752 112.105 82.0356 112.246 82.0091L113.132 86.2C112.85 86.2882 112.453 86.3895 111.942 86.5041C111.431 86.6275 110.809 86.7024 110.078 86.7289C108.72 86.7817 107.531 86.6011 106.508 86.1868C105.495 85.7726 104.706 85.1292 104.142 84.2566C103.578 83.3841 103.3 82.2823 103.309 80.9515V61.2793Z" fill="white"/>
</svg>
