<svg width="326" height="151" viewBox="0 0 326 151" fill="none" xmlns="http://www.w3.org/2000/svg">
<path fill-rule="evenodd" clip-rule="evenodd" d="M94.8713 111.05C112.762 109.371 126.763 94.3118 126.763 75.9821C126.763 57.6525 112.762 42.5929 94.8713 40.9139V111.05Z" fill="#FFC8C1"/>
<path fill-rule="evenodd" clip-rule="evenodd" d="M126.956 107.479C138.484 101.691 146.395 89.7602 146.395 75.982C146.395 62.2038 138.484 50.2732 126.956 44.4847V107.479Z" fill="#FFC8C1"/>
<mask id="mask0_350_701" style="mask-type:alpha" maskUnits="userSpaceOnUse" x="0" y="0" width="152" height="151">
<circle cx="65.6087" cy="87.5166" r="2.44125" transform="rotate(-60 65.6087 87.5166)" fill="#00B6FF"/>
<circle cx="82.3487" cy="58.522" r="2.44125" transform="rotate(-60 82.3487 58.522)" fill="#00B6FF"/>
<circle cx="73.9787" cy="73.0193" r="2.44125" transform="rotate(-60 73.9787 73.0193)" fill="#00B6FF"/>
<circle cx="57.2387" cy="102.014" r="2.44125" transform="rotate(-60 57.2387 102.014)" fill="#00B6FF"/>
<circle cx="90.7187" cy="44.0248" r="2.44125" transform="rotate(-60 90.7187 44.0248)" fill="#00B6FF"/>
<circle cx="69.7937" cy="80.2679" r="2.44125" transform="rotate(-60 69.7937 80.2679)" fill="#00B6FF"/>
<circle cx="86.5337" cy="51.2734" r="2.44125" transform="rotate(-60 86.5337 51.2734)" fill="#00B6FF"/>
<circle cx="78.1637" cy="65.7706" r="2.44125" transform="rotate(-60 78.1637 65.7706)" fill="#00B6FF"/>
<circle cx="61.4237" cy="94.7651" r="2.44125" transform="rotate(-60 61.4237 94.7651)" fill="#00B6FF"/>
<circle cx="49.2992" cy="78.1002" r="2.44125" transform="rotate(-60 49.2992 78.1002)" fill="#00B6FF"/>
<circle cx="66.0392" cy="49.1057" r="2.44125" transform="rotate(-60 66.0392 49.1057)" fill="#00B6FF"/>
<circle cx="57.6692" cy="63.603" r="2.44125" transform="rotate(-60 57.6692 63.603)" fill="#00B6FF"/>
<circle cx="40.9292" cy="92.5975" r="2.44125" transform="rotate(-60 40.9292 92.5975)" fill="#00B6FF"/>
<circle cx="53.4842" cy="70.8516" r="2.44125" transform="rotate(-60 53.4842 70.8516)" fill="#00B6FF"/>
<circle cx="70.2242" cy="41.8571" r="2.44125" transform="rotate(-60 70.2242 41.8571)" fill="#00B6FF"/>
<circle cx="61.8542" cy="56.3544" r="2.44125" transform="rotate(-60 61.8542 56.3544)" fill="#00B6FF"/>
<circle cx="45.1142" cy="85.3489" r="2.44125" transform="rotate(-60 45.1142 85.3489)" fill="#00B6FF"/>
<circle cx="81.9181" cy="96.9329" r="2.44125" transform="rotate(-60 81.9181 96.9329)" fill="#00B6FF"/>
<circle cx="98.6581" cy="67.9382" r="2.44125" transform="rotate(-60 98.6581 67.9382)" fill="#00B6FF"/>
<circle cx="90.2881" cy="82.4355" r="2.44125" transform="rotate(-60 90.2881 82.4355)" fill="#00B6FF"/>
<circle cx="73.5481" cy="111.43" r="2.44125" transform="rotate(-60 73.5481 111.43)" fill="#00B6FF"/>
<circle cx="107.028" cy="53.441" r="2.44125" transform="rotate(-60 107.028 53.441)" fill="#00B6FF"/>
<circle cx="86.1031" cy="89.6842" r="2.44125" transform="rotate(-60 86.1031 89.6842)" fill="#00B6FF"/>
<circle cx="102.843" cy="60.6897" r="2.44125" transform="rotate(-60 102.843 60.6897)" fill="#00B6FF"/>
<circle cx="94.4731" cy="75.1869" r="2.44125" transform="rotate(-60 94.4731 75.1869)" fill="#00B6FF"/>
<circle cx="77.7331" cy="104.181" r="2.44125" transform="rotate(-60 77.7331 104.181)" fill="#00B6FF"/>
<circle cx="41.1445" cy="73.3921" r="2.44125" transform="rotate(-60 41.1445 73.3921)" fill="#00B6FF"/>
<circle cx="57.8846" cy="44.3976" r="2.44125" transform="rotate(-60 57.8846 44.3976)" fill="#00B6FF"/>
<circle cx="49.5145" cy="58.8949" r="2.44125" transform="rotate(-60 49.5145 58.8949)" fill="#00B6FF"/>
<circle cx="45.3295" cy="66.1434" r="2.44125" transform="rotate(-60 45.3295 66.1434)" fill="#00B6FF"/>
<circle cx="53.6995" cy="51.6462" r="2.44125" transform="rotate(-60 53.6995 51.6462)" fill="#00B6FF"/>
<circle cx="36.9595" cy="80.6407" r="2.44125" transform="rotate(-60 36.9595 80.6407)" fill="#00B6FF"/>
<circle cx="73.7634" cy="92.2247" r="2.44125" transform="rotate(-60 73.7634 92.2247)" fill="#00B6FF"/>
<circle cx="90.5034" cy="63.2301" r="2.44125" transform="rotate(-60 90.5034 63.2301)" fill="#00B6FF"/>
<circle cx="82.1334" cy="77.7274" r="2.44125" transform="rotate(-60 82.1334 77.7274)" fill="#00B6FF"/>
<circle cx="65.3934" cy="106.722" r="2.44125" transform="rotate(-60 65.3934 106.722)" fill="#00B6FF"/>
<circle cx="98.8734" cy="48.7329" r="2.44125" transform="rotate(-60 98.8734 48.7329)" fill="#00B6FF"/>
<circle cx="77.9484" cy="84.9761" r="2.44125" transform="rotate(-60 77.9484 84.9761)" fill="#00B6FF"/>
<circle cx="94.6884" cy="55.9816" r="2.44125" transform="rotate(-60 94.6884 55.9816)" fill="#00B6FF"/>
<circle cx="86.3184" cy="70.4788" r="2.44125" transform="rotate(-60 86.3184 70.4788)" fill="#00B6FF"/>
<circle cx="69.5784" cy="99.4733" r="2.44125" transform="rotate(-60 69.5784 99.4733)" fill="#00B6FF"/>
<circle cx="57.4539" cy="82.8083" r="2.44125" transform="rotate(-60 57.4539 82.8083)" fill="#00B6FF"/>
<circle cx="74.1939" cy="53.8138" r="2.44125" transform="rotate(-60 74.1939 53.8138)" fill="#00B6FF"/>
<circle cx="65.8239" cy="68.3111" r="2.44125" transform="rotate(-60 65.8239 68.3111)" fill="#00B6FF"/>
<circle cx="49.084" cy="97.3057" r="2.44125" transform="rotate(-60 49.084 97.3057)" fill="#00B6FF"/>
<circle cx="82.5639" cy="39.3165" r="2.44125" transform="rotate(-60 82.5639 39.3165)" fill="#00B6FF"/>
<circle cx="61.6389" cy="75.5597" r="2.44125" transform="rotate(-60 61.6389 75.5597)" fill="#00B6FF"/>
<circle cx="78.3789" cy="46.5652" r="2.44125" transform="rotate(-60 78.3789 46.5652)" fill="#00B6FF"/>
<circle cx="70.0089" cy="61.0625" r="2.44125" transform="rotate(-60 70.0089 61.0625)" fill="#00B6FF"/>
<circle cx="53.269" cy="90.057" r="2.44125" transform="rotate(-60 53.269 90.057)" fill="#00B6FF"/>
<circle cx="90.0728" cy="101.641" r="2.44125" transform="rotate(-60 90.0728 101.641)" fill="#00B6FF"/>
<circle cx="106.813" cy="72.6464" r="2.44125" transform="rotate(-60 106.813 72.6464)" fill="#00B6FF"/>
<circle cx="98.4428" cy="87.1435" r="2.44125" transform="rotate(-60 98.4428 87.1435)" fill="#00B6FF"/>
<circle cx="115.183" cy="58.149" r="2.44125" transform="rotate(-60 115.183 58.149)" fill="#00B6FF"/>
<circle cx="94.2578" cy="94.3922" r="2.44125" transform="rotate(-60 94.2578 94.3922)" fill="#00B6FF"/>
<circle cx="110.998" cy="65.3977" r="2.44125" transform="rotate(-60 110.998 65.3977)" fill="#00B6FF"/>
<circle cx="102.628" cy="79.895" r="2.44125" transform="rotate(-60 102.628 79.895)" fill="#00B6FF"/>
<circle cx="85.8878" cy="108.89" r="2.44125" transform="rotate(-60 85.8878 108.89)" fill="#00B6FF"/>
</mask>
<g mask="url(#mask0_350_701)">
<path fill-rule="evenodd" clip-rule="evenodd" d="M94.8713 47.1483C89.1471 43.1262 82.1711 40.765 74.6437 40.765C55.1902 40.765 39.42 56.5352 39.42 75.9888C39.42 95.4423 55.1902 111.213 74.6437 111.213C82.1711 111.213 89.1471 108.851 94.8713 104.829V47.1483Z" fill="#FFC8C1"/>
</g>
<line x1="95.9175" y1="114.711" x2="95.9175" y2="120.64" stroke="white" stroke-width="2.0925"/>
<line x1="95.9175" y1="103.551" x2="95.9175" y2="109.48" stroke="white" stroke-width="2.0925"/>
<line x1="95.9175" y1="92.3912" x2="95.9175" y2="98.32" stroke="white" stroke-width="2.0925"/>
<line x1="95.9175" y1="53.3312" x2="95.9175" y2="59.2599" stroke="white" stroke-width="2.0925"/>
<line x1="95.9175" y1="42.1713" x2="95.9175" y2="48.1" stroke="white" stroke-width="2.0925"/>
<line x1="95.9175" y1="31.0112" x2="95.9175" y2="36.94" stroke="white" stroke-width="2.0925"/>
<line x1="95.9175" y1="76" x2="95.9175" y2="81.9287" stroke="white" stroke-width="2.0925"/>
<rect x="73.2488" y="51.2388" width="44.64" height="44.64" rx="5.58" fill="white"/>
<path d="M180.103 54.2877C180.016 53.2081 179.611 52.366 178.888 51.7615C178.176 51.1569 177.091 50.8546 175.633 50.8546C174.705 50.8546 173.944 50.968 173.35 51.1947C172.767 51.4106 172.335 51.7075 172.054 52.0853C171.774 52.4632 171.628 52.895 171.617 53.3808C171.596 53.7803 171.666 54.1419 171.828 54.4658C172 54.7789 172.27 55.0649 172.637 55.324C173.004 55.5723 173.474 55.799 174.046 56.0042C174.618 56.2093 175.299 56.3928 176.087 56.5547L178.807 57.1377C180.642 57.5263 182.213 58.0391 183.519 58.6761C184.826 59.313 185.894 60.0633 186.726 60.927C187.557 61.7798 188.167 62.7406 188.556 63.8094C188.955 64.8782 189.16 66.0441 189.171 67.3072C189.16 69.4879 188.615 71.3339 187.535 72.8453C186.456 74.3567 184.912 75.5065 182.904 76.2945C180.907 77.0826 178.505 77.4767 175.698 77.4767C172.816 77.4767 170.3 77.0502 168.152 76.1974C166.014 75.3445 164.352 74.0329 163.164 72.2624C161.988 70.4811 161.394 68.2032 161.383 65.4287H169.933C169.987 66.4435 170.241 67.2964 170.694 67.9873C171.148 68.6782 171.785 69.2018 172.605 69.5581C173.436 69.9143 174.424 70.0924 175.568 70.0924C176.529 70.0924 177.334 69.9737 177.981 69.7362C178.629 69.4987 179.12 69.1694 179.455 68.7484C179.79 68.3274 179.962 67.847 179.973 67.3072C179.962 66.7998 179.795 66.3572 179.471 65.9793C179.158 65.5907 178.64 65.2452 177.916 64.9429C177.193 64.6299 176.216 64.3384 174.985 64.0685L171.682 63.356C168.746 62.719 166.43 61.6557 164.735 60.1659C163.051 58.6653 162.214 56.6195 162.225 54.0286C162.214 51.9234 162.776 50.0828 163.909 48.5066C165.054 46.9196 166.635 45.6835 168.654 44.7983C170.683 43.9131 173.01 43.4704 175.633 43.4704C178.311 43.4704 180.626 43.9185 182.58 44.8145C184.534 45.7105 186.04 46.9736 187.098 48.6038C188.167 50.2231 188.707 52.1177 188.718 54.2877H180.103ZM192.14 77.088V43.9239H201.143V56.8786H213.062V43.9239H222.065V77.088H213.062V64.1333H201.143V77.088H192.14ZM225.884 77.088V43.9239H249.786V51.1785H234.888V56.8786H248.555V64.1333H234.888V69.8334H249.721V77.088H225.884ZM253.795 77.088V43.9239H268.11C270.572 43.9239 272.725 44.3719 274.571 45.2679C276.417 46.164 277.853 47.454 278.879 49.1381C279.904 50.8223 280.417 52.841 280.417 55.1945C280.417 57.5695 279.888 59.5721 278.83 61.2023C277.783 62.8324 276.309 64.0631 274.409 64.8944C272.52 65.7256 270.312 66.1413 267.786 66.1413H259.236V59.1457H265.973C267.031 59.1457 267.932 59.0161 268.677 58.757C269.433 58.4872 270.01 58.0607 270.41 57.4778C270.82 56.8948 271.025 56.1337 271.025 55.1945C271.025 54.2445 270.82 53.4726 270.41 52.8788C270.01 52.2743 269.433 51.8317 268.677 51.551C267.932 51.2595 267.031 51.1137 265.973 51.1137H262.799V77.088H253.795ZM273.227 61.8662L281.518 77.088H271.738L263.641 61.8662H273.227ZM292.803 43.9239V77.088H283.799V43.9239H292.803ZM296.614 77.088V43.9239H319.932V51.1785H305.617V56.8786H318.507V64.1333H305.617V77.088H296.614Z" fill="white"/>
<path d="M182.552 83.2332V87.4638H170.323V83.2332H182.552ZM173.1 78.368H178.732V97.2999C178.732 97.8199 178.811 98.2253 178.97 98.5162C179.128 98.7982 179.349 98.9965 179.631 99.1111C179.922 99.2257 180.257 99.2829 180.636 99.2829C180.9 99.2829 181.164 99.2609 181.429 99.2168C181.693 99.164 181.896 99.1243 182.037 99.0979L182.923 103.289C182.641 103.377 182.244 103.478 181.733 103.593C181.222 103.716 180.6 103.791 179.869 103.818C178.511 103.87 177.322 103.69 176.299 103.276C175.286 102.861 174.497 102.218 173.933 101.345C173.369 100.473 173.091 99.3711 173.1 98.0402V78.368Z" fill="white"/>
<path d="M191.64 103.923C190.344 103.923 189.189 103.699 188.176 103.249C187.162 102.791 186.36 102.117 185.77 101.226C185.188 100.327 184.897 99.208 184.897 97.8684C184.897 96.7402 185.104 95.7927 185.518 95.0259C185.933 94.2591 186.497 93.6422 187.211 93.1751C187.925 92.7079 188.735 92.3554 189.643 92.1174C190.56 91.8794 191.521 91.712 192.525 91.615C193.706 91.4916 194.658 91.3771 195.381 91.2713C196.104 91.1567 196.628 90.9893 196.954 90.7689C197.28 90.5486 197.443 90.2225 197.443 89.7906V89.7113C197.443 88.874 197.179 88.2262 196.65 87.7679C196.13 87.3095 195.39 87.0804 194.429 87.0804C193.415 87.0804 192.609 87.3051 192.01 87.7546C191.41 88.1953 191.014 88.7506 190.82 89.4204L185.611 88.9974C185.875 87.7634 186.395 86.697 187.171 85.798C187.947 84.8902 188.947 84.1939 190.172 83.7091C191.406 83.2156 192.834 82.9688 194.455 82.9688C195.584 82.9688 196.663 83.101 197.695 83.3654C198.735 83.6298 199.656 84.0397 200.458 84.5949C201.268 85.1502 201.907 85.8641 202.375 86.7366C202.842 87.6004 203.075 88.636 203.075 89.8435V103.54H197.734V100.724H197.576C197.249 101.359 196.813 101.918 196.267 102.403C195.72 102.879 195.064 103.254 194.297 103.527C193.53 103.791 192.644 103.923 191.64 103.923ZM193.252 100.037C194.081 100.037 194.812 99.8735 195.447 99.5474C196.082 99.2124 196.58 98.7629 196.941 98.1989C197.302 97.6348 197.483 96.9958 197.483 96.2819V94.1269C197.307 94.2415 197.064 94.3473 196.756 94.4442C196.456 94.5324 196.117 94.6161 195.738 94.6954C195.359 94.7659 194.98 94.832 194.601 94.8937C194.222 94.9466 193.878 94.9951 193.57 95.0392C192.909 95.1361 192.331 95.2903 191.838 95.5019C191.344 95.7134 190.961 95.9998 190.688 96.3612C190.414 96.7138 190.278 97.1544 190.278 97.6833C190.278 98.4501 190.555 99.0362 191.111 99.4416C191.675 99.8382 192.389 100.037 193.252 100.037Z" fill="white"/>
<path d="M207.072 103.54V83.2332H212.532V86.7763H212.744C213.114 85.516 213.736 84.5641 214.608 83.9207C215.481 83.2685 216.485 82.9424 217.622 82.9424C217.904 82.9424 218.208 82.96 218.535 82.9952C218.861 83.0305 219.147 83.079 219.394 83.1407V88.138C219.13 88.0587 218.764 87.9882 218.297 87.9265C217.829 87.8648 217.402 87.834 217.014 87.834C216.186 87.834 215.445 88.0146 214.793 88.376C214.15 88.7285 213.639 89.2221 213.26 89.8567C212.889 90.4913 212.704 91.2228 212.704 92.0513V103.54H207.072Z" fill="white"/>
<path d="M221.933 103.54V83.2332H227.565V103.54H221.933Z" fill="white"/>
<path d="M245.123 108.016V100.288H244.952C244.687 100.852 244.313 101.411 243.828 101.967C243.352 102.513 242.731 102.967 241.964 103.328C241.206 103.69 240.28 103.87 239.187 103.87C237.645 103.87 236.248 103.474 234.997 102.681C233.754 101.879 232.767 100.702 232.035 99.1507C231.312 97.5907 230.951 95.6781 230.951 93.413C230.951 91.0862 231.326 89.1516 232.075 87.6092C232.824 86.058 233.82 84.899 235.063 84.1322C236.314 83.3566 237.685 82.9688 239.174 82.9688C240.311 82.9688 241.259 83.1627 242.017 83.5505C242.783 83.9295 243.4 84.4054 243.868 84.9783C244.343 85.5424 244.705 86.0977 244.952 86.6441H245.19V83.2332H250.742V108.016H245.123ZM240.972 99.3887C241.88 99.3887 242.647 99.1419 243.273 98.6484C243.907 98.146 244.392 97.4453 244.727 96.5463C245.071 95.6473 245.242 94.5941 245.242 93.3866C245.242 92.1791 245.075 91.1303 244.74 90.2401C244.405 89.3499 243.92 88.6624 243.286 88.1777C242.651 87.6929 241.88 87.4506 240.972 87.4506C240.047 87.4506 239.267 87.7017 238.632 88.2041C237.998 88.7065 237.517 89.4028 237.191 90.293C236.865 91.1832 236.702 92.2144 236.702 93.3866C236.702 94.5676 236.865 95.612 237.191 96.5199C237.526 97.4189 238.006 98.1239 238.632 98.6351C239.267 99.1375 240.047 99.3887 240.972 99.3887Z" fill="white"/>
<path d="M92.7313 67.1624C92.6255 66.096 92.1716 65.2675 91.3696 64.677C90.5675 64.0865 89.479 63.7912 88.1041 63.7912C87.1699 63.7912 86.381 63.9234 85.7376 64.1878C85.0942 64.4434 84.6007 64.8004 84.2569 65.2587C83.922 65.717 83.7545 66.237 83.7545 66.8187C83.7369 67.3035 83.8383 67.7265 84.0586 68.0879C84.2878 68.4492 84.6007 68.7621 84.9973 69.0265C85.3939 69.2821 85.8522 69.5069 86.3722 69.7008C86.8922 69.8859 87.4475 70.0445 88.038 70.1767L90.4706 70.7584C91.6516 71.0228 92.7357 71.3754 93.7228 71.8161C94.71 72.2568 95.5649 72.7988 96.2876 73.4422C97.0104 74.0856 97.57 74.8436 97.9666 75.7161C98.3721 76.5887 98.5792 77.5891 98.588 78.7172C98.5792 80.3742 98.1561 81.8108 97.3188 83.0271C96.4903 84.2346 95.2917 85.1732 93.7228 85.8431C92.1628 86.5041 90.2811 86.8346 88.0777 86.8346C85.8919 86.8346 83.9881 86.4997 82.3664 85.8299C80.7535 85.16 79.4931 84.1685 78.5853 82.8552C77.6863 81.5332 77.2148 79.8982 77.1707 77.9504H82.7101C82.7718 78.8582 83.0318 79.6162 83.4901 80.2244C83.9573 80.8237 84.5786 81.2776 85.3542 81.5861C86.1387 81.8857 87.0244 82.0356 88.0116 82.0356C88.9811 82.0356 89.8228 81.8945 90.5367 81.6125C91.2594 81.3305 91.8191 80.9383 92.2157 80.4359C92.6123 79.9335 92.8106 79.3562 92.8106 78.704C92.8106 78.0958 92.6299 77.5846 92.2686 77.1704C91.916 76.7562 91.396 76.4036 90.7086 76.1128C90.0299 75.8219 89.197 75.5575 88.2099 75.3195L85.2617 74.5792C82.9789 74.0239 81.1765 73.1558 79.8545 71.9747C78.5324 70.7937 77.8758 69.2028 77.8846 67.2021C77.8758 65.5628 78.3121 64.1305 79.1935 62.9054C80.0836 61.6803 81.3043 60.724 82.8556 60.0366C84.4068 59.3491 86.1695 59.0054 88.1438 59.0054C90.1533 59.0054 91.9072 59.3491 93.4055 60.0366C94.9127 60.724 96.0849 61.6803 96.9222 62.9054C97.7595 64.1305 98.1914 65.5495 98.2178 67.1624H92.7313Z" fill="#121212"/>
<path d="M112.762 66.1445V70.375H100.533V66.1445H112.762ZM103.309 61.2793H108.941V80.2111C108.941 80.7311 109.02 81.1366 109.179 81.4274C109.337 81.7095 109.558 81.9078 109.84 82.0223C110.131 82.1369 110.466 82.1942 110.845 82.1942C111.109 82.1942 111.373 82.1722 111.638 82.1281C111.902 82.0752 112.105 82.0356 112.246 82.0091L113.132 86.2C112.85 86.2882 112.453 86.3895 111.942 86.5041C111.431 86.6275 110.809 86.7024 110.078 86.7289C108.721 86.7817 107.531 86.6011 106.508 86.1868C105.495 85.7726 104.706 85.1292 104.142 84.2566C103.578 83.3841 103.3 82.2823 103.309 80.9515V61.2793Z" fill="#121212"/>
</svg>
