<svg width="583" height="128" viewBox="0 0 583 128" fill="none" xmlns="http://www.w3.org/2000/svg">
<path d="M514.798 55.5701H574.734V81.8465H514.798V55.5701ZM518.273 125.061H483.961V0.194336H582.118V26.4707H518.273V125.061Z" fill="#2C2C2C"/>
<path d="M398.898 55.5701H458.834V81.8465H398.898V55.5701ZM402.372 125.061H368.061V0.194336H466.217V26.4707H402.372V125.061Z" fill="#2C2C2C"/>
<path d="M281.295 127.45C268.989 127.45 258.421 125.206 249.59 120.718C240.759 116.23 233.954 109.788 229.177 101.391C224.544 92.8493 222.228 82.7875 222.228 71.2057V0.194336H256.539V70.1199C256.539 79.8197 258.71 87.1307 263.054 92.053C267.397 96.9753 273.622 99.4365 281.729 99.4365C289.837 99.4365 295.99 96.9753 300.188 92.053C304.386 87.1307 306.486 79.8197 306.486 70.1199V0.194336H340.363V71.2057C340.363 82.7875 338.046 92.8493 333.413 101.391C328.781 109.788 322.049 116.23 313.218 120.718C304.386 125.206 293.746 127.45 281.295 127.45Z" fill="#2C2C2C"/>
<path d="M115.901 125.061V0.194336H150.212V98.3507H211.234V125.061H115.901Z" fill="#2C2C2C"/>
<path d="M30.8367 55.5701H90.7729V81.8465H30.8367V55.5701ZM34.3113 125.061H0V0.194336H98.1563V26.4707H34.3113V125.061Z" fill="#2C2C2C"/>
</svg>
