<svg width="1194" height="248" viewBox="0 0 1194 248" fill="none" xmlns="http://www.w3.org/2000/svg">
<rect x="134" y="120" width="116" height="32" fill="#085A31"/>
<path d="M192 163L184.206 149.5L199.794 149.5L192 163Z" fill="#085A31"/>
<path d="M142.837 127.545H147.388L152.195 139.273H152.4L157.207 127.545H161.758V145H158.178V133.639H158.033L153.516 144.915H151.079L146.562 133.597H146.417V145H142.837V127.545ZM165.798 145V127.545H177.56V130.588H169.489V134.747H176.955V137.79H169.489V141.957H177.594V145H165.798ZM184.954 127.545L188.474 133.494H188.61L192.147 127.545H196.315L190.988 136.273L196.434 145H192.19L188.61 139.043H188.474L184.894 145H180.667L186.13 136.273L180.769 127.545H184.954ZM203.34 127.545V145H199.65V127.545H203.34ZM222.777 133.656H219.044C218.976 133.173 218.837 132.744 218.626 132.369C218.416 131.989 218.146 131.665 217.817 131.398C217.487 131.131 217.107 130.926 216.675 130.784C216.249 130.642 215.786 130.571 215.286 130.571C214.382 130.571 213.595 130.795 212.925 131.244C212.254 131.687 211.734 132.335 211.365 133.188C210.996 134.034 210.811 135.062 210.811 136.273C210.811 137.517 210.996 138.562 211.365 139.409C211.74 140.256 212.263 140.895 212.933 141.327C213.604 141.759 214.379 141.974 215.26 141.974C215.754 141.974 216.212 141.909 216.632 141.778C217.058 141.648 217.436 141.457 217.766 141.207C218.095 140.952 218.368 140.642 218.584 140.278C218.805 139.915 218.959 139.5 219.044 139.034L222.777 139.051C222.68 139.852 222.439 140.625 222.053 141.369C221.672 142.108 221.158 142.77 220.51 143.355C219.868 143.935 219.101 144.395 218.209 144.736C217.322 145.071 216.32 145.239 215.2 145.239C213.643 145.239 212.251 144.886 211.024 144.182C209.803 143.477 208.837 142.457 208.126 141.122C207.422 139.787 207.07 138.17 207.07 136.273C207.07 134.369 207.428 132.75 208.143 131.415C208.859 130.08 209.831 129.062 211.058 128.364C212.286 127.659 213.666 127.307 215.2 127.307C216.212 127.307 217.149 127.449 218.013 127.733C218.882 128.017 219.652 128.432 220.322 128.977C220.993 129.517 221.538 130.179 221.959 130.963C222.385 131.747 222.658 132.645 222.777 133.656ZM242.463 136.273C242.463 138.176 242.102 139.795 241.381 141.131C240.665 142.466 239.688 143.486 238.449 144.19C237.216 144.889 235.83 145.239 234.29 145.239C232.739 145.239 231.347 144.886 230.114 144.182C228.881 143.477 227.906 142.457 227.19 141.122C226.474 139.787 226.116 138.17 226.116 136.273C226.116 134.369 226.474 132.75 227.19 131.415C227.906 130.08 228.881 129.062 230.114 128.364C231.347 127.659 232.739 127.307 234.29 127.307C235.83 127.307 237.216 127.659 238.449 128.364C239.688 129.062 240.665 130.08 241.381 131.415C242.102 132.75 242.463 134.369 242.463 136.273ZM238.722 136.273C238.722 135.04 238.537 134 238.168 133.153C237.804 132.307 237.29 131.665 236.625 131.227C235.96 130.79 235.182 130.571 234.29 130.571C233.398 130.571 232.619 130.79 231.955 131.227C231.29 131.665 230.773 132.307 230.403 133.153C230.04 134 229.858 135.04 229.858 136.273C229.858 137.506 230.04 138.545 230.403 139.392C230.773 140.239 231.29 140.881 231.955 141.318C232.619 141.756 233.398 141.974 234.29 141.974C235.182 141.974 235.96 141.756 236.625 141.318C237.29 140.881 237.804 140.239 238.168 139.392C238.537 138.545 238.722 137.506 238.722 136.273Z" fill="#FBFD5E"/>
</svg>
