<svg width="382" height="384" viewBox="0 0 382 384" fill="none" xmlns="http://www.w3.org/2000/svg">
<circle cx="232.75" cy="98.1363" r="6.47727" fill="#46CAFF"/>
<circle cx="6.47727" cy="6.47727" r="6.47727" transform="matrix(1 0 0 -1 265.136 135.705)" fill="#46CAFF"/>
<circle cx="6.47727" cy="6.47727" r="6.47727" transform="matrix(1 0 0 -1 283.273 191.409)" fill="#46CAFF"/>
<circle cx="6.47727" cy="6.47727" r="6.47727" transform="matrix(1 0 0 -1 256.068 256.182)" fill="#46CAFF"/>
<circle cx="3.88636" cy="3.88636" r="3.88636" transform="matrix(1 0 0 -1 272.909 235.455)" fill="#46CAFF"/>
<circle cx="3.88636" cy="3.88636" r="3.88636" transform="matrix(1 0 0 -1 276.795 226.386)" fill="#46CAFF"/>
<circle cx="3.88636" cy="3.88636" r="3.88636" transform="matrix(1 0 0 -1 281.977 209.545)" fill="#46CAFF"/>
<circle cx="3.88636" cy="3.88636" r="3.88636" transform="matrix(1 0 0 -1 281.977 162.909)" fill="#46CAFF"/>
<circle cx="3.88636" cy="3.88636" r="3.88636" transform="matrix(1 0 0 -1 275.5 146.068)" fill="#46CAFF"/>
<circle cx="3.88636" cy="3.88636" r="3.88636" transform="matrix(1 0 0 -1 209.432 95.5454)" fill="#46CAFF"/>
<circle cx="219.796" cy="274.318" r="6.47727" fill="#46CAFF"/>
<circle cx="239.227" cy="267.841" r="6.47727" fill="#46CAFF"/>
<circle cx="249.591" cy="261.364" r="6.47727" fill="#46CAFF"/>
<circle cx="6.47727" cy="6.47727" r="6.47727" transform="matrix(1 0 0 -1 145.955 274.318)" fill="#46CAFF"/>
<circle cx="126.523" cy="249.705" r="9.06818" fill="#46CAFF"/>
<circle cx="113.568" cy="231.568" r="15.5455" fill="#46CAFF"/>
<circle cx="99.3182" cy="181.045" r="9.06818" fill="#46CAFF"/>
<circle cx="117.454" cy="129.227" r="9.06818" fill="#46CAFF"/>
<circle cx="144.659" cy="103.318" r="9.06818" fill="#46CAFF"/>
<circle cx="175.75" cy="91.6592" r="6.47727" fill="#46CAFF"/>
<circle cx="280.682" cy="-6.79541" r="14.25" fill="#46CAFF"/>
<circle cx="14.25" cy="14.25" r="14.25" transform="matrix(1 0 0 -1 351.932 76.1136)" fill="#46CAFF"/>
<circle cx="7.77273" cy="7.77273" r="7.77273" transform="matrix(1 0 0 -1 340.273 337.795)" fill="#46CAFF"/>
<ellipse cx="9.06818" cy="8.42045" rx="9.06818" ry="8.42045" transform="matrix(1 0 0 -1 366.182 297.636)" fill="#46CAFF"/>
<circle cx="8.42045" cy="8.42045" r="8.42045" transform="matrix(1 0 0 -1 379.136 276.909)" fill="#46CAFF"/>
<circle cx="8.42045" cy="8.42045" r="8.42045" transform="matrix(1 0 0 -1 377.841 103.318)" fill="#46CAFF"/>
<circle cx="265.137" cy="381.841" r="9.06818" fill="#46CAFF"/>
<circle cx="139.477" cy="385.727" r="5.18182" fill="#46CAFF"/>
<circle cx="293.636" cy="367.591" r="14.25" fill="#46CAFF"/>
<circle cx="313.068" cy="358.523" r="11.6591" fill="#46CAFF"/>
<circle cx="14.25" cy="14.25" r="14.25" transform="matrix(1 0 0 -1 90.25 381.841)" fill="#46CAFF"/>
<circle cx="45.5566" cy="333.261" r="20.0795" fill="#46CAFF"/>
<ellipse cx="13.1705" cy="291.159" rx="8.42045" ry="7.77273" fill="#46CAFF"/>
<ellipse cx="4.1021" cy="271.727" rx="8.42045" ry="7.77273" fill="#46CAFF"/>
<ellipse cx="-17.9205" cy="178.455" rx="20.0795" ry="19.4318" fill="#46CAFF"/>
<circle cx="21.591" cy="63.1591" r="19.4318" fill="#46CAFF"/>
<ellipse cx="88.9548" cy="2.92049" rx="5.18182" ry="5.82955" fill="#46CAFF"/>
<ellipse cx="73.4089" cy="14.5795" rx="5.18182" ry="5.82955" fill="#46CAFF"/>
<ellipse cx="59.1589" cy="23.6478" rx="5.18182" ry="5.82955" fill="#46CAFF"/>
<circle cx="276.795" cy="54.0909" r="10.3636" fill="#46CAFF"/>
<circle cx="10.3636" cy="10.3636" r="10.3636" transform="matrix(1 0 0 -1 310.477 105.909)" fill="#46CAFF"/>
<circle cx="16.8409" cy="16.8409" r="16.8409" transform="matrix(1 0 0 -1 335.091 201.773)" fill="#46CAFF"/>
<ellipse cx="6.47727" cy="7.125" rx="6.47727" ry="7.125" transform="matrix(1 0 0 -1 300.114 298.932)" fill="#46CAFF"/>
<circle cx="5.82955" cy="5.82955" r="5.82955" transform="matrix(1 0 0 -1 323.432 267.841)" fill="#46CAFF"/>
<circle cx="7.125" cy="7.125" r="7.125" transform="matrix(1 0 0 -1 335.091 243.227)" fill="#46CAFF"/>
<circle cx="18.1364" cy="18.1364" r="18.1364" transform="matrix(1 0 0 -1 328.614 231.568)" fill="#46CAFF"/>
<circle cx="6.47727" cy="6.47727" r="6.47727" transform="matrix(1 0 0 -1 337.682 149.955)" fill="#46CAFF"/>
<circle cx="6.47727" cy="6.47727" r="6.47727" transform="matrix(1 0 0 -1 327.318 122.75)" fill="#46CAFF"/>
<circle cx="6.47727" cy="6.47727" r="6.47727" transform="matrix(1 0 0 -1 243.114 43.7273)" fill="#46CAFF"/>
<circle cx="6.47727" cy="6.47727" r="6.47727" transform="matrix(1 0 0 -1 230.159 41.1364)" fill="#46CAFF"/>
<circle cx="6.47727" cy="6.47727" r="6.47727" transform="matrix(1 0 0 -1 217.205 37.25)" fill="#46CAFF"/>
<circle cx="6.47727" cy="6.47727" r="6.47727" transform="matrix(1 0 0 -1 193.886 34.6591)" fill="#46CAFF"/>
<circle cx="6.47727" cy="6.47727" r="6.47727" transform="matrix(1 0 0 -1 138.182 41.1364)" fill="#46CAFF"/>
<circle cx="6.47727" cy="6.47727" r="6.47727" transform="matrix(1 0 0 -1 88.9546 68.3409)" fill="#46CAFF"/>
<circle cx="6.47727" cy="6.47727" r="6.47727" transform="matrix(1 0 0 -1 78.5908 81.2954)" fill="#46CAFF"/>
<circle cx="6.47727" cy="6.47727" r="6.47727" transform="matrix(1 0 0 -1 50.0908 120.159)" fill="#46CAFF"/>
<circle cx="6.47727" cy="6.47727" r="6.47727" transform="matrix(1 0 0 -1 46.2046 129.227)" fill="#46CAFF"/>
<circle cx="6.47727" cy="6.47727" r="6.47727" transform="matrix(1 0 0 -1 39.7271 142.182)" fill="#46CAFF"/>
<circle cx="6.47727" cy="6.47727" r="6.47727" transform="matrix(1 0 0 -1 33.25 168.091)" fill="#46CAFF"/>
<circle cx="6.47727" cy="6.47727" r="6.47727" transform="matrix(1 0 0 -1 31.9546 205.659)" fill="#46CAFF"/>
<circle cx="6.47727" cy="6.47727" r="6.47727" transform="matrix(1 0 0 -1 37.1362 228.977)" fill="#46CAFF"/>
<circle cx="6.47727" cy="6.47727" r="6.47727" transform="matrix(1 0 0 -1 133 336.5)" fill="#46CAFF"/>
<circle cx="6.47727" cy="6.47727" r="6.47727" transform="matrix(1 0 0 -1 145.955 340.386)" fill="#46CAFF"/>
<circle cx="6.47727" cy="6.47727" r="6.47727" transform="matrix(1 0 0 -1 179.636 346.864)" fill="#46CAFF"/>
<circle cx="6.47727" cy="6.47727" r="6.47727" transform="matrix(1 0 0 -1 204.25 344.273)" fill="#46CAFF"/>
<circle cx="236.637" cy="331.318" r="10.3636" fill="#46CAFF"/>
<circle cx="267.727" cy="320.955" r="10.3636" fill="#46CAFF"/>
<ellipse cx="285.216" cy="310.591" rx="13.6023" ry="12.9545" fill="#46CAFF"/>
<circle cx="10.3636" cy="10.3636" r="10.3636" transform="matrix(1 0 0 -1 116.159 331.318)" fill="#46CAFF"/>
<circle cx="84.4207" cy="291.807" r="14.8977" fill="#46CAFF"/>
<circle cx="63.693" cy="262.011" r="25.2614" fill="#46CAFF"/>
<ellipse cx="40.3748" cy="179.75" rx="14.8977" ry="14.25" fill="#46CAFF"/>
<circle cx="70.1707" cy="94.8977" r="14.8977" fill="#46CAFF"/>
<circle cx="114.216" cy="53.4431" r="14.8977" fill="#46CAFF"/>
<ellipse cx="164.738" cy="34.659" rx="11.0114" ry="10.3636" fill="#46CAFF"/>
</svg>
