<svg width="483" height="384" viewBox="0 0 483 384" fill="none" xmlns="http://www.w3.org/2000/svg">
<circle cx="286.751" cy="108.136" r="6.47727" fill="#6D54A7"/>
<circle cx="6.47727" cy="6.47727" r="6.47727" transform="matrix(1 0 0 -1 319.137 145.704)" fill="#6D54A7"/>
<circle cx="6.47727" cy="6.47727" r="6.47727" transform="matrix(1 0 0 -1 337.273 201.409)" fill="#6D54A7"/>
<circle cx="6.47727" cy="6.47727" r="6.47727" transform="matrix(1 0 0 -1 310.066 266.182)" fill="#6D54A7"/>
<circle cx="3.88636" cy="3.88636" r="3.88636" transform="matrix(1 0 0 -1 326.91 245.454)" fill="#6D54A7"/>
<circle cx="3.88636" cy="3.88636" r="3.88636" transform="matrix(1 0 0 -1 330.797 236.387)" fill="#6D54A7"/>
<circle cx="3.88636" cy="3.88636" r="3.88636" transform="matrix(1 0 0 -1 335.977 219.546)" fill="#6D54A7"/>
<circle cx="3.88636" cy="3.88636" r="3.88636" transform="matrix(1 0 0 -1 335.977 172.909)" fill="#6D54A7"/>
<circle cx="3.88636" cy="3.88636" r="3.88636" transform="matrix(1 0 0 -1 329.5 156.068)" fill="#6D54A7"/>
<circle cx="3.88636" cy="3.88636" r="3.88636" transform="matrix(1 0 0 -1 263.434 105.546)" fill="#6D54A7"/>
<circle cx="273.794" cy="284.318" r="6.47727" fill="#6D54A7"/>
<circle cx="293.227" cy="277.841" r="6.47727" fill="#6D54A7"/>
<circle cx="303.591" cy="271.364" r="6.47727" fill="#6D54A7"/>
<circle cx="6.47727" cy="6.47727" r="6.47727" transform="matrix(1 0 0 -1 199.953 284.318)" fill="#6D54A7"/>
<circle cx="180.521" cy="259.705" r="9.06818" fill="#6D54A7"/>
<circle cx="167.569" cy="241.568" r="15.5455" fill="#6D54A7"/>
<circle cx="153.318" cy="191.046" r="9.06818" fill="#6D54A7"/>
<circle cx="171.455" cy="139.227" r="9.06818" fill="#6D54A7"/>
<circle cx="198.658" cy="113.318" r="9.06818" fill="#6D54A7"/>
<circle cx="229.751" cy="101.659" r="6.47727" fill="#6D54A7"/>
<circle cx="334.684" cy="3.2041" r="14.25" fill="#6D54A7"/>
<circle cx="14.25" cy="14.25" r="14.25" transform="matrix(1 0 0 -1 405.934 86.1133)" fill="#6D54A7"/>
<circle cx="14.25" cy="14.25" r="14.25" transform="matrix(1 0 0 -1 443.5 211.772)" fill="#6D54A7"/>
<circle cx="7.77273" cy="7.77273" r="7.77273" transform="matrix(1 0 0 -1 394.273 347.796)" fill="#6D54A7"/>
<ellipse cx="9.06818" cy="8.42045" rx="9.06818" ry="8.42045" transform="matrix(1 0 0 -1 420.184 307.637)" fill="#6D54A7"/>
<circle cx="8.42045" cy="8.42045" r="8.42045" transform="matrix(1 0 0 -1 433.137 286.909)" fill="#6D54A7"/>
<circle cx="8.42045" cy="8.42045" r="8.42045" transform="matrix(1 0 0 -1 446.09 253.228)" fill="#6D54A7"/>
<circle cx="8.42045" cy="8.42045" r="8.42045" transform="matrix(1 0 0 -1 440.91 149.591)" fill="#6D54A7"/>
<circle cx="8.42045" cy="8.42045" r="8.42045" transform="matrix(1 0 0 -1 431.84 113.318)" fill="#6D54A7"/>
<circle cx="319.135" cy="391.841" r="9.06818" fill="#6D54A7"/>
<circle cx="347.637" cy="377.591" r="14.25" fill="#6D54A7"/>
<circle cx="367.069" cy="368.522" r="11.6591" fill="#6D54A7"/>
<circle cx="14.25" cy="14.25" r="14.25" transform="matrix(1 0 0 -1 144.25 391.841)" fill="#6D54A7"/>
<circle cx="99.5561" cy="343.261" r="20.0795" fill="#6D54A7"/>
<ellipse cx="67.1705" cy="301.159" rx="8.42045" ry="7.77273" fill="#6D54A7"/>
<ellipse cx="58.104" cy="281.727" rx="8.42045" ry="7.77273" fill="#6D54A7"/>
<ellipse cx="42.5572" cy="233.795" rx="8.42045" ry="7.77273" fill="#6D54A7"/>
<ellipse cx="36.0795" cy="188.454" rx="20.0795" ry="19.4318" fill="#6D54A7"/>
<circle cx="75.592" cy="73.1594" r="19.4318" fill="#6D54A7"/>
<ellipse cx="142.955" cy="12.9204" rx="5.18182" ry="5.82955" fill="#6D54A7"/>
<ellipse cx="127.408" cy="24.5795" rx="5.18182" ry="5.82955" fill="#6D54A7"/>
<ellipse cx="113.158" cy="33.6479" rx="5.18182" ry="5.82955" fill="#6D54A7"/>
<circle cx="206.434" cy="-9.75" r="14.25" fill="#6D54A7"/>
<circle cx="330.797" cy="64.0912" r="10.3636" fill="#6D54A7"/>
<circle cx="10.3636" cy="10.3636" r="10.3636" transform="matrix(1 0 0 -1 364.477 115.909)" fill="#6D54A7"/>
<circle cx="16.8409" cy="16.8409" r="16.8409" transform="matrix(1 0 0 -1 389.09 211.772)" fill="#6D54A7"/>
<ellipse cx="6.47727" cy="7.125" rx="6.47727" ry="7.125" transform="matrix(1 0 0 -1 354.113 308.932)" fill="#6D54A7"/>
<circle cx="5.82955" cy="5.82955" r="5.82955" transform="matrix(1 0 0 -1 377.434 277.841)" fill="#6D54A7"/>
<circle cx="7.125" cy="7.125" r="7.125" transform="matrix(1 0 0 -1 389.09 253.228)" fill="#6D54A7"/>
<circle cx="18.1364" cy="18.1364" r="18.1364" transform="matrix(1 0 0 -1 382.613 241.568)" fill="#6D54A7"/>
<circle cx="6.47727" cy="6.47727" r="6.47727" transform="matrix(1 0 0 -1 391.684 159.954)" fill="#6D54A7"/>
<circle cx="6.47727" cy="6.47727" r="6.47727" transform="matrix(1 0 0 -1 381.316 132.75)" fill="#6D54A7"/>
<circle cx="6.47727" cy="6.47727" r="6.47727" transform="matrix(1 0 0 -1 297.113 53.7275)" fill="#6D54A7"/>
<circle cx="6.47727" cy="6.47727" r="6.47727" transform="matrix(1 0 0 -1 284.16 51.1367)" fill="#6D54A7"/>
<circle cx="6.47727" cy="6.47727" r="6.47727" transform="matrix(1 0 0 -1 271.203 47.25)" fill="#6D54A7"/>
<circle cx="6.47727" cy="6.47727" r="6.47727" transform="matrix(1 0 0 -1 247.887 44.6592)" fill="#6D54A7"/>
<circle cx="6.47727" cy="6.47727" r="6.47727" transform="matrix(1 0 0 -1 192.184 51.1367)" fill="#6D54A7"/>
<circle cx="6.47727" cy="6.47727" r="6.47727" transform="matrix(1 0 0 -1 142.953 78.3408)" fill="#6D54A7"/>
<circle cx="6.47727" cy="6.47727" r="6.47727" transform="matrix(1 0 0 -1 132.59 91.2959)" fill="#6D54A7"/>
<circle cx="6.47727" cy="6.47727" r="6.47727" transform="matrix(1 0 0 -1 104.09 130.159)" fill="#6D54A7"/>
<circle cx="6.47727" cy="6.47727" r="6.47727" transform="matrix(1 0 0 -1 100.203 139.228)" fill="#6D54A7"/>
<circle cx="6.47727" cy="6.47727" r="6.47727" transform="matrix(1 0 0 -1 93.7266 152.182)" fill="#6D54A7"/>
<circle cx="6.47727" cy="6.47727" r="6.47727" transform="matrix(1 0 0 -1 87.25 178.091)" fill="#6D54A7"/>
<circle cx="6.47727" cy="6.47727" r="6.47727" transform="matrix(1 0 0 -1 85.9531 215.659)" fill="#6D54A7"/>
<circle cx="6.47727" cy="6.47727" r="6.47727" transform="matrix(1 0 0 -1 91.1367 238.978)" fill="#6D54A7"/>
<circle cx="6.47727" cy="6.47727" r="6.47727" transform="matrix(1 0 0 -1 187 346.5)" fill="#6D54A7"/>
<circle cx="6.47727" cy="6.47727" r="6.47727" transform="matrix(1 0 0 -1 199.953 350.387)" fill="#6D54A7"/>
<circle cx="6.47727" cy="6.47727" r="6.47727" transform="matrix(1 0 0 -1 233.637 356.863)" fill="#6D54A7"/>
<circle cx="6.47727" cy="6.47727" r="6.47727" transform="matrix(1 0 0 -1 258.25 354.272)" fill="#6D54A7"/>
<circle cx="290.637" cy="341.318" r="10.3636" fill="#6D54A7"/>
<circle cx="321.727" cy="330.954" r="10.3636" fill="#6D54A7"/>
<ellipse cx="339.216" cy="320.591" rx="13.6023" ry="12.9545" fill="#6D54A7"/>
<circle cx="10.3636" cy="10.3636" r="10.3636" transform="matrix(1 0 0 -1 170.16 341.318)" fill="#6D54A7"/>
<circle cx="138.421" cy="301.807" r="14.8977" fill="#6D54A7"/>
<circle cx="117.695" cy="272.011" r="25.2614" fill="#6D54A7"/>
<ellipse cx="94.3743" cy="189.75" rx="14.8977" ry="14.25" fill="#6D54A7"/>
<circle cx="124.171" cy="104.898" r="14.8977" fill="#6D54A7"/>
<circle cx="168.214" cy="63.4436" r="14.8977" fill="#6D54A7"/>
<ellipse cx="218.738" cy="44.6595" rx="11.0114" ry="10.3636" fill="#6D54A7"/>
</svg>
