<svg width="382" height="384" viewBox="0 0 382 384" fill="none" xmlns="http://www.w3.org/2000/svg">
<line x1="17.5" y1="29" x2="17.5" y2="73" stroke="#FF7575"/>
<line x1="0.5" y1="-1" x2="0.499999" y2="30" stroke="#FF7575"/>
<line x1="64.5" y1="80" x2="64.5" y2="190" stroke="#FF7575"/>
<line x1="6.5" y1="285" x2="6.5" y2="343" stroke="#FF7575"/>
<line x1="50.5" y1="239" x2="50.5" y2="327" stroke="#FF7575"/>
<line x1="25.5" y1="52" x2="25.5" y2="132" stroke="#FF7575" stroke-width="3"/>
<line x1="73.5" y1="102" x2="73.5" y2="212" stroke="#FF7575" stroke-width="5"/>
<line x1="188.5" y1="106" x2="188.5" y2="208" stroke="#FF7575" stroke-width="5"/>
<line x1="260.5" y1="110" x2="260.5" y2="190" stroke="#FF7575" stroke-width="5"/>
<line x1="192.5" y1="242" x2="192.5" y2="347" stroke="#FF7575" stroke-width="5"/>
<line x1="293.5" y1="231" x2="293.5" y2="372" stroke="#FF7575" stroke-width="5"/>
<line x1="293.5" y1="38" x2="293.5" y2="128" stroke="#FF7575" stroke-width="5"/>
<line x1="260.5" y1="268" x2="260.5" y2="359" stroke="#FF7575" stroke-width="5"/>
<line x1="89.5" y1="73" x2="89.5" y2="183" stroke="#FF7575" stroke-width="11"/>
<line x1="89.5" y1="-72" x2="89.5" y2="38" stroke="#FF7575" stroke-width="11"/>
<line x1="89.5" y1="256" x2="89.5" y2="345" stroke="#FF7575" stroke-width="11"/>
<line x1="65.5" y1="231" x2="65.5" y2="319" stroke="#FF7575" stroke-width="5"/>
<line x1="25.5" y1="178" x2="25.5" y2="258" stroke="#FF7575" stroke-width="3"/>
<line x1="352.5" y1="239" x2="352.5" y2="319" stroke="#FF7575" stroke-width="3"/>
<line x1="352.5" y1="98" x2="352.5" y2="178" stroke="#FF7575" stroke-width="3"/>
<line x1="156.5" y1="70" x2="156.5" y2="150" stroke="#FF7575" stroke-width="9"/>
<line x1="156.5" y1="176" x2="156.5" y2="311" stroke="#FF7575" stroke-width="9"/>
<line x1="232.5" y1="176" x2="232.5" y2="256" stroke="#FF7575" stroke-width="9"/>
<line x1="232.5" y1="-10" x2="232.5" y2="87" stroke="#FF7575" stroke-width="9"/>
<line x1="312.5" y1="78" x2="312.5" y2="218" stroke="#FF7575" stroke-width="9"/>
<line x1="367.5" y1="20" x2="367.5" y2="160" stroke="#FF7575" stroke-width="9"/>
<line x1="132.5" y1="54" x2="132.5" y2="134" stroke="#FF7575"/>
<line x1="132.5" y1="179" x2="132.5" y2="338" stroke="#FF7575"/>
<line x1="114.5" y1="303" x2="114.5" y2="413" stroke="#FF7575"/>
<line x1="196.5" y1="120" x2="196.5" y2="200" stroke="#FF7575"/>
<line x1="196.5" y1="-10" x2="196.5" y2="70" stroke="#FF7575"/>
<line x1="344.5" y1="122" x2="344.5" y2="202" stroke="#FF7575"/>
<line x1="342.5" y1="291" x2="342.5" y2="347" stroke="#FF7575"/>
<line x1="330.5" y1="24" x2="330.5" y2="104" stroke="#FF7575"/>
<line x1="204.5" y1="255" x2="204.5" y2="335" stroke="#FF7575"/>
<line x1="184.5" y1="323" x2="184.5" y2="364" stroke="#FF7575"/>
<line x1="268.5" y1="126" x2="268.5" y2="206" stroke="#FF7575"/>
<line x1="243.5" y1="162" x2="243.5" y2="242" stroke="#FF7575"/>
<line x1="243.5" y1="291" x2="243.5" y2="354" stroke="#FF7575"/>
<line x1="312.5" y1="306" x2="312.5" y2="454" stroke="#FF7575" stroke-width="9"/>
</svg>
