<svg width="1194" height="248" viewBox="0 0 1194 248" fill="none" xmlns="http://www.w3.org/2000/svg">
<rect x="580" y="56" width="130" height="32" fill="#085A31"/>
<path d="M645 99L636.265 85.5L653.735 85.5L645 99Z" fill="#085A31"/>
<path d="M601.445 63.5455H605.136V74.8807C605.136 76.1534 604.832 77.267 604.224 78.2216C603.622 79.1761 602.778 79.9205 601.693 80.4545C600.607 80.983 599.343 81.2472 597.9 81.2472C596.451 81.2472 595.184 80.983 594.099 80.4545C593.014 79.9205 592.17 79.1761 591.568 78.2216C590.965 77.267 590.664 76.1534 590.664 74.8807V63.5455H594.354V74.5653C594.354 75.2301 594.499 75.821 594.789 76.3381C595.085 76.8551 595.499 77.2614 596.033 77.5568C596.568 77.8523 597.19 78 597.9 78C598.616 78 599.238 77.8523 599.766 77.5568C600.301 77.2614 600.712 76.8551 601.002 76.3381C601.298 75.821 601.445 75.2301 601.445 74.5653V63.5455ZM609.172 81V63.5455H612.862V71.2415H613.092L619.374 63.5455H623.797L617.32 71.3608L623.874 81H619.459L614.678 73.8239L612.862 76.0398V81H609.172ZM626.719 81V63.5455H633.605C634.923 63.5455 636.048 63.7812 636.98 64.2528C637.918 64.7187 638.631 65.3807 639.119 66.2386C639.614 67.0909 639.861 68.0937 639.861 69.2472C639.861 70.4062 639.611 71.4034 639.111 72.2386C638.611 73.0682 637.886 73.7045 636.938 74.1477C635.994 74.5909 634.852 74.8125 633.511 74.8125H628.901V71.8466H632.915C633.619 71.8466 634.205 71.75 634.671 71.5568C635.136 71.3636 635.483 71.0739 635.71 70.6875C635.943 70.3011 636.06 69.821 636.06 69.2472C636.06 68.6676 635.943 68.179 635.71 67.7812C635.483 67.3835 635.134 67.0824 634.662 66.8778C634.196 66.6676 633.608 66.5625 632.898 66.5625H630.409V81H626.719ZM636.145 73.0568L640.483 81H636.409L632.165 73.0568H636.145ZM646.477 81H642.523L648.548 63.5455H653.304L659.321 81H655.367L650.994 67.5341H650.858L646.477 81ZM646.23 74.1392H655.571V77.0199H646.23V74.1392ZM666.112 63.5455V81H662.422V63.5455H666.112ZM684.748 63.5455V81H681.56L673.967 70.0142H673.839V81H670.149V63.5455H673.387L680.921 74.5227H681.075V63.5455H684.748ZM688.797 81V63.5455H700.558V66.5881H692.487V70.7472H699.953V73.7898H692.487V77.9574H700.592V81H688.797Z" fill="#FBFD5E"/>
</svg>
