<svg width="1194" height="248" viewBox="0 0 1194 248" fill="none" xmlns="http://www.w3.org/2000/svg">
<rect x="199" y="73" width="66" height="32" fill="#085A31"/>
<path d="M232 116L224.206 102.5L239.794 102.5L232 116Z" fill="#085A31"/>
<path d="M217.404 80.5455H221.094V91.8807C221.094 93.1534 220.79 94.267 220.182 95.2216C219.58 96.1761 218.736 96.9205 217.651 97.4545C216.566 97.983 215.301 98.2472 213.858 98.2472C212.409 98.2472 211.142 97.983 210.057 97.4545C208.972 96.9205 208.128 96.1761 207.526 95.2216C206.924 94.267 206.623 93.1534 206.623 91.8807V80.5455H210.313V91.5653C210.313 92.2301 210.458 92.821 210.748 93.3381C211.043 93.8551 211.458 94.2614 211.992 94.5568C212.526 94.8523 213.148 95 213.858 95C214.574 95 215.196 94.8523 215.725 94.5568C216.259 94.2614 216.671 93.8551 216.961 93.3381C217.256 92.821 217.404 92.2301 217.404 91.5653V80.5455ZM234.599 85.5653C234.531 84.8778 234.238 84.3437 233.721 83.9631C233.204 83.5824 232.502 83.392 231.616 83.392C231.014 83.392 230.505 83.4773 230.091 83.6477C229.676 83.8125 229.358 84.0426 229.136 84.3381C228.92 84.6335 228.812 84.9688 228.812 85.3438C228.801 85.6562 228.866 85.929 229.008 86.1619C229.156 86.3949 229.358 86.5966 229.613 86.767C229.869 86.9318 230.164 87.0767 230.5 87.2017C230.835 87.321 231.193 87.4233 231.574 87.5085L233.142 87.8835C233.903 88.054 234.602 88.2812 235.238 88.5653C235.875 88.8494 236.426 89.1989 236.892 89.6136C237.358 90.0284 237.718 90.517 237.974 91.0795C238.235 91.642 238.369 92.2869 238.375 93.0142C238.369 94.0824 238.096 95.0085 237.556 95.7926C237.022 96.571 236.25 97.1761 235.238 97.608C234.233 98.0341 233.02 98.2472 231.599 98.2472C230.19 98.2472 228.963 98.0312 227.917 97.5994C226.877 97.1676 226.065 96.5284 225.48 95.6818C224.9 94.8295 224.596 93.7756 224.568 92.5199H228.139C228.179 93.1051 228.346 93.5937 228.642 93.9858C228.943 94.3722 229.343 94.6648 229.843 94.8636C230.349 95.0568 230.92 95.1534 231.556 95.1534C232.181 95.1534 232.724 95.0625 233.184 94.8807C233.65 94.6989 234.011 94.446 234.267 94.1222C234.522 93.7983 234.65 93.4261 234.65 93.0057C234.65 92.6136 234.534 92.2841 234.301 92.017C234.074 91.75 233.738 91.5227 233.295 91.3352C232.858 91.1477 232.321 90.9773 231.684 90.8239L229.784 90.3466C228.312 89.9886 227.15 89.429 226.298 88.6676C225.446 87.9062 225.022 86.8807 225.028 85.5909C225.022 84.5341 225.304 83.6108 225.872 82.821C226.446 82.0312 227.233 81.4148 228.233 80.9716C229.233 80.5284 230.369 80.3068 231.642 80.3068C232.937 80.3068 234.068 80.5284 235.034 80.9716C236.005 81.4148 236.761 82.0312 237.301 82.821C237.841 83.6108 238.119 84.5256 238.136 85.5653H234.599ZM244.467 98H240.512L246.538 80.5455H251.294L257.311 98H253.356L248.984 84.5341H248.848L244.467 98ZM244.22 91.1392H253.561V94.0199H244.22V91.1392Z" fill="#FBFD5E"/>
</svg>
